<?xml version="1.0" encoding="UTF-8" standalone="no"?>
<!-- Created with Inkscape (http://www.inkscape.org/) -->

<svg
   width="512"
   height="512"
   viewBox="0 0 135.46666 135.46667"
   version="1.1"
   id="svg5"
   inkscape:version="1.1 (c68e22c387, 2021-05-23)"
   sodipodi:docname="gtb.svg"
   inkscape:export-filename="C:\Users\P50\Pictures\stickers\gtb.png"
   inkscape:export-xdpi="384.00003"
   inkscape:export-ydpi="384.00003"
   xmlns:inkscape="http://www.inkscape.org/namespaces/inkscape"
   xmlns:sodipodi="http://sodipodi.sourceforge.net/DTD/sodipodi-0.dtd"
   xmlns="http://www.w3.org/2000/svg"
   xmlns:svg="http://www.w3.org/2000/svg">
  <sodipodi:namedview
     id="namedview7"
     pagecolor="#414141"
     bordercolor="#ffffff"
     borderopacity="1"
     inkscape:pageshadow="0"
     inkscape:pageopacity="0"
     inkscape:pagecheckerboard="true"
     inkscape:document-units="mm"
     showgrid="true"
     units="px"
     inkscape:zoom="2.8284271"
     inkscape:cx="345.24489"
     inkscape:cy="164.93266"
     inkscape:window-width="1920"
     inkscape:window-height="1009"
     inkscape:window-x="-8"
     inkscape:window-y="-8"
     inkscape:window-maximized="1"
     inkscape:current-layer="layer1" />
  <defs
     id="defs2" />
  <g
     inkscape:label="Layer 1"
     inkscape:groupmode="layer"
     id="layer1">
    <g
       id="g134920"
       transform="translate(0,0.68371949)">
      <g
         id="g134529"
         transform="translate(-179.96598,-412.82196)">
        <g
           id="g134510">
          <path
             style="fill:#ffffff;fill-opacity:1;stroke:none;stroke-width:1.41421;stroke-miterlimit:4;stroke-dasharray:none;stroke-opacity:1"
             d="m 775.14647,1611.8085 c -7.21593,0.5556 -14.9656,-1.0564 -21.84573,1.6048 -5.26643,3.9024 -3.02077,11.4727 -3.73246,17.0893 0.10755,20.9764 -0.65018,42.004 0.55601,62.9491 0.60386,6.4219 8.23428,5.8899 12.97472,6.0856 6.71955,0.2379 13.44441,0.2392 20.16676,0.3405 1.17,3.8304 -3.84378,1.8571 -6.03935,2.4025 -8.23429,0.4132 -16.69499,-0.7606 -24.76826,0.6622 -5.05062,2.713 -2.25067,9.6055 -2.97469,14.2663 -0.8584,4.2843 1.10007,10.1232 6.41368,9.2421 17.08374,-0.348 34.25594,0.7383 51.28734,-0.725 6.43382,-1.0359 6.21087,-8.6825 6.2473,-13.689 0.46159,-31.7368 0.32999,-63.4799 0.52546,-95.2193 -0.65954,-6.4947 -8.19204,-4.9125 -12.77765,-5.0174 -8.67771,0 -17.35542,-0.01 -26.03313,0.01 z m 7.11803,24.1328 c 2.60529,1.7687 0.35058,8.3614 1.05145,12.0204 -0.0691,9.326 -0.13928,18.652 -0.209,27.978 -3.05798,0.7596 -4.47238,-0.4583 -3.74795,-3.6279 0.0726,-12.0198 -0.51533,-24.7433 0.40577,-36.3181 0.83288,-0.035 1.66621,-0.047 2.49973,-0.052 z"
             id="path133616"
             transform="scale(0.26458333)" />
          <path
             style="fill:#ffffff;fill-opacity:1;stroke:none;stroke-width:1.41421;stroke-miterlimit:4;stroke-dasharray:none;stroke-opacity:1"
             d="m 820.2563,1612.6178 c -4.13524,4.2492 -1.3901,10.842 -2.18347,16.153 0.14194,25.4507 -0.2824,50.9879 0.21089,76.385 1.34581,6.4406 9.28592,3.7918 13.98096,4.3246 5.04239,-0.7239 12.21011,2.1348 15.28704,-3.2414 0.74192,-13.4759 0.10822,-27.0756 0.31903,-40.5993 3.56453,-0.7221 5.42102,0.4508 4.65972,4.193 0.74358,14.8392 -0.74442,29.795 0.90736,44.567 0.70121,5.8524 6.87134,8.7206 12.2334,7.8529 6.89035,-0.1122 13.53305,0.1 20.28385,0.5564 0.14125,24.9818 -0.28118,50.0496 0.21089,74.9778 1.34581,6.4406 9.28592,3.7918 13.98096,4.3245 5.25992,-0.7984 12.70975,2.2729 15.99415,-3.2413 0.74346,-19.807 0.10641,-39.7383 0.31903,-59.5931 5.72303,-1.4654 3.41119,4.9184 3.86824,8.597 0.23866,16.6356 -0.087,33.3609 0.5049,49.9407 1.37684,6.4145 9.28613,3.7595 13.9771,4.2967 5.08891,-0.5999 11.09129,1.4237 15.51748,-1.447 3.47643,-4.2922 0.86607,-10.5208 1.57118,-15.6331 -0.57102,-21.8519 0.10963,-43.7765 -1.42458,-65.5823 -0.56146,-6.1503 -7.57264,-6.4984 -12.34398,-6.4233 -7.22205,-0.1746 -14.44697,-0.086 -21.67034,-0.1091 -0.70705,-5.0427 2.29957,-13.0817 -3.93621,-15.2939 -9.86797,-0.6024 -19.81885,-0.1808 -29.70937,-0.7265 -0.71129,-13.83 0.22168,-27.8803 -0.84107,-41.595 0.96851,-12.4144 0.68705,-24.9805 -0.0898,-37.4063 -1.21666,-6.6699 -9.44645,-5.3564 -14.4375,-5.7213 -14.99289,-0.1416 -30.06852,-0.5603 -45.0118,-0.2175 -0.72603,0.2206 -1.45206,0.4412 -2.17809,0.6618 z m 29.33802,23.3235 c 3.99884,-1.4009 3.12176,2.5652 3.15491,5.1389 -0.0482,2.7802 0.52467,6.7211 -3.55404,5.3682 -2.94001,-1.0038 -0.53444,-7.3533 -1.32444,-10.5071 0.57452,0 1.14905,0 1.72357,0 z"
             id="path133655"
             transform="scale(0.26458333)" />
          <path
             style="fill:#ffffff;fill-opacity:1;stroke:none;stroke-width:1.41421;stroke-miterlimit:4;stroke-dasharray:none;stroke-opacity:1"
             d="m 912.40667,1611.8112 c -7.30121,0.4206 -14.91347,-0.7079 -22.01284,1.2858 -5.26063,3.4939 -3.1796,10.8885 -3.73164,16.2179 -0.13943,4.2442 -0.85878,11.15 4.99946,11.5761 7.41171,-0.5561 15.22404,1.1369 22.40507,-1.051 2.21757,-0.8194 2.23279,-4.236 5.1721,-3.1654 3.41979,-0.9367 3.15717,9.4778 -0.98728,7.3867 -8.8512,0.3855 -17.88889,-0.3619 -26.62413,0.7294 -5.91667,2.4941 -4.26162,10.3301 -4.78423,15.5285 -0.003,11.5009 -0.7606,23.1056 0.44877,34.5481 2.3898,6.0835 10.2311,4.1133 15.32848,4.6542 14.94623,-0.026 29.97789,0.318 44.87048,-0.1515 6.44054,-1.3458 3.79177,-9.2859 4.32454,-13.981 -0.27536,-22.1412 0.59031,-44.3282 -0.58005,-66.4418 -0.19855,-5.8397 -6.6704,-7.3383 -11.4155,-6.9763 -9.13447,-0.2443 -18.2764,-0.1494 -27.41323,-0.1597 z m 5.22596,53.1822 c 5.14823,-1.3652 2.85832,4.4978 3.32423,7.6677 2.3637,3.2538 -4.30088,5.2592 -3.73717,1.7443 0.21504,-2.9279 -0.60996,-7.1303 0.41294,-9.412 z"
             id="path133694"
             transform="scale(0.26458333)" />
          <path
             style="fill:#ffffff;fill-opacity:1;stroke:none;stroke-width:1.41421;stroke-miterlimit:4;stroke-dasharray:none;stroke-opacity:1"
             d="m 958.11173,1612.6896 c -4.08833,4.2668 -1.36438,10.8262 -2.15308,16.1309 0.14048,22.1345 -0.28103,44.3549 0.21089,66.4358 1.34581,6.4406 9.28593,3.7918 13.98096,4.3246 5.25992,-0.7984 12.70975,2.2728 15.99415,-3.2414 0.86311,-20.0442 -0.1816,-40.2211 0.65877,-60.3057 4.84714,-1.2119 2.06584,5.0623 2.81563,7.8581 0.24021,17.1196 -0.0817,34.3284 0.51067,51.3922 1.37684,6.4145 9.28612,3.7595 13.97708,4.2968 5.2555,-0.7968 12.6986,2.2701 15.979,-3.2414 0.7152,-20.1908 0.1722,-40.5049 0.2521,-60.7434 -0.5515,-6.8177 0.9088,-14.1473 -1.5628,-20.6346 -3.9047,-4.5458 -10.8287,-2.4621 -16.0645,-3.1503 -14.00023,0.037 -27.73416,0.022 -41.75248,-0.011 -0.9488,0.2965 -1.89759,0.5929 -2.84639,0.8894 z"
             id="path133733"
             transform="scale(0.26458333)" />
          <path
             style="fill:#ffffff;fill-opacity:1;stroke:none;stroke-width:1.41421;stroke-miterlimit:4;stroke-dasharray:none;stroke-opacity:1"
             d="m 1061.3493,1591.4764 c -4.0883,4.2668 -1.3644,10.8262 -2.1531,16.1309 1.9501,6.4118 -5.2928,3.6307 -9.1923,4.1929 -6.9499,0.4234 -14.3281,-0.8204 -20.9937,1.4653 -5.2367,3.7793 -3.0199,11.2293 -3.6951,16.7274 0.013,21.5733 -0.3603,43.1693 0.4344,64.728 1.5297,6.3184 9.0791,4.2047 13.8051,4.7318 15.2637,0.087 30.6116,0.3707 45.8221,-0.083 6.4406,-1.3458 3.7918,-9.2859 4.3246,-13.981 -0.1406,-30.1484 0.2811,-60.3827 -0.2109,-90.4775 -1.3458,-6.4405 -9.2859,-3.7917 -13.981,-4.3245 -4.6941,0.3429 -9.6905,-0.8347 -14.1601,0.8894 z m -2.8104,44.4649 c 1.5259,2.9358 0.2251,8.6984 0.6573,12.7279 -0.124,9.0973 0.2501,18.6929 -0.1864,27.4777 -2.5032,-0.3459 -0.2117,-5.541 -1.0543,-7.5295 -0.1244,-10.8916 -0.056,-21.7841 -0.074,-32.6761 z"
             id="path133772"
             transform="scale(0.26458333)" />
          <path
             style="fill:#ffffff;fill-opacity:1;stroke:none;stroke-width:1.41421;stroke-miterlimit:4;stroke-dasharray:none;stroke-opacity:1"
             d="m 819.51881,1709.5632 c -4.25472,2.2191 -0.051,9.5508 -3.5673,10.4243 -5.4653,-0.2455 -6.28244,5.7851 -5.65686,9.9492 0.43295,4.7865 -1.96876,12.9551 4.63286,14.1254 4.85568,-0.3633 1.40037,7.3197 2.43821,10.6731 0.14105,13.6059 -0.28294,27.2981 0.21089,40.8502 1.96907,7.0548 10.6321,6.2841 16.43353,6.4511 14.10226,-0.1216 28.31515,0.6613 42.34928,-0.8021 5.90803,-0.8897 5.82383,-7.2442 5.45245,-11.8662 -0.14453,-12.7173 0.28554,-25.5224 -0.21089,-38.1861 -1.34581,-6.4405 -9.28592,-3.7917 -13.98096,-4.3245 -5.04239,0.7239 -12.21011,-2.1348 -15.28704,3.2414 -0.80577,9.4392 0.0669,19.0063 -0.55381,28.4872 -5.00761,1.3616 -3.44414,-3.8038 -3.65472,-7.1647 -0.0768,-9.0976 -0.15425,-18.1953 -0.2316,-27.2929 10.06702,-0.2899 20.31017,0.5744 30.26941,-0.4218 5.73482,-1.8772 3.02924,-9.2341 3.64961,-13.7701 0.58387,-4.1133 -0.27144,-10.3466 -5.70657,-9.9492 -9.41152,0 -18.82303,0 -28.23455,0 0.36472,-4.3887 0.4578,-11.6315 -5.70657,-11.3137 -7.47559,0.4976 -15.41119,-1.0509 -22.64537,0.8894 z"
             id="path133811"
             transform="scale(0.26458333)" />
          <path
             style="fill:#ffffff;fill-opacity:1;stroke:none;stroke-width:1.41421;stroke-miterlimit:4;stroke-dasharray:none;stroke-opacity:1"
             d="m 983.7775,1712.8792 c -7.73367,0.3245 -15.65709,-0.4492 -23.26685,1.109 -6.09409,3.0568 -3.84015,11.1314 -4.48411,16.6086 0.13117,21.7449 -0.61109,43.535 0.47211,65.2528 0.21147,5.267 5.94873,6.5268 10.21818,5.9362 16.09664,0.06 32.2796,0.2747 48.32127,-0.2415 6.4082,-1.3865 3.8255,-9.3379 4.5035,-14.0502 -0.4506,-4.7298 2.2777,-12.2031 -3.6402,-14.2506 -7.3854,-0.2186 -15.0385,-0.6502 -22.35201,0.1988 -4.56114,-0.085 -1.74182,7.0802 -6.0139,5.939 -3.73436,1.0751 -1.98636,-3.6388 -2.33411,-5.6785 -1.23773,-5.7028 6.6193,-2.1798 9.97762,-3.2203 7.4381,-0.5756 15.2111,0.8904 22.4112,-1.137 4.0173,-4.2937 1.3262,-10.8031 2.1075,-16.0991 -0.3882,-11.9314 0.8413,-24.051 -0.9861,-35.8691 -2.5973,-5.7579 -10.0589,-3.5871 -15.0805,-4.3078 -6.61625,-0.1702 -13.23543,-0.2028 -19.8536,-0.1903 z m 3.7427,26.6532 c 3.3507,-0.2214 1.28852,5.4854 2.09688,7.692 0.48202,1.795 -5.81591,1.7328 -4.49166,-0.6762 0.73891,-2.0281 -1.65467,-8.4812 2.39478,-7.0158 z"
             id="path133850"
             transform="scale(0.26458333)" />
          <path
             style="fill:#ffffff;fill-opacity:1;stroke:none;stroke-width:1.41421;stroke-miterlimit:4;stroke-dasharray:none;stroke-opacity:1"
             d="m 1052.5133,1713.0629 c -7.9928,0.5876 -16.4622,-0.8627 -24.1384,1.7442 -4.7404,3.6579 -2.6568,10.5788 -3.4003,15.7468 -0.1984,22.185 -0.6592,44.4 -0.027,66.5718 1.7826,6.3509 9.8748,4.6117 14.8313,4.9856 4.7786,-0.5795 12.3926,2.0681 14.3748,-3.9371 0.4501,-10.9094 0.064,-21.8941 0.1927,-32.8324 7.2702,-0.4666 14.8371,1.0106 21.8886,-0.8894 4.0883,-4.2668 1.3644,-10.8262 2.1531,-16.1309 1.0442,-5.1091 -3.9557,-8.2603 -8.535,-7.1208 -5.1689,0 -10.3378,0 -15.5067,0 -0.7458,-3.5782 4.4686,-1.3653 6.5477,-2.0209 5.1833,-0.5802 11.2577,1.4071 15.7757,-1.448 3.4251,-4.172 0.9919,-10.2546 1.7183,-15.2501 0.8432,-4.3655 -0.9014,-10.566 -6.4634,-9.6119 -6.4703,0.064 -12.9406,0.1287 -19.4109,0.1931 z"
             id="path133889"
             transform="scale(0.26458333)" />
          <path
             style="fill:#ffffff;fill-opacity:1;stroke:none;stroke-width:1.41421;stroke-miterlimit:4;stroke-dasharray:none;stroke-opacity:1"
             d="m 1081.8554,1713.8059 c -2.5846,3.6417 -2.1522,6.6432 -6.2542,8.7439 -1.9026,5.1021 -0.3392,11.1248 -0.8486,16.5793 0.053,4.9499 7.0548,3.8999 4.9528,9.2338 0.2597,15.541 -0.5369,31.1771 0.7068,46.6622 2.041,6.3655 9.52,6.9341 15.154,6.8007 14.4522,0.1404 29.0495,0.7856 43.406,-1.072 6.5412,-2.2842 4.6692,-10.5891 5.1404,-15.9389 -0.1968,-11.4167 0.5771,-22.9994 -0.3859,-34.3077 -1.8772,-5.7348 -9.2341,-3.0292 -13.7701,-3.6496 -5.0424,0.7239 -12.2101,-2.1348 -15.287,3.2414 -0.7951,9.4397 0.04,19.0055 -0.5193,28.4886 -2.6694,0.5663 -4.6561,0.096 -3.8636,-3.0465 -0.1389,-10.4701 -0.055,-20.9418 -0.079,-31.4125 10.0768,-0.2738 20.3215,0.5523 30.2915,-0.4218 5.7348,-1.8772 3.0292,-9.2341 3.6496,-13.7701 0.5839,-4.1133 -0.2715,-10.3466 -5.7066,-9.9492 -9.4115,0 -18.823,0 -28.2345,0 1.0229,-5.0927 -3.981,-8.2008 -8.535,-7.071 -6.5422,0.4602 -13.5143,-1.0049 -19.817,0.8894 z"
             id="path133928"
             transform="scale(0.26458333)" />
          <path
             style="fill:#ffffff;fill-opacity:1;stroke:none;stroke-width:1.41421;stroke-miterlimit:4;stroke-dasharray:none;stroke-opacity:1"
             d="m 715.57411,1795.1231 c -4.08833,4.2669 -1.36438,10.8262 -2.15309,16.1309 0.14123,29.4413 -0.28172,58.9686 0.2109,88.3562 1.34581,6.4405 9.28592,3.7918 13.98096,4.3245 14.63401,-0.1902 29.32745,0.4249 43.92624,-0.58 7.43652,-2.113 6.54786,-11.2492 6.86881,-17.3334 0.0791,-21.6788 0.64931,-43.4196 -0.58909,-65.0625 -1.86422,-6.3378 -9.85771,-4.7779 -14.91244,-5.2525 -6.09036,-0.1314 -12.18217,-0.1801 -18.27324,-0.269 -0.43483,-6.3291 0.96471,-12.938 -0.88941,-19.0505 -4.26682,-4.0883 -10.82617,-1.3644 -16.13087,-2.1531 -4.01254,0.2602 -8.23677,-0.7009 -12.03877,0.8894 z m 29.55347,44.5713 c 3.62178,-1.0143 2.67452,2.6366 2.8381,4.9677 0.0113,11.3977 0.47787,23.3244 -0.45023,34.4189 -5.28616,1.2737 -1.95947,-6.088 -2.88229,-9.1868 0,-10.074 0,-20.148 0,-30.2219 z"
             id="path133967"
             transform="scale(0.26458333)" />
          <path
             style="fill:#ffffff;fill-opacity:1;stroke:none;stroke-width:1.41421;stroke-miterlimit:4;stroke-dasharray:none;stroke-opacity:1"
             d="m 809.86514,1815.469 c -7.52293,0.3313 -15.23538,-0.461 -22.63432,1.0427 -5.87588,3.3325 -3.73763,11.2977 -4.46805,16.855 -0.57527,4.3496 -0.56385,11.5024 5.54528,11.1711 7.26734,-0.5926 15.00293,1.2324 21.99213,-1.1712 2.36596,-0.9817 2.26063,-4.8504 5.47179,-3.6916 2.83401,-0.1299 1.92729,8.2147 -0.0565,8.0206 -8.80725,0.3947 -17.80308,-0.3556 -26.49398,0.7427 -6.23064,2.4448 -6.67426,10.1244 -6.46531,15.8845 0.38289,10.6752 -1.07424,21.6062 1.20015,32.1155 2.21945,7.2745 10.8656,7.4329 17.08795,7.2409 14.1517,0.1346 28.38729,0.4607 42.4874,0.047 6.45587,-1.328 3.80779,-9.2857 4.33909,-13.983 -0.3109,-21.5688 0.685,-43.1942 -0.72506,-64.7279 -0.0169,-5.4323 -4.68697,-9.9756 -10.19272,-9.2041 -9.02292,-0.3687 -18.0589,-0.3554 -27.08783,-0.3419 z m 6.55455,53.8175 c 2.11775,1.4637 0.49293,7.5006 0.79964,10.2765 -3.73072,0.7418 -4.47164,-1.7411 -3.99681,-4.9843 0.36556,-2.1088 -1.23734,-6.5375 2.58949,-5.2891 h 0.58282 z"
             id="path134006"
             transform="scale(0.26458333)" />
          <path
             style="fill:#ffffff;fill-opacity:1;stroke:none;stroke-width:1.41421;stroke-miterlimit:4;stroke-dasharray:none;stroke-opacity:1"
             d="m 893.45566,1815.0713 c -4.25896,0.082 -8.67819,1.4056 -12.41028,2.9223 -3.59673,-4.6478 -10.46378,-1.7313 -15.54668,-2.5467 -4.70201,0.2331 -12.76873,-1.6652 -13.48475,4.9995 0.14138,26.3771 -0.28158,52.8403 0.2109,79.1638 1.34581,6.4405 9.28592,3.7918 13.98096,4.3245 5.04239,-0.7238 12.2101,2.1349 15.28704,-3.2413 0.82735,-20.2415 -0.10584,-40.6116 0.69467,-60.8955 4.68798,-1.797 3.67061,2.9536 3.71521,6.1083 0.24183,17.8908 -0.25033,35.8668 0.26324,53.704 1.34581,6.4405 9.28592,3.7918 13.98096,4.3245 5.25991,-0.7984 12.70975,2.2729 15.99415,-3.2413 0.74343,-20.2651 0.10634,-40.6544 0.31903,-60.9673 6.15922,-2.1627 4.9134,3.6278 4.85031,7.7782 0.13364,25.8772 -0.32826,51.7731 0.48337,77.6381 1.36283,6.2857 8.81073,4.3105 13.4474,4.7559 26.93507,0.1929 53.95662,0.4322 80.83911,-0.012 6.4405,-1.3458 3.7917,-9.2859 4.3245,-13.981 0.5839,-4.1133 -0.2714,-10.3466 -5.7066,-9.9492 -21.14458,0 -42.28919,0 -63.4338,0 -0.57113,-25.4936 0.88191,-51.0056 0.12568,-76.4863 0.0774,-5.2095 -3.39516,-9.7178 -8.36513,-11.1756 -10.47998,-4.6522 -22.94357,-3.0227 -33.25474,0.9239 -5.07474,-2.5088 -10.56997,-4.4374 -16.31455,-4.1473 z"
             id="path134045"
             transform="scale(0.26458333)" />
          <path
             style="fill:#ffffff;fill-opacity:1;stroke:none;stroke-width:1.41421;stroke-miterlimit:4;stroke-dasharray:none;stroke-opacity:1"
             d="m 957.40463,1800.78 c -4.08833,4.2668 -1.36439,10.8262 -2.15309,16.1309 0.14129,27.5556 -0.28179,55.1973 0.2109,82.6993 1.34581,6.4405 9.28592,3.7918 13.98096,4.3245 14.94261,-0.3414 29.9842,0.723 44.8681,-0.7292 6.7007,-1.374 5.7498,-9.4971 5.958,-14.6448 0.01,-21.8369 0.634,-43.7153 -0.3978,-65.5289 -0.092,-5.6219 -6.1357,-7.4089 -10.8055,-7.1305 -7.7643,-0.3556 -15.53982,-0.3238 -23.30963,-0.464 -0.71585,-5.026 2.12252,-12.1655 -3.24136,-15.2277 -7.57889,-0.5873 -15.36645,-0.3984 -22.93913,-0.1081 -0.72381,0.2262 -1.44763,0.4523 -2.17145,0.6785 z m 29.01762,39.1616 c 4.41809,-1.0553 2.06568,4.781 2.73451,7.3735 0.0233,10.5827 0.16269,21.1736 -0.29693,31.7494 -5.34137,1.5237 -2.26625,-5.3967 -3.01974,-8.463 0.31059,-10.2153 -0.31194,-20.4467 0.58216,-30.6599 z"
             id="path134084"
             transform="scale(0.26458333)" />
          <path
             style="fill:#ffffff;fill-opacity:1;stroke:none;stroke-width:1.41421;stroke-miterlimit:4;stroke-dasharray:none;stroke-opacity:1"
             d="m 1048.6877,1816.1596 c -6.8448,0.6207 -14.3604,-1.2319 -20.7851,1.7028 -4.599,3.7589 -2.4008,10.5833 -3.1903,15.7342 -0.1532,21.4526 -0.8297,42.9791 0.5787,64.3899 1.8708,6.4169 9.9209,4.7102 15.0038,5.1667 14.5783,-0.2016 29.2788,0.8084 43.7828,-0.7736 6.0715,-1.9241 4.0165,-9.4726 4.6528,-14.2705 0.2467,-22.0498 0.8578,-44.1628 -0.4654,-66.1794 -1.5514,-6.8687 -9.9322,-5.4439 -15.1862,-5.7298 -8.1302,-0.064 -16.2608,-0.042 -24.3911,-0.04 z m 8.1842,23.5776 c 1.2977,3.218 0.1863,8.6834 0.5566,12.7666 0,8.7937 0,17.5874 0,26.3811 -5.3781,1.4524 -2.189,-5.864 -2.9905,-9.0968 0.076,-9.9912 0.153,-19.9824 0.2297,-29.9736 0.7303,-0.095 1.4692,-0.1029 2.2042,-0.077 z"
             id="path134123"
             transform="scale(0.26458333)" />
          <path
             style="fill:#ffffff;fill-opacity:1;stroke:none;stroke-width:1.41421;stroke-miterlimit:4;stroke-dasharray:none;stroke-opacity:1"
             d="m 1120.5253,1816.1623 c -7.8389,0.4748 -15.9915,-0.7572 -23.6508,1.0234 -5.2151,3.614 -2.9429,11.0083 -3.6547,16.3808 -0.025,21.598 -0.3776,43.219 0.412,64.8025 1.4739,6.2366 8.882,4.2448 13.5523,4.7308 15.0793,-0.094 30.2609,0.8049 45.2784,-0.6663 6.3173,-1.7763 4.2522,-9.6455 4.8987,-14.5288 0.2425,-22.1283 0.836,-44.3248 -0.5842,-66.4156 -1.4572,-6.4288 -9.3771,-4.7591 -14.2717,-5.2231 -7.3258,-0.1224 -14.6533,-0.1158 -21.98,-0.1037 z m 4.936,23.5749 c 1.2976,3.218 0.1863,8.6834 0.5565,12.7666 0,8.7937 0,17.5874 0,26.3811 -5.378,1.4524 -2.1889,-5.864 -2.9904,-9.0968 0.076,-9.9912 0.1529,-19.9824 0.2297,-29.9736 0.7303,-0.095 1.4692,-0.1029 2.2042,-0.077 z"
             id="path134162"
             transform="scale(0.26458333)" />
        </g>
        <path
           style="fill:#010001;fill-opacity:1;stroke-width:0.0846667"
           d="m 244.43333,512.75245 c -2.55477,0.26358 -3.1442,-0.37353 -3.17797,-2.11614 v -5.03951 h -32.8459 c -1.59463,0.006 -1.40651,-0.04 -1.80276,-0.89969 -0.25944,0.93474 -0.60917,0.79416 -1.37701,0.89969 H 187.2375 v -32.38447 h 11.06752 v 5.28902 h 6.03575 c 1.67143,0.13056 1.35908,0.6897 1.8639,1.15735 0.58837,-0.51244 0.70283,-1.17809 1.93411,-1.15735 h 11.44198 c -1.45348,-0.43463 -4.992,-0.65991 -4.90862,-2.7926 v -12.73998 l -1.86477,3.2e-4 v -4.14877 h -16.08482 v -31.5202 c 0.48393,-1.02813 1.34652,-1.94017 2.74607,-2.21947 h 32.6692 c 1.24581,0.0504 1.23243,0.67091 1.82438,1.524 0.48605,-0.85027 0.92024,-1.58142 2.19199,-1.524 h 14.35497 c 1.49547,-0.0271 1.38863,0.84428 1.70789,1.524 v -1.524 h 16.62266 c 1.39441,0.0714 1.65335,0.7527 2.02439,1.524 0.44316,-0.82977 0.5635,-1.43614 2.03549,-1.52403 l 5.71494,-0.0487 6e-5,-5.49692 h 11.26066 v 31.58062 l -45.1485,3e-5 v 1.09534 h 4.2545 c 2.48016,0.0813 2.57129,0.67541 3.08303,1.6918 0.5659,-1.00305 0.4828,-1.60854 3.05479,-1.6918 h 13.67624 c 0.90701,0.0344 1.32154,0.50256 1.81822,1.19543 0.41881,-0.71168 0.83797,-1.2049 1.81821,-1.19543 h 22.84101 v 1.52956 h 9.21726 v 21.13733 c -0.0331,1.394 -1.0811,3.63127 -4.0844,3.62344 h 4.64639 c 1.47637,0.4303 2.84359,0.93095 3.10912,2.74508 v 22.37422 c -0.0857,1.31773 -1.48801,1.96128 -3.10912,1.97615 h -14.98623 c -1.49254,0.031 -1.2412,-0.32743 -1.50548,-1.30143 -0.3038,0.99899 -0.0214,1.34349 -1.71186,1.30143 h -13.12336 c -1.86232,0.0253 -2.18147,0.0193 -2.24363,-1.21567 v 1.21567 l -4e-5,7.15565 z m 24.25403,-7.15565 h -17.4653 c -0.60591,0.0271 -0.76287,-0.13036 -0.75867,-0.75903 v -10.9036 l 0.0465,-10.71149 -0.5421,-0.39959 c -2.61895,-1.93045 -5.60635,-1.43332 -8.55566,-0.39062 l -0.64759,0.41603 -0.28375,-0.17351 c -0.63225,-0.38661 -1.60788,-0.82836 -2.17899,-0.98663 -1.64254,-0.45517 -2.90106,-0.283 -5.16338,0.70645 -0.54323,0.23759 -1.02706,0.24914 -1.02706,0.24914 v -0.96397 h -2.70932 l -2.79401,7e-5 10e-6,10.3716 v 10.372 h 5.50332 v -16.27902 c -9.4e-4,-0.33541 0.10076,-0.56095 0.51426,-0.58817 h 2.49937 c 0.4131,-5e-4 0.52901,0.19625 0.54298,0.58817 l 0.0841,16.27902 h 5.50333 v -16.27902 c -0.0165,-0.36249 0.15899,-0.54567 0.55298,-0.58817 h 2.54794 c 0.60049,-0.0165 0.61991,0.21421 0.62441,0.58825 v 22.02304 c 0.0447,1.19708 0.17586,1.23336 1.05836,1.28297 0,0 13.41846,-0.006 22.64833,0 z m -65.12864,-3.17747 c 0.5816,0 0.99065,-0.7521 1.13664,-1.16409 l 0.0427,-18.24648 c 0.0265,-0.9473 -0.13182,-1.3313 -1.08396,-1.33665 h -7.97586 l 0.0264,-5.66452 h -5.588 v 26.42038 z m 19.45037,-19.41057 c -0.0914,-0.43174 -0.35535,-1.3503 -1.12518,-1.32871 h -12.83176 c -0.72974,0.006 -0.68584,1.02268 -0.71678,3.23876 l -0.0269,1.92617 h 5.59944 l 4e-5,-0.25113 c 7e-5,-0.44701 0.24361,-0.82258 0.62909,-0.9698 0.49721,-0.18988 1.83526,-0.18176 2.30856,0.014 0.15447,0.0639 0.4771,0.13449 0.61835,0.24681 v 4.25418 h -8.10882 c -0.51531,0.23288 -0.94594,0.79486 -0.94594,1.25945 v 9.69404 c 0.18846,0.67865 0.79208,1.18603 1.78546,1.33112 l 12.81444,-2e-5 z m -8.48466,15.45509 c -0.33098,-0.12722 -0.54496,-0.25719 -0.6164,-0.77311 l -3e-5,-3.31625 c 0.0555,-0.5727 0.23244,-0.84583 0.58976,-0.97609 l 2.96627,-0.11876 -3e-5,5.334 z m 52.25793,3.9598 c 1.82323,0.0423 1.8513,0.0175 1.905,-1.39056 l 0.0265,-18.29445 c -0.005,-0.60436 -0.38549,-1.08686 -1.34514,-1.06626 h -7.82532 v -4.22542 h -5.50347 l -1.3e-4,24.97669 z m 18.62667,-0.0877 c 1.25664,0.0312 1.5666,-0.35598 1.48166,-1.30295 l -0.0888,-18.15412 c -0.003,-1.03034 -0.20251,-1.18849 -1.39291,-1.15623 l -11.684,-3e-5 c -0.79256,-0.0552 -1.40334,0.19273 -1.36922,1.15626 l -0.11257,18.15419 c 0.008,1.06737 0.3715,1.3349 1.48184,1.29612 z m 18.20174,0.003 c 1.08071,0.0135 1.42,-0.0836 1.44119,-1.30598 v -18.15412 c -0.008,-0.89855 -0.53343,-1.16169 -1.44119,-1.15623 h -11.76549 c -1.05177,0.0171 -1.44103,0.12976 -1.44092,1.27 v 18.04035 c -0.045,1.1059 0.11872,1.30359 1.44092,1.30598 z m -7.82842,-15.39109 c -0.0157,-1.25983 -0.0355,-1.34189 0.89998,-1.39145 h 1.72674 c 0.86561,0.0259 0.87471,0.0729 0.87729,1.39145 v 10.68256 c 0.002,0.83474 0.009,0.83129 -0.74433,0.8341 l -2.11108,0.0152 c -0.5794,-0.0172 -0.69615,-0.0343 -0.6486,-0.74909 z m -64.88151,-11.47361 c 0.94439,0.01 1.21503,-0.34983 1.21052,-1.26577 v -10.81619 h -5.50333 v 7.87138 c 0.006,0.4537 -0.089,0.54355 -0.55351,0.56551 l -2.50881,-0.0125 c -0.34646,0.0141 -0.50275,-0.0627 -0.49368,-0.55298 v -11.08869 h 9.05933 l -1e-5,-3.81006 -9.05248,6e-5 -0.0492,-3.02921 h -5.54569 v 3.0292 h -1.77797 v 3.81001 h 1.77429 v 14.0335 c -0.0139,0.91595 0.44192,1.34696 1.61232,1.34701 z m 10.35426,-16.65393 3.08477,0.003 c 0.38454,0.0145 0.44995,0.26717 0.449,0.51357 v 16.13781 h 5.70733 l -0.0278,-19.28128 c -0.004,-1.02712 0.0134,-1.70743 -1.2213,-1.69022 h -7.992 l -4e-5,-1.91023 v -2.32346 h -8.01552 c -0.82494,-0.0455 -0.93315,-0.24951 -0.93794,-0.99086 v -10.49894 c 0.008,-0.48491 -0.21947,-0.49208 -0.7197,-0.5584 0.47651,-0.17435 0.71104,-0.31105 0.7197,-0.97502 v -8.24674 c -0.0909,-0.85795 -0.17264,-1.23923 -1.56589,-1.26143 h -13.081 v 23.37753 h 5.35498 v -11.68347 h 3.18127 c 0.46801,0.002 0.59973,0.16061 0.6081,0.50134 V 452.627 c -0.0233,1.21995 0.42662,1.69057 1.55011,1.8686 l 7.40312,0.008 v 20.9715 h 5.50281 z m -18.24541,-27.27669 h 3.2094 c 0.3313,0.01 0.57108,0.40485 0.57997,0.68892 v 3.82549 c 0,0.35221 -0.18202,0.73672 -0.57997,0.76005 h -3.2094 z m 45.0925,43.93062 c 0.40701,-0.0227 0.4658,-0.22336 0.45817,-0.84826 v -4.20634 h -5.46098 v 0.84376 c 0.0262,1.16699 -3.64934,1.18937 -3.65178,0 l -2e-5,-4.06109 h 9.1128 l -2e-5,-11.76311 c 0.0605,-0.59657 -0.29798,-0.95594 -1.02379,-0.9361 h -12.26883 c -0.71987,0.0115 -1.05764,0.20817 -1.14779,0.9361 v 19.18678 c -0.002,0.65966 0.055,0.79849 0.91652,0.84817 z m -8.65461,-15.65434 c 0.0501,-0.82148 0.14473,-0.98458 0.60377,-0.99525 l 2.43894,-10e-4 c 0.37961,0.0119 0.55577,0.26849 0.5738,0.99668 l 0.035,3.91107 h -3.65153 z m 18.21444,5.94305 h 6.35 v -3.81 l -6.35,2e-5 c 0.0102,-1.46278 -0.41115,-3.04612 1.1217,-3.13266 h 5.31297 v -4.31721 h -10.26167 c -1.12567,-6e-4 -1.45433,0.52606 -1.44563,1.34734 l 0.0423,19.6238 h 5.23029 z m 22.30358,9.71129 c 1.039,-0.0247 1.59453,-0.40765 1.57243,-1.26577 l 1.2e-4,-10.81619 h -5.50346 v 7.87138 c 0.018,0.34781 -0.11117,0.51506 -0.50511,0.55298 h -2.58693 c -0.4063,-0.009 -0.5608,-0.21913 -0.54862,-0.55298 v -11.08869 l 9.14412,8e-5 -1.2e-4,-3.81008 h -9.14388 v -1.86187 h -5.39762 v 1.86195 h -1.37572 v 3.81 l 1.37572,-8e-5 v 14.0335 c 0.0158,0.68716 0.58625,1.23405 1.44948,1.26577 z m -87.16431,-19.94906 c 0.69479,-0.0278 1.18287,-0.45661 1.21257,-1.17477 v -26.6123 h -13.44644 c -0.65017,0.0121 -1.05304,0.53704 -1.0395,1.0595 v 18.76203 c 0.009,0.63851 0.42891,0.92169 1.0663,0.9316 h 7.92821 v 2.62162 c 0.003,0.39834 -0.21706,0.57204 -0.60778,0.55312 l -8.38673,0.0468 v 3.8124 z m -7.17604,-10.84421 c -0.34699,-0.0401 -0.67031,-0.19343 -0.71306,-0.60623 v -11.79214 c 0.002,-0.41649 0.29979,-0.70916 0.71306,-0.72496 h 2.88528 l -4e-5,13.12333 z m 44.88206,-16.0593 c -0.004,-0.5243 -0.34469,-0.89897 -0.99748,-0.88356 H 236.9408 c -0.83587,-0.002 -1.08441,0.25113 -1.04061,0.92397 v 4.29257 h 5.50334 v -0.72206 c -0.0313,-0.62443 3.61914,-0.67208 3.59833,0 l -3e-5,3.99891 h -8.06103 c -0.71669,0.0383 -1.01033,0.54785 -1.06442,1.2547 v 10.07344 c -0.001,0.7795 0.28512,0.94412 1.15491,0.9316 h 13.47602 z m -8.5206,16.0593 c -0.36288,-0.007 -0.55703,-0.1429 -0.54085,-0.51752 v -4.22113 c -0.0311,-0.36844 0.0891,-0.57887 0.49372,-0.60593 h 3.06227 l 1e-5,5.34458 z m 17.81065,-12.53066 c 0.002,-0.3082 0.25075,-0.54528 0.60166,-0.55034 h 2.29505 c 0.36726,0.019 0.54895,0.15354 0.55346,0.55352 v 16.33775 h 5.50333 v -19.68527 c 0.0242,-0.51532 -0.31076,-1.04816 -0.83608,-1.06786 h -7.2072 c -0.46047,0.004 -0.85847,0.6746 -1.05442,1.06786 -0.001,-0.35278 -0.003,-0.71508 -0.004,-1.06786 h -5.50333 v 20.75313 h 5.65159 z m 27.19917,-10.07533 h -5.50335 v 5.66313 h -7.94304 c -0.68646,0.02 -1.03088,0.32903 -1.03955,1.0595 v 18.65964 c -0.0199,0.73089 0.10403,1.00293 0.6318,1.03399 h 13.85414 z m -8.382,22.15534 v -12.34698 c -0.0116,-0.24378 0.099,-0.34173 0.38629,-0.33655 h 2.49236 l 1e-5,13.13418 h -2.49237 c -0.29066,-0.012 -0.38648,-0.11035 -0.38629,-0.45065 z m -0.95247,42.7176 c -0.0156,-1.25981 -0.0354,-1.34189 0.90005,-1.39144 h 1.72675 c 0.86561,0.0259 0.87469,0.0729 0.87728,1.39144 v 10.68255 c 0.003,0.83476 0.009,0.8313 -0.74432,0.83413 l -2.11109,0.0151 c -0.57941,-0.0172 -0.69614,-0.0343 -0.6486,-0.74909 z m -18.11867,-1.39144 2.62681,3e-5 c 0.86561,0.0259 0.87468,0.60207 0.87728,1.92061 v 9.09505 c 0.003,0.83477 0.009,1.88963 -0.74433,1.89246 l -2.75968,0.0151 z m -63.86513,0 2.62676,3e-5 c 0.86561,0.0259 0.87473,0.60206 0.87733,1.92061 v 9.09505 c 0.003,0.83476 0.009,1.88963 -0.74433,1.89246 l -2.75968,0.0151 z"
           id="path14519"
           sodipodi:nodetypes="ccccccccccccccccccccccccccccccccccccccccccccccccccccccccccccccccsscssscccccccccccccccccccccccccccccccccsccssscccsccccccccccccccccccccccccccccccccccccccccccccccccccccccccccccccccccccccccccccccccccccccccccccccccccccccccccccccccccccccccccccccccccccccccccccccccccccccccccccccccccccccccccccccccccccccccccccccccccccccccccccccccccccccccccccccccccccccccccccccccccccccccccccccc" />
      </g>
      <g
         id="g13731"
         transform="translate(-1.4352709e-7,-2.7734832)">
        <g
           id="layer1-7"
           inkscape:label="Layer 1"
           transform="matrix(0.25734479,-0.06146543,0.06146543,0.25734479,-57.647497,-139.20605)">
          <path
             id="path3043"
             style="fill:#55ff55"
             inkscape:connector-curvature="0"
             d="m 41.628,900.76 c 0,0 -12.511,-10.166 -17.203,-24.632 10.166,6.2557 11.73,6.6467 11.73,6.6467 0,0 -7.4287,-8.9926 -12.12,-14.466 7.8197,0.39098 19.158,10.948 19.158,10.948 0,0 -4.3008,-10.557 -8.9926,-14.466 10.557,6.6467 26.587,18.376 30.497,28.542 -17.594,7.0377 -23.068,7.4287 -23.068,7.4287 z" />
          <path
             id="path3015"
             style="fill:#c79149"
             inkscape:connector-curvature="0"
             d="m 40.993,903.44 c 0,0 -8.8502,-14.75 -7.3752,-30.976 9.8336,7.8668 39.826,17.209 54.576,30.484 -6.8835,23.109 -22.125,27.042 -22.125,27.042 z" />
          <path
             id="path3039"
             style="fill:#4eeb4e"
             inkscape:connector-curvature="0"
             d="m 41.237,921.49 c 0,0 -14.857,-17.985 -18.376,-33.625 7.0377,3.1279 36.752,19.549 36.752,19.549 z" />
          <path
             id="path3021"
             style="fill:#e7bd52"
             inkscape:connector-curvature="0"
             d="m 58.693,910.33 -13.275,-21.142 17.209,19.667 -5.9001,-18.192 16.225,22.617 -7.3752,-18.192 16.225,25.076 -6.8835,-19.667 14.259,19.667 -17.7,3.4418 z" />
          <path
             id="path3013"
             style="fill:#bf8b46"
             inkscape:connector-curvature="0"
             d="m 48.368,942.29 c 0,0 -10.325,-12.292 -16.717,-46.709 24.584,9.3419 54.576,21.142 54.576,21.142 l 3.9334,35.401 z" />
          <path
             id="path3019"
             style="fill:#e7bd52"
             inkscape:connector-curvature="0"
             d="m 65.576,942.78 -17.209,-20.159 16.717,13.275 -13.767,-24.092 21.634,23.601 -8.8502,-20.159 24.092,28.026 -12.292,-24.092 16.717,19.175 1.9667,15.242 z" />
          <path
             id="path3037"
             style="fill:#44cc44"
             inkscape:connector-curvature="0"
             d="m 55.313,956.28 c 0,0 -15.248,-10.557 -23.459,-30.888 14.466,12.12 39.098,16.03 39.098,16.03 z" />
          <path
             id="path3041"
             style="fill:#4eeb4e"
             inkscape:connector-curvature="0"
             d="m 83.855,908.97 c 0,0 -7.0377,-7.4287 -8.9926,-23.068 8.2106,1.5639 23.068,24.632 23.068,24.632 z" />
          <path
             id="path3011"
             style="fill:#b58442"
             inkscape:connector-curvature="0"
             d="m 84.26,947.69 c 0,0 -7.8668,-38.843 -3.9334,-53.593 9.8336,8.3585 34.909,22.617 43.759,29.009 8.8502,6.3918 32.942,29.009 33.926,54.576 -54.576,-25.076 -73.752,-29.992 -73.752,-29.992 z" />
          <path
             id="path3017"
             sodipodi:nodetypes="cccccccccccccc"
             style="fill:#e7bd52"
             inkscape:connector-curvature="0"
             d="m 105.89,951.63 -14.259,-26.059 24.584,27.534 c 0,0 -4.9168,-16.717 -10.325,-27.042 4.9168,2.4584 17.209,24.092 17.7,29.992 -2.4584,-12.292 -2.9501,-21.142 -6.3918,-25.076 5.4085,6.8835 11.8,24.584 12.292,30.976 0,-14.259 -0.49168,-20.65 -0.49168,-20.65 0,0 11.309,14.75 11.309,20.65 -0.49168,-9.8336 -2.4584,-17.7 -2.4584,-17.7 0,0 16.225,21.142 16.717,28.517 -0.98335,-10.817 -9.8336,-27.042 -15.242,-36.384 12.292,7.3752 22.617,28.517 24.584,41.793 -17.209,10.817 -58.018,-26.551 -58.018,-26.551 z" />
          <path
             id="path2996"
             style="fill:#b58442"
             inkscape:connector-curvature="0"
             d="m 136.87,1038.7 c 0,0 -29.009,-2.95 -55.56,-35.401 -26.551,-32.451 -33.434,-59.001 -39.826,-67.851 17.7,4.4251 46.709,3.4417 68.835,9.8335 22.125,6.3918 50.643,15.242 66.376,41.793 -13.275,23.601 -39.826,51.626 -39.826,51.626 z" />
          <path
             id="path3009"
             style="fill:#e7bd52"
             inkscape:connector-curvature="0"
             d="m 133.33,952.89 c 1.8214,1.369 1.8025,1.2775 3.9062,2.9062 3.8105,2.9501 7.9062,6.2093 11.594,9.3438 3.6876,3.1344 6.975,6.1666 9.1875,8.625 -6.6376,-3.4418 -12.159,-6.0291 -16.031,-7.75 -3.872,-1.7209 -6.0938,-2.5938 -6.0938,-2.5938 l 13.75,17.219 -28,-19.188 8.8438,18.188 -22.625,-22.125 10.344,20.156 -36.406,-24.562 24.594,27.031 -27.531,-11.812 25.063,19.188 -18.688,-0.96875 25.094,12.781 -13.781,1.46865 21.156,12.781 h -13.781 l 21.656,13.281 c 0,0 -1.2818,-0.069 -3.625,-0.4375 -2.3432,-0.3687 -5.7608,-1.052 -10.094,-2.2812 -2.1664,-0.6146 -4.5586,-1.3594 -7.1562,-2.2813 -2.452,-0.8702 -5.1083,-1.9277 -7.9063,-3.125 21.207,17.721 40.063,19.9061 40.063,19.9061 0,0 26.568,-28.0241 39.844,-51.62505 -10.606,-17.897 -27.025,-27.645 -43.375,-34.125 z" />
          <path
             id="path3000"
             sodipodi:nodetypes="zsssz"
             style="fill:#fff3a1"
             inkscape:connector-curvature="0"
             d="m 145.23,1009.2 c 3.1959,-4.671 25.076,-29.009 31.959,-22.617 4.8473,4.5011 -6.8835,27.042 -12.784,33.926 -5.9001,6.8834 -21.71,24.799 -28.517,18.684 -3.3761,-3.0329 6.146,-25.321 9.3419,-29.992 z" />
          <path
             id="path3030"
             style="fill:#dea542"
             inkscape:connector-curvature="0"
             d="m 172.8,981.49 c -0.35892,0.15372 -0.62345,0.23772 -1,0.40625 -1.741,0.7792 -3.6586,1.7233 -5.6875,2.8438 -2.0289,1.1205 -4.142,2.435 -6.3125,3.9375 -2.1705,1.5025 -4.3966,3.1997 -6.5625,5.125 -2.1659,1.9253 -4.2974,4.0798 -6.3125,6.46875 -2.0151,2.389 -3.907,5.0131 -5.625,7.9062 -2.47,4.1599 -4.4208,7.8664 -5.875,11.281 -0.72708,1.7075 -1.3242,3.3258 -1.8125,4.9063 -0.48834,1.5805 -0.86525,3.1322 -1.125,4.625 -0.25975,1.4929 -0.39619,2.9304 -0.4375,4.375 -0.0413,1.4447 0.0205,2.8767 0.1875,4.3125 0.002,0.02 -0.002,0.043 0,0.062 2.0442,0.4891 2.7354,0.5532 3.4062,0.6564 -0.17052,-0.3706 -0.40242,-0.6544 -0.4375,-1.2189 -0.0565,-0.9087 0.0473,-2.0491 0.28125,-3.3436 0.46787,-2.589 1.446,-5.7951 2.625,-9.0625 1.179,-3.2677 2.5544,-6.5813 3.8438,-9.3751 1.2894,-2.7938 2.4823,-5.0823 3.2812,-6.25 0.79897,-1.1677 2.7668,-3.5676 5.375,-6.4063 2.6082,-2.83855 5.8538,-6.09645 9.2188,-9.03115 1.6825,-1.4674 3.3882,-2.8664 5.0625,-4.0625 1.6743,-1.1961 3.3092,-2.2096 4.8438,-2.9375 1.5346,-0.72791 2.9867,-1.1558 4.25,-1.2188 0.63164,-0.0315 1.2108,0.0158 1.75,0.1875 -0.96077,-1.4252 -1.9363,-2.8207 -2.9375,-4.1875 z" />
          <path
             id="path3045"
             sodipodi:nodetypes="ccscc"
             style="fill:#dea542"
             inkscape:connector-curvature="0"
             d="m 167.7,974.3 c 0,0 -20.451,5.0496 -32.065,29.288 -1.2624,3.2822 3.7872,2.5248 4.2922,0.7574 0.50496,-1.7674 10.099,-15.906 30.298,-26.258 -0.25248,-1.0099 -2.5248,-3.7872 -2.5248,-3.7872 z" />
          <path
             id="path3047"
             style="fill:#784421"
             inkscape:connector-curvature="0"
             d="m 143.46,998.79 c -1.5149,2.2724 1.7674,8.0794 4.7971,4.5447 3.0298,-3.5347 -1.2624,-6.312 -4.7971,-4.5447 z" />
          <path
             id="path3049"
             style="fill:#784421"
             inkscape:connector-curvature="0"
             d="m 147.75,989.2 c -2.7773,1.7674 1.0099,5.5546 3.2822,3.5347 2.2723,-2.0198 -0.75744,-5.3021 -3.2822,-3.5347 z" />
          <path
             id="path3051"
             style="fill:#784421"
             inkscape:connector-curvature="0"
             d="m 156.34,986.17 c -2.0198,2.5248 -0.50496,5.0496 3.0298,3.2822 3.5347,-1.7674 0,-4.7971 -3.0298,-3.2822 z" />
          <path
             id="path3053"
             style="fill:#784421"
             inkscape:connector-curvature="0"
             d="m 165.42,982.13 c -2.2723,2.7773 0.25248,4.7971 2.7773,3.0298 2.5248,-1.7674 -0.25248,-4.2922 -2.7773,-3.0298 z" />
        </g>
        <g
           id="g90265"
           transform="rotate(3.7058289,402.90949,-131.14602)">
          <path
             d="m 66.511249,132.08334 q -3.49705,-2.25061 -9.805131,-0.0681 -3.619761,1.21941 -6.996926,1.61319 -3.403668,0.34524 -4.432399,-0.0386 -1.028732,-0.38381 -1.452747,-1.1607 -1.934572,-3.54452 -1.772197,-7.28826 0.135872,-3.79228 4.434686,-8.15515 4.272314,-4.41143 10.293152,-7.69755 2.524868,-1.37805 4.19353,-1.78463 1.690717,-0.48165 2.414776,-0.30966 0.746122,0.0969 1.170131,0.87381 0.795029,1.45666 0.914553,2.71483 0.141578,1.1831 -0.255576,1.841 -0.348601,0.6314 -1.584354,2.06209 -1.191644,1.28058 -1.734465,2.01798 -0.494265,0.7109 -1.540065,2.60509 -0.441262,0.80801 -0.679591,1.06413 -0.242776,0.1325 -0.348781,-0.0617 -0.238507,-0.437 0.14086,-1.58934 0.352866,-1.2009 1.314896,-2.67125 0.939976,-1.3953 0.80747,-1.63807 -0.132503,-0.24278 -1.929044,0.73775 -6.457834,3.52463 -10.191595,7.76816 -3.733759,4.24352 -2.620719,6.28284 0.212008,0.38844 0.66679,0.64438 0.476847,0.18083 0.869729,0.0925 l 6.312708,-1.36579 q 3.143103,-0.70717 5.884606,-0.88006 2.741501,-0.17288 4.560456,0.15775 1.818945,0.33069 2.909582,1.05878 1.064127,0.67959 1.673648,1.79636 1.139542,2.08787 0.712158,5.34605 -0.378828,3.23169 -4.642426,7.19721 -4.188545,3.98759 -9.383946,6.8232 -4.272852,2.33208 -7.151127,2.8317 -2.829719,0.47311 -3.651249,-1.0321 -0.795028,-1.45666 -0.310017,-3.80101 0.533565,-2.37084 2.378662,-3.37788 1.213879,-0.66252 1.346384,-0.41975 0.05301,0.0971 -0.423655,0.60934 -0.639932,0.79041 -0.803205,1.06858 -0.189773,0.22961 -0.05727,0.47239 0.265011,0.48554 4.489308,-1.82004 5.486732,-2.99461 7.923203,-4.76554 2.43647,-1.77094 3.928161,-3.65642 1.540243,-1.91198 2.427036,-4.09749 z"
             id="path90146"
             style="font-size:55.3164px;line-height:1.25;font-family:STXingkai;-inkscape-font-specification:'STXingkai, Normal';letter-spacing:0px;word-spacing:0px;fill:#814213;stroke:#ffffff;stroke-width:1.32292" />
          <path
             d="m 93.352094,128.15742 0.30035,1.68831 q -5.522734,8.11798 -7.86457,8.5346 -2.069528,0.36817 -2.505522,-2.08259 -0.339104,-1.90614 0.413364,-4.62452 0.742777,-2.77283 2.698086,-6.94125 -1.478818,1.16203 -2.930918,3.10591 -1.397639,1.9342 -4.357321,7.40499 -0.936555,1.68362 -1.479843,2.73541 -0.552977,0.99733 -1.15205,1.1039 -2.069531,0.36818 -2.980271,-4.75118 -0.726653,-4.0846 1.055583,-8.27842 1.772548,-4.24828 4.491339,-10.12572 2.77325,-5.88711 5.29255,-10.0435 2.509611,-4.21085 3.544377,-4.39494 0.217837,-0.0387 1.182441,0.0144 0.964598,0.0531 1.080861,0.70667 0.271285,1.52491 -4.470635,11.18953 -4.74192,9.66463 -9.12229,16.62425 l 0.571633,3.21321 q 3.599859,-5.97798 6.677132,-9.84035 3.131733,-3.87204 4.493266,-4.11426 0.707996,-0.12595 1.571013,0.61947 0.90779,0.68128 1.043431,1.44374 0.06782,0.38123 -0.101579,0.69229 -2.844743,5.16943 -3.508989,6.8046 -0.609786,1.62547 -0.416011,2.71469 0.22284,1.25262 1.420989,1.03946 1.252609,-0.22283 5.053586,-4.43869 z"
             id="path90148"
             style="font-size:55.3164px;line-height:1.25;font-family:STXingkai;-inkscape-font-specification:'STXingkai, Normal';letter-spacing:0px;word-spacing:0px;fill:#814213;stroke:#ffffff;stroke-width:1.32292" />
          <path
             d="m 111.60401,126.97821 0.13013,1.82079 q -1.38721,1.54105 -2.60892,2.29385 -1.17049,0.69369 -3.16471,0.72531 -3.1803,4.38661 -5.88391,4.57984 -2.262202,0.16169 -4.016091,-1.87581 -1.757834,-2.09266 -1.986554,-5.29285 -0.16957,-2.37255 1.560461,-5.32453 1.726087,-3.00716 4.516324,-5.09214 2.84146,-2.14409 5.10366,-2.30578 1.04834,-0.0749 1.79717,0.31522 0.80006,0.33102 0.84738,0.99313 0.0434,0.60693 -0.51623,1.31242 1.12323,0.19702 1.49372,0.7251 0.36655,0.47293 0.44541,1.57644 0.22873,3.20018 -1.75743,7.22417 0.17342,0.0985 0.2956,0.25615 0.17342,0.0985 0.23253,0.14976 0.0591,0.0512 0.004,0.0551 1.01287,0.20491 3.50751,-2.13624 z m -6.07751,-6.66419 q -2.48678,1.67509 -4.89078,3.73245 -2.404006,2.05738 -2.742848,4.2999 -0.342787,2.18733 -0.303351,2.73909 0.05127,0.71728 0.642457,1.22961 0.642423,0.4532 1.580402,0.3862 1.87597,-0.13408 4.10656,-2.28997 -0.57545,-1.06802 -0.66221,-2.28189 -0.19717,-2.75878 2.26976,-7.81535 z"
             id="path90150"
             style="font-size:55.3164px;line-height:1.25;font-family:STXingkai;-inkscape-font-specification:'STXingkai, Normal';letter-spacing:0px;word-spacing:0px;fill:#814213;stroke:#ffffff;stroke-width:1.32292" />
          <path
             d="m 129.49638,126.94751 0.009,1.82542 q -1.48642,1.4456 -2.75539,2.11568 -1.21395,0.61449 -3.20586,0.5137 -3.46437,4.16591 -6.17485,4.17931 -2.26794,0.0112 -3.88277,-2.13817 -1.61509,-2.2047 -1.63095,-5.413 -0.0118,-2.37858 1.91034,-5.20925 1.92182,-2.88599 4.84427,-4.78123 2.97747,-1.95082 5.24541,-1.96203 1.051,-0.005 1.7723,0.43375 0.77633,0.38338 0.77962,1.04717 0.003,0.60848 -0.60219,1.27528 1.10768,0.27112 1.44232,0.82262 0.33435,0.49621 0.33982,1.60252 0.0159,3.2083 -2.23294,7.09162 0.1665,0.10978 0.27795,0.27521 0.1665,0.10978 0.22208,0.16485 0.0555,0.055 3e-4,0.0553 0.99705,0.27161 3.64153,-1.89879 z m -5.62189,-7.05278 q -2.59246,1.50638 -5.12768,3.39969 -2.53523,1.89332 -3.02213,4.1084 -0.4872,2.15978 -0.48441,2.71294 0.004,0.71911 0.55945,1.26953 0.61093,0.49484 1.5513,0.49019 1.88073,-0.009 4.24947,-2.01243 -0.50332,-1.10386 -0.50934,-2.3208 -0.0137,-2.76579 2.78337,-7.64752 z"
             id="path90152"
             style="font-size:55.3164px;line-height:1.25;font-family:STXingkai;-inkscape-font-specification:'STXingkai, Normal';letter-spacing:0px;word-spacing:0px;fill:#814213;stroke:#ffffff;stroke-width:1.32292" />
          <path
             d="m 141.02513,113.54514 q 1.42677,-2.37714 2.6883,-3.43237 1.2638,-1.1105 2.75608,-1.04895 1.49227,0.0616 1.46491,0.72479 -0.0114,0.27634 -1.23361,1.72075 -1.04273,1.11962 -1.86665,2.30363 2.03812,0.25016 2.74977,0.44565 -1.72136,2.80789 -4.11051,5.69897 l -3.58111,-0.42453 q -2.76865,4.03805 -3.8017,6.26534 -1.03305,2.22728 -1.11513,4.21699 -0.0707,1.71334 1.42161,1.7749 1.71334,0.0707 7.31441,-4.18273 l -0.0752,1.8239 q -7.62157,7.60259 -11.10355,7.45896 -1.32646,-0.0547 -2.00393,-1.0792 -0.62448,-0.96694 -0.56976,-2.2934 0.0935,-2.26605 2.208,-6.55254 -1.48487,1.10138 -2.69341,2.21416 l 0.0775,-1.87916 q 2.74412,-2.10135 7.19765,-8.06298 -3.08825,-0.29348 -4.09906,0.0524 -0.67234,0.19372 -0.83815,0.18688 -0.16582,-0.007 -0.15213,-0.33846 0.0342,-0.82904 1.56011,-2.92527 1.52592,-2.09623 2.92361,-2.42612 1.39998,-0.38516 4.88195,-0.24153 z"
             id="path90154"
             style="font-size:55.3164px;line-height:1.25;font-family:STXingkai;-inkscape-font-specification:'STXingkai, Normal';letter-spacing:0px;word-spacing:0px;fill:#814213;stroke:#ffffff;stroke-width:1.32292" />
        </g>
      </g>
    </g>
  </g>
</svg>
