<?xml version="1.0" encoding="UTF-8" standalone="no"?>
<!-- Created with Inkscape (http://www.inkscape.org/) -->

<svg
   xmlns:ns2="http://ns.adobe.com/AdobeIllustrator/10.0/"
   xmlns:dc="http://purl.org/dc/elements/1.1/"
   xmlns:cc="http://creativecommons.org/ns#"
   xmlns:rdf="http://www.w3.org/1999/02/22-rdf-syntax-ns#"
   xmlns:svg="http://www.w3.org/2000/svg"
   xmlns="http://www.w3.org/2000/svg"
   xmlns:sodipodi="http://sodipodi.sourceforge.net/DTD/sodipodi-0.dtd"
   xmlns:inkscape="http://www.inkscape.org/namespaces/inkscape"
   width="229.90358"
   height="79.067307"
   viewBox="0 0 60.828654 20.919892"
   version="1.1"
   id="svg821"
   inkscape:version="0.92.4 (5da689c313, 2019-01-14)"
   sodipodi:docname="debiantai.svg">
  <defs
     id="defs815" />
  <sodipodi:namedview
     id="base"
     pagecolor="#ffffff"
     bordercolor="#666666"
     borderopacity="1.0"
     inkscape:pageopacity="0.0"
     inkscape:pageshadow="2"
     inkscape:zoom="1.979899"
     inkscape:cx="98.049329"
     inkscape:cy="64.579389"
     inkscape:document-units="mm"
     inkscape:current-layer="layer1"
     showgrid="false"
     inkscape:window-width="1854"
     inkscape:window-height="1016"
     inkscape:window-x="66"
     inkscape:window-y="27"
     inkscape:window-maximized="1"
     units="px"
     fit-margin-top="0"
     fit-margin-left="0"
     fit-margin-right="0"
     fit-margin-bottom="0" />
  <metadata
     id="metadata818">
    <rdf:RDF>
      <cc:Work
         rdf:about="">
        <dc:format>image/svg+xml</dc:format>
        <dc:type
           rdf:resource="http://purl.org/dc/dcmitype/StillImage" />
        <dc:title />
      </cc:Work>
    </rdf:RDF>
  </metadata>
  <g
     inkscape:label="Layer 1"
     inkscape:groupmode="layer"
     id="layer1"
     transform="translate(-32.339725,-80.4228)">
    <path
       inkscape:connector-curvature="0"
       style="fill:#a80030;stroke-width:0.26458332"
       ns2:knockout="Off"
       d="m 45.035982,83.54083 c 0.639236,-0.02381 0.949856,0.186531 1.499126,0.376766 l 0.17013,0.342106 c 0.54345,0.279665 0.34502,-0.02778 0.77708,0.172509 0.38815,0.437091 1.21417,1.324504 1.28985,1.608667 -0.004,0.207697 -0.24501,-0.140494 -0.33894,-0.186003 0.40111,0.584465 0.6022,0.469107 0.84641,1.363134 l -0.0585,0.02593 c 1.03716,2.203979 -1.01786,5.265737 -3.82138,5.225521 0.1778,0.02328 0.13335,0.06694 0.20479,0.115623 -1.442247,0.113771 -2.89084,-0.666221 -3.483243,-1.981729 -0.636587,-1.286669 -0.375708,-2.795059 0.483923,-3.716073 -0.663045,0.505883 -1.366043,1.513681 -1.300956,2.707216 0.01905,1.169723 0.762265,2.264304 1.569508,2.629429 0.377032,0.599017 1.45415,0.668867 1.65153,0.929746 2.582328,0.351632 3.697548,-0.660664 5.010148,-2.373312 0.18151,-0.268817 0.20929,-0.07567 0.3474,-0.111654 -0.26617,0.568854 -0.66834,1.089554 -1.16073,1.518179 0.33258,-0.227542 0.6559,-0.472811 0.9099,-0.790046 -0.18124,0.53684 -1.29989,1.253596 -1.3454,1.462352 1.65576,-0.924719 2.9038,-3.751262 2.28441,-5.232135 0.0254,0.68527 0.014,1.555485 -0.2704,2.324893 -0.16643,0.324115 -0.51065,0.763059 -0.57494,0.684477 0.75432,-2.020358 0.57097,-4.106862 -0.83,-5.8547 -0.34661,-0.445029 -0.93583,-0.930804 -0.94377,-1.071297 0.31803,0.211402 0.15293,-0.03625 0.43365,0.126206 -0.71464,-0.442384 -0.29104,0.192881 -1.23401,-0.457729 l 0.33072,-0.240242 c -0.59372,0.08996 -1.31392,-0.736865 -2.252128,-0.652727 -0.286809,-0.189706 0.309028,-0.211402 0.968908,-0.01032 -0.732106,-0.279135 -0.849846,-0.07382 -1.454154,-0.145256 0.2032,-0.07699 0.418835,-0.179388 0.633412,-0.231511 -0.70776,0.182034 -1.191418,-0.186002 -1.602846,-0.277548 -0.03969,0.09049 0.312738,0.280723 -0.522816,0.324644 -0.363009,-0.0066 -0.190236,-0.101335 -0.279665,-0.137583 -0.04101,0.07091 -0.319352,0.257969 -0.853016,0.371475 -0.125678,-0.08176 0.325172,-0.220133 0.343429,-0.332317 -0.424127,0.07223 -0.747713,0.196321 -1.073415,0.201613 -0.685271,0.328083 0.09155,0.116152 -0.294217,0.381794 -1.088495,0.349249 -0.252677,-0.289455 -0.746918,-0.332846 0.765968,-0.528638 1.953948,-0.829998 2.445808,-0.968905 -0.59981,0.105834 -1.1811,0.27649 -1.74334,0.485246 0.068,-0.161131 -1.233752,0.259027 -0.371739,-0.209285 -1.837531,0.499798 -3.554677,2.137304 -4.360069,3.644106 0.16854,-0.183885 0.380206,-0.416454 0.413544,-0.333375 -0.445823,0.749829 -0.481013,0.618067 -0.669396,0.725488 -0.248444,0.609864 0.02037,0.65061 5.29e-4,1.0541 -0.610658,1.150937 -0.545835,1.372658 -0.927894,2.431785 l 0.225425,-0.04815 c -0.253999,0.762265 0.09578,0.888206 5.3e-4,1.711854 -0.03889,0.05001 -0.141817,-0.264054 -0.179123,-0.522817 0.09737,0.73713 -0.145521,0.702734 0.02672,1.423988 -0.124619,-0.177536 -0.207434,-0.365919 -0.313267,-0.55536 0.03651,0.600868 0.349779,1.4351 0.06456,1.17766 0.437621,0.980281 1.051719,2.721504 1.967971,3.69861 l -0.205317,0.03069 c 0.537369,0.447675 1.604963,1.95236 2.301611,2.072217 l 0.02778,0.119856 c 0.394494,0.232573 0.841375,0.383643 1.246981,0.568323 0.519377,0.30454 0.200025,0.44662 0.281517,0.40323 1.214967,0.599285 2.235729,0.897467 3.0734,1.154377 0.273844,-0.18309 1.648883,-0.004 2.749285,-0.0735 5.4356,0.30057 10.712714,-3.814766 11.930854,-8.313211 0.23628,-0.659342 0.22781,-1.639623 0.25109,-2.47359 -0.28151,0.983721 -0.14896,1.110721 -0.48313,2.069571 -0.32596,0.691356 -0.6977,0.842698 -1.12289,1.332706 l 0.34264,-0.19394 c -0.33999,0.960438 -0.42069,0.558536 -0.66808,1.340115 l -0.27013,-0.207169 c -0.0238,0.311415 -0.52441,0.824707 -0.80249,0.964936 l 0.0135,0.340783 c -0.5043,0.409046 -0.86863,0.627327 -1.15094,0.611188 l 0.19632,0.110066 c -0.21404,0.124619 -1.893884,1.505744 -1.502834,0.789252 -0.12118,0.133086 -0.19764,0.310092 -0.54663,0.501915 l -0.16642,-0.145786 c -0.44371,0.344223 -1.0123,0.634471 -1.20174,0.612246 0.24818,-0.183885 0.29475,-0.311414 0.33734,-0.437885 -2.16005,0.870744 -0.11879,0.919692 -2.19868,1.578766 l -0.0111,-0.13917 c -0.16166,0.10663 -0.33602,0.17198 -0.50774,0.25771 l -0.60457,-0.0609 c -0.7239,0.62653 -3.081073,0.17515 -4.373563,0.0844 -0.525462,-0.0622 -1.085056,-0.52308 -1.962679,-0.873129 l -0.03652,0.213246 c -0.7112,-0.407987 -2.857236,-2.328863 -2.747169,-3.218921 -0.541338,-0.431006 -0.0021,0.08572 -0.138113,0.170127 -0.979752,-0.946943 -0.69215,-1.2446 -0.868627,-1.883568 -0.408781,-0.688711 0.159809,0.591343 -0.155839,0.264847 -0.304007,-1.191418 -0.691621,-0.84402 -0.845873,-2.397918 0.09313,-0.164042 0.143933,0.380206 0.264848,0.516731 -0.485775,-0.992188 -0.374915,-3.14034 0.269345,-4.536281 0.756973,-1.618457 2.993496,-3.437996 5.097728,-3.509963 l 0.02196,-0.08176 c 0.836612,0.04128 1.804194,-0.128058 2.692665,0.165894 l -0.420953,-0.198702"
       id="path14" />
    <path
       inkscape:connector-curvature="0"
       ns2:knockout="Off"
       d="m 55.976734,86.990622 c -0.01191,0.0124 -0.01191,1.98596 -0.03651,2.50111 -0.02434,0.41645 -0.06138,1.31154 -0.944034,1.31154 -0.907256,0 -1.127918,-1.0422 -1.201473,-1.49543 -0.08573,-0.50271 -0.08573,-0.91996 -0.08573,-1.10331 0,-0.5887 0.03678,-2.23203 1.422136,-2.23203 0.416983,0 0.649817,0.12304 0.833702,0.22067 z m -3.555206,1.44701 c 0,3.45704 1.839119,3.45704 2.108729,3.45704 0.760148,0 1.250686,-0.41698 1.458913,-1.14009 l 0.02461,1.09088 c 0.233098,-0.0124 0.465931,-0.0368 0.845873,-0.0368 0.134937,0 0.245004,0 0.343429,0.0124 0.09816,0 0.196056,0.0119 0.306387,0.0243 -0.196056,-0.39211 -0.343164,-1.27476 -0.343164,-3.18796 0,-1.86346 0,-5.01412 0.159279,-5.97059 -0.44106,0.20875 -0.821531,0.34369 -1.655233,0.41698 0.330993,0.3556 0.330993,0.53949 0.330993,2.15741 -0.232568,-0.0733 -0.52705,-0.15928 -1.029758,-0.15928 -2.194454,2.7e-4 -2.550054,1.91294 -2.550054,3.33561"
       id="path1426"
       style="stroke-width:0.26458332" />
    <path
       inkscape:connector-curvature="0"
       ns2:knockout="Off"
       d="m 59.070507,87.811622 c 0.01244,-1.01758 0.220927,-1.92484 1.091142,-1.92484 0.956468,0 1.029493,1.0541 1.005152,1.92484 z m 3.309938,0.12303 c 0,-1.43457 -0.281782,-2.8448 -2.096294,-2.8448 -2.500842,0 -2.500842,2.77151 -2.500842,3.35942 0,2.48867 1.115484,3.46948 2.991379,3.46948 0.833173,0 1.23825,-0.12197 1.458913,-0.18389 -0.01217,-0.44132 0.04895,-0.72337 0.123031,-1.10331 -0.257969,0.15981 -0.588962,0.36804 -1.324504,0.36804 -1.912673,0 -1.937279,-1.74149 -1.937279,-2.34209 h 3.261783 l 0.02381,-0.72285"
       id="path1428"
       style="stroke-width:0.26458332" />
    <path
       inkscape:connector-curvature="0"
       ns2:knockout="Off"
       d="m 66.369038,88.461702 c 0,1.14009 -0.208227,2.67282 -1.630362,2.67282 -0.196321,0 -0.441325,-0.0373 -0.600604,-0.0738 -0.02461,-0.44133 -0.02461,-1.20148 -0.02461,-2.08413 0,-1.05463 0.110067,-1.60549 0.196321,-1.87589 0.257175,-0.87022 0.833438,-0.88212 0.943504,-0.88212 0.931863,0 1.115748,1.28719 1.115748,2.24313 z m -3.518429,1.33641 c 0,0.90752 0,1.42214 -0.147108,1.81425 0.502708,0.19632 1.127654,0.30639 1.875896,0.30639 0.478102,0 1.86346,0 2.611172,-1.5322 0.3556,-0.7112 0.478103,-1.66767 0.478103,-2.39104 0,-0.44133 -0.04921,-1.4097 -0.404548,-2.02301 -0.3429,-0.57573 -0.894821,-0.87021 -1.48299,-0.87021 -1.177131,0 -1.520296,0.98081 -1.703917,1.48352 0,-0.62521 0.01191,-2.8075 0.109803,-3.92324 -0.796661,0.36803 -1.287463,0.42889 -1.814248,0.4781 0.478102,0.19579 0.478102,1.00568 0.478102,3.64172 v 3.01572"
       id="path1430"
       style="stroke-width:0.26458332" />
    <path
       inkscape:connector-curvature="0"
       ns2:knockout="Off"
       d="m 70.02558,91.845462 c -0.245533,-0.0368 -0.417513,-0.0614 -0.773113,-0.0614 -0.391583,0 -0.661987,0.0249 -0.943504,0.0614 0.122502,-0.2331 0.17145,-0.34369 0.208227,-1.14009 0.04921,-1.09141 0.06138,-4.0095 -0.02434,-4.62253 -0.06138,-0.4662 -0.17145,-0.53949 -0.343165,-0.66199 1.005152,-0.0982 1.287198,-0.17145 1.752865,-0.39211 -0.09763,0.53895 -0.110596,0.80936 -0.110596,1.63036 -0.02408,4.23042 -0.03651,4.68365 0.233627,5.18636"
       id="path1432"
       style="stroke-width:0.26458332" />
    <path
       inkscape:connector-curvature="0"
       ns2:knockout="Off"
       d="m 73.951467,88.375452 c -0.02434,0.77258 -0.03678,1.31207 -0.245533,1.74096 -0.25744,0.55192 -0.686329,0.7112 -1.005152,0.7112 -0.736335,0 -0.895085,-0.61278 -0.895085,-1.21338 0,-1.15226 1.030022,-1.23878 1.495424,-1.23878 z m -3.37185,1.50839 c 0,0.77258 0.233098,1.54464 0.919957,1.87589 0.306387,0.13494 0.612775,0.13494 0.7112,0.13494 1.128183,0 1.50786,-0.83396 1.740958,-1.34884 -0.01244,0.53948 0,0.87021 0.03678,1.29963 0.220662,-0.0124 0.441325,-0.0368 0.80936,-0.0368 0.208227,0 0.404548,0.0243 0.612775,0.0368 -0.134937,-0.20823 -0.208227,-0.33126 -0.245533,-0.80936 -0.02434,-0.46567 -0.02434,-0.9316 -0.02434,-1.58142 l 0.01244,-2.5011 c 0,-0.93213 -0.245534,-1.85156 -2.084652,-1.85156 -1.213379,0 -1.924315,0.36804 -2.279915,0.55193 0.147373,0.26987 0.269875,0.50217 0.379942,1.03002 0.478631,-0.41698 1.103841,-0.63765 1.740958,-0.63765 1.018117,0 1.018117,0.67443 1.018117,1.63036 -0.233098,-0.0119 -0.429419,-0.0362 -0.760677,-0.0362 -1.557602,2.6e-4 -2.587361,0.60007 -2.587361,2.2434"
       id="path1434"
       style="stroke-width:0.26458332" />
    <path
       inkscape:connector-curvature="0"
       ns2:knockout="Off"
       d="m 81.013196,90.631822 c 0.01244,0.41698 0.01244,0.8583 0.183886,1.2139 -0.27014,-0.0243 -0.429419,-0.0614 -0.931598,-0.0614 -0.294481,0 -0.453761,0.0249 -0.686858,0.0614 0.04868,-0.15927 0.07382,-0.22066 0.09816,-0.42941 0.03678,-0.28152 0.06138,-1.22582 0.06138,-1.55708 v -1.32397 c 0,-0.57626 0,-1.41023 -0.03731,-1.70418 -0.02434,-0.20823 -0.0852,-0.77206 -0.796925,-0.77206 -0.698764,0 -0.931598,0.51462 -1.017587,0.9316 -0.09763,0.42889 -0.09763,0.89509 -0.09763,2.70933 0.01191,1.56951 0.01191,1.71609 0.134409,2.14551 -0.208227,-0.0243 -0.465667,-0.0487 -0.833438,-0.0487 -0.294481,0 -0.490537,0.0119 -0.735277,0.0487 0.08572,-0.19632 0.134938,-0.29448 0.159279,-0.98081 0.02487,-0.67442 0.07382,-3.98489 -0.03731,-4.76911 -0.06085,-0.47864 -0.183885,-0.5887 -0.318294,-0.7112 0.993246,-0.0492 1.31154,-0.20876 1.618457,-0.36751 v 1.2991 c 0.146843,-0.38047 0.453231,-1.22634 1.679574,-1.22634 1.532732,0 1.544638,1.11575 1.557073,1.85102 v 3.69121"
       id="path1436"
       style="stroke-width:0.26458332" />
    <path
       style="fill:#a80030;stroke-width:0.26458332"
       inkscape:connector-curvature="0"
       ns2:knockout="Off"
       d="m 70.129032,83.293602 -1.015471,1.01494 -1.014942,-1.01494 1.014942,-1.01494 1.015471,1.01494"
       id="path1438" />
    <text
       xml:space="preserve"
       style="color:#000000;font-stretch:normal;font-size:12.28175735px;font-style:normal;font-variant:normal;font-weight:bold;font-stretch:normal;font-family:Poppl-Laudatio;-inkscape-font-specification:'Poppl-Laudatio Bold';text-indent:0;text-align:start;text-decoration:none;text-decoration-line:none;text-decoration-style:solid;text-decoration-color:#000000;letter-spacing:-0.17522714px;word-spacing:normal;text-transform:none;writing-mode:lr-tb;direction:ltr;baseline-shift:baseline;text-anchor:start;white-space:normal;clip-rule:nonzero;display:inline;overflow:visible;visibility:visible;opacity:1;isolation:auto;mix-blend-mode:normal;color-interpolation:sRGB;color-interpolation-filters:linearRGB;solid-color:#000000;solid-opacity:1;vector-effect:none;fill:#000000;fill-opacity:1;fill-rule:evenodd;stroke:none;stroke-width:0.26458338;stroke-linecap:butt;stroke-linejoin:miter;stroke-miterlimit:4;stroke-dasharray:none;stroke-dashoffset:0;stroke-opacity:1;marker:none;color-rendering:auto;image-rendering:auto;shape-rendering:auto;text-rendering:auto;enable-background:accumulate"
       x="81.760704"
       y="91.916519"
       id="text834"
       transform="scale(1.0010159,0.99898514)">tai</text>
  </g>
</svg>
