<?xml version="1.0" encoding="UTF-8" standalone="no"?>
<!-- Created with Inkscape (http://www.inkscape.org/) -->

<svg
   xmlns:dc="http://purl.org/dc/elements/1.1/"
   xmlns:cc="http://creativecommons.org/ns#"
   xmlns:rdf="http://www.w3.org/1999/02/22-rdf-syntax-ns#"
   xmlns:svg="http://www.w3.org/2000/svg"
   xmlns="http://www.w3.org/2000/svg"
   xmlns:sodipodi="http://sodipodi.sourceforge.net/DTD/sodipodi-0.dtd"
   xmlns:inkscape="http://www.inkscape.org/namespaces/inkscape"
   sodipodi:docname="pokefish-pic.svg"
   inkscape:version="0.92.4 (5da689c313, 2019-01-14)"
   id="svg8"
   version="1.1"
   viewBox="0 0 135.46667 135.46667"
   height="512"
   width="512">
  <defs
     id="defs2">
    <filter
       inkscape:label="Pixellize"
       inkscape:menu="Pixel Tools"
       inkscape:menu-tooltip="Reduce or remove antialiasing around shapes"
       style="color-interpolation-filters:sRGB;"
       id="filter871">
      <feColorMatrix
         values="1 0 0 0 0 0 1 0 0 0 0 0 1 0 0 0 0 0 1000 -500 "
         id="feColorMatrix869" />
    </filter>
    <filter
       inkscape:label="Pixellize"
       inkscape:menu="Pixel Tools"
       inkscape:menu-tooltip="Reduce or remove antialiasing around shapes"
       style="color-interpolation-filters:sRGB;"
       id="filter875">
      <feColorMatrix
         values="1 0 0 0 0 0 1 0 0 0 0 0 1 0 0 0 0 0 1000 -500 "
         id="feColorMatrix873" />
    </filter>
    <filter
       inkscape:label="Pixellize"
       inkscape:menu="Pixel Tools"
       inkscape:menu-tooltip="Reduce or remove antialiasing around shapes"
       style="color-interpolation-filters:sRGB;"
       id="filter879">
      <feColorMatrix
         values="1 0 0 0 0 0 1 0 0 0 0 0 1 0 0 0 0 0 1000 -500 "
         id="feColorMatrix877" />
    </filter>
    <filter
       inkscape:label="Pixellize"
       inkscape:menu="Pixel Tools"
       inkscape:menu-tooltip="Reduce or remove antialiasing around shapes"
       style="color-interpolation-filters:sRGB;"
       id="filter883">
      <feColorMatrix
         values="1 0 0 0 0 0 1 0 0 0 0 0 1 0 0 0 0 0 1000 -500 "
         id="feColorMatrix881" />
    </filter>
    <filter
       inkscape:label="Pixellize"
       inkscape:menu="Pixel Tools"
       inkscape:menu-tooltip="Reduce or remove antialiasing around shapes"
       style="color-interpolation-filters:sRGB;"
       id="filter887">
      <feColorMatrix
         values="1 0 0 0 0 0 1 0 0 0 0 0 1 0 0 0 0 0 1000 -500 "
         id="feColorMatrix885" />
    </filter>
    <filter
       inkscape:label="Pixellize"
       inkscape:menu="Pixel Tools"
       inkscape:menu-tooltip="Reduce or remove antialiasing around shapes"
       style="color-interpolation-filters:sRGB;"
       id="filter891">
      <feColorMatrix
         values="1 0 0 0 0 0 1 0 0 0 0 0 1 0 0 0 0 0 1000 -500 "
         id="feColorMatrix889" />
    </filter>
    <filter
       inkscape:label="Pixellize"
       inkscape:menu="Pixel Tools"
       inkscape:menu-tooltip="Reduce or remove antialiasing around shapes"
       style="color-interpolation-filters:sRGB;"
       id="filter895">
      <feColorMatrix
         values="1 0 0 0 0 0 1 0 0 0 0 0 1 0 0 0 0 0 1000 -500 "
         id="feColorMatrix893" />
    </filter>
    <filter
       inkscape:label="Pixellize"
       inkscape:menu="Pixel Tools"
       inkscape:menu-tooltip="Reduce or remove antialiasing around shapes"
       style="color-interpolation-filters:sRGB;"
       id="filter899">
      <feColorMatrix
         values="1 0 0 0 0 0 1 0 0 0 0 0 1 0 0 0 0 0 1000 -500 "
         id="feColorMatrix897" />
    </filter>
    <filter
       inkscape:label="Pixellize"
       inkscape:menu="Pixel Tools"
       inkscape:menu-tooltip="Reduce or remove antialiasing around shapes"
       style="color-interpolation-filters:sRGB;"
       id="filter919">
      <feColorMatrix
         values="1 0 0 0 0 0 1 0 0 0 0 0 1 0 0 0 0 0 1000 -500 "
         id="feColorMatrix917" />
    </filter>
    <filter
       inkscape:label="Pixellize"
       inkscape:menu="Pixel Tools"
       inkscape:menu-tooltip="Reduce or remove antialiasing around shapes"
       style="color-interpolation-filters:sRGB;"
       id="filter923">
      <feColorMatrix
         values="1 0 0 0 0 0 1 0 0 0 0 0 1 0 0 0 0 0 1000 -500 "
         id="feColorMatrix921" />
    </filter>
    <filter
       inkscape:label="Pixellize"
       inkscape:menu="Pixel Tools"
       inkscape:menu-tooltip="Reduce or remove antialiasing around shapes"
       style="color-interpolation-filters:sRGB;"
       id="filter927">
      <feColorMatrix
         values="1 0 0 0 0 0 1 0 0 0 0 0 1 0 0 0 0 0 1000 -500 "
         id="feColorMatrix925" />
    </filter>
    <filter
       inkscape:label="Pixellize"
       inkscape:menu="Pixel Tools"
       inkscape:menu-tooltip="Reduce or remove antialiasing around shapes"
       style="color-interpolation-filters:sRGB;"
       id="filter931">
      <feColorMatrix
         values="1 0 0 0 0 0 1 0 0 0 0 0 1 0 0 0 0 0 1000 -500 "
         id="feColorMatrix929" />
    </filter>
    <filter
       inkscape:label="Pixellize"
       inkscape:menu="Pixel Tools"
       inkscape:menu-tooltip="Reduce or remove antialiasing around shapes"
       style="color-interpolation-filters:sRGB;"
       id="filter935">
      <feColorMatrix
         values="1 0 0 0 0 0 1 0 0 0 0 0 1 0 0 0 0 0 1000 -500 "
         id="feColorMatrix933" />
    </filter>
    <filter
       inkscape:label="Pixellize"
       inkscape:menu="Pixel Tools"
       inkscape:menu-tooltip="Reduce or remove antialiasing around shapes"
       style="color-interpolation-filters:sRGB;"
       id="filter939">
      <feColorMatrix
         values="1 0 0 0 0 0 1 0 0 0 0 0 1 0 0 0 0 0 1000 -500 "
         id="feColorMatrix937" />
    </filter>
    <filter
       inkscape:label="Pixellize"
       inkscape:menu="Pixel Tools"
       inkscape:menu-tooltip="Reduce or remove antialiasing around shapes"
       style="color-interpolation-filters:sRGB;"
       id="filter943">
      <feColorMatrix
         values="1 0 0 0 0 0 1 0 0 0 0 0 1 0 0 0 0 0 1000 -500 "
         id="feColorMatrix941" />
    </filter>
    <filter
       inkscape:label="Pixellize"
       inkscape:menu="Pixel Tools"
       inkscape:menu-tooltip="Reduce or remove antialiasing around shapes"
       style="color-interpolation-filters:sRGB;"
       id="filter947">
      <feColorMatrix
         values="1 0 0 0 0 0 1 0 0 0 0 0 1 0 0 0 0 0 1000 -500 "
         id="feColorMatrix945" />
    </filter>
    <filter
       inkscape:label="Pixellize"
       inkscape:menu="Pixel Tools"
       inkscape:menu-tooltip="Reduce or remove antialiasing around shapes"
       style="color-interpolation-filters:sRGB;"
       id="filter951">
      <feColorMatrix
         values="1 0 0 0 0 0 1 0 0 0 0 0 1 0 0 0 0 0 1000 -500 "
         id="feColorMatrix949" />
    </filter>
    <filter
       inkscape:label="Pixellize"
       inkscape:menu="Pixel Tools"
       inkscape:menu-tooltip="Reduce or remove antialiasing around shapes"
       style="color-interpolation-filters:sRGB;"
       id="filter955">
      <feColorMatrix
         values="1 0 0 0 0 0 1 0 0 0 0 0 1 0 0 0 0 0 1000 -500 "
         id="feColorMatrix953" />
    </filter>
  </defs>
  <sodipodi:namedview
     id="base"
     pagecolor="#ffffff"
     bordercolor="#666666"
     borderopacity="1.0"
     inkscape:pageopacity="0.0"
     inkscape:pageshadow="2"
     inkscape:zoom="0.70710678"
     inkscape:cx="204.91967"
     inkscape:cy="502.87306"
     inkscape:document-units="px"
     inkscape:current-layer="layer1"
     showgrid="false"
     units="px"
     fit-margin-top="0"
     fit-margin-left="0"
     fit-margin-right="0"
     fit-margin-bottom="0"
     inkscape:window-width="1854"
     inkscape:window-height="1016"
     inkscape:window-x="66"
     inkscape:window-y="27"
     inkscape:window-maximized="1" />
  <metadata
     id="metadata5">
    <rdf:RDF>
      <cc:Work
         rdf:about="">
        <dc:format>image/svg+xml</dc:format>
        <dc:type
           rdf:resource="http://purl.org/dc/dcmitype/StillImage" />
        <dc:title />
      </cc:Work>
    </rdf:RDF>
  </metadata>
  <g
     inkscape:label="Layer 1"
     inkscape:groupmode="layer"
     id="layer1"
     transform="translate(-66.826195,-140.82023)"
     style="display:inline">
    <path
       id="path886"
       d="m 193.19511,167.16607 c 2.4359,-9.27456 -2.72983,-18.51786 -11.95436,-20.20954 -19.83118,-3.64916 -28.55226,13.54286 -27.10448,26.32274 0,4.26205 8.80864,7.72046 19.67795,7.72046 10.18763,0 18.56476,-3.04253 19.57164,-6.93247 0.0688,-0.25953 0.10319,-0.5222 0.10319,-0.78799 0.003,-2.02627 -1.28831,-2.33271 -0.29394,-6.1132 z"
       inkscape:connector-curvature="0"
       style="fill:#fcc21b;stroke:none;stroke-width:0.31269589;stroke-opacity:1;filter:url(#filter955)" />
    <path
       id="path888"
       d="m 163.59219,156.27799 c 0.71295,-1.41964 2.25141,-2.09193 3.43653,-1.51344 1.18199,0.58161 1.56661,2.19825 0.85679,3.61476 -0.70982,1.41651 -2.24516,2.09194 -3.43028,1.51032 -1.18199,-0.58161 -1.56973,-2.20138 -0.86304,-3.61164 z"
       inkscape:connector-curvature="0"
       style="fill:#2f2f2f;stroke-width:0.31269589;filter:url(#filter951)" />
    <path
       id="path890"
       d="m 176.78483,167.64762 c 0.0313,-0.40025 -0.21263,-0.75985 -0.57536,-0.88806 -0.0782,-0.0281 -0.15947,-0.0469 -0.2439,-0.0532 -5.6598,-0.38461 -11.26331,-1.85741 -11.31959,-1.87305 -0.4753,-0.12195 -0.95373,0.15635 -1.08193,0.62852 -0.11883,0.47217 0.15322,0.95685 0.62852,1.08193 0.23452,0.0625 5.82552,1.52908 11.65417,1.92308 0.48781,0.0344 0.9037,-0.33146 0.93809,-0.81926 z"
       inkscape:connector-curvature="0"
       style="fill:#2f2f2f;stroke-width:0.31269589;filter:url(#filter947)" />
    <path
       id="path892"
       d="m 180.17446,160.00846 c -0.34084,1.58536 -1.69169,2.64853 -3.01752,2.37336 -1.33521,-0.2783 -2.13884,-1.78862 -1.80426,-3.37399 0.34084,-1.5885 1.69169,-2.65166 3.02377,-2.37336 1.32896,0.27204 2.13572,1.77924 1.79801,3.37399 z"
       inkscape:connector-curvature="0"
       style="fill:#2f2f2f;stroke-width:0.31269589;filter:url(#filter943)" />
    <path
       style="fill:#fcc21b;stroke:none;stroke-width:0.31269589;stroke-opacity:1;filter:url(#filter939)"
       inkscape:connector-curvature="0"
       d="m 196.18853,256.87509 c 2.4359,-9.27456 -2.72983,-18.51786 -11.95436,-20.20954 -19.83118,-3.64916 -28.55226,13.54286 -27.10448,26.32274 0,4.26205 8.80864,7.72046 19.67795,7.72046 10.18763,0 18.56476,-3.04253 19.57164,-6.93247 0.0688,-0.25953 0.10319,-0.5222 0.10319,-0.78799 0.003,-2.02627 -1.28831,-2.33271 -0.29394,-6.1132 z"
       id="path1215" />
    <path
       style="fill:#2f2f2f;stroke-width:0.31269589;filter:url(#filter935)"
       inkscape:connector-curvature="0"
       d="m 166.58561,245.98701 c 0.71295,-1.41964 2.25141,-2.09193 3.43653,-1.51344 1.18199,0.58161 1.56661,2.19825 0.85679,3.61476 -0.70982,1.41651 -2.24516,2.09194 -3.43028,1.51032 -1.18199,-0.58161 -1.56973,-2.20138 -0.86304,-3.61164 z"
       id="path1217" />
    <path
       style="fill:#2f2f2f;stroke-width:0.31269589;filter:url(#filter931)"
       inkscape:connector-curvature="0"
       d="m 179.77825,257.35664 c 0.0313,-0.40025 -0.21263,-0.75985 -0.57536,-0.88806 -0.0782,-0.0281 -0.15947,-0.0469 -0.2439,-0.0532 -5.6598,-0.38461 -11.26331,-1.85741 -11.31959,-1.87305 -0.4753,-0.12195 -0.95373,0.15635 -1.08193,0.62852 -0.11883,0.47217 0.15322,0.95685 0.62852,1.08193 0.23452,0.0625 5.82552,1.52908 11.65417,1.92308 0.48781,0.0344 0.9037,-0.33146 0.93809,-0.81926 z"
       id="path1219" />
    <path
       style="fill:#2f2f2f;stroke-width:0.31269589;filter:url(#filter927)"
       inkscape:connector-curvature="0"
       d="m 183.16788,249.71748 c -0.34084,1.58536 -1.69169,2.64853 -3.01752,2.37336 -1.33521,-0.2783 -2.13884,-1.78862 -1.80426,-3.37399 0.34084,-1.5885 1.69169,-2.65166 3.02377,-2.37336 1.32896,0.27204 2.13572,1.77924 1.79801,3.37399 z"
       id="path1221" />
    <path
       sodipodi:nodetypes="csssssssscccssssssssssccsssssssssscscccscccssccscss"
       inkscape:connector-curvature="0"
       id="path1225"
       d="m 199.70614,250.91746 c 0.0658,-0.46786 0.0684,-0.612 0.0166,-0.90144 -0.16999,-0.94828 -0.60081,-1.83241 -1.26315,-2.59226 -0.6291,-0.72173 -2.3838,-1.94148 -4.36766,-2.93223 -1.804,-0.90089 -4.03842,-1.80639 -5.44742,-2.30662 -0.67368,-0.23918 -2.17776,-0.76869 -2.77506,-0.92513 -1.43506,-0.37585 -2.86847,-0.80449 -4.32718,-1.0756 -3.24604,-0.60331 -6.68415,-1.16139 -9.85376,-1.41923 -0.4266,-0.0347 -1.03006,-0.0767 -1.34048,-0.10031 -1.61056,-0.1226 -3.86023,-0.23541 -4.68951,-0.23509 l -0.40934,1.8e-4 -0.0525,0.17639 c -0.20781,0.69897 -0.40254,1.59539 -0.49061,2.25836 -0.0727,0.54764 -0.10893,0.60016 -0.52399,0.75909 -0.68987,0.2642 -1.77747,0.39147 -3.40566,0.39852 -1.45669,0.007 -1.95554,-0.0445 -2.2263,-0.22666 -0.14635,-0.0986 -0.14919,-0.10749 -0.16265,-0.51795 -0.0147,-0.44681 0.0385,-0.72751 0.27501,-1.44953 0.12788,-0.39079 0.23394,-0.66172 0.33058,-0.84493 0.0692,-0.1312 0.0499,-0.22405 -0.0464,-0.22405 -0.34106,0 -1.68929,0.27771 -2.55645,0.5266 -1.43321,0.41131 -2.38351,0.94396 -2.96547,1.66212 -0.41554,0.51278 -0.59446,1.10053 -0.50686,1.665 0.0722,0.46564 0.0611,0.52622 -0.0526,0.28536 -0.30319,-0.64217 -0.29364,-1.51712 0.0251,-2.29664 0.38974,-0.95325 0.97227,-1.76016 2.02619,-2.80664 1.6533,-1.64163 3.93369,-3.17427 6.28313,-4.22285 0.60283,-0.26904 1.60691,-0.63727 2.5634,-0.91956 1.28674,-0.37975 2.66481,-0.67297 3.92738,-0.85246 0.95141,-0.13527 1.94625,-0.22396 2.66487,-0.28376 0.73995,-0.0616 3.68454,-0.0593 4.38758,5e-5 1.65842,0.1399 3.38339,0.3077 4.94139,0.60639 3.21745,0.61684 6.3599,1.48016 9.35991,2.78922 0.92311,0.40281 1.79609,0.91681 2.70338,1.35436 0.0714,0.0345 1.76272,1.1127 2.25706,1.49186 1.08612,0.83309 2.34134,2.05172 3.04152,2.9529 1.72261,2.21712 2.61735,4.39698 2.96347,7.21984 0.0333,0.27162 0.0613,0.87483 0.0624,1.34049 9.6e-4,0.80754 -0.004,0.86561 -0.1331,1.25816 -0.0742,0.22637 -0.152,0.41156 -0.17293,0.41156 -0.021,0 -0.0474,0.0265 -0.059,0.0588 -0.0119,0.0322 -0.0119,-0.005 -9.7e-4,-0.0823 z m -37.41119,-10.1404 c 0.33073,-0.0278 0.70113,-0.0753 0.8231,-0.1055 0.2029,-0.05 0.22635,-0.0707 0.27515,-0.24288 0.10391,-0.36625 0.44219,-1.83555 0.44136,-1.91667 -7e-4,-0.073 -0.0551,-0.0823 -0.48293,-0.0815 -0.60882,9.7e-4 -2.71395,0.12444 -2.82082,0.16539 -0.12404,0.0475 -0.69505,1.61732 -0.69505,1.91086 0,0.32515 0.78516,0.41144 2.45919,0.2703 z"
       style="color:#000000;clip-rule:nonzero;display:inline;overflow:visible;visibility:visible;opacity:1;isolation:auto;mix-blend-mode:normal;color-interpolation:sRGB;color-interpolation-filters:linearRGB;solid-color:#000000;solid-opacity:1;vector-effect:none;fill:#babcb9;fill-opacity:1;fill-rule:nonzero;stroke:none;stroke-width:0.25398722;stroke-linecap:round;stroke-linejoin:miter;stroke-miterlimit:4;stroke-dasharray:none;stroke-dashoffset:0;stroke-opacity:1;marker:none;color-rendering:auto;image-rendering:auto;shape-rendering:auto;text-rendering:auto;enable-background:accumulate;filter:url(#filter923)" />
    <path
       style="color:#000000;clip-rule:nonzero;display:inline;overflow:visible;visibility:visible;opacity:1;isolation:auto;mix-blend-mode:normal;color-interpolation:sRGB;color-interpolation-filters:linearRGB;solid-color:#000000;solid-opacity:1;vector-effect:none;fill:#d2d3d1;fill-opacity:1;fill-rule:nonzero;stroke:none;stroke-width:0.33859369;stroke-linecap:round;stroke-linejoin:miter;stroke-miterlimit:4;stroke-dasharray:none;stroke-dashoffset:0;stroke-opacity:1;marker:none;color-rendering:auto;image-rendering:auto;shape-rendering:auto;text-rendering:auto;enable-background:accumulate;filter:url(#filter919)"
       d="m 186.22732,225.62435 c -0.37187,-0.50915 -0.50316,-0.64941 -0.82089,-0.87758 -1.04122,-0.74725 -2.27009,-1.18843 -3.60306,-1.29349 -1.26603,-0.0999 -4.06107,0.38039 -6.86075,1.29464 -2.54584,0.8314 -5.50385,2.06225 -7.30346,2.90613 -0.86044,0.40346 -2.77733,1.30852 -3.4886,1.71944 -1.70887,0.98726 -3.46518,1.92245 -5.09926,3.03205 -3.63627,2.46915 -7.41263,5.16179 -10.65584,7.88956 -0.43647,0.36714 -1.04737,0.89325 -1.3635,1.162 -1.64015,1.39406 -3.8769,3.39728 -4.66254,4.17577 l -0.38775,0.3843 0.11393,0.21795 c 0.45179,0.86338 1.09922,1.90329 1.63107,2.61992 0.43938,0.5919 0.45378,0.6761 0.20791,1.21758 -0.40858,0.9 -1.32123,2.0423 -2.85773,3.57691 -1.37405,1.37366 -1.89463,1.79253 -2.32028,1.87243 -0.2302,0.0429 -0.24117,0.0372 -0.63487,-0.34266 -0.4286,-0.41347 -0.63874,-0.73182 -1.08471,-1.64418 -0.24149,-0.49371 -0.39243,-0.8523 -0.47087,-1.11816 -0.0562,-0.19041 -0.16066,-0.26107 -0.25195,-0.17061 -0.32322,0.32006 -1.34325,1.85078 -1.93406,2.9025 -0.97654,1.73823 -1.38278,3.13933 -1.26781,4.37217 0.0822,0.8803 0.45805,1.61021 1.06495,2.06779 0.5006,0.3775 0.54631,0.44584 0.215,0.32222 -0.88336,-0.32953 -1.68635,-1.1752 -2.10775,-2.21968 -0.51535,-1.27728 -0.71219,-2.59552 -0.68463,-4.58522 0.0432,-3.12122 0.78195,-6.72672 2.03539,-9.93412 0.32156,-0.82295 0.93143,-2.11731 1.57594,-3.28479 0.86698,-1.57061 1.90087,-3.14416 2.93087,-4.50059 0.7761,-1.02214 1.63664,-2.04052 2.26219,-2.77202 0.6441,-0.75329 3.43688,-3.51428 4.15825,-4.11722 1.70157,-1.42249 3.4921,-2.88072 5.24586,-4.05712 3.62176,-2.42938 7.40115,-4.55267 11.45932,-6.11609 1.2487,-0.48105 2.55308,-0.80873 3.81905,-1.24174 0.0995,-0.034 2.70329,-0.59009 3.52368,-0.69143 1.80254,-0.22256 4.12316,-0.23514 5.62316,-0.0305 3.69029,0.50364 6.56142,1.74849 9.50938,4.12303 0.28366,0.2285 0.87002,0.77903 1.30327,1.2233 0.75038,0.77131 0.79959,0.83148 1.04158,1.328 0.13977,0.2861 0.23792,0.5362 0.21807,0.55582 -0.0199,0.0197 -0.0205,0.0698 -0.002,0.11162 0.0186,0.042 -0.0162,0.008 -0.0772,-0.0776 z m -44.86686,25.40967 c 0.28765,-0.33696 0.5946,-0.72995 0.68217,-0.87328 0.14585,-0.2382 0.14892,-0.27998 0.0352,-0.49046 -0.24145,-0.44776 -1.28453,-2.1702 -1.3606,-2.247 -0.0685,-0.0692 -0.12868,-0.0266 -0.53331,0.37526 -0.5761,0.57222 -2.4566,2.66573 -2.51987,2.80518 -0.0733,0.16182 0.84231,2.19878 1.11479,2.4795 0.30174,0.31092 1.12596,-0.34337 2.58148,-2.04923 z"
       id="path1227"
       inkscape:connector-curvature="0"
       sodipodi:nodetypes="csssssssscccssssssssssccsssssssssscscccscccssccscss" />
    <path
       id="path891"
       style="fill:#60a0c3;fill-opacity:1;stroke-width:0.43242627;filter:url(#filter899)"
       d="m 85.590019,215.06819 c -0.340876,-0.74415 -0.441125,-1.50641 -0.537202,-2.20393 -0.05501,-0.43671 -0.126851,-0.93301 -0.278966,-1.34353 -0.178811,-0.46167 -0.278361,-0.91717 -0.373234,-1.35392 -0.08786,-0.40859 -0.168706,-0.78904 -0.307774,-1.09121 -0.240193,-0.54004 -0.774054,-1.01089 -1.343076,-1.50288 -0.169677,-0.14507 -0.333257,-0.28965 -0.493551,-0.43706 -0.650086,-0.59336 -1.333973,-1.14641 -2.037604,-1.64273 -0.09048,-0.0592 -0.230648,-0.1498 -0.405979,-0.26156 -1.987717,-1.25856 -2.885351,-1.98157 -2.951199,-2.9497 -0.03529,-0.45358 0.151719,-0.88682 0.499973,-1.18486 0.499383,-0.42736 1.213747,-0.46386 1.783142,-0.45029 0.505139,0.0117 0.975023,0.12177 1.390508,0.22153 l 0.331074,0.0809 c 0.660283,0.14639 1.318229,0.28339 1.97946,0.41758 0.881168,0.18501 1.768433,0.3705 2.657561,0.57147 0.208217,0.0438 0.438926,0.11385 0.691212,0.18252 0.383578,0.11568 1.28626,0.37905 1.538701,0.24838 0.124846,-0.10684 0.266748,-0.43318 0.382335,-0.69715 l 0.0888,-0.19552 c 0.67236,-1.50882 1.408595,-3.12922 2.230663,-4.74909 -0.226803,-0.87023 -0.2392,-1.81581 -0.416753,-2.68835 -0.234104,-1.13149 -1.051638,-2.92476 0.272516,-3.62541 0.965664,-0.50768 2.638943,-0.2151 3.687667,-0.17348 0.140706,0.005 0.269218,0.009 0.385062,0.0177 1.859498,-2.73535 3.839422,-5.32334 6.214485,-7.58926 -0.31835,-0.75774 -0.940698,-1.43175 -1.545292,-2.01851 -0.704424,-0.68346 -1.729086,-1.50835 -0.357165,-2.11327 0.895692,-0.39657 2.060707,-0.31218 3.025077,-0.36912 1.50941,-0.0851 2.97735,0.0872 4.46352,0.34071 0.89812,-0.50679 1.81074,-0.96339 2.73878,-1.34211 3.28146,-1.33982 6.69924,-1.86857 10.16609,-1.56851 1.01726,0.0913 2.03212,0.25299 3.01176,0.47326 0.51256,0.11343 1.0298,0.24563 1.55077,0.40879 l 0.32403,0.0927 c 0.42907,0.12228 0.91206,0.26102 1.41041,0.55737 0.9967,0.59269 0.95559,1.59545 0.93974,2.07573 l -0.0321,0.25513 c 0.0614,0.0784 0.11247,0.13141 0.15793,0.17788 0.27181,0.29101 0.52953,0.60547 0.62653,1.33067 0.29234,2.23704 -0.58513,4.53039 -1.2276,6.20715 l -0.12785,0.34276 c -0.70593,1.86198 -1.65945,3.63418 -2.89956,5.42398 -0.67991,0.97459 -1.39357,1.90975 -2.13159,2.80315 -0.0852,0.42582 -0.19199,0.81316 -0.22068,0.906 -0.42519,1.52497 -1.07903,3.34805 -2.32092,4.41085 -0.95934,0.821 -1.0275,-0.7883 -1.06223,-1.36759 -0.002,-0.0493 -0.0107,-0.099 -0.0125,-0.15432 -0.30697,0.27978 -0.60973,0.58441 -0.91528,0.84589 -0.74907,0.64106 -1.51641,1.24082 -2.28605,1.79133 -2.20474,1.57377 -4.78402,2.87614 -7.66466,3.87293 -0.0755,0.0248 -0.14778,0.0468 -0.22003,0.0688 -0.0742,0.0862 -0.14834,0.17249 -0.19576,0.23014 -0.62018,0.75841 -1.11668,1.70125 -1.91403,2.29255 -1.10943,0.81854 -1.57619,0.31302 -2.63908,-0.21734 -0.4937,-0.23772 -0.93295,-0.5448 -1.416796,-0.79095 -0.05907,-0.0291 -0.129871,-0.0653 -0.195043,-0.0949 -1.501987,0.18691 -3.080836,0.29731 -4.757649,0.32649 -0.562381,0.0146 -1.125741,0.0812 -1.723345,0.15438 -0.606513,0.0694 -1.235076,0.14632 -1.966341,0.20297 -0.367967,0.3149 -0.624438,1.4052 -0.747731,1.9262 l -0.140697,0.58712 c -0.246111,1.0359 -0.501161,2.10791 -0.928793,3.15117 -0.19314,0.47264 -0.594364,1.33394 -1.149599,1.8091 -0.565092,0.48361 -1.117585,0.44987 -1.395207,0.3915 -0.376596,-0.0477 -0.87264,-0.29477 -1.20884,-1.02015 z"
       inkscape:connector-curvature="0" />
    <path
       inkscape:connector-curvature="0"
       id="path893"
       d="m 92.822753,205.70256 c 0.631849,-0.0797 1.278703,-0.1552 1.960688,-0.16968 4.079237,-0.0817 7.553789,-0.63059 10.614109,-1.6901 2.66623,-0.92145 5.04422,-2.11985 7.06734,-3.56664 1.32106,-0.93704 2.62113,-2.03825 3.873,-3.26896 1.42836,-1.4102 2.77525,-2.99542 4.02515,-4.71392 -0.57998,-0.27202 -1.14069,-0.59469 -1.6676,-0.95766 -0.63192,-0.43247 -1.31148,-1.12013 -1.80437,-1.80249 -0.16578,0.27848 -0.33062,0.54476 -0.49078,0.82981 -0.50257,0.90249 -1.09982,1.72096 -1.83998,2.36577 -0.55852,0.47798 -1.40921,0.29533 -2.27353,0.1699 -0.94593,-0.14098 -1.90971,-0.24961 -2.96985,-1.28887 -0.25403,-0.24363 -0.66045,-0.53896 -0.70477,-0.83683 -0.0584,-0.35417 0.29735,-0.59028 0.43259,-0.79139 0.18594,-0.26158 0.39343,-0.48468 0.5981,-0.71106 0.59712,-0.65899 1.26353,-1.14392 2.04761,-1.5645 0.88684,-0.48007 1.84072,-0.91506 2.87327,-1.17832 0.13464,-0.0355 0.27724,-0.0551 0.42031,-0.0808 -0.38965,-0.74794 -0.67325,-1.55818 -0.96156,-2.34731 -0.22513,-0.61555 -0.5122,-1.18377 -0.38269,-1.86377 0.0683,-0.36579 0.49233,-1.00756 0.92643,-0.71314 0.18048,0.12443 0.28154,0.44204 0.35165,0.76339 0.0566,0.25895 0.0981,0.51366 0.15941,0.67177 0.45126,1.13917 1.10287,2.18655 1.74652,3.21799 0.76309,1.23086 1.50483,2.18405 2.52511,3.22328 0.48318,0.49145 1.05792,0.87041 1.61209,1.15882 0.1505,0.0761 0.30476,0.1433 0.46278,0.20158 0.85562,-1.34124 1.54192,-2.67416 2.06643,-4.05646 l 0.13113,-0.34557 c 0.57339,-1.49812 1.2859,-3.36572 1.08461,-5.07737 -0.0797,-0.0798 -0.17012,-0.17884 -0.27321,-0.31259 -0.52848,-0.14534 -1.0102,0.48888 -1.23329,0.87332 -0.28697,0.49601 -0.44175,1.10657 -0.90917,1.43828 -0.44817,0.32094 -0.96248,0.0325 -1.02257,-0.49656 -0.0643,-0.51411 0.33248,-1.1212 0.52748,-1.57836 0.22179,-0.52561 0.60865,-1.00466 0.92468,-1.48001 0.19816,-0.3005 0.44883,-0.56624 0.71919,-0.80899 -0.045,-0.0127 -0.0807,-0.0277 -0.12567,-0.0404 -0.12896,-0.0376 -0.2612,-0.0724 -0.38358,-0.11568 -0.45204,-0.14246 -0.91254,-0.25492 -1.36132,-0.36033 -0.88022,-0.19721 -1.783,-0.34097 -2.69989,-0.42142 -0.73118,-0.063 -1.46566,-0.0832 -2.18799,-0.0627 -0.46249,0.0315 -1.4903,0.23383 -2.3626,1.31614 -0.92348,1.14888 -1.12132,2.23454 -3.3212,3.58786 -2.20316,1.35613 -3.20868,0.64007 -5.10108,2.25958 -1.8924,1.6195 -1.29081,3.66589 -3.51144,5.75979 -1.9817,1.86099 -3.22052,0.79251 -4.948578,2.78361 -1.73087,1.98782 -0.284578,4.05691 -2.955621,6.34277 -2.671042,2.28586 -3.86424,1.65642 -4.91644,6.07999 0.08858,0.0836 0.193117,0.15915 0.30375,0.23522 0.391376,-0.26095 0.832383,-0.41069 1.299549,-0.42346 0.529084,-0.0202 1.076964,-0.085 1.655803,-0.15349 z"
       style="overflow:visible;fill:#7fd5ef;fill-opacity:1;stroke-width:0.43242627;filter:url(#filter895)" />
    <path
       inkscape:connector-curvature="0"
       style="fill:#ffffff;stroke-width:0.43242627;filter:url(#filter891)"
       clip-path="url(#SVGID_2_)"
       d="m 89.598594,205.90727 c 3.965831,-1.32823 12.292166,-4.56269 19.203206,-10.23103 1.17199,-0.96109 2.25355,-1.89632 3.28055,-2.81083 0.0678,0.0101 0.13647,0.0232 0.20407,0.0332 0.86433,0.12544 1.71532,0.30845 2.27384,-0.16953 0.74017,-0.64481 1.33757,-1.46377 1.84014,-2.36627 0.16016,-0.28504 0.3246,-0.55138 0.49038,-0.82986 0.49289,0.68236 1.173,1.37004 1.80492,1.80251 0.52691,0.36297 1.08755,0.68539 1.66753,0.95741 -1.2499,1.7185 -2.59671,3.30392 -4.02508,4.71412 -1.25186,1.23071 -2.55219,2.33209 -3.87325,3.26913 -2.02312,1.44679 -4.40071,2.6452 -7.06693,3.56665 -3.06033,1.05951 -6.535403,1.6087 -10.614641,1.69042 -0.681984,0.0145 -1.328691,0.0896 -1.960539,0.16932 -0.57884,0.0685 -1.127124,0.13322 -1.656209,0.15344 -0.467166,0.0128 -0.907861,0.16283 -1.299237,0.42378 -0.110632,-0.0761 -0.215373,-0.15212 -0.303955,-0.23567 0.01165,-0.049 0.02351,-0.0891 0.03519,-0.13684 z m 34.103136,-24.70199 c 0.21437,-0.18844 0.46706,-0.31056 0.7313,-0.23789 0.10309,0.13376 0.19317,0.23253 0.27285,0.31232 0.20128,1.71166 -0.51127,3.57988 -1.08466,5.07799 l -0.13108,0.34563 c -0.52452,1.3823 -1.21046,2.71465 -2.06608,4.05588 -0.15802,-0.0583 -0.31306,-0.12524 -0.46356,-0.20134 -0.55417,-0.28842 -1.12857,-0.66709 -1.61176,-1.15854 -0.63724,-0.64908 -1.16149,-1.2718 -1.65449,-1.94237 1.53217,-1.60952 2.78059,-3.0433 3.76537,-4.2473 0.2031,0.22167 0.53027,0.28458 0.83083,0.0693 0.46741,-0.33171 0.62208,-0.94226 0.90905,-1.43827 0.11154,-0.19222 0.28785,-0.44702 0.50223,-0.63546 z"
       id="path895" />
    <path
       id="path899"
       style="fill:#767876;fill-opacity:1;stroke-width:0.43242627;filter:url(#filter887)"
       d="m 118.07079,179.75846 c 0.63592,-0.4873 1.61278,-0.31018 2.16193,0.39802 0.55197,0.71148 0.47992,1.6781 -0.156,2.1654 -0.6453,0.48963 -1.61653,0.31909 -2.16849,-0.3924 -0.54587,-0.711 -0.47945,-1.68419 0.16256,-2.17102 z"
       inkscape:connector-curvature="0" />
    <path
       inkscape:connector-curvature="0"
       d="m 84.761056,222.11105 c -0.269521,-0.58838 -0.348785,-1.19107 -0.424751,-1.74259 -0.04349,-0.3453 -0.100298,-0.7377 -0.220572,-1.06229 -0.141381,-0.36503 -0.220092,-0.72519 -0.295106,-1.07051 -0.06947,-0.32306 -0.133392,-0.62387 -0.243349,-0.86279 -0.189914,-0.427 -0.612024,-0.79929 -1.061935,-1.18829 -0.134159,-0.1147 -0.263498,-0.22902 -0.390238,-0.34557 -0.514006,-0.46915 -1.054738,-0.90644 -1.611081,-1.29886 -0.07154,-0.0468 -0.182367,-0.11845 -0.320997,-0.20682 -1.571636,-0.9951 -2.281372,-1.56677 -2.333437,-2.33225 -0.02791,-0.35863 0.11996,-0.70118 0.395316,-0.93683 0.394849,-0.33791 0.959679,-0.36677 1.409884,-0.35603 0.3994,0.009 0.770926,0.0963 1.099439,0.17515 l 0.261772,0.064 c 0.522069,0.11575 1.042289,0.22407 1.565108,0.33017 0.696716,0.14629 1.398253,0.29295 2.101264,0.45185 0.164631,0.0346 0.347047,0.09 0.546523,0.14431 0.303286,0.0915 1.017013,0.2997 1.216612,0.19639 0.09871,-0.0845 0.21091,-0.3425 0.302302,-0.55122 l 0.07021,-0.15459 c 0.531617,-1.19299 1.113739,-2.4742 1.763727,-3.75499 -0.179327,-0.68806 -0.189129,-1.43571 -0.329516,-2.1256 -0.1851,-0.89464 -0.831503,-2.31254 0.215472,-2.86652 0.763525,-0.40141 2.086544,-0.17008 2.915743,-0.13717 0.111252,0.004 0.212863,0.007 0.304458,0.014 1.470257,-2.16277 3.035731,-4.20903 4.913636,-6.00063 -0.251713,-0.59913 -0.743789,-1.13205 -1.221826,-1.59599 -0.55697,-0.54039 -1.367144,-1.19261 -0.282401,-1.67091 0.7082,-0.31356 1.629344,-0.24683 2.39185,-0.29185 1.193453,-0.0673 2.354113,0.069 3.529187,0.26939 0.71012,-0.40071 1.43171,-0.76172 2.16549,-1.06117 2.59456,-1.05936 5.29691,-1.47743 8.03806,-1.24018 0.80432,0.0722 1.60675,0.20003 2.38132,0.37419 0.40527,0.0897 0.81424,0.19422 1.22615,0.32323 l 0.25621,0.0733 c 0.33925,0.0967 0.72114,0.20639 1.11517,0.4407 0.78807,0.46863 0.75556,1.26149 0.74303,1.64123 l -0.0254,0.20172 c 0.0485,0.062 0.0889,0.10391 0.12487,0.14065 0.21491,0.2301 0.41869,0.47873 0.49538,1.05212 0.23115,1.76878 -0.46265,3.58207 -0.97063,4.90784 l -0.10108,0.27102 c -0.55817,1.47221 -1.31209,2.87345 -2.29261,4.28859 -0.53759,0.77059 -1.10186,1.51 -1.68539,2.21638 -0.0674,0.33669 -0.15181,0.64294 -0.17449,0.71635 -0.33619,1.20575 -0.85317,2.64722 -1.83509,3.48755 -0.75853,0.64914 -0.81243,-0.62329 -0.83988,-1.08132 -0.002,-0.0389 -0.008,-0.0782 -0.01,-0.12202 -0.24271,0.22121 -0.4821,0.46208 -0.72368,0.66883 -0.59228,0.50686 -1.19899,0.98108 -1.80752,1.41636 -1.74323,1.24433 -3.78261,2.27408 -6.06025,3.06222 -0.0597,0.0196 -0.11685,0.037 -0.17397,0.0544 -0.0587,0.0682 -0.1173,0.13638 -0.15479,0.18197 -0.49036,0.59966 -0.882934,1.34513 -1.513375,1.81266 -0.877197,0.64719 -1.246254,0.2475 -2.086649,-0.17185 -0.39036,-0.18795 -0.737659,-0.43076 -1.120227,-0.62539 -0.04671,-0.023 -0.102685,-0.0516 -0.154215,-0.075 -1.187583,0.14779 -2.435937,0.23508 -3.76175,0.25815 -0.44466,0.0115 -0.890094,0.0642 -1.362604,0.12207 -0.479554,0.0549 -0.976543,0.11568 -1.554736,0.16048 -0.290941,0.24898 -0.493726,1.11105 -0.59121,1.52299 l -0.111246,0.46422 c -0.194594,0.81906 -0.396255,1.66667 -0.734372,2.49156 -0.152711,0.3737 -0.469949,1.0547 -0.908959,1.4304 -0.446803,0.38238 -0.883646,0.35571 -1.103154,0.30955 -0.297765,-0.0377 -0.689974,-0.23306 -0.955799,-0.80661 z"
       style="fill:#006ca2;stroke-width:0.34190825;filter:url(#filter883)"
       id="path903" />
    <path
       style="overflow:visible;fill:#40c0e7;stroke-width:0.34190825;filter:url(#filter879)"
       d="m 90.479792,214.70589 c 0.499587,-0.063 1.011038,-0.12271 1.550265,-0.13415 3.225347,-0.0646 5.972584,-0.4986 8.392303,-1.33632 2.10812,-0.72857 3.98833,-1.67612 5.58796,-2.82006 1.04453,-0.74089 2.07246,-1.61159 3.06228,-2.58468 1.12937,-1.11501 2.19432,-2.3684 3.18259,-3.72717 -0.45858,-0.21508 -0.90192,-0.47021 -1.31853,-0.7572 -0.49964,-0.34194 -1.03696,-0.88566 -1.42667,-1.42518 -0.13108,0.22018 -0.26142,0.43073 -0.38805,0.65611 -0.39737,0.71358 -0.8696,1.36072 -1.45483,1.87055 -0.4416,0.37793 -1.11422,0.23351 -1.79762,0.13433 -0.74792,-0.11146 -1.50995,-0.19735 -2.34818,-1.01907 -0.20085,-0.19263 -0.5222,-0.42614 -0.55725,-0.66166 -0.0461,-0.28003 0.23512,-0.46672 0.34204,-0.62573 0.14702,-0.20682 0.31108,-0.38322 0.47291,-0.56222 0.47213,-0.52105 0.99903,-0.90447 1.61899,-1.23701 0.7012,-0.37958 1.45541,-0.72351 2.27182,-0.93167 0.10645,-0.0281 0.21921,-0.0436 0.33233,-0.0639 -0.30809,-0.59138 -0.53232,-1.23202 -0.76028,-1.85597 -0.178,-0.48669 -0.40499,-0.93597 -0.30258,-1.47363 0.054,-0.28922 0.38927,-0.79665 0.7325,-0.56386 0.1427,0.0984 0.22261,0.34951 0.27804,0.60359 0.0447,0.20474 0.0776,0.40614 0.12604,0.53116 0.3568,0.9007 0.87201,1.72884 1.38093,2.54437 0.60336,0.97322 1.18983,1.72687 1.99653,2.54857 0.38205,0.38858 0.83648,0.68821 1.27465,0.91625 0.119,0.0602 0.24096,0.1133 0.36591,0.15938 0.67651,-1.06048 1.21915,-2.11439 1.63387,-3.20734 l 0.10368,-0.27323 c 0.45336,-1.18452 1.01672,-2.66118 0.85757,-4.01455 -0.063,-0.0631 -0.13451,-0.14139 -0.21602,-0.24715 -0.41786,-0.11492 -0.79874,0.38655 -0.97513,0.69051 -0.2269,0.39218 -0.34928,0.87494 -0.71886,1.13721 -0.35436,0.25376 -0.761,0.0257 -0.80852,-0.39262 -0.0509,-0.40649 0.26288,-0.8865 0.41707,-1.24796 0.17536,-0.41559 0.48124,-0.79436 0.73112,-1.17021 0.15668,-0.23759 0.35488,-0.44771 0.56864,-0.63965 -0.0356,-0.01 -0.0638,-0.0219 -0.0994,-0.032 -0.10196,-0.0298 -0.20652,-0.0573 -0.30329,-0.0915 -0.35741,-0.11265 -0.72152,-0.20157 -1.07636,-0.28491 -0.69597,-0.15593 -1.40977,-0.2696 -2.13473,-0.33321 -0.57812,-0.0498 -1.15886,-0.0658 -1.72999,-0.0496 -0.36568,0.0249 -1.17834,0.18488 -1.86805,1.04064 -0.73017,0.90839 -0.8866,1.76679 -2.62598,2.83683 -1.74198,1.07226 -2.53702,0.50609 -4.03329,1.78659 -1.496273,1.2805 -1.020617,2.89852 -2.776406,4.55412 -1.566881,1.47143 -2.546384,0.62661 -3.912715,2.20093 -1.368554,1.57171 -0.225009,3.20769 -2.336933,5.01506 -2.111924,1.80737 -3.055354,1.30969 -3.887302,4.80729 0.07004,0.0661 0.152693,0.12584 0.240168,0.18598 0.30945,-0.20632 0.658143,-0.32472 1.027519,-0.33482 0.418334,-0.016 0.851528,-0.0672 1.309201,-0.12136 z"
       id="path905"
       inkscape:connector-curvature="0" />
    <path
       id="path907"
       d="m 87.930533,214.86775 c 3.13568,-1.05019 9.719094,-3.6076 15.183477,-8.08941 0.92667,-0.75991 1.78183,-1.49937 2.59384,-2.22245 0.0536,0.008 0.10791,0.0183 0.16136,0.0263 0.6834,0.0992 1.35626,0.24388 1.79787,-0.13405 0.58523,-0.50984 1.05758,-1.15736 1.45495,-1.87094 0.12663,-0.22538 0.25665,-0.43597 0.38773,-0.65615 0.38971,0.53952 0.92746,1.08325 1.4271,1.42519 0.41662,0.287 0.8599,0.54192 1.31847,0.757 -0.98826,1.35878 -2.05315,2.61232 -3.18252,3.72734 -0.98982,0.97308 -2.01796,1.84392 -3.06248,2.58481 -1.59963,1.14394 -3.47952,2.0915 -5.58764,2.82006 -2.41972,0.83773 -5.167374,1.27196 -8.392721,1.33657 -0.539227,0.0114 -1.050562,0.0709 -1.550148,0.13388 -0.457673,0.0542 -0.891188,0.10533 -1.309521,0.12132 -0.369376,0.0101 -0.717822,0.12874 -1.027273,0.33507 -0.08747,-0.0601 -0.17029,-0.12027 -0.24033,-0.18634 0.0092,-0.0387 0.01859,-0.0704 0.02783,-0.10819 z M 114.895,195.33653 c 0.1695,-0.149 0.36929,-0.24555 0.57822,-0.18809 0.0815,0.10576 0.15273,0.18385 0.21573,0.24694 0.15915,1.35336 -0.40424,2.83052 -0.85761,4.01503 l -0.10364,0.27328 c -0.41472,1.09295 -0.95708,2.14641 -1.63359,3.20689 -0.12494,-0.0461 -0.24753,-0.099 -0.36653,-0.1592 -0.43817,-0.22805 -0.89233,-0.52745 -1.27438,-0.91603 -0.50385,-0.51321 -0.91836,-1.00558 -1.30816,-1.53578 1.21145,-1.27261 2.19854,-2.40626 2.97718,-3.35823 0.16059,0.17527 0.41927,0.22501 0.65692,0.0548 0.36957,-0.26227 0.49186,-0.74502 0.71876,-1.1372 0.0882,-0.15198 0.22759,-0.35344 0.3971,-0.50244 z"
       clip-path="url(#SVGID_2_)"
       style="fill:#ffffff;stroke-width:0.34190825;filter:url(#filter875)"
       inkscape:connector-curvature="0" />
    <path
       inkscape:connector-curvature="0"
       d="m 110.44276,194.19257 c 0.50281,-0.3853 1.27518,-0.24526 1.70938,0.3147 0.43643,0.56255 0.37947,1.32683 -0.12334,1.71212 -0.51022,0.38715 -1.27815,0.2523 -1.71457,-0.31025 -0.43161,-0.56218 -0.37909,-1.33165 0.12853,-1.71657 z"
       style="fill:#2f2f2f;stroke-width:0.34190825;filter:url(#filter871)"
       id="path911" />
  </g>
</svg>
