<?xml version="1.0" encoding="UTF-8" standalone="no"?>
<!-- Created with Inkscape (http://www.inkscape.org/) -->

<svg
   width="1536"
   height="512"
   viewBox="0 0 406.39999 135.46667"
   version="1.1"
   id="svg1"
   inkscape:version="1.3.2 (091e20ef0f, 2023-11-25)"
   sodipodi:docname="super_boba_3000.svg"
   xml:space="preserve"
   inkscape:export-filename="super_boba_3000.png"
   inkscape:export-xdpi="96"
   inkscape:export-ydpi="96"
   xmlns:inkscape="http://www.inkscape.org/namespaces/inkscape"
   xmlns:sodipodi="http://sodipodi.sourceforge.net/DTD/sodipodi-0.dtd"
   xmlns:xlink="http://www.w3.org/1999/xlink"
   xmlns="http://www.w3.org/2000/svg"
   xmlns:svg="http://www.w3.org/2000/svg"><sodipodi:namedview
     id="namedview1"
     pagecolor="#505050"
     bordercolor="#ffffff"
     borderopacity="1"
     inkscape:showpageshadow="0"
     inkscape:pageopacity="0"
     inkscape:pagecheckerboard="1"
     inkscape:deskcolor="#d1d1d1"
     inkscape:document-units="px"
     inkscape:zoom="0.29322715"
     inkscape:cx="949.77561"
     inkscape:cy="-472.33006"
     inkscape:window-width="1920"
     inkscape:window-height="1124"
     inkscape:window-x="0"
     inkscape:window-y="48"
     inkscape:window-maximized="1"
     inkscape:current-layer="layer1" /><defs
     id="defs1"><linearGradient
       id="linearGradient15"
       inkscape:collect="always"><stop
         style="stop-color:#e30e17;stop-opacity:1;"
         offset="0"
         id="stop15" /><stop
         style="stop-color:#ffff01;stop-opacity:1;"
         offset="1"
         id="stop16" /></linearGradient><radialGradient
       inkscape:collect="always"
       xlink:href="#linearGradient15"
       id="radialGradient16"
       cx="112.23547"
       cy="-91.922569"
       fx="112.23547"
       fy="-91.922569"
       r="203.2"
       gradientTransform="matrix(1.9072426,0.23607128,0.00147916,0.54207707,-141.41024,91.77233)"
       gradientUnits="userSpaceOnUse" /></defs><g
     inkscape:label="Layer 1"
     inkscape:groupmode="layer"
     id="layer1"><rect
       style="fill:url(#radialGradient16);stroke:none;stroke-width:1.52758;stroke-linecap:round;stroke-linejoin:round;stroke-dasharray:none;stroke-opacity:1;paint-order:stroke fill markers"
       id="rect12"
       width="406.39999"
       height="135.46666"
       x="5.5175769e-07"
       y="1.3793945e-07" /><g
       id="g39"
       transform="translate(1.3229143,3.175002)"><text
         xml:space="preserve"
         style="font-style:normal;font-variant:normal;font-weight:bold;font-stretch:normal;font-size:19.7556px;line-height:1.25;font-family:'Noto Sans Mono CJK SC';-inkscape-font-specification:'Noto Sans Mono CJK SC, Bold';font-variant-ligatures:normal;font-variant-caps:normal;font-variant-numeric:normal;font-variant-east-asian:normal;fill:#2b2b2b;fill-opacity:1;stroke:none;stroke-width:2.64583;stroke-linejoin:round;stroke-dasharray:none;stroke-opacity:1;paint-order:stroke fill markers"
         x="25.53458"
         y="55.416977"
         id="text1-7"><tspan
           sodipodi:role="line"
           id="tspan1-7"
           style="font-style:normal;font-variant:normal;font-weight:bold;font-stretch:normal;font-size:19.7556px;font-family:'Noto Sans Mono CJK SC';-inkscape-font-specification:'Noto Sans Mono CJK SC, Bold';font-variant-ligatures:normal;font-variant-caps:normal;font-variant-numeric:normal;font-variant-east-asian:normal;fill:#2b2b2b;fill-opacity:1;stroke:none;stroke-width:2.64583;stroke-linejoin:round;stroke-dasharray:none;stroke-opacity:1;paint-order:stroke fill markers"
           x="25.53458"
           y="55.416977">杰</tspan><tspan
           sodipodi:role="line"
           style="font-style:normal;font-variant:normal;font-weight:bold;font-stretch:normal;font-size:19.7556px;font-family:'Noto Sans Mono CJK SC';-inkscape-font-specification:'Noto Sans Mono CJK SC, Bold';font-variant-ligatures:normal;font-variant-caps:normal;font-variant-numeric:normal;font-variant-east-asian:normal;fill:#2b2b2b;fill-opacity:1;stroke:none;stroke-width:2.64583;stroke-linejoin:round;stroke-dasharray:none;stroke-opacity:1;paint-order:stroke fill markers"
           x="25.53458"
           y="80.111481"
           id="tspan2-7">哥</tspan></text><text
         xml:space="preserve"
         style="font-style:normal;font-variant:normal;font-weight:900;font-stretch:normal;font-size:45.8611px;line-height:1.25;font-family:'Noto Sans CJK SC';-inkscape-font-specification:'Noto Sans CJK SC, Heavy';font-variant-ligatures:normal;font-variant-caps:normal;font-variant-numeric:normal;font-variant-east-asian:normal;fill:#2b2b2b;fill-opacity:1;stroke:none;stroke-width:2.64583;stroke-linejoin:round;stroke-dasharray:none;stroke-opacity:1;paint-order:stroke fill markers"
         x="50.029228"
         y="77.710419"
         id="text3-6"><tspan
           sodipodi:role="line"
           id="tspan3-9"
           style="font-style:normal;font-variant:normal;font-weight:900;font-stretch:normal;font-size:45.8611px;font-family:'Noto Sans CJK SC';-inkscape-font-specification:'Noto Sans CJK SC, Heavy';font-variant-ligatures:normal;font-variant-caps:normal;font-variant-numeric:normal;font-variant-east-asian:normal;fill:#2b2b2b;fill-opacity:1;stroke:none;stroke-width:2.64583;stroke-linejoin:round;stroke-dasharray:none;stroke-opacity:1;paint-order:stroke fill markers"
           x="50.029228"
           y="77.710419">超级包霸</tspan></text><path
         id="rect6-1"
         style="fill:#2b2b2b;fill-opacity:1;stroke:none;stroke-width:3.65155;stroke-linecap:square;stroke-linejoin:round;stroke-dasharray:none;stroke-opacity:1;paint-order:stroke fill markers"
         d="m 227.08769,38.789293 c 8.06713,-10.166595 20.41876,-9.406733 24.46454,-2.286176 6.00741,10.573016 -3.69241,22.86865 -21.17031,20.355779 15.59624,2.571693 18.90162,11.865427 14.46946,20.170673 -7.18224,13.458524 -35.50879,19.265567 -57.13818,6.410017 10.0701,10.323777 32.79604,11.437004 41.02892,9.885691 8.23287,-1.551314 17.73662,-4.7051 26.80099,-12.291881 3.23935,2.479594 8.50013,5.450289 15.12618,5.433843 6.62606,-0.01643 12.11938,-1.291366 21.73997,-6.768811 5.90903,5.420735 4.45041,6.800924 17.73435,6.768811 13.25217,-0.03289 12.11975,-1.291366 21.74036,-6.768811 5.909,5.420735 4.46331,7.353773 17.73434,6.768811 22.69794,-1.000451 25.44872,-9.627521 29.50667,-31.733246 0.0188,-0.09587 0.0292,-0.172798 0.0475,-0.267561 h -15.51409 l -5.58279,18.269475 c -0.0761,0.249291 -0.30676,0.418523 -0.56741,0.417114 h -9.14159 c -0.39014,-0.0047 -0.66611,-0.382826 -0.55555,-0.756667 l 5.47146,-17.929922 h -29.09887 l -5.58279,18.269475 c -0.0761,0.249291 -0.30674,0.418523 -0.56739,0.417114 h -9.14161 c -0.39014,-0.0047 -0.6661,-0.382826 -0.55554,-0.756667 l 5.47146,-17.929922 h -29.09846 l -5.58277,18.269475 c -0.0761,0.249291 -0.30708,0.418523 -0.56778,0.417114 h -9.14161 c -0.39013,-0.0047 -0.66609,-0.382826 -0.55553,-0.756667 l 5.47144,-17.929922 h -4.01155 l -6.84005,-6.048881 h 116.59795 c 1.06659,-11.89664 -4.13581,-9.911299 -19.00017,-10.027782 -14.86436,-0.116483 -15.03021,2.298855 -18.79235,3.45714 -6.19114,-2.404175 -4.94287,-3.333809 -20.68235,-3.45714 -15.73948,-0.123331 -15.03022,2.298855 -18.79234,3.45714 -6.19113,-2.404175 -5.74654,-3.457679 -20.92357,-3.45714 -15.17704,5.38e-4 -15.29105,1.081698 -15.29105,1.081698 2.31414,-5.643921 -2.62272,-9.533129 -6.60777,-11.713068 -3.98505,-2.179939 -23.00218,-2.084982 -32.90212,11.030894 z"
         sodipodi:nodetypes="cscsczczcccsccccccccccccccccccccccczczczczc" /><path
         id="path11-8"
         style="fill:#2b2b2b;fill-opacity:1;stroke:none;stroke-width:3.65155;stroke-linecap:square;stroke-linejoin:round;stroke-dasharray:none;stroke-opacity:1;paint-order:stroke fill markers"
         d="m 227.08769,38.789293 c 8.06713,-10.166595 20.41876,-9.406733 24.46454,-2.286176 6.00741,10.573016 -3.69241,22.86865 -21.17031,20.355779 15.59624,2.571693 18.90162,11.865427 14.46946,20.170673 -7.18224,13.458524 -35.50879,19.265567 -57.13818,6.410017 10.0701,10.323777 32.79604,11.437004 41.02892,9.885691 8.23287,-1.551314 17.73662,-4.7051 26.80099,-12.291881 3.23935,2.479594 8.50013,5.450289 15.12618,5.433843 6.62606,-0.01643 12.11938,-1.291366 21.73997,-6.768811 5.90903,5.420735 4.45041,6.800924 17.73435,6.768811 13.25217,-0.03289 12.11975,-1.291366 21.74036,-6.768811 5.909,5.420735 4.46331,7.353773 17.73434,6.768811 22.69794,-1.000451 25.44872,-9.627521 29.50667,-31.733246 0.0188,-0.09587 0.0292,-0.172798 0.0475,-0.267561 h -15.51409 l -5.58279,18.269475 c -0.0761,0.249291 -0.30676,0.418523 -0.56741,0.417114 h -9.14159 c -0.39014,-0.0047 -0.66611,-0.382826 -0.55555,-0.756667 l 5.47146,-17.929922 h -29.09887 l -5.58279,18.269475 c -0.0761,0.249291 -0.30674,0.418523 -0.56739,0.417114 h -9.14161 c -0.39014,-0.0047 -0.6661,-0.382826 -0.55554,-0.756667 l 5.47146,-17.929922 h -29.09846 l -5.58277,18.269475 c -0.0761,0.249291 -0.30708,0.418523 -0.56778,0.417114 h -9.14161 c -0.39013,-0.0047 -0.66609,-0.382826 -0.55553,-0.756667 l 5.47144,-17.929922 h -4.01155 l -6.84005,-6.048881 h 116.59795 c 1.06659,-11.89664 -4.13581,-9.911299 -19.00017,-10.027782 -14.86436,-0.116483 -15.03021,2.298855 -18.79235,3.45714 -6.19114,-2.404175 -4.94287,-3.333809 -20.68235,-3.45714 -15.73948,-0.123331 -15.03022,2.298855 -18.79234,3.45714 -6.19113,-2.404175 -5.74654,-3.457679 -20.92357,-3.45714 -15.17704,5.38e-4 -15.29105,1.081698 -15.29105,1.081698 2.31414,-5.643921 -2.62272,-9.533129 -6.60777,-11.713068 -3.98505,-2.179939 -23.00218,-2.084982 -32.90212,11.030894 z"
         sodipodi:nodetypes="cscsczczcccsccccccccccccccccccccccczczczczc" /><g
         id="g11"
         transform="translate(-1.3960381,12.279507)"><text
           xml:space="preserve"
           style="font-style:normal;font-variant:normal;font-weight:bold;font-stretch:normal;font-size:19.7556px;line-height:1.25;font-family:'Noto Sans Mono CJK SC';-inkscape-font-specification:'Noto Sans Mono CJK SC, Bold';font-variant-ligatures:normal;font-variant-caps:normal;font-variant-numeric:normal;font-variant-east-asian:normal;fill:#fffefe;fill-opacity:1;stroke:none;stroke-width:2.64583;stroke-linejoin:round;stroke-dasharray:none;stroke-opacity:1;paint-order:stroke fill markers"
           x="24.284784"
           y="39.962467"
           id="text1"><tspan
             sodipodi:role="line"
             id="tspan1"
             style="font-style:normal;font-variant:normal;font-weight:bold;font-stretch:normal;font-size:19.7556px;font-family:'Noto Sans Mono CJK SC';-inkscape-font-specification:'Noto Sans Mono CJK SC, Bold';font-variant-ligatures:normal;font-variant-caps:normal;font-variant-numeric:normal;font-variant-east-asian:normal;fill:#fffefe;fill-opacity:1;stroke:none;stroke-width:2.64583;stroke-linejoin:round;stroke-dasharray:none;stroke-opacity:1;paint-order:stroke fill markers"
             x="24.284784"
             y="39.962467">杰</tspan><tspan
             sodipodi:role="line"
             style="font-style:normal;font-variant:normal;font-weight:bold;font-stretch:normal;font-size:19.7556px;font-family:'Noto Sans Mono CJK SC';-inkscape-font-specification:'Noto Sans Mono CJK SC, Bold';font-variant-ligatures:normal;font-variant-caps:normal;font-variant-numeric:normal;font-variant-east-asian:normal;fill:#fffefe;fill-opacity:1;stroke:none;stroke-width:2.64583;stroke-linejoin:round;stroke-dasharray:none;stroke-opacity:1;paint-order:stroke fill markers"
             x="24.284784"
             y="64.656967"
             id="tspan2">哥</tspan></text><text
           xml:space="preserve"
           style="font-style:normal;font-variant:normal;font-weight:900;font-stretch:normal;font-size:45.8611px;line-height:1.25;font-family:'Noto Sans CJK SC';-inkscape-font-specification:'Noto Sans CJK SC, Heavy';font-variant-ligatures:normal;font-variant-caps:normal;font-variant-numeric:normal;font-variant-east-asian:normal;fill:#fffefe;fill-opacity:1;stroke:none;stroke-width:2.64583;stroke-linejoin:round;stroke-dasharray:none;stroke-opacity:1;paint-order:stroke fill markers"
           x="48.779434"
           y="62.255913"
           id="text3"><tspan
             sodipodi:role="line"
             id="tspan3"
             style="font-style:normal;font-variant:normal;font-weight:900;font-stretch:normal;font-size:45.8611px;font-family:'Noto Sans CJK SC';-inkscape-font-specification:'Noto Sans CJK SC, Heavy';font-variant-ligatures:normal;font-variant-caps:normal;font-variant-numeric:normal;font-variant-east-asian:normal;fill:#fffefe;fill-opacity:1;stroke:none;stroke-width:2.64583;stroke-linejoin:round;stroke-dasharray:none;stroke-opacity:1;paint-order:stroke fill markers"
             x="48.779434"
             y="62.255913">超级包霸</tspan></text><path
           id="rect6"
           style="fill:#fffefe;fill-opacity:1;stroke:none;stroke-width:3.65155;stroke-linecap:square;stroke-linejoin:round;stroke-dasharray:none;stroke-opacity:1;paint-order:stroke fill markers"
           d="m 225.83789,23.334784 c 8.06713,-10.166595 20.41876,-9.406733 24.46454,-2.286176 6.00741,10.573016 -3.69241,22.86865 -21.17031,20.355779 15.59624,2.571693 18.90162,11.865427 14.46946,20.170673 -7.18224,13.458524 -35.50879,19.265567 -57.13818,6.410017 10.0701,10.323777 32.79604,11.437004 41.02892,9.885691 8.23287,-1.551314 17.73662,-4.7051 26.80099,-12.291881 3.23935,2.479594 8.50013,5.450289 15.12618,5.433843 6.62606,-0.01643 12.11938,-1.291366 21.73997,-6.768811 5.90903,5.420735 4.45041,6.800924 17.73435,6.768811 13.25217,-0.03289 12.11975,-1.291366 21.74036,-6.768811 5.909,5.420735 4.46331,7.353773 17.73434,6.768811 22.69794,-1.000451 25.44872,-9.627521 29.50667,-31.733246 0.0188,-0.09587 0.0292,-0.172798 0.0475,-0.267561 h -15.51409 l -5.58279,18.269475 c -0.0761,0.249291 -0.30676,0.418523 -0.56741,0.417114 h -9.14159 c -0.39014,-0.0047 -0.66611,-0.382826 -0.55555,-0.756667 l 5.47146,-17.929922 h -29.09887 l -5.58279,18.269475 c -0.0761,0.249291 -0.30674,0.418523 -0.56739,0.417114 h -9.14161 c -0.39014,-0.0047 -0.6661,-0.382826 -0.55554,-0.756667 l 5.47146,-17.929922 h -29.09846 l -5.58277,18.269475 c -0.0761,0.249291 -0.30708,0.418523 -0.56778,0.417114 h -9.14161 c -0.39013,-0.0047 -0.66609,-0.382826 -0.55553,-0.756667 l 5.47144,-17.929922 h -4.01155 l -6.84005,-6.048881 h 116.59795 c 1.06659,-11.89664 -4.13581,-9.911299 -19.00017,-10.027782 -14.86436,-0.116483 -15.03021,2.298855 -18.79235,3.45714 -6.19114,-2.404175 -4.94287,-3.333809 -20.68235,-3.45714 -15.73948,-0.123331 -15.03022,2.298855 -18.79234,3.45714 -6.19113,-2.404175 -5.74654,-3.457679 -20.92357,-3.45714 -15.17704,5.38e-4 -15.29105,1.081698 -15.29105,1.081698 2.31414,-5.643921 -2.62272,-9.533129 -6.60777,-11.713068 -3.98505,-2.179939 -23.00218,-2.084982 -32.90212,11.030894 z"
           sodipodi:nodetypes="cscsczczcccsccccccccccccccccccccccczczczczc" /><text
           xml:space="preserve"
           style="font-style:normal;font-variant:normal;font-weight:normal;font-stretch:normal;font-size:14.1111px;line-height:1.25;font-family:'Noto Sans CJK SC';-inkscape-font-specification:'Noto Sans CJK SC, Normal';font-variant-ligatures:normal;font-variant-caps:normal;font-variant-numeric:normal;font-variant-east-asian:normal;fill:#fffefe;fill-opacity:1;stroke:none;stroke-width:1.32292;stroke-linecap:round;stroke-linejoin:round;stroke-dasharray:none;stroke-opacity:1;paint-order:stroke fill markers"
           x="47.938061"
           y="90.802231"
           id="text11"><tspan
             sodipodi:role="line"
             id="tspan11"
             style="font-style:normal;font-variant:normal;font-weight:normal;font-stretch:normal;font-size:14.1111px;font-family:'Noto Sans CJK SC';-inkscape-font-specification:'Noto Sans CJK SC, Normal';font-variant-ligatures:normal;font-variant-caps:normal;font-variant-numeric:normal;font-variant-east-asian:normal;fill:#fffefe;fill-opacity:1;stroke:none;stroke-width:1.32292;stroke-linecap:round;stroke-linejoin:round;stroke-dasharray:none;stroke-opacity:1;paint-order:stroke fill markers"
             x="47.938061"
             y="90.802231">化腐朽为神奇 使手动变自动</tspan></text><rect
           style="fill:#fffefe;fill-opacity:1;stroke:none;stroke-width:1.1223;stroke-linecap:round;stroke-linejoin:round;stroke-dasharray:none;stroke-opacity:1;paint-order:stroke fill markers"
           id="rect11"
           width="171.97917"
           height="0.26458332"
           x="48.103802"
           y="93.049942" /><path
           id="path11"
           style="fill:#fffefe;fill-opacity:1;stroke:none;stroke-width:3.65155;stroke-linecap:square;stroke-linejoin:round;stroke-dasharray:none;stroke-opacity:1;paint-order:stroke fill markers"
           d="m 225.83789,23.334784 c 8.06713,-10.166595 20.41876,-9.406733 24.46454,-2.286176 6.00741,10.573016 -3.69241,22.86865 -21.17031,20.355779 15.59624,2.571693 18.90162,11.865427 14.46946,20.170673 -7.18224,13.458524 -35.50879,19.265567 -57.13818,6.410017 10.0701,10.323777 32.79604,11.437004 41.02892,9.885691 8.23287,-1.551314 17.73662,-4.7051 26.80099,-12.291881 3.23935,2.479594 8.50013,5.450289 15.12618,5.433843 6.62606,-0.01643 12.11938,-1.291366 21.73997,-6.768811 5.90903,5.420735 4.45041,6.800924 17.73435,6.768811 13.25217,-0.03289 12.11975,-1.291366 21.74036,-6.768811 5.909,5.420735 4.46331,7.353773 17.73434,6.768811 22.69794,-1.000451 25.44872,-9.627521 29.50667,-31.733246 0.0188,-0.09587 0.0292,-0.172798 0.0475,-0.267561 h -15.51409 l -5.58279,18.269475 c -0.0761,0.249291 -0.30676,0.418523 -0.56741,0.417114 h -9.14159 c -0.39014,-0.0047 -0.66611,-0.382826 -0.55555,-0.756667 l 5.47146,-17.929922 h -29.09887 l -5.58279,18.269475 c -0.0761,0.249291 -0.30674,0.418523 -0.56739,0.417114 h -9.14161 c -0.39014,-0.0047 -0.6661,-0.382826 -0.55554,-0.756667 l 5.47146,-17.929922 h -29.09846 l -5.58277,18.269475 c -0.0761,0.249291 -0.30708,0.418523 -0.56778,0.417114 h -9.14161 c -0.39013,-0.0047 -0.66609,-0.382826 -0.55553,-0.756667 l 5.47144,-17.929922 h -4.01155 l -6.84005,-6.048881 h 116.59795 c 1.06659,-11.89664 -4.13581,-9.911299 -19.00017,-10.027782 -14.86436,-0.116483 -15.03021,2.298855 -18.79235,3.45714 -6.19114,-2.404175 -4.94287,-3.333809 -20.68235,-3.45714 -15.73948,-0.123331 -15.03022,2.298855 -18.79234,3.45714 -6.19113,-2.404175 -5.74654,-3.457679 -20.92357,-3.45714 -15.17704,5.38e-4 -15.29105,1.081698 -15.29105,1.081698 2.31414,-5.643921 -2.62272,-9.533129 -6.60777,-11.713068 -3.98505,-2.179939 -23.00218,-2.084982 -32.90212,11.030894 z"
           sodipodi:nodetypes="cscsczczcccsccccccccccccccccccccccczczczczc" /></g></g></g></svg>
