<?xml version="1.0" encoding="UTF-8" standalone="no"?>
<!-- Created with Inkscape (http://www.inkscape.org/) -->

<svg
   xmlns:dc="http://purl.org/dc/elements/1.1/"
   xmlns:cc="http://creativecommons.org/ns#"
   xmlns:rdf="http://www.w3.org/1999/02/22-rdf-syntax-ns#"
   xmlns:svg="http://www.w3.org/2000/svg"
   xmlns="http://www.w3.org/2000/svg"
   xmlns:xlink="http://www.w3.org/1999/xlink"
   xmlns:sodipodi="http://sodipodi.sourceforge.net/DTD/sodipodi-0.dtd"
   xmlns:inkscape="http://www.inkscape.org/namespaces/inkscape"
   width="2700"
   height="1000"
   viewBox="0 0 714.37497 264.58334"
   version="1.1"
   id="svg8"
   inkscape:version="0.92.4 (5da689c313, 2019-01-14)"
   sodipodi:docname="Salted Fish.svg">
  <defs
     id="defs2">
    <clipPath
       id="SVGID_2_">
      <use
         height="100%"
         width="100%"
         y="0"
         x="0"
         style="overflow:visible"
         xlink:href="#SVGID_1_"
         id="use3788" />
    </clipPath>
    <path
       inkscape:connector-curvature="0"
       id="SVGID_1_"
       d="m 100.67,68.58 c -1.23,0.81 -2.48,1.65 -3.7,2.65 -7.29,5.99 -14.22,10.25 -21.19,12.99 -6.07,2.39 -12.05,3.86 -17.78,4.36 -3.73,0.34 -7.67,0.36 -11.72,0.08 -4.63,-0.33 -9.38,-1.09 -14.16,-2.23 0.61,-1.35 1.11,-2.76 1.49,-4.19 0.46,-1.71 0.62,-3.94 0.46,-5.88 0.71,0.24 1.4,0.46 2.11,0.72 2.24,0.83 4.52,1.37 6.79,1.39 1.7,0 2.92,-1.6 4.25,-3.12 1.45,-1.67 2.98,-3.31 3.28,-6.73 0.08,-0.81 0.35,-1.94 -0.02,-2.53 -0.43,-0.71 -1.41,-0.59 -1.95,-0.74 -0.72,-0.18 -1.42,-0.26 -2.12,-0.35 -2.04,-0.26 -3.94,-0.11 -5.95,0.33 -2.28,0.49 -4.61,1.16 -6.82,2.25 -0.29,0.14 -0.57,0.32 -0.86,0.49 -0.44,-1.9 -1.16,-3.75 -1.84,-5.57 -0.53,-1.42 -0.88,-2.85 -2.13,-3.85 -0.67,-0.54 -2.38,-1.03 -2.7,0.14 -0.13,0.49 0.17,1.2 0.53,1.87 0.29,0.54 0.6,1.05 0.73,1.42 0.92,2.68 1.35,5.5 1.77,8.28 0.51,3.31 0.64,6.1 0.41,9.46 -0.11,1.59 -0.55,3.12 -1.09,4.46 -0.15,0.36 -0.32,0.71 -0.51,1.05 -3.52,-1.07 -6.73,-2.38 -9.73,-4.02 L 17.47,80.9 c -3.26,-1.77 -7.32,-3.98 -9.54,-7.29 0.02,-0.26 0.03,-0.57 0.01,-0.96 0.71,-1.05 2.51,-0.66 3.48,-0.32 1.25,0.44 2.44,1.28 3.76,1.16 1.27,-0.11 1.74,-1.39 1.05,-2.41 -0.66,-1 -2.27,-1.47 -3.3,-1.98 -1.18,-0.59 -2.58,-0.85 -3.85,-1.21 -0.8,-0.23 -1.64,-0.32 -2.48,-0.34 0.06,-0.09 0.1,-0.17 0.16,-0.26 0.17,-0.26 0.35,-0.52 0.5,-0.78 0.58,-0.93 1.22,-1.82 1.85,-2.68 1.25,-1.67 2.62,-3.28 4.11,-4.8 1.19,-1.21 2.45,-2.35 3.75,-3.4 0.86,-0.64 2.97,-1.83 6.13,-1.24 3.35,0.63 5.33,2.24 11.23,1.31 5.91,-0.93 6.6,-3.7 12.36,-3.7 5.76,0 7.78,4.5 14.83,4.84 6.28,0.29 6.85,-3.45 12.88,-2.55 6.03,0.89 6.6,6.7 14.73,6.7 8.13,0 9.28,-2.9 17.78,3.29 -0.03,0.28 -0.1,0.57 -0.18,0.87 -1.08,0.13 -2.08,0.53 -2.92,1.21 -0.96,0.76 -2.02,1.47 -3.14,2.22 z" />
  </defs>
  <sodipodi:namedview
     id="base"
     pagecolor="#ffffff"
     bordercolor="#666666"
     borderopacity="1.0"
     inkscape:pageopacity="0.0"
     inkscape:pageshadow="2"
     inkscape:zoom="0.35"
     inkscape:cx="1338.4816"
     inkscape:cy="564.73309"
     inkscape:document-units="mm"
     inkscape:current-layer="layer2"
     showgrid="false"
     units="px"
     inkscape:window-width="1400"
     inkscape:window-height="993"
     inkscape:window-x="262"
     inkscape:window-y="1080"
     inkscape:window-maximized="1" />
  <metadata
     id="metadata5">
    <rdf:RDF>
      <cc:Work
         rdf:about="">
        <dc:format>image/svg+xml</dc:format>
        <dc:type
           rdf:resource="http://purl.org/dc/dcmitype/StillImage" />
        <dc:title></dc:title>
      </cc:Work>
    </rdf:RDF>
  </metadata>
  <g
     inkscape:groupmode="layer"
     id="layer2"
     inkscape:label="Layer 2">
    <text
       xml:space="preserve"
       style="font-style:normal;font-weight:normal;font-size:10.58333302px;line-height:1.25;font-family:sans-serif;letter-spacing:0px;word-spacing:0px;fill:#000000;fill-opacity:1;stroke:none;stroke-width:0.26458332"
       x="-109.83649"
       y="-24.882673"
       id="text3944"
       transform="rotate(-15)"><tspan
         sodipodi:role="line"
         id="tspan3942"
         x="-109.83649"
         y="-24.882673"
         style="font-style:normal;font-variant:normal;font-weight:200;font-stretch:normal;font-size:25.39999962px;line-height:0.02;font-family:'Noto Serif CJK SC';-inkscape-font-specification:'Noto Serif CJK SC Ultra-Light';fill:#001fe9;fill-opacity:0.2;stroke-width:0.26458332"
         dy="0">~~~~~~~~~~~~~~~~~~~~~~~~~~~~~~~~~~~~~~~~~~~~~~~~~~~~~~~~~~~~</tspan><tspan
         sodipodi:role="line"
         x="-109.83649"
         y="-11.653509"
         style="font-style:normal;font-variant:normal;font-weight:200;font-stretch:normal;font-size:25.39999962px;line-height:0.02;font-family:'Noto Serif CJK SC';-inkscape-font-specification:'Noto Serif CJK SC Ultra-Light';fill:#001fe9;fill-opacity:0.2;stroke-width:0.26458332"
         id="tspan3946">~~~~~~~~~~~~~~~~~~~~~~~~~~~~~~~~~~~~~~~~~~~~~~~~~~~~~~~~~~~~</tspan><tspan
         sodipodi:role="line"
         x="-109.83649"
         y="1.5756624"
         style="font-style:normal;font-variant:normal;font-weight:200;font-stretch:normal;font-size:25.39999962px;line-height:0.02;font-family:'Noto Serif CJK SC';-inkscape-font-specification:'Noto Serif CJK SC Ultra-Light';fill:#001fe9;fill-opacity:0.2;stroke-width:0.26458332"
         id="tspan3948">~~~~~~~~~~~~~~~~~~~~~~~~~~~~~~~~~~~~~~~~~~~~~~~~~~~~~~~~~~~~</tspan><tspan
         sodipodi:role="line"
         x="-109.83649"
         y="14.804827"
         style="font-style:normal;font-variant:normal;font-weight:200;font-stretch:normal;font-size:25.39999962px;line-height:0.02;font-family:'Noto Serif CJK SC';-inkscape-font-specification:'Noto Serif CJK SC Ultra-Light';fill:#001fe9;fill-opacity:0.2;stroke-width:0.26458332"
         id="tspan3950">~~~~~~~~~~~~~~~~~~~~~~~~~~~~~~~~~~~~~~~~~~~~~~~~~~~~~~~~~~~~</tspan><tspan
         sodipodi:role="line"
         x="-109.83649"
         y="28.033991"
         style="font-style:normal;font-variant:normal;font-weight:200;font-stretch:normal;font-size:25.39999962px;line-height:0.02;font-family:'Noto Serif CJK SC';-inkscape-font-specification:'Noto Serif CJK SC Ultra-Light';fill:#001fe9;fill-opacity:0.2;stroke-width:0.26458332"
         id="tspan3952">~~~~~~~~~~~~~~~~~~~~~~~~~~~~~~~~~~~~~~~~~~~~~~~~~~~~~~~~~~~~</tspan><tspan
         sodipodi:role="line"
         x="-109.83649"
         y="41.263153"
         style="font-style:normal;font-variant:normal;font-weight:200;font-stretch:normal;font-size:25.39999962px;line-height:0.02;font-family:'Noto Serif CJK SC';-inkscape-font-specification:'Noto Serif CJK SC Ultra-Light';fill:#001fe9;fill-opacity:0.2;stroke-width:0.26458332"
         id="tspan3954">~~~~~~~~~~~~~~~~~~~~~~~~~~~~~~~~~~~~~~~~~~~~~~~~~~~~~~~~~~~~</tspan><tspan
         sodipodi:role="line"
         x="-109.83649"
         y="54.492325"
         style="font-style:normal;font-variant:normal;font-weight:200;font-stretch:normal;font-size:25.39999962px;line-height:0.02;font-family:'Noto Serif CJK SC';-inkscape-font-specification:'Noto Serif CJK SC Ultra-Light';fill:#001fe9;fill-opacity:0.2;stroke-width:0.26458332"
         id="tspan3956">~~~~~~~~~~~~~~~~~~~~~~~~~~~~~~~~~~~~~~~~~~~~~~~~~~~~~~~~~~~~</tspan><tspan
         sodipodi:role="line"
         x="-109.83649"
         y="67.721481"
         style="font-style:normal;font-variant:normal;font-weight:200;font-stretch:normal;font-size:25.39999962px;line-height:0.02;font-family:'Noto Serif CJK SC';-inkscape-font-specification:'Noto Serif CJK SC Ultra-Light';fill:#001fe9;fill-opacity:0.2;stroke-width:0.26458332"
         id="tspan3958">~~~~~~~~~~~~~~~~~~~~~~~~~~~~~~~~~~~~~~~~~~~~~~~~~~~~~~~~~~~~</tspan><tspan
         sodipodi:role="line"
         x="-109.83649"
         y="80.950653"
         style="font-style:normal;font-variant:normal;font-weight:200;font-stretch:normal;font-size:25.39999962px;line-height:0.02;font-family:'Noto Serif CJK SC';-inkscape-font-specification:'Noto Serif CJK SC Ultra-Light';fill:#001fe9;fill-opacity:0.2;stroke-width:0.26458332"
         id="tspan3960">~~~~~~~~~~~~~~~~~~~~~~~~~~~~~~~~~~~~~~~~~~~~~~~~~~~~~~~~~~~~</tspan><tspan
         sodipodi:role="line"
         x="-109.83649"
         y="94.179825"
         style="font-style:normal;font-variant:normal;font-weight:200;font-stretch:normal;font-size:25.39999962px;line-height:0.02;font-family:'Noto Serif CJK SC';-inkscape-font-specification:'Noto Serif CJK SC Ultra-Light';fill:#001fe9;fill-opacity:0.2;stroke-width:0.26458332"
         id="tspan3962">~~~~~~~~~~~~~~~~~~~~~~~~~~~~~~~~~~~~~~~~~~~~~~~~~~~~~~~~~~~~</tspan><tspan
         sodipodi:role="line"
         x="-109.83649"
         y="107.40898"
         style="font-style:normal;font-variant:normal;font-weight:200;font-stretch:normal;font-size:25.39999962px;line-height:0.02;font-family:'Noto Serif CJK SC';-inkscape-font-specification:'Noto Serif CJK SC Ultra-Light';fill:#001fe9;fill-opacity:0.2;stroke-width:0.26458332"
         id="tspan3964">~~~~~~~~~~~~~~~~~~~~~~~~~~~~~~~~~~~~~~~~~~~~~~~~~~~~~~~~~~~~</tspan><tspan
         sodipodi:role="line"
         x="-109.83649"
         y="120.63815"
         style="font-style:normal;font-variant:normal;font-weight:200;font-stretch:normal;font-size:25.39999962px;line-height:0.02;font-family:'Noto Serif CJK SC';-inkscape-font-specification:'Noto Serif CJK SC Ultra-Light';fill:#001fe9;fill-opacity:0.2;stroke-width:0.26458332"
         id="tspan3966">~~~~~~~~~~~~~~~~~~~~~~~~~~~~~~~~~~~~~~~~~~~~~~~~~~~~~~~~~~~~</tspan><tspan
         sodipodi:role="line"
         x="-109.83649"
         y="133.86732"
         style="font-style:normal;font-variant:normal;font-weight:200;font-stretch:normal;font-size:25.39999962px;line-height:0.02;font-family:'Noto Serif CJK SC';-inkscape-font-specification:'Noto Serif CJK SC Ultra-Light';fill:#001fe9;fill-opacity:0.2;stroke-width:0.26458332"
         id="tspan3968">~~~~~~~~~~~~~~~~~~~~~~~~~~~~~~~~~~~~~~~~~~~~~~~~~~~~~~~~~~~~</tspan><tspan
         sodipodi:role="line"
         x="-109.83649"
         y="147.09648"
         style="font-style:normal;font-variant:normal;font-weight:200;font-stretch:normal;font-size:25.39999962px;line-height:0.02;font-family:'Noto Serif CJK SC';-inkscape-font-specification:'Noto Serif CJK SC Ultra-Light';fill:#001fe9;fill-opacity:0.2;stroke-width:0.26458332"
         id="tspan3970">~~~~~~~~~~~~~~~~~~~~~~~~~~~~~~~~~~~~~~~~~~~~~~~~~~~~~~~~~~~~</tspan><tspan
         sodipodi:role="line"
         x="-109.83649"
         y="160.32565"
         style="font-style:normal;font-variant:normal;font-weight:200;font-stretch:normal;font-size:25.39999962px;line-height:0.02;font-family:'Noto Serif CJK SC';-inkscape-font-specification:'Noto Serif CJK SC Ultra-Light';fill:#001fe9;fill-opacity:0.2;stroke-width:0.26458332"
         id="tspan3972">~~~~~~~~~~~~~~~~~~~~~~~~~~~~~~~~~~~~~~~~~~~~~~~~~~~~~~~~~~~~</tspan><tspan
         sodipodi:role="line"
         x="-109.83649"
         y="173.55482"
         style="font-style:normal;font-variant:normal;font-weight:200;font-stretch:normal;font-size:25.39999962px;line-height:0.02;font-family:'Noto Serif CJK SC';-inkscape-font-specification:'Noto Serif CJK SC Ultra-Light';fill:#001fe9;fill-opacity:0.2;stroke-width:0.26458332"
         id="tspan3974">~~~~~~~~~~~~~~~~~~~~~~~~~~~~~~~~~~~~~~~~~~~~~~~~~~~~~~~~~~~~</tspan><tspan
         sodipodi:role="line"
         x="-109.83649"
         y="186.784"
         style="font-style:normal;font-variant:normal;font-weight:200;font-stretch:normal;font-size:25.39999962px;line-height:0.02;font-family:'Noto Serif CJK SC';-inkscape-font-specification:'Noto Serif CJK SC Ultra-Light';fill:#001fe9;fill-opacity:0.2;stroke-width:0.26458332"
         id="tspan4781">~~~~~~~~~~~~~~~~~~~~~~~~~~~~~~~~~~~~~~~~~~~~~~~~~~~~~~~~~~~~</tspan><tspan
         sodipodi:role="line"
         x="-109.83649"
         y="200.01315"
         style="font-style:normal;font-variant:normal;font-weight:200;font-stretch:normal;font-size:25.39999962px;line-height:0.02;font-family:'Noto Serif CJK SC';-inkscape-font-specification:'Noto Serif CJK SC Ultra-Light';fill:#001fe9;fill-opacity:0.2;stroke-width:0.26458332"
         id="tspan4783">~~~~~~~~~~~~~~~~~~~~~~~~~~~~~~~~~~~~~~~~~~~~~~~~~~~~~~~~~~~~</tspan><tspan
         sodipodi:role="line"
         x="-109.83649"
         y="213.24231"
         style="font-style:normal;font-variant:normal;font-weight:200;font-stretch:normal;font-size:25.39999962px;line-height:0.02;font-family:'Noto Serif CJK SC';-inkscape-font-specification:'Noto Serif CJK SC Ultra-Light';fill:#001fe9;fill-opacity:0.2;stroke-width:0.26458332"
         id="tspan4785">~~~~~~~~~~~~~~~~~~~~~~~~~~~~~~~~~~~~~~~~~~~~~~~~~~~~~~~~~~~~</tspan><tspan
         sodipodi:role="line"
         x="-109.83649"
         y="226.4715"
         style="font-style:normal;font-variant:normal;font-weight:200;font-stretch:normal;font-size:25.39999962px;line-height:0.02;font-family:'Noto Serif CJK SC';-inkscape-font-specification:'Noto Serif CJK SC Ultra-Light';fill:#001fe9;fill-opacity:0.2;stroke-width:0.26458332"
         id="tspan4787">~~~~~~~~~~~~~~~~~~~~~~~~~~~~~~~~~~~~~~~~~~~~~~~~~~~~~~~~~~~~</tspan><tspan
         sodipodi:role="line"
         x="-109.83649"
         y="239.70065"
         style="font-style:normal;font-variant:normal;font-weight:200;font-stretch:normal;font-size:25.39999962px;line-height:0.02;font-family:'Noto Serif CJK SC';-inkscape-font-specification:'Noto Serif CJK SC Ultra-Light';fill:#001fe9;fill-opacity:0.2;stroke-width:0.26458332"
         id="tspan4789">~~~~~~~~~~~~~~~~~~~~~~~~~~~~~~~~~~~~~~~~~~~~~~~~~~~~~~~~~~~~</tspan><tspan
         sodipodi:role="line"
         x="-109.83649"
         y="252.92981"
         style="font-style:normal;font-variant:normal;font-weight:200;font-stretch:normal;font-size:25.39999962px;line-height:0.02;font-family:'Noto Serif CJK SC';-inkscape-font-specification:'Noto Serif CJK SC Ultra-Light';fill:#001fe9;fill-opacity:0.2;stroke-width:0.26458332"
         id="tspan4791">~~~~~~~~~~~~~~~~~~~~~~~~~~~~~~~~~~~~~~~~~~~~~~~~~~~~~~~~~~~~</tspan><tspan
         sodipodi:role="line"
         x="-109.83649"
         y="266.159"
         style="font-style:normal;font-variant:normal;font-weight:200;font-stretch:normal;font-size:25.39999962px;line-height:0.02;font-family:'Noto Serif CJK SC';-inkscape-font-specification:'Noto Serif CJK SC Ultra-Light';fill:#001fe9;fill-opacity:0.2;stroke-width:0.26458332"
         id="tspan4793">~~~~~~~~~~~~~~~~~~~~~~~~~~~~~~~~~ ~~~~~~~~~~~~~~~~~~~~~~~~~~~</tspan><tspan
         sodipodi:role="line"
         x="-109.83649"
         y="279.38815"
         style="font-style:normal;font-variant:normal;font-weight:200;font-stretch:normal;font-size:25.39999962px;line-height:0.02;font-family:'Noto Serif CJK SC';-inkscape-font-specification:'Noto Serif CJK SC Ultra-Light';fill:#001fe9;fill-opacity:0.2;stroke-width:0.26458332"
         id="tspan4795">~~~~~~~~~~~~~~~~~~~~~~~~~~~~~~~~~~~~~~~~~~~~~~~~~~~~~~~~~~~~</tspan><tspan
         sodipodi:role="line"
         x="-109.83649"
         y="292.61731"
         style="font-style:normal;font-variant:normal;font-weight:200;font-stretch:normal;font-size:25.39999962px;line-height:0.02;font-family:'Noto Serif CJK SC';-inkscape-font-specification:'Noto Serif CJK SC Ultra-Light';fill:#001fe9;fill-opacity:0.2;stroke-width:0.26458332"
         id="tspan4797">~~~~~~~~~~~~~~~~~~~~~~~~~~~~~~~~~~~~~~~~~~~~~~~~~~~~~~~~~~~~</tspan><tspan
         sodipodi:role="line"
         x="-109.83649"
         y="305.8465"
         style="font-style:normal;font-variant:normal;font-weight:200;font-stretch:normal;font-size:25.39999962px;line-height:0.02;font-family:'Noto Serif CJK SC';-inkscape-font-specification:'Noto Serif CJK SC Ultra-Light';fill:#001fe9;fill-opacity:0.2;stroke-width:0.26458332"
         id="tspan4799">~~~~~~~~~~~~~~~~~~~~~~~~~~~~~~~~~~~~~~~~~~~~~~~~~~~~~~~~~~~~</tspan><tspan
         sodipodi:role="line"
         x="-109.83649"
         y="319.07565"
         style="font-style:normal;font-variant:normal;font-weight:200;font-stretch:normal;font-size:25.39999962px;line-height:0.02;font-family:'Noto Serif CJK SC';-inkscape-font-specification:'Noto Serif CJK SC Ultra-Light';fill:#001fe9;fill-opacity:0.2;stroke-width:0.26458332"
         id="tspan4801">~~~~~~~~~~~~~~~~~~~~~~~~~~~~~~~~~~~~~~~~~~~~~~~~~~~~~~~~~~~~</tspan><tspan
         sodipodi:role="line"
         x="-109.83649"
         y="332.30481"
         style="font-style:normal;font-variant:normal;font-weight:200;font-stretch:normal;font-size:25.39999962px;line-height:0.02;font-family:'Noto Serif CJK SC';-inkscape-font-specification:'Noto Serif CJK SC Ultra-Light';fill:#001fe9;fill-opacity:0.2;stroke-width:0.26458332"
         id="tspan4803">~~~~~~~~~~~~~~~~~~~~~~~~~~~~~~~~~~~~~~~~~~~~~~~~~~~~~~~~~~~~</tspan><tspan
         sodipodi:role="line"
         x="-109.83649"
         y="345.53397"
         style="font-style:normal;font-variant:normal;font-weight:200;font-stretch:normal;font-size:25.39999962px;line-height:0.02;font-family:'Noto Serif CJK SC';-inkscape-font-specification:'Noto Serif CJK SC Ultra-Light';fill:#001fe9;fill-opacity:0.2;stroke-width:0.26458332"
         id="tspan4805">~~~~~~~~~~~~~~~~~~~~~~~~~~~~~~~~~~~~~~~~~~~~~~~~~~~~~~~~~~~~</tspan><tspan
         sodipodi:role="line"
         x="-109.83649"
         y="358.76315"
         style="font-style:normal;font-variant:normal;font-weight:200;font-stretch:normal;font-size:25.39999962px;line-height:0.02;font-family:'Noto Serif CJK SC';-inkscape-font-specification:'Noto Serif CJK SC Ultra-Light';fill:#001fe9;fill-opacity:0.2;stroke-width:0.26458332"
         id="tspan4807">~~~~~~~~~~~~~~~~~~~~~~~~~~~~~~~~~~~~~~~~~~~~~~~~~~~~~~~~~~~~</tspan><tspan
         sodipodi:role="line"
         x="-109.83649"
         y="371.99231"
         style="font-style:normal;font-variant:normal;font-weight:200;font-stretch:normal;font-size:25.39999962px;line-height:0.02;font-family:'Noto Serif CJK SC';-inkscape-font-specification:'Noto Serif CJK SC Ultra-Light';fill:#001fe9;fill-opacity:0.2;stroke-width:0.26458332"
         id="tspan4809">~~~~~~~~~~~~~~~~~~~~~~~~~~~~~~~~~~~~~~~~~~~~~~~~~~~~~~~~~~~~</tspan><tspan
         sodipodi:role="line"
         x="-109.83649"
         y="385.22147"
         style="font-style:normal;font-variant:normal;font-weight:200;font-stretch:normal;font-size:25.39999962px;line-height:0.02;font-family:'Noto Serif CJK SC';-inkscape-font-specification:'Noto Serif CJK SC Ultra-Light';fill:#001fe9;fill-opacity:0.2;stroke-width:0.26458332"
         id="tspan4811">~~~~~~~~~~~~~~~~~~~~~~~~~~~~~~~~~~~~~~~~~~~~~~~~~~~~~~~~~~~~</tspan><tspan
         sodipodi:role="line"
         x="-109.83649"
         y="398.45065"
         style="font-style:normal;font-variant:normal;font-weight:200;font-stretch:normal;font-size:25.39999962px;line-height:0.02;font-family:'Noto Serif CJK SC';-inkscape-font-specification:'Noto Serif CJK SC Ultra-Light';fill:#001fe9;fill-opacity:0.2;stroke-width:0.26458332"
         id="tspan4845">~~~~~~~~~~~~~~~~~~~~~~~~~~~~~~~~~~~~~~~~~~~~~~~~~~~~~~~~~~~~</tspan><tspan
         sodipodi:role="line"
         x="-109.83649"
         y="411.67981"
         style="font-style:normal;font-variant:normal;font-weight:200;font-stretch:normal;font-size:25.39999962px;line-height:0.02;font-family:'Noto Serif CJK SC';-inkscape-font-specification:'Noto Serif CJK SC Ultra-Light';fill:#001fe9;fill-opacity:0.2;stroke-width:0.26458332"
         id="tspan4847">~~~~~~~~~~~~~~~~~~~~~~~~~~~~~~~~~~~~~~~~~~~~~~~~~~~~~~~~~~~~</tspan><tspan
         sodipodi:role="line"
         x="-109.83649"
         y="424.90897"
         style="font-style:normal;font-variant:normal;font-weight:200;font-stretch:normal;font-size:25.39999962px;line-height:0.02;font-family:'Noto Serif CJK SC';-inkscape-font-specification:'Noto Serif CJK SC Ultra-Light';fill:#001fe9;fill-opacity:0.2;stroke-width:0.26458332"
         id="tspan4849">~~~~~~~~~~~~~~~~~~~~~~~~~~~~~~~~~~~~~~~~~~~~~~~~~~~~~~~~~~~~</tspan><tspan
         sodipodi:role="line"
         x="-109.83649"
         y="438.13812"
         style="font-style:normal;font-variant:normal;font-weight:200;font-stretch:normal;font-size:25.39999962px;line-height:0.02;font-family:'Noto Serif CJK SC';-inkscape-font-specification:'Noto Serif CJK SC Ultra-Light';fill:#001fe9;fill-opacity:0.2;stroke-width:0.26458332"
         id="tspan4851">~~~~~~~~~~~~~~~~~~~~~~~~~~~~~~~~~~~~~~~~~~~~~~~~~~~~~~~~~~~~</tspan><tspan
         sodipodi:role="line"
         x="-109.83649"
         y="451.36731"
         style="font-style:normal;font-variant:normal;font-weight:200;font-stretch:normal;font-size:25.39999962px;line-height:0.02;font-family:'Noto Serif CJK SC';-inkscape-font-specification:'Noto Serif CJK SC Ultra-Light';fill:#001fe9;fill-opacity:0.2;stroke-width:0.26458332"
         id="tspan4853">~~~~~~~~~~~~~~~~~~~~~~~~~~~~~~~~~~~~~~~~~~~~~~~~~~~~~~~~~~~~</tspan><tspan
         sodipodi:role="line"
         x="-109.83649"
         y="464.5965"
         style="font-style:normal;font-variant:normal;font-weight:200;font-stretch:normal;font-size:25.39999962px;line-height:0.02;font-family:'Noto Serif CJK SC';-inkscape-font-specification:'Noto Serif CJK SC Ultra-Light';fill:#001fe9;fill-opacity:0.2;stroke-width:0.26458332"
         id="tspan4855">~~~~~~~~~~~~~~~~~~~~~~~~~~~~~~~~~~~~~~~~~~~~~~~~~~~~~~~~~~~~</tspan><tspan
         sodipodi:role="line"
         x="-109.83649"
         y="477.82562"
         style="font-style:normal;font-variant:normal;font-weight:200;font-stretch:normal;font-size:25.39999962px;line-height:0.02;font-family:'Noto Serif CJK SC';-inkscape-font-specification:'Noto Serif CJK SC Ultra-Light';fill:#001fe9;fill-opacity:0.2;stroke-width:0.26458332"
         id="tspan4857">~~~~~~~~~~~~~~~~~~~~~~~~~~~~~~~~~~~~~~~~~~~~~~~~~~~~~~~~~~~~</tspan></text>
  </g>
  <g
     inkscape:label="Layer 1"
     inkscape:groupmode="layer"
     id="layer1"
     transform="translate(0,-32.41665)">
    <text
       xml:space="preserve"
       style="font-style:normal;font-weight:normal;font-size:10.58333302px;line-height:1.25;font-family:sans-serif;letter-spacing:0px;word-spacing:0px;fill:#000000;fill-opacity:1;stroke:none;stroke-width:0.26458332"
       x="67.279762"
       y="107.25593"
       id="text3715"><tspan
         sodipodi:role="line"
         id="tspan3713"
         x="67.279762"
         y="117.89218"
         style="font-style:normal;font-variant:normal;font-weight:normal;font-stretch:normal;font-size:50.79999924px;font-family:'Noto Color Emoji';-inkscape-font-specification:'Noto Color Emoji';stroke-width:0.26458332" /></text>
    <text
       xml:space="preserve"
       style="font-style:normal;font-weight:normal;font-size:10.58333302px;line-height:1.25;font-family:sans-serif;letter-spacing:0px;word-spacing:0px;fill:#000000;fill-opacity:1;stroke:none;stroke-width:0.26458332"
       x="46.869045"
       y="-22.767879"
       id="text3861"><tspan
         sodipodi:role="line"
         id="tspan3859"
         x="46.869045"
         y="-12.13163"
         style="stroke-width:0.26458332" /></text>
    <g
       id="g4843"
       transform="translate(4.2258761,13.758332)">
      <g
         id="g3797"
         transform="matrix(2.2460479,1.2967563,-1.2967563,2.2460479,279.79751,-72.6323)">
        <path
           id="path3781"
           style="fill:#006ca2"
           d="m 127.46,74.16 c -0.52,-1.82 -1.49,-3.31 -2.37,-4.68 -0.56,-0.85 -1.18,-1.83 -1.53,-2.78 -0.38,-1.08 -0.89,-2.03 -1.38,-2.94 -0.46,-0.85 -0.89,-1.64 -1.1,-2.38 -0.39,-1.31 -0.16,-2.94 0.1,-4.66 0.08,-0.51 0.15,-1.01 0.21,-1.51 0.25,-2.02 0.62,-4.02 1.11,-5.95 0.07,-0.24 0.18,-0.61 0.32,-1.07 1.6,-5.2 2.09,-7.82 0.75,-9.62 -0.62,-0.85 -1.6,-1.33 -2.66,-1.33 -1.52,0 -2.83,1.01 -3.81,1.89 -0.87,0.78 -1.53,1.68 -2.11,2.48 l -0.46,0.64 c -0.94,1.25 -1.89,2.48 -2.85,3.71 -1.27,1.65 -2.55,3.31 -3.81,5 -0.3,0.39 -0.6,0.86 -0.94,1.36 -0.5,0.78 -1.69,2.6 -2.33,2.75 -0.38,0 -1.12,-0.36 -1.72,-0.65 l -0.45,-0.21 c -3.45,-1.64 -7.18,-3.38 -11.06,-4.99 -0.91,-1.87 -2.31,-3.55 -3.31,-5.35 -1.29,-2.34 -2.55,-6.72 -5.93,-5.96 -2.46,0.56 -4.96,3.59 -6.74,5.24 -0.24,0.22 -0.46,0.42 -0.65,0.61 -7.38,-2.01 -14.75,-3.58 -22.33,-3.99 -0.58,-1.81 -0.5,-3.93 -0.32,-5.87 0.21,-2.26 0.77,-5.25 -2.55,-4.25 -2.17,0.65 -4.09,2.55 -5.87,3.9 -2.78,2.12 -5.1,4.63 -7.33,7.31 C 34,41.32 31.71,41.89 29.51,42.62 21.73,45.2 14.93,49.41 9.29,55.15 7.64,56.84 6.1,58.65 4.71,60.51 3.98,61.48 3.27,62.49 2.6,63.56 l -0.43,0.65 c -0.57,0.86 -1.21,1.83 -1.64,3.1 -0.86,2.54 0.72,4.24 1.47,5.06 l 0.44,0.4 c 0.01,0.23 0,0.4 -0.01,0.55 -0.04,0.92 -0.02,1.86 0.9,3.28 2.85,4.37 7.84,7.08 11.49,9.06 l 0.74,0.41 c 4.04,2.21 8.38,3.89 13.25,5.17 2.66,0.69 5.32,1.26 7.96,1.72 0.79,0.62 1.56,1.14 1.75,1.26 3.04,2.04 6.93,4.26 10.71,4.26 2.92,0 0.62,-2.93 -0.19,-4 -0.07,-0.09 -0.13,-0.19 -0.21,-0.29 0.96,0.03 1.95,0.11 2.88,0.11 2.28,0 4.53,-0.1 6.71,-0.29 6.24,-0.55 12.73,-2.14 19.29,-4.72 0.17,-0.07 0.33,-0.14 0.49,-0.21 0.26,0.04 0.52,0.08 0.69,0.11 2.23,0.4 4.52,1.31 6.81,1.15 3.18,-0.23 3.24,-1.82 4.31,-4.35 0.51,-1.16 0.82,-2.36 1.3,-3.52 0.06,-0.14 0.13,-0.31 0.2,-0.46 2.92,-1.93 5.86,-4.11 8.85,-6.58 1.01,-0.82 2.1,-1.55 3.26,-2.32 1.17,-0.79 2.39,-1.6 3.76,-2.6 1.12,0 3.21,1.53 4.21,2.26 l 1.13,0.82 c 1.99,1.45 4.05,2.95 6.37,4.14 1.05,0.54 3.05,1.45 4.74,1.45 1.72,0 2.64,-0.89 3.04,-1.41 0.59,-0.65 1.09,-1.83 0.59,-3.61 z"
           inkscape:connector-curvature="0" />
        <g
           id="g3793">
          <defs
             id="defs3784">
            <path
               d="m 100.67,68.58 c -1.23,0.81 -2.48,1.65 -3.7,2.65 -7.29,5.99 -14.22,10.25 -21.19,12.99 -6.07,2.39 -12.05,3.86 -17.78,4.36 -3.73,0.34 -7.67,0.36 -11.72,0.08 -4.63,-0.33 -9.38,-1.09 -14.16,-2.23 0.61,-1.35 1.11,-2.76 1.49,-4.19 0.46,-1.71 0.62,-3.94 0.46,-5.88 0.71,0.24 1.4,0.46 2.11,0.72 2.24,0.83 4.52,1.37 6.79,1.39 1.7,0 2.92,-1.6 4.25,-3.12 1.45,-1.67 2.98,-3.31 3.28,-6.73 0.08,-0.81 0.35,-1.94 -0.02,-2.53 -0.43,-0.71 -1.41,-0.59 -1.95,-0.74 -0.72,-0.18 -1.42,-0.26 -2.12,-0.35 -2.04,-0.26 -3.94,-0.11 -5.95,0.33 -2.28,0.49 -4.61,1.16 -6.82,2.25 -0.29,0.14 -0.57,0.32 -0.86,0.49 -0.44,-1.9 -1.16,-3.75 -1.84,-5.57 -0.53,-1.42 -0.88,-2.85 -2.13,-3.85 -0.67,-0.54 -2.38,-1.03 -2.7,0.14 -0.13,0.49 0.17,1.2 0.53,1.87 0.29,0.54 0.6,1.05 0.73,1.42 0.92,2.68 1.35,5.5 1.77,8.28 0.51,3.31 0.64,6.1 0.41,9.46 -0.11,1.59 -0.55,3.12 -1.09,4.46 -0.15,0.36 -0.32,0.71 -0.51,1.05 -3.52,-1.07 -6.73,-2.38 -9.73,-4.02 L 17.47,80.9 c -3.26,-1.77 -7.32,-3.98 -9.54,-7.29 0.02,-0.26 0.03,-0.57 0.01,-0.96 0.71,-1.05 2.51,-0.66 3.48,-0.32 1.25,0.44 2.44,1.28 3.76,1.16 1.27,-0.11 1.74,-1.39 1.05,-2.41 -0.66,-1 -2.27,-1.47 -3.3,-1.98 -1.18,-0.59 -2.58,-0.85 -3.85,-1.21 -0.8,-0.23 -1.64,-0.32 -2.48,-0.34 0.06,-0.09 0.1,-0.17 0.16,-0.26 0.17,-0.26 0.35,-0.52 0.5,-0.78 0.58,-0.93 1.22,-1.82 1.85,-2.68 1.25,-1.67 2.62,-3.28 4.11,-4.8 1.19,-1.21 2.45,-2.35 3.75,-3.4 0.86,-0.64 2.97,-1.83 6.13,-1.24 3.35,0.63 5.33,2.24 11.23,1.31 5.91,-0.93 6.6,-3.7 12.36,-3.7 5.76,0 7.78,4.5 14.83,4.84 6.28,0.29 6.85,-3.45 12.88,-2.55 6.03,0.89 6.6,6.7 14.73,6.7 8.13,0 9.28,-2.9 17.78,3.29 -0.03,0.28 -0.1,0.57 -0.18,0.87 -1.08,0.13 -2.08,0.53 -2.92,1.21 -0.96,0.76 -2.02,1.47 -3.14,2.22 z"
               id="path3849"
               inkscape:connector-curvature="0" />
          </defs>
          <use
             id="use3786"
             xlink:href="#SVGID_1_"
             style="overflow:visible;fill:#40c0e7"
             x="0"
             y="0"
             width="100%"
             height="100%" />
          <clipPath
             id="clipPath3823">
            <use
               id="use3821"
               xlink:href="#SVGID_1_"
               style="overflow:visible"
               x="0"
               y="0"
               width="100%"
               height="100%" />
          </clipPath>
          <path
             id="path3791"
             clip-path="url(#SVGID_2_)"
             style="fill:#ffffff"
             d="m 5.32,69.55 c 0,0 18.87,6.14 52.2,5.44 28.2,-0.59 54.3,-13.13 54.3,-13.13 l -0.93,5.13 -5.34,1.48 c 0,0 -21.87,22.24 -47.29,22.85 C 49.19,91.53 36.05,90.52 27.93,87.97 13.26,83.33 6.11,75.71 6.11,75.71 Z"
             inkscape:connector-curvature="0" />
        </g>
        <path
           id="path3795"
           style="fill:#2f2f2f"
           d="m 17.3,60.96 c -1.85,0.1 -3.3,1.88 -3.2,3.95 0.1,2.08 1.68,3.67 3.53,3.57 1.87,-0.11 3.32,-1.87 3.22,-3.95 -0.11,-2.07 -1.69,-3.68 -3.55,-3.57 z"
           inkscape:connector-curvature="0" />
      </g>
      <text
         transform="scale(0.94671931,1.0562793)"
         id="text3865"
         y="38.561893"
         x="19.163923"
         style="font-style:normal;font-weight:normal;font-size:10.01944542px;line-height:1.25;font-family:sans-serif;letter-spacing:0px;word-spacing:0px;fill:#000000;fill-opacity:1;stroke:none;stroke-width:0.25048614"
         xml:space="preserve"><tspan
           style="font-style:normal;font-variant:normal;font-weight:bold;font-stretch:normal;font-size:16.03111267px;font-family:'Noto Serif CJK SC';-inkscape-font-specification:'Noto Serif CJK SC Bold';stroke-width:0.25048614"
           y="38.561893"
           x="19.163923"
           id="tspan3863"
           sodipodi:role="line">          进不去的（尖叫    太伤心了（小声     我要直角！（振声    买啊！（振声    加啊！（尖叫</tspan><tspan
           id="tspan3895"
           style="font-style:normal;font-variant:normal;font-weight:bold;font-stretch:normal;font-size:16.03111267px;font-family:'Noto Serif CJK SC';-inkscape-font-specification:'Noto Serif CJK SC Bold';stroke-width:0.25048614"
           y="58.600784"
           x="19.163923"
           sodipodi:role="line">     你看你都做了什么！（振声                                         不大佬（尖叫    Konsole! Konsole! （尖叫</tspan><tspan
           id="tspan3899"
           style="font-style:normal;font-variant:normal;font-weight:bold;font-stretch:normal;font-size:16.03111267px;font-family:'Noto Serif CJK SC';-inkscape-font-specification:'Noto Serif CJK SC Bold';stroke-width:0.25048614"
           y="78.639679"
           x="19.163923"
           sodipodi:role="line">              太伤心了（小声                                                   <tspan
   style="font-style:normal;font-variant:normal;font-weight:900;font-stretch:normal;font-family:'Noto Serif CJK SC';-inkscape-font-specification:'Noto Serif CJK SC Heavy';fill:#006ca2;fill-opacity:1"
   id="tspan4861">怎么现在梗频道全是我怎么叫</tspan></tspan><tspan
           id="tspan3869"
           style="font-style:normal;font-variant:normal;font-weight:bold;font-stretch:normal;font-size:16.03111267px;font-family:'Noto Serif CJK SC';-inkscape-font-specification:'Noto Serif CJK SC Bold';stroke-width:0.25048614"
           y="98.678566"
           x="19.163923"
           sodipodi:role="line">            进不去的（尖叫                                                              pakreqBot 的服务器更新一下系统（小声</tspan><tspan
           id="tspan3877"
           style="font-style:normal;font-variant:normal;font-weight:bold;font-stretch:normal;font-size:16.03111267px;font-family:'Noto Serif CJK SC';-inkscape-font-specification:'Noto Serif CJK SC Bold';stroke-width:0.25048614"
           y="118.71745"
           x="19.163923"
           sodipodi:role="line">         我要直角！（振声                                                                     发出惨叫    红绿灯（尖叫</tspan><tspan
           id="tspan3905"
           style="font-style:normal;font-variant:normal;font-weight:bold;font-stretch:normal;font-size:16.03111267px;font-family:'Noto Serif CJK SC';-inkscape-font-specification:'Noto Serif CJK SC Bold';stroke-width:0.25048614"
           y="138.75635"
           x="19.163923"
           sodipodi:role="line">                       不！（尖叫                                                                    因为我一边摸鱼一边更新（小声    </tspan><tspan
           id="tspan3938"
           style="font-style:normal;font-variant:normal;font-weight:bold;font-stretch:normal;font-size:16.03111267px;font-family:'Noto Serif CJK SC';-inkscape-font-specification:'Noto Serif CJK SC Bold';stroke-width:0.25048614"
           y="158.79524"
           x="19.163923"
           sodipodi:role="line">   需要大佬们想方法（小声                                                                                       我要直角！</tspan><tspan
           id="tspan3907"
           style="font-style:normal;font-variant:normal;font-weight:bold;font-stretch:normal;font-size:16.03111267px;font-family:'Noto Serif CJK SC';-inkscape-font-specification:'Noto Serif CJK SC Bold';stroke-width:0.25048614"
           y="178.83414"
           x="19.163923"
           sodipodi:role="line">                         太伤心了（小声                                                                               进不去的（尖叫</tspan><tspan
           id="tspan3911"
           style="font-style:normal;font-variant:normal;font-weight:bold;font-stretch:normal;font-size:16.03111267px;font-family:'Noto Serif CJK SC';-inkscape-font-specification:'Noto Serif CJK SC Bold';stroke-width:0.25048614"
           y="198.87302"
           x="19.163923"
           sodipodi:role="line">     红绿灯（尖叫    不！（尖叫                                                                           买啊！（振声</tspan><tspan
           id="tspan3915"
           style="font-style:normal;font-variant:normal;font-weight:bold;font-stretch:normal;font-size:16.03111267px;font-family:'Noto Serif CJK SC';-inkscape-font-specification:'Noto Serif CJK SC Bold';stroke-width:0.25048614"
           y="218.91191"
           x="19.163923"
           sodipodi:role="line">          Konsole! Konsole! （尖叫                                                                你看你都做了什么！（振声</tspan><tspan
           id="tspan3917"
           style="font-style:normal;font-variant:normal;font-weight:bold;font-stretch:normal;font-size:16.03111267px;font-family:'Noto Serif CJK SC';-inkscape-font-specification:'Noto Serif CJK SC Bold';stroke-width:0.25048614"
           y="238.95081"
           x="19.163923"
           sodipodi:role="line">     pakreqBot 的服务器更新一下系统（小声                                             太伤心了（小声</tspan><tspan
           style="font-style:normal;font-variant:normal;font-weight:bold;font-stretch:normal;font-size:16.03111267px;font-family:'Noto Serif CJK SC';-inkscape-font-specification:'Noto Serif CJK SC Bold';stroke-width:0.25048614"
           y="258.98969"
           x="19.163923"
           sodipodi:role="line"
           id="tspan4859">          需要大佬们想方法（小声    红绿灯（尖叫    买啊！（振声                发出惨叫    不大佬（尖叫</tspan></text>
    </g>
    <text
       xml:space="preserve"
       style="font-style:normal;font-weight:normal;font-size:10.58333302px;line-height:1.25;font-family:sans-serif;letter-spacing:0px;word-spacing:0px;fill:#000000;fill-opacity:1;stroke:none;stroke-width:0.26458332"
       x="236.61308"
       y="61.142841"
       id="text3903"><tspan
         sodipodi:role="line"
         id="tspan3901"
         x="236.61308"
         y="61.142841"
         style="stroke-width:0.26458332"> </tspan></text>
  </g>
</svg>
