<?xml version="1.0" encoding="UTF-8" standalone="no"?>
<!-- Created with Inkscape (http://www.inkscape.org/) -->

<svg
   width="210mm"
   height="297mm"
   viewBox="0 0 210 297"
   version="1.1"
   id="svg1739"
   inkscape:version="1.2.1 (9c6d41e410, 2022-07-14)"
   sodipodi:docname="tong-tong-bag.svg"
   xml:space="preserve"
   inkscape:export-filename="tong-tong-bag.png"
   inkscape:export-xdpi="300"
   inkscape:export-ydpi="300"
   xmlns:inkscape="http://www.inkscape.org/namespaces/inkscape"
   xmlns:sodipodi="http://sodipodi.sourceforge.net/DTD/sodipodi-0.dtd"
   xmlns="http://www.w3.org/2000/svg"
   xmlns:svg="http://www.w3.org/2000/svg"><sodipodi:namedview
     id="namedview1741"
     pagecolor="#000000"
     bordercolor="#666666"
     borderopacity="1.0"
     inkscape:showpageshadow="2"
     inkscape:pageopacity="0"
     inkscape:pagecheckerboard="0"
     inkscape:deskcolor="#d1d1d1"
     inkscape:document-units="mm"
     showgrid="false"
     inkscape:zoom="0.82535393"
     inkscape:cx="691.82442"
     inkscape:cy="740.89428"
     inkscape:window-width="1920"
     inkscape:window-height="1093"
     inkscape:window-x="0"
     inkscape:window-y="0"
     inkscape:window-maximized="1"
     inkscape:current-layer="layer1" /><defs
     id="defs1736"><clipPath
       clipPathUnits="userSpaceOnUse"
       id="clipPath963"><rect
         style="fill:#ffffff;fill-opacity:1;stroke:#000000;stroke-width:7.9375e-09;stroke-linecap:round;paint-order:stroke fill markers;stop-color:#000000"
         id="rect965"
         width="118.72131"
         height="124.0665"
         x="40.514851"
         y="66.418419" /></clipPath></defs><g
     inkscape:label="图层 1"
     inkscape:groupmode="layer"
     id="layer1"><path
       style="fill:#d1b67f;fill-opacity:1;stroke-width:0.085;stroke-dasharray:none"
       d="m 75.903761,179.02535 c -0.65466,-0.0633 -0.68545,-0.0648 -1.397,-0.0661 -0.59847,-0.001 -1.07015,-0.0811 -1.28673,-0.21836 -0.10234,-0.0649 -0.24412,-0.0956 -0.31507,-0.0684 -0.071,0.0272 -0.36823,-0.0266 -0.6606,-0.11955 -0.29238,-0.093 -0.9126,-0.27031 -1.37827,-0.39408 -0.46566,-0.12375 -0.95453,-0.27994 -1.08636,-0.34707 -0.13183,-0.0671 -0.32719,-0.12205 -0.43413,-0.12205 -0.10695,0 -0.24187,-0.0572 -0.29984,-0.127 -0.058,-0.0699 -0.19132,-0.127 -0.29633,-0.127 -0.10502,0 -0.23837,-0.0572 -0.29634,-0.127 -0.058,-0.0698 -0.17126,-0.127 -0.25175,-0.127 -0.0805,0 -0.32551,-0.0952 -0.54445,-0.21166 -0.21895,-0.11642 -0.44791,-0.21167 -0.5088,-0.21167 -0.0609,0 -0.24147,-0.0887 -0.40129,-0.1972 -0.34302,-0.23278 -0.64532,-0.32547 -0.71162,-0.21818 -0.0261,0.0422 -0.0833,0.0767 -0.12708,0.0767 -0.11459,0 -0.0984,-0.23364 0.0189,-0.27273 0.0542,-0.0181 -0.0506,-0.12372 -0.23283,-0.23479 -0.39682,-0.24182 -1.02394,-0.58865 -1.11368,-0.61592 -0.0354,-0.0108 -0.0551,-0.0473 -0.0438,-0.0812 0.0113,-0.0339 -0.0867,-0.11712 -0.21783,-0.18492 -0.13111,-0.0678 -0.29276,-0.18884 -0.35921,-0.26897 -0.0665,-0.0801 -0.24467,-0.19745 -0.39601,-0.26072 -0.15134,-0.0633 -0.27516,-0.17166 -0.27516,-0.24088 0,-0.11134 -0.0962,-0.16122 -0.26716,-0.13857 -0.0305,0.004 -0.15628,-0.12479 -0.27948,-0.2863 -0.12319,-0.16152 -0.25429,-0.29366 -0.29132,-0.29366 -0.037,0 -0.28025,-0.20955 -0.54049,-0.46567 -0.26383,-0.25966 -0.55007,-0.46567 -0.64703,-0.46567 -0.12976,0 -0.16874,-0.0482 -0.15369,-0.19023 0.0149,-0.14075 -0.0297,-0.19737 -0.17159,-0.21772 -0.10547,-0.0151 -0.17477,-0.055 -0.154,-0.0886 0.0208,-0.0336 -0.22593,-0.34521 -0.54821,-0.69245 -0.3223,-0.34724 -0.58637,-0.67234 -0.58684,-0.72243 -8.5e-4,-0.0501 -0.0961,-0.18056 -0.21253,-0.28992 -0.11641,-0.10937 -0.21166,-0.2447 -0.21166,-0.30073 0,-0.056 -0.0529,-0.14574 -0.11749,-0.19937 -0.0646,-0.0536 -0.23514,-0.33452 -0.37894,-0.62421 -0.42705,-0.86027 -0.65424,-1.20396 -0.79663,-1.20511 -0.0739,-8.5e-4 -0.16241,-0.0292 -0.19675,-0.0635 -0.0343,-0.0343 0.001,-0.0624 0.0787,-0.0624 0.17129,0 0.17409,-0.0373 0.0245,-0.32561 -0.19466,-0.37505 -0.47602,-1.14986 -0.47602,-1.31086 0,-0.0833 -0.0381,-0.12798 -0.0847,-0.0992 -0.0466,0.0288 -0.0847,0.0142 -0.0847,-0.0323 0,-0.0466 0.0381,-0.10822 0.0847,-0.13699 0.0466,-0.0288 0.0847,-0.0928 0.0847,-0.14237 0,-0.061 -0.037,-0.0593 -0.11482,0.005 -0.0924,0.0767 -0.15204,-0.008 -0.3053,-0.43414 -0.4538,-1.26144 -0.60911,-1.86381 -0.94422,-3.66209 -0.0434,-0.23284 -0.13294,-0.67099 -0.19899,-0.97367 -0.21059,-0.96499 -0.46151,-2.72494 -0.50904,-3.57046 -0.0661,-1.17567 -0.0648,-2.71124 0.003,-3.07048 0.0666,-0.35528 -0.0803,-0.96395 -0.3383,-1.40171 -0.18693,-0.3171 -0.24618,-0.45827 -0.60454,-1.44002 -0.12749,-0.34925 -0.31879,-0.75345 -0.42512,-0.89822 -0.12479,-0.16989 -0.17611,-0.32911 -0.14475,-0.44906 0.0328,-0.12559 -0.01,-0.24034 -0.1318,-0.35391 -0.20507,-0.19106 -0.22799,-0.29989 -0.0746,-0.35408 0.0807,-0.0285 0.072,-0.10557 -0.0366,-0.32456 -0.0784,-0.15794 -0.1584,-0.42052 -0.1779,-0.5835 -0.0425,-0.35491 -0.2243,-1.091 -0.31479,-1.27423 -0.0356,-0.0722 -0.11045,-0.35792 -0.16623,-0.635 -0.0952,-0.4729 -0.18905,-0.85482 -0.41933,-1.70671 -0.0697,-0.25787 -0.13074,-0.34307 -0.22097,-0.30845 -0.0686,0.0263 -0.12467,0.006 -0.12467,-0.0459 0,-0.0516 0.0425,-0.0937 0.0944,-0.0937 0.0566,0 0.0366,-0.0882 -0.0499,-0.22031 -0.0794,-0.12117 -0.12383,-0.29878 -0.0988,-0.39469 0.0251,-0.0959 0.002,-0.25394 -0.0507,-0.35119 -0.10247,-0.18816 -0.10518,-0.20148 -0.17424,-0.85414 -0.0246,-0.23284 -0.0713,-0.52811 -0.10363,-0.65617 -0.0391,-0.15464 -0.0256,-0.23283 0.04,-0.23283 0.0544,0 0.0819,-0.0286 0.0613,-0.0635 -0.0206,-0.0349 -0.0632,-0.5207 -0.0945,-1.0795 -0.0805,-1.43623 -0.12055,-1.93298 -0.22103,-2.74338 -0.0485,-0.39126 -0.0816,-1.06346 -0.0736,-1.49377 0.008,-0.43031 -0.0141,-0.82882 -0.0492,-0.88559 -0.0351,-0.0568 -0.017,-0.13213 0.0402,-0.16749 0.0785,-0.0485 0.0671,-0.10742 -0.0466,-0.24019 -0.0828,-0.0967 -0.18192,-0.15656 -0.22018,-0.13292 -0.0383,0.0237 -0.0696,-0.0164 -0.0696,-0.089 0,-0.0742 0.0719,-0.132 0.16434,-0.132 0.20795,0 0.29856,-0.13603 0.13294,-0.19959 -0.0767,-0.0294 -0.10393,-0.10312 -0.0704,-0.19045 0.0338,-0.0881 -0.003,-0.1847 -0.0967,-0.25314 -0.1568,-0.11464 -0.11956,-0.4286 0.0392,-0.33048 0.18374,0.11356 0.19661,-0.23881 0.0141,-0.3866 -0.21361,-0.17297 -0.23227,-0.2484 -0.0615,-0.2484 0.22099,0 0.24532,-0.18932 0.0439,-0.34128 -0.19211,-0.14491 -0.19336,-0.15449 -0.0488,-0.37505 0.11038,-0.16847 0.12449,-0.25504 0.0551,-0.33858 -0.11991,-0.14448 -0.0401,-3.09288 0.12849,-4.74476 0.22957,-2.24975 0.31542,-2.921 0.37361,-2.921 0.0321,0 0.0428,-0.10639 0.0237,-0.23642 -0.0191,-0.13003 0.008,-0.44436 0.0607,-0.6985 0.0525,-0.25415 0.11006,-0.55733 0.12792,-0.67375 0.0179,-0.11641 0.0883,-0.45931 0.15646,-0.762 0.0682,-0.30268 0.2085,-1.10278 0.31179,-1.778 0.19319,-1.26283 0.43363,-2.19516 0.61583,-2.388 0.057,-0.0603 0.11002,-0.20491 0.11785,-0.32133 0.0258,-0.38373 0.58394,-2.22487 0.8037,-2.65113 0.0435,-0.0844 0.0598,-0.21775 0.0362,-0.29633 -0.0496,-0.16522 0.096,-0.38264 0.31003,-0.46296 0.0815,-0.0306 0.14817,-0.10749 0.14817,-0.1709 0,-0.0634 0.0951,-0.30275 0.21131,-0.53183 0.11622,-0.22908 0.21147,-0.48319 0.21167,-0.56468 0,-0.0815 0.0575,-0.14817 0.12735,-0.14817 0.0699,0 0.127,-0.0321 0.127,-0.0713 0,-0.11132 0.61313,-0.26741 1.05042,-0.26741 0.24164,0 0.48512,0.0599 0.62518,0.15369 0.50362,0.33739 0.74777,0.48904 0.97024,0.60267 0.12806,0.0654 0.23283,0.17058 0.23283,0.23371 0,0.0631 0.0952,0.151 0.21167,0.19527 0.11641,0.0443 0.21166,0.11951 0.21166,0.16723 0,0.0477 0.0513,0.0868 0.11388,0.0868 0.0626,0 0.18496,0.0785 0.27184,0.17454 0.0881,0.0974 0.22397,0.15728 0.30728,0.1355 0.0987,-0.0258 0.25291,0.0801 0.4548,0.31228 0.16803,0.19325 0.55001,0.60447 0.84885,0.91384 0.29884,0.30938 0.54335,0.60466 0.54335,0.65617 0,0.0515 0.0693,0.0937 0.15395,0.0937 0.0847,0 0.30375,0.13574 0.48684,0.30166 0.18814,0.17051 0.27087,0.29015 0.19027,0.27517 -0.0785,-0.0146 -0.15465,0.011 -0.16934,0.0567 -0.0147,0.0458 0.11917,0.10695 0.29749,0.13593 0.17832,0.029 0.40692,0.13614 0.508,0.23813 0.10108,0.10199 0.25999,0.24324 0.35313,0.3139 0.11864,0.09 0.13765,0.14163 0.0635,0.17252 -0.17599,0.0733 -0.11853,0.21473 0.0637,0.15688 0.12348,-0.0392 0.24429,0.0233 0.4445,0.22992 0.15121,0.15606 0.37971,0.35004 0.50777,0.43106 0.12805,0.081 0.23283,0.2036 0.23283,0.27239 0,0.0688 0.0571,0.12504 0.12691,0.12504 0.20912,0 0.83077,0.65589 0.7705,0.81294 -0.039,0.10171 -0.0169,0.12351 0.0856,0.0842 0.17441,-0.0669 0.55437,0.32424 0.48657,0.50092 -0.0337,0.0878 0.008,0.12594 0.13633,0.12594 0.26525,0 3.82587,3.59275 3.75183,3.78569 -0.039,0.10159 -0.0175,0.12471 0.0809,0.087 0.0938,-0.036 0.32034,0.1544 0.75553,0.6352 0.34183,0.37765 0.78343,0.86485 0.98134,1.08267 0.19791,0.21783 0.35983,0.43506 0.35983,0.48274 0,0.0477 0.0572,0.13411 0.127,0.19208 0.0699,0.058 0.12806,0.16741 0.12936,0.2432 0.001,0.0758 0.11894,0.2521 0.26146,0.3918 0.14251,0.1397 0.30943,0.37418 0.37095,0.52107 0.0615,0.14688 0.33985,0.50447 0.61854,0.79463 0.49271,0.51298 0.51062,0.523 0.64789,0.36269 0.0896,-0.10469 0.15157,-0.35688 0.16967,-0.69088 0.0157,-0.2893 0.0638,-0.57268 0.10683,-0.62975 0.0431,-0.0571 0.0853,-0.23711 0.0937,-0.40009 0.0113,-0.21792 0.0937,-0.36944 0.31132,-0.57264 0.32956,-0.3077 0.35358,-0.35869 0.16894,-0.35869 -0.0699,0 -0.127,-0.0334 -0.127,-0.0743 0,-0.0409 0.0572,-0.12172 0.127,-0.17969 0.0699,-0.058 0.127,-0.20838 0.127,-0.33423 0,-0.4779 0.34628,-2.11405 0.62809,-2.96777 0.16141,-0.48895 0.46385,-1.55575 0.67208,-2.37067 0.20822,-0.81492 0.45333,-1.69122 0.54468,-1.94733 0.0914,-0.25612 0.21522,-0.69427 0.27526,-0.97367 0.0601,-0.2794 0.14657,-0.5826 0.19227,-0.67378 0.0457,-0.0912 0.0881,-0.22453 0.0942,-0.29633 0.0313,-0.36878 1.21781,-4.03063 1.48259,-4.57556 0.034,-0.0699 0.11454,-0.30797 0.17911,-0.52916 0.0646,-0.2212 0.15733,-0.40217 0.20616,-0.40217 0.0488,0 0.0929,-0.15521 0.0978,-0.34491 0.005,-0.1897 0.052,-0.38782 0.1044,-0.44026 0.0524,-0.0524 0.0954,-0.15928 0.0954,-0.2374 0,-0.0781 0.0547,-0.18743 0.12155,-0.24292 0.0669,-0.0555 0.14746,-0.22207 0.17912,-0.37019 0.0316,-0.14813 0.0833,-0.30742 0.11478,-0.35399 0.0315,-0.0466 0.10797,-0.23706 0.16998,-0.42333 0.13915,-0.41797 0.39663,-1.02622 0.56106,-1.3254 0.0679,-0.1236 0.12629,-0.29505 0.1297,-0.381 0.003,-0.0859 0.0792,-0.27057 0.1684,-0.41027 0.0892,-0.1397 0.18478,-0.31115 0.21236,-0.381 0.0869,-0.22008 0.20168,-0.46109 0.28223,-0.59266 0.0428,-0.0699 0.2949,-0.57221 0.5603,-1.11637 0.26541,-0.54415 0.53945,-1.0112 0.60899,-1.03787 0.0696,-0.0267 0.10481,-0.10488 0.0783,-0.17387 -0.0553,-0.14408 0.33864,-0.98263 0.50919,-1.08393 0.0627,-0.0372 0.11401,-0.14202 0.11401,-0.23284 0,-0.0908 0.0296,-0.16512 0.0658,-0.16512 0.0362,0 0.17217,-0.24412 0.30215,-0.54249 0.12998,-0.29835 0.30991,-0.60906 0.39984,-0.69045 0.0899,-0.0814 0.16351,-0.17882 0.16351,-0.21652 0,-0.0377 0.11568,-0.231825 0.25707,-0.431385 0.14139,-0.19956 0.34713,-0.49618 0.4572,-0.65916 0.27715,-0.4104 1.06628,-1.1556 1.29666,-1.22449 0.10481,-0.0313 0.23171,-0.13383 0.28198,-0.22775 0.0503,-0.0939 0.21215,-0.22504 0.35974,-0.29137 0.14759,-0.0663 0.37161,-0.20277 0.49781,-0.30318 0.40121,-0.31921 1.29122,-0.14418 1.83289,0.36046 0.10454,0.0974 0.24516,0.15594 0.31249,0.1301 0.21022,-0.0807 0.71549,0.27685 0.71549,0.50626 0,0.12127 0.0496,0.2033 0.12293,0.2033 0.17461,0 0.72374,0.58802 0.72374,0.77499 0,0.086 0.0493,0.15634 0.1096,0.15634 0.12188,0 0.73707,0.76736 0.73707,0.9194 0,0.05312 0.0303,0.0966 0.0673,0.0966 0.037,0 0.30973,0.32742 0.60612,0.72759 0.29638,0.40017 0.60989,0.80975 0.69666,0.91016 0.1694,0.19602 1.16997,1.71918 1.16997,1.78103 0,0.0443 0.9289,1.57668 1.39195,2.29622 0.17981,0.2794 0.35892,0.60325 0.39803,0.71967 0.15188,0.45207 0.17946,0.508 0.25058,0.508 0.0404,0 0.20101,0.25718 0.35687,0.5715 0.15586,0.31432 0.44175,0.84577 0.63532,1.18099 0.20013,0.3466 0.33019,0.66614 0.30153,0.74083 -0.0327,0.0851 -0.003,0.13135 0.0857,0.13135 0.0748,0 0.13606,0.0637 0.13606,0.1415 0,0.0778 0.065,0.2133 0.1444,0.30107 0.11683,0.12908 0.12524,0.19025 0.0441,0.32022 -0.0635,0.10161 -0.0699,0.17951 -0.0174,0.21193 0.0456,0.0282 0.0829,0.003 0.0829,-0.0566 0,-0.0732 0.0462,-0.0616 0.14381,0.036 0.0846,0.0846 0.1404,0.26457 0.13551,0.43689 -0.005,0.19403 0.0336,0.30179 0.11559,0.31882 0.14736,0.0306 0.64136,1.15207 0.59291,1.34599 -0.0185,0.0742 0.0374,0.1793 0.12424,0.23356 0.0869,0.0542 0.15794,0.17043 0.15794,0.25819 0,0.0877 0.0571,0.18147 0.127,0.20829 0.0699,0.0268 0.127,0.14052 0.127,0.2527 0,0.11217 0.0572,0.25139 0.127,0.30935 0.0698,0.058 0.127,0.16931 0.127,0.24743 0,0.0781 0.0343,0.17823 0.0762,0.22247 0.16725,0.17655 0.60148,1.34298 0.55476,1.49019 -0.032,0.10068 -0.008,0.15657 0.0671,0.15657 0.15479,0 0.51095,0.82593 0.46341,1.07462 -0.0209,0.10907 0.004,0.19567 0.0567,0.19602 0.12461,8.5e-4 0.30576,0.4006 0.30576,0.67471 0,0.12006 0.0517,0.29343 0.11495,0.38528 0.0632,0.0919 0.16176,0.31941 0.21897,0.50568 0.0572,0.18626 0.15788,0.45872 0.22371,0.60545 0.0658,0.14674 0.1197,0.30393 0.1197,0.3493 0,0.0454 0.0965,0.3008 0.21454,0.56763 0.12565,0.28412 0.19263,0.55415 0.16166,0.65175 -0.0332,0.10475 -0.002,0.20376 0.0838,0.26659 0.14786,0.10812 0.82558,1.96047 0.74628,2.03976 -0.0265,0.0265 0.0102,0.11503 0.0816,0.19683 0.11713,0.13426 0.39624,0.87274 0.43838,1.15986 0.009,0.0631 0.0557,0.16621 0.10315,0.22913 0.0475,0.0629 0.24797,0.60966 0.44558,1.21504 0.1976,0.60536 0.40058,1.18438 0.45108,1.28672 0.0505,0.10233 0.096,0.30183 0.10104,0.44335 0.005,0.14143 0.0569,0.2755 0.11508,0.29796 0.0582,0.0224 0.10583,0.13142 0.10583,0.24217 0,0.11071 0.061,0.32363 0.13561,0.47315 0.0746,0.14951 0.11625,0.34586 0.0926,0.43634 -0.0237,0.0905 -0.008,0.1645 0.0358,0.1645 0.0969,0 0.2324,0.34353 0.29668,0.75239 0.0264,0.16827 0.0771,0.34405 0.11247,0.39061 0.0354,0.0466 0.0899,0.17994 0.12104,0.29634 0.0312,0.11641 0.11467,0.42121 0.18557,0.67733 0.13436,0.48537 0.49286,2.16767 0.62886,2.95107 0.0433,0.24937 0.1213,0.5047 0.17336,0.56744 0.0521,0.0627 0.0693,0.19395 0.0383,0.29159 -0.0343,0.10804 -0.001,0.26196 0.0848,0.39305 0.0896,0.13668 0.12159,0.29363 0.0876,0.42912 -0.0332,0.13221 -0.008,0.26635 0.0662,0.35186 0.0659,0.076 0.12199,0.19536 0.12458,0.26521 0.01,0.2581 0.10107,0.74734 0.17722,0.94764 0.0431,0.11352 0.10553,0.42298 0.13861,0.68773 0.0474,0.37907 0.0356,0.48186 -0.0555,0.48401 -0.0823,0.002 -0.073,0.035 0.0323,0.11495 0.18066,0.13714 0.28747,0.60077 0.15699,0.68142 -0.13508,0.0835 -0.11429,0.21694 0.0338,0.21694 0.0847,0 0.127,0.0847 0.127,0.25398 0,0.16937 -0.0423,0.254 -0.127,0.254 -0.16895,0 -0.16184,0.14143 0.012,0.2387 0.0959,0.0537 0.12539,0.14891 0.0951,0.30721 -0.0263,0.13758 -0.003,0.24511 0.0583,0.26861 0.12827,0.0492 0.10952,0.39206 -0.0239,0.43653 -0.13944,0.0465 -0.12403,0.27295 0.0186,0.27295 0.0722,0 0.13152,0.11806 0.15334,0.30498 0.0289,0.24771 0.003,0.31824 -0.13891,0.37563 -0.13072,0.0529 -0.1396,0.072 -0.0354,0.076 0.15983,0.006 0.2967,0.28343 0.16206,0.3283 -0.11705,0.039 -0.11631,0.26975 8.5e-4,0.26975 0.0497,0 0.0679,0.0708 0.0404,0.15736 -0.0288,0.0909 0.005,0.20261 0.079,0.26438 0.0709,0.0588 0.12891,0.15123 0.12891,0.20528 0,0.0541 0.13191,0.30306 0.29311,0.55328 0.16121,0.25023 0.27223,0.48875 0.24671,0.53003 -0.0255,0.0413 -0.0103,0.12101 0.0339,0.1772 0.0441,0.0562 0.1053,0.20688 0.1359,0.33494 0.0306,0.12807 0.093,0.23285 0.13868,0.23285 0.0457,0 0.0831,0.0526 0.0831,0.11695 0,0.0643 0.13058,0.21655 0.29018,0.33828 0.28113,0.21441 0.3723,0.45016 0.49522,1.28044 0.0172,0.11609 0.0773,0.16014 0.19134,0.14009 0.0914,-0.0161 0.13801,-8.5e-4 0.10349,0.0345 -0.0345,0.0351 -0.0155,0.12104 0.0423,0.19106 0.0578,0.07 0.10664,0.18782 0.10851,0.26178 0.005,0.21276 0.31377,0.76949 0.42619,0.76949 0.056,0 0.0966,0.065 0.0901,0.1445 -0.008,0.0943 0.25392,0.32079 0.75269,0.65178 0.75655,0.50202 1.10845,0.91557 1.00608,1.18232 -0.0294,0.0766 0.0489,0.1507 0.22343,0.21154 0.17958,0.0626 0.25316,0.13409 0.22189,0.21558 -0.0724,0.18873 0.16628,0.34997 0.32415,0.21895 0.1055,-0.0876 0.127,-0.0775 0.127,0.0595 0,0.24561 0.3806,0.56136 0.67665,0.56136 0.23781,0 0.3803,0.13775 0.14885,0.14393 -0.0582,0.002 -0.0117,0.0811 0.10333,0.17684 0.12466,0.10374 0.22158,0.13679 0.23989,0.0819 0.0169,-0.0507 0.10842,-0.0922 0.20337,-0.0922 0.14508,0 0.15555,0.0206 0.0656,0.12906 -0.0589,0.071 -0.0922,0.14009 -0.0739,0.15358 0.0183,0.0135 0.14399,0.10848 0.27937,0.2111 0.14069,0.10665 0.31029,0.16622 0.39588,0.13905 0.0848,-0.0269 0.18003,0.006 0.21953,0.075 0.0384,0.0674 0.16504,0.13575 0.28145,0.15187 0.11642,0.0161 0.21167,0.0849 0.21167,0.15284 0,0.0701 0.11318,0.14668 0.26139,0.17698 0.14377,0.0294 0.31455,0.0863 0.37951,0.12647 0.065,0.0401 0.17594,0.0801 0.24661,0.0888 0.0707,0.009 0.35709,0.0932 0.63649,0.18782 0.54023,0.1829 1.09652,0.2601 1.1913,0.1653 0.0316,-0.0316 0.11933,0.0116 0.19504,0.0958 0.0757,0.0843 0.30911,0.20126 0.51866,0.25996 0.20955,0.0587 0.48213,0.17863 0.60574,0.2665 0.25922,0.18433 0.38229,0.20135 0.42956,0.0595 0.0242,-0.0725 0.1374,-0.0577 0.40923,0.0534 0.44603,0.18245 0.96424,0.26163 0.88628,0.1355 -0.0342,-0.0554 0.0421,-0.0671 0.21355,-0.0328 0.16747,0.0335 0.28984,0.0161 0.32874,-0.0469 0.0433,-0.0701 0.12521,-0.0762 0.27257,-0.0202 0.25067,0.0953 1.1177,0.0352 1.15872,-0.0803 0.0456,-0.12844 0.27128,-0.33188 0.3682,-0.33188 0.0487,0 0.0702,0.0699 0.0479,0.15539 -0.0326,0.12487 -0.002,0.14788 0.15847,0.11735 0.10951,-0.0209 0.17825,-0.0718 0.15276,-0.11305 -0.0255,-0.0412 0.10831,-0.075 0.29732,-0.075 0.18901,0 0.34367,-0.0388 0.34367,-0.0863 0,-0.0503 0.0904,-0.0636 0.21685,-0.0319 0.1713,0.043 0.22611,0.019 0.26095,-0.11422 0.0377,-0.1442 0.0969,-0.16266 0.40872,-0.12756 0.2934,0.0331 0.47474,-0.0131 0.92848,-0.2365 0.35779,-0.17615 0.52605,-0.30097 0.46039,-0.34155 -0.0572,-0.0353 0.0263,-0.0576 0.18641,-0.0499 0.23874,0.0116 0.2945,-0.0185 0.31616,-0.17062 0.0202,-0.14188 0.0815,-0.18313 0.26475,-0.17791 0.33293,0.009 0.9456,-0.4257 1.14908,-0.81612 0.0936,-0.17958 0.24598,-0.35496 0.33867,-0.38982 0.0927,-0.0348 0.26154,-0.19148 0.37522,-0.34809 0.11399,-0.15702 0.14247,-0.23259 0.0635,-0.16854 -0.14748,0.11968 -0.14795,0.11896 -0.14209,-0.22201 8.4e-4,-0.0349 0.0863,-0.065 0.1905,-0.0669 0.1316,-0.002 0.18173,-0.048 0.16426,-0.14932 -0.0138,-0.0802 0.0338,-0.23007 0.10583,-0.33291 0.072,-0.10284 0.13098,-0.14805 0.13098,-0.10042 0,0.0476 -0.0286,0.12357 -0.0635,0.16883 -0.0349,0.0452 0.003,0.0105 0.0847,-0.0771 0.15937,-0.17139 0.2026,-0.35355 0.0635,-0.26758 -0.13062,0.0807 -0.10014,-0.1781 0.0341,-0.28951 0.0912,-0.0757 0.12721,-0.0732 0.15522,0.0108 0.02,0.0602 0.0365,-0.017 0.0365,-0.17151 0,-0.19553 0.0686,-0.34454 0.22577,-0.49028 0.23268,-0.21575 0.30156,-0.34398 0.12673,-0.23594 -0.0675,0.0417 -0.081,0.0142 -0.0423,-0.0866 0.0312,-0.0813 0.0573,-0.17328 0.058,-0.20437 8.5e-4,-0.0311 0.0413,8.5e-4 0.0902,0.0704 0.07,0.1 0.0778,0.0873 0.0366,-0.0596 -0.0311,-0.11096 0.004,-0.27294 0.0871,-0.39946 0.0767,-0.11704 0.12328,-0.26132 0.10352,-0.3206 -0.0459,-0.13763 0.16079,-0.34863 0.27335,-0.27906 0.0469,0.029 0.0853,-0.009 0.0853,-0.0843 0,-0.0754 -0.0381,-0.11345 -0.0847,-0.0847 -0.0466,0.0288 -0.0847,0.012 -0.0847,-0.0373 0,-0.0493 0.0667,-0.0927 0.14816,-0.0963 0.0815,-0.004 0.10608,-0.0241 0.0546,-0.0453 -0.1101,-0.0454 -0.0506,-0.45603 0.0661,-0.45603 0.0439,0 0.0526,0.044 0.0194,0.0978 -0.0374,0.0606 -0.0232,0.0748 0.0373,0.0373 0.0538,-0.0332 0.0977,-0.11755 0.0977,-0.18741 0,-0.0698 -0.0381,-0.10346 -0.0847,-0.0747 -0.14454,0.0893 -0.0929,-0.20346 0.0635,-0.35991 0.0949,-0.095 0.15362,-0.2972 0.16335,-0.56281 0.008,-0.22802 0.06,-0.4423 0.11488,-0.47618 0.0761,-0.047 0.0762,-0.0761 8.4e-4,-0.12294 -0.0726,-0.0449 -0.0633,-0.10099 0.0347,-0.20927 0.0736,-0.0814 0.15154,-0.31572 0.1731,-0.52076 0.0216,-0.20505 0.0803,-0.50615 0.13063,-0.66914 0.0503,-0.16298 0.11069,-0.48683 0.13423,-0.71968 0.0235,-0.23283 0.10234,-0.64182 0.17512,-0.90889 0.1114,-0.4088 0.11486,-0.52772 0.0219,-0.75219 -0.0956,-0.23088 -0.0922,-0.28 0.0259,-0.36635 0.15365,-0.11235 0.29218,-0.55491 0.1737,-0.55491 -0.0423,0 -0.12263,0.0457 -0.17851,0.1016 -0.079,0.079 -0.1016,0.0414 -0.1016,-0.16933 0,-0.21449 0.0353,-0.27094 0.16933,-0.27094 0.0931,0 0.16933,-0.0381 0.16933,-0.0847 0,-0.0466 -0.0762,-0.0847 -0.16933,-0.0847 -0.0931,0 -0.16933,-0.056 -0.16933,-0.12434 0,-0.0706 0.0502,-0.10507 0.11607,-0.0798 0.0638,0.0245 0.13885,-0.0148 0.16668,-0.0873 0.0352,-0.0919 2e-5,-0.13186 -0.11608,-0.13186 -0.2065,0 -0.22003,-0.14298 -0.0185,-0.19564 0.14112,-0.0369 0.14112,-0.0392 0,-0.0485 -0.20745,-0.0137 -0.18491,-0.1561 0.0358,-0.22614 l 0.18397,-0.0584 -0.19541,-0.10458 c -0.13175,-0.0705 -0.16297,-0.12462 -0.0959,-0.1661 0.0565,-0.0349 0.0759,-0.1362 0.0447,-0.23431 -0.0334,-0.10535 -0.01,-0.20117 0.0601,-0.24557 0.0821,-0.052 0.0852,-0.0732 0.0107,-0.0741 -0.0747,-9.4e-4 -0.0894,-0.1091 -0.052,-0.38229 0.0339,-0.24728 0.0203,-0.381 -0.0386,-0.381 -0.0565,0 -0.0727,-0.11189 -0.0428,-0.29634 0.0287,-0.17703 0.0132,-0.29633 -0.0386,-0.29633 -0.13783,0 -0.20639,-0.27588 -0.0869,-0.34971 0.0827,-0.0511 0.07,-0.0949 -0.0535,-0.18521 -0.15024,-0.10983 -0.15147,-0.12406 -0.0172,-0.19919 0.11626,-0.0651 0.13346,-0.15027 0.0879,-0.43539 -0.0372,-0.2328 -0.10012,-0.35449 -0.18323,-0.35449 -0.0954,0 -0.10365,-0.0276 -0.0335,-0.11207 0.0679,-0.0819 0.0662,-0.13892 -0.007,-0.21166 -0.0679,-0.0679 -0.072,-0.12712 -0.0129,-0.1862 0.10349,-0.1035 0.0473,-0.59068 -0.0681,-0.59068 -0.0444,0 -0.0567,-0.0758 -0.0273,-0.16845 0.0305,-0.096 -0.003,-0.24838 -0.0767,-0.35423 -0.0721,-0.10299 -0.10922,-0.26909 -0.0832,-0.37265 0.0258,-0.10277 0.006,-0.21234 -0.0446,-0.24342 -0.0503,-0.0311 -0.0915,-0.19909 -0.0915,-0.37332 0,-0.1742 -0.0361,-0.35292 -0.0803,-0.39716 -0.0442,-0.0442 -0.0994,-0.2748 -0.12262,-0.51241 -0.0588,-0.60086 -0.22249,-1.23613 -0.35949,-1.39528 -0.0634,-0.0736 -0.0956,-0.15349 -0.0717,-0.17744 0.0659,-0.0659 -0.22369,-0.93753 -0.36794,-1.10765 -0.0726,-0.0856 -0.12069,-0.29257 -0.11308,-0.48684 0.01,-0.24905 -0.02,-0.33787 -0.11315,-0.33787 -0.0695,0 -0.1313,-0.0667 -0.1373,-0.14816 -0.006,-0.0815 -0.0173,-0.25544 -0.0252,-0.38658 -0.0128,-0.21419 -0.11577,-0.34305 -0.33588,-0.42042 -0.0416,-0.0146 -0.0339,-0.1046 0.0171,-0.19995 0.0689,-0.12877 0.0658,-0.21485 -0.012,-0.33462 -0.0576,-0.0887 -0.17537,-0.37081 -0.26162,-0.62693 -0.0862,-0.25611 -0.22961,-0.58745 -0.3186,-0.7363 -0.089,-0.14884 -0.23201,-0.51079 -0.31784,-0.80433 -0.20775,-0.71053 -0.36344,-1.10242 -0.49191,-1.23824 -0.0582,-0.0615 -0.10583,-0.16195 -0.10583,-0.22315 0,-0.0612 -0.0569,-0.22041 -0.12648,-0.3538 -0.0696,-0.13338 -0.12793,-0.29966 -0.12969,-0.36951 -0.002,-0.0699 -0.0592,-0.20096 -0.12753,-0.29135 -0.0684,-0.0904 -0.1243,-0.2313 -0.1243,-0.31314 0,-0.0818 -0.0952,-0.25157 -0.21167,-0.37718 -0.11642,-0.12561 -0.21167,-0.31489 -0.21167,-0.42064 0,-0.10573 -0.0439,-0.20688 -0.0976,-0.22477 -0.0537,-0.0179 -0.10371,-0.10679 -0.1112,-0.19756 -0.0132,-0.16046 -0.23542,-0.71299 -0.38979,-0.96936 -0.042,-0.0699 -0.19608,-0.37466 -0.34229,-0.67733 -0.14621,-0.30269 -0.28962,-0.56939 -0.31871,-0.59267 -0.0291,-0.0233 -0.19797,-0.32808 -0.37532,-0.67732 -0.17736,-0.34925 -0.39584,-0.74931 -0.48553,-0.889 -0.0897,-0.1397 -0.19792,-0.3302 -0.24053,-0.42334 -0.0426,-0.0931 -0.1765,-0.3139 -0.29758,-0.49059 -0.12108,-0.17668 -0.22267,-0.34814 -0.22577,-0.381 -0.003,-0.0329 -0.13698,-0.23119 -0.29753,-0.44074 -0.16055,-0.20955 -0.34789,-0.4953 -0.41631,-0.635 -0.16918,-0.34547 -0.3382,-0.55034 -0.45403,-0.55034 -0.0531,0 -0.0965,-0.0538 -0.0965,-0.1196 0,-0.10936 -0.46237,-0.8823 -0.67335,-1.12565 -0.0488,-0.0563 -0.0887,-0.13511 -0.0887,-0.17526 0,-0.0401 -0.1143,-0.201 -0.254,-0.35747 -0.1397,-0.15648 -0.254,-0.32959 -0.254,-0.38468 0,-0.0551 -0.19382,-0.36257 -0.43072,-0.68326 -0.2369,-0.32068 -0.45597,-0.62209 -0.48683,-0.66977 -0.0309,-0.0477 -0.16089,-0.15334 -0.28895,-0.23479 -0.13135,-0.0835 -0.23284,-0.2245 -0.23284,-0.3234 0,-0.10377 -0.0687,-0.19328 -0.16838,-0.21934 -0.0926,-0.0242 -0.15018,-0.0735 -0.12795,-0.10945 0.0222,-0.036 -0.0449,-0.0888 -0.14911,-0.11736 -0.13819,-0.0379 -0.1601,-0.071 -0.0808,-0.12225 0.15431,-0.0998 0.0329,-0.35307 -0.16916,-0.35307 -0.11563,0 -0.1539,-0.0402 -0.12066,-0.12683 0.0299,-0.0779 -0.0336,-0.1807 -0.16453,-0.26652 -0.11725,-0.0768 -0.19487,-0.18744 -0.17247,-0.24582 0.0224,-0.0584 -0.0369,-0.12642 -0.13167,-0.15122 -0.0948,-0.0248 -0.15704,-0.0911 -0.13829,-0.1474 0.035,-0.1051 -0.16675,-0.38368 -0.50309,-0.69463 -0.10478,-0.0969 -0.1905,-0.22638 -0.1905,-0.28784 0,-0.0615 -0.0381,-0.11174 -0.0847,-0.11174 -0.0466,0 -0.0847,-0.0381 -0.0847,-0.0847 0,-0.0466 -0.0667,-0.15704 -0.14816,-0.24546 -0.40641,-0.44103 -0.61384,-0.69472 -0.61394,-0.75085 -6e-5,-0.0341 -0.0953,-0.17274 -0.21166,-0.30804 -0.11636,-0.1353 -0.21157,-0.28876 -0.21157,-0.34102 0,-0.0523 -0.0762,-0.16025 -0.16933,-0.24 -0.0931,-0.0797 -0.16934,-0.20057 -0.16934,-0.2685 0,-0.0679 -0.12964,-0.22241 -0.2881,-0.34327 -0.15845,-0.12086 -0.31158,-0.3133 -0.34027,-0.42764 -0.0287,-0.11434 -0.0878,-0.2079 -0.13126,-0.2079 -0.0435,0 -0.14152,-0.13155 -0.21781,-0.29233 -0.0763,-0.16078 -0.23287,-0.39392 -0.34794,-0.51808 -0.11508,-0.12417 -0.30154,-0.37199 -0.41435,-0.5507 -0.11282,-0.17872 -0.28189,-0.36602 -0.3757,-0.41623 -0.0938,-0.0502 -0.17057,-0.13341 -0.17057,-0.18489 0,-0.1035 -0.44075,-0.64015 -0.99483,-1.21128 -0.19791,-0.204 -0.35983,-0.41161 -0.35983,-0.46137 0,-0.0497 -0.0381,-0.0905 -0.0847,-0.0905 -0.0466,0 -0.0847,-0.0552 -0.0847,-0.1227 0,-0.0675 -0.13335,-0.2244 -0.29633,-0.34872 -0.16298,-0.12425 -0.29633,-0.28025 -0.29633,-0.34661 0,-0.068 -0.0647,-0.1098 -0.14817,-0.0958 -0.10095,0.0169 -0.15726,-0.0395 -0.17671,-0.17699 -0.0158,-0.11147 -0.28117,-0.45269 -0.59266,-0.762 -0.31027,-0.30807 -0.61324,-0.65567 -0.67328,-0.77243 -0.06,-0.11678 -0.24046,-0.30228 -0.40094,-0.41225 -0.16049,-0.10996 -0.27372,-0.22916 -0.25163,-0.2649 0.0221,-0.0357 -0.0356,-0.0848 -0.12823,-0.109 -0.0941,-0.0246 -0.16838,-0.11555 -0.16838,-0.20602 0,-0.16718 -0.27878,-0.45762 -0.53284,-0.5551 -0.0795,-0.0305 -0.1445,-0.0975 -0.1445,-0.14882 0,-0.12734 -0.22128,-0.33977 -0.28625,-0.2748 -0.0288,0.0288 -0.0524,-0.007 -0.0524,-0.0798 0,-0.20343 -0.46851,-0.65806 -0.67815,-0.65806 -0.15705,0 -0.1784,-0.0338 -0.13375,-0.21167 0.0292,-0.11642 0.0183,-0.21167 -0.0242,-0.21167 -0.0425,0 -0.1976,-0.11234 -0.3446,-0.24966 -0.14699,-0.13731 -0.3374,-0.27193 -0.42313,-0.29914 -0.0858,-0.0272 -0.17678,-0.12936 -0.20231,-0.227 -0.0297,-0.11366 -0.0916,-0.16018 -0.17209,-0.1293 -0.0754,0.0289 -0.17809,-0.0318 -0.25685,-0.15201 -0.0984,-0.15012 -0.10526,-0.20952 -0.0276,-0.2373 0.057,-0.0204 0.0846,-0.0533 0.0613,-0.073 -0.0233,-0.0198 -0.26019,-0.20015 -0.52645,-0.40078 -0.26625,-0.20065 -0.4758,-0.40874 -0.46566,-0.46244 0.0101,-0.0537 -0.0886,-0.10993 -0.2194,-0.12492 -0.1308,-0.015 -0.26103,-0.0912 -0.28938,-0.16933 -0.0878,-0.24189 -0.70962,-0.9464 -0.83533,-0.9464 -0.0655,0 -0.11912,-0.0546 -0.11912,-0.12129 0,-0.0667 -0.0754,-0.14524 -0.16761,-0.1745 -0.0922,-0.0293 -0.15886,-0.0971 -0.14817,-0.15077 0.0107,-0.0537 -0.0663,-0.13658 -0.17105,-0.18425 -0.10478,-0.0477 -0.1905,-0.11955 -0.1905,-0.15973 0,-0.10099 -0.55653,-0.64879 -0.65913,-0.64879 -0.0459,0 -0.14705,-0.0971 -0.22484,-0.21588 -0.1059,-0.16162 -0.18595,-0.20176 -0.31847,-0.1597 -0.14901,0.0473 -0.16961,0.0279 -0.13021,-0.12278 0.0292,-0.11155 0.007,-0.17898 -0.0588,-0.17898 -0.0581,0 -0.28711,-0.17145 -0.50895,-0.381 -0.22185,-0.20955 -0.43746,-0.381 -0.47914,-0.381 -0.0417,0 -0.0758,-0.0403 -0.0758,-0.0897 0,-0.0493 0.044,-0.0625 0.0977,-0.0293 0.061,0.0377 0.0747,0.0232 0.0365,-0.0387 -0.0337,-0.0545 -0.0909,-0.0808 -0.12722,-0.0584 -0.0363,0.0224 -0.1712,-0.0913 -0.29985,-0.25262 -0.12865,-0.16136 -0.28684,-0.29338 -0.35154,-0.29338 -0.0647,0 -0.12238,-0.0381 -0.12821,-0.0847 -0.006,-0.0466 -0.0153,-0.12086 -0.0212,-0.1651 -0.006,-0.0442 -0.0582,-0.12806 -0.11642,-0.18627 -0.0847,-0.0847 -0.10583,-0.0761 -0.10583,0.0431 0,0.0841 -0.0394,0.12458 -0.0905,0.093 -0.0497,-0.0307 -0.0707,-0.10726 -0.0466,-0.17002 0.0282,-0.0734 4e-5,-0.0973 -0.0789,-0.067 -0.0742,0.0285 -0.12269,-0.004 -0.12269,-0.0824 0,-0.072 -0.12694,-0.17138 -0.2861,-0.2239 -0.15735,-0.0519 -0.3568,-0.17256 -0.44322,-0.26805 l -0.157098,-0.17362 0.268388,0.15405 c 0.14764,0.0847 0.29537,0.12712 0.32829,0.0942 0.0771,-0.0771 -0.12126,-0.31795 -0.26191,-0.31795 -0.0592,0 -0.13018,-0.0589 -0.15782,-0.13097 -0.0276,-0.072 -0.11745,-0.11966 -0.199538,-0.10584 -0.0994,0.0167 -0.14942,-0.0292 -0.14966,-0.13726 0,-0.0893 -0.0478,-0.17821 -0.10583,-0.19755 -0.058,-0.0193 -0.10548,0.008 -0.10548,0.0616 0,0.0532 -0.0391,0.0725 -0.0869,0.043 -0.0478,-0.0295 -0.0764,-0.11752 -0.0635,-0.19549 0.0132,-0.08 -0.0247,-0.1319 -0.087,-0.1191 -0.14537,0.0299 -0.38077,-0.2093 -0.31336,-0.31837 0.029,-0.0469 -0.009,-0.0853 -0.0843,-0.0853 -0.0755,0 -0.11194,-0.0405 -0.0811,-0.0904 0.0307,-0.0497 -0.0215,-0.11061 -0.11614,-0.13534 -0.10391,-0.0272 -0.15397,-0.092 -0.12646,-0.16364 0.025,-0.0653 0.005,-0.11866 -0.0444,-0.11866 -0.0494,0 -0.48895,-0.40005 -0.97673,-0.889 -0.48776,-0.48895 -0.92764,-0.889 -0.9775,-0.889 -0.0499,0 -0.0907,-0.0416 -0.0907,-0.0924 0,-0.0508 -0.52802,-0.63186 -1.17339,-1.29116 -1.08562,-1.10909 -1.79899,-1.86916 -2.42748,-2.58639 -0.33755,-0.3852 -0.42887,-0.47735 -0.65317,-0.65902 -0.10503,-0.0851 -0.24469,-0.25881 -0.31035,-0.3861 -0.0657,-0.12729 -0.17999,-0.25066 -0.25406,-0.27418 -0.0741,-0.0235 -0.18471,-0.15581 -0.24589,-0.29401 -0.0612,-0.1382 -0.29927,-0.44031 -0.52911,-0.67136 -0.22984,-0.23104 -0.41788,-0.46132 -0.41788,-0.51172 0,-0.0504 -0.0594,-0.0916 -0.132,-0.0916 -0.0726,0 -0.10686,-0.0407 -0.0762,-0.0904 0.0307,-0.0497 -0.0237,-0.11118 -0.12105,-0.13663 -0.0973,-0.0254 -0.15624,-0.0797 -0.13099,-0.12054 0.0606,-0.0981 -0.22997,-0.49307 -0.36531,-0.49647 -0.0582,-0.001 -0.10584,-0.0744 -0.10584,-0.16214 0,-0.0877 -0.1524,-0.29717 -0.33866,-0.46545 -0.18627,-0.16828 -0.33867,-0.38092 -0.33867,-0.47254 0,-0.0916 -0.0762,-0.20736 -0.16933,-0.2572 -0.0931,-0.0498 -0.16934,-0.14454 -0.16934,-0.21044 0,-0.0659 -0.0515,-0.15028 -0.11449,-0.18752 -0.063,-0.0372 -0.21925,-0.25697 -0.34728,-0.4883 -0.12802,-0.23132 -0.33368,-0.57485 -0.457,-0.76339 -0.43735,-0.66864 -0.61909,-0.99217 -0.99958,-1.77935 -0.11255,-0.23283 -0.27941,-0.56981 -0.3708,-0.74883 -0.0914,-0.17903 -0.16618,-0.3719 -0.16618,-0.4286 0,-0.0567 -0.0714,-0.25313 -0.15859,-0.4365 -0.0872,-0.18337 -0.24142,-0.58105 -0.34266,-0.88374 -0.10125,-0.30268 -0.22038,-0.61649 -0.26475,-0.69734 -0.0444,-0.0809 -0.0807,-0.25378 -0.0807,-0.38427 0,-0.13049 -0.075,-0.38429 -0.16659,-0.56401 -0.0916,-0.17971 -0.14773,-0.35727 -0.12468,-0.39455 0.0635,-0.1027 -0.14054,-0.83849 -0.23248,-0.83849 -0.0442,0 -0.0553,-0.0789 -0.0247,-0.17541 0.0355,-0.11174 0.003,-0.23413 -0.0908,-0.33726 -0.10957,-0.12106 -0.15166,-0.33826 -0.16702,-0.86176 -0.0113,-0.38495 -0.0475,-1.09996 -0.0805,-1.58891 -0.0942,-1.3975 -0.10377,-2.37066 -0.0232,-2.37066 0.0406,0 0.0652,-0.0667 0.0545,-0.14817 -0.0271,-0.20691 0.0896,-0.96031 0.18033,-1.16417 0.0414,-0.0931 0.11868,-0.34078 0.17166,-0.55033 0.12765,-0.50481 0.45069,-1.20552 0.62091,-1.34678 0.0751,-0.0623 0.13649,-0.16169 0.13649,-0.22086 0,-0.0592 0.0527,-0.12779 0.11706,-0.1525 0.0644,-0.0247 0.15111,-0.1907 0.19271,-0.36889 0.0484,-0.20738 0.14342,-0.35404 0.26395,-0.40754 0.10356,-0.046 0.18828,-0.12423 0.18828,-0.1739 0,-0.15999 0.97834,-0.9702 1.17155,-0.9702 0.0427,0 0.12515,-0.0572 0.18312,-0.127 0.058,-0.0699 0.17227,-0.127 0.254,-0.127 0.0817,0 0.19603,-0.0572 0.254,-0.127 0.058,-0.0699 0.17731,-0.127 0.26519,-0.127 0.0879,0 0.22337,-0.0742 0.30108,-0.16499 0.0777,-0.0908 0.1725,-0.1457 0.21066,-0.12211 0.0382,0.0236 0.17424,-0.01 0.30239,-0.0743 0.81756,-0.41117 0.76941,-0.39778 1.00005,-0.27812 0.1819,0.0944 0.29939,0.0947 0.69847,0.002 0.26388,-0.0613 0.49929,-0.0825 0.52314,-0.047 0.0799,0.1188 0.45665,0.17058 0.56812,0.0781 0.0791,-0.0657 0.11023,-0.0653 0.11023,0.001 0,0.0511 0.12383,0.16008 0.27517,0.24224 0.26561,0.14419 0.32101,0.1627 0.55033,0.18387 0.0582,0.005 0.10584,0.0669 0.10584,0.13676 0,0.0699 0.0715,0.127 0.15897,0.127 0.19883,0 0.38303,0.2126 0.322,0.37164 -0.0659,0.17188 0.0242,0.22852 0.20749,0.1304 0.12284,-0.0657 0.1582,-0.0554 0.1582,0.0465 0,0.19529 0.17746,0.4658 0.4911,0.74858 0.16877,0.15218 0.26039,0.30153 0.23136,0.37716 -0.0264,0.0689 -0.009,0.17187 0.038,0.22886 0.0473,0.057 0.11025,0.29031 0.13987,0.51844 0.0296,0.22814 0.11352,0.48341 0.18645,0.56726 0.0759,0.0872 0.12435,0.27515 0.11332,0.43901 -0.0135,0.19966 0.0263,0.31311 0.13115,0.37413 0.0828,0.0482 0.10282,0.0887 0.0446,0.0901 -0.11116,0.003 -0.14668,0.27218 -0.0488,0.37008 0.0677,0.0677 0.0998,0.25685 0.16406,0.966 0.0264,0.29104 0.0826,0.52916 0.12507,0.52916 0.10559,0 0.097,0.22807 -0.0166,0.44034 -0.076,0.14203 -0.10894,0.153 -0.17388,0.0579 -0.0612,-0.0895 -0.0739,-0.0772 -0.0539,0.0521 0.0144,0.0931 0.11145,0.20683 0.21563,0.25265 0.1284,0.0565 0.17413,0.1315 0.14197,0.23283 -0.0349,0.11 -0.001,0.14952 0.12758,0.14952 0.22516,0 0.22362,0.1257 -0.003,0.28476 -0.19498,0.13657 -0.1455,0.32644 0.0753,0.28898 0.10656,-0.0181 0.14146,0.0538 0.15311,0.31526 0.0191,0.42896 0.15699,1.03212 0.32113,1.40462 0.07,0.15879 0.22665,0.63161 0.34821,1.05071 0.21496,0.74117 0.29243,0.93658 0.7535,1.90045 0.12132,0.25362 0.22059,0.5108 0.22059,0.5715 0,0.0607 0.032,0.11038 0.0711,0.11038 0.0391,0 0.1165,0.0997 0.172,0.22152 0.098,0.21496 0.094,0.21977 -0.1344,0.16245 -0.30138,-0.0756 -0.17819,0.0537 0.1624,0.1705 0.24375,0.0836 0.25047,0.0972 0.11487,0.23283 -0.13561,0.1356 -0.13355,0.14404 0.0351,0.14404 0.11878,0 0.17072,0.0461 0.15421,0.13694 -0.0137,0.0753 0.0418,0.17056 0.1233,0.21166 0.0815,0.0411 0.21484,0.1087 0.29633,0.15021 0.0815,0.0415 0.14006,0.15034 0.13015,0.24184 -0.0113,0.10442 0.058,0.20099 0.18602,0.25934 0.22835,0.10403 0.49411,0.46567 0.51104,0.69538 0.006,0.083 0.1511,0.28285 0.3222,0.44423 0.1711,0.16137 0.311108,0.34604 0.311168,0.4104 0,0.17664 0.401,0.60639 0.50541,0.54187 0.0502,-0.0311 0.0859,-0.0251 0.0792,0.0133 -0.0446,0.25692 0.29496,0.65805 0.49284,0.58212 0.0786,-0.0302 0.0955,0.0149 0.0596,0.15801 -0.0552,0.2199 0.07,0.34566 0.34412,0.34566 0.11395,0 0.19667,0.085 0.254,0.26113 0.0488,0.14997 0.13068,0.24589 0.19228,0.22531 0.12675,-0.0423 0.52418,0.31209 0.52629,0.46936 9.3e-4,0.0694 -0.0657,0.0466 -0.18287,-0.0626 -0.10139,-0.0945 -0.2056,-0.15049 -0.23158,-0.12451 -0.0738,0.0738 0.36086,0.3759 0.47941,0.33313 0.0598,-0.0216 0.10584,0.0286 0.10584,0.11539 0,0.18225 0.2556,0.4338 0.4408,0.4338 0.15778,0 0.3541,0.21693 0.29006,0.32054 -0.0251,0.0407 0.14303,0.21789 0.37371,0.39381 0.23069,0.17592 0.41943,0.37291 0.41943,0.43776 0,0.0648 0.0572,0.11789 0.127,0.11789 0.0699,0 0.127,0.0355 0.127,0.079 0,0.0434 0.0762,0.10315 0.16933,0.1327 0.0931,0.0296 0.16933,0.0906 0.16933,0.13553 0,0.10992 0.51743,0.62182 0.69896,0.69148 0.0801,0.0308 0.12441,0.10887 0.0991,0.17486 -0.0252,0.0656 0.0175,0.14357 0.0949,0.17326 0.0774,0.0297 0.12005,0.10764 0.0949,0.17325 -0.0549,0.14305 0.20201,0.26305 0.2829,0.13215 0.0378,-0.0611 0.0927,-0.048 0.16531,0.0395 0.0598,0.072 0.0712,0.131 0.0254,0.131 -0.0458,0 -0.0651,0.0952 -0.0428,0.21167 0.0449,0.235 0.10655,0.26131 0.25779,0.11007 0.0732,-0.0732 0.12737,-0.0758 0.19364,-0.01 0.0663,0.0663 0.0663,0.10796 0,0.14893 -0.0868,0.0536 -0.13432,0.38556 -0.0552,0.38556 0.0203,0 0.13592,-0.0377 0.25703,-0.0837 0.17256,-0.0656 0.23075,-0.0562 0.26898,0.0434 0.0268,0.0699 -0.002,0.18876 -0.0649,0.26407 -0.10169,0.12253 -0.0863,0.13092 0.14637,0.0798 0.17918,-0.0394 0.2912,-0.0195 0.36033,0.0638 0.0789,0.0951 0.0728,0.13144 -0.0288,0.17043 -0.071,0.0273 -0.19009,0.0262 -0.26454,-0.002 -0.11771,-0.0452 -0.12093,-0.0288 -0.0247,0.12536 0.0759,0.12147 0.14178,0.15154 0.20931,0.0955 0.0542,-0.045 0.16683,-0.0556 0.25022,-0.0236 0.11224,0.0431 0.13362,0.0291 0.0823,-0.054 -0.0479,-0.0775 -0.0368,-0.092 0.036,-0.047 0.0693,0.0428 0.087,0.1632 0.0516,0.35175 -0.0301,0.16064 -0.0188,0.28664 0.0258,0.28664 0.0438,0 0.16934,0.0946 0.27901,0.2102 0.10966,0.11561 0.24384,0.21086 0.29817,0.21166 0.0543,8.5e-4 0.1181,0.0491 0.14171,0.1073 0.0316,0.0778 0.0614,0.0803 0.1129,0.009 0.0511,-0.0704 0.0997,-0.0644 0.18006,0.0222 0.0909,0.0979 0.0872,0.12746 -0.0212,0.16903 -0.18881,0.0725 -0.16192,0.28626 0.036,0.28626 0.20703,0 0.69943,0.29039 0.62263,0.36719 -0.0309,0.0309 -0.009,0.0561 0.0483,0.0561 0.067,0 0.0846,0.0626 0.0491,0.17455 -0.0502,0.15816 -0.0289,0.16996 0.22713,0.12564 0.20423,-0.0354 0.33923,-0.004 0.48711,0.1116 l 0.20459,0.16052 -0.18342,0.0582 c -0.10088,0.032 -0.18342,0.0963 -0.18342,0.14288 0,0.0485 0.0814,0.06 0.1905,0.0269 0.30717,-0.0932 0.35125,-0.0876 0.36415,0.0464 0.007,0.0699 0.018,0.17329 0.0251,0.22988 0.007,0.0566 0.13205,0.23859 0.27767,0.40446 0.18748,0.21352 0.31085,0.28694 0.42257,0.25147 0.23337,-0.0741 0.34593,0.0244 0.24452,0.21385 -0.1029,0.19228 -0.0267,0.42908 0.11991,0.3728 0.0585,-0.0225 0.1553,0.018 0.21502,0.09 0.0597,0.072 0.16109,0.13085 0.22523,0.13085 0.0673,0 0.11664,0.0876 0.11664,0.20688 0,0.14007 0.082,0.25532 0.254,0.35692 0.1397,0.0825 0.254,0.184 0.254,0.22551 0,0.0415 0.0544,0.0546 0.12081,0.0291 0.13681,-0.0525 0.30372,0.11428 0.34181,0.34154 0.014,0.0838 0.0689,0.14257 0.12199,0.13059 0.053,-0.012 0.13023,0.0642 0.17152,0.16933 0.0413,0.10511 0.14523,0.25511 0.23097,0.33333 0.0857,0.0782 0.2091,0.2064 0.27412,0.28485 0.10815,0.13049 0.12472,0.131 0.1947,0.006 0.1303,-0.23284 0.25545,-0.15753 0.19506,0.11739 -0.0416,0.18956 -0.0218,0.2671 0.0779,0.30539 0.0736,0.0282 0.13374,0.10439 0.13374,0.16926 0,0.0649 0.0581,0.11795 0.1291,0.11795 0.071,0 0.16429,0.0926 0.20732,0.20576 0.10328,0.27165 1.00996,1.23357 1.16272,1.23357 0.0657,0 0.0942,0.0409 0.0633,0.0909 -0.0777,0.12575 0.29091,0.49999 0.43719,0.44386 0.0782,-0.03 0.10284,-0.004 0.072,0.0768 -0.0521,0.13578 0.56244,0.83563 0.87056,0.99142 0.10478,0.053 0.1905,0.14277 0.1905,0.19956 0,0.0568 0.16193,0.2331 0.35984,0.39182 0.19791,0.1587 0.51223,0.47293 0.6985,0.69827 0.18626,0.22533 0.43937,0.45522 0.56245,0.51086 0.12308,0.0556 0.20638,0.1465 0.18512,0.20191 -0.0213,0.0554 0.0876,0.18803 0.24188,0.29471 0.1543,0.10668 0.3457,0.26017 0.42534,0.34109 0.0796,0.0809 0.21297,0.19798 0.29633,0.26013 0.0833,0.0622 0.2056,0.21778 0.27169,0.34584 0.0946,0.18335 0.18006,0.23283 0.40216,0.23283 0.31934,0 0.36168,0.10394 0.11324,0.27796 -0.20721,0.14513 -0.13709,0.23004 0.18995,0.23004 0.16181,0 0.23357,0.0365 0.20814,0.10583 -0.0213,0.0582 -0.0845,0.0954 -0.14034,0.0826 -0.0559,-0.0128 -0.0759,0.0183 -0.0445,0.0691 0.0314,0.0508 0.0755,0.074 0.098,0.0515 0.0555,-0.0555 0.36547,0.26111 0.36547,0.37331 0,0.0493 0.0355,0.0677 0.0788,0.0409 0.0434,-0.0268 0.10275,-0.01 0.132,0.0373 0.0292,0.0473 0.13666,0.0866 0.23868,0.0873 0.14698,0.001 0.15972,0.0176 0.0613,0.0798 -0.0787,0.0498 -0.16394,0.0455 -0.23283,-0.0117 -0.0598,-0.0496 -0.1082,-0.057 -0.10761,-0.0163 0.002,0.14779 0.67369,0.79353 0.82528,0.79353 0.15987,0 0.35899,0.15028 0.35899,0.27094 0,0.0373 -0.0585,0.0677 -0.12998,0.0677 -0.18303,0 -0.0636,0.18748 0.50755,0.79675 0.258,0.27524 0.4691,0.53237 0.4691,0.57141 0,0.039 0.1524,0.22802 0.33867,0.41995 0.18626,0.19194 0.33866,0.39724 0.33866,0.45623 0,0.059 0.11396,0.19728 0.25323,0.30729 0.13928,0.11002 0.25358,0.24327 0.254,0.29613 8.5e-4,0.0529 0.096,0.15851 0.21244,0.23478 0.11642,0.0763 0.21167,0.18906 0.21167,0.25062 0,0.14323 0.29194,0.41066 0.3667,0.33591 0.0311,-0.0312 0.0566,-0.003 0.0566,0.0634 0,0.1362 0.57733,0.79353 0.74545,0.84872 0.0607,0.0199 0.12022,0.0927 0.13216,0.16172 0.0499,0.28822 0.15248,0.49375 0.26862,0.53831 0.0681,0.0261 0.12377,0.10585 0.12377,0.17716 0,0.0713 0.0286,0.12515 0.0635,0.11963 0.16043,-0.0253 0.22218,0.0194 0.11796,0.08539 -0.0801,0.0507 -0.0865,0.0903 -0.0212,0.1307 0.0515,0.0319 0.0937,0.0176 0.0937,-0.0317 0,-0.155795 0.20863,-0.0971 0.32669,0.0919 0.0993,0.159 0.0966,0.17514 -0.022,0.12965 -0.0744,-0.0286 -0.13453,-0.0246 -0.1335,0.009 0.004,0.13289 0.30418,0.42835 0.46364,0.45653 0.0931,0.0165 0.16925,0.0904 0.16933,0.1643 0,0.0739 0.12507,0.23964 0.27775,0.36827 0.21855,0.18414 0.25704,0.25864 0.18096,0.35031 -0.0745,0.0898 -0.0654,0.12842 0.0399,0.16883 0.0751,0.0288 0.13653,0.10139 0.13653,0.16127 0,0.0599 0.0611,0.13234 0.13579,0.16099 0.0749,0.0288 0.11481,0.10676 0.089,0.17405 -0.0282,0.0734 0.0189,0.14281 0.11821,0.17433 0.0908,0.0288 0.16501,0.10663 0.16501,0.17295 0,0.0663 0.0762,0.16817 0.16934,0.22633 0.0931,0.0582 0.16933,0.14626 0.16933,0.19578 0,0.0495 0.13335,0.21927 0.29633,0.37724 0.18948,0.18365 0.29634,0.36683 0.29634,0.508 0,0.14132 0.10703,0.32452 0.29736,0.50901 0.16356,0.15852 0.43796,0.50889 0.60979,0.7786 0.17182,0.26971 0.3423,0.49039 0.37882,0.49039 0.0365,0 0.11903,0.12382 0.18333,0.27516 0.0643,0.15135 0.20769,0.37468 0.31864,0.49631 0.25456,0.27906 0.40452,0.49982 0.46806,0.68903 0.0274,0.0815 0.0829,0.14816 0.1234,0.14816 0.0405,0 0.12655,0.1266 0.1912,0.28133 0.0647,0.15473 0.23956,0.42029 0.38869,0.59014 0.14913,0.16985 0.24701,0.34789 0.21749,0.39564 -0.0295,0.0477 0.0533,0.18601 0.18395,0.30725 0.13068,0.12124 0.2265,0.28801 0.21294,0.37058 -0.0152,0.0926 0.0415,0.16746 0.14816,0.19535 0.12614,0.033 0.17283,0.11467 0.17283,0.30232 0,0.15137 0.0632,0.30263 0.15375,0.36776 0.12844,0.0924 0.26244,0.30658 0.30763,0.49163 0.0424,0.17377 0.26731,0.39832 0.36234,0.36184 0.0881,-0.0338 0.10269,0.009 0.0604,0.17779 -0.0425,0.16911 -0.0232,0.22491 0.0804,0.23296 0.0749,0.006 0.1838,0.0157 0.24201,0.0221 0.0623,0.007 0.10584,0.1331 0.10584,0.30691 0,0.29979 0.38855,1.01512 0.55139,1.01512 0.046,0 0.0836,0.048 0.0836,0.10664 0,0.0587 0.0705,0.15068 0.15676,0.20453 0.18106,0.11307 0.55129,0.70483 0.44097,0.70483 -0.0406,0 -0.0539,0.0762 -0.0296,0.16933 0.0256,0.0978 0.11549,0.16934 0.2128,0.16934 0.11804,0 0.1533,0.0396 0.11773,0.13236 -0.0624,0.16259 0.16941,0.63118 0.38886,0.78605 0.12332,0.087 0.14867,0.17316 0.10691,0.36327 -0.0589,0.26819 0.156,0.71163 0.30135,0.62181 0.0467,-0.0289 0.0593,0.0525 0.0304,0.19695 -0.0409,0.20456 -0.0173,0.25454 0.13928,0.29549 0.12542,0.0328 0.1719,0.0926 0.13888,0.17864 -0.0273,0.0711 -0.0106,0.15346 0.0371,0.18295 0.0477,0.0295 0.0665,0.10632 0.0418,0.17075 -0.0247,0.0644 0.0303,0.15743 0.12231,0.20666 0.1388,0.0743 0.15118,0.11955 0.0728,0.26606 -0.10821,0.20219 0.0225,0.33921 0.25399,0.26618 0.0806,-0.0254 0.10023,-0.0137 0.049,0.029 -0.11058,0.0922 -0.13322,0.53715 -0.0273,0.53715 0.0444,0 0.0599,0.0336 0.0345,0.0747 -0.0254,0.0411 0.0275,0.1684 0.11759,0.2829 0.0978,0.12435 0.14517,0.27929 0.1176,0.38472 -0.0303,0.11591 0.0148,0.22875 0.13141,0.32858 0.0977,0.0836 0.17758,0.23749 0.17758,0.34192 0,0.10588 0.0782,0.23172 0.17677,0.28447 0.12917,0.0691 0.16358,0.14711 0.12782,0.28962 -0.0302,0.12048 -8.5e-4,0.23506 0.0772,0.29975 0.0694,0.0576 0.12618,0.19756 0.12618,0.31102 0,0.11438 0.0373,0.18325 0.0837,0.15458 0.0479,-0.0296 0.0623,0.004 0.0336,0.0789 -0.0299,0.078 0.007,0.15245 0.0905,0.18465 0.0774,0.0297 0.12135,0.10427 0.0978,0.16573 -0.0243,0.0633 10e-4,0.095 0.0586,0.0731 0.0669,-0.0255 0.10391,0.0678 0.10851,0.27342 0.005,0.24031 0.067,0.36224 0.26813,0.53011 0.23179,0.1935 0.24825,0.23566 0.14636,0.37498 -0.0992,0.13561 -0.0924,0.18097 0.0494,0.33318 0.0903,0.0969 0.16415,0.2376 0.16415,0.31264 0,0.075 0.0473,0.18373 0.10512,0.24155 0.0837,0.0837 0.0794,0.12139 -0.0212,0.18497 -0.10157,0.0642 -0.09,0.0801 0.0592,0.0812 0.10202,8.4e-4 0.20905,0.0394 0.23783,0.086 0.0288,0.0466 -0.007,0.0847 -0.0797,0.0847 -0.0755,0 -0.132,0.0724 -0.132,0.16934 0,0.11117 0.0565,0.16933 0.16434,0.16933 0.24824,0 0.28391,0.13952 0.0834,0.3263 -0.17153,0.15981 -0.17254,0.17056 -0.023,0.24761 0.086,0.0443 0.20391,0.0635 0.26211,0.0426 0.15309,-0.0549 0.13059,0.14132 -0.023,0.20024 -0.10531,0.0404 -0.0899,0.0883 0.0847,0.26289 0.25253,0.25252 0.26371,0.32128 0.0653,0.40146 -0.1286,0.052 -0.12048,0.0705 0.0615,0.1404 0.1386,0.0532 0.17554,0.10161 0.10902,0.14272 -0.1101,0.0681 -0.0491,0.43712 0.0722,0.43712 0.0411,0 0.0703,0.0286 0.0648,0.0635 -0.005,0.0349 -0.005,0.17294 0,0.3067 0.008,0.1993 0.0316,0.22531 0.12949,0.14406 0.16081,-0.13346 0.27103,0.0409 0.13186,0.20864 -0.0602,0.0726 -0.0792,0.21823 -0.0464,0.35612 0.0306,0.12832 0.0693,0.31431 0.086,0.41329 0.0167,0.099 0.0711,0.25591 0.12075,0.3487 0.0497,0.0928 0.0642,0.19486 0.0322,0.2268 -0.0319,0.0319 -0.003,0.0919 0.0635,0.13324 0.0669,0.0413 0.12628,0.20913 0.13196,0.37285 0.007,0.20275 0.0755,0.35193 0.2146,0.46775 0.18032,0.15014 0.18573,0.17039 0.0462,0.17287 -0.12217,0.002 -0.14646,0.0461 -0.10699,0.19332 0.0281,0.10477 0.0516,0.21551 0.0522,0.24607 8.5e-4,0.0306 0.0774,0.0356 0.17049,0.0113 0.0947,-0.0248 0.16934,-0.003 0.16934,0.0503 0,0.052 -0.0571,0.0945 -0.127,0.0945 -0.23046,0 -0.15554,0.47259 0.10583,0.66759 0.2078,0.15504 0.21439,0.174 0.0613,0.1764 -0.14878,0.002 -0.16729,0.0477 -0.13928,0.34135 0.0278,0.29184 0.0603,0.33866 0.23507,0.33866 0.23516,0 0.26969,0.12554 0.057,0.20717 -0.11775,0.0452 -0.12352,0.0697 -0.03,0.12751 0.0679,0.0419 0.0926,0.13214 0.0596,0.21791 -0.0885,0.23067 0.0368,0.97139 0.16439,0.97139 0.0611,0 0.13864,0.0446 0.17231,0.0991 0.0412,0.0666 0.0151,0.0813 -0.0797,0.045 -0.092,-0.0353 -0.14089,-0.0109 -0.14089,0.0703 0,0.0684 0.0318,0.12434 0.0706,0.12434 0.0388,0 0.0707,0.16193 0.0708,0.35983 0,0.30356 0.27518,1.58524 0.43138,2.01084 0.0256,0.0699 0.0387,0.17548 0.0291,0.23473 -0.01,0.0593 0.0415,0.16675 0.11365,0.23888 0.1493,0.1493 0.17171,0.28839 0.0465,0.28839 -0.0985,0 -0.11444,0.28067 -0.0212,0.37394 0.069,0.0691 0.0698,0.08 0.10452,1.44639 0.013,0.51223 0.0586,0.97556 0.10125,1.02963 0.0475,0.0602 0.0456,0.11808 -0.005,0.14931 -0.081,0.0501 -0.0484,0.9346 0.0396,1.07711 0.0246,0.0398 0.0124,0.0723 -0.027,0.0723 -0.0394,0 -0.0628,0.27485 -0.052,0.6108 0.0115,0.35899 -0.0198,0.65833 -0.0761,0.72613 -0.072,0.0867 -0.0686,0.1321 0.0137,0.18295 0.0829,0.0513 0.0851,0.0827 0.009,0.12979 -0.0582,0.036 -0.0792,0.14743 -0.0498,0.26458 0.0287,0.11418 0.0132,0.20243 -0.0354,0.20243 -0.0487,0 -0.0823,0.19346 -0.0772,0.4445 0.005,0.2445 -1e-5,0.46355 -0.011,0.48683 -0.011,0.0233 -0.0298,0.13759 -0.0419,0.254 -0.0121,0.11642 -0.0512,0.3986 -0.0871,0.62707 -0.0481,0.30657 -0.0395,0.39953 0.0329,0.35483 0.0582,-0.036 0.098,-0.007 0.098,0.0714 0,0.0726 -0.0531,0.132 -0.11794,0.132 -0.14238,0 -0.24545,0.22874 -0.13409,0.29754 0.0469,0.029 0.0367,0.11754 -0.0249,0.21697 -0.0841,0.13566 -0.0816,0.18201 0.0129,0.24083 0.0916,0.057 0.0778,0.0853 -0.0635,0.13012 -0.1893,0.0601 -0.23172,0.25717 -0.10015,0.46516 0.0549,0.0867 0.0291,0.15703 -0.0874,0.23862 -0.0908,0.0636 -0.14165,0.15371 -0.11293,0.2002 0.0287,0.0465 -0.005,0.12959 -0.0753,0.18469 -0.14802,0.11627 -0.28095,0.65053 -0.16187,0.65053 0.11744,0 0.0132,0.45422 -0.12266,0.53438 -0.064,0.0378 -0.0943,0.10446 -0.0673,0.14816 0.027,0.0437 0.001,0.0795 -0.0575,0.0795 -0.0829,0 -0.084,0.0226 -0.005,0.1016 0.13828,0.13828 0.1277,0.23706 -0.0254,0.23706 -0.0941,0 -0.127,0.0988 -0.127,0.381 0,0.20956 -0.0381,0.381 -0.0847,0.381 -0.0466,0 -0.0847,0.0953 -0.0847,0.21167 0,0.11641 -0.0407,0.21165 -0.0904,0.21165 -0.0505,0 -0.0677,0.0715 -0.0389,0.16221 0.0283,0.0892 0.0118,0.18671 -0.0366,0.21667 -0.13651,0.0844 -0.10389,0.23796 0.0389,0.18317 0.18744,-0.0719 0.1543,0.0575 -0.0469,0.18316 -0.11963,0.0747 -0.15744,0.16046 -0.12115,0.27478 0.0328,0.10346 0.008,0.18323 -0.065,0.21135 -0.0754,0.0289 -0.10493,0.13219 -0.0821,0.28755 0.0281,0.19102 -0.003,0.25466 -0.14695,0.30031 -0.11297,0.0359 -0.17026,0.11164 -0.15034,0.19887 0.0177,0.0775 -0.0177,0.24275 -0.0786,0.36718 -0.15345,0.31328 -0.37644,0.98331 -0.39083,1.17433 -0.007,0.0872 -0.0284,0.14208 -0.0484,0.12203 -0.052,-0.052 -0.35139,0.52593 -0.35139,0.67842 0,0.07 -0.0602,0.12731 -0.13373,0.12731 -0.1038,0 -0.12154,0.0555 -0.0793,0.24785 0.0493,0.22426 0.0318,0.25046 -0.18305,0.27517 -0.2553,0.0294 -0.40123,0.32364 -0.16048,0.32364 0.18291,0 0.16753,0.14501 -0.0264,0.24879 -0.0878,0.047 -0.18261,0.17711 -0.21073,0.28919 -0.0281,0.11209 -0.13729,0.22996 -0.24258,0.26194 -0.10528,0.032 -0.14934,0.076 -0.0979,0.0977 0.12209,0.0517 0.0422,0.47961 -0.10589,0.56705 -0.0631,0.0372 -0.11479,0.11344 -0.11496,0.16933 -8.5e-4,0.18274 -0.46176,1.03316 -0.69908,1.2891 -0.12757,0.13757 -0.23194,0.29102 -0.23194,0.34099 0,0.05 -0.1143,0.20037 -0.254,0.33421 -0.1397,0.13384 -0.25406,0.28384 -0.25415,0.33334 0,0.0495 -0.20829,0.31859 -0.46268,0.59799 -0.37366,0.4104 -0.47849,0.48407 -0.54558,0.38346 -0.0457,-0.0685 -0.11369,-0.0919 -0.15115,-0.0519 -0.0375,0.0399 -0.0205,0.0896 0.0377,0.11044 0.19578,0.0699 0.10806,0.24526 -0.19501,0.38979 -0.17285,0.0824 -0.27678,0.18241 -0.24428,0.23501 0.0631,0.10217 -0.53318,0.75356 -0.68985,0.75356 -0.055,0 -0.12076,0.0796 -0.14621,0.17693 -0.035,0.13395 -0.0888,0.16341 -0.22154,0.12129 -0.12989,-0.0412 -0.17528,-0.0187 -0.17528,0.087 0,0.10221 -0.0493,0.1297 -0.17417,0.097 -0.14062,-0.0368 -0.15548,-0.023 -0.0772,0.0713 0.0773,0.0931 0.0525,0.12801 -0.12216,0.17186 -0.12053,0.0303 -0.21944,0.0985 -0.2198,0.15164 -8.5e-4,0.11395 -0.38824,0.30833 -0.6146,0.30833 -0.11176,0 -0.14462,0.0435 -0.112,0.14815 0.0343,0.11019 -0.0412,0.19015 -0.29467,0.31192 -0.18745,0.0901 -0.43403,0.25697 -0.54794,0.37089 -0.13443,0.13441 -0.3116,0.21067 -0.50476,0.21724 -0.20041,0.007 -0.28441,0.0447 -0.25716,0.11595 0.0223,0.0582 5e-5,0.10584 -0.0494,0.10584 -0.0494,0 -0.18808,0.0773 -0.30818,0.17177 -0.14963,0.11771 -0.24577,0.14435 -0.30545,0.0847 -0.11136,-0.11137 -0.30723,-0.11291 -0.30723,-0.002 0,0.0466 0.0618,0.0847 0.13736,0.0847 0.11251,0 0.1183,0.023 0.032,0.127 -0.058,0.0698 -0.17227,0.12701 -0.254,0.12701 -0.0817,0 -0.19603,0.0572 -0.254,0.12701 -0.058,0.0699 -0.17227,0.127 -0.254,0.127 -0.0817,0 -0.19603,0.0572 -0.254,0.127 -0.058,0.0698 -0.17227,0.127 -0.254,0.127 -0.0817,0 -0.194,0.0547 -0.24949,0.12155 -0.0854,0.10297 -0.46118,0.23776 -0.70983,0.25466 -0.0387,0.003 -0.11488,0.0619 -0.16934,0.13179 -0.10535,0.13513 -0.57984,0.34031 -0.86101,0.3723 -0.53886,0.0613 -0.88899,0.16918 -0.88899,0.27384 0,0.0745 -0.084,0.11081 -0.23284,0.10069 -0.48438,-0.0329 -0.6985,0.0135 -0.6985,0.15123 0,0.0921 -0.0455,0.11859 -0.14076,0.082 -0.16414,-0.063 -1.41232,0.10376 -1.7219,0.23003 -0.11642,0.0475 -0.27835,0.078 -0.35984,0.0678 -0.0898,-0.0113 -0.14816,0.0376 -0.14816,0.12413 0,0.11576 -0.0234,0.12325 -0.12412,0.0397 -0.12366,-0.10264 -1.21849,-0.0667 -1.52254,0.05 -0.0739,0.0284 -0.23847,0.0122 -0.3657,-0.0359 -0.12722,-0.0481 -0.39609,-0.11049 -0.59749,-0.13866 -0.33935,-0.0475 -0.36219,-0.0387 -0.3118,0.12013 0.0314,0.099 0.0162,0.17133 -0.036,0.17133 -0.0497,0 -0.0904,-0.0745 -0.0904,-0.16549 0,-0.12204 -0.0777,-0.18006 -0.2957,-0.22097 -0.16263,-0.0305 -0.35191,-0.0339 -0.42062,-0.008 -0.0687,0.0264 -0.14649,0.0131 -0.17284,-0.0296 -0.0264,-0.0428 -0.29346,-0.0546 -0.59537,-0.0264 -0.47232,0.0441 -0.54747,0.032 -0.54747,-0.0881 0,-0.0766 -0.0571,-0.13924 -0.127,-0.13924 -0.0699,0 -0.12759,0.0476 -0.1283,0.10582 -9.3e-4,0.0758 -0.0225,0.0723 -0.076,-0.0121 -0.0412,-0.065 -0.14881,-0.0986 -0.23982,-0.0748 -0.0908,0.0237 -0.25664,-0.008 -0.36851,-0.0695 -0.11185,-0.062 -0.32402,-0.11405 -0.47149,-0.1157 -0.14745,-0.002 -0.2808,-0.0396 -0.29633,-0.0844 -0.0155,-0.0448 -0.19009,-0.0924 -0.38793,-0.10584 -0.19784,-0.0134 -0.35976,-0.0553 -0.35983,-0.0929 -7e-5,-0.0377 -0.0382,-0.045 -0.0848,-0.0162 -0.0466,0.0288 -0.0847,0.0134 -0.0847,-0.0341 0,-0.0802 -0.58037,-0.28067 -0.73542,-0.25404 -0.17907,0.0307 -0.27127,-0.0186 -0.23095,-0.12371 0.0513,-0.1338 -0.38648,-0.25106 -0.61293,-0.16416 -0.10381,0.0398 -0.12303,0.024 -0.0717,-0.059 0.0506,-0.0818 0.0326,-0.0991 -0.0646,-0.0618 -0.17477,0.0671 -1.27503,-0.32398 -2.27717,-0.80932 -1.70334,-0.82494 -1.88277,-0.90692 -1.98522,-0.90692 -0.0583,0 -0.16378,-0.0578 -0.23446,-0.12851 -0.0707,-0.0707 -0.15913,-0.12333 -0.19654,-0.11699 -0.0374,0.006 -0.10614,0.001 -0.15271,-0.0113 -0.0466,-0.0125 -0.19896,-0.0305 -0.33866,-0.0398 -0.1397,-0.009 -0.39519,-0.0438 -0.56776,-0.0765 -0.20943,-0.0397 -0.44873,-0.0133 -0.71967,0.0794 -0.22325,0.0764 -0.53926,0.14594 -0.70224,0.15454 -0.16298,0.009 -0.37589,0.0605 -0.47314,0.11537 -0.0973,0.0548 -0.261,0.0777 -0.36391,0.0508 -0.12204,-0.0319 -0.25189,0.0104 -0.37351,0.12175 -0.10254,0.0939 -0.42313,0.25579 -0.71242,0.3598 -0.46718,0.16795 -0.57132,0.25036 -0.93134,0.73701 -0.47266,0.6389 -1.15647,1.34742 -1.58152,1.63866 -0.16437,0.11264 -0.34317,0.28758 -0.39733,0.38879 -0.0542,0.10121 -0.17622,0.20434 -0.27125,0.22919 -0.14808,0.0387 -0.15665,0.0646 -0.06,0.18107 0.0963,0.11604 0.0836,0.16308 -0.087,0.32179 -0.10986,0.10223 -0.14969,0.11921 -0.0885,0.0377 0.0612,-0.0815 0.0817,-0.14817 0.0455,-0.14817 -0.0362,0 -0.34836,0.30417 -0.69373,0.67591 -0.34536,0.37176 -0.97765,0.93623 -1.40509,1.25438 -0.42743,0.31815 -1.310518,0.97648 -1.962458,1.46296 -0.99324,0.74115 -1.86578,1.30218 -3.41676,2.19692 -0.28479,0.16429 -1.45926,0.70271 -2.7639,1.26709 -0.5588,0.24174 -1.11125,0.48931 -1.22767,0.55017 -0.30813,0.16107 -1.79809,0.73938 -1.94882,0.75641 -0.0707,0.008 -0.16592,0.0362 -0.21167,0.0627 -0.0913,0.0529 -0.96494,0.32852 -1.56484,0.49373 -0.20955,0.0577 -0.57415,0.1783 -0.81023,0.26797 -0.23607,0.0897 -0.61707,0.21482 -0.84666,0.27809 -0.22959,0.0633 -0.79844,0.23527 -1.26411,0.38224 -1.04084,0.32848 -2.99622,0.73045 -4.09252,0.84131 -2.6316,0.26609 -3.99547,0.33359 -4.92448,0.24373 z m -7.98359,-9.61572 c 0.0561,-0.0357 0.22204,-0.53992 0.36867,-1.12053 0.14663,-0.58061 0.30072,-1.09186 0.34242,-1.13609 0.0417,-0.0442 0.0758,-0.18763 0.0758,-0.31866 0,-0.13101 0.0326,-0.30436 0.0724,-0.38523 0.0398,-0.0809 0.15715,-0.41371 0.26071,-0.73968 0.10357,-0.32597 0.22092,-0.66887 0.2608,-0.762 0.0399,-0.0931 0.13038,-0.3777 0.20112,-0.63238 0.13539,-0.48745 0.0969,-0.59116 -0.22059,-0.59399 -0.18357,-0.002 -0.76306,-0.19749 -1.30164,-0.43991 -0.2287,-0.10293 -0.46599,-0.19576 -0.52732,-0.20628 -0.0613,-0.0105 -0.27999,-0.0983 -0.48591,-0.19511 -0.20592,-0.0968 -0.39634,-0.176 -0.42313,-0.176 -0.0268,0 -0.23772,-0.0813 -0.4687,-0.18067 -0.33727,-0.14508 -0.4101,-0.21177 -0.36983,-0.33866 0.0376,-0.11846 0.008,-0.158 -0.12009,-0.158 -0.1723,0 -0.45861,-0.31475 -0.3889,-0.42754 0.0208,-0.0337 -0.0185,-0.10801 -0.0873,-0.16513 -0.0688,-0.0571 -0.10803,-0.13154 -0.0871,-0.16538 0.0209,-0.0338 -0.16325,-0.27268 -0.40926,-0.53076 -0.39664,-0.41612 -0.4346,-0.48658 -0.33529,-0.6224 0.16214,-0.22174 0.13819,-0.30562 -0.0785,-0.27485 -0.12243,0.0174 -0.20017,0.0951 -0.21756,0.21756 -0.0149,0.10477 -0.0769,0.1905 -0.13779,0.1905 -0.0609,0 -0.15783,0.0567 -0.21538,0.12607 -0.0575,0.0693 -0.13649,0.10636 -0.17544,0.0823 -0.039,-0.0241 -0.11075,0.0308 -0.15953,0.12196 -0.082,0.15318 -0.0695,0.16022 0.16509,0.0929 0.15994,-0.0459 0.25378,-0.0418 0.25378,0.011 0,0.0461 0.0394,0.0594 0.0875,0.0296 0.0554,-0.0342 0.0723,0.0299 0.0461,0.17473 -0.0437,0.24096 -0.13361,0.39047 -0.13361,0.22217 0,-0.0543 -0.0524,-0.0988 -0.11642,-0.0988 -0.0676,0 -0.11641,0.0884 -0.11641,0.21091 0,0.25764 -0.18337,0.72042 -0.28544,0.72042 -0.11748,0 -0.0866,-0.16902 0.0314,-0.17202 0.0613,-0.002 0.0392,-0.0532 -0.0527,-0.12272 -0.13642,-0.10332 -0.17512,-0.10339 -0.27793,-8.5e-4 -0.0968,0.0968 -0.0995,0.15131 -0.0146,0.28732 0.0868,0.13896 0.08,0.19537 -0.0396,0.32745 -0.0794,0.0878 -0.14441,0.20195 -0.14441,0.25374 0,0.12887 -0.12466,0.19522 -0.44688,0.23787 -0.15003,0.0199 -0.39661,0.0522 -0.54795,0.0718 -0.19839,0.0258 -0.27517,0.002 -0.27517,-0.0849 0,-0.0663 -0.0422,-0.12062 -0.0937,-0.12062 -0.0515,0 -0.0718,0.0571 -0.045,0.127 0.0268,0.0699 0.0118,0.127 -0.0333,0.127 -0.17999,0 -0.0642,0.14814 0.25666,0.32849 0.18626,0.10469 0.33866,0.16751 0.33866,0.13962 0,-0.0279 0.0762,-0.01 0.16934,0.0399 0.0931,0.0498 0.16933,0.16453 0.16933,0.25487 0,0.13732 -0.0416,0.15591 -0.254,0.11343 -0.19886,-0.0398 -0.254,-0.0209 -0.254,0.0868 0,0.20422 -0.19705,0.16687 -0.42974,-0.0814 -0.16603,-0.17718 -0.25918,-0.21035 -0.4873,-0.17354 -0.23943,0.0386 -0.26665,0.0269 -0.18014,-0.0773 0.0806,-0.0971 0.0776,-0.12336 -0.0143,-0.12548 -0.0833,-0.002 -0.0742,-0.0346 0.032,-0.11516 0.19418,-0.14741 0.18699,-0.19043 -0.0423,-0.25327 -0.1489,-0.0408 -0.16484,-0.0687 -0.073,-0.12791 0.0961,-0.0619 0.0846,-0.11106 -0.0635,-0.26996 -0.11317,-0.12147 -0.18098,-0.15128 -0.18098,-0.0795 0,0.22154 -0.0957,0.0163 -0.1331,-0.28566 -0.0252,-0.20309 -0.004,-0.30515 0.0646,-0.30515 0.0796,0 0.0798,-0.0226 8.5e-4,-0.1016 -0.16135,-0.16134 -0.11838,-0.25355 0.0889,-0.19082 l 0.1905,0.0577 -0.1905,-0.18225 c -0.21309,-0.20385 -0.22803,-0.29566 -0.10577,-0.64985 0.0466,-0.135 0.0952,-0.35977 0.108,-0.49947 0.0434,-0.47361 0.32322,-1.05833 0.50647,-1.05833 0.1411,0 0.15094,-0.0208 0.0611,-0.12905 -0.13345,-0.1608 -0.067,-0.23235 0.22606,-0.24338 0.26846,-0.0101 0.38425,-0.22024 0.12136,-0.22024 -0.097,0 -0.17511,-0.0286 -0.17356,-0.0635 0.006,-0.12668 0.30739,-0.42405 0.48874,-0.48161 0.10217,-0.0324 0.18577,-0.11355 0.18577,-0.18026 0,-0.0667 0.0381,-0.12129 0.0847,-0.12129 0.11688,0 0.10703,-0.23244 -0.0115,-0.27196 -0.12584,-0.0419 0.0925,-0.40538 0.24356,-0.40538 0.0587,0 0.10664,-0.0345 0.10664,-0.0767 0,-0.0422 0.0735,-0.0575 0.16323,-0.034 0.16089,0.0421 0.16091,0.0468 10e-4,0.33074 -0.089,0.15843 -0.1408,0.28805 -0.11514,0.28805 0.0257,0 -0.0259,0.10478 -0.11467,0.23284 -0.0887,0.12806 -0.18669,0.30294 -0.2177,0.38864 -0.0791,0.21857 0.0161,0.34118 0.16738,0.21561 0.0994,-0.0825 0.10208,-0.11604 0.0136,-0.17215 -0.0706,-0.0448 -0.0115,-0.0701 0.16533,-0.071 0.15246,-8.5e-4 0.27516,-0.0453 0.27516,-0.10008 0,-0.0543 0.0217,-0.0771 0.0482,-0.0506 0.0842,0.0842 -0.1583,0.38828 -0.27424,0.34379 -0.0611,-0.0235 -0.13464,0.0184 -0.1633,0.0931 -0.0287,0.0747 -0.10518,0.13578 -0.17005,0.13578 -0.0649,0 -0.11794,0.0612 -0.11794,0.13606 0,0.0893 0.046,0.11839 0.13388,0.0847 0.0736,-0.0283 0.21546,0.006 0.31518,0.0756 0.22924,0.16057 0.31294,0.16056 0.31294,-2e-5 0,-0.15382 0.13796,-0.16846 0.19929,-0.0212 0.0319,0.0767 0.0778,0.0643 0.16638,-0.0448 0.10526,-0.12966 0.12917,-0.13275 0.1716,-0.0222 0.0289,0.0752 0.007,0.12011 -0.0535,0.10832 -0.0565,-0.0111 -0.0937,0.0261 -0.0826,0.0826 0.0116,0.0594 -0.033,0.0824 -0.10583,0.0544 -0.0693,-0.0266 -0.12599,-0.002 -0.12599,0.0553 0,0.0635 -0.0687,0.0856 -0.1775,0.0572 -0.2391,-0.0625 -0.47252,0.0236 -0.31979,0.11795 0.0863,0.0533 0.0776,0.10307 -0.0408,0.23382 -0.21691,0.23968 -0.0207,0.31981 0.25394,0.10374 0.12225,-0.0962 0.17903,-0.17484 0.12619,-0.17484 -0.0529,0 -0.0961,-0.0369 -0.0961,-0.082 0,-0.0451 0.0532,-0.0616 0.11819,-0.0367 0.0856,0.0328 0.10598,0.1431 0.074,0.39951 -0.034,0.27244 -0.0208,0.33229 0.057,0.25939 0.0865,-0.0809 0.13988,-0.23026 0.16768,-0.4688 0.004,-0.0306 0.0837,-0.0354 0.17799,-0.0107 0.11342,0.0297 0.23164,-0.0232 0.34904,-0.15609 0.17126,-0.19384 0.17555,-0.19447 0.12138,-0.0176 -0.0309,0.10086 -0.0165,0.20788 0.0319,0.23784 0.0485,0.0299 0.0881,0.0141 0.0881,-0.0352 0,-0.0493 0.0648,-0.0897 0.14393,-0.0897 0.11195,0 0.12135,0.0226 0.0423,0.1016 -0.13905,0.13906 -0.12745,0.23707 0.0281,0.23707 0.0713,0 0.15159,-0.0571 0.17839,-0.127 0.0268,-0.0698 0.13524,-0.127 0.24097,-0.127 0.21689,0 0.33222,-0.11469 0.4257,-0.42334 0.0352,-0.11641 0.0879,-0.23071 0.11698,-0.254 0.0835,-0.0668 0.51697,-0.75192 0.51697,-0.81701 0,-0.0323 0.0531,-0.11881 0.11797,-0.19232 0.0649,-0.0735 0.27895,-0.43847 0.47569,-0.811 0.52786,-0.99953 0.77184,-1.41926 0.93509,-1.60866 0.17584,-0.20403 0.55151,-1.09295 0.7353,-1.73989 0.13689,-0.4819 0.11003,-0.76912 -0.0971,-1.03738 -0.205,-0.26554 -1.86377,-0.81888 -2.42099,-0.80758 -0.35832,0.007 -1.25601,-0.21065 -1.778,-0.4316 -0.20955,-0.0887 -0.45084,-0.18333 -0.53621,-0.21029 -0.22472,-0.071 -0.12854,-0.24573 0.18467,-0.33555 0.20463,-0.0587 0.25869,-0.11378 0.22276,-0.22698 -0.0261,-0.0822 -0.008,-0.17399 0.0407,-0.20394 0.0485,-0.0299 0.0881,-0.14482 0.0881,-0.25526 0,-0.20247 0.15072,-0.48012 0.65733,-1.21092 0.15197,-0.21924 0.31458,-0.49464 0.36134,-0.61203 0.0468,-0.11737 0.17007,-0.25115 0.274,-0.29729 0.13652,-0.0606 0.18457,-0.14827 0.17305,-0.31576 -0.009,-0.12752 0.0109,-0.23187 0.0438,-0.23187 0.0328,0 0.0636,-0.15045 0.0685,-0.33435 0.008,-0.30064 -0.0153,-0.33962 -0.22944,-0.38666 -0.17016,-0.0374 -0.22384,-0.0898 -0.18789,-0.18342 0.0388,-0.10103 0.0105,-0.11847 -0.12332,-0.076 -0.12284,0.039 -0.21947,-0.002 -0.33031,-0.13883 -0.24571,-0.30414 -1.42814,-0.9974 -1.70117,-0.9974 -0.0641,0 -0.0929,-0.0382 -0.0641,-0.0848 0.0288,-0.0466 -0.0451,-0.12191 -0.16434,-0.16724 -0.11922,-0.0453 -0.21676,-0.12145 -0.21676,-0.16917 0,-0.12238 -0.45002,-0.10813 -0.60248,0.0191 -0.14186,0.11835 -0.52127,0.63016 -0.61195,0.8255 -0.0324,0.0699 -0.14976,0.2794 -0.26075,0.46567 -0.11098,0.18626 -0.30249,0.54718 -0.42559,0.80203 -0.1231,0.25486 -0.2842,0.5301 -0.358,0.61165 -0.0858,0.0947 -0.14935,0.37071 -0.17615,0.7643 -0.0231,0.33881 -0.0717,0.65412 -0.10806,0.70068 -0.3098,0.39677 -0.79356,2.61286 -0.95183,4.36034 -0.12288,1.35665 -0.10992,3.39865 0.0279,4.40266 0.11241,0.8187 0.87097,3.5347 1.26726,4.53737 1.06585,2.69678 3.1799,5.20462 5.29503,6.28134 0.7268,0.36998 2.68585,0.72801 2.97566,0.54382 z m -7.03704,-5.16939 c -0.0245,-0.0397 0.0113,-0.14448 0.0797,-0.23283 0.12191,-0.15756 0.12673,-0.15748 0.25129,0.004 0.0699,0.0904 0.127,0.19517 0.127,0.23283 0,0.0914 -0.40117,0.0882 -0.45796,-0.004 z m 1.09296,-0.0125 c -0.0288,-0.0466 -0.012,-0.0847 0.0373,-0.0847 0.0493,0 0.0897,0.0381 0.0897,0.0847 0,0.0466 -0.0168,0.0847 -0.0373,0.0847 -0.0205,0 -0.0609,-0.0381 -0.0897,-0.0847 z m -0.0361,-1.0508 c -0.10846,-0.13068 0.004,-0.25361 0.24774,-0.27016 0.0699,-0.005 0.21272,-0.0143 0.3175,-0.0212 0.10731,-0.007 0.1905,-0.068 0.1905,-0.13953 0,-0.12712 0.17862,-0.17416 0.27924,-0.0735 0.1193,0.1193 -0.1302,0.36087 -0.50442,0.48838 -0.47601,0.16218 -0.4109,0.16022 -0.53056,0.016 z m 0.8417,-4.38903 c -8.5e-4,-0.0815 -0.0599,-0.14817 -0.13163,-0.14817 -0.10727,0 -0.11102,-0.021 -0.0212,-0.11866 0.0765,-0.0832 0.11929,-0.0895 0.14303,-0.0212 0.0186,0.0536 0.0642,0.11755 0.10137,0.14206 0.0371,0.0245 0.032,0.10071 -0.0114,0.16933 -0.0663,0.1048 -0.0791,0.10105 -0.0802,-0.0234 z m -1.31363,-0.91017 c 0.0288,-0.0466 0.0691,-0.0847 0.0897,-0.0847 0.0205,0 0.0373,0.0381 0.0373,0.0847 0,0.0466 -0.0403,0.0847 -0.0897,0.0847 -0.0493,0 -0.0661,-0.0381 -0.0373,-0.0847 z m 0.60506,-1.1655 c -0.15212,-0.55155 -0.11532,-1.79495 0.0698,-2.35856 0.033,-0.10042 1.32415,0.11632 1.44973,0.24336 0.0789,0.0798 -0.0755,0.38301 -0.53641,1.05334 -0.19828,0.28838 -0.36051,0.5646 -0.36051,0.61384 0,0.0492 -0.0356,0.0895 -0.0791,0.0895 -0.0435,0 -0.0911,0.1012 -0.10583,0.22489 -0.0321,0.26956 -0.37164,0.37319 -0.43773,0.13361 z m 64.884599,9.8015 c 0,-0.0466 -0.0381,-0.0847 -0.0847,-0.0847 -0.0466,0 -0.0847,0.0381 -0.0847,0.0847 0,0.0466 0.0381,0.0847 0.0847,0.0847 0.0466,0 0.0847,-0.0381 0.0847,-0.0847 z m -69.680659,-1.397 c 0,-0.0698 -0.0381,-0.127 -0.0847,-0.127 -0.0466,0 -0.0847,0.0572 -0.0847,0.127 0,0.0699 0.0381,0.127 0.0847,0.127 0.0466,0 0.0847,-0.0571 0.0847,-0.127 z m -0.11326,-0.65616 c -0.0235,-0.0582 -0.0427,-0.0106 -0.0427,0.10583 0,0.11642 0.0192,0.16404 0.0427,0.10583 0.0235,-0.0582 0.0235,-0.15346 0,-0.21166 z m 4.36135,-1.01395 c -0.0466,-0.0466 -0.13015,-0.0566 -0.18575,-0.0222 -0.0768,0.0475 -0.0744,0.0789 0.01,0.13097 0.14443,0.0893 0.28634,0.002 0.176,-0.10877 z m -0.42775,-0.20737 c -0.0738,-0.1269 -0.0903,-0.13056 -0.0924,-0.0205 -0.003,0.14259 0.0863,0.27097 0.1463,0.21097 0.0198,-0.0198 -0.004,-0.10551 -0.0539,-0.1905 z m -0.17967,-0.45085 c 0,-0.0466 -0.0571,-0.0847 -0.127,-0.0847 -0.0699,0 -0.127,0.0381 -0.127,0.0847 0,0.0466 0.0572,0.0847 0.127,0.0847 0.0699,0 0.127,-0.0381 0.127,-0.0847 z m 74.337329,-0.16933 c 0,-0.0466 -0.0404,-0.0847 -0.0897,-0.0847 -0.0493,0 -0.0661,0.0381 -0.0373,0.0847 0.0288,0.0466 0.0691,0.0847 0.0897,0.0847 0.0205,0 0.0373,-0.0381 0.0373,-0.0847 z m -74.104499,-0.33815 c 0.0582,0 0.10584,-0.0344 0.10584,-0.0759 0,-0.0777 -0.83561,-0.0486 -0.91615,0.0319 -0.0248,0.0248 0.0249,0.0964 0.11065,0.1591 0.13058,0.0955 0.19127,0.0954 0.37482,0 0.12046,-0.0629 0.26663,-0.11452 0.32484,-0.1148 z m 0.89593,0.16344 c 0.0544,-0.003 0.01,-0.0411 -0.0994,-0.0848 -0.21788,-0.0873 -0.38468,-0.0312 -0.30249,0.10182 0.0288,0.0465 0.10869,0.0629 0.17764,0.0365 0.069,-0.0265 0.16987,-0.0505 0.22427,-0.0535 z m 0.46001,-0.31582 c 0.0262,-0.0787 -0.0232,-0.0946 -0.17529,-0.0564 -0.15438,0.0387 -0.23521,0.0113 -0.29827,-0.10143 -0.0476,-0.085 -0.11382,-0.12728 -0.14719,-0.0939 -0.0817,0.0817 0.31309,0.40553 0.46429,0.38085 0.066,-0.0108 0.1364,-0.0689 0.15646,-0.12913 z m -1.32027,-0.32693 c 0.21993,-0.19904 0.19164,-0.28435 -0.0562,-0.16941 -0.11606,0.0538 -0.21131,0.14549 -0.21167,0.2037 -9.3e-4,0.14371 0.083,0.13297 0.26784,-0.0343 z m 0.83217,-0.10482 c 0,-0.0416 -0.0572,-0.0975 -0.127,-0.12434 -0.12906,-0.0495 -0.1734,0.0407 -0.0706,0.1435 0.0809,0.0809 0.19756,0.0696 0.19756,-0.0192 z m 0.33866,-0.3874 c 0,-0.0755 -0.0497,-0.10528 -0.12651,-0.0758 -0.0696,0.0267 -0.10543,0.0827 -0.0797,0.12434 0.0739,0.11954 0.20618,0.0884 0.20618,-0.0486 z m 0.84667,0.087 c 0,-0.0205 -0.0381,-0.0609 -0.0847,-0.0897 -0.0466,-0.0288 -0.0847,-0.012 -0.0847,0.0373 0,0.0493 0.0381,0.0897 0.0847,0.0897 0.0466,0 0.0847,-0.0168 0.0847,-0.0373 z m -0.254,-0.25899 c 0.058,-0.0698 0.17694,-0.127 0.26436,-0.127 0.0874,0 0.15897,-0.0296 0.15897,-0.0657 0,-0.0362 -0.15219,-0.0512 -0.33819,-0.0335 -0.18601,0.0177 -0.31856,0.064 -0.29455,0.10286 0.024,0.0388 -0.0238,0.10991 -0.10631,0.15791 -0.13686,0.0797 -0.13422,0.0875 0.0302,0.0899 0.0991,0.001 0.22756,-0.0546 0.28553,-0.12443 z m -1.63159,-0.0935 c -0.0281,-0.0281 -0.10116,-0.0311 -0.16229,-0.007 -0.0675,0.027 -0.0475,0.0471 0.0512,0.0512 0.0892,0.004 0.13926,-0.0163 0.11113,-0.0445 z m 1.61042,-0.59086 c 0.10478,-0.0867 0.1905,-0.18725 0.1905,-0.22346 0,-0.11369 -0.23603,-0.0717 -0.3743,0.0665 -0.0728,0.0728 -0.17727,0.10467 -0.23211,0.0708 -0.0665,-0.0411 -0.0824,-0.0166 -0.0477,0.0738 0.0286,0.0745 0.009,0.14966 -0.0429,0.16706 -0.053,0.0177 -0.0659,0.0786 -0.0292,0.13799 0.0519,0.0839 0.0952,0.0809 0.20549,-0.0144 0.0769,-0.0664 0.22549,-0.19164 0.33026,-0.27833 z m -1.24883,0.16729 c 0,-0.0183 -0.0571,-0.0333 -0.127,-0.0333 -0.0699,0 -0.127,0.0369 -0.127,0.082 0,0.0451 0.0572,0.0601 0.127,0.0333 0.0699,-0.0268 0.127,-0.0637 0.127,-0.082 z m -0.96066,-0.38329 c -0.11203,-0.0651 -0.1828,-0.0644 -0.24977,0.003 -0.0681,0.0681 -0.0258,0.0928 0.15633,0.0909 0.21896,-0.002 0.23048,-0.0138 0.0934,-0.0934 z m 1.38154,0.0147 c 0.22071,-0.13958 0.036,-0.18002 -0.21778,-0.0477 -0.19614,0.10228 -0.21142,0.12783 -0.0761,0.12722 0.0931,-8.5e-4 0.22538,-0.0362 0.29388,-0.0795 z m 76.287109,-0.17264 c 0,-0.0466 -0.0381,-0.0847 -0.0847,-0.0847 -0.0466,0 -0.0847,0.0381 -0.0847,0.0847 0,0.0466 0.0381,0.0847 0.0847,0.0847 0.0466,0 0.0847,-0.0381 0.0847,-0.0847 z m -76.685599,-0.0506 c 0.0278,-0.0278 0.0289,-0.10723 0.002,-0.17643 -0.0394,-0.10255 -0.0615,-0.10494 -0.11987,-0.0129 -0.12479,0.19686 -0.0349,0.34171 0.11754,0.18931 z m -0.36106,-0.11872 c 0,-0.0466 -0.0358,-0.0847 -0.0797,-0.0847 -0.0438,0 -0.10322,0.0381 -0.13199,0.0847 -0.0288,0.0466 0.007,0.0847 0.0797,0.0847 0.0726,0 0.13199,-0.0381 0.13199,-0.0847 z m -0.42333,-0.0847 c 0,-0.0466 -0.0381,-0.0847 -0.0847,-0.0847 -0.0466,0 -0.0847,0.0381 -0.0847,0.0847 0,0.0466 0.0381,0.0847 0.0847,0.0847 0.0466,0 0.0847,-0.0381 0.0847,-0.0847 z m 2.58233,0 c -0.0288,-0.0466 -0.10723,-0.0847 -0.17433,-0.0847 -0.0671,0 -0.122,0.0381 -0.122,0.0847 0,0.0466 0.0785,0.0847 0.17433,0.0847 0.0959,0 0.15078,-0.0381 0.122,-0.0847 z m -1.56633,-0.33601 c 0,-0.0451 -0.0572,-0.0601 -0.127,-0.0333 -0.0699,0.0268 -0.127,0.0637 -0.127,0.082 0,0.0183 0.0572,0.0333 0.127,0.0333 0.0699,0 0.127,-0.0369 0.127,-0.082 z m -0.0847,-0.24874 c 0,-0.0422 0.0762,-0.0568 0.16934,-0.0325 0.0931,0.0244 0.16933,0.004 0.16933,-0.0453 0,-0.15563 -0.15618,-0.19385 -0.33522,-0.082 -0.18346,0.11456 -0.22888,0.2365 -0.0881,0.2365 0.0466,0 0.0847,-0.0345 0.0847,-0.0767 z m 28.64744,-1.50243 c 0.14642,-0.12348 0.25503,-0.27588 0.24135,-0.33867 -0.0147,-0.0675 0.048,-0.11415 0.15327,-0.11415 0.17649,0 1.43794,-1.20906 1.43794,-1.37823 0,-0.0446 0.1143,-0.21126 0.254,-0.37038 0.16136,-0.18377 0.254,-0.38183 0.254,-0.543 0,-0.14553 0.0533,-0.27415 0.12492,-0.30164 0.14594,-0.056 0.39994,-0.52832 0.338,-0.62852 -0.0233,-0.0377 -0.005,-0.0918 0.0414,-0.12032 0.0969,-0.0599 0.26037,-0.41625 0.46699,-1.01825 0.0799,-0.23283 0.199,-0.54368 0.26462,-0.69078 0.0656,-0.14709 0.0962,-0.32774 0.0679,-0.40144 -0.031,-0.0807 0.003,-0.15476 0.0844,-0.18613 0.0747,-0.0286 0.13579,-0.0993 0.13579,-0.15704 0,-0.0577 0.0615,-0.2283 0.13677,-0.37909 0.0988,-0.19813 0.11114,-0.29981 0.0443,-0.3666 -0.0668,-0.0668 -0.0654,-0.12503 0.005,-0.21001 0.13005,-0.1567 0.14924,-0.37486 0.14717,-1.67291 -0.004,-2.36322 -0.38071,-3.79244 -1.66356,-6.30766 -1.12505,-2.20586 -1.09279,-2.15458 -1.87351,-2.97706 -0.54791,-0.57723 -0.9487,-0.89616 -1.79027,-1.4247 -0.59637,-0.37454 -1.25024,-0.73425 -1.45304,-0.79935 -0.20281,-0.0651 -0.65038,-0.23653 -0.99462,-0.38096 -0.34423,-0.14443 -1.02028,-0.33335 -1.50233,-0.41982 -0.48205,-0.0865 -0.92848,-0.2004 -0.99208,-0.25318 -0.18243,-0.1514 -1.95197,-0.37852 -2.98173,-0.3827 l -0.93735,-0.004 -0.31307,0.30406 c -0.19614,0.19049 -0.29451,0.35241 -0.26337,0.43355 0.0273,0.0712 0.0107,0.15363 -0.037,0.18312 -0.0477,0.0295 -0.0638,0.11338 -0.0358,0.18643 0.028,0.0731 -8.4e-4,0.16464 -0.0634,0.20352 -0.075,0.0464 -0.10633,0.20159 -0.091,0.45093 0.0191,0.31015 -0.008,0.39727 -0.14928,0.47264 -0.14475,0.0775 -0.15911,0.12805 -0.0889,0.31284 0.0466,0.12271 0.052,0.26277 0.012,0.31595 -0.0932,0.12398 -0.29845,1.6328 -0.2359,1.73401 0.0571,0.0924 0.84408,0.19917 1.43414,0.19461 0.23213,-0.002 0.53955,0.0445 0.68316,0.10296 0.14361,0.0584 0.47383,0.15611 0.73383,0.21707 0.50099,0.11745 0.59026,0.25202 0.33866,0.51051 -0.28188,0.28961 -0.85234,1.16186 -0.79643,1.21778 0.0881,0.0881 -0.086,0.42857 -0.35845,0.70108 -0.15501,0.15501 -0.24825,0.30259 -0.20721,0.32795 0.13137,0.0812 0.0141,0.39208 -0.2256,0.59804 -0.12782,0.10984 -0.20724,0.22487 -0.17647,0.25563 0.0308,0.0308 -0.0582,0.27043 -0.19782,0.53258 -0.34197,0.64239 -0.56796,1.08429 -0.77021,1.50607 -0.0929,0.19365 -0.23206,0.42225 -0.30935,0.508 -0.0773,0.0857 -0.1458,0.21306 -0.15227,0.28291 -0.006,0.0698 -0.0373,0.18893 -0.0685,0.26462 -0.0354,0.0857 0.0195,0.22626 0.14545,0.37269 l 0.20219,0.23506 1.17864,-0.007 c 0.64826,-0.004 1.97876,-0.0323 2.95666,-0.0635 0.9779,-0.0312 2.15603,-0.0631 2.61806,-0.0709 0.58033,-0.01 0.85082,-0.0465 0.87489,-0.11864 0.0508,-0.15244 0.19005,-0.12782 0.19005,0.0336 0,0.10953 0.059,0.12849 0.28563,0.0917 0.24667,-0.04 0.31177,-0.011 0.47731,0.21291 0.19343,0.26164 0.30689,0.95337 0.17022,1.03783 -0.0388,0.024 -0.0508,0.11933 -0.0266,0.21185 0.0264,0.10085 -0.005,0.18689 -0.0775,0.21483 -0.0819,0.0314 -0.10901,0.13151 -0.0832,0.30748 0.0899,0.61269 -0.38661,1.89003 -1.13606,3.04522 -0.20016,0.30851 -0.42285,0.58354 -0.49488,0.61118 -0.072,0.0276 -0.13096,0.11023 -0.13096,0.18352 0,0.16707 -0.52823,0.88436 -1.05299,1.4299 -0.40685,0.42294 -0.68937,0.79973 -0.63065,0.84108 0.43817,0.30857 0.79951,0.44445 1.93764,0.72858 1.25475,0.31325 2.30184,0.59762 2.38127,0.64671 0.11423,0.0706 0.89997,0.26729 1.12017,0.28041 0.0864,0.005 0.27691,-0.0917 0.42333,-0.21514 z m 1.15523,-9.93549 c 0,-0.0466 0.0762,-0.0847 0.16933,-0.0847 0.0931,0 0.16933,0.0381 0.16933,0.0847 0,0.0466 -0.0762,0.0847 -0.16933,0.0847 -0.0931,0 -0.16933,-0.0381 -0.16933,-0.0847 z m 1.30996,-0.004 c -0.0275,-0.0445 -0.0189,-0.0808 0.019,-0.0808 0.0873,0 0.3136,-0.5023 0.25344,-0.56245 -0.0246,-0.0246 -0.0864,0.0331 -0.13728,0.12822 -0.0559,0.10446 -0.21787,0.19552 -0.40903,0.22996 -0.17406,0.0313 -0.36409,0.0948 -0.4223,0.14101 -0.0757,0.0601 -0.10583,0.0449 -0.10583,-0.0534 0,-0.079 0.069,-0.13736 0.1624,-0.13736 0.0893,0 0.2238,-0.0236 0.29883,-0.0523 0.12264,-0.0471 0.12121,-0.0644 -0.0142,-0.17164 -0.11407,-0.0903 -0.11982,-0.11401 -0.0237,-0.0975 0.12635,0.0217 0.63648,-0.42489 0.56595,-0.49541 -0.0877,-0.0877 -0.65062,-0.13084 -0.65062,-0.0499 0,0.0477 0.0572,0.10861 0.127,0.13541 0.22634,0.0869 0.13461,0.18952 -0.16933,0.18952 -0.37211,0 -0.59792,0.18447 -0.31604,0.25818 0.21915,0.0573 0.24544,0.15926 0.0595,0.23063 -0.0846,0.0324 -0.16282,-0.0232 -0.22526,-0.16028 -0.10146,-0.22269 -0.19433,-0.26422 -0.28017,-0.12533 -0.0288,0.0466 -0.01,0.0847 0.0423,0.0847 0.0521,0 0.072,0.0367 0.0442,0.0816 -0.0281,0.0455 -0.12385,0.008 -0.21666,-0.0847 -0.0914,-0.0914 -0.29007,-0.17188 -0.44141,-0.17878 -0.15134,-0.007 -0.34801,-0.0164 -0.43702,-0.0212 -0.089,-0.005 -0.17574,-0.0497 -0.19271,-0.0999 -0.0203,-0.06 0.17007,-0.0881 0.5553,-0.0821 0.47667,0.007 0.60371,-0.019 0.68025,-0.14157 0.10966,-0.17558 0.0867,-0.18292 -0.18489,-0.0592 -0.16183,0.0737 -0.26182,0.0573 -0.51455,-0.0847 -0.30784,-0.1729 -0.7446,-0.26209 -0.4882,-0.0997 0.1366,0.0865 0.0551,0.26217 -0.12168,0.26217 -0.0671,0 -0.122,0.0689 -0.122,0.1531 0,0.12638 -0.0623,0.14992 -0.35721,0.13487 -0.19647,-0.01 -0.37117,-0.0601 -0.38823,-0.1113 -0.0171,-0.0512 -0.0582,-0.0763 -0.0913,-0.0558 -0.0332,0.0205 -0.11564,0.002 -0.18326,-0.0405 -0.0981,-0.062 -0.0878,-0.078 0.0506,-0.0791 0.2057,-0.002 0.37809,-0.15236 0.32777,-0.28678 -0.0518,-0.13824 0.50351,-0.49172 0.6713,-0.42734 0.0768,0.0295 0.13969,0.013 0.13969,-0.0367 0,-0.0497 0.1524,-0.13598 0.33867,-0.19178 0.23579,-0.0707 0.33867,-0.14884 0.33867,-0.25741 0,-0.0858 0.0473,-0.1464 0.10502,-0.13476 0.0578,0.0116 0.16253,-0.10184 0.23283,-0.25217 0.0703,-0.15034 0.15864,-0.27416 0.19631,-0.27517 0.0377,-10e-4 0.045,0.0363 0.0162,0.0828 -0.0288,0.0466 0.007,0.0847 0.0787,0.0847 0.19109,0 0.46397,0.26009 0.4128,0.39346 -0.0257,0.067 0.0125,0.11454 0.0921,0.11454 0.17522,0 0.17334,-0.11995 -0.005,-0.29796 -0.11896,-0.11897 -0.12223,-0.15245 -0.0212,-0.21642 0.1493,-0.0945 0.34016,-0.0969 0.48341,-0.006 0.0877,0.0557 0.0835,0.0916 -0.0212,0.1784 -0.0721,0.0598 -0.131,0.13784 -0.131,0.17341 0,0.10821 0.54548,0.15456 0.61142,0.052 0.0439,-0.0683 0.10202,-0.0695 0.20663,-0.004 0.23279,0.1451 0.23398,0.29029 0.002,0.29029 -0.11532,0 -0.23282,0.0603 -0.26112,0.13407 -0.0327,0.0853 -0.0129,0.12094 0.0545,0.098 0.0582,-0.0198 0.25829,0.0431 0.44455,0.13992 l 0.33867,0.17602 -0.24708,0.0435 c -0.22305,0.0393 -0.24776,0.0765 -0.254,0.38217 -0.005,0.26302 0.0248,0.33891 0.13527,0.33975 0.24419,0.002 0.21527,0.0716 -0.19971,0.48192 -0.22159,0.21907 -0.42538,0.36195 -0.45285,0.3175 z m -3.0033,-1.01485 c 0,-0.10913 -0.24122,-0.20768 -0.3187,-0.1302 -0.0316,0.0316 -0.001,0.0928 0.0672,0.13617 0.16389,0.10365 0.25154,0.10157 0.25154,-0.006 z m 0.41011,-0.46816 c -0.046,-0.23743 -0.24077,-0.25038 -0.24077,-0.016 0,0.11253 0.026,0.23064 0.0579,0.26246 0.0899,0.0899 0.21536,-0.0791 0.18292,-0.24645 z m 1.75494,0.0284 c 0.0594,-0.18715 -0.0282,-0.31986 -0.1167,-0.17673 -0.033,0.0534 -0.16273,0.0758 -0.2936,0.0508 -0.17981,-0.0344 -0.21336,-0.0703 -0.14385,-0.15406 0.0553,-0.0666 0.0594,-0.12852 0.0108,-0.15861 -0.0439,-0.0272 -0.10175,0.008 -0.12845,0.0771 -0.0625,0.16285 -0.2232,0.16441 -0.2232,0.002 0,-0.0757 -0.0496,-0.1053 -0.127,-0.0756 -0.0699,0.0268 -0.127,0.13991 -0.127,0.25134 0,0.12365 0.0495,0.20261 0.127,0.20261 0.0699,0 0.12724,0.0286 0.12753,0.0635 0,0.0349 0.19002,0.0673 0.42165,0.072 0.34567,0.007 0.4304,-0.0207 0.47287,-0.15455 z m 0.88295,-0.0612 c 0,-0.16902 -0.40371,-0.51457 -0.54006,-0.46225 -0.23863,0.0916 -0.15894,0.28856 0.11673,0.28856 0.16933,0 0.254,0.0423 0.254,0.127 0,0.0698 0.0381,0.127 0.0847,0.127 0.0466,0 0.0847,-0.0361 0.0847,-0.0803 z m -0.99483,-0.46088 c 0.16383,-0.12437 0.19852,-0.30548 0.0585,-0.30548 -0.0493,0 -0.0677,-0.0355 -0.041,-0.0788 0.0793,-0.12831 -0.0779,-0.17302 -0.34231,-0.0974 -0.25452,0.0729 -0.24956,0.0785 0.19776,0.22455 0.14111,0.0461 0.14111,0.0536 0,0.1575 -0.15342,0.11299 -0.19539,0.21946 -0.0847,0.21476 0.0349,-0.001 0.13018,-0.0533 0.21167,-0.11516 z m -0.99483,1.7696 c -0.27267,-0.0874 -0.30869,-0.12082 -0.18481,-0.17171 0.0846,-0.0347 0.19404,-0.023 0.24315,0.0261 0.0491,0.0491 0.1418,0.0691 0.20598,0.0445 0.0693,-0.0266 0.11668,0.0105 0.11668,0.0913 0,0.0748 -0.01,0.13207 -0.0212,0.12718 -0.0116,-0.005 -0.17357,-0.0577 -0.35983,-0.11737 z m -1.86267,-0.12775 c -0.0288,-0.0466 -0.012,-0.0847 0.0373,-0.0847 0.0493,0 0.0897,0.0381 0.0897,0.0847 0,0.0466 -0.0168,0.0847 -0.0373,0.0847 -0.0205,0 -0.0609,-0.0381 -0.0897,-0.0847 z m 4.56615,-0.85613 c -0.032,-0.0518 -0.006,-0.12739 0.0585,-0.16804 0.18122,-0.11478 0.24368,-0.091 0.24368,0.0928 0,0.18075 -0.20536,0.23185 -0.30218,0.0752 z m -4.35448,-0.50353 c 0,-0.0493 0.0381,-0.0661 0.0847,-0.0373 0.0466,0.0288 0.0847,0.0691 0.0847,0.0897 0,0.0205 -0.0381,0.0373 -0.0847,0.0373 -0.0466,0 -0.0847,-0.0403 -0.0847,-0.0897 z m 0.51414,-0.55676 c -0.21704,-0.27592 -0.21721,-0.30278 -0.003,-0.43674 0.21415,-0.13374 0.38522,-0.0528 0.24513,0.11603 -0.1004,0.12097 -0.10135,0.12025 0.34409,0.26171 0.0953,0.0303 0.0741,0.0698 -0.0847,0.15821 -0.28595,0.15924 -0.30088,0.15629 -0.50186,-0.0992 z m 0.92519,-0.19525 c 0,-0.0438 0.0387,-0.1036 0.0861,-0.13285 0.0473,-0.0292 0.0603,-0.0982 0.0288,-0.15316 -0.0315,-0.055 -0.0261,-0.0717 0.012,-0.0372 0.0381,0.0345 0.12203,0.019 0.18649,-0.0345 0.0883,-0.0733 0.14137,-0.0731 0.21522,8.5e-4 0.0742,0.0742 0.0542,0.098 -0.0825,0.098 -0.1062,0 -0.20269,0.0697 -0.2343,0.16933 -0.0542,0.17075 -0.21167,0.23746 -0.21167,0.0897 z m -0.36689,-0.14611 c -0.0821,-0.0821 -0.0691,-0.28222 0.0183,-0.28222 0.0411,0 0.0947,0.0762 0.11907,0.16934 0.0435,0.16643 -0.0264,0.22388 -0.13742,0.11288 z m -6.37762,-0.1688 c 0.0248,-0.0857 0.0929,-0.32187 0.15131,-0.5249 0.0714,-0.24805 0.20265,-0.44247 0.40012,-0.59266 0.16163,-0.12294 0.37774,-0.30921 0.48026,-0.41393 0.16696,-0.17054 0.23839,-0.18446 0.68478,-0.13341 0.48037,0.055 0.51655,0.0769 1.00189,0.60819 0.28636,0.31346 0.4598,0.56574 0.40216,0.58496 -0.0557,0.0186 -0.10134,0.087 -0.10134,0.15211 0,0.14755 -0.17547,0.19187 -1.18534,0.2994 -1.79649,0.1913 -1.88359,0.19226 -1.83384,0.0202 z m -3.45782,3.44258 c 0.0288,-0.0466 0.012,-0.0847 -0.0373,-0.0847 -0.0493,0 -0.0897,0.0381 -0.0897,0.0847 0,0.0466 0.0168,0.0847 0.0373,0.0847 0.0205,0 0.0609,-0.0381 0.0897,-0.0847 z m -23.66433,-2.35575 c 0,-0.0625 -0.0476,-0.0962 -0.10584,-0.0749 -0.0582,0.0213 -0.0963,0.0817 -0.0847,0.13405 0.0116,0.0524 -0.0382,0.0953 -0.11083,0.0953 -0.0726,0 -0.10893,0.0373 -0.0807,0.0829 0.0677,0.10959 0.38208,-0.0857 0.38208,-0.23735 z m -0.24381,-0.40119 c 0.21735,-0.11239 0.23945,-0.15196 0.14706,-0.26328 -0.0747,-0.09 -0.1191,-0.0999 -0.14187,-0.0316 -0.0182,0.0547 -0.1244,0.13411 -0.23593,0.17652 -0.20275,0.0771 -0.28163,0.25063 -0.11391,0.25063 0.0489,0 0.20397,-0.0595 0.34465,-0.13228 z m -0.26382,-0.6295 c -0.0784,-0.0485 -0.0556,-0.13159 0.0903,-0.32887 0.20629,-0.27902 0.28917,-0.31827 0.37588,-0.17797 0.0292,0.0473 0.0886,0.0641 0.13199,0.0373 0.0434,-0.0268 0.0788,0.008 0.0788,0.0766 0,0.0703 -0.11136,0.14973 -0.254,0.18106 -0.27706,0.0608 -0.32923,0.16468 -0.12256,0.24398 0.17477,0.0671 0.51637,-0.16428 0.5753,-0.38962 0.0601,-0.2298 0.003,-0.32003 -0.20374,-0.32003 -0.17851,0 -0.23166,-0.16296 -0.0585,-0.17936 0.14733,-0.014 0.17103,-0.0101 0.33867,0.0552 0.12067,0.047 0.14816,0.0113 0.14816,-0.19227 0,-0.13747 0.0718,-0.31494 0.15962,-0.39439 0.0878,-0.0795 0.18208,-0.2568 0.20955,-0.39412 0.0308,-0.15407 0.10285,-0.24967 0.18811,-0.24967 0.0837,0 0.12023,-0.0468 0.0926,-0.11866 -0.028,-0.0729 0.0257,-0.1382 0.13911,-0.16933 0.11763,-0.0323 0.15021,-0.0737 0.0898,-0.11418 -0.0522,-0.0349 -0.0849,-0.2159 -0.0728,-0.40217 0.0121,-0.18626 -0.008,-0.39581 -0.0444,-0.46566 -0.0366,-0.0699 -0.0907,-0.37072 -0.12039,-0.66858 -0.0297,-0.29787 -0.0772,-0.57931 -0.10575,-0.62543 -0.19469,-0.31502 -0.45897,-2.33478 -0.57294,-4.37866 -0.14323,-2.5689 -0.14298,-2.94096 0.002,-2.99661 0.10265,-0.0394 0.11541,-0.082 0.0486,-0.16245 -0.22285,-0.26852 -0.095,-2.10002 0.16632,-2.38237 0.041,-0.0442 0.0744,-0.14504 0.0744,-0.22399 0,-0.15683 0.65248,-0.52527 0.78507,-0.44332 0.0471,0.0291 0.0411,0.0731 -0.0145,0.10747 -0.0611,0.0378 0.006,0.1753 0.19019,0.39159 0.39208,0.45955 0.50133,0.69073 1.21783,2.57701 0.77249,2.03369 1.22098,3.33033 1.42033,4.10634 0.0837,0.32596 0.20377,0.63509 0.26673,0.68694 0.063,0.0519 0.15557,0.21213 0.20579,0.35617 0.0707,0.20272 0.12319,0.24672 0.23246,0.19469 0.0776,-0.037 0.29355,-0.1401 0.47982,-0.22918 0.21465,-0.10265 0.34811,-0.22818 0.36446,-0.3428 0.0172,-0.12074 0.10454,-0.19659 0.26276,-0.22823 0.18837,-0.0377 0.27643,-0.13913 0.42933,-0.49457 0.26005,-0.60448 0.26709,-1.37692 0.019,-2.0812 -0.1026,-0.29122 -0.18654,-0.61976 -0.18654,-0.73007 0,-0.18566 -0.088,-0.41965 -0.52354,-1.39279 -0.15987,-0.35719 -0.73265,-1.91884 -0.9525,-2.59696 -0.0604,-0.18627 -0.14993,-0.43392 -0.19899,-0.55034 -0.13725,-0.32572 -0.2128,-0.54201 -0.22178,-0.635 -0.0104,-0.10724 -0.24473,-0.72213 -0.50019,-1.31233 -0.0705,-0.16298 -0.27059,-0.65828 -0.44456,-1.10067 -0.17396,-0.44238 -0.3629,-0.88053 -0.41988,-0.97366 -0.057,-0.0931 -0.17339,-0.37889 -0.25873,-0.635 -0.0853,-0.25612 -0.20178,-0.52282 -0.25877,-0.59267 -0.14211,-0.17417 -0.46151,-0.93133 -0.39287,-0.93133 0.0305,0 -0.004,-0.0476 -0.0774,-0.10584 -0.0731,-0.0582 -0.31396,-0.50588 -0.53527,-0.99483 -0.58951,-1.30243 -0.91286,-1.778 -1.20891,-1.778 -0.13096,0 -0.28266,0.0445 -0.33711,0.099 -0.0755,0.0755 -0.13629,0.0112 -0.25646,-0.2718 l -0.15747,-0.3708 -0.21619,0.5893 c -0.30204,0.82333 -0.40662,1.17023 -0.44558,1.47808 -0.0185,0.1464 -0.0697,0.31112 -0.11373,0.36604 -0.044,0.0549 -0.0988,0.23321 -0.12179,0.39619 -0.023,0.16298 -0.0819,0.41063 -0.13107,0.55033 -0.0898,0.25542 -0.21359,0.8237 -0.35038,1.60867 -0.0406,0.23283 -0.13632,1.01388 -0.21276,1.73567 -0.0764,0.72178 -0.19143,1.75048 -0.25552,2.286 -0.16682,1.3937 -0.23566,3.58078 -0.13325,4.23333 0.0475,0.30268 0.10269,1.49858 0.12264,2.65755 0.0281,1.63428 0.0616,2.1233 0.14932,2.17886 0.0846,0.0536 0.0864,0.072 0.007,0.073 -0.0643,8.5e-4 -0.10583,0.1177 -0.10583,0.29763 0,0.22246 0.0359,0.29633 0.14393,0.29633 0.11195,0 0.12135,0.0226 0.0423,0.1016 -0.1185,0.1185 -0.13959,0.69387 -0.0228,0.62168 0.12076,-0.0746 0.20695,0.12549 0.10008,0.23236 -0.11578,0.11578 -0.12506,0.4837 -0.0122,0.4837 0.0451,0 0.0592,0.0594 0.0313,0.13205 -0.0333,0.0869 0.008,0.1473 0.11982,0.17663 0.11777,0.0308 0.15747,0.0944 0.12837,0.20567 -0.0232,0.0886 -0.0759,0.1402 -0.11716,0.11469 -0.0413,-0.0255 -0.075,0.0153 -0.075,0.0906 0,0.0754 0.0355,0.11507 0.0788,0.0883 0.12654,-0.0782 0.15568,0.0369 0.21348,0.84306 0.0676,0.94341 0.10087,1.05833 0.30608,1.05833 0.09,0 0.16363,0.0345 0.16363,0.0767 0,0.0422 -0.0774,0.0565 -0.17203,0.0317 -0.15953,-0.0417 -0.16782,-0.0181 -0.11415,0.32543 0.0318,0.20373 0.0937,0.39391 0.13759,0.42263 0.0438,0.0287 0.25332,0.0326 0.4655,0.009 0.25828,-0.0291 0.36758,-0.014 0.33068,0.0457 -0.0303,0.049 -0.12173,0.0738 -0.20318,0.0551 -0.0814,-0.0187 -0.2413,0.0446 -0.35523,0.14084 -0.17102,0.14441 -0.18578,0.18842 -0.0847,0.2524 0.10573,0.0669 0.10511,0.0778 -0.004,0.0801 -0.0747,0.002 -0.0922,0.0282 -0.0423,0.0648 0.13578,0.0997 0.30532,0.4432 0.21878,0.4432 -0.0434,0 0.004,0.0934 0.10512,0.2076 0.10126,0.11418 0.19826,0.16693 0.21558,0.11721 0.0173,-0.0497 -0.0157,-0.11958 -0.0735,-0.15525 z m -0.10091,-0.56606 c 0.0611,-0.0245 0.13414,-0.0215 0.16228,0.007 0.0281,0.0281 -0.0219,0.0482 -0.11113,0.0445 -0.0986,-0.004 -0.11869,-0.0241 -0.0511,-0.0512 z m -0.49213,-1.04283 c 0,-0.0466 0.0594,-0.0847 0.132,-0.0847 0.0726,0 0.10845,0.0381 0.0797,0.0847 -0.0288,0.0466 -0.0882,0.0847 -0.132,0.0847 -0.0438,0 -0.0797,-0.0381 -0.0797,-0.0847 z m 0.5093,0.0212 c 8.4e-4,-0.0349 0.0382,-0.12065 0.0834,-0.1905 0.0664,-0.1027 0.0823,-0.0906 0.0834,0.0635 8.4e-4,0.10477 -0.0368,0.1905 -0.0834,0.1905 -0.0466,0 -0.0841,-0.0286 -0.0834,-0.0635 z m -0.2553,-0.4445 c 0,-0.0466 0.0359,-0.0847 0.0797,-0.0847 0.0438,0 0.10322,0.0381 0.132,0.0847 0.0288,0.0466 -0.007,0.0847 -0.0797,0.0847 -0.0726,0 -0.132,-0.0381 -0.132,-0.0847 z m 0.0176,-0.22659 c -0.084,-0.0337 -0.0865,-0.0715 -0.0108,-0.16264 0.14409,-0.17361 0.33184,-0.145 0.33184,0.0506 0,0.1654 -0.1006,0.20053 -0.32103,0.11208 z m 51.713689,-0.65742 c 0,-0.0205 -0.0381,-0.0609 -0.0847,-0.0897 -0.0466,-0.0288 -0.0847,-0.012 -0.0847,0.0373 0,0.0493 0.0381,0.0897 0.0847,0.0897 0.0466,0 0.0847,-0.0168 0.0847,-0.0373 z m -0.16934,-2.41799 c 0,-0.10608 -0.0898,-0.10608 -0.254,0 -0.1027,0.0664 -0.0905,0.0823 0.0635,0.0834 0.10478,8.4e-4 0.1905,-0.0368 0.1905,-0.0834 z m -0.29994,-2.19549 c 0.0268,-0.0433 0.01,-0.10275 -0.0373,-0.13199 -0.0473,-0.0292 -0.0861,0.006 -0.0861,0.0788 0,0.14872 0.0508,0.17062 0.12339,0.0532 z m -12.908049,-7.6077 c 0,-0.0937 -0.0631,-0.15119 -0.16604,-0.15119 -0.15403,0 -0.15615,0.0109 -0.0292,0.15119 0.0753,0.0831 0.14997,0.15119 0.16604,0.15119 0.0161,0 0.0292,-0.068 0.0292,-0.15119 z m -0.508,-0.31448 c 0,-0.0699 -0.0381,-0.127 -0.0847,-0.127 -0.0466,0 -0.0847,0.0571 -0.0847,0.127 0,0.0698 0.0381,0.127 0.0847,0.127 0.0466,0 0.0847,-0.0572 0.0847,-0.127 z m 0.42333,-0.33867 c 0,-0.15522 0.0452,-0.21166 0.16933,-0.21166 0.21998,0 0.21589,-0.12713 -0.009,-0.28477 -0.11733,-0.0822 -0.15444,-0.16362 -0.10828,-0.23764 0.11226,-0.17998 0.12695,-0.42247 0.0325,-0.53629 -0.048,-0.0578 -0.065,-0.1633 -0.0377,-0.23434 0.0273,-0.0711 0.008,-0.1547 -0.0422,-0.18591 -0.0505,-0.0312 -0.0689,-0.0939 -0.0408,-0.13928 0.0281,-0.0454 0.006,-0.13634 -0.0482,-0.20211 -0.0546,-0.0658 -0.0763,-0.15671 -0.0482,-0.2021 0.028,-0.0454 0.0139,-0.10543 -0.0313,-0.13342 -0.0453,-0.028 -0.062,-0.10391 -0.0372,-0.16868 0.0249,-0.0648 -0.0149,-0.35239 -0.0884,-0.63913 -0.0735,-0.28674 -0.13356,-0.63257 -0.13356,-0.76851 0,-0.16325 -0.0431,-0.24716 -0.127,-0.24716 -0.15369,0 -0.16895,-0.13984 -0.0212,-0.19403 0.0847,-0.031 0.0847,-0.0612 0,-0.15098 -0.0582,-0.0617 -0.10583,-0.23792 -0.10583,-0.39159 0,-0.15367 -0.0426,-0.2794 -0.0945,-0.2794 -0.0544,0 -0.0748,-0.0756 -0.048,-0.17786 0.0256,-0.0978 0.0151,-0.25974 -0.0232,-0.35983 -0.0383,-0.10008 -0.15462,-0.46772 -0.25838,-0.81697 -0.10376,-0.34925 -0.21999,-0.7112 -0.2583,-0.80434 -0.0383,-0.0931 -0.10628,-0.34078 -0.15104,-0.55033 -0.15893,-0.74398 -0.42361,-1.62966 -0.51406,-1.7201 -0.0505,-0.0505 -0.0918,-0.15902 -0.0918,-0.24121 0,-0.0822 -0.0619,-0.33174 -0.13757,-0.55457 -0.12964,-0.38177 -0.17955,-0.56839 -0.19462,-0.72762 -0.004,-0.0377 -0.0511,-0.041 -0.10553,-0.007 -0.068,0.0421 -0.0808,0.0137 -0.0408,-0.0906 0.032,-0.0835 0.0146,-0.28977 -0.0387,-0.4584 -0.24401,-0.77191 -0.34803,-1.0809 -0.41672,-1.23791 -0.0408,-0.0931 -0.14892,-0.41698 -0.24035,-0.71966 -0.19321,-0.63958 -0.71426,-1.89942 -1.14096,-2.75869 -0.16378,-0.32982 -0.3984,-0.92037 -0.52136,-1.31233 -0.23476,-0.74835 -0.63946,-1.82975 -0.90248,-2.41155 -0.0856,-0.18933 -0.15561,-0.38935 -0.15561,-0.4445 0,-0.0551 -0.0594,-0.10027 -0.132,-0.10027 -0.0726,0 -0.1116,-0.033 -0.0867,-0.0734 0.0249,-0.0403 -0.0278,-0.13954 -0.11721,-0.22044 -0.0894,-0.0809 -0.18668,-0.25701 -0.21619,-0.39135 -0.0608,-0.27711 -0.13092,-0.3371 -0.43239,-0.37018 -0.25045,-0.0275 -0.48518,-0.21468 -0.26921,-0.21468 0.14596,0 0.26782,-0.22137 0.1906,-0.3463 -0.0675,-0.10923 -0.29161,-0.0958 -0.29161,0.0175 0,0.0549 -0.0877,0.0778 -0.20913,0.0546 -0.17908,-0.0342 -0.22329,0.004 -0.30758,0.26529 -0.0541,0.16791 -0.16305,0.36735 -0.24203,0.44323 -0.079,0.0759 -0.1955,0.26637 -0.25895,0.42334 -0.0634,0.15695 -0.16731,0.31701 -0.23081,0.35568 -0.0868,0.0529 -0.79123,1.36372 -0.79153,1.47299 0,0.0975 -0.7617,1.62649 -0.8315,1.66963 -0.0505,0.0312 -0.0918,0.14758 -0.0918,0.2586 0,0.11103 -0.0683,0.25166 -0.15177,0.31251 -0.0835,0.0608 -0.15785,0.20358 -0.16528,0.31718 -0.007,0.11361 -0.0933,0.31445 -0.19077,0.44631 -0.0975,0.13187 -0.15406,0.27732 -0.12569,0.32322 0.0284,0.0459 -0.0102,0.10715 -0.0857,0.13611 -0.0755,0.029 -0.11719,0.10489 -0.0927,0.16873 0.0702,0.18281 -0.0377,0.37008 -0.2132,0.37008 -0.17718,0 -0.21901,0.13564 -0.0583,0.1892 0.15412,0.0514 -0.27277,0.97478 -0.47569,1.02896 -0.13574,0.0362 -0.14443,0.0645 -0.0535,0.17413 0.0897,0.10804 0.0814,0.17155 -0.0472,0.36412 -0.0857,0.12829 -0.1469,0.26322 -0.13598,0.29984 0.0109,0.0366 -0.0624,0.25769 -0.16285,0.49128 -0.14526,0.33766 -0.2192,0.4199 -0.36086,0.40134 -0.22742,-0.0298 -0.2844,0.12754 -0.0665,0.1838 0.16083,0.0415 0.16047,0.053 -0.019,0.60428 -0.10064,0.30907 -0.2355,0.62524 -0.29971,0.70259 -0.0642,0.0774 -0.12469,0.24358 -0.13444,0.36939 -0.0327,0.42201 -0.68932,2.08972 -0.83424,2.11878 -0.14753,0.0296 -0.19105,0.18429 -0.0519,0.18429 0.11033,0 0.10692,0.10401 -0.013,0.39665 -0.0537,0.13109 -0.10797,0.28918 -0.12055,0.3513 -0.0126,0.0621 -0.0924,0.16618 -0.17749,0.23123 -0.11992,0.0917 -0.13029,0.13436 -0.0462,0.18995 0.0873,0.0578 0.085,0.11681 -0.0121,0.30394 -0.0772,0.14876 -0.13517,0.19205 -0.1613,0.12042 -0.0326,-0.0894 -0.0632,-0.0907 -0.15268,-0.006 -0.0924,0.0871 -0.0883,0.124 0.0234,0.21167 0.12336,0.0968 0.12093,0.15444 -0.0276,0.65648 -0.0896,0.30268 -0.20255,0.66463 -0.25106,0.80433 -0.0485,0.1397 -0.10236,0.3683 -0.11968,0.508 -0.0434,0.35013 -0.17666,0.96022 -0.28312,1.29602 -0.0488,0.15401 -0.0653,0.34123 -0.0366,0.41605 0.0347,0.0905 0.019,0.11555 -0.0469,0.0748 -0.0545,-0.0337 -0.0991,-0.0231 -0.0991,0.0235 0,0.0466 0.0354,0.10656 0.0787,0.13333 0.19435,0.12012 -0.0518,0.72332 -0.29517,0.72332 -0.0742,0 -0.098,0.0773 -0.0719,0.23284 0.0686,0.40789 0.10424,0.45809 0.26586,0.37473 0.39067,-0.2015 2.29787,-0.41877 3.55715,-0.40523 0.47725,0.005 0.86777,-0.006 0.86783,-0.0251 0,-0.1007 0.52408,-2.97359 0.58799,-3.22524 0.0414,-0.16298 0.10021,-0.46778 0.1307,-0.67733 0.14527,-0.99818 0.52562,-2.73377 0.71436,-3.25967 0.0836,-0.23283 0.19933,-0.57573 0.25727,-0.762 0.0579,-0.18626 0.2157,-0.56382 0.35057,-0.83902 0.13487,-0.2752 0.24522,-0.60933 0.24522,-0.74252 0,-0.13318 0.0952,-0.39304 0.21167,-0.57746 0.11641,-0.18441 0.21166,-0.34876 0.21166,-0.36522 0,-0.0165 0.14479,-0.18677 0.32176,-0.37846 0.43527,-0.47149 1.28691,-0.67371 1.28691,-0.30559 0,0.0649 0.0583,0.11794 0.12966,0.11794 0.0713,0 0.15159,0.0572 0.17839,0.127 0.0268,0.0699 0.10625,0.127 0.17655,0.127 0.0906,0 0.11605,0.0615 0.0875,0.21113 -0.0222,0.11612 0.008,0.25139 0.0674,0.3006 0.0593,0.0492 0.13461,0.28757 0.16737,0.5297 0.0328,0.24213 0.16944,0.68363 0.3037,0.98111 0.13426,0.29749 0.24411,0.58381 0.24411,0.63626 0,0.0525 0.0762,0.23755 0.16933,0.41132 0.0931,0.17376 0.16933,0.37374 0.16933,0.44439 0,0.0707 0.0357,0.19461 0.0792,0.27548 0.21377,0.39672 0.33695,0.72509 0.29654,0.79048 -0.0247,0.0399 0.0376,0.18406 0.13833,0.32033 0.10074,0.13627 0.15916,0.28663 0.1298,0.33414 -0.0624,0.10097 0.11213,0.52239 0.21636,0.52239 0.0391,0 0.0711,0.12573 0.0711,0.2794 0,0.15367 0.0325,0.3156 0.0722,0.35984 0.0738,0.0822 0.27743,0.77275 0.30531,1.03533 0.009,0.0802 0.0381,0.20292 0.0658,0.27277 0.0277,0.0699 0.0756,0.3175 0.10657,0.55033 0.15041,1.13203 0.23168,1.60545 0.41424,2.413 0.24258,1.07311 0.25783,1.09721 0.6957,1.09937 0.16058,8.5e-4 0.35035,0.0824 0.48789,0.2099 0.13169,0.12205 0.27972,0.18765 0.35674,0.15808 0.0724,-0.0278 0.22681,0 0.34312,0.0626 0.17942,0.096 0.22345,0.0945 0.29062,-0.01 0.0687,-0.10677 0.0895,-0.10697 0.15737,-0.002 0.0627,0.0974 0.1032,0.10082 0.20414,0.017 0.0877,-0.0728 0.14298,-0.0769 0.18216,-0.0135 0.0309,0.0501 0.11921,0.0805 0.19614,0.0676 0.0769,-0.0129 0.1455,0.0242 0.15237,0.0824 0.0206,0.17513 0.0302,0.1905 0.11831,0.1905 0.0466,0 0.0847,-0.0953 0.0847,-0.21167 z m -0.52388,-0.60817 c 0.0611,-0.0245 0.13415,-0.0215 0.16229,0.007 0.0281,0.0281 -0.0219,0.0482 -0.11113,0.0445 -0.0986,-0.004 -0.11869,-0.0241 -0.0512,-0.0512 z m -0.23812,-0.41282 c 0,-0.0726 0.0381,-0.10845 0.0847,-0.0797 0.0466,0.0288 0.0847,0.0882 0.0847,0.13199 0,0.0438 -0.0381,0.0797 -0.0847,0.0797 -0.0466,0 -0.0847,-0.0594 -0.0847,-0.13199 z m -1.98967,-0.0373 c 0.0288,-0.0466 0.0691,-0.0847 0.0897,-0.0847 0.0205,0 0.0373,0.0381 0.0373,0.0847 0,0.0466 -0.0404,0.0847 -0.0897,0.0847 -0.0493,0 -0.0661,-0.0381 -0.0373,-0.0847 z m -12.14966,-4.74133 c 0,-0.0466 -0.0403,-0.0847 -0.0897,-0.0847 -0.0493,0 -0.0661,0.0381 -0.0373,0.0847 0.0288,0.0466 0.0691,0.0847 0.0897,0.0847 0.0205,0 0.0373,-0.0381 0.0373,-0.0847 z m -14.56267,-3.50867 c 0,-0.0205 -0.0381,-0.0609 -0.0847,-0.0897 -0.0466,-0.0288 -0.0847,-0.012 -0.0847,0.0373 0,0.0493 0.0381,0.0897 0.0847,0.0897 0.0466,0 0.0847,-0.0168 0.0847,-0.0373 z M 110.23599,80.492315 c -0.0288,-0.0466 -0.0977,-0.0841 -0.15316,-0.0834 -0.0606,8.5e-4 -0.0502,0.0341 0.0262,0.0834 0.16265,0.10511 0.19196,0.10511 0.127,0 z M 57.954331,168.45599 c 0,-0.0493 0.0381,-0.0661 0.0847,-0.0373 0.0466,0.0288 0.0847,0.0691 0.0847,0.0897 0,0.0205 -0.0381,0.0373 -0.0847,0.0373 -0.0466,0 -0.0847,-0.0404 -0.0847,-0.0897 z m 50.461319,-4.059 c 0,-0.0466 0.0381,-0.0847 0.0847,-0.0847 0.0466,0 0.0847,0.0381 0.0847,0.0847 0,0.0466 -0.0381,0.0847 -0.0847,0.0847 -0.0466,0 -0.0847,-0.0381 -0.0847,-0.0847 z m 15.32467,-9.56734 c 0,-0.0466 0.0381,-0.0847 0.0847,-0.0847 0.0466,0 0.0847,0.0381 0.0847,0.0847 0,0.0466 -0.0381,0.0847 -0.0847,0.0847 -0.0466,0 -0.0847,-0.0381 -0.0847,-0.0847 z m -0.762,-0.127 c 0,-0.0699 0.0381,-0.127 0.0847,-0.127 0.0466,0 0.0847,0.0571 0.0847,0.127 0,0.0698 -0.0381,0.127 -0.0847,0.127 -0.0466,0 -0.0847,-0.0572 -0.0847,-0.127 z m -0.88815,-0.12838 c 0.0292,-0.0473 0.0887,-0.0641 0.132,-0.0373 0.11743,0.0726 0.0955,0.12339 -0.0532,0.12339 -0.0726,0 -0.10807,-0.0387 -0.0788,-0.0861 z m -2.51439,-0.31045 c 0.0611,-0.0245 0.13414,-0.0215 0.16228,0.007 0.0281,0.0281 -0.0219,0.0482 -0.11113,0.0445 -0.0986,-0.004 -0.11869,-0.0241 -0.0512,-0.0512 z m -2.27013,-1.04783 c 0,-0.0493 0.0381,-0.0661 0.0847,-0.0373 0.0466,0.0288 0.0847,0.0691 0.0847,0.0897 0,0.0205 -0.0381,0.0373 -0.0847,0.0373 -0.0466,0 -0.0847,-0.0403 -0.0847,-0.0897 z m 12.954,-1.26001 c 0,-0.0438 0.0377,-0.10295 0.0837,-0.13139 0.048,-0.0297 0.0622,0.004 0.0333,0.0797 -0.0563,0.14667 -0.11698,0.17351 -0.11698,0.0517 z m -16.002,-0.0897 c 0,-0.0466 0.0381,-0.0847 0.0847,-0.0847 0.0466,0 0.0847,0.0381 0.0847,0.0847 0,0.0466 -0.0381,0.0847 -0.0847,0.0847 -0.0466,0 -0.0847,-0.0381 -0.0847,-0.0847 z m -0.381,-0.0847 c 0.0288,-0.0466 0.0691,-0.0847 0.0897,-0.0847 0.0205,0 0.0373,0.0381 0.0373,0.0847 0,0.0466 -0.0403,0.0847 -0.0897,0.0847 -0.0493,0 -0.0661,-0.0381 -0.0373,-0.0847 z m -60.748319,-3.302 c 0,-0.15804 0.0226,-0.18062 0.1016,-0.1016 0.079,0.079 0.079,0.12418 0,0.2032 -0.079,0.079 -0.1016,0.0564 -0.1016,-0.1016 z m 90.916109,-0.3965 c 0.0611,-0.0245 0.13415,-0.0214 0.16228,0.007 0.0281,0.0281 -0.0219,0.0482 -0.11112,0.0445 -0.0986,-0.004 -0.1187,-0.0241 -0.0512,-0.0512 z m -91.370589,-0.83675 c -0.12282,-0.36049 -0.12193,-0.38458 0.0132,-0.35682 0.10057,0.0206 0.13778,0.0982 0.12156,0.25322 -0.0128,0.1229 0.0157,0.24762 0.0635,0.27716 0.1074,0.0664 0.1144,0.21303 0.0102,0.21303 -0.0422,0 -0.13599,-0.17397 -0.20844,-0.38659 z m -0.13819,-0.62442 c 0,-0.0959 0.0381,-0.17433 0.0847,-0.17433 0.0466,0 0.0847,0.0549 0.0847,0.12201 0,0.0671 -0.0381,0.14555 -0.0847,0.17433 -0.0466,0.0288 -0.0847,-0.0261 -0.0847,-0.12201 z m -0.12279,-0.44949 c -0.10307,-0.3325 -0.0999,-0.5715 0.008,-0.5715 0.0655,0 0.11526,0.0885 0.11526,0.20474 0,0.1126 0.0231,0.265 0.0514,0.33866 0.0283,0.0738 0.008,0.13393 -0.045,0.13393 -0.053,0 -0.11115,-0.0476 -0.12919,-0.10583 z m -0.21588,-1.24884 c 0,-0.0931 0.0381,-0.16933 0.0847,-0.16933 0.0466,0 0.0847,0.0762 0.0847,0.16933 0,0.0931 -0.0381,0.16934 -0.0847,0.16934 -0.0466,0 -0.0847,-0.0762 -0.0847,-0.16934 z m -0.84666,-5.63033 c 0,-0.0698 0.0381,-0.127 0.0847,-0.127 0.0466,0 0.0847,0.0572 0.0847,0.127 0,0.0699 -0.0381,0.127 -0.0847,0.127 -0.0466,0 -0.0847,-0.0571 -0.0847,-0.127 z m -0.16934,-1.98967 c 0,-0.0466 0.0381,-0.0847 0.0847,-0.0847 0.0466,0 0.0847,0.0381 0.0847,0.0847 0,0.0466 -0.0381,0.0847 -0.0847,0.0847 -0.0466,0 -0.0847,-0.0381 -0.0847,-0.0847 z m 93.133329,-2.794 c 0,-0.0466 0.0381,-0.0847 0.0847,-0.0847 0.0466,0 0.0847,0.0381 0.0847,0.0847 0,0.0466 -0.0381,0.0847 -0.0847,0.0847 -0.0466,0 -0.0847,-0.0381 -0.0847,-0.0847 z m -0.20805,-1.43348 c -0.0268,-0.0433 -0.01,-0.10275 0.0373,-0.132 0.0473,-0.0292 0.0861,0.006 0.0861,0.0788 0,0.14872 -0.0508,0.17061 -0.12338,0.0532 z m -4.27929,-13.55252 c 0,-0.0466 0.0359,-0.0847 0.0797,-0.0847 0.0438,0 0.10321,0.0381 0.13199,0.0847 0.0288,0.0466 -0.007,0.0847 -0.0797,0.0847 -0.0726,0 -0.132,-0.0381 -0.132,-0.0847 z m -1.65448,-3.81563 c -0.0307,-0.0497 -0.0355,-0.11063 -0.0106,-0.13548 0.0607,-0.0607 0.22578,0.0462 0.22578,0.14611 0,0.1082 -0.14617,0.10098 -0.21515,-0.0106 z m -2.83285,-4.91003 c 0,-0.0493 0.0381,-0.0661 0.0847,-0.0373 0.0466,0.0288 0.0847,0.0691 0.0847,0.0897 0,0.0205 -0.0381,0.0373 -0.0847,0.0373 -0.0466,0 -0.0847,-0.0404 -0.0847,-0.0897 z m -10.541,-14.981005 c 0.0288,-0.0466 0.0691,-0.0847 0.0897,-0.0847 0.0205,0 0.0373,0.0381 0.0373,0.0847 0,0.0466 -0.0403,0.0847 -0.0897,0.0847 -0.0493,0 -0.0661,-0.0381 -0.0373,-0.0847 z m -1.94733,-2.286 c -0.0288,-0.0466 0.009,-0.0847 0.0847,-0.0847 0.0753,0 0.11344,0.0381 0.0847,0.0847 -0.0288,0.0466 -0.0669,0.0847 -0.0847,0.0847 -0.0178,0 -0.0559,-0.0381 -0.0847,-0.0847 z m -7.02031,-7.43931 c -0.0365,-0.059 -0.0435,-0.13015 -0.0155,-0.1581 0.0758,-0.0758 0.15839,0.0357 0.11747,0.15844 -0.0287,0.086 -0.0486,0.086 -0.10197,0 z m -7.54236,-7.63136 c -0.0288,-0.0466 -0.012,-0.0847 0.0373,-0.0847 0.0493,0 0.0897,0.0381 0.0897,0.0847 0,0.0466 -0.0168,0.0847 -0.0373,0.0847 -0.0205,0 -0.0609,-0.0381 -0.0897,-0.0847 z M 95.546321,58.690575 c 0,-0.0699 0.0381,-0.127 0.0847,-0.127 0.0466,0 0.0847,0.0572 0.0847,0.127 0,0.0699 -0.0381,0.127 -0.0847,0.127 -0.0466,0 -0.0847,-0.0572 -0.0847,-0.127 z m -0.13156,-0.72704 c -0.0313,-0.0506 -0.0196,-0.12934 0.026,-0.17493 0.0541,-0.0541 0.0988,-0.0221 0.12863,0.0921 0.0481,0.18383 -0.0573,0.24033 -0.15463,0.0829 z m -5.0331,-5.15729 c 0,-0.0466 0.0785,-0.0847 0.17433,-0.0847 0.0959,0 0.15078,0.0381 0.122,0.0847 -0.0288,0.0466 -0.10723,0.0847 -0.17433,0.0847 -0.0671,0 -0.122,-0.0381 -0.122,-0.0847 z"
       id="path353"
       clip-path="url(#clipPath963)"
       transform="matrix(1.3030397,0,0,1.3030397,-16.179778,-30.494138)" /><rect
       style="fill:none;fill-opacity:1;stroke:#d1b67f;stroke-width:2.60608;stroke-linecap:round;stroke-dasharray:none;stroke-opacity:1;paint-order:stroke fill markers;stop-color:#000000"
       id="rect967"
       width="147.39392"
       height="172.66228"
       x="31.941023"
       y="56.423317" /><text
       xml:space="preserve"
       style="font-style:normal;font-weight:normal;font-size:12.7px;line-height:0.85;font-family:sans-serif;fill:#d1b67f;fill-opacity:1;stroke:none;stroke-width:0.264583"
       x="181.41055"
       y="243.96129"
       id="text1027"><tspan
         sodipodi:role="line"
         id="tspan1025"
         style="font-style:normal;font-variant:normal;font-weight:bold;font-stretch:normal;font-size:12.7px;font-family:'Fantasque Sans Mono';-inkscape-font-specification:'Fantasque Sans Mono';text-align:end;text-anchor:end;fill:#d1b67f;fill-opacity:1;stroke-width:0.264583"
         x="181.41055"
         y="243.96129">oma install nya</tspan><tspan
         sodipodi:role="line"
         style="font-style:normal;font-variant:normal;font-weight:bold;font-stretch:normal;font-size:12.7px;font-family:'Fantasque Sans Mono';-inkscape-font-specification:'Fantasque Sans Mono';text-align:end;text-anchor:end;fill:#d1b67f;fill-opacity:1;stroke-width:0.264583"
         x="181.41055"
         y="255.70035"
         id="tspan1029">sudo !!</tspan></text></g></svg>
