<?xml version="1.0" encoding="UTF-8" standalone="no"?>
<!-- Created with Inkscape (http://www.inkscape.org/) -->

<svg
   width="512"
   height="512"
   viewBox="0 0 135.46667 135.46667"
   version="1.1"
   id="svg5"
   inkscape:version="1.2.1 (9c6d41e410, 2022-07-14)"
   sodipodi:docname="works_on_my_machine.svg"
   xml:space="preserve"
   xmlns:inkscape="http://www.inkscape.org/namespaces/inkscape"
   xmlns:sodipodi="http://sodipodi.sourceforge.net/DTD/sodipodi-0.dtd"
   xmlns:xlink="http://www.w3.org/1999/xlink"
   xmlns="http://www.w3.org/2000/svg"
   xmlns:svg="http://www.w3.org/2000/svg"><sodipodi:namedview
     id="namedview7"
     pagecolor="#505050"
     bordercolor="#ffffff"
     borderopacity="1"
     inkscape:showpageshadow="0"
     inkscape:pageopacity="0"
     inkscape:pagecheckerboard="1"
     inkscape:deskcolor="#505050"
     inkscape:document-units="px"
     showgrid="false"
     inkscape:zoom="0.40637631"
     inkscape:cx="-433.09611"
     inkscape:cy="215.31767"
     inkscape:window-width="1920"
     inkscape:window-height="1031"
     inkscape:window-x="4096"
     inkscape:window-y="0"
     inkscape:window-maximized="1"
     inkscape:current-layer="layer1" /><defs
     id="defs2"><linearGradient
       inkscape:collect="always"
       id="linearGradient10168"><stop
         style="stop-color:#efe166;stop-opacity:1;"
         offset="0.37516978"
         id="stop10164" /><stop
         style="stop-color:#f6f6f6;stop-opacity:1;"
         offset="1"
         id="stop10166" /></linearGradient><linearGradient
       id="linearGradient9924"
       inkscape:swatch="solid"><stop
         style="stop-color:#3c3c37;stop-opacity:1;"
         offset="0"
         id="stop9922" /></linearGradient><linearGradient
       inkscape:collect="always"
       xlink:href="#linearGradient10168"
       id="linearGradient10170"
       x1="17.802988"
       y1="47.992413"
       x2="10.413886"
       y2="-24.518105"
       gradientUnits="userSpaceOnUse" /><filter
       style="color-interpolation-filters:sRGB;"
       inkscape:label="Drop Shadow"
       id="filter18958"
       x="-0.10774006"
       y="-0.10476342"
       width="1.2154801"
       height="1.2095268"><feFlood
         flood-opacity="1"
         flood-color="rgb(0,0,0)"
         result="flood"
         id="feFlood18948" /><feComposite
         in="flood"
         in2="SourceGraphic"
         operator="out"
         result="composite1"
         id="feComposite18950" /><feGaussianBlur
         in="composite1"
         stdDeviation="0.7"
         result="blur"
         id="feGaussianBlur18952" /><feOffset
         dx="0"
         dy="0"
         result="offset"
         id="feOffset18954" /><feComposite
         in="offset"
         in2="SourceGraphic"
         operator="atop"
         result="composite2"
         id="feComposite18956" /></filter><filter
       style="color-interpolation-filters:sRGB;"
       inkscape:label="Drop Shadow"
       id="filter18970"
       x="-0.16011663"
       y="-0.15365431"
       width="1.3202333"
       height="1.3073086"><feFlood
         flood-opacity="1"
         flood-color="rgb(0,0,0)"
         result="flood"
         id="feFlood18960" /><feComposite
         in="flood"
         in2="SourceGraphic"
         operator="out"
         result="composite1"
         id="feComposite18962" /><feGaussianBlur
         in="composite1"
         stdDeviation="0.7"
         result="blur"
         id="feGaussianBlur18964" /><feOffset
         dx="0"
         dy="0"
         result="offset"
         id="feOffset18966" /><feComposite
         in="offset"
         in2="SourceGraphic"
         operator="atop"
         result="composite2"
         id="feComposite18968" /></filter><filter
       style="color-interpolation-filters:sRGB;"
       inkscape:label="Drop Shadow"
       id="filter18982"
       x="-0.27316309"
       y="-0.1398777"
       width="1.5463262"
       height="1.2797554"><feFlood
         flood-opacity="1"
         flood-color="rgb(0,0,0)"
         result="flood"
         id="feFlood18972" /><feComposite
         in="flood"
         in2="SourceGraphic"
         operator="out"
         result="composite1"
         id="feComposite18974" /><feGaussianBlur
         in="composite1"
         stdDeviation="0.7"
         result="blur"
         id="feGaussianBlur18976" /><feOffset
         dx="0"
         dy="0"
         result="offset"
         id="feOffset18978" /><feComposite
         in="offset"
         in2="SourceGraphic"
         operator="atop"
         result="composite2"
         id="feComposite18980" /></filter><filter
       style="color-interpolation-filters:sRGB;"
       inkscape:label="Drop Shadow"
       id="filter18994"
       x="-0.17361466"
       y="-0.11129099"
       width="1.3472293"
       height="1.222582"><feFlood
         flood-opacity="1"
         flood-color="rgb(0,0,0)"
         result="flood"
         id="feFlood18984" /><feComposite
         in="flood"
         in2="SourceGraphic"
         operator="out"
         result="composite1"
         id="feComposite18986" /><feGaussianBlur
         in="composite1"
         stdDeviation="0.7"
         result="blur"
         id="feGaussianBlur18988" /><feOffset
         dx="0"
         dy="0"
         result="offset"
         id="feOffset18990" /><feComposite
         in="offset"
         in2="SourceGraphic"
         operator="atop"
         result="composite2"
         id="feComposite18992" /></filter><filter
       style="color-interpolation-filters:sRGB;"
       inkscape:label="Drop Shadow"
       id="filter19006"
       x="-0.18630705"
       y="-0.15348586"
       width="1.3726141"
       height="1.3069717"><feFlood
         flood-opacity="1"
         flood-color="rgb(0,0,0)"
         result="flood"
         id="feFlood18996" /><feComposite
         in="flood"
         in2="SourceGraphic"
         operator="out"
         result="composite1"
         id="feComposite18998" /><feGaussianBlur
         in="composite1"
         stdDeviation="0.7"
         result="blur"
         id="feGaussianBlur19000" /><feOffset
         dx="0"
         dy="0"
         result="offset"
         id="feOffset19002" /><feComposite
         in="offset"
         in2="SourceGraphic"
         operator="atop"
         result="composite2"
         id="feComposite19004" /></filter><filter
       style="color-interpolation-filters:sRGB;"
       inkscape:label="Drop Shadow"
       id="filter19018"
       x="-0.15951796"
       y="-0.15351356"
       width="1.3190359"
       height="1.3070271"><feFlood
         flood-opacity="1"
         flood-color="rgb(0,0,0)"
         result="flood"
         id="feFlood19008" /><feComposite
         in="flood"
         in2="SourceGraphic"
         operator="out"
         result="composite1"
         id="feComposite19010" /><feGaussianBlur
         in="composite1"
         stdDeviation="0.7"
         result="blur"
         id="feGaussianBlur19012" /><feOffset
         dx="0"
         dy="0"
         result="offset"
         id="feOffset19014" /><feComposite
         in="offset"
         in2="SourceGraphic"
         operator="atop"
         result="composite2"
         id="feComposite19016" /></filter><filter
       style="color-interpolation-filters:sRGB;"
       inkscape:label="Drop Shadow"
       id="filter19030"
       x="-0.13237414"
       y="-0.12433711"
       width="1.2647483"
       height="1.2486742"><feFlood
         flood-opacity="1"
         flood-color="rgb(0,0,0)"
         result="flood"
         id="feFlood19020" /><feComposite
         in="flood"
         in2="SourceGraphic"
         operator="out"
         result="composite1"
         id="feComposite19022" /><feGaussianBlur
         in="composite1"
         stdDeviation="0.7"
         result="blur"
         id="feGaussianBlur19024" /><feOffset
         dx="0"
         dy="0"
         result="offset"
         id="feOffset19026" /><feComposite
         in="offset"
         in2="SourceGraphic"
         operator="atop"
         result="composite2"
         id="feComposite19028" /></filter><filter
       style="color-interpolation-filters:sRGB;"
       inkscape:label="Drop Shadow"
       id="filter19042"
       x="-0.080681252"
       y="-0.11565782"
       width="1.1613625"
       height="1.2313156"><feFlood
         flood-opacity="1"
         flood-color="rgb(0,0,0)"
         result="flood"
         id="feFlood19032" /><feComposite
         in="flood"
         in2="SourceGraphic"
         operator="out"
         result="composite1"
         id="feComposite19034" /><feGaussianBlur
         in="composite1"
         stdDeviation="0.7"
         result="blur"
         id="feGaussianBlur19036" /><feOffset
         dx="0"
         dy="0"
         result="offset"
         id="feOffset19038" /><feComposite
         in="offset"
         in2="SourceGraphic"
         operator="atop"
         result="composite2"
         id="feComposite19040" /></filter><filter
       style="color-interpolation-filters:sRGB;"
       inkscape:label="Drop Shadow"
       id="filter19054"
       x="-0.12071511"
       y="-0.081509809"
       width="1.2414302"
       height="1.1630196"><feFlood
         flood-opacity="1"
         flood-color="rgb(0,0,0)"
         result="flood"
         id="feFlood19044" /><feComposite
         in="flood"
         in2="SourceGraphic"
         operator="out"
         result="composite1"
         id="feComposite19046" /><feGaussianBlur
         in="composite1"
         stdDeviation="0.7"
         result="blur"
         id="feGaussianBlur19048" /><feOffset
         dx="0"
         dy="0"
         result="offset"
         id="feOffset19050" /><feComposite
         in="offset"
         in2="SourceGraphic"
         operator="atop"
         result="composite2"
         id="feComposite19052" /></filter><filter
       style="color-interpolation-filters:sRGB;"
       inkscape:label="Drop Shadow"
       id="filter19066"
       x="-0.09660568"
       y="-0.099885"
       width="1.1932114"
       height="1.19977"><feFlood
         flood-opacity="1"
         flood-color="rgb(0,0,0)"
         result="flood"
         id="feFlood19056" /><feComposite
         in="flood"
         in2="SourceGraphic"
         operator="out"
         result="composite1"
         id="feComposite19058" /><feGaussianBlur
         in="composite1"
         stdDeviation="0.7"
         result="blur"
         id="feGaussianBlur19060" /><feOffset
         dx="0"
         dy="0"
         result="offset"
         id="feOffset19062" /><feComposite
         in="offset"
         in2="SourceGraphic"
         operator="atop"
         result="composite2"
         id="feComposite19064" /></filter><filter
       style="color-interpolation-filters:sRGB;"
       inkscape:label="Drop Shadow"
       id="filter19078"
       x="-0.1730883"
       y="-0.14459323"
       width="1.3461766"
       height="1.2891865"><feFlood
         flood-opacity="1"
         flood-color="rgb(0,0,0)"
         result="flood"
         id="feFlood19068" /><feComposite
         in="flood"
         in2="SourceGraphic"
         operator="out"
         result="composite1"
         id="feComposite19070" /><feGaussianBlur
         in="composite1"
         stdDeviation="0.7"
         result="blur"
         id="feGaussianBlur19072" /><feOffset
         dx="0"
         dy="0"
         result="offset"
         id="feOffset19074" /><feComposite
         in="offset"
         in2="SourceGraphic"
         operator="atop"
         result="composite2"
         id="feComposite19076" /></filter><filter
       style="color-interpolation-filters:sRGB;"
       inkscape:label="Drop Shadow"
       id="filter19090"
       x="-0.20575762"
       y="-0.15281111"
       width="1.4115152"
       height="1.3056222"><feFlood
         flood-opacity="1"
         flood-color="rgb(0,0,0)"
         result="flood"
         id="feFlood19080" /><feComposite
         in="flood"
         in2="SourceGraphic"
         operator="out"
         result="composite1"
         id="feComposite19082" /><feGaussianBlur
         in="composite1"
         stdDeviation="0.7"
         result="blur"
         id="feGaussianBlur19084" /><feOffset
         dx="0"
         dy="0"
         result="offset"
         id="feOffset19086" /><feComposite
         in="offset"
         in2="SourceGraphic"
         operator="atop"
         result="composite2"
         id="feComposite19088" /></filter><filter
       style="color-interpolation-filters:sRGB;"
       inkscape:label="Drop Shadow"
       id="filter19102"
       x="-0.16637923"
       y="-0.11122114"
       width="1.3327585"
       height="1.2224423"><feFlood
         flood-opacity="1"
         flood-color="rgb(0,0,0)"
         result="flood"
         id="feFlood19092" /><feComposite
         in="flood"
         in2="SourceGraphic"
         operator="out"
         result="composite1"
         id="feComposite19094" /><feGaussianBlur
         in="composite1"
         stdDeviation="0.7"
         result="blur"
         id="feGaussianBlur19096" /><feOffset
         dx="0"
         dy="0"
         result="offset"
         id="feOffset19098" /><feComposite
         in="offset"
         in2="SourceGraphic"
         operator="atop"
         result="composite2"
         id="feComposite19100" /></filter><filter
       style="color-interpolation-filters:sRGB;"
       inkscape:label="Drop Shadow"
       id="filter19114"
       x="-0.3712171"
       y="-0.11607705"
       width="1.7424342"
       height="1.2321541"><feFlood
         flood-opacity="1"
         flood-color="rgb(0,0,0)"
         result="flood"
         id="feFlood19104" /><feComposite
         in="flood"
         in2="SourceGraphic"
         operator="out"
         result="composite1"
         id="feComposite19106" /><feGaussianBlur
         in="composite1"
         stdDeviation="0.7"
         result="blur"
         id="feGaussianBlur19108" /><feOffset
         dx="0"
         dy="0"
         result="offset"
         id="feOffset19110" /><feComposite
         in="offset"
         in2="SourceGraphic"
         operator="atop"
         result="composite2"
         id="feComposite19112" /></filter><filter
       style="color-interpolation-filters:sRGB;"
       inkscape:label="Drop Shadow"
       id="filter19126"
       x="-0.14331411"
       y="-0.13865644"
       width="1.2866282"
       height="1.2773129"><feFlood
         flood-opacity="1"
         flood-color="rgb(0,0,0)"
         result="flood"
         id="feFlood19116" /><feComposite
         in="flood"
         in2="SourceGraphic"
         operator="out"
         result="composite1"
         id="feComposite19118" /><feGaussianBlur
         in="composite1"
         stdDeviation="0.7"
         result="blur"
         id="feGaussianBlur19120" /><feOffset
         dx="0"
         dy="0"
         result="offset"
         id="feOffset19122" /><feComposite
         in="offset"
         in2="SourceGraphic"
         operator="atop"
         result="composite2"
         id="feComposite19124" /></filter><filter
       style="color-interpolation-filters:sRGB;"
       inkscape:label="Drop Shadow"
       id="filter19138"
       x="-0.15924423"
       y="-0.15542427"
       width="1.3184885"
       height="1.3108485"><feFlood
         flood-opacity="1"
         flood-color="rgb(0,0,0)"
         result="flood"
         id="feFlood19128" /><feComposite
         in="flood"
         in2="SourceGraphic"
         operator="out"
         result="composite1"
         id="feComposite19130" /><feGaussianBlur
         in="composite1"
         stdDeviation="0.7"
         result="blur"
         id="feGaussianBlur19132" /><feOffset
         dx="0"
         dy="0"
         result="offset"
         id="feOffset19134" /><feComposite
         in="offset"
         in2="SourceGraphic"
         operator="atop"
         result="composite2"
         id="feComposite19136" /></filter><filter
       style="color-interpolation-filters:sRGB;"
       inkscape:label="Drop Shadow"
       id="filter24631"
       x="-0.062612918"
       y="-0.12410239"
       width="1.1252258"
       height="1.2482048"><feFlood
         flood-opacity="1"
         flood-color="rgb(0,0,0)"
         result="flood"
         id="feFlood24621" /><feComposite
         in="flood"
         in2="SourceGraphic"
         operator="out"
         result="composite1"
         id="feComposite24623" /><feGaussianBlur
         in="composite1"
         stdDeviation="1"
         result="blur"
         id="feGaussianBlur24625" /><feOffset
         dx="0"
         dy="0"
         result="offset"
         id="feOffset24627" /><feComposite
         in="offset"
         in2="SourceGraphic"
         operator="atop"
         result="composite2"
         id="feComposite24629" /></filter></defs><g
     inkscape:label="Layer 1"
     inkscape:groupmode="layer"
     id="layer1"><g
       id="g25642"
       inkscape:export-filename="works_on_my_machine.webp"
       inkscape:export-xdpi="102.57356"
       inkscape:export-ydpi="102.57356"><g
         id="g23085"><path
           sodipodi:type="star"
           style="fill:url(#linearGradient10170);fill-opacity:1;stroke:#efe166;stroke-width:3.14069;stroke-linecap:square;stroke-linejoin:miter;stroke-dasharray:none;stroke-opacity:1;paint-order:markers stroke fill"
           id="path486"
           inkscape:flatsided="false"
           sodipodi:sides="30"
           sodipodi:cx="14.353073"
           sodipodi:cy="16.044628"
           sodipodi:r1="39.96236"
           sodipodi:r2="47.014542"
           sodipodi:arg1="1.0471976"
           sodipodi:arg2="1.1519173"
           inkscape:rounded="0"
           inkscape:randomized="0"
           d="m 34.334252,50.653048 -0.858642,8.341501 -6.77349,-4.943457 -2.574174,7.980697 -5.597671,-6.243718 -4.177202,7.271099 -4.177206,-7.2711 -5.5976664,6.243719 -2.5741778,-7.980698 -6.7734862,4.943458 -0.8586454,-8.341503 -7.6532722,3.427145 0.894414,-8.337743 -8.198573,1.761049 2.608383,-7.969584 -8.385557,0.01799 4.208354,-7.253116 -8.206053,-1.725862 5.624399,-6.219653 -7.667904,-3.394282 6.794631,-4.91436 -6.794631,-4.914355 7.667905,-3.3942867 -5.6244,-6.2196482 8.206054,-1.72586605 -4.208355,-7.25311245 8.38556,0.017983 -2.608386,-7.9695805 8.198576,1.761046 -0.894417,-8.337741 7.6532756,3.427143 0.8586414,-8.341501 6.7734905,4.943457 2.5741735,-7.980697 5.597671,6.243719 4.177202,-7.271099 4.177206,7.271099 5.597667,-6.243719 2.574177,7.980698 6.773487,-4.943458 0.858645,8.341503 7.653272,-3.427145 -0.894414,8.337743 8.198573,-1.761049 -2.608383,7.9695846 8.385557,-0.017986 -4.208353,7.25311651 8.206052,1.72586189 -5.624399,6.2196526 7.667904,3.3942819 -6.79463,4.91436 6.79463,4.914356 -7.667904,3.394286 5.624399,6.219648 -8.206054,1.725866 4.208356,7.253113 -8.38556,-0.01798 2.608386,7.969581 -8.198577,-1.761046 0.894418,8.33774 z"
           transform="matrix(1.257485,0.12470757,-0.12470757,1.257485,51.685447,45.767519)" /><path
           id="path486-5"
           style="fill:#ffffff;fill-opacity:0.204692;stroke:none;stroke-width:3.96875;stroke-linecap:square;stroke-linejoin:round;stroke-dasharray:none;stroke-opacity:1;paint-order:markers stroke fill"
           d="m 19.798762,83.619929 -10.1037601,-3.1936 7.8482351,-7.11971 -9.2189821,-5.22451 9.1570051,-5.33239 -7.9312901,-7.027069 10.0655691,-3.312019 -6.296961,-8.52252 10.534218,-1.146893 -4.387425,-9.645494 10.542473,1.068356 -2.286139,-10.346914 10.089971,3.236914 -0.08494,-10.596125 9.196489,5.264002 2.119977,-10.382233 7.901076,7.061029 4.232238,-9.7145891 6.260348,8.5494561 6.15953,-8.6223701 4.346013,9.6642281 7.817621,-7.153312 2.241736,10.356627 9.134047,-5.371619 0.0395,10.596395 10.051259,-3.355163 -2.16449,10.373047 10.5292,-1.192069 -4.27387,9.696348 10.54695,1.023126 -6.19646,8.595871 10.10376,3.193603 -7.84823,7.119717 c 0,0 -14.2152,16.639619 -27.305743,16.35964 -11.870506,-0.253886 -17.729017,-6.892328 -27.866185,-6.566997 -9.010414,0.289169 -15.306687,13.9258 -28.82603,13.957613 -16.981557,0.03996 -14.12669,-2.290376 -14.12669,-2.290376 z"
           sodipodi:nodetypes="cccccccccccccccccccccccccccccccccssscc" /></g><g
         aria-label="works on"
         transform="translate(-125.61746,30.847178)"
         id="text23228"
         style="font-size:19.7556px;line-height:1.25;font-family:'Noto Sans';-inkscape-font-specification:'Noto Sans, Normal';fill:#6b6b6b;fill-opacity:1;stroke-width:0.264583;filter:url(#filter24631)"><path
           d="m 160.01189,21.274418 5.908,1.998607 1.18546,-1.653843 -6.89151,-8.561468 -1.03584,1.445106 3.72902,4.49593 c 0.79531,0.958979 1.65485,1.963994 2.13868,2.40803 l -0.046,0.06423 c -0.6677,-0.357072 -1.8107,-0.76316 -2.71044,-1.067796 l -5.908,-1.998607 -1.10489,1.541446 3.75574,5.001214 c 0.54536,0.731206 1.44852,1.743184 1.89783,2.23539 l -0.046,0.06423 c -0.6677,-0.357072 -1.86797,-0.85282 -2.9719,-1.279512 l -5.44392,-2.103478 -1.04735,1.461162 10.29828,3.808676 1.15094,-1.605672 -3.72818,-5.005762 c -0.69201,-0.933545 -1.45762,-1.798316 -1.88177,-2.22388 l 0.046,-0.06423 c 0.55076,0.24894 1.62713,0.680179 2.7059,1.04023 z"
           id="path24067"
           style="fill:#6b6b6b;fill-opacity:1" /><path
           d="m 175.52163,8.7959206 c -1.9099,-2.9290757 -4.67688,-3.4833009 -7.07641,-1.9186943 -2.54846,1.6617201 -3.04152,4.3416527 -1.13162,7.2707277 1.92068,2.945624 4.73155,3.494817 7.08143,1.962582 2.53192,-1.65093 3.04729,-4.368991 1.1266,-7.3146154 z m -6.70213,4.3701084 c -1.37038,-2.101653 -1.41267,-3.866484 0.39111,-5.0426366 1.80378,-1.1761525 3.43473,-0.4471994 4.80511,1.6544538 1.37038,2.1016528 1.41194,3.9377098 -0.37529,5.1030718 -1.80378,1.176153 -3.45055,0.386764 -4.82093,-1.714889 z"
           id="path24069"
           style="fill:#6b6b6b;fill-opacity:1" /><path
           d="M 182.53645,0.58824284 C 181.12389,1.0354735 180.3802,2.2863164 180.09166,3.6002762 l -0.0753,0.023852 -0.77273,-1.7861166 -1.35606,0.4293415 3.19621,10.0951079 1.65741,-0.52475 -1.70544,-5.3865694 c -0.64401,-2.034089 0.30154,-3.8254528 1.86477,-4.3203881 0.33902,-0.1073353 0.79009,-0.1879836 1.13413,-0.2140193 L 183.75878,0.325574 c -0.36286,0.0319987 -0.84564,0.14340732 -1.22233,0.26266884 z"
           id="path24071"
           style="fill:#6b6b6b;fill-opacity:1" /><path
           d="m 190.29177,2.9063905 -0.42066,-7.8316842 -1.71626,0.092184 0.80528,14.9926447 1.71627,-0.09218 -0.20874,-3.8862509 1.1472,-1.1101743 3.93415,4.7347087 2.09108,-0.1123158 -4.902,-5.8104162 4.03815,-4.7474502 -2.0319,0.10913706 -3.18156,3.75180544 c -0.33389,0.4136158 -0.95905,1.2979097 -1.17883,1.6262593 l -0.0789,0.00424 c -0.007,-0.4942387 0.009,-1.3062311 -0.0133,-1.7205016 z"
           id="path24073"
           style="fill:#6b6b6b;fill-opacity:1" /><path
           d="m 206.87397,8.7431992 c 0.36413,-1.6595002 -0.62616,-2.5846948 -2.43351,-3.7498485 -1.82241,-1.1886845 -2.42157,-1.684218 -2.23103,-2.5525611 0.16937,-0.7718606 1.02778,-1.0891405 2.41713,-0.7842796 1.00342,0.2201773 1.90473,0.7213339 2.69263,1.2785057 l 0.87529,-1.2237306 c -0.87168,-0.6362323 -1.893,-1.14349748 -3.14728,-1.41871908 -2.31558,-0.50810143 -4.09454,0.13305234 -4.47985,1.88903518 -0.37261,1.6980932 0.68828,2.5781007 2.52575,3.7903159 1.85677,1.2164493 2.27616,1.7938885 2.10679,2.565749 -0.20324,0.9262327 -1.06777,1.3635259 -2.78516,0.986684 -1.21568,-0.2667533 -2.3768,-0.9664982 -3.09834,-1.5495605 l -0.33873,1.5437212 c 0.698,0.5981242 1.65061,1.0498602 3.09785,1.3674232 2.52784,0.554678 4.3581,-0.135897 4.79846,-2.1427348 z"
           id="path24075"
           style="fill:#6b6b6b;fill-opacity:1" /><path
           d="m 223.90142,16.030981 c 2.09957,-2.796243 1.67438,-5.585967 -0.61633,-7.3059589 -2.43289,-1.8267498 -5.1199,-1.3738421 -7.21948,1.4224019 -2.11143,2.812042 -1.66651,5.641288 0.57681,7.325693 2.41709,1.814888 5.14756,1.369906 7.259,-1.442136 z m -6.39819,-4.804114 c 1.50648,-2.0063446 3.1505,-2.6494771 4.87248,-1.3565179 1.72198,1.2929589 1.59456,3.0748449 0.0881,5.0811889 -1.50648,2.006345 -3.21768,2.673147 -4.92386,1.39205 -1.72198,-1.292959 -1.54318,-3.110377 -0.0367,-5.116721 z"
           id="path24077"
           style="fill:#6b6b6b;fill-opacity:1" /><path
           d="m 234.38203,20.47441 c -0.75943,-1.108123 -1.93651,-1.882117 -3.23997,-1.827062 l -0.0558,-0.08148 1.04442,-1.027117 -0.79294,-1.157012 -8.73462,5.986093 0.98279,1.434043 4.53027,-3.104728 c 2.037,-1.39601 3.5858,-1.547362 4.9148,0.391854 0.91579,1.336267 0.63945,2.435741 -0.762,3.396196 l -5.58951,3.830653 0.97162,1.417747 5.68729,-3.897662 c 2.24884,-1.541196 2.4732,-3.275644 1.04369,-5.361525 z"
           id="path24079"
           style="fill:#6b6b6b;fill-opacity:1" /></g><g
         aria-label="my"
         id="text23778"
         style="font-weight:500;font-size:27.5167px;line-height:1.25;font-family:'Noto Sans';-inkscape-font-specification:'Noto Sans, Medium';fill:#6b6b6b;fill-opacity:1;stroke-width:0.264583;filter:url(#filter24631)"
         transform="translate(0.63386547,-22.952055)"><path
           d="m 65.18805,84.310529 c -1.871136,0 -3.687238,0.770468 -4.650322,2.393953 h -0.220134 c -0.742951,-1.623485 -2.283886,-2.393953 -4.512739,-2.393953 -1.761069,0 -3.439587,0.715435 -4.347639,2.25637 h -0.1651 l -0.41275,-1.981203 h -2.311403 v 14.831502 h 2.91677 v -7.484542 c 0,-3.357038 0.880535,-5.228174 3.659721,-5.228174 1.898653,0 2.806704,1.155702 2.806704,3.439588 v 9.273128 h 2.889253 v -7.979843 c 0,-3.054354 1.045635,-4.732873 3.687238,-4.732873 1.898653,0 2.779187,1.155702 2.779187,3.439588 v 9.273128 h 2.91677 v -9.658362 c 0,-3.824821 -1.706035,-5.448307 -5.035556,-5.448307 z"
           id="path24082"
           style="fill:#6b6b6b;fill-opacity:1" /><path
           d="m 72.424926,84.585696 5.943608,14.831502 -0.605368,1.595972 c -0.577851,1.56845 -1.568452,2.6416 -3.246971,2.6416 -0.632884,0 -1.238251,-0.0825 -1.623485,-0.1651 v 2.3114 c 0.467784,0.11007 1.128185,0.22014 2.036236,0.22014 2.861737,0 4.540256,-1.73356 5.613407,-4.59529 l 6.356358,-16.840224 h -3.136904 l -2.91677,8.392594 c -0.467784,1.320802 -0.880535,2.696637 -1.073152,3.632205 h -0.110067 c -0.1651,-1.155702 -0.550334,-2.311403 -1.018117,-3.604688 L 75.56183,84.585696 Z"
           id="path24084"
           style="fill:#6b6b6b;fill-opacity:1" /></g><g
         aria-label="machine"
         transform="translate(86.430139,-4.9125037)"
         id="text23986"
         style="font-size:19.7556px;line-height:1.25;font-family:'Noto Sans';-inkscape-font-specification:'Noto Sans, Normal';fill:#6b6b6b;fill-opacity:1;stroke-width:0.264583;filter:url(#filter24631)"><path
           d="m -40.071341,97.149074 c -1.256265,-0.57809 -2.680238,-0.602693 -3.830082,0.194749 l -0.08973,-0.04129 c 0.03715,-1.309465 -0.728367,-2.29239 -2.199992,-2.96958 -1.148585,-0.52854 -2.466308,-0.547744 -3.521019,0.18474 l -0.08973,-0.04129 0.369558,-1.417465 -1.274212,-0.586348 -4.426516,9.6194 1.579305,0.72674 2.295842,-4.989164 c 1.032304,-2.243331 2.230268,-3.192604 4.168505,-2.300694 1.345999,0.619382 1.619019,1.680132 0.925311,3.187651 l -2.849156,6.191587 1.561358,0.71848 2.444494,-5.3122 c 0.94146,-2.045916 2.189295,-2.820013 4.055747,-1.961137 1.328052,0.611124 1.601072,1.671867 0.907364,3.179387 l -2.849157,6.19159 1.561358,0.71849 2.882191,-6.26338 c 1.139663,-2.476635 0.550111,-4.030993 -1.621433,-5.030262 z"
           id="path24087"
           style="fill:#6b6b6b;fill-opacity:1" /><path
           d="m -31.805008,99.368036 c -1.350817,-0.296112 -2.713279,-0.170059 -3.726011,0.113558 l 0.241838,1.387846 c 0.937919,-0.21912 2.00669,-0.38933 3.087344,-0.15244 1.350817,0.29611 2.015105,1.04847 1.63862,2.76594 l -0.135366,0.61752 -1.768753,-0.32706 c -3.398195,-0.64379 -5.230161,0.14788 -5.68279,2.2127 -0.461089,2.10342 0.716814,3.37286 2.588661,3.78319 1.736766,0.38071 2.680768,0.0416 3.837326,-0.89815 l 0.07719,0.0169 0.0066,1.53852 1.235033,0.27073 1.544014,-7.04355 c 0.528772,-2.41217 -0.435007,-3.735801 -2.943668,-4.285724 z m -0.708098,5.629034 1.537185,0.2763 -0.203049,0.92627 c -0.439938,2.00693 -1.959439,2.66485 -3.696204,2.28413 -1.119249,-0.24535 -1.77693,-0.93558 -1.52312,-2.09343 0.287652,-1.31222 1.278187,-1.86362 3.885188,-1.39327 z"
           id="path24089"
           style="fill:#6b6b6b;fill-opacity:1" /><path
           d="m -22.930915,111.68801 c 1.20059,0.10405 2.024603,-0.0228 2.765559,-0.33537 l 0.133051,-1.53518 c -0.757225,0.27147 -1.647106,0.47196 -2.788652,0.37303 -1.987864,-0.17229 -2.890207,-1.6584 -2.670159,-4.19735 0.228576,-2.63737 1.350048,-3.90842 3.456003,-3.7259 0.728227,0.0631 1.631098,0.39915 2.240446,0.68992 l 0.655932,-1.39072 c -0.602525,-0.36949 -1.66285,-0.71917 -2.725668,-0.81129 -2.834182,-0.24563 -5.081718,1.20544 -5.419465,5.10244 -0.324101,3.73955 1.538452,5.58649 4.352953,5.83042 z"
           id="path24091"
           style="fill:#6b6b6b;fill-opacity:1" /><path
           d="m -16.41517,101.13586 -0.196033,-4.401139 -1.736771,0.07736 0.668094,14.999379 1.736771,-0.0773 -0.243503,-5.46689 c -0.109884,-2.467 0.558815,-3.88105 2.927138,-3.98654 1.618355,-0.0721 2.406124,0.74317 2.481724,2.44046 l 0.301522,6.76946 1.7170344,-0.0765 -0.3067956,-6.88787 c -0.1204327,-2.70384 -1.4748758,-3.81025 -4.0405598,-3.69597 -1.361787,0.0607 -2.600279,0.66953 -3.222955,1.7849 l -0.118416,0.005 c 0.04075,-0.41709 0.05561,-0.97146 0.03275,-1.48459 z"
           id="path24093"
           style="fill:#6b6b6b;fill-opacity:1" /><path
           d="m -6.8095414,96.378783 c -0.5664613,0.08573 -0.9654664,0.485791 -0.8501702,1.247584 0.11234,0.74226 0.6148161,1.025861 1.1812774,0.940128 0.527395,-0.07982 0.942977,-0.502368 0.830637,-1.244628 -0.1152962,-0.761793 -0.6343492,-1.022905 -1.1617442,-0.943084 z m 1.4341446,3.799037 -1.7189172,0.26016 1.5845844,10.46977 1.7189172,-0.26016 z"
           id="path24095"
           style="fill:#6b6b6b;fill-opacity:1" /><path
           d="m 1.6560529,98.423282 c -1.29704112,0.349795 -2.41704481,1.204303 -2.7965732,2.452498 l -0.095371,0.0257 -0.6234788,-1.325541 -1.3542635,0.365227 2.75720627,10.223734 1.67852373,-0.45267 -1.43004352,-5.30261 c -0.64300518,-2.38427 -0.27312697,-3.89586 1.99669492,-4.507999 1.5640789,-0.421812 2.5100898,0.202899 2.9524774,1.843279 l 1.7644062,6.54243 1.6594496,-0.44754 -1.7952705,-6.65687 C 5.6599332,98.550712 4.0975419,97.764845 1.6560529,98.423282 Z"
           id="path24097"
           style="fill:#6b6b6b;fill-opacity:1" /><path
           d="m 10.411469,95.198419 c -2.5429416,1.184537 -3.3599735,3.875261 -1.8918148,7.027081 1.4931838,3.20553 4.1660008,4.03091 6.9059308,2.75461 1.307287,-0.60895 2.075113,-1.20635 2.859852,-2.09494 l -0.64232,-1.37892 c -0.802647,0.89694 -1.553789,1.53015 -2.771536,2.09739 -1.91616,0.89257 -3.550768,0.2374 -4.613852,-1.90444 L 16.82998,98.637751 16.387864,97.688625 C 15.16996,95.074051 12.864871,94.055591 10.411469,95.198419 Z m 0.582703,1.297721 c 1.593815,-0.742422 2.827329,0.03421 3.604342,1.655494 L 9.7096187,100.42895 C 9.0699773,98.634701 9.4898961,97.196852 10.994172,96.49614 Z"
           id="path24099"
           style="fill:#6b6b6b;fill-opacity:1" /></g></g></g></svg>
