<?xml version="1.0" encoding="UTF-8" standalone="no"?>
<!-- Created with Inkscape (http://www.inkscape.org/) -->

<svg
   width="512"
   height="192"
   viewBox="0 0 135.46666 50.8"
   version="1.1"
   id="svg5"
   inkscape:version="1.2.1 (9c6d41e410, 2022-07-14)"
   sodipodi:docname="liushuyu.svg"
   xml:space="preserve"
   xmlns:inkscape="http://www.inkscape.org/namespaces/inkscape"
   xmlns:sodipodi="http://sodipodi.sourceforge.net/DTD/sodipodi-0.dtd"
   xmlns="http://www.w3.org/2000/svg"
   xmlns:svg="http://www.w3.org/2000/svg"><sodipodi:namedview
     id="namedview7"
     pagecolor="#505050"
     bordercolor="#ffffff"
     borderopacity="1"
     inkscape:showpageshadow="0"
     inkscape:pageopacity="0"
     inkscape:pagecheckerboard="1"
     inkscape:deskcolor="#505050"
     inkscape:document-units="px"
     showgrid="false"
     inkscape:zoom="0.89348801"
     inkscape:cx="172.91782"
     inkscape:cy="159.48731"
     inkscape:window-width="1920"
     inkscape:window-height="1103"
     inkscape:window-x="0"
     inkscape:window-y="48"
     inkscape:window-maximized="1"
     inkscape:current-layer="layer1" /><defs
     id="defs2">
	
	
	
	
	
	
	
	
	
	
	
	
	
	

		
		
		
		
	
		
		
		
		
	
		
		
	
		
		
	
		
		
	
		
		
	</defs><g
     inkscape:label="Layer 1"
     inkscape:groupmode="layer"
     id="layer1"><g
       id="g19560"
       transform="matrix(1.0032471,0,0,1.0032471,96.02333,-248.16706)"><path
         id="path19325"
         style="color:#000000;fill:#ffffff;stroke:#0da5e2;stroke-width:2.64583;stroke-linecap:round;stroke-linejoin:round;stroke-dasharray:none;stroke-opacity:1;paint-order:markers stroke fill"
         d="m -39.675626,250.98793 c -4.31797,-0.65405 -6.938871,5.56232 -10.708089,2.40407 -3.817853,-0.87301 -6.642006,2.65144 -7.981223,5.45119 -0.634475,-4.9884 -6.567186,-4.18482 -8.959068,-3.89003 -3.919584,-3.78616 -8.450942,-0.57526 -11.864983,1.66329 -2.256555,-5.52199 -10.82123,-3.47163 -11.549249,2.03556 -4.127141,1.58238 -4.803735,7.71626 -1.775085,10.66964 -1.701835,4.20353 -0.795964,9.26385 0.607403,12.72198 -4.20001,4.10148 -1.49609,13.08568 5.052716,11.02022 3.145753,-2.96182 7.989782,-7.1417 10.387851,-1.32073 3.43501,3.31588 8.613943,1.24074 12.797649,1.4358 2.875407,-1.02017 3.868671,-2.63703 6.504168,-0.0874 5.073111,2.19699 7.664352,-7.43795 11.986348,-3.5802 1.752178,4.60122 6.856873,4.24701 10.829689,3.94083 4.640775,1.49134 7.208225,-4.73965 10.883963,-1.22078 3.759407,2.10341 7.420703,-3.76904 8.528125,-3.9484 1.864361,5.92292 9.791158,7.25393 14.96553261,5.28882 3.42840499,-0.37781 4.73322699,-6.21247 6.82347199,-1.37037 3.9478794,2.97733 10.2050904,2.82456 14.0158314,-0.25433 2.830706,-4.28971 9.269469,-4.90098 10.805724,-10.28258 0.340323,-3.5716 -0.565449,-6.15502 3.955035,-5.99844 5.106576,-2.81466 0.07875,-8.33207 1.717449,-11.81744 1.398244,-4.94243 -4.499597,-5.84534 -6.89223,-7.28229 -1.112445,-5.7021 -10.161656,-5.19398 -10.683585,0.58626 -1.546515,3.50434 -4.188359,-0.82994 -4.845699,-3.07217 -3.11595,-3.71647 -9.1519184,-1.2673 -9.7678994,3.26919 -4.30969999,-1.63503 -7.186645,5.09747 -6.733556,5.65344 -1.5595016,-3.97516 -3.9495536,-8.65439 -8.8603916,-8.78271 -7.238138,-0.56847 -11.636772,6.50546 -14.376503,12.18625 -1.817128,2.93882 -1.467393,-2.79558 -0.468097,-4.41327 1.412485,-5.64558 -4.41836,-7.42663 -8.106451,-8.41351 -1.156957,-2.27281 -4.259889,-1.8649 -6.288847,-2.59184 z"
         sodipodi:nodetypes="ccccccccccccccscscccccccccccccccccccscccccscccccccccscccccssccccccsscssssscssssssscsccsscssscssscssccscsscssccsscssscsscscscsccscccccccccccc" /><g
         id="g18963"
         transform="translate(-122.59536,40.154429)"><path
           id="path6616-2-3"
           style="color:#000000;fill:#0da5e2;fill-opacity:1;stroke:none;stroke-width:3.01995;stroke-linecap:round;stroke-linejoin:round;paint-order:markers stroke fill"
           d="m 133.35071,214.07531 c -3.53842,-0.0286 -2.02477,4.68773 -5.12837,5.0617 -3.15285,0.37992 -4.50107,0.23081 -4.38733,3.08405 0.0458,1.14873 0.37994,2.46976 4.80901,2.15491 0.73364,-0.0522 1.12182,0.21039 1.30897,0.66663 0.3581,0.29221 0.6401,0.68341 0.79581,1.15548 0.35681,1.08181 0.13027,2.45219 -0.73277,4.0659 -0.25643,0.47948 -0.54985,0.89108 -0.86868,1.2392 -0.50526,1.17642 -0.90299,1.31715 -0.0119,2.49236 1.07682,1.42015 5.58896,-0.58446 5.81773,-4.40748 0.14559,-2.43313 -0.45776,-4.72889 0.94619,-4.80798 2.58405,-0.14557 3.65895,-0.46763 4.07986,-2.02313 1.03264,-3.81606 -0.68754,-2.63728 -2.45825,-3.12539 -1.77573,-0.48951 -0.27505,-5.36843 -3.9982,-5.55108 -0.0588,-0.003 -0.11593,-0.005 -0.17209,-0.005 z m 14.46682,0.20567 c -0.0561,4.4e-4 -0.11342,0.002 -0.17208,0.005 -3.72315,0.18264 -2.22247,5.06158 -3.99821,5.55108 -1.77069,0.48811 -3.93528,0.4488 -2.90266,4.26486 0.42092,1.5555 1.94076,0.7381 4.52478,0.88367 1.40398,0.0791 0.8006,2.37484 0.9462,4.80797 0.0828,1.38442 0.72819,2.52879 1.56786,3.36 -1.4249,-0.60885 -3.00426,-0.86408 -4.65811,-0.87953 -1.77669,-0.0166 -3.63891,0.24291 -5.487,0.6382 -5.83695,1.24846 -11.59538,4.1505 -10.48257,6.30143 0.77055,1.48937 2.45984,1.31246 3.94653,0.99529 1.48973,-0.31782 2.77594,-0.77561 3.03496,0.76894 0.16684,0.99483 -4.56146,1.53003 -4.65088,5.35626 -0.0894,3.82625 5.72987,5.77687 11.24892,3.56774 0.97408,-0.38989 2.492,-2.91047 3.82199,-3.76824 1.87499,-1.20927 4.05607,-1.987 5.55987,-3.57601 1.93582,-2.04553 2.80364,-4.95129 0.71572,-7.24142 -0.26802,-0.29398 -0.54873,-0.56215 -0.84026,-0.8077 0.87882,0.26518 2.05551,0.1855 2.42931,-0.30748 0.89111,-1.1752 1.04889,-0.64879 0.54364,-1.82521 -0.31884,-0.34813 -1.55743,-1.42635 -1.81385,-1.90582 -0.86304,-1.61372 -1.22807,-2.34538 -0.87126,-3.42718 0.15571,-0.47208 0.43136,-1.01901 0.71262,-1.40509 0.28126,-0.38608 0.99183,-0.46919 1.72547,-0.41703 4.42908,0.31484 4.56839,-1.64541 4.61419,-2.79414 0.11374,-2.85325 -1.23395,-2.70361 -4.38681,-3.08353 -3.10355,-0.37398 -1.59023,-5.09012 -5.12837,-5.06171 z m -97.299486,0.62425 c -1.261803,-0.01 -2.445368,0.86157 -3.037024,1.98438 -0.313279,0.89125 -1.552418,0.14442 -2.183329,0.72295 -2.386836,1.31884 -2.10008,5.11461 -0.03256,6.59753 0.298519,0.69513 3.00298,0.35358 1.614371,1.03043 -1.636216,0.78188 -3.909294,0.73786 -4.864302,2.52439 -0.469135,1.58254 0.44655,3.35222 1.927531,4.03593 1.313463,0.41224 0.472597,1.44071 -0.42323,1.69137 -1.523026,0.62053 -2.359568,2.29006 -1.970939,3.88193 0.415895,1.87061 2.345883,3.69693 4.351672,2.91455 0.459149,0.74517 -0.03265,2.54675 0.173633,3.66283 0.116786,2.35814 0.968676,5.19988 3.426664,6.06423 1.089761,0.27684 2.184708,0.0306 3.277836,-0.0372 2.268136,-0.21934 4.665573,0.29131 6.826456,-0.6072 2.605389,-1.17907 3.041803,-4.81549 1.653129,-7.07812 -0.6305,-1.3506 -2.561392,-2.03632 -3.690214,-0.87023 -1.070421,0.86667 -2.029991,2.68472 -3.678328,1.9358 -1.766647,-0.49396 -0.705135,-2.4363 0.779797,-2.15904 1.453144,-0.4327 2.878371,-1.00655 4.317566,-1.50378 1.202713,-0.4035 2.802261,-1.387 2.258777,-2.89027 -0.500968,-1.21568 -1.155761,-2.66788 -2.426208,-3.22099 -1.681296,-0.19283 -3.198523,0.92736 -4.887557,0.86662 -1.919732,-0.0814 0.490566,-1.4243 1.275374,-1.51878 1.475841,-0.42148 3.128984,-0.92949 4.633826,-0.41651 1.7152,0.70748 2.529841,-1.69105 2.321305,-3.01842 -0.05797,-1.54801 -0.821231,-3.53936 -2.591056,-3.68608 1.250004,-1.55043 2.198204,-3.42435 2.278414,-5.44721 0.187046,-1.67812 -0.627113,-3.63063 -2.405022,-4.04316 -1.130522,-0.59646 -1.790757,0.20784 -1.531689,1.3286 0.901626,2.05387 1.363895,4.44638 0.248564,6.11074 -1.115333,1.66437 -2.448083,1.91336 -3.779614,1.62884 -0.380056,-0.94031 1.562676,-1.8658 2.036568,-2.81999 0.729186,-1.10002 0.536817,-2.69965 -0.07183,-3.82302 -1.279704,-1.6138 -2.970922,-3.0312 -4.949051,-3.68608 -0.293189,-0.10383 -0.58835,-0.15279 -0.879533,-0.15503 z m 32.86931,0 c -1.261802,-0.01 -2.445884,0.86157 -3.03754,1.98438 -0.313279,0.89125 -1.552418,0.14442 -2.183329,0.72295 -2.386836,1.31884 -2.10008,5.11461 -0.03256,6.59753 0.298519,0.69513 3.003497,0.35358 1.614888,1.03043 -1.636216,0.78188 -3.909294,0.73786 -4.864302,2.52439 -0.469135,1.58254 0.44655,3.35222 1.92753,4.03593 1.313464,0.41224 0.472598,1.44071 -0.42323,1.69137 -1.523025,0.62053 -2.360084,2.29006 -1.971455,3.88193 0.415895,1.87061 2.345883,3.69693 4.351672,2.91455 0.459149,0.74517 -0.03213,2.54675 0.174149,3.66283 0.116786,2.35814 0.968677,5.19988 3.426665,6.06423 1.08976,0.27684 2.184191,0.0306 3.277319,-0.0372 2.268136,-0.21934 4.666089,0.29131 6.826973,-0.6072 2.605389,-1.17907 3.041803,-4.81549 1.653129,-7.07812 -0.6305,-1.3506 -2.561392,-2.03632 -3.690214,-0.87023 -1.070422,0.86667 -2.029991,2.68472 -3.678328,1.9358 -1.766647,-0.49396 -0.705135,-2.4363 0.779797,-2.15904 1.453144,-0.4327 2.87837,-1.00655 4.317566,-1.50378 1.202713,-0.4035 2.80226,-1.387 2.258777,-2.89027 -0.500969,-1.21568 -1.156278,-2.66788 -2.426725,-3.22099 -1.681296,-0.19283 -3.198523,0.92736 -4.887557,0.86662 -1.919732,-0.0814 0.491083,-1.4243 1.275891,-1.51878 1.47584,-0.42148 3.128984,-0.92949 4.633825,-0.41651 1.715201,0.70748 2.529841,-1.69105 2.321306,-3.01842 -0.05797,-1.54801 -0.821231,-3.53936 -2.591057,-3.68608 1.250005,-1.55043 2.197688,-3.42435 2.277898,-5.44721 0.187046,-1.67812 -0.626597,-3.63063 -2.404505,-4.04316 -1.130523,-0.59646 -1.791274,0.20784 -1.532206,1.3286 0.901626,2.05387 1.364411,4.44638 0.24908,6.11074 -1.115332,1.66437 -2.448599,1.91336 -3.780131,1.62884 -0.380055,-0.94031 1.562677,-1.8658 2.036569,-2.81999 0.729186,-1.10002 0.537334,-2.69965 -0.07131,-3.82302 -1.279705,-1.6138 -2.970923,-3.0312 -4.949052,-3.68608 -0.293188,-0.10383 -0.588349,-0.15279 -0.879533,-0.15503 z m -45.155382,0.21653 c -0.162659,0.003 -0.327325,0.0202 -0.491959,0.0548 -2.232686,0.32984 -3.645513,2.62173 -3.508313,4.7718 -0.437842,0.3873 -1.70884,0.0758 -2.230355,0.78755 -1.072065,0.81316 -1.26838,2.20919 -1.142566,3.46077 -0.02237,1.46218 0.897218,2.76928 2.072225,3.54191 -0.340207,2.25758 -1.155644,4.45119 -1.235067,6.75669 -0.201293,2.26244 0.916,4.57427 2.901632,5.71231 -1.521694,1.9309 -3.097049,4.05831 -3.363619,6.57893 -0.216956,1.35179 0.728473,2.63235 2.033468,2.95744 0.453338,0.17214 0.943642,0.30442 1.409216,0.0879 1.876163,-0.70828 2.683333,-2.76998 4.284493,-3.86695 1.188759,-1.05542 2.999438,-1.0443 4.370276,-0.36897 0.880291,-0.023 1.77845,-1.0676 1.737361,-1.99212 -0.136149,-1.48692 -1.599724,-2.6001 -2.996716,-2.82774 -0.895681,-0.69201 -1.709748,-1.75055 -1.689819,-2.93367 -0.146612,-1.46367 0.345392,-2.84901 0.786515,-4.21783 0.507021,-1.47653 0.714588,-3.16461 -0.117822,-4.57078 0.225227,-1.68969 1.106601,-3.21958 1.482596,-4.8798 0.498032,-1.4888 -0.11782,-3.13195 -1.335835,-4.07262 -0.234608,-0.57304 0.209208,-1.36364 0.03411,-2.01693 -0.01223,-1.59641 -1.427465,-2.98901 -2.999817,-2.96261 z m 32.868794,0 c -0.162659,0.003 -0.326809,0.0202 -0.491443,0.0548 -2.232685,0.32984 -3.646029,2.62173 -3.508829,4.7718 -0.437842,0.3873 -1.70884,0.0758 -2.230355,0.78755 -1.072065,0.81316 -1.267863,2.20919 -1.142049,3.46077 -0.02237,1.46218 0.897218,2.76928 2.072225,3.54191 -0.340207,2.25758 -1.156161,4.45119 -1.235584,6.75669 -0.201294,2.26244 0.916517,4.57427 2.902149,5.71231 -1.521694,1.9309 -3.09705,4.05831 -3.363619,6.57893 -0.216956,1.35179 0.728473,2.63235 2.033467,2.95744 0.453339,0.17214 0.943126,0.30442 1.4087,0.0879 1.876163,-0.70828 2.68385,-2.76998 4.285009,-3.86695 1.188759,-1.05542 2.998922,-1.0443 4.369759,-0.36897 0.880292,-0.023 1.778451,-1.0676 1.737362,-1.99212 -0.136149,-1.48692 -1.599207,-2.6001 -2.996199,-2.82774 -0.895682,-0.69201 -1.710265,-1.75055 -1.690336,-2.93367 -0.146612,-1.46367 0.345392,-2.84901 0.786515,-4.21783 0.507021,-1.47653 0.715104,-3.16461 -0.117306,-4.57078 0.225228,-1.68969 1.106602,-3.21958 1.482597,-4.8798 0.498032,-1.4888 -0.11782,-3.13195 -1.335836,-4.07262 -0.234607,-0.57304 0.209209,-1.36364 0.03411,-2.01693 -0.01223,-1.59641 -1.427982,-2.98901 -3.000334,-2.96261 z m 40.250774,0.88521 c -0.26687,8.8e-4 -0.50237,0.0151 -0.6935,0.03 -6.68671,0.52148 -11.293012,11.99757 -12.76046,16.13699 -1.467459,4.13944 -5.126346,17.26726 3.31453,16.846 1.0689,-0.0533 3.13687,-1.54685 4.84311,-4.65966 1.22054,-2.2267 4.78286,-2.92536 4.09691,0.50953 -0.31429,1.57379 -0.14135,5.07499 6.43165,6.00894 4.3224,0.61417 7.97735,-1.90023 8.44651,-2.92024 2.42461,-5.27147 -4.3767,-21.05912 -8.53798,-29.03233 -1.33541,-2.55872 -3.69967,-2.92466 -5.14077,-2.91921 z m 16.88372,9.29659 c -1.60698,0.0105 -3.1804,0.67745 -4.09845,1.572 -1.06271,1.0627 -1.42858,3.62848 -0.36587,4.69119 1.06269,1.06272 3.99427,1.36754 5.60534,-1.64486 1.61106,-3.01243 0.46596,-4.62883 -1.14102,-4.61833 z m 24.65276,0.0713 c -1.55907,0.0182 -2.70764,1.73973 -1.09657,4.75216 1.61107,3.01242 4.43101,3.17835 5.49372,2.11563 1.06271,-1.0627 0.80898,-4.09925 -0.25373,-5.16195 -1.39405,-1.0708 -2.58436,-1.72404 -4.14342,-1.70584 z m -42.47389,2.83548 c 0.0531,-0.004 0.099,0.0209 0.13539,0.0775 0.46564,0.72394 0.86939,1.9623 1.06712,4.22765 0.12172,1.39461 -0.19998,2.54976 -0.80564,2.90628 -0.77925,0.45871 -1.67039,0.1545 -2.35747,0.53175 -2.26856,1.24554 -1.59385,-0.5069 -0.84026,-2.49701 0.47529,-1.2552 2.17357,-5.20399 2.80086,-5.24619 z m 32.96388,6.2234 c 2.64137,0.0373 3.54379,2.68542 0.0181,4.35942 -4.33937,2.06031 -5.83406,0.35878 -5.94124,-0.47904 -0.10717,-0.83783 -0.21287,-1.773 3.84938,-3.44527 0.76167,-0.31355 1.46423,-0.4437 2.07378,-0.43511 z" /><g
           id="g18938"><path
             id="path15588-1-6"
             style="color:#000000;fill:#ffffff;stroke-width:0.438999;paint-order:markers stroke fill"
             d="m 82.895277,211.65205 c -0.397488,0 -0.686244,0.19713 -0.828264,0.33099 -0.120268,0.11337 -0.163742,0.19193 -0.205987,0.26407 -0.04337,-0.0487 -0.05358,-0.0823 -0.134527,-0.14406 -0.175832,-0.13415 -0.575097,-0.31607 -1.000676,-0.21688 l -0.0018,9.3e-4 h -0.0018 c -0.606122,0.14326 -0.804158,0.60285 -0.872045,0.78969 -0.06388,0.1758 -0.06991,0.26597 -0.07895,0.34211 -0.05314,-0.027 -0.07729,-0.052 -0.164476,-0.078 -0.181543,-0.0542 -0.518515,-0.0989 -0.86524,0.0721 -0.574685,0.28366 -0.583061,0.61141 -0.624994,0.75521 -0.01914,0.0656 -0.0173,0.0916 -0.02493,0.13634 -0.04688,-0.0229 -0.05128,-0.0392 -0.120914,-0.0633 -0.217489,-0.0754 -0.752901,-0.13819 -1.170367,0.19283 -0.410442,0.32546 -0.439152,0.65828 -0.462112,0.83076 -0.01844,0.13841 -0.0099,0.21175 -0.005,0.28561 -0.09385,-0.022 -0.188072,-0.0494 -0.366148,-0.0318 -0.225562,0.0223 -0.577902,0.15471 -0.803534,0.42105 -0.221743,0.26213 -0.327366,0.80018 -0.251134,1.09573 0.02054,0.0796 0.03714,0.0687 0.05989,0.12341 l -0.218463,-0.0737 -0.06012,-0.002 c -0.02564,-0.007 -0.03407,-0.0113 -0.07623,-0.0216 -0.0842,-0.0205 -0.192062,-0.0552 -0.423541,-0.0463 -0.231094,0.009 -0.764952,0.14787 -1.032438,0.62 -0.242626,0.4287 -0.127744,0.95824 -0.02063,1.16856 0.087,0.17081 0.144387,0.22137 0.194643,0.2745 l 0.02063,0.0531 0.160393,0.17491 c -0.224671,0.10935 -0.518431,0.31682 -0.648138,0.6867 l -8.78e-4,0.002 v 0.002 c -0.163505,0.47059 0.01576,0.89441 0.13022,1.076 0.09118,0.1446 0.149708,0.1925 0.204855,0.24432 -0.0753,0.0293 -0.108521,0.0116 -0.22709,0.0892 -0.150015,0.0981 -0.442889,0.30207 -0.531527,0.794 -0.08864,0.49194 0.199911,0.93337 0.37023,1.08893 0.340646,0.31111 0.449934,0.26924 0.555579,0.29923 0.105299,0.0299 0.180991,0.0431 0.249545,0.054 0.123372,0.0196 0.305082,0.0163 0.441694,0.0284 0.141463,0.27648 0.356507,0.4559 0.601859,0.57962 -0.0099,0.30659 0.04546,0.61059 0.220281,0.84959 0.203485,0.27821 0.483522,0.4161 0.778578,0.49228 0.05131,0.31014 0.166938,0.60322 0.38498,0.8024 0.25879,0.23651 0.565356,0.31928 0.878849,0.33371 0.110119,0.30275 0.28211,0.57223 0.535842,0.72777 0.294898,0.18093 0.617681,0.20949 0.938971,0.1622 0.164282,0.28529 0.385832,0.52228 0.669688,0.63181 2.77e-4,1e-4 4.39e-4,-1.1e-4 8.78e-4,0 0.318297,0.12292 0.643836,0.0953 0.95848,-0.0127 0.214583,0.2588 0.480655,0.45469 0.786295,0.51361 h 8.78e-4 c 0.322568,0.0619 0.641132,-0.0198 0.936245,-0.18262 0.256344,0.22147 0.552585,0.3675 0.873634,0.37363 0.320285,0.006 0.621771,-0.12756 0.886567,-0.33938 0.289098,0.1746 0.604198,0.26681 0.930348,0.21688 h 0.0018 8.78e-4 c 0.304806,-0.0474 0.577424,-0.23275 0.801718,-0.48276 0.309959,0.11985 0.63535,0.15964 0.958479,0.0488 0.287536,-0.0985 0.518577,-0.32603 0.693737,-0.60525 0.317585,0.0594 0.639854,0.0439 0.943053,-0.12682 0.258996,-0.14553 0.441659,-0.40801 0.563289,-0.70667 0.312813,-0.003 0.622364,-0.0729 0.889288,-0.29831 l 8.78e-4,-8.8e-4 c 0.224759,-0.18994 0.351472,-0.47855 0.414925,-0.78629 0.294318,-0.0637 0.577797,-0.1889 0.794913,-0.46279 0.184919,-0.23319 0.251493,-0.53602 0.252946,-0.84301 0.269515,-0.12416 0.516755,-0.30315 0.666967,-0.60617 l 8.78e-4,-0.002 8.78e-4,-0.002 c 0.02318,-0.0472 0.0079,-0.10393 0.02472,-0.15359 0.108832,-0.0106 0.256599,-0.007 0.357529,-0.0231 0.06902,-0.0109 0.144672,-0.0246 0.250453,-0.0547 0.105782,-0.0301 0.215202,0.0113 0.555576,-0.30014 0.170191,-0.15572 0.458863,-0.59604 0.370462,-1.08733 -0.0884,-0.49129 -0.380766,-0.6958 -0.530851,-0.79401 -0.07323,-0.0479 -0.0857,-0.0274 -0.140422,-0.0547 0.04885,-0.0515 0.09437,-0.0911 0.167192,-0.20939 0.103508,-0.16813 0.308165,-0.54816 0.126814,-1.07078 l -8.78e-4,-8.8e-4 v -8.8e-4 c -0.220224,-0.63065 -0.659354,-0.72821 -0.841192,-0.78198 -0.0489,-0.0144 -0.06221,-0.01 -0.101176,-0.0179 0.02586,-0.0407 0.03802,-0.0382 0.06783,-0.0987 0.101702,-0.20644 0.218042,-0.72043 -0.02656,-1.15494 -0.324591,-0.57608 -0.841833,-0.61458 -1.046047,-0.6216 l 0.0018,-0.004 0.0086,-0.0413 c 0.01765,-0.0411 0.04276,-0.099 0.07373,-0.17491 0.03407,-0.0834 0.0726,-0.17443 0.111387,-0.32917 0.0194,-0.0774 0.04346,-0.16841 0.0456,-0.33189 0.0022,-0.16331 0.0062,-0.46058 -0.2838,-0.80512 l -8.78e-4,-8.8e-4 c -0.256402,-0.3041 -0.670193,-0.42271 -0.903807,-0.42605 -0.140747,-0.002 -0.194103,0.0258 -0.273364,0.0463 -3.12e-4,-0.007 0.0013,-0.007 8.78e-4,-0.0145 -0.0097,-0.17265 -0.02173,-0.54409 -0.45349,-0.88566 -0.275982,-0.2181 -0.603822,-0.26761 -0.804216,-0.25907 -0.116563,0.005 -0.166556,0.0299 -0.238429,0.0497 4.39e-4,-0.0198 0.0035,-0.0268 0.0035,-0.0488 -1.93e-4,-0.0786 0.0022,-0.16826 -0.03789,-0.33689 -0.04008,-0.16832 -0.116146,-0.55141 -0.638608,-0.80852 -0.592653,-0.29175 -0.901405,-0.073 -1.046955,-0.005 -0.130699,0.0608 -0.189099,0.10634 -0.246143,0.14905 -0.0084,-0.0324 -0.004,-0.0405 -0.01703,-0.0805 -0.02792,-0.086 -0.06344,-0.19631 -0.174225,-0.35412 -0.110786,-0.15781 -0.3449,-0.39788 -0.715059,-0.48435 l -8.78e-4,-9.2e-4 c -0.357771,-0.0832 -0.700673,0.03 -0.882256,0.13634 -0.123728,0.0724 -0.167206,0.12867 -0.224588,0.18784 -0.01154,-0.0206 -0.0073,-0.0239 -0.02156,-0.0472 -0.08335,-0.1359 -0.34378,-0.40023 -0.774043,-0.51202 -0.09872,-0.0257 -0.150304,-0.0882 -0.274501,-0.0882 z m -9.689826,9.22931 0.01725,0.0284 c -2.19e-4,8e-5 -4.39e-4,3.1e-4 -8.78e-4,4.4e-4 -0.0046,-0.008 -0.0064,-0.0119 -0.01655,-0.0288 z" /><g
             id="g15602-1-0"
             style="stroke:none;stroke-opacity:1"
             transform="matrix(0.43899893,0,0,0.43899893,293.90194,192.75875)"><path
               id="path833-5-4"
               style="fill:#f0f616;fill-opacity:1;stroke:none;stroke-width:5.29167;stroke-dasharray:none;stroke-opacity:1;paint-order:markers stroke fill"
               d="m -480.65491,45.681961 c -0.19685,0 -0.3499,0.786408 -0.45268,0.984953 l -1.17874,4.265372 c -0.16084,0.01572 -0.3222,0.03483 -0.48214,0.05581 l -1.67122,-3.874699 c -0.13425,-0.170381 -0.36277,-1.01179 -0.55552,-0.966866 -0.19394,0.04584 -0.15773,0.672969 -0.22634,0.892452 l -0.50023,4.641577 c -0.15732,0.05363 -0.31326,0.110351 -0.46871,0.168465 l -1.5198,-1.947684 c -0.16006,-0.137036 -1.05181,-1.484339 -1.23403,-1.39423 -0.18162,0.08928 -0.0507,1.498988 -0.0822,1.729093 l 0.0553,2.979146 c -0.14452,0.08889 -0.28781,0.180038 -0.43046,0.273369 l -2.77192,-2.583305 c -0.17935,-0.09716 -0.55653,-0.502315 -0.71986,-0.372071 -0.16406,0.129461 -0.0282,0.714981 -0.0207,0.948263 l 1.00976,3.995105 c -0.12567,0.119188 -0.2499,0.240653 -0.3731,0.363802 l -3.04323,-1.886707 c -0.19232,-0.05311 -0.78631,-0.518535 -0.92552,-0.353466 -0.14008,0.165591 0.18138,0.339909 0.22634,0.567924 l 1.61024,4.20026 c -0.10343,0.14548 -0.2061,0.29231 -0.30644,0.441317 l -4.96249,-1.677417 c -0.19615,-0.0066 -0.73634,-0.268998 -0.84595,-0.07441 -0.10979,0.193582 0.35027,0.474337 0.43202,0.687813 l 3.70055,4.032312 c -0.0783,0.16816 -0.15625,0.337925 -0.231,0.510046 l -3.59306,-0.434599 c -0.19458,0.03731 -0.70616,-0.06704 -0.78186,0.148828 -0.0752,0.216436 0.42002,0.497029 0.53485,0.68678 l 2.68769,2.894397 c -0.002,0.0066 0.005,0.106205 0.0191,0.247013 -1.28432,0.190942 -3.04436,0.460527 -3.61218,0.586011 -0.92812,0.205074 -0.30885,0.360865 0,0.409794 0.54283,0.08611 2.1601,0.163238 3.64577,0.223242 l -0.66973,0.787033 c -0.11326,0.132594 -0.13892,0.307491 -0.0698,0.462504 0.0693,0.154317 0.22483,0.266754 0.41083,0.297139 l 1.11776,0.181901 c 0.0577,0.116155 0.11829,0.23112 0.18397,0.344165 0,0 0.008,0.0041 0.0217,0.01137 0.12543,0.229566 0.26729,0.45484 0.42323,0.676444 l -0.50023,0.922425 c -0.0822,0.150051 -0.069,0.326735 0.0336,0.466121 0.10226,0.140214 0.27891,0.22383 0.46871,0.221175 l 1.45469,-0.01654 c 0.20258,0.176855 0.41665,0.348896 0.63975,0.517281 l -0.39894,1.382861 c -0.0463,0.161021 0.005,0.332023 0.13694,0.452169 0.13094,0.119666 0.32341,0.171418 0.50798,0.136942 l 1.8216,-0.341064 c 0.11588,0.08972 0.23381,0.178212 0.35295,0.2651 l -0.0956,1.635559 c -0.01,0.165504 0.0789,0.324759 0.23461,0.419613 0.15567,0.09551 0.35535,0.113533 0.52865,0.04806 l 1.70532,-0.645956 c 0.13512,0.06847 0.27086,0.136323 0.40824,0.202055 l 0.26975,1.618506 c 0.0272,0.163981 0.14933,0.305338 0.32298,0.37207 0.17308,0.06695 0.37343,0.05018 0.52814,-0.04393 l 1.52652,-0.925524 c 0.14783,0.04444 0.29647,0.0872 0.447,0.128157 l 0.62218,1.542025 c 0.0633,0.157103 0.21406,0.274319 0.39946,0.310058 0.18475,0.03543 0.37623,-0.01488 0.50695,-0.133325 l 1.29242,-1.173055 c 0.15331,0.0178 0.30703,0.03444 0.46096,0.04858 l 0.95498,1.410767 c 0.0969,0.142825 0.27069,0.232031 0.45992,0.235644 0.18866,0.0036 0.36603,-0.07895 0.46715,-0.218074 l 1.00718,-1.37356 c 0.15441,-0.0082 0.30888,-0.01909 0.4625,-0.03101 l 1.2485,1.221631 c 0.12646,0.12341 0.31691,0.180828 0.5023,0.152446 0.1864,-0.02899 0.34118,-0.139978 0.40979,-0.294556 l 0.67903,-1.51722 c 0.15144,-0.03526 0.30195,-0.07219 0.45165,-0.110588 l 1.49087,0.982369 c 0.15162,0.100208 0.35132,0.124721 0.5271,0.06408 0.17521,-0.06003 0.30277,-0.196389 0.3359,-0.359151 l 0.32917,-1.607137 c 0.13965,-0.06046 0.27762,-0.122866 0.41548,-0.186552 l 1.68052,0.710034 c 0.17064,0.07231 0.37144,0.0622 0.52968,-0.02739 0.15889,-0.08889 0.25378,-0.244588 0.2496,-0.410311 l -0.0351,-1.638143 c 0.12201,-0.08236 0.2431,-0.166474 0.36277,-0.251664 l 1.80764,0.410311 c 0.18361,0.04118 0.37764,-0.0032 0.51315,-0.117823 0.13647,-0.115096 0.19371,-0.283337 0.15348,-0.445967 l -0.38241,-1.540475 c 0.1715,-0.117117 0.33643,-0.237362 0.49765,-0.359151 l 1.64796,0.08165 c 0.18788,0.0083 0.36842,-0.06735 0.47594,-0.203605 0.10787,-0.135381 0.1273,-0.310913 0.0517,-0.464055 l -0.49196,-0.992187 c 0.25915,-0.309601 0.48895,-0.628388 0.68627,-0.955497 l 1.12913,-0.139527 c 0.18705,-0.0229 0.34637,-0.129713 0.42168,-0.281636 0.0749,-0.152359 0.0544,-0.327711 -0.0532,-0.464571 l -0.62787,-0.795817 c 0.0518,-0.124629 0.0994,-0.250627 0.14159,-0.376205 1.40523,-0.05829 2.86142,-0.131069 3.37086,-0.211873 0.30885,-0.04893 0.92808,-0.205193 0,-0.410311 -0.49454,-0.109272 -1.8891,-0.327086 -3.09129,-0.507979 0.0567,-0.338308 0.0742,-0.580156 0.0656,-0.612883 l 2.18333,-2.354378 c 0.11561,-0.189882 0.65128,-0.552036 0.57619,-0.768429 -0.0752,-0.215347 -0.85854,-0.160609 -1.05316,-0.198437 l -2.85926,0.02584 c -0.074,-0.172121 -0.15187,-0.341886 -0.22996,-0.510046 l 1.85208,-2.861324 c 0.0829,-0.213475 0.54172,-0.512792 0.43202,-0.706417 -0.10935,-0.19454 -0.8098,0.06562 -1.00769,0.07441 l -2.95279,0.525033 c -0.10069,-0.148963 -0.20262,-0.296876 -0.30696,-0.441834 l 1.6552,-3.689697 c 0.0452,-0.227971 0.55099,-1.153709 0.41134,-1.319299 -0.13882,-0.16507 -0.79513,0.392381 -0.98702,0.445967 l -3.21014,2.035535 c -0.12259,-0.123149 -0.24764,-0.245131 -0.37362,-0.364319 l 0.90951,-3.19567 c 0.007,-0.233239 0.49342,-1.33871 0.32917,-1.468128 -0.16415,-0.130288 -0.72537,0.367802 -0.90485,0.464571 l -2.83652,2.211752 c -0.14226,-0.09272 -0.28543,-0.184479 -0.42995,-0.273369 l 0.6749,-3.77858 c -0.0316,-0.230148 0.24391,-1.43513 0.0615,-1.524455 -0.1817,-0.08972 -1.13603,0.959974 -1.29553,1.096574 l -2.22157,2.83962 c -0.15506,-0.05859 -0.3109,-0.114836 -0.4687,-0.168466 l -0.21032,-4.28811 c -0.069,-0.219483 -0.0525,-0.995964 -0.2465,-1.04128 -0.19336,-0.04497 -0.44212,0.647701 -0.57619,0.818038 l -1.91978,3.819405 c -0.16028,-0.02098 -0.32079,-0.04009 -0.48163,-0.05581 l -0.97203,-4.39508 c -0.10378,-0.198588 -0.21338,-0.855245 -0.41083,-0.855245 z" /><g
               transform="matrix(0.04353096,0,0,0.04353096,-507.37427,44.923274)"
               id="g847-9-8"
               style="stroke:none;stroke-opacity:1">
		<path
   inkscape:connector-curvature="0"
   id="path843-8-8"
   d="m 467.982,486.018 c 0,0 -41.096,-44.997 -82.191,0 0,0 -32.292,60.001 0,89.998 0,0 52.837,41.999 82.191,0 0,0 35.226,-33.002 0,-89.998 z"
   style="stroke:none;stroke-opacity:1" />
		<path
   inkscape:connector-curvature="0"
   id="path845-4-8"
   d="m 420.404,502.71 c 0,17.521 10.329,31.727 23.066,31.727 12.735,0 23.064,-14.205 23.064,-31.727 0,-17.522 -10.329,-31.728 -23.064,-31.728 -12.738,0 -23.066,14.206 -23.066,31.728 z"
   fill="#ffffff"
   style="stroke:none;stroke-opacity:1" />
	</g><g
               transform="matrix(0.04353096,0,0,0.04353096,-507.37427,44.923274)"
               id="g853-8-9"
               style="stroke:none;stroke-opacity:1">
		<path
   inkscape:connector-curvature="0"
   id="path849-1-7"
   d="m 698.226,469.498 c 0,0 -70.494,-31.212 -89.735,38.454 0,0 -20.153,81.201 57.891,85.784 -10e-4,0 99.518,-19.168 31.844,-124.238 z"
   style="stroke:none;stroke-opacity:1" />
		<path
   inkscape:connector-curvature="0"
   id="path851-0-7"
   d="m 662.819,499.628 c 0,18.068 10.65,32.723 23.79,32.723 13.133,0 23.786,-14.654 23.786,-32.723 0,-18.072 -10.653,-32.723 -23.786,-32.723 -13.139,0 -23.79,14.651 -23.79,32.723 z"
   fill="#ffffff"
   style="stroke:none;stroke-opacity:1" />
	</g></g></g><path
           id="rect2711-9-4-9-4"
           style="fill:#ffffff;fill-opacity:1;stroke:#0da5e2;stroke-width:2.90379;stroke-linecap:round;stroke-linejoin:round;stroke-dasharray:none;stroke-opacity:1;paint-order:markers stroke fill"
           d="m 115.24216,241.01386 c -4.65388,2.06312 -4.2919,4.52669 -3.93008,5.98539 0.76389,3.07969 12.45356,3.96738 13.15437,-1.38367 0.70081,-5.35104 -4.57041,-6.66485 -9.22429,-4.60172 z"
           sodipodi:nodetypes="zszz" /><path
           id="rect2711-9-4-4-39-4"
           style="fill:#ffffff;fill-opacity:1;stroke:#0da5e2;stroke-width:2.26734;stroke-linecap:round;stroke-linejoin:round;stroke-dasharray:none;stroke-opacity:1;paint-order:markers stroke fill"
           d="m 87.30526,242.84059 c -3.633846,1.61093 -3.351204,3.53454 -3.068688,4.67353 0.596464,2.40468 9.873297,4.14289 10.271209,-1.0804 0.397912,-5.22329 -3.568673,-5.20405 -7.202521,-3.59313 z"
           sodipodi:nodetypes="zszz" /><path
           id="rect2711-9-4-4-39-4-0"
           style="fill:#ffffff;fill-opacity:1;stroke:#0da5e2;stroke-width:2.26734;stroke-linecap:round;stroke-linejoin:round;stroke-dasharray:none;stroke-opacity:1;paint-order:markers stroke fill"
           d="m 55.246039,242.80852 c -3.633846,1.61093 -3.351204,3.53454 -3.068688,4.67353 0.596464,2.40468 9.873297,4.14289 10.271209,-1.0804 0.397912,-5.22329 -3.568673,-5.20405 -7.202521,-3.59313 z"
           sodipodi:nodetypes="zszz" /><path
           id="rect2711-9-4-4-3-08-4"
           style="fill:#ffffff;fill-opacity:1;stroke-width:0.0739742;stroke-linecap:round;stroke-linejoin:round;stroke-dasharray:none;paint-order:markers stroke fill"
           d="m 70.243526,228.99396 c -1.352596,0.25294 -1.91869,2.79552 -1.613884,4.02436 0.643524,2.59442 2.248962,2.185 2.306999,-0.26366 0.05804,-2.44866 0.659482,-4.01365 -0.693115,-3.7607 z"
           sodipodi:nodetypes="zszz" /><path
           id="rect2711-9-4-4-3-08-4-2"
           style="fill:#ffffff;fill-opacity:1;stroke-width:0.0739742;stroke-linecap:round;stroke-linejoin:round;stroke-dasharray:none;paint-order:markers stroke fill"
           d="m 37.484628,229.51363 c -1.352596,0.25294 -1.91869,2.79552 -1.613884,4.02436 0.643524,2.59442 2.248962,2.185 2.306999,-0.26366 0.05804,-2.44866 0.659482,-4.01365 -0.693115,-3.7607 z"
           sodipodi:nodetypes="zszz" /><path
           id="rect2711-9-4-7-0-3"
           style="fill:#ffffff;fill-opacity:1;stroke:#0da5e2;stroke-width:2.90379;stroke-linecap:round;stroke-linejoin:round;stroke-dasharray:none;stroke-opacity:1;paint-order:markers stroke fill"
           d="m 134.95544,242.58787 c -4.65388,2.06312 -3.94507,3.48622 -3.58325,4.94492 0.76389,3.07969 10.19919,2.75348 10.8133,-0.77673 0.6141,-3.5302 -2.57617,-6.23131 -7.23005,-4.16819 z"
           sodipodi:nodetypes="zszz" /><g
           id="g6915-9-1"
           transform="matrix(0.43899893,0,0,0.43899893,48.214586,261.75752)"><g
             id="g4092-6-7"
             transform="translate(3.2880474,37.995277)"
             style="fill:#ffffff;fill-opacity:1;stroke:#000000;stroke-opacity:1"><ellipse
               style="fill:#ffffff;fill-opacity:1;stroke:#000000;stroke-width:1.32292;stroke-linecap:round;stroke-linejoin:round;stroke-dasharray:none;stroke-opacity:1;paint-order:markers stroke fill"
               id="path4046-3-5"
               cx="197.81258"
               cy="-113.27335"
               rx="8.1476707"
               ry="10.459352" /><ellipse
               style="fill:#ffffff;fill-opacity:1;stroke:#000000;stroke-width:1.32292;stroke-linecap:round;stroke-linejoin:round;stroke-dasharray:none;stroke-opacity:1;paint-order:markers stroke fill"
               id="path4046-0-8-9"
               cx="215.38597"
               cy="-113.62002"
               rx="8.1476707"
               ry="10.459352" /></g><path
             id="rect2711-9-5-5-6"
             style="fill:#000000;fill-opacity:1;stroke-width:0.2;stroke-linecap:round;stroke-linejoin:round;paint-order:markers stroke fill"
             d="m 210.69465,-74.575731 c 2.48944,-2.264565 4.2639,-2.226531 6.78712,0.143508 -1.01042,-5.10986 -6.25985,-4.220489 -6.78712,-0.143508 z"
             sodipodi:nodetypes="ccc" /><ellipse
             style="fill:#000000;fill-opacity:1;stroke:none;stroke-width:16.3564;stroke-linecap:round;stroke-linejoin:round;stroke-dasharray:none;stroke-opacity:1;paint-order:markers stroke fill"
             id="path6779-6-2"
             cx="207.0835"
             cy="-75.35083"
             rx="2.016639"
             ry="3.3400567" /></g></g></g></g></svg>
