<?xml version="1.0" encoding="UTF-8" standalone="no"?>
<!-- Created with Inkscape (http://www.inkscape.org/) -->

<svg
   xmlns:dc="http://purl.org/dc/elements/1.1/"
   xmlns:cc="http://creativecommons.org/ns#"
   xmlns:rdf="http://www.w3.org/1999/02/22-rdf-syntax-ns#"
   xmlns:svg="http://www.w3.org/2000/svg"
   xmlns="http://www.w3.org/2000/svg"
   xmlns:sodipodi="http://sodipodi.sourceforge.net/DTD/sodipodi-0.dtd"
   xmlns:inkscape="http://www.inkscape.org/namespaces/inkscape"
   width="512"
   height="512"
   viewBox="0 0 135.46666 135.46667"
   version="1.1"
   id="svg8"
   inkscape:version="0.92.4 (5da689c313, 2019-01-14)"
   sodipodi:docname="blyat.svg">
  <defs
     id="defs2" />
  <sodipodi:namedview
     id="base"
     pagecolor="#ffffff"
     bordercolor="#666666"
     borderopacity="1.0"
     inkscape:pageopacity="0.0"
     inkscape:pageshadow="2"
     inkscape:zoom="0.7"
     inkscape:cx="-406.10944"
     inkscape:cy="439.1857"
     inkscape:document-units="px"
     inkscape:current-layer="layer1"
     showgrid="true"
     units="px"
     inkscape:snap-page="false"
     inkscape:window-width="1854"
     inkscape:window-height="1016"
     inkscape:window-x="66"
     inkscape:window-y="27"
     inkscape:window-maximized="1">
    <inkscape:grid
       type="xygrid"
       id="grid867" />
  </sodipodi:namedview>
  <metadata
     id="metadata5">
    <rdf:RDF>
      <cc:Work
         rdf:about="">
        <dc:format>image/svg+xml</dc:format>
        <dc:type
           rdf:resource="http://purl.org/dc/dcmitype/StillImage" />
        <dc:title />
      </cc:Work>
    </rdf:RDF>
  </metadata>
  <g
     inkscape:label="Layer 1"
     inkscape:groupmode="layer"
     id="layer1"
     transform="translate(0,-161.53332)">
    <g
       id="g834"
       transform="matrix(0.60262483,0,0,0.60262483,47.587003,215.09486)">
      <path
         id="path826"
         d="M 125.74,74.99 C 133.53,45.33 117.01,15.77 87.51,10.36 24.09,-1.31 -3.8,53.67 0.83,94.54 c 0,13.63 28.17,24.69 62.93,24.69 32.58,0 59.37,-9.73 62.59,-22.17 0.22,-0.83 0.33,-1.67 0.33,-2.52 0.01,-6.48 -4.12,-7.46 -0.94,-19.55 z"
         inkscape:connector-curvature="0"
         style="fill:#fcc21b" />
      <path
         id="path828"
         d="m 31.07,40.17 c 2.28,-4.54 7.2,-6.69 10.99,-4.84 3.78,1.86 5.01,7.03 2.74,11.56 -2.27,4.53 -7.18,6.69 -10.97,4.83 -3.78,-1.86 -5.02,-7.04 -2.76,-11.55 z"
         inkscape:connector-curvature="0"
         style="fill:#2f2f2f" />
      <path
         id="path830"
         d="m 73.26,76.53 c 0.1,-1.28 -0.68,-2.43 -1.84,-2.84 -0.25,-0.09 -0.51,-0.15 -0.78,-0.17 -18.1,-1.23 -36.02,-5.94 -36.2,-5.99 -1.52,-0.39 -3.05,0.5 -3.46,2.01 -0.38,1.51 0.49,3.06 2.01,3.46 0.75,0.2 18.63,4.89 37.27,6.15 1.56,0.11 2.89,-1.06 3,-2.62 z"
         inkscape:connector-curvature="0"
         style="fill:#2f2f2f" />
      <path
         id="path832"
         d="m 84.1,52.1 c -1.09,5.07 -5.41,8.47 -9.65,7.59 -4.27,-0.89 -6.84,-5.72 -5.77,-10.79 1.09,-5.08 5.41,-8.48 9.67,-7.59 4.25,0.87 6.83,5.69 5.75,10.79 z"
         inkscape:connector-curvature="0"
         style="fill:#2f2f2f" />
    </g>
    <path
       style="fill:#fefefe;fill-rule:nonzero;stroke:#000000;stroke-width:1.58749998;stroke-linecap:round;stroke-linejoin:round;stroke-miterlimit:4;stroke-dasharray:none;stroke-opacity:1;fill-opacity:1"
       d="m 6.8980654,175.94366 v 35.92194 c 0,0.79375 0.5291666,1.32292 1.3229166,1.32292 h 22.206101 c 1.058333,0 1.908522,0.52916 2.686499,1.23216 l 18.480167,17.75639 -3.670538,-17.65904 c -0.191672,-0.80035 0.230955,-1.32951 1.024705,-1.32951 h 67.468754 c 0.79375,0 1.32291,-0.52917 1.32291,-1.32292 v -35.92194 c 0,-0.79375 -0.52916,-1.32292 -1.32291,-1.32292 H 8.220982 c -0.79375,0 -1.3229166,0.52917 -1.3229166,1.32292 z"
       id="path869"
       inkscape:connector-curvature="0"
       sodipodi:nodetypes="cccccccccccccc" />
    <text
       xml:space="preserve"
       style="color:#000000;font-style:normal;font-variant:normal;font-weight:300;font-stretch:normal;font-size:33.86666489px;font-family:'Iosevka Slab';-inkscape-font-specification:'Iosevka Slab Light';font-variant-ligatures:normal;font-variant-position:normal;font-variant-caps:normal;font-variant-numeric:normal;font-variant-alternates:normal;font-feature-settings:normal;text-indent:0;text-align:start;text-decoration:none;text-decoration-line:none;text-decoration-style:solid;text-decoration-color:#000000;letter-spacing:0.635px;word-spacing:normal;text-transform:none;writing-mode:lr-tb;direction:ltr;text-orientation:mixed;dominant-baseline:auto;baseline-shift:baseline;text-anchor:start;white-space:normal;shape-padding:0;clip-rule:nonzero;display:inline;overflow:visible;visibility:visible;opacity:1;isolation:auto;mix-blend-mode:normal;color-interpolation:sRGB;color-interpolation-filters:linearRGB;solid-color:#000000;solid-opacity:1;vector-effect:none;fill:#000000;fill-opacity:1;fill-rule:nonzero;stroke:none;stroke-width:1.58749998;stroke-linecap:round;stroke-linejoin:round;stroke-miterlimit:4;stroke-dasharray:none;stroke-dashoffset:0;stroke-opacity:1;marker:none;color-rendering:auto;image-rendering:auto;shape-rendering:auto;text-rendering:auto;enable-background:accumulate;"
       x="12.284226"
       y="206.09669"
       id="text4893">блять!</text>
  </g>
</svg>
