<?xml version="1.0" encoding="UTF-8" standalone="no"?>
<!-- Created with Inkscape (http://www.inkscape.org/) -->

<svg
   xmlns:dc="http://purl.org/dc/elements/1.1/"
   xmlns:cc="http://creativecommons.org/ns#"
   xmlns:rdf="http://www.w3.org/1999/02/22-rdf-syntax-ns#"
   xmlns:svg="http://www.w3.org/2000/svg"
   xmlns="http://www.w3.org/2000/svg"
   xmlns:sodipodi="http://sodipodi.sourceforge.net/DTD/sodipodi-0.dtd"
   xmlns:inkscape="http://www.inkscape.org/namespaces/inkscape"
   width="175.80374mm"
   height="160.00005mm"
   viewBox="0 0 175.80374 160.00005"
   version="1.1"
   id="svg8"
   inkscape:version="0.92.1 r15371"
   sodipodi:docname="tar4.svg">
  <defs
     id="defs2" />
  <sodipodi:namedview
     id="base"
     pagecolor="#ffffff"
     bordercolor="#666666"
     borderopacity="1.0"
     inkscape:pageopacity="0.0"
     inkscape:pageshadow="2"
     inkscape:zoom="0.73892439"
     inkscape:cx="291.5439"
     inkscape:cy="371.18005"
     inkscape:document-units="mm"
     inkscape:current-layer="layer1"
     showgrid="false"
     inkscape:window-width="1853"
     inkscape:window-height="1016"
     inkscape:window-x="67"
     inkscape:window-y="27"
     inkscape:window-maximized="1"
     showguides="false"
     inkscape:snap-bbox="true"
     inkscape:bbox-nodes="false"
     inkscape:snap-nodes="true"
     fit-margin-top="0"
     fit-margin-left="0"
     fit-margin-right="0"
     fit-margin-bottom="0" />
  <metadata
     id="metadata5">
    <rdf:RDF>
      <cc:Work
         rdf:about="">
        <dc:format>image/svg+xml</dc:format>
        <dc:type
           rdf:resource="http://purl.org/dc/dcmitype/StillImage" />
        <dc:title></dc:title>
      </cc:Work>
    </rdf:RDF>
  </metadata>
  <g
     inkscape:label="grd"
     inkscape:groupmode="layer"
     id="layer1"
     style="display:inline;opacity:1"
     transform="translate(2.9419394,-41.91682)">
    <rect
       style="opacity:1;fill:none;fill-opacity:1;fill-rule:nonzero;stroke:#000000;stroke-width:0.20000002;stroke-linejoin:miter;stroke-miterlimit:4;stroke-dasharray:none;stroke-opacity:1;paint-order:normal"
       id="rect4579"
       width="56.311722"
       height="85.381371"
       x="91.758102"
       y="107.81976" />
    <path
       style="color:#000000;clip-rule:nonzero;display:inline;overflow:visible;visibility:visible;opacity:1;isolation:auto;mix-blend-mode:normal;color-interpolation:sRGB;color-interpolation-filters:linearRGB;solid-color:#000000;solid-opacity:1;vector-effect:none;fill:#ffffff;fill-opacity:1;fill-rule:evenodd;stroke:none;stroke-width:0.85396636;stroke-linecap:square;stroke-linejoin:miter;stroke-miterlimit:4;stroke-dasharray:none;stroke-dashoffset:0;stroke-opacity:1;marker:none;color-rendering:auto;image-rendering:auto;shape-rendering:auto;text-rendering:auto;enable-background:accumulate"
       d="m 291.24414,158.42578 c -166.99011,-6e-4 -302.362801,135.37122 -302.363281,302.36133 -5.96e-4,166.99088 135.372401,302.36388 302.363281,302.36328 52.29513,-0.13138 205.02587,-0.0458 239.3457,0 67.79122,-8.3e-4 122.74634,-54.95683 122.7461,-122.74805 -0.0619,-46.59035 -26.49538,-89.12945 -68.24024,-109.81836 5.54133,-22.85551 8.39723,-46.27947 8.50977,-69.79687 C 593.60499,293.79776 458.23349,158.42626 291.24414,158.42578 Z"
       transform="scale(0.26458333)"
       id="path4545"
       inkscape:connector-curvature="0"
       sodipodi:nodetypes="sscccccs" />
    <path
       style="display:inline;opacity:1;fill:#4a350f;fill-opacity:1;fill-rule:nonzero;stroke:none;stroke-width:0.75590545;stroke-linejoin:miter;stroke-miterlimit:4;stroke-dasharray:none;stroke-opacity:1;paint-order:normal"
       d="m 291.24219,193.02148 a 267.76685,267.76716 0 0 0 -92.93946,17 112.83664,107.64538 0 0 1 51.70899,90.47071 112.83664,107.64538 0 0 1 -112.83789,107.64453 112.83664,107.64538 0 0 1 -36.43945,-5.88477 53.60389,53.603951 0 0 0 30.57421,-48.34765 53.60389,53.603951 0 0 0 -53.603512,-53.60352 53.60389,53.603951 0 0 0 -0.476562,0.008 A 267.76685,267.76716 0 0 0 23.476562,460.78906 267.76685,267.76716 0 0 0 291.24219,728.55469 267.76685,267.76716 0 0 0 451.5,674.89648 53.935006,53.935067 0 0 1 505.19727,621.35547 267.76685,267.76716 0 0 0 559.00977,460.78906 267.76685,267.76716 0 0 0 291.24219,193.02148 Z m 182.82226,449.32227 v 13.63086 a 267.76685,267.76716 0 0 0 13.65625,-13.63086 z"
       id="path4546"
       transform="scale(0.26458333)"
       inkscape:connector-curvature="0" />
    <path
       style="display:inline;opacity:1;fill:#4a350f;fill-opacity:1;fill-rule:nonzero;stroke:none;stroke-width:0.75590557;stroke-linejoin:miter;stroke-miterlimit:4;stroke-dasharray:none;stroke-opacity:1;paint-order:normal"
       d="m 489.86523,726.9043 v -48.20508 h 9.50391 v -14.375 h -9.50391 v -21.98047 h -15.80078 v 21.98047 h -7.72265 v 14.375 h 7.72265 v 40.4082 a 53.935007,53.935068 0 0 0 15.80078,7.79688 z"
       id="path4521"
       inkscape:connector-curvature="0"
       transform="scale(0.26458333)" />
    <path
       style="font-style:normal;font-variant:normal;font-weight:bold;font-stretch:normal;font-size:medium;line-height:93.33332825px;font-family:'URW Gothic';-inkscape-font-specification:'URW Gothic Bold';text-align:center;letter-spacing:0px;word-spacing:0px;text-anchor:middle;display:inline;fill:#4a350f;fill-opacity:1;stroke:none;stroke-width:1.00000012"
       d="m 537.14648,662.7793 c -19.48444,0 -33.5039,14.61289 -33.5039,34.6914 0,19.8409 13.90157,34.2168 33.14844,34.2168 9.26698,0 15.5626,-2.85037 21.85937,-10.09766 v 8.55274 h 14.49609 v -7.08594 -33.26439 c 0,-7.68615 -6.76772,-14.88531 -11.18844,-19.02278 -5.79986,-5.42823 -15.30691,-7.99017 -24.81156,-7.99017 z m 76.53125,0 c -6.70236,0 -15.22533,3.97385 -19.71525,8.46377 -4.77532,4.77532 -9.0367,11.98603 -9.0367,18.48112 v 40.41839 h 15.80274 v -36.5918 c -0.35641,-9.74226 4.63211,-15.208 14.13671,-15.56445 V 662.7793 Z m -74.86718,14.49414 c 11.28672,0 19.36523,8.43596 19.36523,20.43554 0,4.75231 -1.90056,10.21638 -4.75195,13.54297 -3.20784,3.92066 -8.31581,5.94141 -14.375,5.94141 -11.52439,0 -19.48438,-7.84089 -19.48438,-19.36524 0,-11.99958 7.95933,-20.55468 19.2461,-20.55468 z"
       id="path4514"
       inkscape:connector-curvature="0"
       sodipodi:nodetypes="ssscccccssssccccccssscsss"
       transform="scale(0.26458333)" />
  </g>
  <g
     inkscape:groupmode="layer"
     id="layer3"
     inkscape:label="main sphr"
     style="display:inline"
     transform="translate(2.9419394,-41.91682)" />
  <g
     inkscape:groupmode="layer"
     id="layer4"
     inkscape:label="t"
     style="display:inline"
     transform="translate(2.9419394,-41.91682)" />
  <g
     inkscape:groupmode="layer"
     id="layer5"
     inkscape:label="a r"
     style="display:inline"
     transform="translate(2.9419394,-41.91682)" />
  <g
     inkscape:groupmode="layer"
     id="layer2"
     inkscape:label="Layer 5"
     style="display:inline"
     transform="translate(2.9419394,-41.91682)" />
</svg>
