<?xml version="1.0" encoding="UTF-8" standalone="no"?>
<!-- Created with Inkscape (http://www.inkscape.org/) -->

<svg
   width="900"
   height="900"
   viewBox="0 0 238.125 238.125"
   version="1.1"
   id="svg1"
   xml:space="preserve"
   inkscape:export-filename="oma-1.17.png"
   inkscape:export-xdpi="96"
   inkscape:export-ydpi="96"
   inkscape:version="1.4.1 (unknown)"
   sodipodi:docname="oma-1.17.svg"
   xmlns:inkscape="http://www.inkscape.org/namespaces/inkscape"
   xmlns:sodipodi="http://sodipodi.sourceforge.net/DTD/sodipodi-0.dtd"
   xmlns="http://www.w3.org/2000/svg"
   xmlns:svg="http://www.w3.org/2000/svg"><sodipodi:namedview
     id="namedview1"
     pagecolor="#ffe5e5"
     bordercolor="#000000"
     borderopacity="0.25"
     inkscape:showpageshadow="2"
     inkscape:pageopacity="0.0"
     inkscape:pagecheckerboard="0"
     inkscape:deskcolor="#d1d1d1"
     inkscape:document-units="mm"
     inkscape:export-bgcolor="#ffe5e5ff"
     inkscape:zoom="0.30215207"
     inkscape:cx="153.89602"
     inkscape:cy="529.53468"
     inkscape:window-width="1981"
     inkscape:window-height="1192"
     inkscape:window-x="1225"
     inkscape:window-y="375"
     inkscape:window-maximized="0"
     inkscape:current-layer="layer1" /><defs
     id="defs1"><clipPath
       clipPathUnits="userSpaceOnUse"
       id="clipPath2"><rect
         style="fill:#000000;stroke-width:0.189704;stroke-linecap:round;stroke-linejoin:round;paint-order:markers stroke fill"
         id="rect2"
         width="238.125"
         height="238.125"
         x="0"
         y="-2.8421709e-14" /></clipPath></defs><g
     inkscape:label="图层 1"
     inkscape:groupmode="layer"
     id="layer1"><g
       id="g20"
       style="display:none"
       transform="translate(-144.38692,-14.526344)"><path
         style="fill:none;fill-opacity:1;stroke:#367ad7;stroke-width:2.38125;stroke-linecap:round;stroke-linejoin:round;stroke-dasharray:none;stroke-opacity:1;paint-order:fill markers stroke"
         d="M 94.845759,43.635833 C 100.28722,26.471757 110.06789,54.386691 107.73303,71.219104"
         id="path38"
         sodipodi:nodetypes="cc" /><path
         style="color:#000000;fill:#e85f59;fill-opacity:1;stroke-linecap:round;stroke-linejoin:round;-inkscape-stroke:none;paint-order:fill markers stroke"
         d="m 105.44168,52.928865 c 1.2862,5.903147 1.86444,12.694536 1.11105,18.125822 -0.0908,0.652252 0.36514,1.254327 1.01758,1.34375 0.65088,0.08968 1.25138,-0.364847 1.3418,-1.015625 0.64634,-4.65961 0.41183,-10.035342 -0.39356,-15.127503 0,0 -3.06202,-3.469591 -3.07687,-3.326444 z"
         id="path38-9"
         sodipodi:nodetypes="cccccc" /></g><rect
       style="fill:#ffe5e5;fill-opacity:1;stroke-width:0.279772;stroke-linecap:round;stroke-linejoin:round;paint-order:markers stroke fill"
       id="rect3"
       width="238.125"
       height="238.125"
       x="-5.6843419e-14"
       y="-2.8421709e-14" /><g
       id="g2"
       clip-path="url(#clipPath2)"><path
         id="rect50-1-9"
         style="fill:#e7534c;fill-opacity:1;stroke-width:9.51782;stroke-linecap:round;stroke-linejoin:round;paint-order:fill markers stroke"
         d="m 29.894689,307.76381 32.827761,-4.46528 52.23096,-3.73414 34.12559,6.30676 -7.89686,51.10467 -107.781032,-0.14716 z"
         sodipodi:nodetypes="ccccccc" /><path
         id="rect50-1-9-4"
         style="fill:#ffffff;fill-opacity:1;stroke-width:9.51782;stroke-linecap:round;stroke-linejoin:round;paint-order:fill markers stroke"
         d="m 74.581692,326.00648 30.009498,0.0507 33.29613,32.97662 -89.793991,-0.35963 z"
         sodipodi:nodetypes="ccccc" /><path
         id="rect68-5"
         style="fill:#ffe8e0;fill-opacity:1;stroke-width:9.51782;stroke-linecap:round;stroke-linejoin:round;paint-order:fill markers stroke"
         d="m 160.82711,288.3737 13.44095,-6.30188 20.7921,34.31016 31.99986,-6.89625 c 10.00434,0.45309 10.46604,28.73906 13.51362,49.48272 l -77.87931,1.63382 z"
         sodipodi:nodetypes="ccccccc" /><path
         id="rect68-8"
         style="fill:#e1b8ab;fill-opacity:1;stroke-width:9.51782;stroke-linecap:round;stroke-linejoin:round;paint-order:fill markers stroke"
         d="m 161.33004,316.56338 18.04593,21.43321 -13.71856,12.07232 -4.80365,-15.99631 z"
         sodipodi:nodetypes="ccccc" /><path
         id="rect68-7"
         style="fill:#ffffff;fill-opacity:1;stroke-width:9.51782;stroke-linecap:round;stroke-linejoin:round;paint-order:fill markers stroke"
         d="m 163.21469,350.96888 43.58217,-39.29433 c 19.10275,-4.49275 25.78961,-1.12209 27.98186,5.09512 l 2.97475,42.9413 H 163.4252 Z"
         sodipodi:nodetypes="cccccc" /><path
         id="rect50-79"
         style="fill:#1d2437;fill-opacity:0.402685;stroke-width:9.51782;stroke-linecap:round;stroke-linejoin:round;paint-order:fill markers stroke"
         d="m 163.07825,357.64063 c 0,0 9.61414,-8.23575 16.643,-9.12313 4.85463,-0.61288 9.88268,1.14688 14.58764,0.16089 3.49191,-0.73182 6.5637,-5.74195 12.07886,-7.16032 4.99545,-1.28469 8.96217,2.79695 13.91651,2.27047 7.61646,-0.80939 13.23545,-13.53013 13.23545,-13.53013 l 4.30428,26.67231 z"
         sodipodi:nodetypes="cssssccc" /><path
         id="rect50-1-9-9"
         style="fill:#604640;fill-opacity:1;stroke-width:9.51782;stroke-linecap:round;stroke-linejoin:round;paint-order:fill markers stroke"
         d="m 51.394382,231.26604 66.032068,-0.80661 33.05363,29.69522 12.445,66.24152 -18.76948,-2.88038 3.17277,-19.17058 L 87.542465,294.05034 28.855545,309.81151 7.3390757,301.19599 3.2891136,286.16186 C 14.431064,261.39731 26.722356,238.15157 51.394382,231.26604 Z"
         sodipodi:nodetypes="ccccccccccc" /><path
         id="rect50"
         style="fill:#ffffff;fill-opacity:1;stroke-width:9.51782;stroke-linecap:round;stroke-linejoin:round;paint-order:fill markers stroke"
         d="m -78.234086,295.95373 27.547959,10.51659 4.687797,7.95049 11.540702,42.07222 -10.048987,5.01579 -45.316972,-42.22494 z"
         sodipodi:nodetypes="ccccccc" /><path
         id="rect50-1-0"
         style="fill:#ffdda2;fill-opacity:1;stroke-width:9.51782;stroke-linecap:round;stroke-linejoin:round;paint-order:fill markers stroke"
         d="m -86.073099,315.58028 44.553932,45.5679 -65.079483,-3.43586 z"
         sodipodi:nodetypes="cccc" /><path
         id="rect68-9"
         style="fill:#604640;fill-opacity:1;stroke-width:9.51782;stroke-linecap:round;stroke-linejoin:round;paint-order:fill markers stroke"
         d="m 16.392712,335.12422 8.27432,-1.54879 6.477239,11.60761 -18.523782,3.98825 z"
         sodipodi:nodetypes="ccccc" /><path
         id="rect68-96"
         style="fill:#ccd2d8;fill-opacity:1;stroke-width:9.51782;stroke-linecap:round;stroke-linejoin:round;paint-order:fill markers stroke"
         d="m 70.354737,326.86967 34.122453,-0.34106 31.71754,30.29871 -17.59739,-0.0834 -16.88553,-21.28006 c -11.822694,4.09358 -20.998392,5.37473 -25.557827,1.75109 l -10.91385,19.81956 -14.495701,-0.37778 z"
         sodipodi:nodetypes="ccccccccc" /><path
         id="rect68-2"
         style="fill:#f1b181;fill-opacity:1;stroke-width:9.51782;stroke-linecap:round;stroke-linejoin:round;paint-order:fill markers stroke"
         d="m -89.928445,319.34268 14.110298,10.7131 1.341554,26.38431 -34.549697,-0.33537 c 7.96933,-9.78507 18.200571,-23.44097 19.097845,-36.76204 z"
         sodipodi:nodetypes="ccccc" /><path
         id="rect50-7"
         style="fill:none;fill-opacity:1;stroke:#000000;stroke-width:9.51782;stroke-linecap:round;stroke-linejoin:round;stroke-opacity:1;paint-order:fill markers stroke"
         d="m 55.158181,222.12692 57.938809,0.27077 c 0,0 27.06989,13.25504 39.705,27.22346 12.63513,13.96838 34.95,59.02275 34.95,59.02275 0,0 2.8307,6.47884 8.47173,6.81623 5.45384,0.32605 6.79972,-4.15676 8.95292,-5.13005 1.9478,-0.88045 5.0375,0.84693 8.19265,0.61994 2.3139,-0.16646 5.40328,-0.65065 7.32642,-1.65639 6.61348,-3.45862 21.4353,6.58385 12.94734,24.34619 3.44175,4.42868 4.79835,21.18921 4.77788,25.27412 h -75.67807 l -2.46705,-33.3859 -11.36048,-1.51292 -6.18788,34.89882 H 31.296443 l -4.276954,-26.60139 -11.609228,3.09998 -9.6222161,23.50141 H -110.84941 l 17.767521,-26.62591 c 0.968418,-15.32662 14.44476,-19.60111 13.498783,-44.27824 z"
         sodipodi:nodetypes="cczcsssscccccccccccccc" /><path
         id="rect68-75"
         style="fill:#47332e;fill-opacity:1;stroke-width:9.51782;stroke-linecap:round;stroke-linejoin:round;paint-order:fill markers stroke"
         d="M 5.106121,277.91695 20.244375,263.3524 27.278722,304.75246 7.061856,299.6816 Z"
         sodipodi:nodetypes="ccccc" /><path
         style="color:#000000;fill:#252e33;stroke-width:3.27026;stroke-linecap:round;stroke-linejoin:round;-inkscape-stroke:none;paint-order:fill markers stroke"
         d="m -64.659097,128.27183 c 8.729407,-67.449878 11.610906,-164.59843 8.57233,-223.594974 -3.285304,-63.786986 58.8538298,-43.242426 102.075718,33.608531 9.508555,16.906741 14.541144,29.610697 14.836733,56.2909983 L 86.809263,-7.2782856 C 87.786616,-21.390362 84.969292,-57.64241 105.42181,-109.74383 c 33.44657,-85.20292 71.14956,16.936149 94.08178,69.321795 20.61472,47.0915742 -1.60272,99.073854 -1.60272,99.073854 l 7.07256,8.545196 c 6.21008,13.355186 9.73627,28.691451 15.03003,42.475155 15.2912,3.76911 13.35057,32.47756 -0.22466,37.75003 19.82031,50.83694 21.14705,92.05719 -21.90723,110.19934 3.29753,8.10864 4.31242,34.60613 -11.59143,12.40418 -6.73931,8.78303 -16.48968,16.57678 -26.33617,20.03324 -1.51677,-10.23306 -3.5078,-21.33222 -7.54026,-32.19696 -9.93892,-7.65459 -23.89762,-18.8685 -38.53624,-25.93651 -19.971919,0.73113 -37.011415,5.77681 -61.984132,-1.61835 -11.913211,3.35365 -18.944379,11.83133 -29.553621,18.09731 l -20.3705256,37.99647 4.4153644,13.85307 c 19.2090772,4.58562 27.2563402,16.52042 26.3527482,26.8426 -5.053293,1.04288 -7.42316,4.28136 -19.279718,-0.242 3.453759,16.67802 -3.329289,26.45429 -8.4953077,37.82785 -35.6095523,2.29805 -58.5123233,-25.09965 -47.5889443,-47.18827 l -7.800198,-11.30195 c -89.005306,-30.45692 -32.380341,-89.32947 -20.730038,-139.42651 -9.322926,-28.07085 2.145822,-33.71596 6.507675,-38.49381 z"
         id="path35"
         sodipodi:nodetypes="cssccsscccccccccccccccccccsc" /><path
         style="fill:none;fill-opacity:1;stroke:#ffffff;stroke-width:3.46101;stroke-linecap:round;stroke-linejoin:round;stroke-dasharray:none;stroke-opacity:0.997315;paint-order:fill markers stroke"
         d="m 22.137645,248.56907 c -1.720623,17.50762 3.623076,42.5125 6.218048,58.77667"
         id="path69"
         sodipodi:nodetypes="cc" /><path
         id="rect1-9"
         style="fill:#ffffff;fill-opacity:1;stroke:none;stroke-width:0.654051;stroke-linecap:square;paint-order:fill markers stroke"
         d="M -38.158925,-80.507801 C -55.710115,-181.23692 66.010834,-70.479151 61.159934,-5.6700678 34.09075,-2.0040863 7.7049586,17.379937 -18.831356,33.301915 c 0,0 -1.776378,-13.080599 -19.327569,-113.809716 z"
         sodipodi:nodetypes="zccz" /><path
         id="rect1-9-7"
         style="fill:#151d23;fill-opacity:1;stroke:none;stroke-width:0.654051;stroke-linecap:square;paint-order:fill markers stroke"
         d="m 162.82517,64.866172 20.21447,31.3059 15.63213,-5.556321 7.18626,11.071249 -12.41854,5.14903 10.76049,22.53824 27.26237,-1.68749 -5.28938,19.23935 -18.75097,-1.86833 -5.74447,13.06897 c 12.98259,20.36863 11.40633,30.54898 14.27556,45.22557 3.51317,17.97055 3.10537,20.70282 8.37326,13.88986 l 6.43201,-8.31849 c -4.37309,29.37705 -15.05682,47.8595 -36.50919,41.2802 l 0.96587,-36.8162 c 3.98923,-24.4387 4.08446,-49.89991 7.10751,-74.44597 0,0 -12.48872,-0.88402 -17.11819,1.38554 -1.62728,0.79775 -3.27425,3.86469 -3.62227,5.64329 -0.78977,4.03608 6.55644,7.20408 6.10466,12.39012 -0.38939,4.47002 -3.69644,5.7514 -4.45364,10.53641 -0.59276,3.74598 6.03618,11.30597 5.5341,15.12115 -0.52831,4.01469 -1.55707,7.65933 -2.767,10.82916 -1.2201,3.19651 3.16698,12.65004 2.82246,15.91588 -0.007,0.0229 -5.35783,3.52734 -5.35783,3.52734 -3.94612,-13.55597 -4.53297,-27.48518 -12.43224,-40.60188 l 6.84239,-15.64698 -6.22389,-14.39695 c 3.07068,-5.86308 5.44809,-15.42345 9.87376,-14.05991 L 162.06778,96.511728 c -4.02981,-10.548517 -0.96849,-21.097037 0.75739,-31.645556 z"
         sodipodi:nodetypes="ccccccccccssccccsssssscccccccc" /><path
         id="rect1-9-99"
         style="fill:#151d23;fill-opacity:1;stroke:none;stroke-width:0.654051;stroke-linecap:square;paint-order:fill markers stroke"
         d="m 114.32137,230.51343 c 19.59852,-10.47565 45.13684,-25.99319 58.90884,-52.97271 13.07521,13.01363 2.1258,23.87693 6.79007,36.09216 -28.79779,11.63669 -6.391,38.59551 0.83617,32.66065 -1.96663,19.96659 -11.39351,29.15732 -18.78426,41.28913 L 153.6502,259.0166 c -9.94462,-11.76178 -25.05844,-19.83124 -39.32883,-28.50317 z"
         sodipodi:nodetypes="ccccccc" /><ellipse
         style="fill:#151d23;fill-opacity:1;stroke:none;stroke-width:3.75017;stroke-linecap:round;stroke-linejoin:round;stroke-dasharray:none;stroke-opacity:1;paint-order:fill markers stroke"
         id="path31"
         cx="-40.580334"
         cy="69.881432"
         rx="2.5536883"
         ry="9.3635235"
         transform="rotate(-47.098906)" /><path
         id="rect1-9-4"
         style="fill:#151d23;fill-opacity:1;stroke:none;stroke-width:0.654051;stroke-linecap:square;paint-order:fill markers stroke"
         d="m -40.020872,315.41441 26.762676,-9.2233 c 12.29963426,6.69248 13.21456075,30.46202 11.595005,58.03327 -60.804611,-13.17201 -38.495764,-31.70616 -38.357681,-48.80997 z"
         sodipodi:nodetypes="cccc" /><path
         id="rect1-9-0"
         style="fill:#151d23;fill-opacity:1;stroke:none;stroke-width:0.654051;stroke-linecap:square;paint-order:fill markers stroke"
         d="M -6.5023578,109.42904 C 26.32155,89.017435 15.589379,97.780431 15.589379,97.780431 l -11.3089915,37.065109 -12.0018548,5.73852 -2.6587617,35.15988 c -1.136827,15.03357 -4.671462,12.94116 -4.548523,-0.65768 l 0.127213,-14.07127 c 0.03074,-3.39371 -0.752319,-5.40599 -5.237517,0.79579 -5.536546,7.65547 -7.525415,7.56898 -16.476332,13.01873 -8.950917,5.44975 -6.703747,11.31466 -15.994283,43.64522 -14.395324,50.09491 -7.33249,51.42424 31.490359,68.02976 4.235418,-16.0015 7.442563,-32.04725 8.729681,-50.42332 1.796892,-25.65409 7.5156435,-17.23144 8.7897031,4.3154 0.478769,8.09696 -0.00265,31.34012 -6.4440653,47.17278 l -37.2304628,13.39576 c -39.344337,-1.38107 -48.073563,-21.47137 -51.353975,-44.89151 0.08804,-30.34551 17.307243,-60.69101 27.669862,-91.03652 l 0.485479,-18.6782 c 8.272368,6.66946 11.313067,7.86559 21.020509,0.63766 3.04147,-2.26462 7.937186,0.92388 10.922284,-1.09449 3.641651,-2.4623 5.873108,-11.81387 9.199126,-14.05072 4.584041,-3.08287 11.144573,-3.19589 14.922633,-5.78243 5.3654594,-3.67331 4.385687,-14.51265 7.8061867,-16.6397 z"
         sodipodi:nodetypes="scccsssszscsscccccssssss" /><path
         id="rect1-9-14"
         style="fill:#151d23;fill-opacity:1;stroke:none;stroke-width:0.654051;stroke-linecap:square;paint-order:fill markers stroke"
         d="m -55.205914,-87.15026 c 17.409461,80.9275415 12.658157,139.103997 11.566989,200.2495 l -22.06754,16.43563 c 11.236461,-63.632504 9.676603,-141.483155 10.500551,-216.68513 z"
         sodipodi:nodetypes="cccc" /><path
         id="rect1-9-76"
         style="fill:#151d23;fill-opacity:1;stroke:none;stroke-width:0.654051;stroke-linecap:square;paint-order:fill markers stroke"
         d="m 21.401866,214.50725 29.864626,17.15207 -28.671659,17.50013 z"
         sodipodi:nodetypes="cccc" /><path
         id="rect34-0"
         style="fill:#ffffff;fill-opacity:1;stroke-width:5.19153;stroke-linecap:round;stroke-linejoin:round;paint-order:fill markers stroke"
         d="M 126.29706,-93.672828 C 111.47571,-189.2491 222.36524,-103.45679 199.65883,56.712318 179.49982,38.202621 161.25028,18.077185 134.15711,5.4348371 c 0,0 6.9613,-3.5313908 -7.86005,-99.1076651 z"
         sodipodi:nodetypes="zccz" /><path
         id="rect1-9-1"
         style="fill:#151d23;fill-opacity:1;stroke:none;stroke-width:0.654051;stroke-linecap:square;paint-order:fill markers stroke"
         d="M -17.740833,36.627358 C 4.8889955,18.459017 31.707242,5.7797152 55.981053,-4.168709 17.424589,21.614632 -1.8464922,44.361111 -14.650221,71.792266 Z"
         sodipodi:nodetypes="cccc" /><path
         id="rect34"
         style="fill:#151d23;fill-opacity:1;stroke-width:5.19153;stroke-linecap:round;stroke-linejoin:round;paint-order:fill markers stroke"
         d="m 116.68692,-123.29995 c -2.82664,39.643139 -7.77071,92.025398 -5.94112,121.4248329 L 85.59536,-8.6644595 C 92.435849,-58.668685 106.28988,-93.745872 116.68692,-123.29995 Z"
         sodipodi:nodetypes="cccc" /><g
         id="g49"
         transform="matrix(3.2702575,0,0,3.2702575,-179.80347,-200.21595)"><path
           id="rect49"
           style="fill:#e7534c;fill-opacity:1;stroke-width:2.91042;stroke-linecap:round;stroke-linejoin:round;paint-order:fill markers stroke"
           d="m 41.146064,157.64639 15.520005,-5.05303 -1.243204,-3.32858 c -5.601221,0.0991 -10.572939,1.54704 -14.677835,4.85251 z"
           sodipodi:nodetypes="ccccc" /><path
           id="rect49-6"
           style="fill:#3479d7;fill-opacity:1;stroke-width:2.91042;stroke-linecap:round;stroke-linejoin:round;paint-order:fill markers stroke"
           d="m 45.017427,156.38594 11.648642,-3.79258 -1.243204,-3.32858 c -2.10541,0.0373 -4.121879,0.26508 -6.036802,0.71049 z"
           sodipodi:nodetypes="ccccc" /></g><path
         id="rect68-90"
         style="fill:#c6cdd4;fill-opacity:1;stroke-width:9.51782;stroke-linecap:round;stroke-linejoin:round;paint-order:fill markers stroke"
         d="m -77.419085,298.6394 11.71866,3.21342 c 0,0 -1.729273,4.00018 1.459699,10.46783 1.032656,2.09437 4.499989,4.42002 7.455213,7.65567 2.947067,3.22673 0.616466,4.84358 2.674671,7.71346 3.371358,4.70093 8.558343,4.20444 8.558343,4.20444 l -4.024667,20.6314 -33.878923,-31.86195 z"
         sodipodi:nodetypes="ccssscccc" /><path
         id="rect49-0"
         style="fill:#1d2437;fill-opacity:0.402685;stroke-width:9.51782;stroke-linecap:round;stroke-linejoin:round;paint-order:fill markers stroke"
         d="m -46.877833,315.83968 34.031071,-9.32439 4.4122085,-20.05992 c -18.3174345,0.32408 -26.3306975,7.0335 -39.7547645,17.84324 z"
         sodipodi:nodetypes="ccccc" /><path
         style="fill:none;fill-opacity:1;stroke:#ffffff;stroke-width:3.46101;stroke-linecap:round;stroke-linejoin:round;stroke-dasharray:none;stroke-opacity:0.997315;paint-order:fill markers stroke"
         d="m 138.71788,248.19967 c 3.73539,16.62572 7.22197,33.58322 8.35899,53.67346"
         id="path70"
         sodipodi:nodetypes="cc" /><path
         id="rect68-06"
         style="fill:#342320;fill-opacity:0.550336;stroke-width:9.51782;stroke-linecap:round;stroke-linejoin:round;paint-order:fill markers stroke"
         d="m 116.84347,235.30262 36.8877,21.92721 5.4818,18.01699 -42.60784,-21.2122 z"
         sodipodi:nodetypes="ccccc" /><path
         id="rect68-6"
         style="fill:#342320;fill-opacity:0.550336;stroke-width:9.51782;stroke-linecap:round;stroke-linejoin:round;paint-order:fill markers stroke"
         d="m 21.195101,242.58522 26.884784,-7.50907 6.382708,16.91544 -40.964288,19.71129 z"
         sodipodi:nodetypes="ccccc" /><path
         id="rect68-0"
         style="fill:#432923;fill-opacity:1;stroke-width:9.51782;stroke-linecap:round;stroke-linejoin:round;paint-order:fill markers stroke"
         d="m 53.941171,230.23231 25.285268,1.37616 -0.688079,16.81243 -23.909111,-2.06422 z"
         sodipodi:nodetypes="ccccc" /><path
         id="rect68-60-0"
         style="fill:#ba3e38;fill-opacity:1;stroke-width:9.51782;stroke-linecap:round;stroke-linejoin:round;paint-order:fill markers stroke"
         d="m 32.719175,349.67049 40.21677,-26.775 1.396955,8.67968 -29.972413,27.93916 z"
         sodipodi:nodetypes="ccccc" /><g
         id="g39"
         transform="matrix(3.2702575,0,0,3.2702575,-179.80347,-200.21595)"><path
           style="fill:none;fill-opacity:1;stroke:#367ad7;stroke-width:2.38125;stroke-linecap:round;stroke-linejoin:round;stroke-dasharray:none;stroke-opacity:1;paint-order:fill markers stroke"
           d="M 51.322975,71.671289 C 52.840032,54.6697 51.118754,59.740013 49.514234,44.427155 47.909714,29.114297 64.81996,43.631698 63.192825,63.758054"
           id="path37"
           sodipodi:nodetypes="czc" /><path
           style="color:#000000;fill:#e85f59;fill-opacity:1;stroke-linecap:round;stroke-linejoin:round;-inkscape-stroke:none;paint-order:fill markers stroke"
           d="m 60.254908,50.137542 c 1.354705,3.876846 2.154664,8.530962 1.750951,13.524567 -0.05327,0.655971 0.435761,1.230734 1.091797,1.283203 0.655238,0.05213 1.22876,-0.436586 1.28125,-1.091796 0.356237,-4.406368 -0.131471,-8.540558 -1.1233,-12.187852 z"
           id="path37-4"
           sodipodi:nodetypes="cccccc" /><path
           style="color:#000000;fill:#e85f59;fill-opacity:1;stroke-linecap:round;stroke-linejoin:round;-inkscape-stroke:none;paint-order:fill markers stroke"
           d="m 50.239552,56.613758 c 0.06409,0.336555 0.122551,0.663378 0.17451,0.989758 0.422642,2.654831 0.478573,5.491373 -0.277343,13.96289 -0.05802,0.654689 0.425428,1.232557 1.080078,1.291016 0.655417,0.05917 1.234533,-0.424595 1.292969,-1.080078 0.761139,-8.530055 0.71572,-11.66021 0.255859,-14.548828 -0.196858,-1.236567 -0.457937,-2.390587 -0.754641,-3.902254 0,0 -1.731192,3.406922 -1.771432,3.287496 z"
           id="path37-8"
           sodipodi:nodetypes="cscccscc" /></g><path
         id="rect34-4"
         style="fill:#264e71;fill-opacity:0.414765;stroke-width:5.19153;stroke-linecap:round;stroke-linejoin:round;paint-order:fill markers stroke"
         d="M -40.577427,-91.487184 C -26.515941,-59.72279 -18.998306,-28.367388 5.4345137,4.0452164 24.820008,-5.3240026 42.324572,-6.2290464 60.37241,-9.5788071 L -17.844504,37.510818 Z"
         sodipodi:nodetypes="ccccc" /><path
         style="fill:none;fill-opacity:0.524832;stroke:#000000;stroke-width:9.51782;stroke-linecap:round;stroke-linejoin:round;stroke-dasharray:none;stroke-opacity:1;paint-order:fill markers stroke"
         d="m -40.864765,-88.975335 c 8.691563,58.221571 24.230885,111.322682 25.198894,169.544253 0,0 -7.663149,3.022863 -16.653943,10.765063 -3.174237,2.733412 0.290006,12.789309 -5.342849,19.536939 -3.901649,4.67381 -6.860677,2.31039 -11.348526,5.66914 -3.054182,2.28579 -1.317453,11.56872 -4.508711,14.57265 -4.524941,4.25931 -14.71193,3.87175 -14.71193,3.87175"
         id="path1"
         sodipodi:nodetypes="ccssssc" /><path
         id="rect1-0"
         style="fill:#ffe8e0;fill-opacity:1;stroke:#000000;stroke-width:0.654051;stroke-linecap:square;stroke-opacity:1;paint-order:fill markers stroke"
         d="m 42.868128,70.463342 4.755474,52.886668 57.918708,-4.07048 8.08612,-10.09364 15.64562,4.15997 -2.51262,-42.540368 38.54354,28.756359 10.19696,22.269159 -4.81572,66.92116 C 135.10087,242.6226 81.255296,240.12442 21.197394,218.44909 L 5.1146106,119.2312 Z"
         sodipodi:nodetypes="cccccccccccc" /><path
         id="rect1-03"
         style="fill:#e0b7ab;fill-opacity:1;stroke:none;stroke-width:0.654051;stroke-linecap:square;paint-order:fill markers stroke"
         d="m 112.30934,108.90859 12.53583,7.67531 c 0,0 -4.72886,-0.94959 -6.72392,-0.4744 -1.99506,0.47519 -3.0258,5.73871 -6.09078,10.04297 -3.06499,4.30426 -41.595053,7.24441 -64.678201,6.22014 -5.226627,-0.23187 -8.184918,-3.11535 -8.723262,-8.11294 -0.469978,-4.36295 -2.905277,-42.988899 -3.670903,-47.035427 -2.388259,-0.02584 -3.876779,20.235536 -7.471243,24.451537 -3.080743,3.61346 -6.845807,3.02308 -9.627082,8.40999 -1.415486,2.74159 -0.294454,5.71068 -2.895136,8.50409 C 8.5551275,125.4744 2.065949,122.19427 2.7904876,119.78348 14.902197,106.6655 29.082282,82.532734 43.295429,74.87848 l 3.666809,48.04296 59.699842,-4.58488 z"
         sodipodi:nodetypes="cczzsscsssccccc" /><ellipse
         style="fill:#151d23;fill-opacity:1;stroke:none;stroke-width:3.75017;stroke-linecap:round;stroke-linejoin:round;stroke-dasharray:none;stroke-opacity:1;paint-order:fill markers stroke"
         id="path31-6"
         cx="-60.550705"
         cy="72.400215"
         rx="2.5536883"
         ry="9.3635235"
         transform="rotate(-47.098906)" /><path
         style="fill:none;fill-opacity:0.524832;stroke:#000000;stroke-width:9.51782;stroke-linecap:round;stroke-linejoin:round;stroke-dasharray:none;stroke-opacity:1;paint-order:fill markers stroke"
         d="m -69.946279,165.89713 c 0,0 9.959795,8.89994 19.657672,-0.14128 2.208957,-2.05938 3.32421,-7.72971 6.197144,-9.60749 3.264231,-2.13352 10.554625,6.7696 13.938927,3.49852 3.715228,-3.59094 5.19916,-14.52589 9.398752,-18.73459 6.155753,-6.16907 13.5520423,2.15403 19.3842327,-3.18549 7.453149,-6.82359 2.5237296,-17.47371 6.9339204,-21.41887 4.2632744,-3.81373 6.6685949,-4.03273 9.4749529,-7.35437 2.248711,-2.66161 -0.916728,-8.31245 1.180527,-10.855748 2.80212,-3.398059 8.742929,-3.236407 11.576107,-5.994159 2.336507,-2.274311 -1.610524,-7.999181 0.237682,-10.079222 C 33.84036,75.489315 43.16939,73.96166 43.16939,73.96166"
         id="path2"
         sodipodi:nodetypes="cssssssssssc" /><path
         id="rect1-9-9"
         style="fill:#151d23;fill-opacity:1;stroke:none;stroke-width:0.654051;stroke-linecap:square;paint-order:fill markers stroke"
         d="m 47.18321,107.34218 7.496558,-0.46681 c 1.24138,-0.0773 2.04414,-1.80098 2.165264,-3.03886 l 0.711889,-7.275496 c 0.718453,-7.342562 4.035429,-5.255177 4.964653,-0.400643 l 1.451523,7.583169 c 0.582875,3.04511 2.803327,2.56655 5.228446,2.13414 20.336256,-3.62609 56.631117,-21.295747 56.631117,-21.295747 l 1.59835,30.113687 -15.45518,-8.81932 -7.49226,10.98467 -55.043752,4.51738 z"
         sodipodi:nodetypes="csssssscccccc" /><path
         style="fill:none;fill-opacity:0.524832;stroke:#000000;stroke-width:9.51782;stroke-linecap:round;stroke-linejoin:round;stroke-dasharray:none;stroke-opacity:1;paint-order:fill markers stroke"
         d="m 127.50931,72.798528 c 0,0 -8.85448,-6.65624 8.05652,2.434589 2.69077,1.446477 2.14624,6.903641 6.82651,10.444012 2.69233,2.036609 6.71992,0.884565 9.92631,3.326895 2.83642,2.160542 0.33569,5.861826 3.40757,8.298282 3.09808,2.457245 6.70743,-0.827761 10.05467,1.748109 2.72831,2.099555 -2.90762,8.315715 2.79889,12.366015 6.67224,4.73576 7.6367,13.46882 12.21565,16.66687 8.5512,5.97244 12.46383,1.84397 19.27722,4.14891 3.62322,1.22573 4.02637,6.57509 7.4056,8.96705 3.71216,2.62768 11.96175,3.7881 11.96175,3.7881"
         id="path3"
         sodipodi:nodetypes="csssssssssc" /><path
         style="fill:none;fill-opacity:0.524832;stroke:#000000;stroke-width:9.51782;stroke-linecap:round;stroke-linejoin:round;stroke-dasharray:none;stroke-opacity:1;paint-order:fill markers stroke"
         d="m 194.73399,88.918736 c 7.08831,1.853147 17.69369,11.722764 24.78201,19.043854"
         id="path4"
         sodipodi:nodetypes="cc" /><path
         style="fill:none;fill-opacity:0.524832;stroke:#000000;stroke-width:9.51782;stroke-linecap:round;stroke-linejoin:round;stroke-dasharray:none;stroke-opacity:1;paint-order:fill markers stroke"
         d="M 4.1123551,125.05667 C 13.449787,175.7236 20.781486,214.89726 23.365254,246.65391"
         id="path5"
         sodipodi:nodetypes="cc" /><g
         id="g19"
         transform="matrix(3.2702575,0,0,3.2702575,-179.80347,-200.21595)"><path
           style="fill:none;fill-opacity:0.995973;stroke:#367ad7;stroke-width:2.38125;stroke-linecap:round;stroke-linejoin:round;stroke-dasharray:none;stroke-opacity:1;paint-order:fill markers stroke"
           d="M 94.420892,38.819329 C 99.11727,13.048696 110.28042,47.947672 107.6722,70.671037"
           id="path13"
           sodipodi:nodetypes="cc" /><path
           style="color:#000000;fill:#e85f59;fill-opacity:1;stroke-linecap:round;stroke-linejoin:round;-inkscape-stroke:none;paint-order:fill markers stroke"
           d="m 106.20292,52.913336 c 0.71596,5.907299 0.91425,12.159773 0.28731,17.62182 -0.0748,0.653103 0.39381,1.243267 1.04688,1.31836 0.6531,0.07483 1.24326,-0.393804 1.31836,-1.046875 0.51819,-4.514609 0.51167,-9.455217 0.12571,-14.313157 0,0 -2.63195,-3.455616 -2.77826,-3.580148 z"
           id="path13-1"
           sodipodi:nodetypes="cccccc" /></g><path
         id="rect34-7"
         style="fill:#264e71;fill-opacity:0.414765;stroke-width:5.19153;stroke-linecap:round;stroke-linejoin:round;paint-order:fill markers stroke"
         d="m 128.15503,-102.46501 c 12.33467,33.11762 24.46239,66.218002 31.37202,98.8835379 20.04053,21.7251351 41.29796,51.2769801 40.61441,51.0035671 l -3.04586,9.350363 C 180.18994,36.78105 161.0071,18.274748 133.56763,5.1532156 Z"
         sodipodi:nodetypes="cccccc" /><path
         style="fill:none;fill-opacity:0.524832;stroke:#000000;stroke-width:9.51782;stroke-linecap:round;stroke-linejoin:round;stroke-dasharray:none;stroke-opacity:1;paint-order:fill markers stroke"
         d="M -17.268032,39.422035 C 64.342614,-30.447887 133.25931,-17.736782 196.6691,58.47551"
         id="path6"
         sodipodi:nodetypes="cc" /><path
         style="color:#000000;fill:#ffb771;stroke-width:3.27026;stroke-linecap:round;stroke-linejoin:round;-inkscape-stroke:none;paint-order:fill markers stroke"
         d="m 237.08745,84.635248 c 4.95539,-19.835852 -2.37797,-31.137858 -11.3527,-41.299997 -20.479,16.517364 -15.6903,26.666026 -41.39757,52.913453 -16.07697,-8.865142 -13.91975,-21.003095 -15.51115,-32.468212 23.90862,-1.567209 44.0347,14.248136 68.26142,20.854756 z"
         id="path43" /><path
         id="rect34-46"
         style="fill:#f1935a;fill-opacity:1;stroke-width:5.19153;stroke-linecap:round;stroke-linejoin:round;paint-order:fill markers stroke"
         d="m 172.85175,82.740686 63.06662,-22.609595 -1.01748,22.358073 -28.232,-7.918683 -21.92426,24.410101 z"
         sodipodi:nodetypes="cccccc" /><path
         style="color:#000000;fill:#000000;stroke-width:3.27026;stroke-linecap:round;stroke-linejoin:round;-inkscape-stroke:none;paint-order:fill markers stroke"
         d="m 222.74479,39.630612 c -10.7513,8.671477 -15.28021,16.228103 -19.86426,24.124536 -0.32759,0.564286 -0.81057,1.248852 -1.14332,1.820359 -10.43984,-4.122225 -21.21763,-7.333654 -33.21993,-6.546905 a 4.7593872,4.7593872 0 0 0 -4.40719,5.40359 c 0.724,5.215976 0.52327,11.392289 2.47826,17.922545 1.95496,6.530256 6.52914,13.143571 15.45066,18.063063 a 4.7593872,4.7593872 0 0 0 5.69741,-0.836726 c 8.72786,-8.911226 13.67498,-15.798791 17.66708,-21.984817 9.50585,4.091583 19.37019,8.613738 30.43511,11.631129 a 4.7593872,4.7593872 0 0 0 5.86344,-3.436324 c 5.326,-21.319323 -3.11541,-35.094504 -12.39758,-45.604762 a 4.7593872,4.7593872 0 0 0 -6.55968,-0.555688 z m 2.59322,10.788017 c 5.94516,7.365362 9.56239,15.338047 7.81156,27.733317 -7.55191,-2.551746 -14.99887,-5.674878 -22.45107,-8.954887 0.11413,-0.196412 0.3025,-0.470139 0.41516,-0.664271 3.8489,-6.630104 7.5697,-11.965385 14.22435,-18.114159 z m -51.02112,18.6443 c 7.38535,0.382807 14.69271,2.210822 22.06783,5.052293 -2.9867,4.461393 -7.22371,9.665481 -12.7425,15.623142 -4.36461,-3.178367 -6.82084,-6.396222 -7.93292,-10.110969 -0.88595,-2.959256 -1.07428,-6.880802 -1.39241,-10.564466 z"
         id="path44" /><path
         style="fill:none;fill-opacity:0.524832;stroke:#000000;stroke-width:9.51782;stroke-linecap:round;stroke-linejoin:round;stroke-dasharray:none;stroke-opacity:1;paint-order:fill markers stroke"
         d="m 125.8581,-105.20822 c 3.55834,36.650921 7.11668,73.301841 10.67502,109.9527646"
         id="path7"
         sodipodi:nodetypes="cc" /><path
         style="fill:none;fill-opacity:0.524832;stroke:#000000;stroke-width:9.51782;stroke-linecap:round;stroke-linejoin:round;stroke-dasharray:none;stroke-opacity:1;paint-order:fill markers stroke"
         d="m 45.897835,53.044665 c -5.022936,24.192427 -1.866137,48.478375 0.736354,71.145725 19.700865,0.14425 39.272055,0.89367 60.084201,-4.14807 l 5.9159,-12.80229 15.94149,8.05068 c 3.65847,-24.302451 -3.75647,-48.393368 -12.183,-64.18948"
         id="path8"
         sodipodi:nodetypes="cccccc" /><path
         style="fill:none;fill-opacity:0.524832;stroke:#000000;stroke-width:7.7873;stroke-linecap:round;stroke-linejoin:round;stroke-dasharray:none;stroke-opacity:1;paint-order:fill markers stroke"
         d="M 14.792686,96.938915 C 28.330689,87.636546 48.224689,86.426361 60.228411,88.026662"
         id="path9"
         sodipodi:nodetypes="cc" /><path
         style="fill:none;fill-opacity:0.524832;stroke:#000000;stroke-width:7.7873;stroke-linecap:round;stroke-linejoin:round;stroke-dasharray:none;stroke-opacity:1;paint-order:fill markers stroke"
         d="m 116.18202,82.03675 c 8.63869,-7.239575 28.12304,-8.448347 42.65932,-4.382805"
         id="path10"
         sodipodi:nodetypes="cc" /><path
         style="fill:none;fill-opacity:0.261745;stroke:#000000;stroke-width:7.7873;stroke-linecap:round;stroke-linejoin:round;stroke-dasharray:none;stroke-opacity:1;paint-order:fill markers stroke"
         d="M 18.621458,211.99268 C 47.231773,237.14796 162.09289,249.12721 171.91027,170.61143"
         id="path11"
         sodipodi:nodetypes="cc" /><path
         style="fill:none;fill-opacity:0.261745;stroke:#000000;stroke-width:7.7873;stroke-linecap:round;stroke-linejoin:round;stroke-dasharray:none;stroke-opacity:1;paint-order:fill markers stroke"
         d="m 179.34546,127.52497 c 0,0 -6.53871,0.63061 -8.29867,15.67762 -0.44766,3.82734 5.63135,7.15993 6.66838,14.63721 0.52773,3.80491 -5.86281,9.08193 -5.40979,13.37055 0.32605,3.08647 7.29336,10.05813 7.55688,13.17583 0.3097,3.66537 -4.92994,7.9551 -4.27668,10.72612 3.42115,14.51138 7.02913,18.58039 7.02913,18.58039 l 12.02611,3.73627 c 0,0 4.24518,-6.31307 6.96244,-19.35753 0.67711,-3.25064 -5.8467,-8.22738 -5.35612,-14.36814 0.28582,-3.57901 6.91257,-6.56468 7.56714,-10.48523 0.53662,-3.21401 -6.51082,-11.26728 -6.23003,-14.46275 0.38317,-4.36095 5.05545,-6.36719 6.22935,-9.32311 2.34081,-5.89422 1.67427,-10.60891 1.67427,-10.60891"
         id="path12"
         sodipodi:nodetypes="csssssccsssssc" /><path
         style="color:#000000;fill:#614741;stroke-width:3.27026;stroke-linecap:round;stroke-linejoin:round;-inkscape-stroke:none;paint-order:fill markers stroke"
         d="m 241.75408,119.58404 c 4.66106,-10.7118 4.39149,-17.59894 -1.05133,-23.34621 -13.41525,3.714254 -24.78135,23.24369 -34.5951,32.71461 -7.54158,-4.89175 -10.41646,-11.34752 -12.00786,-22.81264 20.67106,0.3459 23.42756,6.83762 47.65429,13.44424 z"
         id="path46" /><path
         style="color:#000000;fill:#ffd367;stroke-width:3.27026;stroke-linecap:round;stroke-linejoin:round;-inkscape-stroke:none;paint-order:fill markers stroke"
         d="m 199.45719,230.96511 a 17.068515,17.068515 0 0 1 -17.06852,17.06852 17.068515,17.068515 0 0 1 -17.06852,-17.06852 17.068515,17.068515 0 0 1 17.06852,-17.06848 17.068515,17.068515 0 0 1 17.06852,17.06848 z"
         id="path41" /><circle
         style="fill:#f1a952;fill-opacity:1;stroke:none;stroke-width:10.6459;stroke-linecap:round;stroke-linejoin:round;stroke-dasharray:none;stroke-opacity:1;paint-order:fill markers stroke"
         id="path40"
         cx="176.55664"
         cy="233.45874"
         r="10.133463" /><path
         style="color:#000000;fill:#000001;stroke-width:3.27026;stroke-linecap:round;stroke-linejoin:round;-inkscape-stroke:none;paint-order:fill markers stroke"
         d="m 127.97758,-148.94572 c -3.79257,0.83768 -7.41789,2.72076 -10.53253,5.69101 -6.22928,5.94051 -10.81888,15.51977 -14.21157,29.40038 -11.627354,47.57138 -20.121609,78.000112 -20.860661,102.125293 l -17.124141,1.219959 C 64.305758,-34.276678 59.120225,-48.06187 50.130124,-64.046771 28.130359,-103.1636 1.5959999,-128.32236 -21.004364,-135.77527 c -11.300182,-3.72646 -22.407251,-2.69407 -29.911361,4.56686 -7.504106,7.26094 -10.792415,19.42929 -9.932128,36.132517 2.995035,58.151193 0.139836,154.201039 -8.386422,221.151163 -1.962246,1.80992 -5.795704,4.94665 -8.226742,10.91576 -2.649886,6.50647 -2.755967,15.94724 1.405188,29.45786 -5.71024,23.61714 -22.47822,50.54761 -27.184011,76.54446 -2.3774,13.13378 -1.41521,26.45622 6.40638,38.2403 7.625508,11.48867 21.438579,21.11811 43.286201,28.83831 l 5.742111,8.31616 c -4.528021,12.17272 -1.091082,25.44715 8.047901,35.11694 9.885263,10.45943 25.927658,17.15486 45.010752,15.92335 a 4.7593872,4.7593872 0 0 0 4.0239472,-2.77845 c 4.2273608,-9.30699 10.0071058,-19.42853 9.3508928,-33.50735 7.981979,1.44303 12.332164,-0.82417 15.054682,-1.38603 a 4.7593872,4.7593872 0 0 0 3.774849,-4.24751 C 38.545305,315.08683 28.907958,302.21523 10.222763,296.68434 L 7.0994116,286.87357 25.992811,251.62251 c 10.250802,-6.3563 16.914351,-13.41845 26.353677,-16.38961 24.497571,6.75952 42.073292,2.40684 60.391182,1.5521 13.11059,6.51752 25.86635,16.46375 35.53852,23.93292 3.55846,9.98524 5.50528,20.29692 6.94929,30.03908 a 4.7593872,4.7593872 0 0 0 6.28501,3.79402 c 9.25372,-3.24838 17.54892,-9.91673 24.3992,-17.46906 2.56777,3.04484 5.03358,5.35361 8.21397,6.13173 2.29202,0.56078 5.23925,-0.18117 6.91097,-1.73095 1.67172,-1.54974 2.35596,-3.32745 2.82315,-5.04587 1.47099,-5.41048 0.76511,-11.31186 -0.58764,-16.42795 20.18959,-9.79357 31.24352,-25.48305 33.83952,-44.58279 2.62657,-19.325 -2.46735,-41.74847 -11.62475,-66.10136 6.50176,-4.73347 9.71286,-13.0842 9.97683,-21.18643 0.15763,-4.8404 -0.6841,-9.71592 -2.93813,-13.95608 -1.78961,-3.36658 -4.88181,-5.98619 -8.58442,-7.70937 -4.83927,-13.008454 -8.38164,-27.781505 -14.65867,-41.280618 a 4.7593872,4.7593872 0 0 0 -0.6515,-1.028342 l -5.47383,-6.617164 c 17.39974,-47.6025479 1.15689,-115.818648 -22.68103,-160.881336 -12.15061,-22.96925 -25.86156,-40.22523 -40.96764,-45.0363 -3.77653,-1.20277 -7.73637,-1.41253 -11.52894,-0.57485 z m 2.02475,9.05069 c 2.0193,-0.44097 4.14554,-0.19955 6.61716,0.58763 9.88651,3.1487 23.83036,18.4666 35.44268,40.418335 23.22472,43.903458 38.52988,113.002819 21.40999,155.77156 a 4.7593872,4.7593872 0 0 0 0.75369,4.803191 l 6.5916,7.971253 c 5.7964,12.630849 9.33184,27.65194 14.73532,41.721331 a 4.7593872,4.7593872 0 0 0 3.30221,2.91258 c 2.43706,0.60071 4.00453,1.99497 5.26306,4.36247 1.25852,2.3675 1.94609,5.70515 1.83314,9.17206 -0.22598,6.93379 -3.75926,13.55466 -7.90101,15.16327 a 4.7593872,4.7593872 0 0 0 -2.71454,6.16365 c 9.76505,25.04634 14.73251,47.43482 12.3465,64.98999 -2.38605,17.55513 -11.34538,30.53272 -31.66787,39.09619 a 4.7593872,4.7593872 0 0 0 -2.56127,6.17644 c 0.89043,2.1896 1.33934,8.79996 1.05388,12.5381 -0.95636,-0.76855 -1.76041,-1.05957 -4.36884,-4.701 a 4.7593872,4.7593872 0 0 0 -7.63912,-0.12132 c -4.99856,6.51438 -12.00718,11.88607 -19.0467,15.56567 -1.43699,-8.53112 -3.24452,-17.45245 -6.59801,-26.48781 a 4.7593872,4.7593872 0 0 0 -1.55209,-2.11419 c -9.86533,-7.59792 -24.02408,-19.04595 -39.37083,-26.45586 a 4.7593872,4.7593872 0 0 0 -2.2483,-0.46627 c -20.672923,0.7568 -36.61255,5.62975 -60.455056,-1.43074 a 4.7593872,4.7593872 0 0 0 -2.644307,-0.0131 c -13.456714,3.78813 -20.900605,12.80208 -30.684215,18.58042 a 4.7593872,4.7593872 0 0 0 -1.769258,1.8459 L -2.2450941,284.1523 a 4.7593872,4.7593872 0 0 0 -0.338524,3.69183 l 4.4135722,13.85389 a 4.7593872,4.7593872 0 0 0 3.4299377,3.18719 c 15.5066122,3.70177 21.4613362,11.78712 22.3297272,18.83593 -2.616808,0.99135 -4.907587,1.56364 -12.455083,-1.31575 a 4.7593872,4.7593872 0 0 0 -6.3552847,5.41636 c 2.8505527,13.76517 -1.9520919,21.7562 -6.879039,32.01275 -15.1912883,0.259 -27.4539363,-5.1609 -34.7400993,-12.87027 -7.737648,-8.18705 -10.067007,-18.20398 -5.53772,-27.36286 a 4.7593872,4.7593872 0 0 0 -0.351297,-4.80957 l -7.798799,-11.30538 a 4.7593872,4.7593872 0 0 0 -2.376045,-1.79481 c -21.660721,-7.41211 -33.77328,-16.3353 -40.00317,-25.72133 -6.229889,-9.38603 -7.078724,-19.62465 -4.969258,-31.27825 4.218927,-23.30716 21.220021,-50.54634 27.337309,-76.85102 a 4.7593872,4.7593872 0 0 0 -0.121359,-2.57405 c -4.4474,-13.39089 -3.694645,-20.49228 -1.986426,-24.68662 1.708222,-4.19433 4.540255,-5.86831 7.492212,-9.10181 l -1.386027,1.04753 a 4.7593872,4.7593872 0 0 0 2.593213,-3.64071 c 8.786943,-67.894172 11.663913,-165.034257 8.603586,-224.45308 -0.782363,-15.19024 2.471445,-24.37453 7.045106,-28.79998 4.573661,-4.42545 11.084711,-5.41233 20.311364,-2.36966 18.4533106,6.08534 44.598241,29.619188 65.820319,67.35325 9.360935,16.64426 13.935198,27.911665 14.224344,54.0103469 a 4.7593872,4.7593872 0 0 0 5.097004,4.69460837 L 87.137685,-2.5314382 a 4.7593872,4.7593872 0 0 0 4.419959,-4.7968039 C 91.332389,-29.598172 100.12714,-61.044697 112.48218,-111.59325 c 3.15036,-12.88918 7.41754,-20.85523 11.52894,-24.77603 2.0557,-1.96041 3.97191,-3.08478 5.99121,-3.52575 z"
         id="path79" /><path
         style="color:#000000;fill:#000000;stroke-width:3.27026;stroke-linecap:round;stroke-linejoin:round;-inkscape-stroke:none;paint-order:fill markers stroke"
         d="m 182.39033,209.13471 c -11.99857,0 -21.83151,9.83294 -21.83151,21.83152 0,11.99857 9.83294,21.82514 21.83151,21.82514 11.99858,0 21.82511,-9.82657 21.82511,-21.82514 0,-11.99858 -9.82653,-21.83152 -21.82511,-21.83152 z m 0,9.52335 c 6.85476,0 12.30817,5.45341 12.30817,12.30817 0,6.85475 -5.45341,12.30817 -12.30817,12.30817 -6.85478,0 -12.3082,-5.45342 -12.3082,-12.30817 0,-6.85476 5.45342,-12.30817 12.3082,-12.30817 z"
         id="path42" /><circle
         style="fill:#000000;fill-opacity:1;stroke:none;stroke-width:13.8162;stroke-linecap:round;stroke-linejoin:round;stroke-dasharray:none;stroke-opacity:0.70604;paint-order:fill markers stroke"
         id="path14"
         cx="184.53342"
         cy="227.92676"
         r="4.021378" /><path
         style="fill:none;fill-opacity:0.571812;stroke:#000000;stroke-width:6.05678;stroke-linecap:round;stroke-linejoin:round;stroke-dasharray:none;stroke-opacity:1;paint-order:fill markers stroke"
         d="m 184.26527,228.01613 c -7.86945,5.30285 -11.98942,11.40047 -13.94078,14.83441"
         id="path15"
         sodipodi:nodetypes="cc" /><path
         style="fill:none;fill-opacity:0.571812;stroke:#000000;stroke-width:9.51782;stroke-linecap:round;stroke-linejoin:round;stroke-dasharray:none;stroke-opacity:1;paint-order:fill markers stroke"
         d="m 170.14577,243.92289 c -10.48634,9.20188 -13.76203,21.93584 -12.35641,33.45869"
         id="path16"
         sodipodi:nodetypes="cc" /><path
         style="fill:none;fill-opacity:0.571812;stroke:#000000;stroke-width:9.51782;stroke-linecap:round;stroke-linejoin:round;stroke-dasharray:none;stroke-opacity:1;paint-order:fill markers stroke"
         d="m 192.85179,244.73054 c 4.6212,6.6694 5.44132,12.93253 6.71672,20.2685"
         id="path17"
         sodipodi:nodetypes="cc" /><path
         style="fill:none;fill-opacity:0.480537;stroke:#ffa598;stroke-width:5.19153;stroke-linecap:round;stroke-linejoin:round;stroke-dasharray:none;stroke-opacity:1;paint-order:fill markers stroke"
         d="m 32.998059,180.02765 4.721424,9.27425"
         id="path23" /><path
         style="fill:none;fill-opacity:0.480537;stroke:#ffa598;stroke-width:5.19153;stroke-linecap:round;stroke-linejoin:round;stroke-dasharray:none;stroke-opacity:1;paint-order:fill markers stroke"
         d="m 25.072802,180.1963 3.709696,9.1056"
         id="path24" /><path
         style="fill:none;fill-opacity:0.480537;stroke:#ffa598;stroke-width:5.19153;stroke-linecap:round;stroke-linejoin:round;stroke-dasharray:none;stroke-opacity:1;paint-order:fill markers stroke"
         d="m 151.20238,172.60828 3.22003,7.92524"
         id="path25"
         sodipodi:nodetypes="cc" /><path
         style="fill:none;fill-opacity:0.480537;stroke:#ffa598;stroke-width:5.19153;stroke-linecap:round;stroke-linejoin:round;stroke-dasharray:none;stroke-opacity:1;paint-order:fill markers stroke"
         d="m 159.29627,171.76518 3.20384,8.76834"
         id="path26"
         sodipodi:nodetypes="cc" /><ellipse
         style="fill:#151d23;fill-opacity:1;stroke:none;stroke-width:5.19153;stroke-linecap:round;stroke-linejoin:round;stroke-dasharray:none;stroke-opacity:1;paint-order:fill markers stroke"
         id="path32"
         cx="57.477783"
         cy="63.884136"
         rx="6.1688118"
         ry="8.5313349"
         transform="rotate(-1.568748)" /><ellipse
         style="fill:#151d23;fill-opacity:1;stroke:none;stroke-width:5.19153;stroke-linecap:round;stroke-linejoin:round;stroke-dasharray:none;stroke-opacity:1;paint-order:fill markers stroke"
         id="path33"
         cx="62.671173"
         cy="76.84021"
         rx="8.5969601"
         ry="11.221987"
         transform="rotate(-12.708236)" /><ellipse
         style="fill:#151d23;fill-opacity:1;stroke:none;stroke-width:5.19153;stroke-linecap:round;stroke-linejoin:round;stroke-dasharray:none;stroke-opacity:1;paint-order:fill markers stroke"
         id="path34"
         cx="80.217979"
         cy="83.160347"
         rx="11.090735"
         ry="13.518884"
         transform="rotate(-15.926896)" /><path
         style="fill:none;fill-opacity:1;stroke:#fbfbfb;stroke-width:0.865255;stroke-linecap:round;stroke-linejoin:round;stroke-dasharray:none;stroke-opacity:1;paint-order:fill markers stroke"
         d="m 241.87056,106.952 c -19.4079,-4.11975 -37.87481,6.17075 -46.87338,10.39842"
         id="path45"
         sodipodi:nodetypes="cc" /><path
         style="fill:none;fill-opacity:1;stroke:#fbfbfb;stroke-width:0.865255;stroke-linecap:round;stroke-linejoin:round;stroke-dasharray:none;stroke-opacity:1;paint-order:fill markers stroke"
         d="m 244.12112,112.44939 c -16.13162,-1.79232 -27.73963,-5.77106 -44.30816,10.16952"
         id="path45-8"
         sodipodi:nodetypes="cc" /><path
         style="color:#000000;fill:#000000;stroke-width:3.27026;stroke-linecap:round;stroke-linejoin:round;-inkscape-stroke:none;paint-order:fill markers stroke"
         d="m 237.09985,92.617973 c -7.88018,2.181778 -14.27828,8.438157 -20.11336,15.048297 -0.47252,-0.19216 -1.33044,-0.46533 -1.8012,-0.6515 -6.48001,-2.56265 -13.01425,-4.43899 -23.70936,-4.61796 a 3.4613687,3.4613687 0 0 0 -3.48103,3.93453 c 1.64511,11.8521 5.17626,19.81254 13.54731,25.24231 a 3.4613687,3.4613687 0 0 0 4.29221,-0.41516 c 4.33924,-4.18766 8.74853,-9.96823 13.25988,-15.38045 5.13195,2.13049 9.83769,4.34162 19.07224,6.85988 a 3.4613687,3.4613687 0 0 0 4.08141,-1.95449 c 2.44857,-5.62712 3.74435,-10.50288 3.54493,-15.06746 -0.19949,-4.56458 -2.08031,-8.685839 -5.25668,-12.039913 a 3.4613687,3.4613687 0 0 0 -3.43635,-0.958084 z m -0.14063,7.792407 c 1.09888,1.67415 1.82988,3.38442 1.92256,5.50579 0.0965,2.20699 -1.0611,5.54217 -2.19722,8.85269 -5.29939,-1.61404 -8.87862,-3.03061 -12.4934,-4.50299 4.26939,-4.54589 8.5924,-8.0807 12.76806,-9.85549 z m -40.96766,9.37644 c 6.51164,0.52745 11.3907,1.65101 16.12774,3.5002 -3.11205,3.77648 -6.18066,7.41157 -8.85269,10.28982 -3.76661,-3.17199 -5.98444,-7.5509 -7.27505,-13.79002 z"
         id="path47" /><path
         style="fill:none;fill-opacity:1;stroke:#000000;stroke-width:9.51782;stroke-linecap:round;stroke-linejoin:round;stroke-dasharray:none;stroke-opacity:1;paint-order:fill markers stroke"
         d="M -49.481276,305.59857 C -33.007468,290.4646 -20.485871,287.25593 2.2158445,287.53543"
         id="path48"
         sodipodi:nodetypes="cc" /><path
         style="fill:none;fill-opacity:1;stroke:#000000;stroke-width:9.51782;stroke-linecap:round;stroke-linejoin:round;stroke-dasharray:none;stroke-opacity:1;paint-order:fill markers stroke"
         d="m -43.116514,316.33744 c 17.56972,-8.16416 32.014421,-12.81813 49.5841413,-16.47101"
         id="path49"
         sodipodi:nodetypes="cc" /><path
         style="fill:none;fill-opacity:1;stroke:#000000;stroke-width:9.51782;stroke-linecap:round;stroke-linejoin:round;stroke-dasharray:none;stroke-opacity:1;paint-order:fill markers stroke"
         d="m -81.339447,304.6485 3.810308,7.95938 c -3.24128,3.54227 -4.042627,6.26728 -3.111794,9.95774 0.930833,3.69048 3.722406,7.28171 8.713022,8.29811"
         id="path50"
         sodipodi:nodetypes="cczc" /><path
         style="fill:none;fill-opacity:1;stroke:#000000;stroke-width:9.51782;stroke-linecap:round;stroke-linejoin:round;stroke-dasharray:none;stroke-opacity:1;paint-order:fill markers stroke"
         d="m -58.605703,343.14708 c 2.17603,6.40313 7.887907,10.94091 11.060413,14.35463"
         id="path51"
         sodipodi:nodetypes="cc" /><circle
         style="fill:#000000;fill-opacity:1;stroke:none;stroke-width:14.421;stroke-linecap:round;stroke-linejoin:round;stroke-dasharray:none;stroke-opacity:1;paint-order:fill markers stroke"
         id="path52"
         cx="-64.459602"
         cy="336.46497"
         r="4.2660947" /><path
         style="fill:#fafafd;fill-opacity:0.716779;stroke:none;stroke-width:9.51782;stroke-linecap:round;stroke-linejoin:round;stroke-dasharray:none;stroke-opacity:0.444295;paint-order:fill markers stroke"
         d="m -97.444628,339.57678 24.894364,16.38876"
         id="path53" /><path
         style="fill:none;fill-opacity:0.716779;stroke:#000000;stroke-width:9.51782;stroke-linecap:round;stroke-linejoin:round;stroke-dasharray:none;stroke-opacity:1;paint-order:fill markers stroke"
         d="m -96.792859,339.09412 c 14.177125,13.09306 20.706989,17.64219 32.657739,19.74755"
         id="path54"
         sodipodi:nodetypes="cc" /><path
         id="rect50-1"
         style="fill:#ffe8e0;fill-opacity:1;stroke-width:9.51782;stroke-linecap:round;stroke-linejoin:round;paint-order:fill markers stroke"
         d="m 52.365956,238.96586 c 18.503385,13.82806 49.595584,12.15277 63.106524,2.3716 -3.54475,16.5489 -2.58023,32.08325 -15.794737,50.80789 -8.722928,-1.28331 -17.53448,-1.54742 -26.778252,3.15901 -11.268133,-18.41087 -18.73054,-37.13888 -20.533535,-56.3385 z"
         sodipodi:nodetypes="ccccc" /><path
         id="rect68-1"
         style="fill:#e0b7aa;fill-opacity:1;stroke-width:9.51782;stroke-linecap:round;stroke-linejoin:round;paint-order:fill markers stroke"
         d="m 55.442945,246.37411 59.001155,-0.34403 c -8.64499,19.69781 -58.657114,14.40414 -58.657114,14.40414 z"
         sodipodi:nodetypes="cccc" /><path
         style="fill:none;fill-opacity:0.716779;stroke:#000000;stroke-width:9.51782;stroke-linecap:round;stroke-linejoin:round;stroke-dasharray:none;stroke-opacity:1;paint-order:fill markers stroke"
         d="M 73.406695,296.12434 C 63.687679,276.5283 52.757432,257.27064 51.438557,236.9768 c 0.921287,16.06278 68.113873,15.882 64.559433,-2.49806 0.70532,21.57697 -7.18041,42.37211 -17.39124,59.42801"
         id="path55"
         sodipodi:nodetypes="cccc" /><path
         style="fill:none;fill-opacity:0.716779;stroke:#000000;stroke-width:9.51782;stroke-linecap:round;stroke-linejoin:round;stroke-dasharray:none;stroke-opacity:1;paint-order:fill markers stroke"
         d="M 74.414696,324.55004 48.60984,357.20928"
         id="path56" /><path
         id="rect68-60-6-7"
         style="fill:#ba3e38;fill-opacity:1;stroke-width:9.51782;stroke-linecap:round;stroke-linejoin:round;paint-order:fill markers stroke"
         d="m 109.92176,320.13957 32.99916,22.58417 -8.61458,13.33621 -30.07979,-30.51487 z"
         sodipodi:nodetypes="ccccc" /><path
         id="rect68-60-6"
         style="fill:#ba3e38;fill-opacity:1;stroke-width:9.51782;stroke-linecap:round;stroke-linejoin:round;paint-order:fill markers stroke"
         d="m 109.75499,308.58903 34.86177,8.84742 -3.72522,10.54229 -31.6022,-11.17568 z"
         sodipodi:nodetypes="ccccc" /><path
         style="fill:none;fill-opacity:0.716779;stroke:#000000;stroke-width:9.51782;stroke-linecap:round;stroke-linejoin:round;stroke-dasharray:none;stroke-opacity:1;paint-order:fill markers stroke"
         d="m 101.83236,323.74363 35.3458,34.9061"
         id="path57"
         sodipodi:nodetypes="cc" /><path
         style="fill:none;fill-opacity:0.716779;stroke:#000000;stroke-width:9.51782;stroke-linecap:round;stroke-linejoin:round;stroke-dasharray:none;stroke-opacity:1;paint-order:fill markers stroke"
         d="m 152.03087,255.80426 c 5.97525,23.63297 13.07105,46.63096 9.27363,75.80179"
         id="path58"
         sodipodi:nodetypes="cc" /><path
         style="fill:none;fill-opacity:0.716779;stroke:#000000;stroke-width:9.51782;stroke-linecap:round;stroke-linejoin:round;stroke-dasharray:none;stroke-opacity:1;paint-order:fill markers stroke"
         d="m 181.86775,334.83166 c 1.62394,-6.51938 6.15129,-10.31112 11.64136,-11.16698 2.12345,-0.33104 6.21611,-2.31459 4.76287,-6.8902"
         id="path59"
         sodipodi:nodetypes="csc" /><path
         id="rect68-60"
         style="fill:#ba3e38;fill-opacity:1;stroke-width:9.51782;stroke-linecap:round;stroke-linejoin:round;paint-order:fill markers stroke"
         d="m 34.09298,317.53383 34.396114,-9.31304 1.396956,8.67969 -34.861762,16.06501 z"
         sodipodi:nodetypes="ccccc" /><path
         style="color:#000000;fill:#ffd367;stroke-width:3.27026;stroke-linecap:round;stroke-linejoin:round;-inkscape-stroke:none;paint-order:fill markers stroke"
         d="M 107.35069,310.39051 A 19.051002,19.051002 0 0 1 88.299686,329.44153 19.051002,19.051002 0 0 1 69.248683,310.39051 19.051002,19.051002 0 0 1 88.299686,291.33953 19.051002,19.051002 0 0 1 107.35069,310.39051 Z"
         id="path76" /><circle
         style="fill:#f1a952;fill-opacity:1;stroke:none;stroke-width:9.51782;stroke-linecap:round;stroke-linejoin:round;stroke-dasharray:none;stroke-opacity:0.997315;paint-order:fill markers stroke"
         id="path75"
         cx="84.727158"
         cy="313.99677"
         r="13.718795" /><path
         style="color:#000000;fill:#000000;stroke-width:3.27026;stroke-linecap:round;stroke-linejoin:round;-inkscape-stroke:none;paint-order:fill markers stroke"
         d="m 88.30016,286.57977 c -13.093473,0 -23.811562,10.71807 -23.811562,23.81156 0,13.09346 10.718089,23.81156 23.811562,23.81156 13.09347,0 23.81156,-10.7181 23.81156,-23.81156 0,-13.09349 -10.71809,-23.81156 -23.81156,-23.81156 z m 0,9.51694 c 7.949663,0 14.2946,6.34495 14.2946,14.29462 0,7.94967 -6.344937,14.28821 -14.2946,14.28821 -7.949662,0 -14.294603,-6.33854 -14.294603,-14.28821 0,-7.94967 6.344941,-14.29462 14.294603,-14.29462 z"
         id="path77" /><path
         style="fill:none;fill-opacity:0.716779;stroke:#000000;stroke-width:6.05678;stroke-linecap:round;stroke-linejoin:round;stroke-dasharray:none;stroke-opacity:1;paint-order:fill markers stroke"
         d="m 88.895037,309.9937 c 0.799646,5.82721 0.182774,15.70806 -2.579828,19.05098"
         id="path61"
         sodipodi:nodetypes="cc" /><circle
         style="fill:#000000;fill-opacity:1;stroke:none;stroke-width:6.05678;stroke-linecap:round;stroke-linejoin:round;stroke-dasharray:none;stroke-opacity:0.695302;paint-order:fill markers stroke"
         id="path62"
         cx="88.498138"
         cy="308.20764"
         r="5.1596465" /><path
         style="fill:none;fill-opacity:0.716779;stroke:#000000;stroke-width:9.51782;stroke-linecap:round;stroke-linejoin:round;stroke-dasharray:none;stroke-opacity:1;paint-order:fill markers stroke"
         d="m 69.208557,302.40399 c -12.625283,-0.73077 -25.153463,-2.09271 -38.855904,4.17805 l 4.595866,24.85941 c 11.907456,-2.98852 23.169336,-9.00975 35.076792,-15.23734"
         id="path63"
         sodipodi:nodetypes="cccc" /><path
         style="fill:none;fill-opacity:0.716779;stroke:#000000;stroke-width:9.51782;stroke-linecap:round;stroke-linejoin:round;stroke-dasharray:none;stroke-opacity:1;paint-order:fill markers stroke"
         d="m 104.51312,299.89714 c 23.72738,-2.23947 36.45548,0.45175 44.07848,5.43147 l -7.1027,21.72589 -33.63334,-10.44514"
         id="path64"
         sodipodi:nodetypes="cccc" /><path
         style="fill:none;fill-opacity:0.716779;stroke:#000000;stroke-width:9.51782;stroke-linecap:round;stroke-linejoin:round;stroke-dasharray:none;stroke-opacity:1;paint-order:fill markers stroke"
         d="m 141.28,327.26341 6.68492,3.34243 -8.77396,28.20188"
         id="path65"
         sodipodi:nodetypes="ccc" /><path
         style="fill:none;fill-opacity:0.716779;stroke:#000000;stroke-width:9.51782;stroke-linecap:round;stroke-linejoin:round;stroke-dasharray:none;stroke-opacity:1;paint-order:fill markers stroke"
         d="m 36.619738,330.81474 -9.400626,6.6849 14.360783,21.16762"
         id="path66"
         sodipodi:nodetypes="ccc" /><circle
         style="fill:#000000;fill-opacity:1;stroke:none;stroke-width:8.53743;stroke-linecap:round;stroke-linejoin:round;stroke-dasharray:none;stroke-opacity:0.790604;paint-order:fill markers stroke"
         id="path67"
         cx="174.09761"
         cy="342.17548"
         r="3.9587531" /><path
         style="fill:none;fill-opacity:0.402685;stroke:#000000;stroke-width:9.51782;stroke-linecap:round;stroke-linejoin:round;stroke-dasharray:none;stroke-opacity:1;paint-order:fill markers stroke"
         d="m 12.539858,349.17184 17.897445,-4.60939"
         id="path68"
         sodipodi:nodetypes="cc" /><path
         style="fill:#47332e;fill-opacity:1;stroke:#000000;stroke-width:9.51782;stroke-linecap:round;stroke-linejoin:round;stroke-dasharray:none;stroke-opacity:1;paint-order:fill markers stroke"
         d="m 8.7254294,272.97798 5.9553316,28.75577"
         id="path71"
         sodipodi:nodetypes="cc" /><ellipse
         style="fill:#000000;fill-opacity:1;stroke:none;stroke-width:0.866615;stroke-linecap:round;stroke-opacity:0.616464;paint-order:stroke fill markers"
         id="path18"
         cx="37.697346"
         cy="142.72508"
         rx="12.536938"
         ry="13.712275" /><ellipse
         style="fill:#000000;fill-opacity:1;stroke:none;stroke-width:0.866615;stroke-linecap:round;stroke-opacity:0.616464;paint-order:stroke fill markers"
         id="path18-6"
         cx="138.01363"
         cy="138.26294"
         rx="12.536938"
         ry="13.712275" /><path
         style="fill:#000000;fill-opacity:1;stroke:none;stroke-width:0.866615;stroke-linecap:round;stroke-opacity:0.616464;paint-order:stroke fill markers"
         d="m 66.003401,200.1208 c 0,0 9.304759,-29.18757 27.718385,-28.01224 18.413624,1.17536 29.383454,25.07388 23.898534,28.99168 -5.48491,3.9178 -14.50771,-6.33943 -25.477532,-4.38051 -10.969824,1.95888 -22.319533,9.17981 -24.670217,8.00448 -2.350675,-1.17533 -1.46917,-4.60341 -1.46917,-4.60341 z"
         id="path19"
         sodipodi:nodetypes="cssssc" /><path
         style="fill:none;fill-opacity:1;stroke:#000000;stroke-width:5;stroke-linecap:round;stroke-dasharray:none;stroke-opacity:1;paint-order:stroke fill markers"
         d="m 20.058538,147.88195 c 0,0 -0.280329,7.81787 5.96618,10.55326"
         id="path21" /><path
         style="fill:none;fill-opacity:1;stroke:#000000;stroke-width:5;stroke-linecap:round;stroke-dasharray:none;stroke-opacity:1;paint-order:stroke fill markers"
         d="m 146.36533,154.56172 c 0,0 7.51882,-2.15989 8.18045,-8.94689"
         id="path21-1" /></g></g></svg>
