<?xml version="1.0" encoding="UTF-8" standalone="no"?>
<!-- Created with Inkscape (http://www.inkscape.org/) -->

<svg
   width="512"
   height="256"
   viewBox="0 0 135.46666 67.733335"
   version="1.1"
   id="svg5"
   inkscape:version="1.2.1 (9c6d41e410, 2022-07-14)"
   sodipodi:docname="wahgueh.svg"
   inkscape:export-filename="wahgueh.webp"
   inkscape:export-xdpi="129.93239"
   inkscape:export-ydpi="129.93239"
   xmlns:inkscape="http://www.inkscape.org/namespaces/inkscape"
   xmlns:sodipodi="http://sodipodi.sourceforge.net/DTD/sodipodi-0.dtd"
   xmlns="http://www.w3.org/2000/svg"
   xmlns:svg="http://www.w3.org/2000/svg">
  <sodipodi:namedview
     id="namedview7"
     pagecolor="#505050"
     bordercolor="#ffffff"
     borderopacity="1"
     inkscape:showpageshadow="0"
     inkscape:pageopacity="0"
     inkscape:pagecheckerboard="1"
     inkscape:deskcolor="#505050"
     inkscape:document-units="px"
     showgrid="false"
     inkscape:zoom="1.2523911"
     inkscape:cx="186.04412"
     inkscape:cy="72.261772"
     inkscape:window-width="1920"
     inkscape:window-height="1031"
     inkscape:window-x="4096"
     inkscape:window-y="0"
     inkscape:window-maximized="1"
     inkscape:current-layer="layer1" />
  <defs
     id="defs2" />
  <g
     inkscape:label="Layer 1"
     inkscape:groupmode="layer"
     id="layer1">
    <path
       id="path1716-3"
       style="font-weight:900;font-size:50.8px;line-height:1.25;font-family:'Noto Serif CJK SC';-inkscape-font-specification:'Noto Serif CJK SC, Heavy';fill:#000000;fill-opacity:1;stroke:#ffffff;stroke-width:7.9375;stroke-linecap:round;stroke-linejoin:round;stroke-dasharray:none;paint-order:markers stroke fill"
       d="m 47.412609,8.5865444 v 0.94051 h 0.231511 c 0.246757,0 0.971517,0.10782 0.971517,0.8635196 v 7.94266 c 0,0.8945 -0.462546,1.03353 -1.064018,1.03353 h -0.06149 v 0.94051 h 5.166093 v -0.94051 h -0.0615 c -0.678584,0 -0.956014,-0.15422 -0.956014,-0.98702 v -2.71456 c 0,-1.07957 0.107702,-2.31355 0.940511,-2.31355 0.647739,0 0.879016,0.75615 0.879016,2.06705 v 4.88859 h 3.979085 v -0.94051 h -0.0615 c -0.694007,0 -0.910022,-0.13875 -0.910022,-1.07952 v -3.53208 c 0,-2.0666 -0.786673,-2.94556 -2.498555,-2.94556 -1.341747,0 -1.927913,0.55541 -2.298051,1.12603 h -0.12299 c 0.04627,-0.53978 0.077,-1.37282 0.077,-2.22105 V 8.5865444 Z m 44.063976,0 v 0.94051 h 0.231511 c 0.246759,0 0.971517,0.10782 0.971517,0.8635196 v 7.94266 c 0,0.8945 -0.462546,1.03353 -1.064018,1.03353 h -0.06149 l -5.17e-4,0.94051 h 5.16661 v -0.94051 h -0.0615 c -0.678587,0 -0.956014,-0.15422 -0.956014,-0.98702 v -2.71456 c 0,-1.07957 0.107705,-2.31355 0.940511,-2.31355 0.647743,0 0.879016,0.75615 0.879016,2.06705 v 4.88859 h 3.979089 v -0.94051 h -0.0615 c -0.694,0 -0.91002,-0.13875 -0.91002,-1.07952 v -3.53208 c 0,-2.0666 -0.786679,-2.94556 -2.498561,-2.94556 -1.341749,0 -1.927909,0.55541 -2.298051,1.12603 h -0.123507 c 0.04629,-0.53978 0.07752,-1.37282 0.07752,-2.22105 V 8.5865444 Z m -25.770519,0.55501 c -3.948126,0 -6.015137,2.3133896 -6.015137,5.6446096 0,3.40835 1.943309,5.67563 5.953125,5.67563 1.449702,0 2.745262,-0.30864 4.071586,-0.92553 v -2.34404 c 0,-0.81738 0.138857,-1.18753 0.802018,-1.18753 h 0.13901 v -0.94102 h -5.290117 v 0.94102 h 0.293006 c 0.755696,0 0.971517,0.36983 0.971517,1.12552 v 2.11305 c -0.293025,0.0308 -0.539677,0.0465 -0.771013,0.0465 -2.143708,0 -2.930053,-1.60419 -2.930053,-4.5036 0,-2.8994 0.755566,-4.53409 2.745052,-4.53409 1.156678,0 1.820044,0.74044 1.820044,2.20555 1.650193,0 2.390035,-0.70941 2.390035,-1.48053 0,-1.0178696 -1.418468,-1.8355396 -4.179073,-1.8355396 z m -44.048473,0.15399 v 0.9410296 h 0.200505 c 0.601472,0 0.894532,0.16978 1.095023,0.81752 l 2.82205,9.25318 h 2.267045 l 2.221053,-6.83214 2.174543,6.83214 h 2.251543 l 2.390551,-8.86767 c 0.277603,-1.01788 0.57055,-1.20303 1.172022,-1.20303 h 0.293005 V 9.2955444 h -4.225582 v 0.9410296 h 0.354501 c 0.678584,0 0.941027,0.18515 0.941027,0.70952 0,0.2776 -0.139056,0.81754 -0.247013,1.21853 l -0.586011,2.29753 c -0.215913,0.86365 -0.524126,2.05141 -0.647505,2.71457 -0.12338,-0.64774 -0.339575,-1.49595 -0.648023,-2.46755 L 31.774804,9.4035544 h -1.588533 l -1.989542,5.8761196 c -0.246759,0.74027 -0.401137,1.2644 -0.524516,1.83503 -0.09253,-0.58605 -0.262369,-1.29521 -0.432015,-1.92753 l -0.863513,-3.17706 c -0.09254,-0.32387 -0.185002,-0.86388 -0.185002,-1.03353 0,-0.50894 0.30863,-0.74001 0.925525,-0.74001 h 0.3545 V 9.2955444 Z m 20.604426,2.5140596 c -1.896951,0 -3.470072,0.46294 -3.470072,1.63504 0,0.78654 0.770766,1.07952 2.405537,1.07952 0,-1.09498 0.308503,-1.65054 0.802019,-1.65054 0.539783,0 0.802018,0.50929 0.802018,1.65054 v 0.80202 l -1.24902,0.04599 c -2.282509,0.0771 -3.408577,0.84809 -3.408577,2.54455 0,1.72731 1.094796,2.54507 2.436544,2.54507 1.094988,0 1.527046,-0.21607 2.221053,-1.01803 h 0.153996 l 0.386023,0.86351 h 3.439067 v -0.94051 h -0.06201 c -0.694008,0 -0.909505,-0.24671 -0.909505,-1.07952 v -3.88658 c 0,-1.91238 -1.187447,-2.59106 -3.547071,-2.59106 z m 44.495475,0 c -2.621803,0 -4.117578,1.49619 -4.117578,4.3956 0,2.69892 1.387751,4.25659 4.302579,4.25659 2.483002,0 3.423564,-1.00271 3.423564,-1.92805 0,-0.40098 -0.292953,-0.67857 -0.678512,-0.78652 -0.339292,0.81738 -0.925319,1.41904 -1.974039,1.41904 -1.326325,0 -2.00477,-0.84826 -2.051038,-2.77606 h 4.996594 v -0.84853 c 0,-2.45215 -1.480258,-3.73207 -3.90157,-3.73207 z m -14.975314,0.23151 v 0.94051 h 0.06201 c 0.78654,0 0.84801,0.24695 0.84801,1.12603 v 3.28507 c 0,2.05118 0.725109,3.06907 2.622063,3.06907 1.094987,0 1.78879,-0.44753 2.236039,-1.14154 h 0.077 l 0.432015,0.98702 h 3.531567 v -0.94051 h -0.185002 c -0.539783,0 -0.863513,-0.04648 -0.863513,-0.92552 v -6.40013 h -3.886584 v 0.94051 h 0.0615 c 0.524361,0 0.833024,0.06172 0.833024,0.89452 v 2.80707 c 0,1.38801 -0.293175,2.23603 -1.018026,2.23603 -0.647739,0 -0.832507,-0.90963 -0.832507,-2.22053 v -4.6576 z m 15.052311,0.89452 c 0.616896,0 0.879017,0.83273 0.879017,2.35955 h -2.020032 c 0,-1.54224 0.477854,-2.35955 1.141015,-2.35955 z m -44.017467,3.33106 v 1.09503 c 0,1.12583 -0.401132,1.85053 -1.018026,1.85053 -0.416405,0 -0.601514,-0.43163 -0.601514,-1.24902 0,-1.04872 0.27788,-1.58834 1.141533,-1.65003 z m 23.760306,4.88808 c -0.991436,4.48129 -2.934657,8.922624 -4.917529,11.738304 l 0.396359,0.31729 c 2.974307,-1.34836 5.869411,-3.29145 8.328173,-6.107124 h 1.150317 c 0.396574,0.991434 0.594646,2.340044 0.396359,3.609084 2.894993,3.05362 7.653854,-1.46758 2.141471,-3.609084 h 6.067847 c 0.594861,0 0.991037,-0.19835 1.110009,-0.63459 -1.586297,-1.50697 -4.282942,-3.72793 -4.282942,-3.72793 l -2.339909,3.25199 h -3.370854 c 0.396575,-0.47588 0.753609,-0.99146 1.110527,-1.54667 0.912121,0.0397 1.467627,-0.27717 1.626257,-0.79272 z m 16.100826,0.03979 c -0.475888,3.2519 -1.467211,6.583034 -2.57762,8.724534 l 0.392741,0.31419 c -0.762985,-0.0702 -1.667827,-0.0641 -2.73265,0.0424 l -0.277503,0.19843 c 0.912122,0.83281 1.705457,2.4194 1.745114,3.92638 H 68.679011 c -0.198287,-0.91212 -0.555189,-1.90375 -1.070736,-2.9745 l -0.47594,0.0398 c 0.198287,1.78457 -1.150052,3.48991 -2.300118,4.16408 -1.467324,0.59487 -2.498122,1.82385 -2.061889,3.56878 0.515546,1.78458 2.577389,2.33995 4.044714,1.58646 1.38801,-0.7535 2.339875,-2.65722 2.022615,-5.27461 H 91.95821 c 0,1.11041 -0.07947,2.45913 -0.198438,3.49023 l -3.886584,-2.81585 -2.379183,2.49855 h -9.755994 l -5.750036,-2.10219 v 22.56554 h 1.070735 c 2.93465,0 4.640027,-1.26933 4.640027,-1.62625 v -1.62574 h 12.690182 v 2.6572 h 1.030944 c 1.784586,0 4.679952,-0.95192 4.719609,-1.26918 v -6.82128 c 0.634519,-0.15863 1.031095,-0.43592 1.229382,-0.67387 l -4.95732,-3.64887 -2.3797,2.53835 H 75.698737 v -3.56929 h 10.151835 v 1.42782 h 1.031462 c 1.784584,0 4.679435,-0.91213 4.719092,-1.22939 v -4.83846 c 0.634519,-0.15863 1.031094,-0.43592 1.229382,-0.67386 l -0.436149,-0.31729 c 1.665612,-0.71384 3.648491,-1.94366 4.917529,-2.89543 0.832806,-0.0397 1.229283,-0.1583 1.506885,-0.51522 l -4.600236,-4.36252 -2.657202,2.69699 h -8.486304 c 1.501602,-1.23465 1.485712,-3.78875 -2.572969,-4.16615 1.862173,-0.71376 3.724231,-1.74452 5.388301,-3.170874 h 1.467611 c 0.594861,0.991434 0.951346,2.459164 0.792716,3.807524 3.212253,2.85533 7.416425,-1.98328 2.141988,-3.807524 h 8.129737 c 0.594861,0 1.030694,-0.19836 1.110009,-0.63459 -1.784584,-1.58629 -4.798156,-3.92585 -4.798156,-3.92585 l -2.617412,3.45043 H 87.04068 c 0.475889,-0.47589 0.911874,-0.95219 1.308448,-1.5074 0.912121,0.0397 1.467627,-0.27717 1.626257,-0.79272 z m -28.751733,0.31677 -2.498038,2.81585 H 30.132011 l -5.869409,-2.33991 v 37.040124 h 0.912089 c 2.339789,0 4.521171,-1.34805 4.521171,-2.06189 v -3.72794 -22.92211 c 1.903556,2.61739 3.410512,5.79028 4.600235,8.8439 -0.912121,4.99684 -2.37942,10.03316 -4.600235,14.07821 l 0.396358,0.27751 c 2.61739,-2.37945 4.640061,-5.27455 6.186702,-8.32818 0.277601,0.83281 0.47609,1.62621 0.674377,2.3797 3.013965,3.01397 6.146723,-1.74483 1.943034,-8.72453 0.991436,-2.97431 1.665716,-5.94862 2.181262,-8.60568 1.189724,2.06219 2.141556,4.44133 2.934705,6.82078 -1.070751,6.02793 -2.934643,12.29408 -5.988265,17.13228 l 0.396358,0.3173 c 3.291568,-2.77602 5.710699,-6.26591 7.534941,-9.99371 0.396575,1.74492 0.674144,3.37088 0.912089,4.75888 3.013965,3.72781 7.058942,-2.14139 1.665531,-11.18329 1.031093,-3.13294 1.70564,-6.26633 2.260844,-9.04234 0.47589,-0.0397 0.793,-0.15854 1.030945,-0.27751 v 23.83421 c 0,0.55521 -0.198389,0.91209 -0.95188,0.91209 -1.189723,0 -6.54327,-0.3173 -6.54327,-0.3173 v 0.51573 c 2.577734,0.39658 3.529336,0.99124 4.401799,1.78439 0.832806,0.79315 1.110676,1.9436 1.308964,3.64887 6.384846,-0.51554 7.336503,-2.49868 7.336503,-6.06784 V 26.310014 c 0.793148,-0.15863 1.308865,-0.51525 1.586466,-0.83251 z m 56.313877,3.05408 c -1.98287,0 -3.5295,1.30873 -3.5295,4.005444 0,1.90356 0.35673,4.95705 1.94303,12.09539 l 0.99167,4.75888 h 1.18959 l 0.99116,-4.75888 c 1.58629,-7.09869 1.94355,-10.19183 1.94355,-12.09539 0,-2.696714 -1.54664,-4.005444 -3.5295,-4.005444 z m -80.544438,0.8723 h 22.128881 v 2.577624 l -6.662642,-1.308454 c -0.07931,1.903564 -0.27727,4.005174 -0.515214,6.225984 -0.951778,-1.03109 -1.983211,-2.06187 -3.172934,-3.13263 l -0.356567,0.19792 0.158647,-0.8325 c 1.070751,-0.11897 1.387911,-0.47613 1.506885,-0.99167 L 35.56527,26.785954 c -0.07932,2.220824 -0.238129,4.679714 -0.515731,7.257444 -1.38801,-1.34835 -3.053514,-2.77608 -5.036384,-4.16409 l -0.317293,0.19844 z m 46.002875,14.356234 h 10.151835 v 4.20336 H 75.698737 Z m 34.501773,8.8036 c -2.02253,0 -3.5693,1.62594 -3.5693,3.5295 0,1.94321 1.54677,3.49022 3.5693,3.49022 2.02252,0 3.60856,-1.54701 3.60856,-3.49022 0,-1.90356 -1.58604,-3.5295 -3.60856,-3.5295 z m -34.501773,1.18959 h 12.690182 v 4.99711 H 75.698737 Z"
       inkscape:export-filename="wahgueh.webp"
       inkscape:export-xdpi="129.93239"
       inkscape:export-ydpi="129.93239" />
  </g>
</svg>
