<?xml version="1.0" encoding="UTF-8" standalone="no"?>
<!-- Generator: Adobe Illustrator 16.0.0, SVG Export Plug-In . SVG Version: 6.00 Build 0)  -->

<svg
   xmlns:dc="http://purl.org/dc/elements/1.1/"
   xmlns:cc="http://creativecommons.org/ns#"
   xmlns:rdf="http://www.w3.org/1999/02/22-rdf-syntax-ns#"
   xmlns:svg="http://www.w3.org/2000/svg"
   xmlns="http://www.w3.org/2000/svg"
   xmlns:sodipodi="http://sodipodi.sourceforge.net/DTD/sodipodi-0.dtd"
   xmlns:inkscape="http://www.inkscape.org/namespaces/inkscape"
   version="1.1"
   id="レイヤー_1"
   x="0px"
   y="0px"
   width="128px"
   height="128px"
   viewBox="0 0 128 128"
   enable-background="new 0 0 128 128"
   xml:space="preserve"
   sodipodi:docname="emoji_u1f610.svg"
   inkscape:version="0.92.4 (5da689c313, 2019-01-14)"><metadata
   id="metadata17"><rdf:RDF><cc:Work
       rdf:about=""><dc:format>image/svg+xml</dc:format><dc:type
         rdf:resource="http://purl.org/dc/dcmitype/StillImage" /></cc:Work></rdf:RDF></metadata><defs id="defs15"></defs><sodipodi:namedview
   pagecolor="#ffffff"
   bordercolor="#666666"
   borderopacity="1"
   objecttolerance="10"
   gridtolerance="10"
   guidetolerance="10"
   inkscape:pageopacity="0"
   inkscape:pageshadow="2"
   inkscape:window-width="1854"
   inkscape:window-height="1016"
   id="namedview13"
   showgrid="false"
   showguides="true"
   inkscape:guide-bbox="true"
   inkscape:zoom="1.3037281"
   inkscape:cx="-43.344397"
   inkscape:cy="74.931987"
   inkscape:window-x="66"
   inkscape:window-y="27"
   inkscape:window-maximized="1"
   inkscape:current-layer="レイヤー_1"><inkscape:grid
     type="xygrid"
     id="grid859" /></sodipodi:namedview>
<path
   style="fill:#fcc21b"
   inkscape:connector-curvature="0"
   id="path2"
   d="M 125.74,74.99 C 133.53,45.33 117.01,15.77 87.51,10.36 24.09,-1.31 -3.8,53.67 0.83,94.54 c 0,13.63 28.17,24.69 62.93,24.69 32.58,0 59.37,-9.73 62.59,-22.17 0.22,-0.83 0.33,-1.67 0.33,-2.52 0.01,-6.48 -4.12,-7.46 -0.94,-19.55 z" />
<g
   transform="rotate(17.449215,85.121838,55.296756)"
   id="g838"><g
     id="g834"><path
       inkscape:connector-curvature="0"
       d="m 65.27,95.49 c -3.48,0.03 -7.01,-0.73 -9.87,-2.15 -1.43,-0.71 -2.92,-1.69 -4.06,-2.8 -1.16,-1.12 -2.27,-3.13 -0.92,-4.51 1.09,-1.11 2.71,0.01 3.76,0.58 2.98,1.63 6.4,2.83 9.86,2.98 3.83,0.17 6.93,-1 10.23,-2.74 0.95,-0.49 2.81,-1.72 3.92,-1.04 2.75,1.67 -0.52,4.68 -1.94,5.88 -3.03,2.58 -6.96,3.76 -10.98,3.8 z"
       style="fill:#2f2f2f"
       id="path826" /><g
       id="g832"><ellipse
         cx="37.5"
         cy="58.240002"
         rx="7.2199998"
         ry="7.96"
         style="fill:#2f2f2f"
         id="ellipse828" /><ellipse
         cx="90.260002"
         cy="58.240002"
         rx="7.2199998"
         ry="7.96"
         style="fill:#2f2f2f"
         id="ellipse830" /></g></g><path
     inkscape:connector-curvature="0"
     d="m 71.39,75.08 c -2.35,-1.15 -2.57,3.06 -7.38,3.06 -2.81,0 -6.26,-1.96 -6.2,-5.08 0.02,-0.57 0.03,-1.09 0.17,-1.65 0.16,-0.63 0.38,-1.19 0.6,-1.8 0.44,-1.17 1,-2.29 1.5,-3.43 0.4,-0.89 0.75,-1.81 1.04,-2.74 1.35,-4.37 1.4,-9.12 -1.1,-13.17 -0.33,-0.53 -0.62,-1.13 -1.11,-1.5 -1.6,-1.24 -2.57,0.26 -2.31,1.72 0.38,2.18 1.67,4.02 1.89,6.28 0.33,3.35 -0.61,7.12 -2.25,10.08 -0.23,0.41 -0.5,0.83 -0.7,1.27 -1.06,2.32 -1.86,5.03 -0.87,7.57 1.39,3.54 5.69,5.75 9.35,5.75 6.26,0.01 9.72,-5.2 7.37,-6.36 z"
     style="fill:#2f2f2f"
     id="path836" /></g></svg>
