<?xml version="1.0" encoding="UTF-8" standalone="no"?>
<!-- Created with Inkscape (http://www.inkscape.org/) -->

<svg
   xmlns:dc="http://purl.org/dc/elements/1.1/"
   xmlns:cc="http://creativecommons.org/ns#"
   xmlns:rdf="http://www.w3.org/1999/02/22-rdf-syntax-ns#"
   xmlns:svg="http://www.w3.org/2000/svg"
   xmlns="http://www.w3.org/2000/svg"
   xmlns:sodipodi="http://sodipodi.sourceforge.net/DTD/sodipodi-0.dtd"
   xmlns:inkscape="http://www.inkscape.org/namespaces/inkscape"
   width="150mm"
   height="80mm"
   viewBox="0 0 531.49606 283.46457"
   id="svg2"
   version="1.1"
   inkscape:version="0.91 r13725"
   sodipodi:docname="pakreq.svg"
   inkscape:export-filename="/home/jeffbai/Git Repos/aoscc/2016/stickers/tags/png/pakreq.png"
   inkscape:export-xdpi="300"
   inkscape:export-ydpi="300">
  <defs
     id="defs4" />
  <sodipodi:namedview
     id="base"
     pagecolor="#ffffff"
     bordercolor="#666666"
     borderopacity="1.0"
     inkscape:pageopacity="0.0"
     inkscape:pageshadow="2"
     inkscape:zoom="1.4"
     inkscape:cx="246.23956"
     inkscape:cy="133.26349"
     inkscape:document-units="px"
     inkscape:current-layer="layer1"
     showgrid="false"
     inkscape:window-width="1366"
     inkscape:window-height="713"
     inkscape:window-x="0"
     inkscape:window-y="27"
     inkscape:window-maximized="1" />
  <metadata
     id="metadata7">
    <rdf:RDF>
      <cc:Work
         rdf:about="">
        <dc:format>image/svg+xml</dc:format>
        <dc:type
           rdf:resource="http://purl.org/dc/dcmitype/StillImage" />
        <dc:title />
      </cc:Work>
    </rdf:RDF>
  </metadata>
  <g
     inkscape:label="Layer 1"
     inkscape:groupmode="layer"
     id="layer1"
     transform="translate(0,-768.8976)">
    <rect
       style="fill:#dfbbb0;fill-opacity:1"
       id="rect4254-8"
       width="336.42856"
       height="109.39434"
       x="97.533752"
       y="857.66498"
       ry="11" />
    <rect
       style="fill:#f9d0c4;fill-opacity:1"
       id="rect4254"
       width="336.42856"
       height="109.39434"
       x="97.533752"
       y="853.07562"
       ry="11" />
    <path
       inkscape:connector-curvature="0"
       d="m 146.26871,876.82311 c -1.54842,-1.54841 -3.65691,-2.40499 -5.83129,-2.40499 l -8.10452,0 c -4.51348,0 -8.23628,3.72281 -8.23628,8.23629 l 0,8.13745 c 0,2.17438 0.88951,4.28288 2.40499,5.8313 l 19.96477,19.96476 c 1.28487,1.28487 3.36041,1.28487 4.64527,0 l 15.12184,-15.12182 c 1.28486,-1.28487 1.28486,-3.36041 0,-4.64527 l -19.96478,-19.99772 z m -17.62566,17.65862 c -1.0213,-0.98836 -1.54842,-2.30617 -1.54842,-3.72281 l 0,-8.10451 c 0,-2.89918 2.37205,-5.23828 5.23827,-5.23828 l 8.13746,0 c 1.3837,0 2.73445,0.52713 3.72281,1.54842 l 20.22832,20.19538 -15.58306,15.58306 -20.19538,-20.26126 z m 2.07554,-13.47458 6.58903,0 0,6.58904 -6.62197,0 0,-6.58904 z"
       id="path4218" />
    <text
       xml:space="preserve"
       style="font-style:normal;font-variant:normal;font-weight:normal;font-stretch:normal;font-size:40px;line-height:125%;font-family:'Noto Sans';-inkscape-font-specification:'Noto Sans';letter-spacing:0px;word-spacing:0px;fill:#332a28;fill-opacity:1;stroke:none;stroke-width:1px;stroke-linecap:butt;stroke-linejoin:miter;stroke-opacity:1"
       x="186.34164"
       y="926.21582"
       id="text4250"
       sodipodi:linespacing="125%"><tspan
         sodipodi:role="line"
         id="tspan4252"
         x="186.34164"
         y="926.21582"
         style="font-style:normal;font-variant:normal;font-weight:bold;font-stretch:normal;font-size:60px;font-family:'Noto Sans';-inkscape-font-specification:'Noto Sans Bold';fill:#332a28;fill-opacity:1">pakreq</tspan></text>
  </g>
</svg>
