<?xml version="1.0" encoding="UTF-8" standalone="no"?>
<svg
   xmlns:dc="http://purl.org/dc/elements/1.1/"
   xmlns:cc="http://creativecommons.org/ns#"
   xmlns:rdf="http://www.w3.org/1999/02/22-rdf-syntax-ns#"
   xmlns:svg="http://www.w3.org/2000/svg"
   xmlns="http://www.w3.org/2000/svg"
   xmlns:sodipodi="http://sodipodi.sourceforge.net/DTD/sodipodi-0.dtd"
   xmlns:inkscape="http://www.inkscape.org/namespaces/inkscape"
   width="512"
   height="512"
   viewBox="0 0 135.46666 135.46667"
   version="1.1"
   id="svg61475"
   inkscape:version="1.0.1 (unknown)"
   sodipodi:docname="fanta-sea.svg">
  <defs
     id="defs61469">
    <marker
       style="overflow:visible"
       id="marker1121"
       refX="0.0"
       refY="0.0"
       orient="auto"
       inkscape:stockid="Arrow1Lstart"
       inkscape:isstock="true">
      <path
         transform="scale(0.8) translate(12.5,0)"
         style="fill-rule:evenodd;stroke:#000000;stroke-width:1pt;stroke-opacity:1;fill:#000000;fill-opacity:1"
         d="M 0.0,0.0 L 5.0,-5.0 L -12.5,0.0 L 5.0,5.0 L 0.0,0.0 z "
         id="path1119" />
    </marker>
    <marker
       style="overflow:visible"
       id="Arrow1Lstart"
       refX="0.0"
       refY="0.0"
       orient="auto"
       inkscape:stockid="Arrow1Lstart"
       inkscape:isstock="true">
      <path
         transform="scale(0.8) translate(12.5,0)"
         style="fill-rule:evenodd;stroke:#000000;stroke-width:1pt;stroke-opacity:1;fill:#000000;fill-opacity:1"
         d="M 0.0,0.0 L 5.0,-5.0 L -12.5,0.0 L 5.0,5.0 L 0.0,0.0 z "
         id="path843" />
    </marker>
    <inkscape:path-effect
       effect="spiro"
       id="path-effect62089"
       is_visible="true"
       lpeversion="1" />
    <inkscape:path-effect
       effect="spiro"
       id="path-effect62080"
       is_visible="true"
       lpeversion="1" />
    <inkscape:path-effect
       effect="spiro"
       id="path-effect62064"
       is_visible="true"
       lpeversion="1" />
    <inkscape:path-effect
       effect="spiro"
       id="path-effect62060"
       is_visible="true"
       lpeversion="1" />
  </defs>
  <sodipodi:namedview
     id="base"
     pagecolor="#ffffff"
     bordercolor="#666666"
     borderopacity="1.0"
     inkscape:pageopacity="1"
     inkscape:pageshadow="2"
     inkscape:zoom="0.78125"
     inkscape:cx="-173.36882"
     inkscape:cy="188.48365"
     inkscape:document-units="mm"
     inkscape:current-layer="layer1"
     inkscape:document-rotation="0"
     showgrid="false"
     units="px"
     inkscape:window-width="1920"
     inkscape:window-height="1001"
     inkscape:window-x="0"
     inkscape:window-y="28"
     inkscape:window-maximized="1" />
  <metadata
     id="metadata61472">
    <rdf:RDF>
      <cc:Work
         rdf:about="">
        <dc:format>image/svg+xml</dc:format>
        <dc:type
           rdf:resource="http://purl.org/dc/dcmitype/StillImage" />
        <dc:title></dc:title>
      </cc:Work>
    </rdf:RDF>
  </metadata>
  <g
     inkscape:label="Layer 1"
     inkscape:groupmode="layer"
     id="layer1">
    <path
       id="rect62236"
       style="fill:#efa450;fill-opacity:1;stroke:none;stroke-width:0.79375;stroke-linecap:round;stroke-linejoin:bevel;stroke-miterlimit:4;stroke-dasharray:none"
       d="M 0,69.585417 C 30.743805,54.779154 31.846112,94.563673 66.875913,92.745499 96.884431,91.187947 124.11402,29.822763 135.46667,35.71875 v 99.74792 H 0 Z"
       sodipodi:nodetypes="cscccc" />
    <path
       style="fill:none;stroke:#000000;stroke-width:0.794;stroke-linecap:round;stroke-linejoin:miter;stroke-opacity:1;stroke-miterlimit:4;stroke-dasharray:none"
       d="M 0,69.585417 C 28.940655,53.21118 35.265336,97.876044 68.042525,92.624763 100.81971,87.37348 122.381,29.993246 135.46667,35.71875"
       id="path62056"
       sodipodi:nodetypes="csc" />
    <path
       style="fill:none;stroke:#000000;stroke-width:1.32292;stroke-linecap:butt;stroke-linejoin:miter;stroke-miterlimit:4;stroke-dasharray:none;stroke-opacity:1"
       d="M 109.45544,76.672598 107.8354,82.13143"
       id="path62058"
       inkscape:path-effect="#path-effect62060"
       inkscape:original-d="m 109.45544,76.672598 c -0.37428,2.565841 -1.1976,4.578392 -1.62004,5.458832" />
    <path
       style="fill:none;stroke:#000000;stroke-width:1.32292;stroke-linecap:butt;stroke-linejoin:miter;stroke-miterlimit:4;stroke-dasharray:none;stroke-opacity:1"
       d="m 122.6762,79.901077 -1.12948,5.70221"
       id="path62062"
       inkscape:path-effect="#path-effect62064"
       inkscape:original-d="m 122.6762,79.901077 c -0.43947,1.887171 -1.04398,3.766432 -1.12948,5.70221" />
    <path
       style="fill:none;stroke:#000000;stroke-width:1.32292;stroke-linecap:butt;stroke-linejoin:miter;stroke-miterlimit:4;stroke-dasharray:none;stroke-opacity:1"
       d="m 103.23302,88.675013 c -0.088,2.878864 1.33371,5.762008 3.67115,7.444863 1.82346,1.312813 4.12715,1.890092 6.37089,1.771427 2.24375,-0.118665 4.42492,-0.907092 6.33046,-2.097639 1.01581,-0.634657 1.96023,-1.383475 2.80977,-2.227824"
       id="path62078"
       inkscape:path-effect="#path-effect62080"
       inkscape:original-d="m 103.23302,88.675013 c -1.37086,5.556708 -0.65234,5.415065 3.67115,7.444863 6.69676,3.143995 6.82273,3.228501 12.70135,-0.326212 0.95604,-0.578097 2.57537,-1.276352 2.80977,-2.227824" />
    <path
       style="fill:none;stroke:#000000;stroke-width:0.79375;stroke-linecap:butt;stroke-linejoin:miter;stroke-miterlimit:4;stroke-dasharray:none;stroke-opacity:1"
       d="M 78.780919,39.365327 C 79.423586,35.007199 78.367933,30.420929 75.884605,26.782333 73.401277,23.143736 69.515147,20.489256 65.222529,19.499441 63.39199,19.077345 61.508926,18.948944 59.640768,18.7514 56.193418,18.386868 52.76843,17.782691 49.305981,17.61373 c -3.462449,-0.16896 -7.013234,0.116676 -10.207737,1.462875 -2.747343,1.15776 -5.135323,3.064207 -7.128858,5.280989 -1.993536,2.216782 -3.612509,4.743595 -5.09366,7.330967 -0.710605,1.241332 -1.393627,2.503579 -1.915788,3.835199 -1.592832,4.062058 -1.589538,8.740642 0.08216,12.770884 1.671698,4.030242 5.009461,7.355025 9.075228,8.938366 2.521227,0.981848 5.2544,1.304479 7.806743,2.202341 1.908897,0.671511 3.701346,1.659583 5.642946,2.229673 3.028271,0.889157 6.249453,0.718193 9.396251,0.960451 1.639255,0.126199 3.281245,0.366556 4.920432,0.239474 2.063366,-0.159968 4.05889,-0.905723 5.812489,-2.004795 1.753599,-1.099072 3.273541,-2.543926 4.59097,-4.139999 1.197625,-1.450929 2.246348,-3.053565 2.849026,-4.835777 0.278197,-0.822671 0.459165,-1.678175 0.537937,-2.543032 l 12.268616,6.7378 z"
       id="path62087"
       inkscape:path-effect="#path-effect62089"
       inkscape:original-d="m 78.780919,39.365327 c 0.06792,-8.140467 -3.8364,-19.865886 -13.55839,-19.865886 -1.617974,0 -4.470196,-0.109465 -5.581761,-0.748041 -2.213311,-1.271512 -18.490011,-0.361776 -20.542524,0.325205 -6.524911,2.183901 -7.580231,7.865225 -12.222518,12.611956 -0.816502,0.834869 -1.362813,2.726489 -1.915788,3.835199 -4.095821,8.212079 1.920892,17.539496 9.157389,21.70925 2.371619,1.366554 5.29798,1.452745 7.806743,2.202341 1.931723,0.577181 3.833762,1.624097 5.642946,2.229673 2.865771,0.959239 6.365354,0.620943 9.396251,0.960451 1.047009,0.117281 3.848515,0.814998 4.920432,0.239474 3.290203,-1.766549 7.158892,-4.401831 10.403459,-6.144794 0.835689,-0.44893 1.634773,-4.145182 2.849026,-4.835777 0.424905,-0.24166 0.07695,-2.001067 0.537937,-2.543032 3.03342,-0.926927 13.326057,11.289499 12.268616,6.7378 C 87.382612,52.269298 81.03844,41.974123 78.780919,39.365327 Z"
       sodipodi:nodetypes="cssssssssssssccc" />
    <circle
       style="fill:#efa450;fill-opacity:1;stroke:none;stroke-width:0.79375;stroke-linecap:round;stroke-linejoin:bevel;stroke-miterlimit:4;stroke-dasharray:none"
       id="path62241"
       cx="15.517048"
       cy="111.99343"
       r="2.8987584" />
    <path
       style="fill:#ffffff;fill-opacity:1;stroke:#ffffff;stroke-width:1.92;stroke-linecap:round;stroke-linejoin:bevel;stroke-miterlimit:4;stroke-dasharray:none;stroke-opacity:1"
       d="m 222.94111,235.60877 c -0.352,-0.16028 -8.128,-0.73627 -17.28,-1.27998 -9.152,-0.54371 -18.656,-1.42564 -21.12,-1.95984 -2.464,-0.53421 -9.52,-3.00886 -15.68,-5.49923 -7.3919,-2.9884 -15.25756,-5.57689 -23.13367,-7.61298 -14.44735,-3.73485 -20.35465,-6.02851 -27.09598,-10.52072 -22.2832,-14.84882 -31.932966,-42.20323 -24.245787,-68.73008 3.829331,-13.21422 18.747597,-37.44923 30.322957,-49.260229 12.50465,-12.75921 24.75366,-19.118664 41.59248,-21.59404 9.46694,-1.391679 23.64932,-0.952683 40.96,1.267859 6.864,0.880486 16.8,2.066255 22.08,2.635043 16.76191,1.805676 22.79917,3.380204 32.49779,8.475479 17.33142,9.105244 29.16664,24.909298 33.47232,44.696988 0.73919,3.39707 1.12007,8.18947 1.16424,14.6488 l 0.0657,9.6 15.24382,27.74283 c 8.38411,15.25856 15.10154,27.88514 14.92763,28.05906 -0.17392,0.17391 -9.55935,-4.76384 -20.85652,-10.97277 -11.29717,-6.20894 -20.78143,-11.13996 -21.07614,-10.95782 -0.29472,0.18214 -0.69321,1.85162 -0.88554,3.70993 -1.15971,11.20512 -10.66473,26.09714 -22.91032,35.89482 -10.12867,8.10394 -18.35642,11.30845 -30.04293,11.70104 -4.048,0.13598 -7.648,0.11611 -8,-0.0442 z"
       id="path62368"
       transform="scale(0.26458333)" />
    <path
       style="fill:#000000;stroke-width:0.106782"
       d="m 37.25657,55.484618 c -0.195408,-0.196921 -0.273484,-0.739587 -0.511663,-3.556151 -0.169717,-2.006988 -0.296816,-2.802527 -0.84159,-4.759849 0,0 0.03916,-0.337858 0.582791,-0.313168 0.01016,0.01302 0.53451,-0.235278 1.165635,-0.551824 1.343794,-0.674004 1.859223,-0.78996 1.93933,-0.436298 0.06389,0.282055 -0.02994,0.344169 -1.611557,1.06689 -0.63946,0.292195 -1.182423,0.574033 -1.206585,0.626293 -0.03331,0.07201 0.475974,2.816767 0.52052,2.805427 0.0049,-0.0012 0.703011,-0.382768 1.551042,-0.847748 0.848044,-0.464979 1.602309,-0.830098 1.67616,-0.811376 0.200799,0.05092 0.317436,0.32277 0.225768,0.526227 -0.04457,0.09883 -0.832216,0.569437 -1.750449,1.045842 l -1.669505,0.866187 0.04591,0.636771 c 0.02529,0.350214 0.104026,1.191205 0.175028,1.868856 0.175226,1.672247 0.08891,2.216569 -0.290833,1.833916 z m 4.329208,-1.312117 c -0.536136,-0.248969 -0.692988,-1.451334 -0.302488,-2.31884 0.3053,-0.678249 0.904464,-1.129282 1.621897,-1.220918 0.814343,-0.104007 0.884662,-0.01998 1.134543,1.355992 0.238658,1.313907 0.242823,1.616622 0.02236,1.607598 -0.123228,-0.005 -0.185759,-0.148388 -0.299116,-0.68565 l -0.143301,-0.679274 -0.289166,0.664648 c -0.402361,0.92485 -1.217552,1.521242 -1.744715,1.276441 z m 1.034871,-0.950274 c 0.25007,-0.269238 0.849762,-1.766376 0.798387,-1.993188 -0.04022,-0.177532 -0.664779,-0.100159 -1.025264,0.126976 -0.44432,0.280008 -0.800888,0.821595 -0.877526,1.332867 -0.06084,0.405879 0.01726,0.903001 0.161112,1.025451 0.12951,0.110256 0.622823,-0.147227 0.943295,-0.492146 z m 2.721807,-0.254888 c -0.119219,-0.06147 -0.190781,-0.304294 -0.339254,-1.151027 -0.103446,-0.590225 -0.179026,-1.231277 -0.167771,-1.424597 0.03337,-0.577563 0.422947,-0.465587 0.467185,0.13428 0.08285,1.123514 0.05809,1.132135 0.640547,-0.222965 0.450188,-1.047357 0.590616,-1.275113 0.817434,-1.325779 0.587877,-0.131411 1.010737,0.394317 1.510971,1.878325 0.330507,0.98049 0.378448,1.352434 0.180109,1.397358 -0.1558,0.03528 -0.409238,-0.448134 -0.675891,-1.289233 -0.257772,-0.813052 -0.413095,-1.1203 -0.681023,-1.347043 -0.173018,-0.146425 -0.216767,-0.13906 -0.409143,0.06886 -0.280691,0.303388 -0.670551,1.327276 -0.934318,2.453791 -0.115783,0.494497 -0.221139,0.900621 -0.234123,0.902501 -0.01296,0.002 -0.09161,-0.03165 -0.174709,-0.0745 z m 4.727179,-1.602214 c -0.364818,-0.169239 -0.744376,-0.932752 -0.983448,-1.978287 -0.121897,-0.533158 -0.245333,-0.989417 -0.274288,-1.013911 -0.02893,-0.0245 -0.362133,0.06219 -0.74041,0.192667 -0.773043,0.266598 -0.942116,0.261619 -0.965575,-0.02843 -0.01199,-0.148015 0.133001,-0.261792 0.548636,-0.430568 1.117112,-0.453626 1.070715,-0.376441 0.985045,-1.638535 -0.05819,-0.857142 -0.164231,-1.466458 -0.458934,-2.636203 -0.353409,-1.402909 -0.370602,-1.524258 -0.220714,-1.558208 0.355043,-0.08042 0.967942,1.838058 1.127308,3.528662 0.06083,0.645268 0.109955,1.280651 0.109183,1.411959 -0.0013,0.22412 0.03688,0.224642 0.623891,0.0085 0.685284,-0.252318 0.997805,-0.250181 1.056119,0.0073 0.05421,0.239304 -0.199625,0.482397 -0.600107,0.574722 -0.189554,0.04368 -0.489608,0.147468 -0.666789,0.230598 l -0.322151,0.151146 0.181835,0.802775 c 0.217401,0.959789 0.656547,1.876648 0.873394,1.823504 0.318577,-0.07811 0.812545,-0.685313 0.90183,-1.108635 l 0.09242,-0.438204 0.113893,0.501116 c 0.137276,0.603962 -0.03258,0.958636 -0.665493,1.389961 -0.486194,0.331334 -0.463916,0.324856 -0.715615,0.208102 z m 2.275051,-1.125739 c -0.427934,-0.210739 -0.598406,-0.588032 -0.610976,-1.352238 -0.01335,-0.811537 0.542306,-2.057371 1.067005,-2.39233 0.430247,-0.27466 1.930429,-0.554035 2.11884,-0.394583 0.08587,0.07267 0.139993,0.322406 0.178616,0.824331 0.07471,0.969808 0.263504,1.364956 0.750895,1.571618 0.487833,0.206849 0.517549,0.324238 0.105689,0.417529 -0.236856,0.05364 -0.415282,-0.0046 -0.667029,-0.217612 -0.189023,-0.159969 -0.363118,-0.37668 -0.386879,-0.481581 -0.02858,-0.126161 -0.210849,0.10212 -0.538392,0.674275 -0.760974,1.329281 -1.312076,1.698157 -2.017815,1.350608 z m 1.370363,-1.108278 c 0.616699,-0.863303 0.993086,-1.767607 0.90238,-2.168058 -0.05876,-0.259428 -0.134733,-0.354645 -0.298598,-0.374233 -0.426,-0.05092 -1.126887,0.183921 -1.435404,0.48095 -0.416165,0.400676 -0.760342,1.310904 -0.745425,1.971389 0.01124,0.498174 0.03051,0.548379 0.274056,0.714513 0.3674,0.250621 0.839434,0.02436 1.302993,-0.624563 z m 5.63905,-0.871348 c -0.102242,-0.04755 -0.196092,-0.13147 -0.208554,-0.186481 -0.02564,-0.113318 0.05439,-0.173073 1.097409,-0.819333 1.185333,-0.734437 1.658995,-1.176102 1.975417,-1.841964 0.512133,-1.077708 0.104193,-1.472033 -1.690242,-1.633827 -1.747861,-0.157594 -2.165887,-0.431674 -2.090814,-1.37084 0.07825,-0.978866 1.44697,-3.028055 2.36824,-3.545613 0.782096,-0.439375 1.096859,-0.08221 0.337831,0.383335 -0.244986,0.150276 -0.653636,0.504 -0.908103,0.786081 -0.467977,0.518756 -1.424325,2.369258 -1.363416,2.638161 0.0538,0.237486 0.577453,0.383801 1.691774,0.472701 1.208448,0.09641 1.774221,0.309793 2.143344,0.808374 0.782199,1.056538 0.01489,2.715124 -1.76975,3.825437 -0.716105,0.44552 -1.289145,0.620699 -1.583136,0.483969 z m 5.655744,-2.037844 c -0.548507,-0.01771 -1.109322,-0.247752 -1.384544,-0.567902 -0.271249,-0.315527 -0.589365,-1.245164 -0.437986,-1.279946 0.05739,-0.01314 0.140852,-0.240316 0.185498,-0.504738 0.186276,-1.10322 1.077165,-1.880301 1.74458,-1.521709 0.788963,0.423896 0.131057,1.657289 -1.132969,2.124018 -0.225671,0.08332 -0.251922,0.146517 -0.18451,0.444133 0.103552,0.457155 0.477582,0.683891 1.184246,0.717876 0.720704,0.03466 1.32177,-0.280412 2.127623,-1.115247 0.624082,-0.646529 0.802523,-0.671721 0.663614,-0.09368 -0.09407,0.391458 -0.666371,0.980799 -1.384151,1.425361 -0.543193,0.336433 -0.750437,0.392215 -1.381399,0.371833 z m -0.365868,-2.560614 c 0.504436,-0.410974 0.653504,-0.706792 0.445058,-0.883199 -0.36836,-0.311737 -1.175637,0.366191 -1.292052,1.084939 -0.0361,0.222945 -0.01197,0.249851 0.184239,0.205408 0.124182,-0.02813 0.422423,-0.211346 0.662755,-0.407148 z m 6.865563,0.01732 c -0.101611,-0.08599 -0.19368,-0.192855 -0.204583,-0.237462 -0.01087,-0.04462 -0.07003,-0.144655 -0.131364,-0.222341 -0.08792,-0.111336 -0.166152,-0.0639 -0.36942,0.223938 -0.52939,0.749649 -1.465539,0.819998 -1.909928,0.143525 -0.26177,-0.398477 -0.432231,-1.274151 -0.366755,-1.884037 0.083,-0.773133 0.437054,-1.174858 1.184697,-1.344204 0.329885,-0.07472 0.624887,-0.114609 0.655548,-0.08867 0.03066,0.02595 0.09843,0.170241 0.150591,0.320641 0.395611,1.140662 0.677217,1.790861 0.995398,2.298259 0.203032,0.323768 0.384835,0.656068 0.404004,0.738443 0.04871,0.209166 -0.186956,0.239142 -0.408194,0.05188 z m -1.177441,-0.461555 c 0.397007,-0.354757 0.412363,-0.515816 0.140182,-1.470292 l -0.244953,-0.858984 -0.371672,0.08593 c -0.498903,0.115561 -0.742919,0.396197 -0.819065,0.942219 -0.126551,0.907484 0.260951,1.705008 0.772168,1.589214 0.147932,-0.03351 0.383422,-0.163199 0.52331,-0.288195 z"
       id="path62229"
       sodipodi:nodetypes="csccssscssccsccsccssscsccssscsssccccccsscsssssscccscccssssssssssccscsccssscssscsssssccsssssssssssssssssssssssscssssssssssssssssccssssscscsscsccsscc" />
    <path
       style="fill:#000000;stroke-width:0.131709"
       d="m 34.974265,44.844664 c 0.03811,-0.172187 0.245927,-0.702646 0.461691,-1.178806 0.215795,-0.476151 0.611154,-1.669604 0.878657,-2.652101 0.267488,-0.982498 0.549319,-1.808273 0.626166,-1.83508 0.327176,-0.114055 0.284537,0.44366 -0.168986,2.210793 -0.61789,2.407403 -1.279524,3.898452 -1.689631,3.807551 -0.102042,-0.02262 -0.147938,-0.17205 -0.107953,-0.352357 z M 31.808497,41.40231 c 0.206602,-0.306649 0.788261,-1.153706 1.292404,-1.882389 0.504144,-0.728681 1.173322,-1.779327 1.487074,-2.334766 0.398781,-0.705991 0.631081,-0.996443 0.771974,-0.965217 0.161581,0.03581 0.164303,0.13876 0.01401,0.519398 -0.258651,0.653699 -1.704268,3.019996 -2.442811,3.998395 -0.914391,1.211327 -1.8738,1.779432 -1.122376,0.664586 z m 5.986999,0.923139 c -0.166311,-0.16231 -0.314499,-0.376234 -0.329323,-0.475388 -0.01555,-0.09916 0.111385,-0.02136 0.280368,0.172882 0.673472,0.774063 1.519041,0.0118 1.924761,-1.735289 0.353934,-1.524176 0.02069,-3.242411 -0.658025,-3.392856 -0.557936,-0.123672 -1.769231,0.349622 -3.040495,1.188023 -0.737811,0.486587 -1.290288,0.774566 -1.264713,0.659232 0.02489,-0.112637 0.598833,-0.56584 1.275276,-1.007112 1.285793,-0.838781 2.426106,-1.243796 3.088501,-1.096973 0.928795,0.205871 1.370294,1.67253 1.076438,3.575953 -0.191418,1.2396 -0.60672,2.010132 -1.250527,2.319842 -0.466917,0.22462 -0.704677,0.179684 -1.102261,-0.208325 z m -8.799316,-4.59379 c 0.021,-0.09464 0.977362,-0.71203 2.125312,-1.371943 1.147949,-0.659913 2.095427,-1.237113 2.105523,-1.282666 0.0093,-0.04555 -0.08276,-0.31095 -0.206523,-0.589804 -0.43313,-0.976412 -0.08541,-1.141897 0.380767,-0.181191 l 0.29566,0.609377 0.628594,-0.315426 c 0.493082,-0.247426 2.424968,-1.137034 2.615095,-1.204205 0.02131,-0.0076 -0.0062,-0.548718 -0.05958,-1.202594 -0.05413,-0.653889 -0.05585,-1.215938 -0.0047,-1.249 0.210117,-0.133876 0.331703,0.217024 0.399979,1.154471 0.03951,0.542934 0.08214,1.007849 0.09474,1.03314 0.01244,0.02528 0.506057,-0.117214 1.096632,-0.316688 1.046352,-0.353436 1.956946,-0.487106 1.730106,-0.253981 -0.05989,0.06159 -0.704537,0.35477 -1.432503,0.651538 l -1.323594,0.539575 -0.296314,1.162881 c -0.321,1.259896 -0.423966,1.224826 -0.30714,-0.104617 l 0.07405,-0.843951 -1.382101,0.651576 c -0.76015,0.358372 -1.432859,0.703746 -1.494882,0.767508 -0.06207,0.06375 0.02022,0.389952 0.182644,0.724865 0.387504,0.798666 0.236376,0.867228 -0.287384,0.130391 -0.286979,-0.403719 -0.480746,-0.564863 -0.625388,-0.520093 -0.115271,0.03567 -1.085974,0.553573 -2.157138,1.15087 -1.07118,0.597298 -2.002371,1.073856 -2.069278,1.059023 -0.06705,-0.01478 -0.104532,-0.104402 -0.08354,-0.199063 z m 16.049472,1.236459 c 0.01085,-0.05016 0.337989,-0.556964 0.726348,-1.126219 1.19146,-1.746366 1.568464,-3.553881 0.777574,-3.728025 -0.468396,-0.103151 -1.151419,0.15105 -1.797418,0.668898 -0.481806,0.386227 -0.918731,0.518199 -0.859042,0.25947 0.05289,-0.231091 1.39873,-1.10567 1.901007,-1.235859 1.102915,-0.285874 1.631123,0.142852 1.534878,1.245729 -0.03064,0.350998 -0.06238,0.718903 -0.07032,0.817586 -0.0078,0.09878 0.20027,0.305433 0.462936,0.459461 1.838393,1.078109 3.26738,1.413716 5.793216,1.36058 1.500763,-0.03158 1.827784,-0.0019 2.046753,0.186204 0.255213,0.219146 0.249193,0.225155 -0.290792,0.290475 -0.303283,0.03668 -1.314074,0.08394 -2.24623,0.105022 -1.480602,0.03348 -1.838999,-0.0035 -2.835729,-0.292033 -0.96283,-0.278791 -2.266466,-0.868546 -3.013939,-1.363501 -0.146228,-0.09681 -0.251635,0.01509 -0.492461,0.52285 -0.360529,0.76006 -1.240555,1.890389 -1.485626,1.908153 -0.09427,0.0068 -0.162267,-0.02864 -0.151207,-0.07879 z m -6.456295,-3.890415 c -0.44111,-0.201501 -0.12305,-0.447495 0.64278,-0.497184 0.428929,-0.02782 1.151341,-0.145185 1.605377,-0.260808 1.09341,-0.27844 1.256252,-0.217498 0.595085,0.222692 -0.840203,0.55937 -2.221323,0.819397 -2.843242,0.535294 z m 9.847364,0.937916 c 0.108119,-0.30994 0.46897,-1.306257 0.802214,-2.213999 0.33329,-0.90773 0.576479,-1.69664 0.540435,-1.753124 -0.03593,-0.05647 -0.753041,0.26901 -1.593493,0.723286 -0.840435,0.454276 -1.593851,0.811379 -1.67426,0.793553 -0.389432,-0.08633 0.193549,-0.535343 1.829044,-1.408852 l 1.794307,-0.958295 0.152762,-0.674412 c 0.08369,-0.370981 0.21007,-0.661688 0.280851,-0.646 0.07078,0.01568 0.07109,0.288185 7.31e-4,0.605561 l -0.127872,0.577047 0.817383,-0.299273 c 0.738122,-0.270239 1.759119,-0.369407 1.714146,-0.16649 -0.0093,0.0442 -0.581411,0.289162 -1.270252,0.544364 -0.695764,0.257766 -1.328681,0.58254 -1.423979,0.730682 -0.09427,0.14668 -0.322976,0.780665 -0.508047,1.408873 -0.410247,1.392227 -1.11424,3.054722 -1.353634,3.196467 -0.130204,0.07716 -0.125071,-0.04239 0.02022,-0.459287 z m 9.600907,0.332669 c 0.02054,-0.09256 0.323132,-0.616129 0.672508,-1.163508 0.349359,-0.547382 0.858776,-1.456559 1.132051,-2.020393 0.273306,-0.563822 0.607716,-1.133215 0.743211,-1.265293 0.135494,-0.132072 0.2213,-0.279467 0.190671,-0.327528 -0.03064,-0.04805 0.33466,-0.357752 0.811766,-0.688206 l 0.867442,-0.600824 -0.05756,-1.494696 c -0.06099,-1.585581 -0.03048,-1.960879 0.155997,-1.91953 0.06363,0.01416 0.119938,0.345286 0.124915,0.735943 0.0047,0.390654 0.03889,1.092319 0.0753,1.559259 l 0.06611,0.848974 1.700224,-0.83575 c 0.935126,-0.459663 1.730902,-0.884931 1.768361,-0.945043 0.07544,-0.121041 -0.238446,-1.283802 -0.498248,-1.845693 -0.279685,-0.604871 -1.009235,-0.413609 -2.200836,0.576988 -0.246627,0.205026 -0.435588,0.311854 -0.419892,0.237396 0.05133,-0.246247 1.61185,-1.28135 2.046458,-1.358 0.582141,-0.102673 0.845833,0.187583 1.198398,1.319115 0.151672,0.487019 0.304449,0.893592 0.339341,0.903489 0.035,0.01001 0.766903,-0.316883 1.626675,-0.726188 1.102697,-0.524968 1.594504,-0.695057 1.669455,-0.577405 0.146848,0.230388 -0.217414,0.468328 -1.812152,1.184149 -0.725398,0.325584 -1.327094,0.629579 -1.337113,0.675546 -0.0336,0.154412 0.843424,5.123374 1.037534,5.877943 0.333989,1.29841 0.102674,1.521038 -0.842614,0.810695 -0.453104,-0.340514 -1.603886,-1.550677 -1.579447,-1.660948 0.0062,-0.02962 0.204952,0.137578 0.440861,0.371519 0.433347,0.429746 1.215635,1.021785 1.405841,1.063945 0.05678,0.01259 -0.0031,-0.531999 -0.134251,-1.210168 -0.130672,-0.678179 -0.346388,-2.046391 -0.479502,-3.040471 -0.133161,-0.99408 -0.273694,-1.862926 -0.312382,-1.93077 -0.07498,-0.131636 -3.081066,1.297508 -3.375326,1.604758 -0.130205,0.135852 -0.120871,0.395832 0.03578,1.012901 0.237014,0.933073 0.419642,1.168935 0.894883,1.155729 0.367623,-0.01025 0.824647,-0.445451 1.259611,-1.199567 0.232363,-0.402794 0.279311,-0.437874 0.231119,-0.1725 -0.109826,0.604545 -0.727888,1.556858 -1.138757,1.754515 -0.810646,0.389985 -1.404532,-0.100898 -1.647815,-1.362015 -0.08261,-0.427794 -0.190655,-0.772761 -0.24028,-0.766598 -0.04963,0.0062 -0.432166,0.214355 -0.850097,0.462644 -0.704366,0.418471 -0.764646,0.490248 -0.825579,0.982891 -0.138138,1.116787 -2.061578,4.300206 -2.534842,4.195307 -0.134872,-0.0299 -0.228412,-0.130066 -0.207893,-0.222616 z m -5.624773,-2.275092 c -0.263724,-0.420925 -0.651632,-0.913911 -0.862014,-1.095521 -0.210396,-0.181604 -0.371215,-0.381176 -0.357402,-0.443483 0.04184,-0.188986 0.670999,0.19371 1.044861,0.63558 0.357107,0.42209 0.8568,1.539562 0.725786,1.623045 -0.03951,0.02513 -0.287509,-0.298692 -0.551231,-0.719621 z M 45.88962,31.350413 c -0.734063,-1.273099 -0.854794,-1.619948 -0.53958,-1.550079 0.214333,0.04751 1.164953,1.624612 1.31073,2.174523 0.233014,0.879019 -0.02442,0.670503 -0.77115,-0.624444 z m 10.792633,1.374679 c 0.03889,-0.175783 1.231222,-1.015048 1.74837,-1.230726 0.209448,-0.08735 0.534447,-0.17169 0.722178,-0.187405 0.229982,-0.01926 -0.08276,0.224724 -0.958741,0.747858 -1.363759,0.814451 -1.563391,0.902964 -1.511807,0.670273 z m 7.224194,-2.160797 c 0.06705,-0.302421 1.172046,-0.708317 1.642541,-0.603351 0.232455,0.05178 0.103604,0.1415 -0.587648,0.408935 -0.899644,0.348052 -1.097004,0.384425 -1.054893,0.194416 z m -7.201685,-1.891529 c 0.184464,-0.189566 1.189563,-0.402113 1.879229,-0.397381 0.680689,0.0047 1.271854,0.269961 1.402277,0.629208 0.114342,0.314948 0.03033,0.364534 -0.276199,0.163085 -0.476251,-0.313008 -1.243418,-0.430387 -2.013944,-0.308156 -0.775132,0.122971 -1.162449,0.08907 -0.991363,-0.08676 z m 6.915591,-0.317358 c -0.223635,-0.07905 -0.394566,-0.197943 -0.379881,-0.264184 0.03189,-0.143862 1.246032,0.131465 1.669829,0.378726 0.286091,0.166887 0.281393,0.170946 -0.111696,0.09673 -0.225626,-0.04269 -0.49159,-0.07523 -0.591009,-0.07247 -0.09941,0.0028 -0.36375,-0.05969 -0.587353,-0.138792 z m -2.127239,-2.742754 c -0.104223,-0.71287 0.130049,-0.981904 0.475488,-0.546026 0.110134,0.138823 0.135806,0.199704 0.0574,0.135323 -0.17311,-0.141996 -0.279405,0.218898 -0.112315,0.381454 0.148405,0.144423 0.711024,-0.06992 1.688027,-0.64317 1.513877,-0.888258 2.172136,-0.992275 0.972197,-0.153632 -1.901785,1.329155 -2.965437,1.614363 -3.080708,0.826055 z"
       id="path915"
       sodipodi:nodetypes="ssccsscscscsccccssssssscssscsscscsccsssscscsccscsssssccsssscsscssssssssssssscsssccssssccsscssssccccsssssscsssscsssscsscssscssssscssccssssssscssssssscssssssscssscsssssssscssssccccssssccccs" />
  </g>
</svg>
