<?xml version="1.0" encoding="UTF-8" standalone="no"?>
<!-- Created with Inkscape (http://www.inkscape.org/) -->

<svg
   width="384"
   height="512"
   viewBox="0 0 101.6 135.46667"
   version="1.1"
   id="svg4458"
   xml:space="preserve"
   inkscape:version="1.2.1 (9c6d41e410, 2022-07-14)"
   sodipodi:docname="docker-group.svg"
   inkscape:export-filename="docker-group.webp"
   inkscape:export-xdpi="96"
   inkscape:export-ydpi="96"
   xmlns:inkscape="http://www.inkscape.org/namespaces/inkscape"
   xmlns:sodipodi="http://sodipodi.sourceforge.net/DTD/sodipodi-0.dtd"
   xmlns="http://www.w3.org/2000/svg"
   xmlns:svg="http://www.w3.org/2000/svg"><sodipodi:namedview
     id="namedview4460"
     pagecolor="#505050"
     bordercolor="#ffffff"
     borderopacity="1"
     inkscape:showpageshadow="0"
     inkscape:pageopacity="0"
     inkscape:pagecheckerboard="1"
     inkscape:deskcolor="#505050"
     inkscape:document-units="px"
     showgrid="false"
     inkscape:zoom="0.93754091"
     inkscape:cx="85.32961"
     inkscape:cy="318.38611"
     inkscape:window-width="1920"
     inkscape:window-height="1031"
     inkscape:window-x="4096"
     inkscape:window-y="0"
     inkscape:window-maximized="1"
     inkscape:current-layer="layer1" /><defs
     id="defs4455" /><g
     inkscape:label="Layer 1"
     inkscape:groupmode="layer"
     id="layer1"><rect
       style="fill:#d9bc37;fill-opacity:1;stroke:none;stroke-width:3.20791;stroke-linecap:round;stroke-linejoin:round;stroke-dasharray:none;stroke-opacity:1;paint-order:markers stroke fill"
       id="rect10574"
       width="101.6"
       height="135.46667"
       x="1.3879394e-06"
       y="-3.235677e-06" /><g
       id="g13770"
       transform="matrix(0.84834194,0,0,0.84834194,-7.129947,7.9332706)"><g
         id="g13424"
         transform="matrix(0.82514686,0,0,0.82514686,13.291325,16.213742)"><path
           id="rect8003"
           style="fill:none;fill-opacity:0.660305;stroke:#cb2727;stroke-width:1.85208;stroke-linecap:round;stroke-linejoin:round;stroke-dasharray:none;stroke-opacity:1;paint-order:markers stroke fill"
           d="m 36.99453,50.695012 9.2811,0.11339 0.0951,-7.81118 19.40254,-0.110019 0.0833,-8.745133 8.14099,0.113709 -0.025,16.487627 9.59814,-0.08185 -0.0173,8.555249 c 2.10118,-0.136191 4.1899,0.697118 6.31216,-1.080124 -2.38425,-7.484945 0.45641,-9.964269 2.85475,-12.867354 5.55957,1.588272 6.45401,5.016051 4.92472,8.243262 5.49042,0.03874 9.70233,0.8612 10.36645,2.080532 -0.45254,2.53754 -4.60855,8.059757 -11.70922,7.679201 -8.4283,28.368069 -66.44097,40.876568 -64.51531,-2.3542 l 5.05531,-0.0088 z"
           sodipodi:nodetypes="ccccccccccccccccc" /><path
           id="rect9523"
           style="fill:#cb2727;fill-opacity:1;stroke-width:6.31754;stroke-linecap:round;stroke-linejoin:round;paint-order:markers stroke fill"
           d="m 75.39634,52.818104 c -2.25405,0.08573 -4.23279,2.120917 -0.83863,3.501498 l 1.97063,8.345447 -27.73435,1.863583 c -1.12097,-0.0119 -4.26536,-0.817646 -4.34329,2.311766 -0.0588,2.361292 2.66007,2.161732 4.25407,2.060379 l 10.12663,-0.643935 3.08008,7.582375 -5.04337,0.427722 c -1.49293,0.126644 -6.30057,-0.545729 -4.10397,4.748433 l 3.79643,9.149971 c 0.59704,1.438944 1.62359,2.291008 3.3278,1.827372 1.70417,-0.46363 0.95822,-2.906656 0.48701,-4.007936 l -2.57469,-6.017935 c 3.77371,-0.125901 7.53725,0.879573 7.53725,0.879573 l 0.77408,14.248976 c 0.0429,0.789869 -0.12965,3.126287 2.21993,3.352447 2.34958,0.22618 1.85134,-2.22413 2.10394,-2.74945 l 2.16377,-30.244498 6.15543,-0.21412 c 1.78181,-0.375122 1.59419,-1.93721 1.39231,-4.844998 l -0.43926,-6.323898 c -0.0724,-1.04246 -0.27743,-2.596023 -1.84469,-4.301825 -0.66101,-0.719446 -1.58508,-0.984493 -2.46711,-0.950947 z M 64.84252,55.30148 a 4.0305007,4.0305007 0 0 0 -4.0305,4.030502 4.0305007,4.0305007 0 0 0 4.0305,4.030501 4.0305007,4.0305007 0 0 0 4.0305,-4.030501 4.0305007,4.0305007 0 0 0 -4.0305,-4.030502 z" /><path
           style="fill:none;fill-opacity:1;stroke:#cb2727;stroke-width:1.32292;stroke-linecap:round;stroke-linejoin:miter;stroke-dasharray:none;stroke-opacity:1"
           d="m 50.742904,14.086581 c -0.171089,2.3113 3.556165,10.085218 2.633129,11.588616"
           id="path12222"
           sodipodi:nodetypes="cc" /><path
           style="fill:none;fill-opacity:1;stroke:#cb2727;stroke-width:1.32292;stroke-linecap:round;stroke-linejoin:miter;stroke-dasharray:none;stroke-opacity:1"
           d="m 60.210259,12.056339 c 0.329168,3.763273 1.644411,7.752154 1.820527,10.927311"
           id="path12224"
           sodipodi:nodetypes="cc" /><path
           style="fill:none;fill-opacity:1;stroke:#cb2727;stroke-width:1.32292;stroke-linecap:round;stroke-linejoin:miter;stroke-dasharray:none;stroke-opacity:1"
           d="m 69.318066,11.335762 c -0.195907,3.718057 0.07957,7.237542 0.07957,11.174339"
           id="path12230"
           sodipodi:nodetypes="cc" /><path
           style="fill:none;fill-opacity:1;stroke:#cb2727;stroke-width:1.32292;stroke-linecap:round;stroke-linejoin:miter;stroke-dasharray:none;stroke-opacity:1"
           d="m 77.920535,11.199193 c -0.799154,2.657385 -2.696124,9.599246 -2.190498,11.445419"
           id="path12232"
           sodipodi:nodetypes="cc" /><path
           style="fill:none;fill-opacity:1;stroke:#cb2727;stroke-width:1.32292;stroke-linecap:round;stroke-linejoin:miter;stroke-dasharray:none;stroke-opacity:1"
           d="m 85.630296,12.789121 c -1.700368,4.673002 -3.689944,8.73812 -4.300949,10.765593"
           id="path12234"
           sodipodi:nodetypes="cc" /><path
           style="fill:none;fill-opacity:1;stroke:#cb2727;stroke-width:1.32292;stroke-linecap:round;stroke-linejoin:miter;stroke-dasharray:none;stroke-opacity:1"
           d="m 93.967116,15.074004 c -3.38196,5.185602 -0.73149,4.090953 -6.067774,9.548914"
           id="path12236"
           sodipodi:nodetypes="cc" /><path
           style="fill:none;fill-opacity:1;stroke:#cb2727;stroke-width:1.32292;stroke-linecap:round;stroke-linejoin:miter;stroke-dasharray:none;stroke-opacity:1"
           d="m 117.1996,39.349965 c -2.66483,0.847389 -5.25493,2.526011 -8.14071,3.471811"
           id="path12236-2"
           sodipodi:nodetypes="cc" /><path
           style="fill:none;fill-opacity:1;stroke:#cb2727;stroke-width:1.32292;stroke-linecap:round;stroke-linejoin:miter;stroke-dasharray:none;stroke-opacity:1"
           d="m 101.16432,19.872505 c -2.204747,2.55697 -4.989164,7.380132 -7.760924,8.308641"
           id="path12238"
           sodipodi:nodetypes="cc" /><path
           style="fill:none;fill-opacity:1;stroke:#cb2727;stroke-width:1.32292;stroke-linecap:round;stroke-linejoin:miter;stroke-dasharray:none;stroke-opacity:1"
           d="m 121.67424,57.645236 c -3.29925,0.716879 -6.4098,0.74987 -9.18268,-0.175299"
           id="path12238-1"
           sodipodi:nodetypes="cc" /><path
           style="fill:none;fill-opacity:1;stroke:#cb2727;stroke-width:1.32292;stroke-linecap:round;stroke-linejoin:miter;stroke-dasharray:none;stroke-opacity:1"
           d="m 107.10513,26.112631 c -2.83017,1.545678 -5.71195,5.966987 -7.915261,6.999957"
           id="path12240"
           sodipodi:nodetypes="cc" /><path
           style="fill:none;fill-opacity:1;stroke:#cb2727;stroke-width:1.32292;stroke-linecap:round;stroke-linejoin:miter;stroke-dasharray:none;stroke-opacity:1"
           d="m 111.60938,31.353578 c -6.5745,5.859354 -0.79603,1.629067 -7.76969,6.04203"
           id="path12242"
           sodipodi:nodetypes="cc" /><path
           style="fill:none;fill-opacity:1;stroke:#cb2727;stroke-width:1.32292;stroke-linecap:round;stroke-linejoin:miter;stroke-dasharray:none;stroke-opacity:1"
           d="m 111.98647,66.121026 c 7.47855,-0.861317 7.81975,0.773284 8.78107,0.793239"
           id="path12244"
           sodipodi:nodetypes="cc" /><path
           style="fill:none;fill-opacity:1;stroke:#cb2727;stroke-width:1.28201;stroke-linecap:round;stroke-linejoin:miter;stroke-dasharray:none;stroke-opacity:1"
           d="m 103.45465,80.63881 c 8.25794,5.073163 9.65184,4.795217 10.36062,6.479955"
           id="path12246"
           sodipodi:nodetypes="cc" /><path
           style="fill:none;fill-opacity:1;stroke:#cb2727;stroke-width:1.32292;stroke-linecap:round;stroke-linejoin:miter;stroke-dasharray:none;stroke-opacity:1"
           d="m 99.213356,85.944845 c 4.803704,2.779864 5.461854,5.181598 9.229124,9.472474"
           id="path12248"
           sodipodi:nodetypes="cc" /><path
           style="fill:none;fill-opacity:1;stroke:#cb2727;stroke-width:1.32292;stroke-linecap:round;stroke-linejoin:miter;stroke-dasharray:none;stroke-opacity:1"
           d="m 93.532356,91.614232 c 4.69323,4.276378 5.89178,8.0382 7.817544,11.507658 0.12078,0.21436 0.3668,0.36938 0.41439,0.61075"
           id="path12250"
           sodipodi:nodetypes="ccc" /><path
           style="fill:none;fill-opacity:1;stroke:#cb2727;stroke-width:1.32292;stroke-linecap:round;stroke-linejoin:miter;stroke-dasharray:none;stroke-opacity:1"
           d="m 20.315304,38.489089 c 0.638435,0.372045 1.301927,0.704098 1.915312,1.116129 1.705299,1.344116 3.704058,2.249043 5.516091,3.161358 0.332669,0.17311 0.708905,0.569861 1.015497,0.816307"
           id="path12252"
           sodipodi:nodetypes="cccc" /><path
           style="fill:none;fill-opacity:1;stroke:#cb2727;stroke-width:1.32292;stroke-linecap:round;stroke-linejoin:miter;stroke-dasharray:none;stroke-opacity:1"
           d="m 73.52988,106.37863 c 0.100109,0.73212 0.247164,1.45934 0.300348,2.19635 -0.0086,2.17132 0.509523,4.30333 0.906836,6.29278 0.06851,0.36871 -0.01233,0.90947 -0.01765,1.3028"
           id="path12252-61"
           sodipodi:nodetypes="cccc" /><path
           style="fill:none;fill-opacity:1;stroke:#cb2727;stroke-width:1.32292;stroke-linecap:round;stroke-linejoin:miter;stroke-dasharray:none;stroke-opacity:1"
           d="m 47.356106,100.99178 c -0.433892,0.59813 -0.83048,1.22518 -1.301653,1.7944 -1.507542,1.56269 -2.60738,3.46119 -3.695924,5.17316 -0.205445,0.31374 -0.637748,0.64851 -0.913554,0.92898"
           id="path12252-61-9"
           sodipodi:nodetypes="cccc" /><path
           style="fill:none;fill-opacity:1;stroke:#cb2727;stroke-width:1.32292;stroke-linecap:round;stroke-linejoin:miter;stroke-dasharray:none;stroke-opacity:1"
           d="m 41.545253,94.988566 c -0.452214,0.5844 -0.868039,1.198862 -1.356621,1.753206 -1.555235,1.51524 -2.713362,3.378748 -3.854422,5.056178 -0.215067,0.30722 -0.657534,0.62844 -0.941897,0.90023"
           id="path12252-61-0"
           sodipodi:nodetypes="cccc" /><path
           style="fill:none;fill-opacity:1;stroke:#cb2727;stroke-width:1.32292;stroke-linecap:round;stroke-linejoin:miter;stroke-dasharray:none;stroke-opacity:1"
           d="m 24.514872,68.528621 c -0.718829,0.171188 -1.428196,0.388612 -2.156479,0.513571 -2.161765,0.20366 -4.232928,0.927679 -6.174016,1.517551 -0.360249,0.104218 -4.349319,1.057924 -4.741286,1.09107"
           id="path12252-61-5"
           sodipodi:nodetypes="cccc" /><path
           style="fill:none;fill-opacity:1;stroke:#cb2727;stroke-width:1.32292;stroke-linecap:round;stroke-linejoin:miter;stroke-dasharray:none;stroke-opacity:1"
           d="m 111.31693,49.159936 c 0.72909,-0.120172 1.452,-0.287133 2.18727,-0.360526 2.17073,-0.051 3.16308,-0.06704 5.14088,-0.518802 0,0 2.01116,-0.07811 2.40449,-0.08358"
           id="path12252-6"
           sodipodi:nodetypes="cccc" /><path
           style="fill:none;fill-opacity:1;stroke:#cb2727;stroke-width:1.32292;stroke-linecap:round;stroke-linejoin:miter;stroke-dasharray:none;stroke-opacity:1"
           d="m 107.08139,73.391891 c 0.71033,0.203586 1.43511,0.362243 2.13099,0.610748 1.98351,0.883385 4.14345,1.268896 6.12421,1.707506 0.36502,0.08597 2.93298,1.85761 3.29077,2.021085"
           id="path12252-6-0"
           sodipodi:nodetypes="cccc" /><path
           style="fill:none;fill-opacity:1;stroke:#cb2727;stroke-width:1.32292;stroke-linecap:round;stroke-linejoin:miter;stroke-dasharray:none;stroke-opacity:1"
           d="m 88.549717,98.876412 c 1.866959,2.515328 3.014739,6.384478 3.726699,10.258898 0.0448,0.21545 0.1914,0.39629 0.2871,0.59444"
           id="path12254"
           sodipodi:nodetypes="ccc" /><path
           style="fill:none;fill-opacity:1;stroke:#cb2727;stroke-width:1.32292;stroke-linecap:round;stroke-linejoin:miter;stroke-dasharray:none;stroke-opacity:1"
           d="m 55.945186,104.47024 c -0.202851,3.12591 -1.829803,6.81924 -3.792565,10.23474 -0.105173,0.19329 -0.110319,0.42603 -0.165482,0.63906"
           id="path12254-1"
           sodipodi:nodetypes="ccc" /><path
           style="fill:none;fill-opacity:1;stroke:#cb2727;stroke-width:1.32292;stroke-linecap:round;stroke-linejoin:miter;stroke-dasharray:none;stroke-opacity:1"
           d="m 33.757131,89.960288 c -1.55382,2.719939 -4.636311,5.324929 -7.898653,7.532904 -0.179321,0.12756 -0.286063,0.33444 -0.4291,0.50166"
           id="path12254-9"
           sodipodi:nodetypes="ccc" /><path
           style="fill:none;fill-opacity:1;stroke:#cb2727;stroke-width:1.32292;stroke-linecap:round;stroke-linejoin:miter;stroke-dasharray:none;stroke-opacity:1"
           d="m 81.636342,101.84309 c -0.54362,5.08807 2.284371,8.2213 3.152746,11.13819"
           id="path12256"
           sodipodi:nodetypes="cc" /><path
           style="fill:none;fill-opacity:1;stroke:#cb2727;stroke-width:1.32292;stroke-linecap:round;stroke-linejoin:miter;stroke-dasharray:none;stroke-opacity:1"
           d="m 28.967818,82.57276 c -4.64262,2.151757 -7.843934,5.616368 -9.898315,7.861772"
           id="path12256-4"
           sodipodi:nodetypes="cc" /><path
           style="fill:none;fill-opacity:1;stroke:#cb2727;stroke-width:1.32292;stroke-linecap:round;stroke-linejoin:miter;stroke-dasharray:none;stroke-opacity:1"
           d="m 65.912932,107.63313 c -0.936289,5.41435 0.168268,3.87832 -0.360711,9.50951"
           id="path12258"
           sodipodi:nodetypes="cc" /><path
           style="fill:none;fill-opacity:1;stroke:#cb2727;stroke-width:1.32292;stroke-linecap:round;stroke-linejoin:miter;stroke-dasharray:none;stroke-opacity:1"
           d="m 26.569708,75.514142 c -5.142544,1.935476 -7.964785,4.549064 -13.087957,6.945568"
           id="path12258-9"
           sodipodi:nodetypes="cc" /><path
           style="fill:none;fill-opacity:1;stroke:#cb2727;stroke-width:1.32292;stroke-linecap:round;stroke-linejoin:miter;stroke-dasharray:none;stroke-opacity:1"
           d="M 25.824671,62.053522 C 21.853222,61.685068 14.397754,60.196763 10.76966,61.911922"
           id="path12260"
           sodipodi:nodetypes="cc" /><path
           style="fill:none;fill-opacity:1;stroke:#cb2727;stroke-width:1.32292;stroke-linecap:round;stroke-linejoin:miter;stroke-dasharray:none;stroke-opacity:1"
           d="m 27.642314,52.285836 c -5.3598,-3.246774 -9.776353,-1.845385 -14.485785,-3.011682"
           id="path12262"
           sodipodi:nodetypes="cc" /><path
           style="fill:none;fill-opacity:1;stroke:#cb2727;stroke-width:1.32292;stroke-linecap:round;stroke-linejoin:miter;stroke-dasharray:none;stroke-opacity:1"
           d="M 34.741573,36.874649 C 31.470311,33.947747 27.105327,32.061858 22.984882,29.869533"
           id="path12264"
           sodipodi:nodetypes="cc" /><path
           style="fill:none;fill-opacity:1;stroke:#cb2727;stroke-width:1.32292;stroke-linecap:round;stroke-linejoin:miter;stroke-dasharray:none;stroke-opacity:1"
           d="m 33.543473,21.936271 c 2.175845,1.343242 7.693949,8.840728 8.258696,9.180048"
           id="path12266"
           sodipodi:nodetypes="cc" /><path
           style="fill:none;fill-opacity:1;stroke:#cb2727;stroke-width:1.32292;stroke-linecap:round;stroke-linejoin:miter;stroke-dasharray:none;stroke-opacity:1"
           d="m 40.806327,15.90533 c 2.991222,2.182342 6.541894,12.151563 6.541894,12.151563"
           id="path12268"
           sodipodi:nodetypes="cc" /></g><g
         aria-label="人人有权限"
         transform="translate(2.8996793,-7.9591155)"
         id="text13474"
         style="font-weight:900;font-size:19.7556px;line-height:1.25;font-family:'Noto Serif CJK SC';-inkscape-font-specification:'Noto Serif CJK SC, Heavy';fill:#cb2727;stroke-width:0.264583"><path
           d="m 15.363757,26.349433 c 3.68206,5.235766 7.55562,10.263362 5.073748,18.724812 l 0.30963,0.09548 c 4.16681,-7.209539 2.45413,-12.193483 -0.252839,-16.667232 4.121409,5.069989 7.872664,8.078384 13.174033,7.327018 -0.643724,-1.456465 -0.545898,-2.856952 0.459982,-3.932053 L 34.007465,31.69255 c -6.710363,2.11182 -10.762728,-0.296158 -15.587103,-6.393408 0.373581,-0.361266 0.415975,-0.609114 0.277012,-0.87381 z"
           id="path13523" /><path
           d="m 37.900601,14.827113 c 1.717251,6.166187 3.684635,12.200306 -1.48618,19.34303 l 0.259814,0.193605 c 6.33955,-5.399061 6.393803,-10.668789 5.34035,-15.790542 2.186748,6.157023 4.714716,10.247468 9.961805,11.313833 -0.119111,-1.587919 0.441823,-2.874886 1.749528,-3.551306 l -0.04529,-0.233537 C 46.650461,25.846221 43.637787,22.22078 41.132447,14.86046 c 0.472952,-0.21539 0.595857,-0.434754 0.553504,-0.730695 z"
           id="path13525" /><path
           d="m 67.938646,17.899493 0.0095,2.508943 -5.768593,0.02196 -0.0096,-2.508943 z m -5.747314,5.612751 -0.0096,-2.528699 5.768593,-0.02196 0.0096,2.528699 z m 7.01653,-9.529219 -5.195685,0.01978 c 0.333436,-0.633453 0.647042,-1.286586 0.901532,-1.899983 0.513567,-0.02171 0.690689,-0.200186 0.749129,-0.417722 l -3.777654,-1.131454 c -0.252685,1.087527 -0.623602,2.254528 -1.093147,3.461415 l -5.472261,0.02083 0.160149,0.552551 5.077152,-0.01932 c -1.214161,2.809936 -3.040515,5.681471 -5.581299,7.706227 l 0.15872,0.177198 c 1.59756,-0.697532 2.977134,-1.572036 4.178382,-2.584151 l 0.03602,9.462864 0.533398,-0.002 c 1.461903,-0.0056 2.328737,-0.641047 2.328061,-0.818847 l -0.01692,-4.444977 5.768594,-0.02196 0.0066,1.738481 c 9.77e-4,0.25682 -0.07752,0.395409 -0.393606,0.396613 -0.454375,0.0017 -2.588416,-0.108683 -2.588416,-0.108683 l 9.03e-4,0.237066 c 1.067546,0.193494 1.483614,0.508002 1.821111,0.941344 0.337497,0.433341 0.438831,1.104651 0.521462,2.052612 3.120309,-0.288457 3.550944,-1.33715 3.543876,-3.194163 l -0.02933,-7.704628 c 0.454074,-0.08075 0.729899,-0.279359 0.867435,-0.47744 l -2.694637,-2.064096 -1.298221,1.486622 -5.274707,0.02008 -0.514394,-0.195599 c 0.668453,-0.852042 1.257808,-1.723538 1.768066,-2.614488 l 9.383842,-0.03572 c 0.296332,-0.0011 0.533021,-0.100807 0.571705,-0.318268 -1.070253,-0.90469 -2.872963,-2.201708 -2.872963,-2.201708 z"
           id="path13527" /><path
           d="m 83.186587,17.768225 2.671023,0.637425 c 0.269024,0.0642 0.503329,0.01856 0.592204,-0.183639 -0.551361,-0.923684 -1.568271,-2.364675 -1.568271,-2.364675 l -1.528121,1.382013 -0.03843,-0.0092 0.921744,-3.862414 c 0.556391,0.05154 0.73676,-0.108521 0.843979,-0.38759 l -3.323271,-1.138357 -1.132691,4.74635 -2.709454,-0.646597 0.02533,0.574734 2.401999,0.573224 c -1.17744,2.806186 -2.828948,5.64141 -4.836818,7.416693 l 0.141716,0.257234 c 1.311716,-0.560312 2.473418,-1.257975 3.523536,-2.08382 l -1.779287,7.455804 0.538048,0.128402 c 1.018447,0.243047 2.276007,-0.0052 2.331036,-0.235814 L 82.700494,19.80512 c 0.124897,0.923462 0.10327,2.035371 -0.188254,3.001629 1.458434,2.399394 5.027399,-0.810964 0.307484,-3.501244 z m 9.262786,-0.856351 c -0.944881,2.59765 -2.149614,5.092667 -3.698267,7.241574 C 87.871991,21.709512 87.410392,18.877765 87.434,15.714982 Z m 1.777278,-1.830312 -1.860251,1.241821 -6.552653,-1.563755 0.04454,0.57932 1.268255,0.302662 c -0.521048,4.140831 -0.555795,7.605611 0.0073,10.52252 -1.794749,1.988627 -3.977308,3.559738 -6.592442,4.56048 l 0.112455,0.20963 c 2.871052,-0.370978 5.185935,-1.219959 7.099249,-2.428807 0.608566,1.790371 1.516511,3.347531 2.753095,4.719084 0.773018,-1.196628 1.949349,-1.87049 3.056673,-1.829647 l 0.127307,-0.193033 c -1.492945,-1.148387 -2.764248,-2.629778 -3.741631,-4.406613 2.481287,-2.312236 4.097204,-5.338748 5.370945,-8.548469 0.517959,0.04237 0.747678,0.01595 0.941805,-0.201761 z"
           id="path13529" /><path
           d="m 107.24376,30.196203 1.07295,0.548655 c -0.72633,2.158091 -1.12307,4.018759 -1.15584,5.688341 -0.93423,-0.255835 -1.85947,-0.52926 -2.70536,-0.784297 z m 6.46382,-4.482925 -1.2682,2.480099 -3.3068,-1.690938 1.2682,-2.480099 z m -4.82684,1.281663 3.30679,1.690938 -1.38513,2.70876 -3.30679,-1.690938 z m 1.66982,4.8922 -0.37776,0.738753 0.42214,0.215864 c 0.0704,0.03598 0.15831,0.08095 0.23766,0.09934 -0.58684,0.409955 -1.4665,0.958628 -2.24762,1.357992 -0.1757,-1.088335 -0.18291,-2.245829 0.0132,-3.41032 z m -11.300922,-1.89574 4.749022,-9.287179 1.09054,0.55765 c -0.84268,1.344188 -2.22961,3.275423 -3.07849,4.327988 0.26905,1.513275 -0.12449,3.020559 -0.73611,4.216635 -0.24285,0.474913 -0.50089,0.675793 -0.78391,0.708575 -0.13252,-0.0012 -0.23846,-0.01099 -0.39676,-0.09194 z m 12.155612,3.131579 c 0.74935,0.183481 1.51788,0.199264 1.58084,0.07614 l 2.98612,-5.839666 c 0.41435,0.100935 0.69738,0.06815 0.87487,-0.0186 l -1.34381,-2.839456 -1.71974,0.629432 -2.90225,-1.484068 -2.09914,-2.360342 -0.7915,1.547864 -1.00921,-2.712736 -1.81629,0.557876 -0.68598,-0.35078 -2.06476,-2.254006 -8.337767,16.30533 0.422145,0.215865 c 1.196076,0.611616 2.187469,0.408531 2.277413,0.232637 l 2.35652,-4.60841 c 0.253648,0.285023 0.374777,0.568849 0.381375,0.816298 0.01399,0.406552 -0.419331,1.427533 -0.761117,2.095929 2.190071,1.09771 3.522451,0.314576 4.421891,-1.44436 0.75552,-1.477506 0.80287,-3.7831 -0.70642,-5.908389 1.59582,-0.604047 3.59439,-1.778748 4.81184,-2.554087 0.1583,0.08095 0.30801,0.135315 0.42254,0.171692 l -5.4056,10.571201 c -0.25185,0.492502 -0.4829,0.640614 -1.41054,0.632227 l -0.12649,3.241424 c 0.3268,0.01179 0.76073,-0.09915 1.18767,-0.413358 2.26382,-0.218088 4.20203,-0.580485 5.22001,-0.792165 -0.007,1.793506 0.43796,3.352551 1.36961,4.871816 0.86646,-1.043571 1.96579,-1.457729 2.936,-1.272251 l 0.13411,-0.175494 c -1.40156,-1.337971 -2.40196,-3.069906 -2.87029,-5.017913 1.27782,0.364966 2.63659,0.571627 3.35196,0.604601 0.29782,0.285423 0.55306,0.393754 0.77513,0.263232 z"
           id="path13531" /></g><g
         aria-label="人人皆 root"
         transform="translate(-0.9537805,-3.580745)"
         id="text13584"
         style="font-weight:900;font-size:19.7556px;line-height:1.25;font-family:'Noto Serif CJK SC';-inkscape-font-specification:'Noto Serif CJK SC, Heavy';fill:#cb2727;stroke-width:0.264583"><path
           d="m 32.823155,110.62496 c -3.286236,5.49286 -6.30442,11.07602 -15.043969,12.2491 l 0.03867,0.3217 c 8.280916,0.87533 12.137859,-2.71591 15.124397,-7.00808 -2.956137,5.82684 -4.179308,10.47724 -1.337263,15.01507 1.068883,-1.18033 2.388147,-1.66041 3.779362,-1.17858 l 0.138068,-0.19372 c -4.657871,-5.27191 -4.105676,-9.95327 -0.496867,-16.84003 0.481956,0.19441 0.725628,0.13236 0.910951,-0.10223 z"
           id="path13598" /><path
           d="m 46.389283,116.91952 c -1.599506,6.19778 -2.916363,12.4064 -10.96787,16.00211 l 0.12803,0.29765 c 8.190615,-1.5012 10.875095,-6.03624 12.526533,-10.99757 -1.188461,6.42482 -1.047186,11.23132 2.961684,14.78069 0.691639,-1.43434 1.82139,-2.26776 3.292066,-2.19885 l 0.07768,-0.22485 c -5.958146,-3.74022 -6.751783,-8.38674 -5.236886,-16.01276 0.517254,0.0502 0.733449,-0.0781 0.844902,-0.35556 z"
           id="path13600" /><path
           d="m 61.169574,135.90723 0.03025,-2.52854 6.716423,0.0803 -0.03025,2.52854 z m 6.781641,-5.37182 -0.02836,2.37051 -6.716424,-0.0803 0.02836,-2.37051 z m -0.190925,-0.55548 -4.128625,-0.0494 c 0.676132,-0.3673 1.491961,-0.85146 2.049095,-1.18067 0.454583,-0.0143 0.752786,-0.16881 0.836056,-0.52344 l -3.902822,-0.75793 c -0.127269,0.72948 -0.336862,1.73458 -0.503402,2.44384 l -0.71115,-0.008 -2.300607,-0.91659 c 2.505568,-1.35302 4.456838,-2.61388 5.532543,-3.35178 l -0.03691,-0.21777 c -1.525089,0.31763 -3.050179,0.63525 -4.357027,0.87646 l 0.03568,-2.98288 4.029854,0.0482 c 0.296313,0.004 0.51479,-0.0926 0.576652,-0.30921 -0.85926,-0.84007 -2.325937,-2.10231 -2.325937,-2.10231 l -1.325752,1.82154 -0.948201,-0.0113 0.03143,-2.62731 c 0.514554,-0.0729 0.694704,-0.26828 0.737757,-0.56412 l -3.47272,-0.37741 -0.07821,6.53863 c -0.0054,0.45435 -0.126559,0.67023 -0.922634,1.15463 l 1.706232,2.70736 c 0.05974,-0.0388 0.09972,-0.0778 0.159452,-0.11663 l -0.101608,8.4943 0.414838,0.005 c 1.165497,0.0139 2.397818,-0.60354 2.401126,-0.8801 l 0.0076,-0.63213 6.716423,0.0803 -0.01701,1.4223 0.493854,0.006 c 0.928447,0.0111 2.356656,-0.46574 2.378301,-0.62354 l 0.07561,-6.32134 c 0.415783,-0.074 0.655196,-0.26876 0.775611,-0.42537 l -2.564405,-1.98662 z m 5.112932,-6.26108 -0.197542,-0.002 c -0.386435,0.92395 -0.750281,1.6111 -0.990639,1.88482 -0.159924,0.15614 -0.338421,0.21328 -0.595225,0.21021 -0.237287,0.0169 -0.731141,0.011 -1.185488,0.006 l -1.56058,-0.0187 c -0.513609,-0.006 -0.611199,-0.1061 -0.607891,-0.38266 l 0.01465,-1.22476 c 1.744276,-0.47306 3.312654,-1.10628 4.40646,-1.70566 0.670224,0.12656 1.007463,0.0121 1.18785,-0.20312 l -3.079904,-1.83473 c -0.52377,0.84329 -1.485912,1.99744 -2.504954,2.95334 l 0.03899,-3.25944 c 0.435301,-0.0541 0.615451,-0.24948 0.638277,-0.50604 l -3.394412,-0.3172 -0.0794,6.6374 c -0.02103,1.75812 0.467153,2.23813 2.679622,2.2646 l 1.896402,0.0227 c 3.239686,0.0387 4.271866,-0.3638 4.285335,-1.48978 0.0057,-0.4741 -0.188326,-0.77278 -0.895932,-1.0776 z"
           id="path13602" /><path
           d="m 81.929952,123.57329 -0.310054,-0.13925 -3.958115,2.06408 0.09333,0.46486 1.483792,-0.13669 c 0.225391,0.92194 0.373084,1.55723 0.625843,2.81623 l 0.322754,1.60763 c 0.217762,1.08467 0.532812,2.7543 0.738982,3.8816 l -1.289879,0.40001 0.120546,0.60044 6.294962,-1.26379 -0.120547,-0.60045 -1.816956,0.18343 c -0.248796,-1.13889 -0.594808,-2.762 -0.808681,-3.8273 l -0.322754,-1.60764 c 0.08026,-1.5072 0.377905,-2.4334 1.008792,-3.3056 l 0.220985,0.19743 c 0.662956,0.5923 1.221141,0.96383 1.957167,0.81607 0.968456,-0.19443 1.21196,-0.98886 1.118338,-1.85666 -0.427008,-1.12326 -1.275656,-1.33573 -2.186004,-1.15296 -1.162147,0.23331 -2.277039,1.50493 -2.461475,3.59724 z"
           id="path13604" /><path
           d="m 94.911526,131.75711 c 3.190081,-1.05004 4.625165,-3.89342 3.519534,-7.25238 -1.105632,-3.35897 -4.13713,-4.60734 -7.102028,-3.63142 -2.946133,0.96974 -4.631107,3.81218 -3.537829,7.13361 1.087102,3.30268 3.911478,4.80641 7.120323,3.75019 z m -0.216185,-0.65678 c -1.351093,0.44472 -2.60819,-0.84695 -3.682939,-4.11209 -1.080925,-3.28391 -0.818278,-5.01343 0.532815,-5.45815 1.351093,-0.44472 2.570895,0.79683 3.65182,4.08074 1.074748,3.26514 0.849397,5.04478 -0.501696,5.4895 z"
           id="path13606" /><path
           d="m 106.72459,126.93232 c 3.0056,-1.49851 4.01624,-4.51891 2.4384,-7.68364 -1.57785,-3.16473 -4.75752,-3.96351 -7.55097,-2.57078 -2.775765,1.38392 -4.033825,4.43939 -2.473611,7.56875 1.551401,3.11169 4.562891,4.193 7.586181,2.68567 z m -0.30852,-0.6188 c -1.27296,0.63467 -2.70298,-0.46251 -4.23675,-3.53883 -1.54258,-3.09401 -1.53175,-4.84332 -0.25878,-5.47798 1.27296,-0.63467 2.65885,0.41828 4.20143,3.51229 1.53377,3.07632 1.56706,4.86986 0.2941,5.50452 z"
           id="path13608" /><path
           d="m 117.63281,118.03896 c -0.18148,0.64791 -0.34873,0.99983 -0.75762,1.27684 -0.65424,0.44321 -1.33433,0.35511 -1.93267,-0.5281 l -4.18833,-6.18249 2.02812,-1.37395 -0.45429,-0.67058 -2.02812,1.37395 -1.75121,-2.65544 -1.68465,1.14126 0.92234,3.1931 -1.34486,1.1497 0.35457,0.52339 1.32482,-0.8975 2.83654,4.18708 c 0.46537,0.68694 0.77034,1.17234 1.19139,1.79386 1.21356,1.82657 2.62282,1.96952 4.29111,0.83934 1.25939,-0.85318 1.75585,-1.88151 1.64819,-3.09713 z"
           id="path13610" /></g></g></g></svg>
