<?xml version="1.0" encoding="UTF-8" standalone="no"?>
<!-- Created with Inkscape (http://www.inkscape.org/) -->

<svg
   xmlns:dc="http://purl.org/dc/elements/1.1/"
   xmlns:cc="http://creativecommons.org/ns#"
   xmlns:rdf="http://www.w3.org/1999/02/22-rdf-syntax-ns#"
   xmlns:svg="http://www.w3.org/2000/svg"
   xmlns="http://www.w3.org/2000/svg"
   xmlns:sodipodi="http://sodipodi.sourceforge.net/DTD/sodipodi-0.dtd"
   xmlns:inkscape="http://www.inkscape.org/namespaces/inkscape"
   width="400"
   height="300"
   viewBox="0 0 105.83333 79.375002"
   version="1.1"
   id="svg831"
   inkscape:version="0.92.4 (5da689c313, 2019-01-14)"
   sodipodi:docname="infra.svg">
  <defs
     id="defs825">
    <circle
       style="fill:none;fill-opacity:1;stroke:#ff3333;stroke-width:0.20761853;stroke-linecap:round;stroke-linejoin:miter;stroke-miterlimit:4;stroke-dasharray:none;stroke-dashoffset:0;stroke-opacity:1"
       id="path1385-1-1-7"
       cx="70.346619"
       cy="161.12851"
       r="8.4951487"
       transform="rotate(5.9999998)" />
    <circle
       style="fill:none;fill-opacity:1;stroke:#ff3333;stroke-width:0.20761853;stroke-linecap:round;stroke-linejoin:miter;stroke-miterlimit:4;stroke-dasharray:none;stroke-dashoffset:0;stroke-opacity:1"
       id="path1385-1-4"
       cx="-112.6673"
       cy="-214.98691"
       r="8.4951487"
       transform="rotate(-165)" />
  </defs>
  <sodipodi:namedview
     id="base"
     pagecolor="#ffffff"
     bordercolor="#666666"
     borderopacity="1.0"
     inkscape:pageopacity="0.0"
     inkscape:pageshadow="2"
     inkscape:zoom="1.979899"
     inkscape:cx="113.31463"
     inkscape:cy="174.44137"
     inkscape:document-units="mm"
     inkscape:current-layer="layer1"
     showgrid="false"
     units="px"
     inkscape:window-width="1920"
     inkscape:window-height="1027"
     inkscape:window-x="-8"
     inkscape:window-y="22"
     inkscape:window-maximized="1"
     showguides="true"
     inkscape:guide-bbox="true" />
  <metadata
     id="metadata828">
    <rdf:RDF>
      <cc:Work
         rdf:about="">
        <dc:format>image/svg+xml</dc:format>
        <dc:type
           rdf:resource="http://purl.org/dc/dcmitype/StillImage" />
        <dc:title></dc:title>
      </cc:Work>
    </rdf:RDF>
  </metadata>
  <g
     inkscape:label="Layer 1"
     inkscape:groupmode="layer"
     id="layer1"
     transform="translate(0,-217.62498)">
    <rect
       style="fill:#333333;fill-opacity:1;stroke:#f9f9f9;stroke-width:2.61315346;stroke-linecap:round;stroke-linejoin:miter;stroke-miterlimit:4;stroke-dasharray:none;stroke-dashoffset:0;stroke-opacity:1"
       id="rect1379"
       width="103.22018"
       height="76.761848"
       x="1.3065783"
       y="218.93155" />
    <circle
       style="fill:none;fill-opacity:1;stroke:none;stroke-width:0.98559767;stroke-linecap:round;stroke-linejoin:miter;stroke-miterlimit:4;stroke-dasharray:none;stroke-dashoffset:0;stroke-opacity:1"
       id="path1381-3"
       cx="96.096825"
       cy="203.17497"
       r="8.6522541" />
    <text
       xml:space="preserve"
       style="font-style:normal;font-variant:normal;font-weight:normal;font-stretch:normal;font-size:2.59291673px;line-height:1.25;font-family:'Noto Sans';-inkscape-font-specification:'Noto Sans, Normal';font-variant-ligatures:normal;font-variant-caps:normal;font-variant-numeric:normal;font-feature-settings:normal;text-align:start;letter-spacing:0px;word-spacing:0px;writing-mode:lr-tb;text-anchor:start;fill:#333333;fill-opacity:1;stroke:none;stroke-width:0.26458332"
       id="text1454"
       transform="matrix(-0.99999562,0.00295827,0.00295827,0.99999562,105.79828,-0.15618504)"
       x="42.677167"
       y="-44.415403"><tspan
   id="tspan1452"
   style="font-style:normal;font-variant:normal;font-weight:normal;font-stretch:normal;font-size:2.59291673px;font-family:'Noto Sans';-inkscape-font-specification:'Noto Sans, Normal';font-variant-ligatures:normal;font-variant-caps:normal;font-variant-numeric:normal;font-feature-settings:normal;text-align:start;writing-mode:lr-tb;text-anchor:start;fill:#333333;fill-opacity:1;stroke-width:0.26458332">FOR ALL PACKAGERS</tspan></text>
    <text
       xml:space="preserve"
       style="font-style:normal;font-variant:normal;font-weight:normal;font-stretch:normal;font-size:2.59291673px;line-height:1.25;font-family:'Noto Sans';-inkscape-font-specification:'Noto Sans, Normal';font-variant-ligatures:normal;font-variant-caps:normal;font-variant-numeric:normal;font-feature-settings:normal;text-align:start;letter-spacing:0px;word-spacing:0px;writing-mode:lr-tb;text-anchor:start;fill:#333333;fill-opacity:1;stroke:none;stroke-width:0.26458332"
       id="text1454-6"
       transform="matrix(-1,0,0,1,103.80317,26.511095)"
       x="40.43504"
       y="-22.557549"><tspan
   id="tspan1452-8"
   style="font-style:normal;font-variant:normal;font-weight:normal;font-stretch:normal;font-size:2.59291673px;font-family:'Noto Sans';-inkscape-font-specification:'Noto Sans, Normal';font-variant-ligatures:normal;font-variant-caps:normal;font-variant-numeric:normal;font-feature-settings:normal;text-align:start;writing-mode:lr-tb;text-anchor:start;fill:#333333;fill-opacity:1;stroke-width:0.26458332">FOR ALL PACKAGERS</tspan></text>
    <g
       id="g1875"
       transform="translate(4.8337797e-8,4.0221343)">
      <g
         transform="translate(-0.26889948,-1.5199297)"
         id="g1810">
        <circle
           style="fill:#333333;fill-opacity:1;stroke:#f9f9f9;stroke-width:4.06045389;stroke-linecap:round;stroke-linejoin:miter;stroke-miterlimit:4;stroke-dasharray:none;stroke-dashoffset:0;stroke-opacity:1"
           id="path1381"
           cx="53.185566"
           cy="236.82185"
           r="9.8760233" />
        <circle
           style="fill:none;fill-opacity:1;stroke:#333333;stroke-width:0.28108361;stroke-linecap:round;stroke-linejoin:miter;stroke-miterlimit:4;stroke-dasharray:none;stroke-dashoffset:0;stroke-opacity:1"
           id="path1385"
           cx="-15.748253"
           cy="242.20918"
           r="11.501125"
           transform="rotate(-16.377594)" />
        <circle
           style="fill:none;fill-opacity:1;stroke:#f9f9f9;stroke-width:0.18206552;stroke-linecap:round;stroke-linejoin:miter;stroke-miterlimit:4;stroke-dasharray:none;stroke-dashoffset:0;stroke-opacity:1"
           id="path1385-9"
           cx="53.185566"
           cy="236.82185"
           r="7.4495921" />
        <g
           aria-label="AOSC INFRA TEAM"
           style="font-style:normal;font-variant:normal;font-weight:normal;font-stretch:normal;font-size:2.59291673px;line-height:1.25;font-family:'Noto Sans';-inkscape-font-specification:'Noto Sans, Normal';font-variant-ligatures:normal;font-variant-caps:normal;font-variant-numeric:normal;font-feature-settings:normal;text-align:start;letter-spacing:0px;word-spacing:0px;writing-mode:lr-tb;text-anchor:start;fill:#333333;fill-opacity:1;stroke:none;stroke-width:0.26985002"
           id="text1406">
          <path
             inkscape:connector-curvature="0"
             d="m 45.435778,233.28614 -0.614816,0.01 -0.255283,0.68796 0.460565,0.40598 -0.08209,0.22122 -1.491316,-1.32501 0.07307,-0.19691 1.993762,-0.029 z m -0.833648,0.003 -0.597249,-3.7e-4 q -0.02215,8e-5 -0.07952,-0.002 -0.05736,-0.002 -0.11716,-0.005 -0.06132,-0.006 -0.0941,-0.007 0.06814,0.0474 0.132953,0.0964 0.06328,0.0456 0.0992,0.0755 l 0.452018,0.39175 z"
             id="path1681" />
          <path
             inkscape:connector-curvature="0"
             d="m 45.710459,231.01669 q 0.242354,0.15524 0.370427,0.3543 0.127288,0.19547 0.124226,0.42137 -0.0017,0.22372 -0.151315,0.45734 -0.155245,0.24236 -0.359177,0.33959 -0.202534,0.095 -0.434104,0.0576 -0.231569,-0.0375 -0.473924,-0.19273 -0.237987,-0.15245 -0.366674,-0.34574 -0.13087,-0.19468 -0.129206,-0.4184 0.0031,-0.22591 0.159706,-0.47045 0.149651,-0.23362 0.352185,-0.32867 0.20035,-0.0965 0.433318,-0.0611 0.232184,0.0317 0.474538,0.18697 z m -0.788815,1.23142 q 0.294755,0.18881 0.544778,0.17345 0.247841,-0.0168 0.417072,-0.28095 0.169232,-0.26418 0.07944,-0.49415 -0.09058,-0.23354 -0.385338,-0.42235 -0.294755,-0.18881 -0.539013,-0.17284 -0.246442,0.0146 -0.415674,0.27876 -0.17063,0.26637 -0.08223,0.49852 0.08622,0.23075 0.380971,0.41956 z"
             id="path1683" />
          <path
             inkscape:connector-curvature="0"
             d="m 47.161182,230.12101 q 0.176191,0.17215 0.149457,0.39616 -0.02674,0.22401 -0.238744,0.441 -0.108723,0.11128 -0.217829,0.18956 -0.109106,0.0783 -0.200389,0.11234 l -0.1595,-0.15583 q 0.09491,-0.0378 0.215056,-0.11252 0.121961,-0.0766 0.225248,-0.18231 0.143151,-0.14652 0.159951,-0.27873 0.0168,-0.13221 -0.0815,-0.22825 -0.06491,-0.0634 -0.136605,-0.0791 -0.07169,-0.0157 -0.175831,0.0167 -0.104138,0.0324 -0.26462,0.10759 -0.227912,0.11083 -0.400289,0.10917 -0.172377,-0.002 -0.326313,-0.15207 -0.10386,-0.10147 -0.127351,-0.22955 -0.02349,-0.12808 0.02812,-0.26253 0.05161,-0.13445 0.174831,-0.26057 0.105099,-0.10757 0.21429,-0.17851 0.109191,-0.071 0.216869,-0.11437 l 0.09207,0.19145 q -0.09672,0.0396 -0.196851,0.1013 -0.100131,0.0617 -0.183485,0.14699 -0.121406,0.12426 -0.129231,0.23987 -0.0097,0.11379 0.07749,0.19896 0.06677,0.0652 0.138459,0.0809 0.07169,0.0157 0.170395,-0.0111 0.09685,-0.0286 0.240894,-0.0982 0.156816,-0.0752 0.284809,-0.10599 0.127951,-0.0345 0.236437,-0.008 0.110299,0.0244 0.21416,0.12586 z"
             id="path1685" />
          <path
             inkscape:connector-curvature="0"
             d="m 47.481795,228.40164 q -0.243199,0.17254 -0.26725,0.4344 -0.02405,0.26186 0.176992,0.54524 0.199542,0.28126 0.445567,0.35469 0.246641,0.0698 0.506758,-0.11472 0.09728,-0.069 0.174098,-0.14894 0.07682,-0.0799 0.14552,-0.16682 l 0.117024,0.16495 q -0.06209,0.0917 -0.142519,0.17105 -0.07832,0.0778 -0.20309,0.16634 -0.230511,0.16353 -0.452403,0.17789 -0.221893,0.0144 -0.424666,-0.10566 -0.200658,-0.12151 -0.368693,-0.35837 -0.162034,-0.22839 -0.202584,-0.46032 -0.03993,-0.23554 0.05389,-0.44834 0.09232,-0.21492 0.324948,-0.37995 0.23897,-0.16954 0.479624,-0.20675 l 0.03789,0.21474 q -0.09229,0.0178 -0.197002,0.0539 -0.102595,0.0346 -0.204104,0.10665 z"
             id="path1687" />
          <path
             inkscape:connector-curvature="0"
             d="m 50.26417,228.83717 -0.618603,0.25466 -0.05133,-0.12468 0.182651,-0.12847 -0.563622,-1.36907 -0.221147,0.035 -0.05133,-0.12468 0.618603,-0.25467 0.05133,0.12468 -0.181664,0.13087 0.563622,1.36908 0.22016,-0.0374 z"
             id="path1689" />
          <path
             inkscape:connector-curvature="0"
             d="m 52.030599,228.37133 -0.265529,0.0601 -1.305716,-1.28078 -0.01012,0.002 q 0.02511,0.0874 0.06248,0.21715 0.03738,0.12978 0.06888,0.26887 l 0.228565,1.00901 -0.209894,0.0475 -0.409011,-1.80559 0.263,-0.0596 1.302041,1.2763 0.01012,-0.002 q -0.01169,-0.0399 -0.03508,-0.11966 -0.02086,-0.0804 -0.04711,-0.17277 -0.0243,-0.0955 -0.0432,-0.17898 l -0.230856,-1.01912 0.212423,-0.0481 z"
             id="path1691" />
          <path
             inkscape:connector-curvature="0"
             d="m 52.769061,228.33252 -0.233281,0.006 -0.04889,-1.8507 1.034213,-0.0273 0.0054,0.20477 -0.800932,0.0212 0.01732,0.65578 0.751683,-0.0199 0.0054,0.20477 -0.751684,0.0199 z"
             id="path1693" />
          <path
             inkscape:connector-curvature="0"
             d="m 54.662868,226.58046 q 0.341073,0.051 0.483098,0.20587 0.144971,0.15274 0.105897,0.41431 -0.02184,0.14618 -0.09025,0.23558 -0.06841,0.0894 -0.161848,0.13575 -0.09087,0.0467 -0.187791,0.0637 l 0.38005,0.89571 -0.269269,-0.0402 -0.330644,-0.82279 -0.364154,-0.0544 -0.113008,0.75651 -0.230801,-0.0345 0.273517,-1.83103 z m -0.0427,0.19811 -0.261575,-0.0391 -0.101515,0.67958 0.274397,0.041 q 0.223109,0.0333 0.338712,-0.0385 0.115986,-0.0744 0.141652,-0.24626 0.02681,-0.17951 -0.06978,-0.26997 -0.09622,-0.093 -0.321888,-0.12673 z"
             id="path1695" />
          <path
             inkscape:connector-curvature="0"
             d="m 56.566509,229.00556 -0.01996,-0.61457 -0.692121,-0.24377 -0.398247,0.46727 -0.222555,-0.0784 1.299953,-1.51321 0.198098,0.0698 0.06228,1.993 z m -0.01708,-0.83348 -0.0096,-0.59717 q -4.46e-4,-0.0221 5.24e-4,-0.0795 9.69e-4,-0.0574 0.0028,-0.11722 0.0051,-0.0614 0.0057,-0.0942 -0.04627,0.0689 -0.09412,0.13455 -0.04455,0.064 -0.07386,0.10044 l -0.384158,0.45849 z"
             id="path1697" />
          <path
             inkscape:connector-curvature="0"
             d="m 58.087229,229.87967 -0.192452,-0.13199 0.931226,-1.35786 -0.476855,-0.32703 0.115853,-0.16893 1.144025,0.78458 -0.115854,0.16893 -0.474716,-0.32556 z"
             id="path1699" />
          <path
             inkscape:connector-curvature="0"
             d="m 59.511104,231.12174 -0.74138,-0.7216 1.291275,-1.32668 0.74138,0.7216 -0.142872,0.14679 -0.574151,-0.55883 -0.403298,0.41435 0.540706,0.52628 -0.141064,0.14493 -0.540706,-0.52628 -0.461169,0.47382 0.574151,0.55883 z"
             id="path1701" />
          <path
             inkscape:connector-curvature="0"
             d="m 60.451215,232.38128 0.338434,-0.51338 -0.424477,-0.59856 -0.594921,0.15171 -0.136492,-0.19247 1.934972,-0.48535 0.121493,0.17132 -1.099517,1.66343 z m 0.46714,-0.69048 0.336859,-0.49318 q 0.01242,-0.0183 0.04634,-0.0647 0.03392,-0.0463 0.06995,-0.0941 0.03965,-0.0472 0.05903,-0.0736 -0.07757,0.0296 -0.154517,0.0555 -0.07334,0.0266 -0.118291,0.0394 l -0.578345,0.15266 z"
             id="path1703" />
          <path
             inkscape:connector-curvature="0"
             d="m 61.030411,233.55928 1.278739,-1.1708 -0.0039,-0.01 q -0.07168,0.0372 -0.19725,0.0933 -0.123167,0.0551 -0.260297,0.11023 l -1.041705,0.41878 -0.08028,-0.19968 1.717731,-0.69055 0.128633,0.31996 -1.194608,1.09507 0.0039,0.01 1.624031,-0.0269 0.127665,0.31756 -1.717731,0.69056 -0.08608,-0.21412 1.05614,-0.42458 q 0.125101,-0.0503 0.249731,-0.0948 0.125596,-0.0421 0.204516,-0.0682 l -0.0039,-0.01 -1.733802,0.0319 z"
             id="path1705" />
        </g>
        <circle
           r="0.82785374"
           cy="236.79123"
           cx="53.528854"
           id="circle8306"
           style="color:#000000;display:inline;overflow:visible;visibility:visible;opacity:1;fill:#f9f9f9;fill-opacity:1;fill-rule:nonzero;stroke:#ffffff;stroke-width:0.0147575;stroke-linejoin:miter;stroke-miterlimit:4;stroke-dasharray:none;stroke-dashoffset:0;stroke-opacity:1;marker:none;enable-background:accumulate" />
        <path
           style="color:#000000;display:inline;overflow:visible;visibility:visible;opacity:1;fill:#f9f9f9;fill-opacity:1;fill-rule:nonzero;stroke:none;stroke-width:0.07275295;stroke-linejoin:miter;stroke-miterlimit:4;stroke-dasharray:none;stroke-dashoffset:0;stroke-opacity:1;marker:none;enable-background:accumulate"
           d="m 53.373314,231.07307 a 5.721314,5.721314 0 0 0 -5.721301,5.7213 5.721314,5.721314 0 0 0 5.721301,5.7213 v -2.79432 a 2.9379039,2.9379039 0 0 1 -2.782357,-2.93012 2.9379039,2.9379039 0 0 1 2.782357,-2.93239 z"
           id="circle8373"
           inkscape:connector-curvature="0" />
        <path
           style="color:#000000;display:inline;overflow:visible;visibility:visible;opacity:1;fill:#f9f9f9;fill-opacity:1;fill-rule:nonzero;stroke:none;stroke-width:0.07275295;stroke-linejoin:miter;stroke-miterlimit:4;stroke-dasharray:none;stroke-dashoffset:0;stroke-opacity:1;marker:none;enable-background:accumulate"
           d="m 53.38749,234.39783 a 2.3899546,2.3899546 0 0 0 -2.389932,2.38996 2.3899546,2.3899546 0 0 0 2.389932,2.38993 v -1.13723 a 1.2579309,1.2579309 0 0 1 -1.116568,-1.24926 1.2579309,1.2579309 0 0 1 1.116568,-1.24842 z"
           id="path8382"
           inkscape:connector-curvature="0" />
        <path
           style="color:#000000;display:inline;overflow:visible;visibility:visible;opacity:1;fill:#f9f9f9;fill-opacity:1;fill-rule:nonzero;stroke:none;stroke-width:0.07275295;stroke-linejoin:miter;stroke-miterlimit:4;stroke-dasharray:none;stroke-dashoffset:0;stroke-opacity:1;marker:none;enable-background:accumulate"
           d="m 53.64474,231.89402 v 2.46326 a 2.4397645,2.4397645 0 0 1 2.32387,2.43395 2.4397645,2.4397645 0 0 1 -2.32387,2.43566 v 2.46317 a 4.898026,4.898026 0 0 0 4.898021,-4.89802 4.898026,4.898026 0 0 0 -4.898021,-4.89802 z"
           id="path8387"
           inkscape:connector-curvature="0" />
        <g
           aria-label="FOR ALL PACKAGERS"
           style="font-style:normal;font-variant:normal;font-weight:normal;font-stretch:normal;font-size:2.59291673px;line-height:1.25;font-family:'Noto Sans';-inkscape-font-specification:'Noto Sans, Normal';font-variant-ligatures:normal;font-variant-caps:normal;font-variant-numeric:normal;font-feature-settings:normal;text-align:start;letter-spacing:0.26458332px;word-spacing:0px;writing-mode:lr-tb;text-anchor:start;fill:#333333;fill-opacity:1;stroke:none;stroke-width:0.26458332"
           id="text1550">
          <path
             inkscape:connector-curvature="0"
             d="m 42.893603,239.30814 -0.05864,-0.22587 1.791948,-0.46518 0.259953,1.00138 -0.198269,0.0515 -0.201317,-0.77551 -0.634962,0.16483 0.188939,0.72783 -0.198269,0.0515 -0.188938,-0.72783 z"
             style="font-style:normal;font-variant:normal;font-weight:normal;font-stretch:normal;font-size:2.59291673px;font-family:'Noto Sans';-inkscape-font-specification:'Noto Sans, Normal';font-variant-ligatures:normal;font-variant-caps:normal;font-variant-numeric:normal;font-feature-settings:normal;text-align:start;letter-spacing:0.26458332px;writing-mode:lr-tb;text-anchor:start;fill:#333333;fill-opacity:1;stroke-width:0.26458332"
             id="path1708" />
          <path
             inkscape:connector-curvature="0"
             d="m 44.804519,241.70275 q -0.260594,0.12218 -0.497279,0.12433 -0.233237,0.003 -0.422684,-0.1197 -0.188346,-0.12075 -0.306123,-0.37195 -0.12218,-0.26059 -0.09564,-0.48495 0.02764,-0.22202 0.182873,-0.39789 0.155232,-0.17588 0.415825,-0.29806 0.255898,-0.11998 0.488034,-0.12572 0.234484,-0.007 0.42283,0.1139 0.189447,0.1231 0.312728,0.38604 0.117777,0.2512 0.09014,0.47322 -0.02529,0.22091 -0.179424,0.39913 -0.150683,0.17947 -0.411276,0.30165 z m -0.620807,-1.32409 q -0.316938,0.1486 -0.437316,0.36827 -0.118031,0.21858 0.01516,0.50265 0.133188,0.28407 0.3756,0.33078 0.24586,0.048 0.562798,-0.10064 0.316938,-0.14859 0.433722,-0.36372 0.119131,-0.21622 -0.01406,-0.50029 -0.134288,-0.28642 -0.377801,-0.33548 -0.241165,-0.0502 -0.558103,0.0984 z"
             style="font-style:normal;font-variant:normal;font-weight:normal;font-stretch:normal;font-size:2.59291673px;font-family:'Noto Sans';-inkscape-font-specification:'Noto Sans, Normal';font-variant-ligatures:normal;font-variant-caps:normal;font-variant-numeric:normal;font-feature-settings:normal;text-align:start;letter-spacing:0.26458332px;writing-mode:lr-tb;text-anchor:start;fill:#333333;fill-opacity:1;stroke-width:0.26458332"
             id="path1710" />
          <path
             inkscape:connector-curvature="0"
             d="m 46.1294,241.97477 q 0.204968,0.27734 0.195711,0.4873 -0.0056,0.21051 -0.218324,0.36771 -0.118858,0.0878 -0.23046,0.10261 -0.111602,0.0148 -0.210419,-0.0186 -0.09728,-0.0313 -0.177779,-0.0879 l -0.365216,0.90186 -0.161817,-0.21895 0.348531,-0.81537 -0.218838,-0.2961 -0.615143,0.45463 -0.1387,-0.18768 1.488856,-1.10035 z m -0.170353,0.10978 -0.157194,-0.21269 -0.552586,0.40839 0.164899,0.22312 q 0.134077,0.18142 0.266619,0.21243 0.134628,0.0295 0.274338,-0.0738 0.145966,-0.10788 0.141711,-0.24015 -0.0022,-0.13382 -0.137787,-0.31732 z"
             style="font-style:normal;font-variant:normal;font-weight:normal;font-stretch:normal;font-size:2.59291673px;font-family:'Noto Sans';-inkscape-font-specification:'Noto Sans, Normal';font-variant-ligatures:normal;font-variant-caps:normal;font-variant-numeric:normal;font-feature-settings:normal;text-align:start;letter-spacing:0.26458332px;writing-mode:lr-tb;text-anchor:start;fill:#333333;fill-opacity:1;stroke-width:0.26458332"
             id="path1712" />
          <path
             inkscape:connector-curvature="0"
             d="m 47.095326,245.50033 0.179124,-0.58822 -0.576663,-0.45378 -0.527567,0.31403 -0.185429,-0.14591 1.718192,-1.01365 0.165052,0.12988 -0.583205,1.90678 z m 0.252383,-0.79453 0.183333,-0.56841 q 0.0067,-0.0211 0.02612,-0.0751 0.01941,-0.054 0.04042,-0.11007 0.02465,-0.0565 0.03574,-0.0874 -0.06601,0.0503 -0.132451,0.097 -0.0628,0.0463 -0.102287,0.0713 l -0.511399,0.31026 z"
             style="font-style:normal;font-variant:normal;font-weight:normal;font-stretch:normal;font-size:2.59291673px;font-family:'Noto Sans';-inkscape-font-specification:'Noto Sans, Normal';font-variant-ligatures:normal;font-variant-caps:normal;font-variant-numeric:normal;font-feature-settings:normal;text-align:start;letter-spacing:0.26458332px;writing-mode:lr-tb;text-anchor:start;fill:#333333;fill-opacity:1;stroke-width:0.26458332"
             id="path1714" />
          <path
             inkscape:connector-curvature="0"
             d="m 47.737191,245.90838 0.888147,-1.6244 0.204756,0.11195 -0.788635,1.44239 0.709821,0.3881 -0.09951,0.18201 z"
             style="font-style:normal;font-variant:normal;font-weight:normal;font-stretch:normal;font-size:2.59291673px;font-family:'Noto Sans';-inkscape-font-specification:'Noto Sans, Normal';font-variant-ligatures:normal;font-variant-caps:normal;font-variant-numeric:normal;font-feature-settings:normal;text-align:start;letter-spacing:0.26458332px;writing-mode:lr-tb;text-anchor:start;fill:#333333;fill-opacity:1;stroke-width:0.26458332"
             id="path1716" />
          <path
             inkscape:connector-curvature="0"
             d="m 49.187118,246.63446 0.630533,-1.74066 0.219411,0.0795 -0.559885,1.54563 0.760624,0.27552 -0.07065,0.19503 z"
             style="font-style:normal;font-variant:normal;font-weight:normal;font-stretch:normal;font-size:2.59291673px;font-family:'Noto Sans';-inkscape-font-specification:'Noto Sans, Normal';font-variant-ligatures:normal;font-variant-caps:normal;font-variant-numeric:normal;font-feature-settings:normal;text-align:start;letter-spacing:0.26458332px;writing-mode:lr-tb;text-anchor:start;fill:#333333;fill-opacity:1;stroke-width:0.26458332"
             id="path1718" />
          <path
             inkscape:connector-curvature="0"
             d="m 52.325936,245.51707 q 0.361171,0.0365 0.511949,0.19503 0.150778,0.15857 0.124726,0.41654 -0.01537,0.15221 -0.09857,0.27933 -0.08036,0.12479 -0.251225,0.19093 -0.168284,0.0664 -0.444322,0.0385 l -0.211544,-0.0214 -0.07243,0.71718 -0.232181,-0.0234 0.186015,-1.84197 z m -0.0407,0.19656 -0.234761,-0.0237 -0.07347,0.7275 0.185745,0.0188 q 0.263139,0.0266 0.400726,-0.0455 0.137587,-0.0721 0.158169,-0.27591 0.01798,-0.17801 -0.08926,-0.27745 -0.104653,-0.0992 -0.347154,-0.12366 z"
             style="font-style:normal;font-variant:normal;font-weight:normal;font-stretch:normal;font-size:2.59291673px;font-family:'Noto Sans';-inkscape-font-specification:'Noto Sans, Normal';font-variant-ligatures:normal;font-variant-caps:normal;font-variant-numeric:normal;font-feature-settings:normal;text-align:start;letter-spacing:0.26458332px;writing-mode:lr-tb;text-anchor:start;fill:#333333;fill-opacity:1;stroke-width:0.26458332"
             id="path1720" />
          <path
             inkscape:connector-curvature="0"
             d="m 54.510688,247.34285 -0.261879,-0.55634 -0.732057,0.0505 -0.18046,0.58684 -0.235397,0.0162 0.593832,-1.90448 0.209529,-0.0145 0.847002,1.80514 z m -0.34599,-0.75847 -0.245466,-0.54447 q -0.0092,-0.0202 -0.03104,-0.0732 -0.02185,-0.0531 -0.04388,-0.10873 -0.01962,-0.0584 -0.03211,-0.0888 -0.01517,0.0816 -0.0331,0.16083 -0.01552,0.0764 -0.02801,0.12149 l -0.171005,0.57319 z"
             style="font-style:normal;font-variant:normal;font-weight:normal;font-stretch:normal;font-size:2.59291673px;font-family:'Noto Sans';-inkscape-font-specification:'Noto Sans, Normal';font-variant-ligatures:normal;font-variant-caps:normal;font-variant-numeric:normal;font-feature-settings:normal;text-align:start;letter-spacing:0.26458332px;writing-mode:lr-tb;text-anchor:start;fill:#333333;fill-opacity:1;stroke-width:0.26458332"
             id="path1722" />
          <path
             inkscape:connector-curvature="0"
             d="m 55.575527,245.41261 q -0.289259,0.0724 -0.40678,0.30765 -0.117522,0.23524 -0.03314,0.57229 0.08375,0.33453 0.286301,0.49231 0.204436,0.15464 0.513816,0.0772 0.115704,-0.029 0.216308,-0.0755 0.100605,-0.0466 0.196175,-0.10257 l 0.04912,0.19619 q -0.09117,0.0629 -0.194915,0.1076 -0.101235,0.0441 -0.249637,0.0812 -0.274166,0.0686 -0.486119,10e-4 -0.211953,-0.0672 -0.357285,-0.25269 -0.142816,-0.1861 -0.213343,-0.46781 -0.06801,-0.27166 -0.02155,-0.50247 0.04835,-0.23396 0.213057,-0.39815 0.164081,-0.1667 0.440763,-0.23597 0.284228,-0.0712 0.52196,-0.0184 l -0.04269,0.21383 q -0.09245,-0.017 -0.203133,-0.0213 -0.108168,-0.005 -0.228902,0.0252 z"
             style="font-style:normal;font-variant:normal;font-weight:normal;font-stretch:normal;font-size:2.59291673px;font-family:'Noto Sans';-inkscape-font-specification:'Noto Sans, Normal';font-variant-ligatures:normal;font-variant-caps:normal;font-variant-numeric:normal;font-feature-settings:normal;text-align:start;letter-spacing:0.26458332px;writing-mode:lr-tb;text-anchor:start;fill:#333333;fill-opacity:1;stroke-width:0.26458332"
             id="path1724" />
          <path
             inkscape:connector-curvature="0"
             d="m 58.276338,246.14165 -0.250567,0.11296 -0.961418,-0.53648 -0.104362,0.22908 0.295169,0.65478 -0.212746,0.0959 -0.760832,-1.68778 0.212745,-0.0959 0.375089,0.83207 q 0.03468,-0.11234 0.07173,-0.22574 0.03705,-0.11341 0.0741,-0.22681 l 0.226053,-0.71625 0.248203,-0.11189 -0.337567,1.03672 z"
             style="font-style:normal;font-variant:normal;font-weight:normal;font-stretch:normal;font-size:2.59291673px;font-family:'Noto Sans';-inkscape-font-specification:'Noto Sans, Normal';font-variant-ligatures:normal;font-variant-caps:normal;font-variant-numeric:normal;font-feature-settings:normal;text-align:start;letter-spacing:0.26458332px;writing-mode:lr-tb;text-anchor:start;fill:#333333;fill-opacity:1;stroke-width:0.26458332"
             id="path1726" />
          <path
             inkscape:connector-curvature="0"
             d="m 59.675863,245.21028 -0.508085,-0.34632 -0.605049,0.41517 0.14249,0.59719 -0.194557,0.13351 -0.455379,-1.94225 0.173177,-0.11883 1.646236,1.1251 z m -0.683175,-0.47775 -0.487922,-0.34444 q -0.01815,-0.0127 -0.06392,-0.0473 -0.04577,-0.0346 -0.09302,-0.0714 -0.04657,-0.0404 -0.07273,-0.0602 0.02837,0.078 0.05315,0.15536 0.02544,0.0737 0.03755,0.11889 l 0.143707,0.58063 z"
             style="font-style:normal;font-variant:normal;font-weight:normal;font-stretch:normal;font-size:2.59291673px;font-family:'Noto Sans';-inkscape-font-specification:'Noto Sans, Normal';font-variant-ligatures:normal;font-variant-caps:normal;font-variant-numeric:normal;font-feature-settings:normal;text-align:start;letter-spacing:0.26458332px;writing-mode:lr-tb;text-anchor:start;fill:#333333;fill-opacity:1;stroke-width:0.26458332"
             id="path1728" />
          <path
             inkscape:connector-curvature="0"
             d="m 60.095328,243.50094 0.449971,-0.45574 0.645791,0.63761 q -0.07061,0.14163 -0.161482,0.26689 -0.09088,0.12526 -0.227508,0.26364 -0.202214,0.20481 -0.421852,0.26488 -0.221483,0.0583 -0.445652,-0.0173 -0.224193,-0.0792 -0.432691,-0.2851 -0.204808,-0.20221 -0.277772,-0.43094 -0.07299,-0.23239 -0.0048,-0.46751 0.06633,-0.23695 0.279475,-0.45283 0.109305,-0.1107 0.226153,-0.18845 0.118671,-0.0796 0.239374,-0.12804 l 0.08198,0.20483 q -0.09875,0.041 -0.208333,0.10767 -0.109609,0.063 -0.202518,0.15714 -0.233184,0.23617 -0.220431,0.51112 0.01273,0.27128 0.25813,0.51357 0.156835,0.15485 0.3278,0.22526 0.170941,0.0668 0.346694,0.0253 0.173907,-0.0433 0.348795,-0.22041 0.08562,-0.0867 0.136514,-0.15672 0.05089,-0.07 0.08716,-0.13257 l -0.391165,-0.38621 -0.286014,0.28968 z"
             style="font-style:normal;font-variant:normal;font-weight:normal;font-stretch:normal;font-size:2.59291673px;font-family:'Noto Sans';-inkscape-font-specification:'Noto Sans, Normal';font-variant-ligatures:normal;font-variant-caps:normal;font-variant-numeric:normal;font-feature-settings:normal;text-align:start;letter-spacing:0.26458332px;writing-mode:lr-tb;text-anchor:start;fill:#333333;fill-opacity:1;stroke-width:0.26458332"
             id="path1730" />
          <path
             inkscape:connector-curvature="0"
             d="m 62.25517,242.31065 -0.582003,0.85534 -1.530617,-1.04148 0.582003,-0.85534 0.169354,0.11523 -0.450724,0.66241 0.47805,0.32528 0.424468,-0.62382 0.16721,0.11377 -0.424468,0.62383 0.546649,0.37195 0.450724,-0.66241 z"
             style="font-style:normal;font-variant:normal;font-weight:normal;font-stretch:normal;font-size:2.59291673px;font-family:'Noto Sans';-inkscape-font-specification:'Noto Sans, Normal';font-variant-ligatures:normal;font-variant-caps:normal;font-variant-numeric:normal;font-feature-settings:normal;text-align:start;letter-spacing:0.26458332px;writing-mode:lr-tb;text-anchor:start;fill:#333333;fill-opacity:1;stroke-width:0.26458332"
             id="path1732" />
          <path
             inkscape:connector-curvature="0"
             d="m 61.115025,240.48735 q 0.143471,-0.3136 0.331683,-0.40713 0.186932,-0.097 0.427435,0.0131 0.134399,0.0615 0.201344,0.152 0.06695,0.0905 0.08558,0.19312 0.01971,0.10027 0.0092,0.1981 l 0.96595,-0.11695 -0.113267,0.24757 -0.882192,0.0897 -0.153181,0.33482 0.695572,0.31822 -0.09709,0.21221 -1.683519,-0.77021 z m 0.17852,0.0959 -0.110031,0.2405 0.624835,0.28586 0.115425,-0.25229 q 0.09385,-0.20513 0.05683,-0.33613 -0.03938,-0.13207 -0.197354,-0.20434 -0.165051,-0.0755 -0.278736,-0.008 -0.116043,0.0667 -0.210971,0.27417 z"
             style="font-style:normal;font-variant:normal;font-weight:normal;font-stretch:normal;font-size:2.59291673px;font-family:'Noto Sans';-inkscape-font-specification:'Noto Sans, Normal';font-variant-ligatures:normal;font-variant-caps:normal;font-variant-numeric:normal;font-feature-settings:normal;text-align:start;letter-spacing:0.26458332px;writing-mode:lr-tb;text-anchor:start;fill:#333333;fill-opacity:1;stroke-width:0.26458332"
             id="path1734" />
          <path
             inkscape:connector-curvature="0"
             d="m 63.091791,238.84631 q 0.238003,0.0635 0.324665,0.27179 0.08666,0.20829 0.0085,0.50141 -0.0401,0.15031 -0.09674,0.27207 -0.05663,0.12175 -0.119444,0.19624 l -0.215455,-0.0575 q 0.06415,-0.0795 0.132139,-0.20359 0.06866,-0.1266 0.106759,-0.2694 0.0528,-0.19792 0.0025,-0.32135 -0.05026,-0.12344 -0.183041,-0.15887 -0.08769,-0.0234 -0.157837,-0.002 -0.07015,0.0215 -0.144989,0.10087 -0.07484,0.0793 -0.177739,0.22362 -0.144166,0.20843 -0.295165,0.29159 -0.151,0.0832 -0.358939,0.0277 -0.140296,-0.0374 -0.22363,-0.13749 -0.08333,-0.10005 -0.104363,-0.24253 -0.02103,-0.14247 0.02442,-0.31283 0.03877,-0.14531 0.09907,-0.26072 0.06031,-0.1154 0.132808,-0.20609 l 0.174193,0.12161 q -0.06482,0.082 -0.121782,0.18489 -0.05697,0.10288 -0.08771,0.21812 -0.04478,0.16785 0.0051,0.27242 0.04742,0.10389 0.165172,0.13531 0.09019,0.0241 0.160343,0.003 0.07015,-0.0215 0.142984,-0.0933 0.07033,-0.0725 0.161702,-0.20375 0.09973,-0.14246 0.196113,-0.23214 0.09455,-0.0929 0.201946,-0.12325 0.108069,-0.0329 0.248365,0.005 z"
             style="font-style:normal;font-variant:normal;font-weight:normal;font-stretch:normal;font-size:2.59291673px;font-family:'Noto Sans';-inkscape-font-specification:'Noto Sans, Normal';font-variant-ligatures:normal;font-variant-caps:normal;font-variant-numeric:normal;font-feature-settings:normal;text-align:start;letter-spacing:0.26458332px;writing-mode:lr-tb;text-anchor:start;fill:#333333;fill-opacity:1;stroke-width:0.26458332"
             id="path1736" />
        </g>
        <path
           style="fill:none;fill-opacity:1;stroke:#333333;stroke-width:0.22992332;stroke-linecap:square;stroke-linejoin:miter;stroke-miterlimit:4;stroke-dasharray:none;stroke-dashoffset:0;stroke-opacity:1"
           id="path1385-7"
           transform="rotate(-16.377595)"
           sodipodi:type="arc"
           sodipodi:cx="-15.748257"
           sodipodi:cy="242.20918"
           sodipodi:rx="9.407794"
           sodipodi:ry="9.407794"
           sodipodi:start="3.3195117"
           sodipodi:end="3.6398392"
           d="m -25.00754,240.54417 a 9.407794,9.407794 0 0 1 0.995271,-2.83084"
           sodipodi:open="true" />
        <path
           style="fill:none;fill-opacity:1;stroke:#333333;stroke-width:0.22992332;stroke-linecap:square;stroke-linejoin:miter;stroke-miterlimit:4;stroke-dasharray:none;stroke-dashoffset:0;stroke-opacity:1"
           id="path1385-7-7"
           transform="matrix(-0.95942431,-0.2819663,-0.2819663,0.95942431,0,0)"
           sodipodi:type="arc"
           sodipodi:cx="-117.80331"
           sodipodi:cy="212.21611"
           sodipodi:rx="9.407794"
           sodipodi:ry="9.407794"
           sodipodi:start="3.3195117"
           sodipodi:end="3.6398392"
           d="m -127.06259,210.5511 a 9.407794,9.407794 0 0 1 0.99527,-2.83084"
           sodipodi:open="true" />
      </g>
      <text
         id="text1818"
         y="258.83066"
         x="8.6938553"
         style="font-style:normal;font-variant:normal;font-weight:bold;font-stretch:normal;font-size:7.76111126px;line-height:1.5;font-family:'Noto Sans Mono CJK SC';-inkscape-font-specification:'Noto Sans Mono CJK SC, Bold';font-variant-ligatures:normal;font-variant-caps:normal;font-variant-numeric:normal;font-feature-settings:normal;text-align:start;letter-spacing:0px;word-spacing:0px;writing-mode:lr-tb;text-anchor:start;fill:#f9f9f9;fill-opacity:1;stroke:none;stroke-width:0.26458332"
         xml:space="preserve"><tspan
           sodipodi:role="line"
           id="tspan1882"
           x="8.6938553"
           y="258.83066">安同社网络基建委提醒您：</tspan><tspan
           sodipodi:role="line"
           id="tspan1884"
           x="8.6938553"
           y="270.47232">端口千万口，入侵从一口；</tspan><tspan
           sodipodi:role="line"
           id="tspan1886"
           x="8.6938553"
           y="282.11398">防护不规范，运维两行泪。</tspan></text>
    </g>
  </g>
</svg>
