<?xml version="1.0" encoding="UTF-8" standalone="no"?>
<!-- Created with Inkscape (http://www.inkscape.org/) -->

<svg
   width="768"
   height="512"
   viewBox="0 0 203.19999 135.46667"
   version="1.1"
   id="svg5"
   inkscape:version="1.1 (c68e22c387, 2021-05-23)"
   sodipodi:docname="gradle-build-systemd.svg"
   xmlns:inkscape="http://www.inkscape.org/namespaces/inkscape"
   xmlns:sodipodi="http://sodipodi.sourceforge.net/DTD/sodipodi-0.dtd"
   xmlns="http://www.w3.org/2000/svg"
   xmlns:svg="http://www.w3.org/2000/svg">
  <sodipodi:namedview
     id="namedview7"
     pagecolor="#505050"
     bordercolor="#ffffff"
     borderopacity="1"
     inkscape:pageshadow="0"
     inkscape:pageopacity="0"
     inkscape:pagecheckerboard="1"
     inkscape:document-units="mm"
     showgrid="false"
     inkscape:zoom="1.0381216"
     inkscape:cx="202.77008"
     inkscape:cy="367.49067"
     inkscape:window-width="1920"
     inkscape:window-height="1009"
     inkscape:window-x="-8"
     inkscape:window-y="-8"
     inkscape:window-maximized="1"
     inkscape:current-layer="g1843"
     units="px" />
  <defs
     id="defs2" />
  <g
     inkscape:label="Layer 1"
     inkscape:groupmode="layer"
     id="layer1">
    <g
       id="g1843"
       transform="translate(3.5681433,6.6265519)">
      <rect
         style="fill:#ffffff;fill-opacity:1;stroke-width:0.529522"
         id="rect1070"
         width="203.2"
         height="135.46666"
         x="-3.5136392"
         y="-6.5628314" />
      <g
         id="g1604"
         transform="matrix(0.9603838,0,0,0.9603838,-1.4408151,1.9012456)">
        <g
           aria-label="AOSC"
           id="text2100"
           style="font-size:12.7px;line-height:1.25;font-family:Roboto;-inkscape-font-specification:'Roboto, Normal';letter-spacing:0px;word-spacing:0px;fill:#003f5c;stroke-width:0.264583">
          <path
             d="m 12.062762,23.788834 3.44165,-9.028906 h 1.047998 l 3.454053,9.028906 h -1.227832 l -0.861963,-2.362647 h -3.776514 l -0.855761,2.362647 z m 2.43706,-3.342432 h 3.063379 l -1.531689,-4.210596 z"
             id="path1482" />
          <path
             d="m 28.098992,18.989127 v 0.570507 q 0,2.033985 -0.985986,3.193604 -0.985986,1.159619 -2.635498,1.159619 -1.606104,0 -2.623096,-1.159619 -1.016992,-1.159619 -1.016992,-3.193604 v -0.570507 q 0,-2.027784 1.010791,-3.187403 1.010791,-1.16582 2.616895,-1.16582 1.649511,0 2.641699,1.16582 0.992187,1.159619 0.992187,3.187403 z m -1.184424,0.570507 v -0.58291 q 0,-1.612304 -0.644921,-2.468066 -0.644922,-0.855762 -1.804541,-0.855762 -1.11001,0 -1.779737,0.855762 -0.663525,0.855762 -0.663525,2.468066 v 0.58291 q 0,1.624707 0.669726,2.48667 0.675928,0.855762 1.785938,0.855762 1.16582,0 1.79834,-0.855762 0.63872,-0.861963 0.63872,-2.48667 z"
             id="path1484" />
          <path
             d="m 34.697038,21.506802 q 0,-0.632519 -0.434082,-1.004589 -0.434082,-0.372071 -1.711524,-0.744141 -1.339453,-0.390674 -2.133203,-0.998389 -0.79375,-0.613916 -0.79375,-1.668115 0,-1.054199 0.837158,-1.754932 0.84336,-0.700732 2.232422,-0.700732 1.525488,0 2.350244,0.837158 0.830957,0.837158 0.830957,1.891358 h -1.190625 q 0,-0.756543 -0.489892,-1.252637 -0.489893,-0.496094 -1.500684,-0.496094 -0.95498,0 -1.413867,0.42168 -0.458887,0.415478 -0.458887,1.041797 0,0.570508 0.496094,0.948779 0.502295,0.378272 1.618506,0.68833 1.531689,0.434082 2.244824,1.079004 0.719336,0.644922 0.719336,1.699121 0,1.103809 -0.861963,1.761133 -0.861963,0.657324 -2.288232,0.657324 -0.830957,0 -1.618506,-0.310059 -0.781348,-0.310058 -1.289844,-0.917773 -0.502295,-0.613916 -0.502295,-1.513086 h 1.190625 q 0,0.923975 0.675928,1.345654 0.675928,0.42168 1.544092,0.42168 0.936377,0 1.438672,-0.384473 0.508496,-0.390673 0.508496,-1.047998 z"
             id="path1486" />
          <path
             d="m 42.876385,20.917691 h 1.190625 q -0.136426,1.283643 -0.967383,2.139404 -0.830957,0.855762 -2.455664,0.855762 -1.5875,0 -2.554883,-1.141016 -0.967383,-1.147216 -0.967383,-3.044775 v -0.89917 q 0,-1.897558 0.973584,-3.044775 0.979786,-1.147217 2.654102,-1.147217 1.531689,0 2.356445,0.843359 0.824756,0.84336 0.961182,2.176612 h -1.190625 q -0.136426,-0.942578 -0.607715,-1.488282 -0.471289,-0.551904 -1.519287,-0.551904 -1.196826,0 -1.816943,0.880567 -0.620118,0.880566 -0.620118,2.319238 v 0.911572 q 0,1.333252 0.564307,2.27583 0.564307,0.936377 1.767334,0.936377 1.141016,0 1.606103,-0.533301 0.47129,-0.5333 0.626319,-1.488281 z"
             id="path1488" />
        </g>
        <g
           aria-label="PACKAGES"
           id="text2100-7"
           style="font-size:12.7px;line-height:1.25;font-family:Roboto;-inkscape-font-specification:'Roboto, Normal';letter-spacing:0px;word-spacing:0px;fill:#003f5c;stroke-width:0.264583">
          <path
             d="m 66.268301,20.247965 h -2.133203 v 3.540869 h -1.196826 v -9.028906 h 3.330029 q 1.537891,0 2.350244,0.775146 0.818555,0.775146 0.818555,1.978174 0,1.308447 -0.818555,2.021582 -0.812353,0.713135 -2.350244,0.713135 z m -2.133203,-4.508252 v 3.534668 h 2.133203 q 1.0542,0 1.513086,-0.489893 0.458887,-0.489893 0.458887,-1.258838 0,-0.694531 -0.458887,-1.240234 -0.458886,-0.545703 -1.513086,-0.545703 z"
             id="path1509" />
          <path
             d="m 69.22626,23.788834 3.441651,-9.028906 h 1.047998 l 3.454052,9.028906 h -1.227832 l -0.861963,-2.362647 h -3.776513 l -0.855762,2.362647 z m 2.437061,-3.342432 H 74.7267 l -1.53169,-4.210596 z"
             id="path1511" />
          <path
             d="m 83.761808,20.917691 h 1.190625 q -0.136426,1.283643 -0.967383,2.139404 -0.830957,0.855762 -2.455664,0.855762 -1.5875,0 -2.554883,-1.141016 -0.967383,-1.147216 -0.967383,-3.044775 v -0.89917 q 0,-1.897558 0.973584,-3.044775 0.979785,-1.147217 2.654102,-1.147217 1.531689,0 2.356445,0.843359 0.824756,0.84336 0.961182,2.176612 h -1.190625 q -0.136426,-0.942578 -0.607715,-1.488282 -0.471289,-0.551904 -1.519287,-0.551904 -1.196827,0 -1.816944,0.880567 -0.620117,0.880566 -0.620117,2.319238 v 0.911572 q 0,1.333252 0.564307,2.27583 0.564306,0.936377 1.767334,0.936377 1.141015,0 1.606103,-0.533301 0.471289,-0.5333 0.626319,-1.488281 z"
             id="path1513" />
          <path
             d="m 92.071377,23.788834 -3.193604,-4.204395 -1.103808,1.147217 v 3.057178 h -1.196826 v -9.028906 h 1.196826 v 4.452441 l 0.979785,-1.079004 3.032373,-3.373437 h 1.438672 l -3.547071,3.987353 3.819922,5.041553 z"
             id="path1515" />
          <path
             d="m 93.67748,23.788834 3.441651,-9.028906 h 1.047998 l 3.454051,9.028906 h -1.22783 l -0.861964,-2.362647 h -3.776513 l -0.855762,2.362647 z m 2.437061,-3.342432 h 3.063379 l -1.53169,-4.210596 z"
             id="path1517" />
          <path
             d="m 109.43466,19.292984 v 3.305225 q -0.25425,0.37207 -0.96738,0.843359 -0.71314,0.471289 -2.22623,0.471289 -1.64951,0 -2.70991,-1.128613 -1.0604,-1.134815 -1.0604,-3.162598 v -0.700732 q 0,-2.015381 0.94258,-3.150195 0.94258,-1.134815 2.69131,-1.134815 1.55029,0 2.35024,0.781348 0.80616,0.781347 0.97979,1.984375 h -1.19683 q -0.12402,-0.731739 -0.61391,-1.258838 -0.4837,-0.5271 -1.51929,-0.5271 -1.25264,0 -1.84175,0.886768 -0.58911,0.886767 -0.58911,2.406054 v 0.713135 q 0,1.562695 0.70693,2.443262 0.70694,0.874365 1.86656,0.874365 0.96118,0 1.38906,-0.223242 0.42788,-0.229443 0.60771,-0.434082 v -2.021582 h -2.08979 v -0.967383 z"
             id="path1519" />
          <path
             d="m 111.41283,23.788834 v -9.028906 h 5.67407 v 0.979785 h -4.47724 v 2.902148 h 3.90674 v 0.973584 h -3.90674 v 3.199805 h 4.53926 v 0.973584 z"
             id="path1521" />
          <path
             d="m 123.44311,21.506802 q 0,-0.632519 -0.43408,-1.004589 -0.43409,-0.372071 -1.71153,-0.744141 -1.33945,-0.390674 -2.1332,-0.998389 -0.79375,-0.613916 -0.79375,-1.668115 0,-1.054199 0.83716,-1.754932 0.84336,-0.700732 2.23242,-0.700732 1.52549,0 2.35024,0.837158 0.83096,0.837158 0.83096,1.891358 h -1.19062 q 0,-0.756543 -0.4899,-1.252637 -0.48989,-0.496094 -1.50068,-0.496094 -0.95498,0 -1.41387,0.42168 -0.45888,0.415478 -0.45888,1.041797 0,0.570508 0.49609,0.948779 0.50229,0.378272 1.6185,0.68833 1.53169,0.434082 2.24483,1.079004 0.71933,0.644922 0.71933,1.699121 0,1.103809 -0.86196,1.761133 -0.86196,0.657324 -2.28823,0.657324 -0.83096,0 -1.61851,-0.310059 -0.78134,-0.310058 -1.28984,-0.917773 -0.50229,-0.613916 -0.50229,-1.513086 h 1.19062 q 0,0.923975 0.67593,1.345654 0.67593,0.42168 1.54409,0.42168 0.93638,0 1.43867,-0.384473 0.5085,-0.390673 0.5085,-1.047998 z"
             id="path1523" />
        </g>
        <g
           aria-label="/"
           id="text8094"
           style="font-size:14.1111px;line-height:1.25;font-family:Roboto;-inkscape-font-specification:'Roboto, Normal';letter-spacing:0px;word-spacing:0px;stroke-width:0.264583">
          <path
             d="M 56.185861,14.409914 52.003518,25.303297 H 50.907979 L 55.097212,14.409914 Z"
             id="path1544" />
        </g>
        <g
           aria-label="/"
           id="text8094-8"
           style="font-size:14.1111px;line-height:1.25;font-family:Roboto;-inkscape-font-specification:'Roboto, Normal';letter-spacing:0px;word-spacing:0px;stroke-width:0.264583">
          <path
             d="m 135.82579,14.409914 -4.18234,10.893383 h -1.09554 l 4.18923,-10.893383 z"
             id="path1565" />
        </g>
      </g>
      <g
         id="g2339"
         transform="matrix(0.9603838,0,0,0.9603838,3.8836496,-3.5073712)">
        <g
           aria-label="gradle 6.0.1"
           id="text14585"
           style="font-size:28.575px;line-height:1.25;font-family:'Source Serif 4';-inkscape-font-specification:'Source Serif 4, Normal';letter-spacing:0px;word-spacing:0px;fill:#030303;stroke-width:0.264583"
           transform="translate(-3.724181,-2.305776)">
          <path
             d="m 12.585939,86.07914 c 0,-0.942975 0.3429,-1.685925 1.143,-2.57175 0.371475,0.02858 0.771525,0.05715 1.143,0.05715 h 3.343275 c 2.0574,0 2.8575,0.942975 2.8575,2.22885 0,1.6002 -1.65735,2.886075 -4.8006,2.886075 -2.257425,0 -3.686175,-0.74295 -3.686175,-2.600325 z m 3.457575,-7.48665 c 2.9718,0 5.172075,-1.685925 5.172075,-4.686301 0,-1.0287 -0.257175,-1.914525 -0.6858,-2.600325 h 2.828925 v -1.800225 l -0.428625,-0.28575 -3.228975,1.143 c -0.9144,-0.74295 -2.1717,-1.143 -3.629025,-1.143 -2.9718,0 -5.172076,1.685925 -5.172076,4.6863 0,1.943101 0.828676,3.286126 2.200276,4.029076 -1.42875,1.31445 -1.943101,2.257425 -1.943101,3.14325 0,1.143 0.657226,1.857375 1.914526,2.22885 -2.114551,1.000125 -2.828926,2.00025 -2.828926,3.228975 0,2.028825 1.685926,3.48615 5.600701,3.48615 4.886325,0 7.37235,-2.486025 7.37235,-4.97205 0,-2.286 -1.457325,-3.629025 -4.600575,-3.629025 h -3.400425 c -1.3716,0 -2.00025,-0.485775 -2.00025,-1.54305 0,-0.485775 0.2286,-0.97155 0.714375,-1.6002 0.62865,0.200025 1.343025,0.314325 2.11455,0.314325 z m -0.05715,-1.143 c -1.77165,0 -2.771775,-1.42875 -2.771775,-3.514726 0,-2.085975 1.08585,-3.5433 2.886075,-3.5433 1.77165,0 2.80035,1.400175 2.80035,3.429 0,2.114551 -1.08585,3.629026 -2.91465,3.629026 z"
             id="path1606" />
          <path
             d="m 25.216079,83.16449 h 6.943725 v -1.0287 l -2.34315,-0.428625 c -0.02858,-1.42875 -0.05715,-3.286125 -0.05715,-4.543425 v -2.143125 c 0.485775,-1.628776 1.228725,-2.828926 2.371725,-3.686176 l 0.3429,0.314325 c 0.542925,0.4572 1.08585,0.714375 1.743075,0.714375 1.143001,0 1.685926,-0.74295 1.685926,-2.085975 -0.3429,-0.62865 -1.20015,-1.057275 -2.057401,-1.057275 -1.54305,0 -3.171825,1.3716 -4.1148,3.6576 l -0.314325,-3.37185 -0.428625,-0.28575 -4.0005,1.743075 v 1.000125 l 2.257425,0.257175 c 0.05715,1.143 0.08573,2.000251 0.08573,3.571876 v 1.3716 c 0,1.285875 -0.02858,3.171825 -0.05715,4.600575 l -2.0574,0.371475 z"
             id="path1608" />
          <path
             d="m 47.675939,83.45024 c 1.000125,0 1.800225,-0.371475 2.486025,-1.4859 l -0.5715,-0.62865 c -0.314325,0.371475 -0.62865,0.62865 -1.114425,0.62865 -0.62865,0 -1.0287,-0.4572 -1.0287,-1.685925 V 74.19194 c 0,-3.600451 -1.42875,-4.972051 -4.429126,-4.972051 -2.91465,0 -5.0292,1.3716 -5.572125,3.5433 0.08572,0.74295 0.542925,1.171575 1.343025,1.171575 0.771525,0 1.228725,-0.485775 1.4859,-1.3716 l 0.542925,-1.857375 c 0.600075,-0.142875 1.114425,-0.17145 1.54305,-0.17145 1.88595,0 2.68605,0.6858 2.68605,3.457576 v 0.8001 c -1.08585,0.314325 -2.143125,0.62865 -3.228975,0.942975 -3.971925,1.143 -4.74345,2.600325 -4.74345,4.2291 0,2.371725 1.743075,3.571875 3.82905,3.571875 1.685925,0 2.6289,-0.74295 4.200525,-2.286 0.228601,1.343025 1.200151,2.200275 2.571751,2.200275 z m -8.058151,-3.8862 c 0,-0.885825 0.2286,-2.028825 2.828925,-2.8575 0.85725,-0.28575 1.7145,-0.5715 2.600325,-0.85725 v 4.28625 c -1.7145,1.2573 -2.286,1.514475 -3.14325,1.514475 -1.31445,0 -2.286,-0.600075 -2.286,-2.085975 z"
             id="path1610" />
          <path
             d="m 54.191007,76.449365 c 0,-3.886201 1.8288,-5.600701 3.94335,-5.600701 0.942975,0 1.914525,0.3429 3.228975,1.4859 v 7.915276 c -1.057275,1.20015 -1.9431,1.65735 -3.2004,1.65735 -2.286,0 -3.971925,-1.7145 -3.971925,-5.457825 z m 7.458075,7.000875 4.429125,-0.28575 v -1.0287 l -2.314575,-0.3429 V 66.333814 l 0.1143,-4.086225 -0.40005,-0.2286 -4.4577,1.285875 v 1.0287 l 2.428875,0.28575 v 6.45795 c -1.20015,-1.400175 -2.4003,-1.857375 -3.743325,-1.857375 -3.48615,0 -6.086475,2.91465 -6.086475,7.286626 0,4.17195 2.34315,7.02945 5.8293,7.02945 1.77165,0 3.000375,-0.74295 4.0005,-2.0574 z"
             id="path1612" />
          <path
             d="m 67.249768,83.16449 h 7.0866 v -1.0287 l -2.286,-0.40005 c -0.02858,-1.514475 -0.05715,-3.057525 -0.05715,-4.572 V 66.333814 l 0.1143,-4.086225 -0.40005,-0.2286 -4.4577,1.285875 v 1.0287 l 2.34315,0.28575 V 77.16374 c 0,1.514475 -0.02858,3.02895 -0.05715,4.572 l -2.286,0.40005 z"
             id="path1614" />
          <path
             d="m 82.880248,70.534339 c 1.8288,0 2.9718,1.114425 2.9718,3.0861 0,0.828676 -0.314325,1.485901 -1.857375,1.485901 h -5.086351 c 0.3429,-3.314701 2.200275,-4.572001 3.971926,-4.572001 z m 0.08573,13.001626 c 2.91465,0 4.314825,-1.2573 5.4864,-3.228975 l -0.600075,-0.485775 c -1.143,1.31445 -2.45745,1.857375 -4.2291,1.857375 -2.943226,0 -4.714876,-1.857375 -4.772026,-5.3721 h 9.172576 c 0.1143,-0.371475 0.200025,-0.942975 0.200025,-1.6002 0,-3.457576 -2.34315,-5.486401 -5.343525,-5.486401 -3.571876,0 -6.543676,2.91465 -6.543676,7.315201 0,4.40055 2.600325,7.000875 6.629401,7.000875 z"
             id="path1616" />
          <path
             d="m 100.02519,76.02074 c 0,-0.40005 0.0286,-0.828675 0.0572,-1.20015 1.08585,-0.914401 2.286,-1.257301 3.429,-1.257301 1.97168,0 3.28613,1.314451 3.28613,3.971926 0,2.9718 -1.34303,4.714875 -3.25755,4.714875 -2.11455,0 -3.51473,-1.88595 -3.51473,-6.22935 z m 3.57188,7.515225 c 2.91465,0 5.74357,-2.428875 5.74357,-6.0579 0,-3.228975 -1.85737,-5.657851 -4.97205,-5.657851 -1.54305,0 -2.9718,0.62865 -4.14337,1.77165 0.65722,-4.029075 3.14325,-7.02945 8.31532,-8.372475 l -0.17145,-0.9144 c -7.00087,0.8001 -10.944222,5.65785 -10.944222,11.372851 0,4.886325 2.34315,7.858125 6.172202,7.858125 z"
             id="path1618" />
          <path
             d="m 114.85556,83.535965 c 1.143,0 2.02883,-0.9144 2.02883,-2.028825 0,-1.143 -0.88583,-2.0574 -2.02883,-2.0574 -1.143,0 -2.02882,0.9144 -2.02882,2.0574 0,1.114425 0.88582,2.028825 2.02882,2.028825 z"
             id="path1620" />
          <path
             d="m 126.31412,83.535965 c 3.00037,0 5.97217,-2.5146 5.97217,-9.572625 0,-7.086601 -2.9718,-9.658351 -5.97217,-9.658351 -3.05753,0 -6.00075,2.57175 -6.00075,9.658351 0,7.058025 2.94322,9.572625 6.00075,9.572625 z m 0,-1.285875 c -1.77165,0 -3.37185,-1.65735 -3.37185,-8.28675 0,-6.686551 1.6002,-8.372476 3.37185,-8.372476 1.7145,0 3.3147,1.7145 3.3147,8.372476 0,6.600825 -1.6002,8.28675 -3.3147,8.28675 z"
             id="path1622" />
          <path
             d="m 137.71549,83.535965 c 1.143,0 2.02882,-0.9144 2.02882,-2.028825 0,-1.143 -0.88582,-2.0574 -2.02882,-2.0574 -1.143,0 -2.02883,0.9144 -2.02883,2.0574 0,1.114425 0.88583,2.028825 2.02883,2.028825 z"
             id="path1624" />
          <path
             d="m 144.11627,83.16449 h 10.60132 v -1.0287 l -4.05765,-0.6858 c -0.0286,-1.42875 -0.0572,-2.886075 -0.0572,-4.314825 v -8.315326 l 0.1143,-4.086225 -0.40005,-0.28575 -5.88645,1.514475 v 1.171575 l 3.7719,-0.314325 v 10.315576 c 0,1.42875 -0.0286,2.886075 -0.0572,4.314825 l -4.02907,0.6858 z"
             id="path1626" />
        </g>
        <g
           aria-label="A powerful build systemd for JVM/Java"
           id="text2413"
           style="font-style:italic;font-size:11.2889px;line-height:1.25;font-family:'Source Serif 4';-inkscape-font-specification:'Source Serif 4, Italic';letter-spacing:0px;word-spacing:0px;stroke-width:0.264583"
           transform="translate(-3.4003236,-2.305776)">
          <path
             d="m 9.9189847,109.59298 h 2.5287133 l 0.09031,-0.45156 -0.982135,-0.14675 1.140179,-2.14489 h 2.46098 l 0.293512,2.17875 -0.982134,0.11289 -0.09031,0.45156 h 2.991559 l 0.09031,-0.45156 -0.993423,-0.12417 -0.993423,-6.98783 h -0.654757 l -3.872092,6.97654 -0.936979,0.13546 z m 3.0480033,-3.26249 1.693335,-3.19476 0.428978,3.19476 z"
             id="path1647" />
          <path
             d="m 22.833463,109.73974 c 1.625602,0 3.48827,-2.35939 3.48827,-4.26721 0,-1.016 -0.474133,-1.38853 -1.02729,-1.38853 -0.643467,0 -1.546579,0.51929 -2.235202,1.37724 l 0.270934,-1.26435 -0.146756,-0.11289 -1.919113,0.57573 -0.04516,0.32738 1.117602,0.0677 -1.422402,6.70561 -0.970845,0.15804 -0.07902,0.38383 h 2.856092 l 0.09031,-0.38383 -1.038578,-0.16933 c 0.09031,-0.56445 0.214489,-1.20791 0.417689,-2.17876 0.191911,0.11289 0.395111,0.16934 0.643467,0.16934 z m 1.930402,-4.89939 c 0.428978,0 0.688623,0.34996 0.688623,1.08374 0,0.77893 -0.282222,1.59173 -0.733778,2.19004 -0.395112,0.508 -0.914401,0.85796 -1.478846,0.85796 -0.259645,0 -0.553157,-0.0903 -0.857957,-0.31609 l 0.553156,-2.6416 c 0.72249,-0.75636 1.365957,-1.17405 1.828802,-1.17405 z"
             id="path1649" />
          <path
             d="m 28.895574,109.73974 c 1.591735,0 2.901248,-1.71592 2.901248,-3.68019 0,-1.27564 -0.767646,-1.97555 -1.828802,-1.97555 -1.603024,0 -2.946403,1.63689 -2.946403,3.66889 0,1.28693 0.835378,1.98685 1.873957,1.98685 z m 0.135467,-0.45156 c -0.632178,0 -1.095023,-0.48542 -1.095023,-1.67076 0,-1.68204 0.835378,-3.08187 1.907824,-3.08187 0.6096,0 1.038579,0.47414 1.038579,1.69334 0,1.51271 -0.745068,3.05929 -1.85138,3.05929 z"
             id="path1651" />
          <path
             d="m 33.896546,109.61556 0.07902,0.0564 0.338667,-0.0339 c 0.891823,-1.02729 1.761069,-2.50614 2.336802,-3.60116 0.05644,1.18533 0.112889,2.38195 0.180623,3.57858 l 0.07902,0.0564 0.327378,-0.0339 c 1.162757,-1.20792 2.111025,-2.52872 2.641603,-3.55601 0.508,-0.97084 0.575734,-1.27564 0.575734,-1.51271 0,-0.18062 -0.02258,-0.27093 -0.06773,-0.33867 -0.06773,-0.079 -0.191911,-0.14675 -0.372533,-0.14675 -0.349956,0 -0.677334,0.23706 -0.677334,0.80151 0,0.1016 0.02258,0.32738 0.05644,0.46284 l 0.09031,0.37254 c -0.02258,0.0452 -0.04516,0.079 -0.06773,0.12417 -0.564445,1.04987 -1.083734,1.81752 -1.840091,2.76579 -0.04516,-1.32081 -0.1016,-2.8561 -0.169333,-4.39139 h -0.451556 c -0.711201,1.65947 -1.478846,3.08187 -2.314225,4.28978 0,-1.25306 -0.04516,-2.73191 -0.2032,-3.66889 -0.09031,-0.54186 -0.282223,-0.75635 -0.756356,-0.75635 -0.508001,0 -0.993424,0.46284 -1.388535,1.34338 l 0.259645,0.18062 c 0.361244,-0.54187 0.553156,-0.74507 0.767645,-0.74507 0.158044,0 0.259645,0.0564 0.316089,0.49671 0.158045,1.14018 0.248356,2.4384 0.259645,4.25592 z"
             id="path1653" />
          <path
             d="m 43.458224,104.56942 c 0.372533,0 0.620889,0.24835 0.620889,0.66604 0,0.6096 -0.654756,1.39983 -2.528714,1.94169 0.112889,-1.41111 1.207913,-2.60773 1.907825,-2.60773 z m -1.004713,5.17032 c 0.835379,0 1.569158,-0.63218 2.043291,-1.39983 l -0.259644,-0.2032 c -0.304801,0.38382 -0.812801,0.82409 -1.524002,0.82409 -0.688623,0 -1.117601,-0.38382 -1.162757,-1.34338 2.57387,-0.74507 3.28507,-1.77236 3.28507,-2.49485 0,-0.66604 -0.4064,-1.03857 -1.12889,-1.03857 -1.580446,0 -2.946403,1.73849 -2.946403,3.556 0,1.44498 0.711201,2.09974 1.693335,2.09974 z"
             id="path1655" />
          <path
             d="m 45.60311,109.59298 0.112889,0.0903 0.756356,-0.0903 c 0.146756,-0.80151 0.282223,-1.58045 0.451556,-2.37067 l 0.124178,-0.58702 c 0.41769,-0.77894 0.846668,-1.4224 1.399824,-1.88525 0.225778,0.18062 0.474134,0.3048 0.666045,0.3048 0.372534,0 0.587023,-0.25964 0.598312,-0.63218 -0.158045,-0.24835 -0.440267,-0.33866 -0.756357,-0.33866 -0.598311,0 -1.219201,0.77893 -1.704624,1.6256 l 0.248356,-1.51271 -0.146755,-0.11289 -1.862669,0.57573 -0.04516,0.32738 1.117602,0.0677 z"
             id="path1657" />
          <path
             d="m 48.605954,112.4152 c 0.361244,0 0.733778,-0.13546 1.196623,-0.55315 0.632179,-0.56445 0.92569,-1.45627 1.162757,-2.66418 0.282222,-1.4224 0.519289,-2.98027 0.756356,-4.41396 l 1.433691,0.0451 0.135466,-0.59831 h -1.478846 c 0.01129,-0.0452 0.01129,-0.079 0.02258,-0.12418 0.282223,-1.73849 0.790223,-2.35938 1.365957,-2.61902 l 0.180623,0.22578 c 0.349955,0.45155 0.553156,0.62089 0.891823,0.62089 0.191911,0 0.361244,-0.11289 0.440267,-0.38383 -0.09031,-0.41769 -0.62089,-0.82409 -1.275646,-0.82409 -0.733778,0 -2.032002,0.508 -2.427114,3.00285 l -0.01129,0.1016 -1.162757,0.1016 -0.09031,0.42898 h 1.162756 c -0.225778,1.524 -0.451556,2.92383 -0.722489,4.43654 -0.214489,1.17404 -0.406401,1.80622 -0.699912,2.22391 -0.146756,0.21449 -0.3048,0.37254 -0.451556,0.48542 l -0.146756,-0.13546 c -0.248356,-0.24836 -0.485423,-0.46285 -0.812801,-0.46285 -0.248355,0 -0.474133,0.16934 -0.519289,0.4064 0.1016,0.42898 0.541867,0.69991 1.049868,0.69991 z"
             id="path1659" />
          <path
             d="m 54.510032,109.73974 c 0.654756,0 1.365957,-0.49672 2.235202,-1.30952 -0.1016,0.41769 -0.112889,0.58703 -0.112889,0.72249 0,0.39511 0.293512,0.58703 0.598312,0.58703 0.812801,0 1.411113,-0.69992 1.930402,-1.37725 L 58.878836,108.148 c -0.462844,0.54187 -0.801511,0.8128 -1.106312,0.8128 -0.135467,0 -0.259645,-0.0903 -0.259645,-0.24835 0,-0.12418 0.04516,-0.36125 0.101601,-0.64347 l 0.801512,-3.87209 -0.146756,-0.11289 -0.733779,0.22577 c -0.124178,0.72249 -0.259644,1.44498 -0.4064,2.16747 l -0.316089,1.51272 c -0.846668,0.67733 -1.309513,0.97084 -1.783647,0.97084 -0.270933,0 -0.428978,-0.15804 -0.428978,-0.48542 0,-0.24836 0.06773,-0.6096 0.169334,-1.07245 l 0.7112,-3.20604 -0.146755,-0.11289 -1.964269,0.56444 -0.04516,0.33867 1.117602,0.0564 -0.51929,2.44969 c -0.09031,0.44027 -0.237067,1.00472 -0.237067,1.42241 0,0.55315 0.327378,0.82409 0.82409,0.82409 z"
             id="path1661" />
          <path
             d="m 60.27864,109.73974 c 0.801512,0 1.365957,-0.71121 1.85138,-1.37725 L 61.870375,108.148 c -0.451556,0.51929 -0.835379,0.8128 -1.072446,0.8128 -0.146755,0 -0.282222,-0.0903 -0.282222,-0.25964 0,-0.11289 0.03387,-0.34996 0.1016,-0.65476 l 1.354668,-6.7169 -0.124178,-0.0903 -1.941691,0.56445 -0.04516,0.32738 1.061156,0.0677 c -0.1016,0.66604 -0.225778,1.33209 -0.361244,1.99814 l -0.812801,4.13173 c -0.06773,0.39511 -0.1016,0.59831 -0.1016,0.75636 0,0.44027 0.282222,0.65476 0.632178,0.65476 z"
             id="path1663" />
          <path
             d="m 66.442365,108.41893 c 0,-0.42897 0.04516,-0.7112 0.225778,-1.56915 l 0.158044,-0.77894 c 0.72249,-0.79022 1.34338,-1.23049 1.840091,-1.23049 0.41769,0 0.677334,0.36125 0.677334,1.08374 0,0.92569 -0.395111,1.90782 -1.004712,2.49484 -0.417689,0.39512 -0.869245,0.6096 -1.33209,0.6096 -0.361245,0 -0.564445,-0.22577 -0.564445,-0.6096 z m 0.05644,1.32081 c 1.840091,0 3.70276,-2.35939 3.70276,-4.26721 0,-1.016 -0.474134,-1.38853 -1.02729,-1.38853 -0.666045,0 -1.54658,0.54186 -2.235203,1.44498 l 0.869246,-4.19948 -0.124178,-0.0903 -1.95298,0.56445 -0.05644,0.32738 1.117601,0.079 -0.959557,4.82036 c -0.146755,0.75636 -0.259644,1.29822 -0.259644,1.77236 0,0.58702 0.428978,0.93698 0.925689,0.93698 z"
             id="path1665" />
          <path
             d="m 72.109386,109.73974 c 0.654756,0 1.365957,-0.49672 2.235202,-1.30952 -0.1016,0.41769 -0.112889,0.58703 -0.112889,0.72249 0,0.39511 0.293511,0.58703 0.598312,0.58703 0.812801,0 1.411112,-0.69992 1.930402,-1.37725 L 76.47819,108.148 c -0.462845,0.54187 -0.801512,0.8128 -1.106312,0.8128 -0.135467,0 -0.259645,-0.0903 -0.259645,-0.24835 0,-0.12418 0.04516,-0.36125 0.1016,-0.64347 l 0.801512,-3.87209 -0.146755,-0.11289 -0.733779,0.22577 c -0.124178,0.72249 -0.259645,1.44498 -0.4064,2.16747 l -0.31609,1.51272 c -0.846667,0.67733 -1.309512,0.97084 -1.783646,0.97084 -0.270933,0 -0.428978,-0.15804 -0.428978,-0.48542 0,-0.24836 0.06773,-0.6096 0.169333,-1.07245 l 0.711201,-3.20604 -0.146755,-0.11289 -1.964269,0.56444 -0.04516,0.33867 1.117601,0.0564 -0.519289,2.44969 c -0.09031,0.44027 -0.237067,1.00472 -0.237067,1.42241 0,0.55315 0.327378,0.82409 0.82409,0.82409 z"
             id="path1667" />
          <path
             d="m 77.652218,109.164 c 0,0.38382 0.293512,0.57574 0.609601,0.57574 0.801512,0 1.388535,-0.69992 1.896535,-1.37725 L 79.876132,108.148 c -0.451556,0.54187 -0.812801,0.8128 -1.083735,0.8128 -0.124178,0 -0.248356,-0.0903 -0.248356,-0.24835 0,-0.12418 0.04516,-0.36125 0.101601,-0.64347 l 0.801511,-3.87209 -0.146755,-0.11289 -1.919113,0.57573 -0.04516,0.32738 1.117601,0.0677 -0.688623,3.28507 c -0.09031,0.46285 -0.112889,0.65476 -0.112889,0.82409 z m 1.761069,-6.63787 c 0.327378,0 0.632178,-0.32738 0.632178,-0.69991 0,-0.36125 -0.237067,-0.59832 -0.587023,-0.59832 -0.327378,0 -0.620889,0.31609 -0.620889,0.68863 0,0.37253 0.237067,0.6096 0.575734,0.6096 z"
             id="path1669" />
          <path
             d="m 81.546874,109.73974 c 0.801512,0 1.365957,-0.71121 1.85138,-1.37725 L 83.138609,108.148 c -0.451556,0.51929 -0.835378,0.8128 -1.072445,0.8128 -0.146756,0 -0.282223,-0.0903 -0.282223,-0.25964 0,-0.11289 0.03387,-0.34996 0.1016,-0.65476 l 1.354668,-6.7169 -0.124178,-0.0903 -1.94169,0.56445 -0.04516,0.32738 1.061157,0.0677 c -0.101601,0.66604 -0.225778,1.33209 -0.361245,1.99814 l -0.812801,4.13173 c -0.06773,0.39511 -0.1016,0.59831 -0.1016,0.75636 0,0.44027 0.282222,0.65476 0.632178,0.65476 z"
             id="path1671" />
          <path
             d="m 84.628738,107.88836 c 0,-0.91441 0.349956,-1.79494 0.857956,-2.35938 0.383823,-0.42898 0.869246,-0.69992 1.354669,-0.69992 0.225778,0 0.462844,0.079 0.688622,0.27094 l -0.541867,2.70933 c -0.767645,0.85796 -1.241779,1.15147 -1.648179,1.15147 -0.406401,0 -0.711201,-0.32738 -0.711201,-1.07244 z m 2.788358,1.85138 c 0.756357,0 1.456269,-0.72249 1.896536,-1.37725 L 89.042698,108.148 c -0.383823,0.48542 -0.812801,0.8128 -1.106312,0.8128 -0.135467,0 -0.259645,-0.0903 -0.259645,-0.24835 0,-0.12418 0.03387,-0.36125 0.09031,-0.64347 l 1.365957,-6.73948 -0.135467,-0.0903 -1.930401,0.56445 -0.04516,0.32738 1.140179,0.079 -0.428978,2.04329 c -0.169334,-0.11289 -0.338667,-0.16933 -0.553156,-0.16933 -1.535291,0 -3.420537,2.35938 -3.420537,4.23333 0,1.02729 0.474134,1.42241 1.016001,1.42241 0.620889,0 1.411112,-0.54187 2.088446,-1.3321 -0.07902,0.39512 -0.07902,0.58703 -0.07902,0.74507 0,0.39511 0.282223,0.58703 0.632178,0.58703 z"
             id="path1673" />
          <path
             d="m 93.592092,109.73974 c 1.140179,0 1.907824,-0.66605 1.907824,-1.60303 0,-0.65475 -0.237067,-0.99342 -0.914401,-1.50142 -0.643467,-0.47414 -0.835379,-0.7112 -0.835379,-1.18534 0,-0.508 0.293512,-0.92569 1.072446,-0.92569 0.05644,0 0.112889,0 0.158045,0.0113 l 0.1016,0.32738 c 0.112889,0.33867 0.316089,0.53058 0.575734,0.53058 0.2032,0 0.361244,-0.1016 0.428978,-0.31609 -0.169334,-0.73378 -0.677334,-0.99342 -1.343379,-0.99342 -1.083735,0 -1.794935,0.69991 -1.794935,1.58044 0,0.7112 0.428978,1.12889 0.993423,1.55787 0.643467,0.46285 0.733778,0.75636 0.733778,1.1176 0,0.58702 -0.462845,0.95956 -1.241779,0.95956 -0.05644,0 -0.112889,0 -0.158044,-0.0113 l -0.124178,-0.48542 c -0.07902,-0.31609 -0.214489,-0.49672 -0.541867,-0.49672 -0.180623,0 -0.361245,0.12418 -0.41769,0.31609 0.07902,0.67734 0.51929,1.11761 1.399824,1.11761 z"
             id="path1675" />
          <path
             d="m 95.725685,112.30232 c 0.654757,0 1.309513,-0.48543 2.043291,-1.28694 0.474134,-0.508 0.778934,-0.98213 1.072446,-1.4224 0.620889,-0.93698 1.095023,-1.80622 1.512708,-2.55129 0.42898,-0.76765 0.66605,-1.24178 0.90312,-1.7272 0.22577,-0.45156 0.28222,-0.62089 0.28222,-0.9144 0,-0.22578 -0.15805,-0.38383 -0.41769,-0.38383 -0.31609,0 -0.48542,0.23707 -0.85796,1.53529 -0.37253,1.28694 -0.756353,2.12232 -1.546576,3.55601 -0.04516,-1.04987 -0.124178,-2.21263 -0.259645,-3.52214 -0.135467,-1.26436 -0.372534,-1.50142 -0.801512,-1.50142 -0.474134,0 -0.982134,0.38382 -1.43369,1.34338 l 0.259645,0.18062 c 0.4064,-0.6096 0.564445,-0.74507 0.756356,-0.74507 0.2032,0 0.259645,0.15804 0.440267,1.59174 0.191911,1.51271 0.327378,2.28035 0.417689,3.60115 -0.191911,0.23707 -0.383822,0.46285 -0.598311,0.67734 -0.31609,0.31609 -0.654757,0.59831 -1.004712,0.83538 l -0.04516,-0.0339 c -0.327378,-0.23707 -0.587023,-0.39511 -0.914401,-0.39511 -0.316089,0 -0.553156,0.18062 -0.609601,0.508 0.03387,0.38382 0.304801,0.65476 0.801512,0.65476 z"
             id="path1677" />
          <path
             d="m 102.91671,109.73974 c 1.14018,0 1.90782,-0.66605 1.90782,-1.60303 0,-0.65475 -0.23707,-0.99342 -0.9144,-1.50142 -0.64347,-0.47414 -0.83538,-0.7112 -0.83538,-1.18534 0,-0.508 0.29351,-0.92569 1.07245,-0.92569 0.0564,0 0.11289,0 0.15804,0.0113 l 0.1016,0.32738 c 0.11289,0.33867 0.31609,0.53058 0.57574,0.53058 0.2032,0 0.36124,-0.1016 0.42897,-0.31609 -0.16933,-0.73378 -0.67733,-0.99342 -1.34337,-0.99342 -1.08374,0 -1.79494,0.69991 -1.79494,1.58044 0,0.7112 0.42898,1.12889 0.99342,1.55787 0.64347,0.46285 0.73378,0.75636 0.73378,1.1176 0,0.58702 -0.46284,0.95956 -1.24178,0.95956 -0.0564,0 -0.11289,0 -0.15804,-0.0113 l -0.12418,-0.48542 c -0.079,-0.31609 -0.21449,-0.49672 -0.54187,-0.49672 -0.18062,0 -0.36124,0.12418 -0.41769,0.31609 0.079,0.67734 0.51929,1.11761 1.39983,1.11761 z"
             id="path1679" />
          <path
             d="m 106.81136,109.73974 c 0.76765,0 1.45627,-0.69992 1.91911,-1.37725 l -0.27093,-0.21449 c -0.46284,0.54187 -0.80151,0.8128 -1.10631,0.8128 -0.13547,0 -0.27093,-0.0903 -0.27093,-0.25964 0,-0.11289 0.0339,-0.34996 0.1016,-0.65476 l 0.68862,-3.2512 1.43369,0.0452 0.12418,-0.6096 h -1.43369 l 0.31609,-1.51271 h -0.57574 l -0.53058,1.50142 -1.20791,0.11289 -0.0903,0.42898 h 1.15147 l -0.76765,3.57858 c -0.0903,0.46285 -0.1016,0.65476 -0.1016,0.82409 0,0.38382 0.29351,0.57574 0.62089,0.57574 z"
             id="path1681" />
          <path
             d="m 112.19615,104.56942 c 0.37254,0 0.62089,0.24835 0.62089,0.66604 0,0.6096 -0.65475,1.39983 -2.52871,1.94169 0.11289,-1.41111 1.20791,-2.60773 1.90782,-2.60773 z m -1.00471,5.17032 c 0.83538,0 1.56916,-0.63218 2.04329,-1.39983 l -0.25964,-0.2032 c -0.3048,0.38382 -0.8128,0.82409 -1.524,0.82409 -0.68863,0 -1.1176,-0.38382 -1.16276,-1.34338 2.57387,-0.74507 3.28507,-1.77236 3.28507,-2.49485 0,-0.66604 -0.4064,-1.03857 -1.12889,-1.03857 -1.58045,0 -2.9464,1.73849 -2.9464,3.556 0,1.44498 0.7112,2.09974 1.69333,2.09974 z"
             id="path1683" />
          <path
             d="m 120.84344,109.73974 c 0.80152,0 1.44498,-0.68863 1.94169,-1.37725 L 122.5142,108.148 c -0.45156,0.54187 -0.80151,0.8128 -1.10631,0.8128 -0.12418,0 -0.22578,-0.079 -0.22578,-0.23707 0,-0.11288 0.0677,-0.33866 0.14676,-0.65475 l 0.508,-2.09974 c 0.0903,-0.37253 0.19191,-0.74507 0.19191,-1.10631 0,-0.51929 -0.24836,-0.77893 -0.72249,-0.77893 -0.66605,0 -1.524,0.56444 -2.2352,1.25306 0.0339,-0.15804 0.0564,-0.32737 0.0564,-0.47413 0,-0.51929 -0.24836,-0.77893 -0.7112,-0.77893 -0.69991,0 -1.6256,0.57573 -2.35938,1.27564 l 0.23707,-1.16275 -0.14676,-0.11289 -1.91911,0.57573 -0.0452,0.32738 1.1176,0.0677 -0.95955,4.53814 0.11289,0.0903 0.75635,-0.0903 c 0.14676,-0.80151 0.28222,-1.58045 0.45156,-2.37067 l 0.3048,-1.38853 c 0.82409,-0.66605 1.45627,-0.99343 1.86267,-0.99343 0.24835,0 0.38382,0.12418 0.38382,0.48543 0,0.18062 -0.0452,0.38382 -0.079,0.57573 l -0.77894,3.69147 0.11289,0.0903 0.73378,-0.0903 c 0.14676,-0.80151 0.29351,-1.58045 0.46285,-2.37067 l 0.29351,-1.37725 c 0.80151,-0.66604 1.37724,-1.00471 1.76107,-1.00471 0.25964,0 0.39511,0.12418 0.39511,0.51929 0,0.22578 -0.0903,0.59831 -0.18063,0.98214 l -0.48542,1.99813 c -0.11289,0.46285 -0.18062,0.65476 -0.18062,0.9144 0,0.29351 0.21449,0.48543 0.57573,0.48543 z"
             id="path1685" />
          <path
             d="m 124.11722,107.88836 c 0,-0.91441 0.34995,-1.79494 0.85795,-2.35938 0.38383,-0.42898 0.86925,-0.69992 1.35467,-0.69992 0.22578,0 0.46285,0.079 0.68863,0.27094 l -0.54187,2.70933 c -0.76765,0.85796 -1.24178,1.15147 -1.64818,1.15147 -0.4064,0 -0.7112,-0.32738 -0.7112,-1.07244 z m 2.78836,1.85138 c 0.75635,0 1.45626,-0.72249 1.89653,-1.37725 l -0.27093,-0.21449 c -0.38382,0.48542 -0.8128,0.8128 -1.10631,0.8128 -0.13547,0 -0.25965,-0.0903 -0.25965,-0.24835 0,-0.12418 0.0339,-0.36125 0.0903,-0.64347 l 1.36596,-6.73948 -0.13547,-0.0903 -1.9304,0.56445 -0.0452,0.32738 1.14018,0.079 -0.42897,2.04329 c -0.16934,-0.11289 -0.33867,-0.16933 -0.55316,-0.16933 -1.53529,0 -3.42054,2.35938 -3.42054,4.23333 0,1.02729 0.47414,1.42241 1.016,1.42241 0.62089,0 1.41112,-0.54187 2.08845,-1.3321 -0.079,0.39512 -0.079,0.58703 -0.079,0.74507 0,0.39511 0.28222,0.58703 0.63218,0.58703 z"
             id="path1687" />
          <path
             d="m 130.61959,112.4152 c 0.36125,0 0.73378,-0.13546 1.19662,-0.55315 0.63218,-0.56445 0.92569,-1.45627 1.16276,-2.66418 0.28222,-1.4224 0.51929,-2.98027 0.75636,-4.41396 l 1.43369,0.0451 0.13546,-0.59831 h -1.47884 c 0.0113,-0.0452 0.0113,-0.079 0.0226,-0.12418 0.28222,-1.73849 0.79022,-2.35938 1.36595,-2.61902 l 0.18063,0.22578 c 0.34995,0.45155 0.55315,0.62089 0.89182,0.62089 0.19191,0 0.36124,-0.11289 0.44027,-0.38383 -0.0903,-0.41769 -0.62089,-0.82409 -1.27565,-0.82409 -0.73378,0 -2.032,0.508 -2.42711,3.00285 l -0.0113,0.1016 -1.16276,0.1016 -0.0903,0.42898 h 1.16276 c -0.22578,1.524 -0.45156,2.92383 -0.72249,4.43654 -0.21449,1.17404 -0.4064,1.80622 -0.69991,2.22391 -0.14676,0.21449 -0.3048,0.37254 -0.45156,0.48542 l -0.14676,-0.13546 c -0.24835,-0.24836 -0.48542,-0.46285 -0.8128,-0.46285 -0.24835,0 -0.47413,0.16934 -0.51929,0.4064 0.1016,0.42898 0.54187,0.69991 1.04987,0.69991 z"
             id="path1689" />
          <path
             d="m 137.07683,109.73974 c 1.59173,0 2.90125,-1.71592 2.90125,-3.68019 0,-1.27564 -0.76765,-1.97555 -1.8288,-1.97555 -1.60303,0 -2.94641,1.63689 -2.94641,3.66889 0,1.28693 0.83538,1.98685 1.87396,1.98685 z m 0.13547,-0.45156 c -0.63218,0 -1.09503,-0.48542 -1.09503,-1.67076 0,-1.68204 0.83538,-3.08187 1.90783,-3.08187 0.6096,0 1.03858,0.47414 1.03858,1.69334 0,1.51271 -0.74507,3.05929 -1.85138,3.05929 z"
             id="path1691" />
          <path
             d="m 140.9602,109.59298 0.11289,0.0903 0.75636,-0.0903 c 0.14675,-0.80151 0.28222,-1.58045 0.45155,-2.37067 l 0.12418,-0.58702 c 0.41769,-0.77894 0.84667,-1.4224 1.39982,-1.88525 0.22578,0.18062 0.47414,0.3048 0.66605,0.3048 0.37253,0 0.58702,-0.25964 0.59831,-0.63218 -0.15804,-0.24835 -0.44027,-0.33866 -0.75636,-0.33866 -0.59831,0 -1.2192,0.77893 -1.70462,1.6256 l 0.24836,-1.51271 -0.14676,-0.11289 -1.86267,0.57573 -0.0452,0.32738 1.1176,0.0677 z"
             id="path1693" />
          <path
             d="m 148.63664,102.49226 1.07245,0.12418 c -0.15805,0.98213 -0.33867,1.95298 -0.50801,2.91254 -0.33866,1.95298 -0.44026,2.63031 -0.59831,3.38667 -0.14675,0.69991 -0.37253,1.25306 -0.74506,1.56915 -0.47414,-0.36124 -0.68863,-0.47413 -0.92569,-0.47413 -0.37254,0 -0.71121,0.18062 -0.76765,0.51929 0.0339,0.39511 0.51929,0.57573 1.03858,0.57573 0.72249,0 1.59173,-0.6096 2.07716,-1.73849 0.2032,-0.44027 0.32738,-0.99342 0.48542,-1.84009 l 0.93698,-4.91067 1.03858,-0.12418 0.0903,-0.46284 h -3.10445 z"
             id="path1695" />
          <path
             d="m 156.7759,102.49226 0.93698,0.13547 -2.98027,5.59929 -0.80152,-5.59929 1.08374,-0.13547 0.0903,-0.46284 h -2.99156 l -0.0903,0.46284 0.88053,0.11289 1.14018,7.10072 h 0.48543 l 3.78178,-7.06685 0.99342,-0.14676 0.0903,-0.46284 h -2.52871 z"
             id="path1697" />
          <path
             d="m 158.07412,109.59298 h 2.59645 l 0.0903,-0.45156 -1.02729,-0.14675 0.68863,-2.92383 0.66604,-2.85609 1.47885,6.36694 h 0.32738 l 3.77049,-6.44596 -0.85796,5.87023 -0.92569,0.11289 -0.0564,0.47413 H 167.76 l 0.0565,-0.47413 -1.01601,-0.12418 c 0.12418,-0.97085 0.24836,-1.96427 0.38383,-2.92383 l 0.49671,-3.44311 1.07244,-0.13547 0.0452,-0.46284 h -1.98685 l -3.60116,6.10729 -1.29822,-6.10729 h -2.08845 l -0.0903,0.46284 0.97085,0.11289 -1.50143,6.38952 -1.03857,0.14675 z"
             id="path1699" />
          <path
             d="m 167.61322,111.3992 h 0.7112 l 5.02356,-9.82134 h -0.7112 z"
             id="path1701" />
          <path
             d="m 173.70921,102.49226 1.07245,0.12418 c -0.15805,0.98213 -0.33867,1.95298 -0.508,2.91254 -0.33867,1.95298 -0.44027,2.63031 -0.59832,3.38667 -0.14675,0.69991 -0.37253,1.25306 -0.74506,1.56915 -0.47414,-0.36124 -0.68863,-0.47413 -0.92569,-0.47413 -0.37254,0 -0.7112,0.18062 -0.76765,0.51929 0.0339,0.39511 0.51929,0.57573 1.03858,0.57573 0.72249,0 1.59174,-0.6096 2.07716,-1.73849 0.2032,-0.44027 0.32738,-0.99342 0.48542,-1.84009 l 0.93698,-4.91067 1.03858,-0.12418 0.0903,-0.46284 h -3.10445 z"
             id="path1703" />
          <path
             d="m 177.33293,107.9448 c 0,-0.99342 0.42897,-1.89654 0.97084,-2.46098 0.4064,-0.41769 0.88054,-0.65476 1.24178,-0.65476 0.23707,0 0.47413,0.0903 0.68862,0.21449 l -0.6096,2.83352 c -0.74506,0.8128 -1.2192,1.08373 -1.61431,1.08373 -0.4064,0 -0.67733,-0.32738 -0.67733,-1.016 z m 2.70933,1.79494 c 0.75636,0 1.46756,-0.72249 1.90783,-1.37725 l -0.27094,-0.21449 c -0.39511,0.48542 -0.82409,0.8128 -1.10631,0.8128 -0.14676,0 -0.27093,-0.0903 -0.27093,-0.24835 0,-0.12418 0.0339,-0.36125 0.1016,-0.64347 l 0.90311,-3.99627 -0.2032,-0.1016 -0.51929,0.41769 c -0.18062,-0.19191 -0.38382,-0.3048 -0.64347,-0.3048 -1.45627,0 -3.48827,2.35938 -3.48827,4.32364 0,0.93698 0.53058,1.3321 1.07245,1.3321 0.6096,0 1.3208,-0.50801 1.97556,-1.25307 -0.0339,0.2032 -0.0452,0.38382 -0.0452,0.59831 0,0.45155 0.28222,0.65476 0.58702,0.65476 z"
             id="path1705" />
          <path
             d="m 183.62082,109.61556 0.079,0.0564 0.32737,-0.0339 c 1.15147,-1.17405 2.19005,-2.5513 2.72063,-3.55601 0.54187,-1.00471 0.56444,-1.29822 0.56444,-1.53529 0,-0.18062 -0.0113,-0.24835 -0.0564,-0.31609 -0.0677,-0.079 -0.22578,-0.14675 -0.44027,-0.14675 -0.36124,0 -0.59831,0.23706 -0.59831,0.80151 0,0.11289 0.0226,0.29351 0.0452,0.44027 l 0.079,0.44026 c -0.0113,0.0226 -0.0226,0.0452 -0.0339,0.0677 -0.56444,1.03857 -1.12889,1.91911 -1.9304,2.86738 0,-1.32081 -0.0565,-2.70934 -0.21449,-3.72534 -0.1016,-0.62089 -0.29351,-0.89182 -0.75636,-0.89182 -0.53057,0 -1.02729,0.46284 -1.4224,1.34338 l 0.25965,0.18062 c 0.39511,-0.58703 0.56444,-0.74507 0.76764,-0.74507 0.15805,0 0.25965,0.079 0.31609,0.53058 0.15805,1.19662 0.24836,2.44969 0.29351,4.22205 z"
             id="path1707" />
          <path
             d="m 188.32827,107.9448 c 0,-0.99342 0.42898,-1.89654 0.97085,-2.46098 0.4064,-0.41769 0.88053,-0.65476 1.24178,-0.65476 0.23706,0 0.47413,0.0903 0.68862,0.21449 l -0.6096,2.83352 c -0.74507,0.8128 -1.2192,1.08373 -1.61431,1.08373 -0.4064,0 -0.67734,-0.32738 -0.67734,-1.016 z m 2.70934,1.79494 c 0.75635,0 1.46756,-0.72249 1.90782,-1.37725 L 192.6745,108.148 c -0.39511,0.48542 -0.82409,0.8128 -1.10631,0.8128 -0.14676,0 -0.27094,-0.0903 -0.27094,-0.24835 0,-0.12418 0.0339,-0.36125 0.1016,-0.64347 l 0.90312,-3.99627 -0.20321,-0.1016 -0.51928,0.41769 c -0.18063,-0.19191 -0.38383,-0.3048 -0.64347,-0.3048 -1.45627,0 -3.48827,2.35938 -3.48827,4.32364 0,0.93698 0.53058,1.3321 1.07244,1.3321 0.6096,0 1.3208,-0.50801 1.97556,-1.25307 -0.0339,0.2032 -0.0452,0.38382 -0.0452,0.59831 0,0.45155 0.28222,0.65476 0.58702,0.65476 z"
             id="path1709" />
        </g>
      </g>
      <path
         id="rect2301"
         style="fill:#a20000;stroke-width:0.467431"
         d="m 119.44775,100.50271 h 4.22124 v 0.39398 h -4.22124 z" />
      <path
         id="rect2301-1"
         style="fill:#a20000;stroke-width:0.467431"
         d="m 119.44775,101.37963 h 4.22124 v 0.39398 h -4.22124 z" />
    </g>
  </g>
</svg>
