<?xml version="1.0" encoding="UTF-8" standalone="no"?>
<!-- Created with Inkscape (http://www.inkscape.org/) -->

<svg
   width="512"
   height="512"
   viewBox="0 0 135.46666 135.46667"
   version="1.1"
   id="svg1"
   xml:space="preserve"
   inkscape:version="1.4.1 (unknown)"
   sodipodi:docname="frame1.svg"
   inkscape:export-filename="frame1.png"
   inkscape:export-xdpi="192"
   inkscape:export-ydpi="192"
   xmlns:inkscape="http://www.inkscape.org/namespaces/inkscape"
   xmlns:sodipodi="http://sodipodi.sourceforge.net/DTD/sodipodi-0.dtd"
   xmlns="http://www.w3.org/2000/svg"
   xmlns:svg="http://www.w3.org/2000/svg"><sodipodi:namedview
     id="namedview1"
     pagecolor="#505050"
     bordercolor="#ffffff"
     borderopacity="1"
     inkscape:showpageshadow="0"
     inkscape:pageopacity="0"
     inkscape:pagecheckerboard="1"
     inkscape:deskcolor="#d1d1d1"
     inkscape:document-units="px"
     inkscape:zoom="16"
     inkscape:cx="196.3125"
     inkscape:cy="150.4375"
     inkscape:window-width="3840"
     inkscape:window-height="2038"
     inkscape:window-x="0"
     inkscape:window-y="0"
     inkscape:window-maximized="1"
     inkscape:current-layer="layer1" /><defs
     id="defs1" /><g
     inkscape:label="Layer 1"
     inkscape:groupmode="layer"
     id="layer1"><rect
       style="fill:#ffffff;fill-opacity:1;stroke-width:2.11667;stroke-linecap:round;stroke-dashoffset:34.0157;paint-order:fill markers stroke"
       id="rect1"
       width="135.46666"
       height="135.46666"
       x="3.0517579e-06"
       y="2.4949952e-06" /><g
       id="g2"
       transform="translate(13.229166,3.5718749)"><path
         style="baseline-shift:baseline;display:inline;overflow:visible;vector-effect:none;fill:#714433;fill-opacity:1;stroke-width:0.8507;stroke-linecap:round;stroke-linejoin:round;paint-order:fill markers stroke;enable-background:accumulate;stop-color:#000000"
         d="m 109.84119,119.62295 a 8.1600992,5.5134802 21.291475 0 1 5.60111,8.1002 8.1600992,5.5134802 21.291475 0 1 -9.60514,2.17412 8.1600992,5.5134802 21.291475 0 1 -5.60112,-8.1002 8.1600992,5.5134802 21.291475 0 1 9.60515,-2.17412 z"
         id="path73" /><circle
         style="fill:#000000;fill-opacity:1;stroke:none;stroke-width:1.80065;stroke-linecap:round;stroke-linejoin:round;stroke-dasharray:none;stroke-opacity:1;paint-order:fill markers stroke"
         id="path70"
         cx="104.15308"
         cy="121.52258"
         r="0.69216245" /><circle
         style="fill:#000000;fill-opacity:1;stroke:none;stroke-width:1.80065;stroke-linecap:round;stroke-linejoin:round;stroke-dasharray:none;stroke-opacity:1;paint-order:fill markers stroke"
         id="path70-9"
         cx="103.02532"
         cy="122.87476"
         r="0.69216245" /><path
         style="fill:none;fill-opacity:0.438131;stroke:#4d2d21;stroke-width:0.675243;stroke-linecap:round;stroke-linejoin:round;stroke-dasharray:none;stroke-opacity:1;paint-order:fill markers stroke"
         d="m 105.783,123.01856 c 3.40262,0.90265 6.6129,2.57462 9.77959,4.4209"
         id="path72"
         sodipodi:nodetypes="cc" /><path
         id="rect53-4-159"
         style="fill:#47291f;fill-opacity:1;stroke-width:0.675243;stroke-linecap:round;stroke-linejoin:round;paint-order:markers stroke fill"
         d="m 101.37247,120.38387 c -0.7679,5.55053 15.45255,11.86045 11.84941,1.72811 11.08909,8.46103 -17.004914,14.21661 -11.84941,-1.72811 z"
         sodipodi:nodetypes="ccc" /><path
         style="baseline-shift:baseline;display:inline;overflow:visible;vector-effect:none;fill:#000000;fill-opacity:1;stroke-width:0.8507;stroke-linecap:round;stroke-linejoin:round;paint-order:fill markers stroke;enable-background:accumulate;stop-color:#000000"
         d="m 99.39783,121.46995 c -0.683587,1.75409 -0.225114,3.69973 0.90932,5.34031 1.13441,1.64057 2.95104,3.04743 5.20376,3.92533 2.25269,0.87791 4.54223,1.07128 6.48762,0.63094 1.94538,-0.44034 3.59949,-1.56268 4.28307,-3.31676 0.68359,-1.75408 0.22451,-3.69818 -0.90991,-5.33875 -1.13443,-1.64059 -2.95045,-3.04898 -5.20316,-3.92689 -2.2527,-0.8779 -4.54284,-1.06973 -6.48822,-0.62939 -1.94539,0.44033 -3.5989,1.56114 -4.28248,3.31521 z m 1.67661,0.6534 c 0.4221,-1.08309 1.47125,-1.86625 3.00225,-2.21279 1.53098,-0.34654 3.49146,-0.2068 5.43785,0.55173 1.94638,0.75853 3.48288,1.98161 4.37566,3.27271 0.89278,1.29112 1.13534,2.57768 0.71324,3.66077 -0.42209,1.0831 -1.47185,1.8678 -3.00284,2.21434 -1.531,0.34654 -3.48992,0.2074 -5.4363,-0.55113 -1.94639,-0.75852 -3.48444,-1.9822 -4.37722,-3.27331 -0.89277,-1.29112 -1.13473,-2.57922 -0.71264,-3.66232 z"
         id="path74" /><path
         style="fill:#9ba9be;fill-opacity:0.438131;stroke:#000000;stroke-width:1.80065;stroke-linecap:round;stroke-linejoin:round;stroke-dasharray:none;stroke-opacity:1;paint-order:fill markers stroke"
         d="m 102.1659,127.93068 -2.456063,1.92019"
         id="path62"
         sodipodi:nodetypes="cc" /><path
         style="fill:#9ba9be;fill-opacity:0.438131;stroke:#000000;stroke-width:1.80065;stroke-linecap:round;stroke-linejoin:round;stroke-dasharray:none;stroke-opacity:1;paint-order:fill markers stroke"
         d="m 104.53264,129.315 -1.69691,2.50072"
         id="path63" /><path
         style="fill:#9ba9be;fill-opacity:0.438131;stroke:#000000;stroke-width:1.80065;stroke-linecap:round;stroke-linejoin:round;stroke-dasharray:none;stroke-opacity:1;paint-order:fill markers stroke"
         d="m 107.16733,130.38674 -0.0447,2.67934"
         id="path64"
         sodipodi:nodetypes="cc" /><path
         style="fill:#9ba9be;fill-opacity:0.438131;stroke:#000000;stroke-width:1.80065;stroke-linecap:round;stroke-linejoin:round;stroke-dasharray:none;stroke-opacity:1;paint-order:fill markers stroke"
         d="m 108.77493,118.50834 0.0447,-2.85797"
         id="path65"
         sodipodi:nodetypes="cc" /><path
         style="fill:#9ba9be;fill-opacity:0.438131;stroke:#000000;stroke-width:1.80065;stroke-linecap:round;stroke-linejoin:round;stroke-dasharray:none;stroke-opacity:1;paint-order:fill markers stroke"
         d="m 111.231,119.75869 1.78622,-2.23278"
         id="path66"
         sodipodi:nodetypes="cc" /><path
         style="fill:#9ba9be;fill-opacity:0.438131;stroke:#000000;stroke-width:1.80065;stroke-linecap:round;stroke-linejoin:round;stroke-dasharray:none;stroke-opacity:1;paint-order:fill markers stroke"
         d="m 113.01722,121.32164 3.39383,-1.11639"
         id="path67"
         sodipodi:nodetypes="cc" /><path
         style="fill:#9ba9be;fill-opacity:0.438131;stroke:#000000;stroke-width:1.80065;stroke-linecap:round;stroke-linejoin:round;stroke-dasharray:none;stroke-opacity:1;paint-order:fill markers stroke"
         d="m 102.16589,119.4461 c -1.00739,-1.51828 -1.61332,-2.59002 -1.69691,-3.88503"
         id="path68"
         sodipodi:nodetypes="cc" /><path
         style="fill:#9ba9be;fill-opacity:0.438131;stroke:#000000;stroke-width:1.80065;stroke-linecap:round;stroke-linejoin:round;stroke-dasharray:none;stroke-opacity:1;paint-order:fill markers stroke"
         d="m 100.29036,121.27698 c -1.738705,-0.367 -2.88323,-0.45973 -4.420906,-0.40189"
         id="path69"
         sodipodi:nodetypes="cc" /><path
         style="fill:none;fill-opacity:0.438131;stroke:#000000;stroke-width:1.80065;stroke-linecap:round;stroke-linejoin:round;stroke-dasharray:none;stroke-opacity:1;paint-order:fill markers stroke"
         d="m 109.62339,119.71404 c -3.32127,2.64957 -5.21422,5.07586 -6.92162,7.72542"
         id="path71"
         sodipodi:nodetypes="cc" /><path
         style="fill:none;fill-opacity:0.482353;stroke:#010101;stroke-width:0.900322;stroke-linecap:round;stroke-linejoin:round;stroke-dasharray:none;stroke-opacity:1;paint-order:fill markers stroke"
         d="m 92.781162,123.42353 c -0.831013,-1.19772 -1.618743,-2.41311 -1.473055,-4.00993"
         id="path75"
         sodipodi:nodetypes="cc" /><path
         style="fill:none;fill-opacity:1;stroke:#010101;stroke-width:0.900322;stroke-linecap:round;stroke-linejoin:round;stroke-dasharray:none;stroke-opacity:1;paint-order:fill markers stroke"
         d="m 95.09289,122.9933 c -1.159992,-0.58307 -1.804707,-1.67492 -1.882067,-2.99339"
         id="path76"
         sodipodi:nodetypes="cc" /></g><path
       id="rect53-4-9"
       style="fill:#252e33;fill-opacity:1;stroke-width:0.675243;stroke-linecap:round;stroke-linejoin:round;paint-order:markers stroke fill"
       d="m 78.267989,11.99517 c -0.392077,-0.0075 -0.826286,0.0086 -1.305647,0.05056 -7.88548,0.68989 -34.809433,2.777698 -42.815963,17.108801 -3.415041,0.741311 -7.229274,0.668349 -8.371083,7.850143 l -3.524366,0.0655 -0.762726,4.713515 -3.717355,0.437853 c -1.144085,6.738302 0.772491,13.290537 5.777814,18.963962 -7.519846,6.76105 -7.188878,10.714236 -4.638781,17.503133 l -0.08572,3.141464 c -4.614286,1.693559 -6.171395,4.352246 -7.775409,6.996417 l 4.589545,0.36268 c 0.02798,3.809202 0.07116,7.618484 3.115527,11.427702 1.862341,-0.42332 3.566931,-1.162221 5.270502,-1.903079 0.332898,0.456673 1.274824,0.613236 1.124966,1.575569 0.346462,0.32314 0.804723,0.7466 1.452916,1.34608 -0.202045,1.0106 -0.393013,2.37303 -0.393013,2.37303 1.40719,1.29006 3.402622,2.19364 6.906737,2.14838 l 0.580727,1.68239 c 3.327723,0.32529 4.204099,-2.02375 6.22358,-3.12563 1.93776,1.22922 4.345395,2.17849 7.212267,2.74405 l 0.113859,-4.53371 C 36.752508,96.179849 40.186205,80.151022 45.812789,76.859851 52.238768,73.101087 63.290542,72.147233 72.462918,75.246476 92.199209,74.365824 101.23592,52.856565 101.54322,45.524781 l -1.978249,-0.549515 0.119132,-9.827515 c 3.000647,-2.808089 6.760247,-8.092835 5.173787,-11.043481 -1.58645,-2.950646 -15.723032,-4.482346 -25.626712,-4.473047 1.366764,-2.135073 4.917961,-7.523731 -0.963189,-7.636053 z m -49.557847,70.888237 7.05005,0.49852 -0.541601,2.895721 -2.095189,0.39653 -1.08628,2.056502 -2.562935,0.253656 z" /><path
       id="rect53-4-22"
       style="fill:#151d23;fill-opacity:1;stroke-width:0.675243;stroke-linecap:round;stroke-linejoin:round;paint-order:markers stroke fill"
       d="m 39.11165,44.036641 c 0,0 1.883771,0.226169 3.466278,-0.450313 1.582507,-0.676484 1.055693,-2.810867 2.704237,-3.453443 1.648543,-0.642577 3.502108,-0.07549 3.502108,-0.07549 l -0.870596,2.628861 -1.95534,0.782358 -1.853368,2.856115 c 1.976958,6.818165 2.099692,12.805128 1.233471,18.348766 -3.448402,-6.50455 -4.899563,-13.553801 -6.22679,-20.636852 z"
       sodipodi:nodetypes="czzcccccc" /><path
       id="rect53-4-68"
       style="fill:#151d23;fill-opacity:1;stroke-width:0.675243;stroke-linecap:round;stroke-linejoin:round;paint-order:markers stroke fill"
       d="m 56.873362,40.65881 c 0,0 2.354793,-0.103877 2.792469,-0.490833 0.437676,-0.386956 0.503289,-1.654189 0.523611,-2.004607 0.09966,-1.718451 0.602743,-1.671777 0.726874,-0.03424 0.02606,0.343744 0.202682,1.543259 0.4038,1.976337 0.201117,0.433077 7.9749,-1.290943 12.301124,-2.908711 -0.220691,2.433969 -0.255049,4.934485 -1.348486,7.056758 -0.86868,-0.340296 -1.482226,-0.903722 -1.969032,-1.816829 -0.256559,0.891932 -0.752761,1.574176 -1.532957,2.007927 -4.432233,0.09806 -8.333701,-0.378883 -11.982676,-1.129356 z"
       sodipodi:nodetypes="czsszcccccc" /><path
       id="rect53-4-2"
       style="fill:#151d23;fill-opacity:1;stroke-width:0.675243;stroke-linecap:round;stroke-linejoin:round;paint-order:markers stroke fill"
       d="m 34.550477,29.838974 c 1.961072,-3.92432 5.5478,-9.063437 12.997586,-11.571719 -16.667261,9.738533 18.673889,14.460933 31.048871,2.910564 -9.991529,9.815303 -20.966382,19.874188 -35.01043,14.980347 l -0.582592,1.5164 -2.782147,1.14726 c -0.86936,-3.792329 -0.608333,-7.461833 -5.671288,-8.982852 z"
       sodipodi:nodetypes="ccccccc" /><path
       id="rect53-4-4"
       style="fill:#151d23;fill-opacity:1;stroke-width:0.675243;stroke-linecap:round;stroke-linejoin:round;paint-order:markers stroke fill"
       d="m 78.940357,19.790735 2.83038,0.405072 c 0,0 -2.173465,3.869696 -1.516767,4.497617 0.656699,0.627921 10.833407,0.02427 10.833407,0.02427 l -9.876055,3.352927 -4.498857,-4.244083 z"
       sodipodi:nodetypes="cczcccc" /><path
       id="rect53-4-49"
       style="fill:#151d23;fill-opacity:1;stroke-width:0.675243;stroke-linecap:round;stroke-linejoin:round;paint-order:markers stroke fill"
       d="m 75.674059,35.736935 c 0,0 1.915023,-0.944879 2.892004,-1.37477 1.526021,-0.67148 1.483299,-0.165909 0.432476,1.133337 -0.535443,0.662026 -1.755121,2.774539 -1.755121,2.774539 0,0 2.416289,0.01811 3.626384,0.01661 1.066669,-0.0013 0.515315,0.33604 -0.205738,1.367192 -0.287483,0.411118 -0.898711,0.808563 -0.682554,1.239447 0.216158,0.430885 2.775625,1.423233 3.150269,2.186238 0.374645,0.763006 -0.309822,1.861628 0.02368,2.414613 0.333495,0.552987 1.745243,0.915517 2.945867,1.503756 1.200625,0.588239 3.710685,2.371175 3.710685,2.371175 l 0.243211,1.947024 -2.918158,0.823742 -2.52699,-2.836799 -2.781158,-0.616586 -1.161417,-4.482144 -1.581946,-1.307738 -0.458281,-2.188615 -2.346441,-2.333625 z"
       sodipodi:nodetypes="csscsszzzzcccccccccc" /><path
       id="rect53-4-7"
       style="fill:#151d23;fill-opacity:1;stroke-width:0.675243;stroke-linecap:round;stroke-linejoin:round;paint-order:markers stroke fill"
       d="m 81.746651,49.022771 2.800776,0.505803 C 83.865892,55.424016 81.713569,61.584023 76.505143,67.156769 74.058019,66.599177 71.023507,66.371198 68.696905,64.728909 83.06775,60.377857 81.762824,53.91411 81.746651,49.022771 Z"
       sodipodi:nodetypes="ccccc" /><path
       id="rect53-4-6"
       style="fill:#ffffff;fill-opacity:1;stroke-width:0.675243;stroke-linecap:round;stroke-linejoin:round;paint-order:markers stroke fill"
       d="m 81.840146,28.375069 c 5.127182,-1.866053 10.34779,-3.327257 15.769627,-3.916472 5.353707,-0.825317 5.176867,2.55466 1.698959,7.077952 -2.402395,3.124495 -6.225323,6.929744 -11.519981,9.71879 -0.592862,-4.742107 -3.263049,-9.202983 -5.948605,-12.88027 z"
       sodipodi:nodetypes="ccscc" /><g
       id="g54"
       transform="matrix(0.85070023,0,0,0.85070023,7.85673,7.577514)"><path
         style="baseline-shift:baseline;display:inline;overflow:visible;opacity:1;vector-effect:none;fill:#e7524b;fill-opacity:1;stroke-linecap:round;stroke-linejoin:round;paint-order:markers stroke fill;enable-background:accumulate;stop-color:#000000;stop-opacity:1"
         d="M 99.503906,23.455078 C 94.328487,23.812095 88.507812,25.4375 88.507812,25.4375 a 0.79374999,0.79374999 0 0 0 -0.552734,0.978516 0.79374999,0.79374999 0 0 0 0.978516,0.550781 c 0,0 5.755592,-1.588055 10.679687,-1.927735 1.216169,-0.08389 2.084609,-0.02485 2.570309,0.105469 0.4857,0.130322 0.48458,0.206239 0.5,0.277344 0.0154,0.0711 -0.027,0.429798 -0.36132,0.976562 -0.33436,0.546765 -0.90569,1.249769 -1.66407,2.052735 -2.911966,3.083202 -8.124997,4.99414 -8.124997,4.99414 a 0.79374999,0.79374999 0 0 0 -0.482422,1.013672 0.79374999,0.79374999 0 0 0 1.013672,0.480469 c 0,0 5.425422,-1.880432 8.748047,-5.398437 0.80028,-0.847337 1.43063,-1.606939 1.86328,-2.314454 0.43266,-0.707514 0.72259,-1.393537 0.56055,-2.140625 -0.16204,-0.747087 -0.85157,-1.26289 -1.64063,-1.474609 -0.78905,-0.211718 -1.78308,-0.246529 -3.091794,-0.15625 z"
         id="path53" /><path
         style="baseline-shift:baseline;display:inline;overflow:visible;opacity:1;vector-effect:none;fill:#4b87db;fill-opacity:1;stroke-linecap:round;stroke-linejoin:round;paint-order:markers stroke fill;enable-background:accumulate;stop-color:#000000;stop-opacity:1"
         d="m 99.503906,23.455078 c -2.338137,0.161292 -4.807974,0.581466 -6.813292,0.993688 l 1.883304,1.255917 c 1.604162,-0.291691 3.369571,-0.550433 5.039363,-0.665621 1.216169,-0.0839 2.084609,-0.02485 2.570309,0.105469 0.4857,0.130322 0.48458,0.20624 0.5,0.277344 0.0154,0.0711 -0.027,0.429798 -0.36132,0.976562 -0.33436,0.546765 -0.90569,1.249769 -1.66407,2.052735 -0.973994,1.031268 -2.205423,1.931388 -3.413106,2.672716 0,0 -0.881534,2.324275 -0.936609,2.375704 1.750423,-0.90877 3.878775,-2.23777 5.504015,-3.958576 0.80028,-0.847338 1.43063,-1.606939 1.86328,-2.314454 0.43266,-0.707514 0.72259,-1.393537 0.56055,-2.140625 -0.16204,-0.747087 -0.85157,-1.26289 -1.64063,-1.474609 -0.78905,-0.211718 -1.78308,-0.246529 -3.091794,-0.15625 z"
         id="path53-5"
         sodipodi:nodetypes="sccsssccccsssss" /></g><path
       id="rect53-4-1"
       style="fill:#3f546b;fill-opacity:0.430257;stroke-width:0.675243;stroke-linecap:round;stroke-linejoin:round;paint-order:markers stroke fill"
       d="M 81.814594,27.742033 97.297421,25.22652 c 2.058482,-0.13086 3.334529,0.01297 0.984167,1.388704 -4.35664,2.550046 -13.331508,6.861915 -13.331508,6.861915 z"
       sodipodi:nodetypes="ccscc" /><path
       id="rect53-4-73"
       style="fill:#3b484f;fill-opacity:1;stroke-width:0.675243;stroke-linecap:round;stroke-linejoin:round;paint-order:markers stroke fill"
       d="m 17.654982,42.063043 6.404451,-0.02646 2.234916,4.340854 2.747795,-3.65609 10.950691,2.240407 c 2.377754,8.778072 3.153987,25.763947 8.866642,17.450654 6.239503,1.765393 12.148467,2.649354 17.705936,2.595987 4.364629,1.327702 8.802886,2.949913 12.732045,2.535737 4.180864,-5.058391 5.689549,-10.384 7.712651,-15.658166 l 2.992917,-0.686155 -0.203108,-4.564735 -1.287883,-3.057483 3.423447,0.559961 1.781835,3.180681 3.380674,-2.794981 4.951419,0.967775 C 99.128085,54.68936 95.111249,71.110073 72.992894,75.832552 L 48.837032,90.046487 47.230805,107.24617 C 26.404739,101.41953 37.791938,80.400409 39.054283,74.477412 18.551497,65.493252 16.142517,45.536306 17.654982,42.063043 Z"
       sodipodi:nodetypes="ccccccccccccccccccccc" /><g
       id="g60"
       transform="matrix(0.85070023,0,0,0.85070023,7.85673,7.577514)"><path
         id="rect53-4-626"
         style="fill:#3479d8;fill-opacity:1;stroke-width:0.79375;stroke-linecap:round;stroke-linejoin:round;paint-order:markers stroke fill"
         d="m 14.016845,83.37028 11.138078,4.542729 -1.26187,2.650721 -11.074984,-4.353449 z"
         sodipodi:nodetypes="ccccc" /><path
         id="rect53-4-626-8"
         style="fill:#e34f48;fill-opacity:1;stroke-width:0.79375;stroke-linecap:round;stroke-linejoin:round;paint-order:markers stroke fill"
         d="m 14.016845,83.37028 6.304328,2.571256 -1.285748,2.712716 -6.217356,-2.443971 z"
         sodipodi:nodetypes="ccccc" /></g><path
       id="rect53-4-15"
       style="fill:#0a0c0f;fill-opacity:0.540493;stroke-width:0.675243;stroke-linecap:round;stroke-linejoin:round;paint-order:markers stroke fill"
       d="m 26.714353,65.7557 c 3.742429,3.37176 6.959418,7.093816 12.362301,9.358607 l -2.652834,7.88851 -6.840677,0.240127 -0.829605,1.933364 c 0.945558,2.206469 1.61596,6.759283 0.266114,9.040677 -1.980733,3.347676 -10.2638,6.618775 -10.2638,6.618775 -0.989364,-6.612871 0.701549,-12.481221 3.22615,-18.117988 l 1.160801,-3.506427 C 19.733392,70.52132 24.450908,68.942549 26.714353,65.7557 Z"
       sodipodi:nodetypes="cccccscccc" /><path
       style="fill:none;fill-opacity:0.505882;stroke:#357ad7;stroke-width:1.35049;stroke-linecap:round;stroke-linejoin:round;stroke-dasharray:none;stroke-opacity:1;paint-order:markers stroke fill"
       d="m 17.948224,43.281779 4.917741,-0.507076 c 0.03288,1.74268 0.295522,2.793867 2.098205,4.302039 0.641781,0.536932 4.321245,1.99638 3.617464,3.549577 -0.70378,1.553195 -2.076749,1.168035 -2.96587,0.0079 -0.580116,-0.756935 1.386735,-2.528724 2.673931,-4.185474 0.685637,-0.882482 0.564755,-0.929819 1.122224,-2.550676 2.748784,0.07638 5.93597,0.740161 10.033347,2.434856"
       id="path56"
       sodipodi:nodetypes="ccszsscc" /><path
       style="fill:none;fill-opacity:0.505882;stroke:#357ad7;stroke-width:1.35049;stroke-linecap:round;stroke-linejoin:round;stroke-dasharray:none;stroke-opacity:1;paint-order:markers stroke fill"
       d="m 88.478971,44.770184 2.184039,-0.02309 1.936555,4.299998 c 0,0 2.347125,1.70166 1.155668,2.55312 -1.191454,0.85146 -1.287924,0.453866 -2.003305,-0.464914 -0.633175,-0.813199 0.854427,-1.558101 1.653055,-1.990951 1.79183,-0.971156 3.063788,-2.53329 3.589623,-3.726618 l 4.433574,0.934762"
       id="path57"
       sodipodi:nodetypes="ccczsscc" /><path
       id="rect53-4-3"
       style="fill:#1f2830;fill-opacity:0.529412;stroke-width:0.675243;stroke-linecap:round;stroke-linejoin:round;paint-order:markers stroke fill"
       d="m 93.690427,46.929481 3.16913,-2.488477 4.690433,0.592239 c -2.392964,8.512352 -6.616937,26.859371 -29.341908,30.902832 -0.879377,-2.802364 -2.391765,-5.478124 -4.407551,-8.053204 l -7.839257,-0.135234 2.774979,-2.417348 4.074592,-0.09527 2.265173,-0.14718 c 2.652059,1.851616 6.490921,2.279071 10.243435,2.810143 5.614201,-5.547707 12.289966,-9.405677 14.370974,-20.968498 z"
       sodipodi:nodetypes="ccccccccccc" /><path
       id="rect53-4-94"
       style="fill:#1f2830;fill-opacity:0.53065;stroke-width:0.675243;stroke-linecap:round;stroke-linejoin:round;paint-order:markers stroke fill"
       d="m 17.681726,42.32526 6.480203,-0.341025 2.227244,4.571739 c 2.049643,8.0487 4.101157,16.097928 16.358603,27.031441 0.710043,5.709596 -8.696633,19.042127 4.380024,30.100685 l 0.02867,3.74967 C 26.758649,101.98478 36.786267,81.885815 39.081028,74.866258 23.891613,69.973996 16.352926,49.481245 17.681726,42.32526 Z"
       sodipodi:nodetypes="cccccccc" /><path
       id="rect53-4-44"
       style="fill:#ffffff;fill-opacity:1;stroke-width:0.675243;stroke-linecap:round;stroke-linejoin:round;paint-order:markers stroke fill"
       d="m 22.561551,37.192636 c 5.675797,-1.088396 11.351595,0.71721 17.027393,2.35996 l -0.372625,4.474935 -10.382243,-1.552606 -2.498983,4.25936 -2.108122,-4.98067 -2.222479,-0.845954 z"
       sodipodi:nodetypes="cccccccc" /><path
       id="rect53-4-17"
       style="fill:#ffffff;fill-opacity:1;stroke-width:0.675243;stroke-linecap:round;stroke-linejoin:round;paint-order:markers stroke fill"
       d="m 94.733351,39.807849 5.075592,0.542567 -0.542568,3.35499 -2.327601,0.648423 -3.859133,3.508008 -1.279837,-3.546489 -2.492125,-1.695076 z"
       sodipodi:nodetypes="cccccccc" /><path
       id="rect53-4-178"
       style="fill:#ffe8e0;fill-opacity:1;stroke-width:0.675243;stroke-linecap:round;stroke-linejoin:round;paint-order:markers stroke fill"
       d="m 95.342733,39.148768 4.33003,-3.785253 0.384937,4.290772 z"
       sodipodi:nodetypes="cccc" /><path
       id="rect53-4-64"
       style="fill:#ffffff;fill-opacity:1;stroke-width:0.675243;stroke-linecap:round;stroke-linejoin:round;paint-order:markers stroke fill"
       d="m 40.126575,91.386251 c 0.0082,-19.589395 15.360192,-20.053161 32.334718,-16.31837 5.783404,3.908935 6.204188,11.768813 3.765777,21.587177 L 47.175338,103.70382 C 41.993186,99.111966 40.124762,95.757187 40.126575,91.386251 Z"
       sodipodi:nodetypes="scccs" /><path
       id="rect53-4-85"
       style="fill:#2c3a4b;fill-opacity:0.505882;stroke-width:0.675243;stroke-linecap:round;stroke-linejoin:round;paint-order:markers stroke fill"
       d="m 96.172821,39.75145 c -0.159234,1.95518 -1.224353,5.567693 -2.661152,8.380217 L 90.138884,42.58895 Z"
       sodipodi:nodetypes="cccc" /><path
       style="fill:none;fill-opacity:1;stroke:#232b30;stroke-width:1.35049;stroke-linecap:round;stroke-linejoin:round;stroke-dasharray:none;stroke-opacity:1;paint-order:markers stroke fill"
       d="m 92.336799,40.818169 c 2.144668,-0.25649 5.650659,0.01732 7.095378,1.040723"
       id="path54"
       sodipodi:nodetypes="cc" /><path
       style="fill:none;fill-opacity:1;stroke:#232b30;stroke-width:1.35049;stroke-linecap:round;stroke-linejoin:round;stroke-dasharray:none;stroke-opacity:1;paint-order:markers stroke fill"
       d="m 22.297337,38.063239 c 3.28503,-0.379266 13.672253,0.84647 16.932722,3.209024"
       id="path55"
       sodipodi:nodetypes="cc" /><path
       id="rect53-4-88"
       style="fill:#2c3a4b;fill-opacity:0.50506;stroke-width:0.675243;stroke-linecap:round;stroke-linejoin:round;paint-order:markers stroke fill"
       d="m 22.251993,37.141338 h 6.120963 c -1.579816,2.8559 -2.178459,5.875329 -1.951004,9.03244 l -2.28444,-4.050682 -2.325889,-0.818288 z"
       sodipodi:nodetypes="cccccc" /><path
       id="rect53-4-60"
       style="fill:#b6c4d4;fill-opacity:1;stroke-width:0.675243;stroke-linecap:round;stroke-linejoin:round;paint-order:markers stroke fill"
       d="M 40.654075,83.763493 C 45.038434,81.27087 49.289676,77.507467 55.14425,75.88132 L 48.181663,91.561438 46.916024,102.9468 C 42.386469,98.698576 37.678963,94.606725 40.654075,83.763493 Z"
       sodipodi:nodetypes="ccccc" /><path
       id="rect53-4-97"
       style="fill:#ffe8e0;fill-opacity:1;stroke-width:0.675243;stroke-linecap:round;stroke-linejoin:round;paint-order:markers stroke fill"
       d="m 49.029057,88.99279 c -4.014901,0 -2.417239,-7.983791 0.92678,-10.63446 3.716492,-2.945912 10.661261,-2.135884 16.22615,-2.287752 9.680353,-0.26418 11.802182,5.858 11.335749,11.763366 -0.458561,5.805705 -4.971674,19.545896 -2.779582,26.424296 -3.175126,0.7227 -7.024921,-0.11512 -11.106602,-1.43217 -4.826732,1.90505 -9.844897,1.48098 -16.55783,-1.61528 z"
       sodipodi:nodetypes="cssscccc" /><path
       id="rect53-4-54"
       style="fill:#e0b7aa;fill-opacity:1;stroke-width:0.675243;stroke-linecap:round;stroke-linejoin:round;paint-order:markers stroke fill"
       d="m 62.364881,77.579594 c 2.7147,-1.489769 6.540937,-0.912022 10.278358,0.02717 0,0 -2.562786,0.111551 -3.582002,0.512507 -3.216207,1.265244 3.994277,1.141119 -2.671956,28.408759 l -3.674082,-0.78822 c 0.688614,-9.437071 5.666695,-19.142242 -0.350318,-28.160218 z"
       sodipodi:nodetypes="ccsccc" /><path
       id="rect53-4-69"
       style="fill:#ffffff;fill-opacity:1;stroke-width:0.675243;stroke-linecap:round;stroke-linejoin:round;paint-order:markers stroke fill"
       d="m 47.729148,106.94594 6.775133,0.0521 2.553137,1.64629 1.685894,-1.6221 3.592271,0.026 0.357639,6.67316 c -5.340638,0.23201 -10.491939,-0.41956 -15.423897,-2.09474 z"
       sodipodi:nodetypes="cccccccc" /><path
       id="rect53-4-89"
       style="fill:#333c40;fill-opacity:1;stroke-width:0.675243;stroke-linecap:round;stroke-linejoin:round;paint-order:markers stroke fill"
       d="m 47.694756,108.3437 c 3.327159,0.58509 6.190445,1.38287 6.376676,2.78521 2.431788,0.29745 5.60028,1.38056 8.02593,0.72169 l 0.356561,2.15443 c -5.380974,0.12111 -10.420635,-0.89548 -15.257765,-2.58718 z"
       sodipodi:nodetypes="cccccc" /><path
       id="rect53-4-0"
       style="fill:#e0b7aa;fill-opacity:1;stroke-width:0.675243;stroke-linecap:round;stroke-linejoin:round;paint-order:markers stroke fill"
       d="m 47.25724,82.054004 c 2.917374,-5.253387 10.592878,-5.867841 10.592878,-5.867841 -8.745645,4.535604 -6.521995,18.783114 -6.568478,30.875197 l -3.84924,-0.35032 c 0,0 0.45248,-7.792251 0.714786,-13.908786 -2.734723,-4.033352 -2.191394,-8.404699 -0.889946,-10.74825 z"
       sodipodi:nodetypes="sccccs" /><path
       id="rect53-4-75"
       style="fill:#ffffff;fill-opacity:1;stroke-width:0.675243;stroke-linecap:round;stroke-linejoin:round;paint-order:markers stroke fill"
       d="m 62.752913,106.01105 4.462704,0.42428 1.45534,1.783 1.727277,-1.48043 3.640172,0.34607 0.868554,6.87754 c -5.06063,0.83083 -8.303411,-0.30767 -11.796407,-1.17511 z"
       sodipodi:nodetypes="cccccccc" /><path
       id="rect53-4-21"
       style="fill:#333c40;fill-opacity:1;stroke-width:0.675243;stroke-linecap:round;stroke-linejoin:round;paint-order:markers stroke fill"
       d="m 62.621844,109.21874 c 2.908722,-0.0408 4.444798,1.12586 4.790925,2.21706 2.190971,0.63392 4.65527,0.72118 7.139467,0.76864 v 1.95039 c -4.015162,0.0625 -7.865202,-0.41168 -11.482538,-1.64213 z"
       sodipodi:nodetypes="cccccc" /><path
       style="fill:none;fill-opacity:1;stroke:#e85049;stroke-width:1.35049;stroke-linecap:round;stroke-linejoin:round;stroke-dasharray:none;stroke-opacity:1;paint-order:markers stroke fill"
       d="m 47.566412,110.62115 c 2.595879,1.53019 11.485679,3.91685 14.629881,2.94837"
       id="path58"
       sodipodi:nodetypes="cc" /><path
       style="fill:none;fill-opacity:1;stroke:#e85049;stroke-width:1.35049;stroke-linecap:round;stroke-linejoin:round;stroke-dasharray:none;stroke-opacity:1;paint-order:markers stroke fill"
       d="m 63.129322,111.92739 c 3.222034,1.34361 8.660154,2.38368 11.233659,1.90337"
       id="path59"
       sodipodi:nodetypes="cc" /><path
       id="rect53-4-62"
       style="fill:#26313f;fill-opacity:0.526713;stroke-width:0.675243;stroke-linecap:round;stroke-linejoin:round;paint-order:markers stroke fill"
       d="m 62.598959,105.88293 3.780591,0.57771 -0.743801,6.85041 -2.844221,-0.0963 z"
       sodipodi:nodetypes="ccccc" /><path
       id="rect53-4-08"
       style="fill:#26313f;fill-opacity:0.52549;stroke-width:0.675243;stroke-linecap:round;stroke-linejoin:round;paint-order:markers stroke fill"
       d="m 47.576039,106.66821 3.73064,0.26558 0.557851,5.91083 -4.962484,-0.96284 z"
       sodipodi:nodetypes="ccccc" /><g
       id="g59"
       transform="matrix(0.85070023,0,0,0.85070023,7.85673,7.577514)"><path
         id="rect53-4-8"
         style="fill:#e85049;fill-opacity:1;stroke-width:0.79375;stroke-linecap:round;stroke-linejoin:round;paint-order:markers stroke fill"
         d="m 23.788244,104.36447 c 2.256972,1.79468 4.415216,4.32411 8.924264,3.72444 l 1.592647,2.77582 c -5.075704,1.18713 -8.161376,-3.40894 -10.516911,-6.50026 z"
         sodipodi:nodetypes="cccc" /><path
         id="rect53-4-8-5"
         style="fill:#3377d6;fill-opacity:1;stroke-width:0.79375;stroke-linecap:round;stroke-linejoin:round;paint-order:markers stroke fill"
         d="m 23.788244,104.36447 c 2.256972,1.79468 5.135542,5.66472 9.64459,5.06505 l 0.872321,1.43521 c -5.075704,1.18713 -8.161376,-3.40894 -10.516911,-6.50026 z"
         sodipodi:nodetypes="cccc" /></g><path
       id="rect53-4-5"
       style="fill:#ffffff;fill-opacity:1;stroke-width:0.675243;stroke-linecap:round;stroke-linejoin:round;paint-order:markers stroke fill"
       d="m 25.766984,102.52062 c 4.881763,1.95098 7.655678,0.60254 8.085042,0.91141 0.429364,0.30888 -1.616855,2.11264 4.398364,-0.38893 l 1.389018,1.67187 c -2.297332,1.18841 -4.927628,5.29024 -6.643008,1.38656 -5.431336,0.52127 -6.535358,-2.19949 -7.229416,-3.58091 z"
       sodipodi:nodetypes="czcccc" /><path
       id="rect53-4-91"
       style="fill:#0c1013;fill-opacity:0.398761;stroke-width:0.675243;stroke-linecap:round;stroke-linejoin:round;paint-order:markers stroke fill"
       d="m 28.833501,95.108842 c 1.699272,1.056034 2.761176,3.01501 6.480099,1.209866 0.917488,2.523016 0.776481,4.921492 4.531577,7.778332 -3.304106,3.83681 -5.940104,5.12955 -6.389333,1.82915 -4.89653,1.23369 -8.538113,-0.82501 -7.081819,-3.63395 l -2.178348,-3.49517 z"
       sodipodi:nodetypes="ccccccc" /><path
       id="rect53-4-629"
       style="fill:#ffe8e0;fill-opacity:1;stroke-width:0.675243;stroke-linecap:round;stroke-linejoin:round;paint-order:markers stroke fill"
       d="m 28.93478,31.147714 c 4.08761,-2.881003 8.673781,-1.177275 9.956217,1.426138 1.282438,2.603414 1.1259,6.879793 1.1259,6.879793 L 25.557083,36.789017 c 0,0 -0.709913,-2.7603 3.377697,-5.641303 z"
       sodipodi:nodetypes="zzccz" /><path
       id="rect53-4-31"
       style="fill:#e2bbae;fill-opacity:1;stroke-width:0.675243;stroke-linecap:round;stroke-linejoin:round;paint-order:markers stroke fill"
       d="m 34.505451,30.220322 c -2.98501,1.187761 -4.250993,3.980917 -5.323392,6.902751 l -3.290514,-0.658476 c 0.98267,-4.795768 5.133626,-6.567165 8.613906,-6.244275 z"
       sodipodi:nodetypes="cccc" /><path
       id="rect53-4-03"
       style="fill:#ffe8e0;fill-opacity:1;stroke-width:0.675243;stroke-linecap:round;stroke-linejoin:round;paint-order:markers stroke fill"
       d="m 57.048371,36.721175 -0.04386,6.748271 11.584468,1.113675 1.558704,-1.494574 2.009362,1.462683 1.179771,-9.427663 c 4.611173,1.65034 5.944826,8.763212 8.547204,13.76154 -0.0316,20.380458 -23.856589,15.880829 -33.382852,13.020507 l -1.082156,-19.324605 1.571866,-2.289476 2.31771,-0.753832 0.769875,-1.961999 z"
       sodipodi:nodetypes="ccccccccccccc" /><path
       id="rect53-4-66"
       style="fill:#e0b7ab;fill-opacity:1;stroke-width:0.675243;stroke-linecap:round;stroke-linejoin:round;paint-order:markers stroke fill"
       d="m 74.360095,35.78576 2.480652,0.01578 2.278058,6.992353 -0.185911,1.195894 c -2.1942,-0.752902 -2.278321,-2.234418 -1.476185,-3.388059 -2.269999,-0.398991 -3.082308,-3.035638 -3.096614,-4.815967 z"
       sodipodi:nodetypes="cccccc" /><path
       id="rect53-4-93"
       style="fill:#e0b7ab;fill-opacity:1;stroke-width:0.675243;stroke-linecap:round;stroke-linejoin:round;paint-order:markers stroke fill"
       d="m 51.488667,37.001082 c 0.142156,-2.042883 6.130513,-0.398757 6.130513,-0.398757 l -0.705481,6.952882 12.502052,0.224207 1.101267,-0.962966 1.974874,1.616757 -0.04236,2.207501 -2.974288,0.598683 0.525802,-2.943285 -0.910223,0.545694 c 0,0 -0.192484,1.549352 -0.540412,1.933594 -0.347929,0.384242 -14.492942,-0.812712 -14.492942,-0.812712 -0.259158,-2.647091 -0.151794,-5.294183 0.559186,-7.941275 l -1.899238,0.298693 c 0.447511,2.658507 -0.662706,4.430888 -4.578605,5.550132 l 0.359185,-2.933889 c 0,0 2.79603,-1.138138 2.99067,-3.935259 z"
       sodipodi:nodetypes="sccccccccczcccccs" /><path
       style="fill:none;stroke:#000000;stroke-width:2.02573;stroke-linecap:round;stroke-linejoin:round;stroke-dasharray:none;stroke-opacity:0.996078;paint-order:markers stroke fill"
       d="M 34.085743,29.753551 C 42.632595,14.774319 58.657757,15.210123 73.123689,12.160164 87.58962,9.1102055 81.62575,19.454302 69.4831,30.472848 64.485417,35.007871 52.90694,39.219581 42.126572,35.690522"
       id="path1"
       sodipodi:nodetypes="czsc" /><path
       style="fill:none;stroke:#000000;stroke-width:2.02573;stroke-linecap:round;stroke-linejoin:round;stroke-dasharray:none;stroke-opacity:0.996078;paint-order:markers stroke fill"
       d="m 79.469696,19.92628 c 20.2116,-0.315666 28.660504,1.606349 24.798464,9.117719 -2.75043,5.349382 -6.974499,8.476329 -15.746206,14.422703"
       id="path2"
       sodipodi:nodetypes="csc" /><path
       style="fill:none;stroke:#000000;stroke-width:2.02573;stroke-linecap:round;stroke-linejoin:round;stroke-dasharray:none;stroke-opacity:0.996078;paint-order:markers stroke fill"
       d="m 76.369578,24.065565 c 8.30053,5.921542 11.636139,13.233262 11.616579,21.484429 2.61411,-0.334985 3.576584,4.731199 1.442284,6.12687 -1.417783,0.927123 -3.595896,0.952029 -4.622988,-2.388089 -0.88543,-0.723885 -2.18314,-0.745352 -3.002314,-0.366224"
       id="path3"
       sodipodi:nodetypes="ccscc" /><path
       style="fill:none;stroke:#000000;stroke-width:2.02573;stroke-linecap:round;stroke-linejoin:round;stroke-dasharray:none;stroke-opacity:0.996078;paint-order:markers stroke fill"
       d="M 86.699011,52.35355 C 85.395515,58.186348 81.722882,66.438 79.407241,67.39283 77.0916,68.34766 71.361602,67.361524 67.785979,64.886282"
       id="path4"
       sodipodi:nodetypes="czc" /><path
       style="fill:none;stroke:#000000;stroke-width:2.02573;stroke-linecap:round;stroke-linejoin:round;stroke-dasharray:none;stroke-opacity:0.996078;paint-order:markers stroke fill"
       d="m 84.875552,39.462599 4.327891,3.44465"
       id="path5" /><path
       style="fill:none;stroke:#000000;stroke-width:2.02573;stroke-linecap:round;stroke-linejoin:round;stroke-dasharray:none;stroke-opacity:0.996078;paint-order:markers stroke fill"
       d="m 81.342577,27.980436 c 5.961344,-1.831557 11.002975,-3.071057 17.664871,-3.268001"
       id="path7"
       sodipodi:nodetypes="cc" /><path
       style="fill:none;stroke:#000000;stroke-width:2.02573;stroke-linecap:round;stroke-linejoin:round;stroke-dasharray:none;stroke-opacity:0.996078;paint-order:markers stroke fill"
       d="m 48.132627,93.958713 c -0.952926,-4.108091 -2.966173,-10.086026 0.635029,-13.989048 1.583277,-1.715974 4.180545,-3.529641 8.550701,-3.76414 14.310177,-0.767877 4.857841,30.648535 4.857841,30.648535 -0.139859,2.6571 1.229755,6.35464 -0.01965,7.16016 -1.258386,0.8113 -4.734501,0.20613 -7.687999,-0.46061 -4.091816,-0.92372 -8.022632,-2.09564 -7.287635,-3.45342 0.474282,-8.55786 1.569985,-16.200363 2.629877,-24.885585"
       id="path8"
       sodipodi:nodetypes="csscsscc" /><path
       style="fill:none;stroke:#000000;stroke-width:2.02573;stroke-linecap:round;stroke-linejoin:round;stroke-dasharray:none;stroke-opacity:0.996078;paint-order:markers stroke fill"
       d="m 61.911223,77.707036 c 4.556835,-1.889985 11.688289,-1.551424 13.248652,1.501514 4.84744,9.484279 0.618498,18.542567 -1.353527,27.57226"
       id="path9"
       sodipodi:nodetypes="csc" /><path
       style="fill:none;stroke:#000000;stroke-width:2.02573;stroke-linecap:round;stroke-linejoin:round;stroke-dasharray:none;stroke-opacity:0.996078;paint-order:markers stroke fill"
       d="m 62.839072,105.90209 4.245211,0.61625 c 0.431551,0.69477 0.877706,1.17588 1.495215,1.79085 1.191343,-0.59528 0.999609,-0.87148 1.894893,-1.49467 l 3.741494,-0.0324 c -0.345127,2.5368 1.154323,6.91845 0.123672,7.47772 -1.700416,0.92271 -7.611158,-0.38121 -11.420866,-1.73832"
       id="path10"
       sodipodi:nodetypes="cccccsc" /><path
       style="fill:none;stroke:#000000;stroke-width:2.02573;stroke-linecap:round;stroke-linejoin:round;stroke-dasharray:none;stroke-opacity:0.996078;paint-order:markers stroke fill"
       d="m 47.706945,106.58681 c 2.302858,0.29998 4.599849,0.60818 7.257942,0.41082 0.540873,0.72193 1.316497,1.24823 2.068279,1.7944 0.71538,-0.52963 1.291997,-1.1425 1.643308,-1.89056 l 3.312654,-0.0129"
       id="path11"
       sodipodi:nodetypes="ccccc" /><path
       style="fill:none;stroke:#000000;stroke-width:2.02573;stroke-linecap:round;stroke-linejoin:round;stroke-dasharray:none;stroke-opacity:0.996078;paint-order:markers stroke fill"
       d="m 99.414839,36.20554 c 0.659781,2.993664 0.40239,5.874433 -0.407391,8.203222"
       id="path12"
       sodipodi:nodetypes="cc" /><path
       style="fill:none;stroke:#000000;stroke-width:2.02573;stroke-linecap:round;stroke-linejoin:round;stroke-dasharray:none;stroke-opacity:0.996078;paint-order:markers stroke fill"
       d="m 93.171797,40.443669 c 2.193105,-0.914223 3.855101,-0.752307 6.436288,0.205414"
       id="path13"
       sodipodi:nodetypes="cc" /><path
       style="fill:none;stroke:#000000;stroke-width:2.02573;stroke-linecap:round;stroke-linejoin:round;stroke-dasharray:none;stroke-opacity:0.996078;paint-order:markers stroke fill"
       d="m 67.402542,64.973047 0.094,2.474527 4.717298,7.525555"
       id="path14"
       sodipodi:nodetypes="ccc" /><path
       style="fill:none;stroke:#000000;stroke-width:1.80065;stroke-linecap:round;stroke-linejoin:round;stroke-dasharray:none;stroke-opacity:0.996078;paint-order:markers stroke fill"
       d="m 57.3215,36.535016 c -0.412083,2.198434 -0.770821,5.917312 -0.343196,6.629346 0.427625,0.712035 11.206195,1.685746 12.030606,1.072867 0.824411,-0.612879 0.605518,-1.124226 1.198641,-1.48351 0.593123,0.334684 0.718742,1.651148 1.927619,1.510167 1.208876,-0.140982 1.211331,-6.571656 0.489497,-11.490254"
       id="path15"
       sodipodi:nodetypes="czzczc" /><g
       id="g51"
       transform="matrix(0.85070023,0,0,0.85070023,7.85673,7.577514)"><path
         style="fill:none;stroke:#2c51a9;stroke-width:1.32292;stroke-linecap:round;stroke-linejoin:round;stroke-dasharray:none;stroke-opacity:1;paint-order:markers stroke fill"
         d="m 66.44066,68.327056 c -3.945224,5.361679 -12.117212,7.083091 -20.586635,6.168201"
         id="path45-1"
         sodipodi:nodetypes="cc" /><path
         style="fill:none;stroke:#3577d1;stroke-width:1.32292;stroke-linecap:round;stroke-linejoin:round;stroke-dasharray:none;stroke-opacity:1;paint-order:markers stroke fill"
         d="M 66.560062,67.885317 C 62.280963,73.781196 54.142363,75.168733 45.67294,74.253843"
         id="path45"
         sodipodi:nodetypes="cc" /></g><path
       style="fill:none;stroke:#000000;stroke-width:2.02573;stroke-linecap:round;stroke-linejoin:round;stroke-dasharray:none;stroke-opacity:0.996078;paint-order:markers stroke fill"
       d="m 70.305242,36.347087 c 2.575111,1.80968 5.97202,2.050472 9.544083,1.956881"
       id="path17"
       sodipodi:nodetypes="cc" /><path
       style="fill:none;stroke:#000000;stroke-width:2.02573;stroke-linecap:round;stroke-linejoin:round;stroke-dasharray:none;stroke-opacity:0.996078;paint-order:markers stroke fill"
       d="m 59.868547,36.278424 c -2.747156,1.085988 -5.794784,1.042125 -7.301842,1.127576 -1.410026,0.07995 -0.740394,1.911743 -1.246634,2.477204 -0.506241,0.565461 -1.837598,0.03807 -2.403187,0.686623 -0.565589,0.648555 -0.0336,1.239817 -0.755286,1.956882 -0.721688,0.717065 -1.449411,-0.05714 -2.059876,0.686624 -0.738833,0.900167 -2.110862,4.644147 -5.59599,4.772041"
       id="path18"
       sodipodi:nodetypes="cszzzsc" /><path
       style="fill:none;stroke:#000000;stroke-width:2.02573;stroke-linecap:round;stroke-linejoin:round;stroke-dasharray:none;stroke-opacity:0.996078;paint-order:markers stroke fill"
       d="m 47.778332,43.081125 c 1.383283,13.905943 0.591003,21.247963 -1.756552,21.291519 -2.347555,0.04356 -6.024477,-11.855226 -5.748709,-19.05591 -3.865882,-1.675457 -8.150923,-2.665658 -11.60388,-2.66144 -0.799228,1.560582 -0.868415,3.681739 -2.342067,3.672787 -1.473652,-0.0089 -1.87243,-2.623484 -2.18238,-4.364761 -2.469585,-0.521179 -4.42647,-0.01696 -6.493915,0.266142 -1.400977,9.12073 5.384221,24.405382 21.025376,32.948628 -9.766421,25.14574 1.928674,30.61148 8.46338,31.99051"
       id="path19"
       sodipodi:nodetypes="czcczcccc" /><path
       style="fill:none;stroke:#000000;stroke-width:2.02573;stroke-linecap:round;stroke-linejoin:round;stroke-dasharray:none;stroke-opacity:0.996078;paint-order:markers stroke fill"
       d="m 51.238204,62.988695 c -0.854718,5.81748 -8.202267,10.840439 -12.615228,12.02971"
       id="path20"
       sodipodi:nodetypes="cc" /><path
       style="fill:none;stroke:#000000;stroke-width:2.02573;stroke-linecap:round;stroke-linejoin:round;stroke-dasharray:none;stroke-opacity:0.996078;paint-order:markers stroke fill"
       d="m 21.511275,41.638852 c -0.347273,-1.201111 -0.372368,-3.533975 1.600532,-4.551514 1.982856,-1.022676 14.272247,1.055961 16.005327,2.800931 1.427071,1.436862 -0.250083,4.501499 -0.250083,4.501499"
       id="path21"
       sodipodi:nodetypes="cssc" /><path
       style="fill:none;stroke:#000000;stroke-width:2.02573;stroke-linecap:round;stroke-linejoin:round;stroke-dasharray:none;stroke-opacity:0.996078;paint-order:markers stroke fill"
       d="m 25.681754,36.720013 c 0.356851,-2.301051 2.402726,-7.320771 7.566807,-6.955806 5.16408,0.364964 7.661858,5.932459 6.226366,10.068113"
       id="path22"
       sodipodi:nodetypes="czc" /><path
       style="fill:none;stroke:#000000;stroke-width:2.02573;stroke-linecap:round;stroke-linejoin:round;stroke-dasharray:none;stroke-opacity:0.996078;paint-order:markers stroke fill"
       d="m 43.539168,36.301311 c 0.02119,0.699154 -0.175492,1.13037 -0.854419,1.584554 -0.53542,0.358182 -1.522833,0.363357 -2.226602,1.096687 -0.729288,0.759922 -0.814956,1.561942 -0.465258,2.625392"
       id="path23"
       sodipodi:nodetypes="cssc" /><path
       style="fill:none;stroke:#000000;stroke-width:2.02573;stroke-linecap:round;stroke-linejoin:round;stroke-dasharray:none;stroke-opacity:0.996078;paint-order:markers stroke fill"
       d="m 23.179475,61.535274 c 0,0 -4.318858,4.612297 -5.29239,6.456117 -1.68168,3.185016 1.074585,10.665851 1.074585,10.665851 l -0.156407,3.065015 c -4.182839,1.779834 -7.27644,5.036527 -7.207485,6.909737 1.229438,0.667157 2.673219,0.446536 3.902657,0.469224 -0.483294,4.165161 1.137714,7.761751 2.956677,11.594432 10.52211,-3.78904 13.007789,-6.204875 10.201831,-15.774571 l 0.703834,-2.033297 c 2.02632,0.448409 3.957037,0.763887 6.664421,0.07718"
       id="path24"
       sodipodi:nodetypes="cscccccccc" /><path
       style="fill:none;stroke:#000000;stroke-width:2.02573;stroke-linecap:round;stroke-linejoin:round;stroke-dasharray:none;stroke-opacity:0.996078;paint-order:markers stroke fill"
       d="m 19.082314,78.580715 c 3.442351,0.640192 6.877188,1.393109 10.174913,4.202681"
       id="path25"
       sodipodi:nodetypes="cc" /><path
       style="fill:none;stroke:#000000;stroke-width:2.02573;stroke-linecap:round;stroke-linejoin:round;stroke-dasharray:none;stroke-opacity:0.996078;paint-order:markers stroke fill"
       d="m 18.900564,80.669625 c 2.919195,1.822848 6.29803,3.100954 9.74838,4.159814"
       id="path26"
       sodipodi:nodetypes="cc" /><path
       style="fill:none;stroke:#000000;stroke-width:2.02573;stroke-linecap:round;stroke-linejoin:round;stroke-dasharray:none;stroke-opacity:0.996078;paint-order:markers stroke fill"
       d="m 35.226772,86.80717 c -0.551659,-0.607042 -1.476411,-0.544017 -2.020398,-0.26513 -0.543988,0.278889 -0.655189,1.649049 -1.50536,2.217265 -0.850172,0.568217 -1.117764,-0.04902 -2.259882,-0.10159"
       id="path27"
       sodipodi:nodetypes="czzc" /><path
       style="fill:none;stroke:#000000;stroke-width:2.02573;stroke-linecap:round;stroke-linejoin:round;stroke-dasharray:none;stroke-opacity:0.996078;paint-order:markers stroke fill"
       d="m 24.916613,98.221197 c -0.402956,1.557241 0.23809,2.480553 1.501846,3.829463 -0.118504,0.6599 -0.159759,1.30072 -0.07936,1.86117 2.674489,3.15702 4.294501,2.27364 7.191329,2.12355 0.256361,3.70529 4.073273,0.99287 6.103178,-1.9167"
       id="path28"
       sodipodi:nodetypes="ccccc" /><path
       style="fill:none;stroke:#000000;stroke-width:2.02573;stroke-linecap:round;stroke-linejoin:round;stroke-dasharray:none;stroke-opacity:0.996078;paint-order:markers stroke fill"
       d="m 57.791223,64.479612 c 0.375915,1.290297 0.570906,2.082908 1.658955,3.373205"
       id="path29"
       sodipodi:nodetypes="cc" /><path
       style="fill:none;stroke:#000000;stroke-width:2.02573;stroke-linecap:round;stroke-linejoin:round;stroke-dasharray:none;stroke-opacity:0.996078;paint-order:markers stroke fill"
       d="M 63.486964,65.253789 C 58.97039,69.767928 53.273465,70.085265 47.450416,69.954158"
       id="path30"
       sodipodi:nodetypes="cc" /><path
       style="fill:none;stroke:#000000;stroke-width:1.80065;stroke-linecap:round;stroke-linejoin:round;stroke-dasharray:none;stroke-opacity:0.996078;paint-order:markers stroke fill"
       d="m 81.317589,84.871006 c 0,0 -0.191758,0.677846 -0.226217,1.244484 -0.03446,0.566639 0.552714,0.614712 0.32353,1.386517 -0.229185,0.771806 -0.399309,0.677331 -0.514073,1.495264 -0.114763,0.817938 0.396151,1.07322 0.340318,1.801299 -0.05583,0.728088 -0.944901,0.87848 -0.941961,1.36994 0.0019,0.310823 0.39812,0.711228 0.308993,1.191198 -0.08913,0.47998 -0.316048,0.913896 -0.316048,0.913896"
       id="path31"
       sodipodi:nodetypes="czzzzszc" /><path
       style="fill:none;stroke:#000000;stroke-width:1.80065;stroke-linecap:round;stroke-linejoin:round;stroke-dasharray:none;stroke-opacity:0.996078;paint-order:markers stroke fill"
       d="m 99.943895,58.827361 c 0,0 0.205285,1.314289 -0.07103,1.956021 -0.276311,0.641733 -1.084565,0.883729 -1.342658,1.4548 -0.258095,0.571071 0.1752,1.249532 -0.184147,1.770877 -0.359346,0.521345 -1.721782,0.924252 -1.721782,0.924252"
       id="path32"
       sodipodi:nodetypes="czzzc" /><path
       style="fill:none;stroke:#000000;stroke-width:1.80065;stroke-linecap:round;stroke-linejoin:round;stroke-dasharray:none;stroke-opacity:0.996078;paint-order:markers stroke fill"
       d="m 97.977401,17.152044 c 0,0 2.137169,-0.06098 2.838809,0.227337 0.69521,0.285678 0.96219,1.030422 1.66632,1.29338 0.40954,0.152969 0.89622,0.04916 1.30853,0.194504 0.60701,0.21393 1.46234,1.125442 1.46234,1.125442"
       id="path33"
       sodipodi:nodetypes="csssc" /><path
       style="fill:none;stroke:#000000;stroke-width:1.80065;stroke-linecap:round;stroke-linejoin:round;stroke-dasharray:none;stroke-opacity:0.996078;paint-order:markers stroke fill"
       d="m 54.857667,11.402815 c 0,0 0.504401,-0.563216 0.92154,-0.654391 0.417142,-0.09117 0.986498,0.184935 1.508089,0.09707 0.521591,-0.08786 0.934128,-0.541694 1.532458,-0.644379 0.59833,-0.102689 1.36352,0.258798 1.976704,0.115011 0.613185,-0.143783 1.02094,-0.757769 1.562168,-0.891909 C 62.89986,9.2900767 63.9078,9.6306523 63.9078,9.6306523"
       id="path34"
       sodipodi:nodetypes="czzzzzc" /><path
       style="fill:none;stroke:#000000;stroke-width:1.80065;stroke-linecap:round;stroke-linejoin:round;stroke-dasharray:none;stroke-opacity:0.996078;paint-order:markers stroke fill"
       d="m 26.300478,27.963041 c 0,0 -1.751312,0.596707 -2.234917,1.096455 -0.483605,0.499748 -0.217396,1.034778 -0.691363,1.534644 -0.473966,0.499865 -1.532944,0.535344 -2.177045,1.123592 -0.644102,0.588248 -1.169564,2.140553 -1.169564,2.140553"
       id="path35"
       sodipodi:nodetypes="czzzc" /><path
       style="fill:none;stroke:#000000;stroke-width:1.80065;stroke-linecap:round;stroke-linejoin:round;stroke-dasharray:none;stroke-opacity:0.996078;paint-order:markers stroke fill"
       d="m 17.95478,35.840066 -0.166608,0.313512"
       id="path36"
       sodipodi:nodetypes="cc" /><path
       style="fill:none;stroke:#000000;stroke-width:1.80065;stroke-linecap:round;stroke-linejoin:round;stroke-dasharray:none;stroke-opacity:0.996078;paint-order:markers stroke fill"
       d="m 13.654917,70.028387 c 0,0 0.266409,0.830511 0.209836,1.322203 -0.05657,0.491692 -0.634975,0.921243 -0.61475,1.510559 0.02023,0.589316 0.74268,1.158977 0.838297,1.712993 0.09562,0.554017 -0.21675,1.057815 -0.165754,1.456729 0.051,0.398911 0.340251,0.883568 0.340251,0.883568"
       id="path37"
       sodipodi:nodetypes="czzzzc" /><path
       style="fill:none;stroke:#000000;stroke-width:1.80065;stroke-linecap:round;stroke-linejoin:round;stroke-dasharray:none;stroke-opacity:0.996078;paint-order:markers stroke fill"
       d="m 21.756126,102.85378 c 0,0 0.198679,0.69156 0.37835,0.99517 0.179666,0.3036 0.515335,0.41377 0.682068,0.80095 0.166765,0.38716 -0.10557,0.97665 0.15902,1.4687 0.264591,0.49206 1.443677,1.19617 1.443677,1.19617"
       id="path38"
       sodipodi:nodetypes="czzzc" /><path
       style="fill:none;stroke:#000000;stroke-width:1.80065;stroke-linecap:round;stroke-linejoin:round;stroke-dasharray:none;stroke-opacity:0.996078;paint-order:markers stroke fill"
       d="m 43.773952,113.27538 c 0,0 0.796518,0.31968 1.169123,0.5447 0.372611,0.225 0.468193,0.77293 0.928047,0.97291 0.459855,0.19998 1.174497,-0.1146 1.671559,0.0913 0.497061,0.20592 0.679883,0.75115 1.248826,0.96621 0.56894,0.21506 1.789392,-0.16624 1.789392,-0.16624"
       id="path39"
       sodipodi:nodetypes="czzzzc" /><path
       style="fill:none;stroke:#000000;stroke-width:1.80065;stroke-linecap:round;stroke-linejoin:round;stroke-dasharray:none;stroke-opacity:0.996078;paint-order:markers stroke fill"
       d="m 95.050309,66.477077 -0.09769,0.193556"
       id="path40"
       sodipodi:nodetypes="cc" /><path
       style="fill:none;stroke:#000000;stroke-width:1.80065;stroke-linecap:round;stroke-linejoin:round;stroke-dasharray:none;stroke-opacity:0.996078;paint-order:markers stroke fill"
       d="m 42.02323,111.61679 -0.416125,0.2957"
       id="path41" /><path
       style="fill:none;stroke:#000000;stroke-width:1.57556;stroke-linecap:round;stroke-linejoin:round;stroke-dasharray:none;stroke-opacity:0.996078;paint-order:markers stroke fill"
       d="m 60.853724,58.938796 c 0,0 1.974425,-2.383984 2.991011,-2.289991 1.016586,0.09399 2.14979,2.523665 2.14979,2.523665"
       id="path42"
       sodipodi:nodetypes="czc" /><path
       style="fill:none;stroke:#000000;stroke-width:2.25081;stroke-linecap:round;stroke-linejoin:round;stroke-dasharray:none;stroke-opacity:0.996078;paint-order:markers stroke fill"
       d="m 48.375596,43.750064 c 0,0 7.841483,2.02131 10.774618,3.73447 l -0.212609,0.892253 c -1.340118,0.826489 -10.421811,5.094066 -10.421811,5.094066"
       id="path43"
       sodipodi:nodetypes="cccc" /><path
       style="fill:none;stroke:#000000;stroke-width:2.25081;stroke-linecap:round;stroke-linejoin:round;stroke-dasharray:none;stroke-opacity:0.996078;paint-order:markers stroke fill"
       d="m 79.407343,44.310878 -9.440381,3.598563 -0.233675,0.607549 c 2.971557,1.974482 5.881468,4.087168 8.973036,5.701616"
       id="path44"
       sodipodi:nodetypes="cccc" /><g
       id="g52"
       transform="matrix(0.85070023,0,0,0.85070023,7.85673,7.3702575)"><path
         style="fill:none;stroke:#2c51a9;stroke-width:1.32292;stroke-linecap:round;stroke-linejoin:round;stroke-dasharray:none;stroke-opacity:1;paint-order:markers stroke fill"
         d="m 51.955302,74.750393 c 0.492552,-1.059251 2.106008,-1.330357 2.840551,0.333314"
         id="path48-7"
         sodipodi:nodetypes="cc" /><path
         style="fill:none;stroke:#2c51a9;stroke-width:1.32292;stroke-linecap:round;stroke-linejoin:round;stroke-dasharray:none;stroke-opacity:1;paint-order:markers stroke fill"
         d="m 56.846771,73.748535 c 0.492552,-1.059251 2.106008,-1.330357 2.840551,0.333314"
         id="path48-7-6"
         sodipodi:nodetypes="cc" /><path
         style="fill:none;stroke:#2c51a9;stroke-width:1.32292;stroke-linecap:round;stroke-linejoin:round;stroke-dasharray:none;stroke-opacity:1;paint-order:markers stroke fill"
         d="m 51.903195,74.76309 c -0.327743,1.208841 0.705673,2.46415 1.827605,2.123054 1.121931,-0.341096 1.737922,-1.346103 0.436419,-2.655764"
         id="path46-3"
         sodipodi:nodetypes="czc" /><path
         style="fill:none;stroke:#3377d6;stroke-width:1.32292;stroke-linecap:round;stroke-linejoin:round;stroke-dasharray:none;stroke-opacity:1;paint-order:markers stroke fill"
         d="m 51.57315,74.326521 c -0.327743,1.208841 0.705673,2.46415 1.827605,2.123054 1.121931,-0.341096 1.737922,-1.346103 0.436419,-2.655764"
         id="path46"
         sodipodi:nodetypes="czc" /><path
         style="fill:none;stroke:#2c51a9;stroke-width:1.5875;stroke-linecap:round;stroke-linejoin:round;stroke-dasharray:none;stroke-opacity:1;paint-order:markers stroke fill"
         d="m 56.877183,73.653855 c -0.327743,1.208841 0.705673,2.46415 1.827605,2.123054 1.121931,-0.341096 1.737922,-1.346103 0.436419,-2.655764"
         id="path46-2-2"
         sodipodi:nodetypes="czc" /><path
         style="fill:none;stroke:#3377d6;stroke-width:1.5875;stroke-linecap:round;stroke-linejoin:round;stroke-dasharray:none;stroke-opacity:1;paint-order:markers stroke fill"
         d="m 56.618526,73.318095 c -0.327743,1.208841 0.705673,2.46415 1.827605,2.123054 1.121931,-0.341096 1.737922,-1.346103 0.436419,-2.655764"
         id="path46-2"
         sodipodi:nodetypes="czc" /><path
         style="fill:none;stroke:#b81f18;stroke-width:1.32292;stroke-linecap:round;stroke-linejoin:round;stroke-dasharray:none;stroke-opacity:1;paint-order:markers stroke fill"
         d="m 52.815383,71.9089 c 0.534471,-1.241133 -0.985934,-2.984442 -2.287228,-2.334279 -1.301294,0.650163 -1.44004,2.034377 -0.112889,3.230812"
         id="path46-2-0-4"
         sodipodi:nodetypes="czc" /><path
         style="fill:none;stroke:#b81f18;stroke-width:0.79375;stroke-linecap:round;stroke-linejoin:round;stroke-dasharray:none;stroke-opacity:1;paint-order:markers stroke fill"
         d="m 49.709874,71.2834 c 1.00787,0.461505 1.977497,0.425844 2.896621,-0.266353"
         id="path51-1"
         sodipodi:nodetypes="cc" /><path
         style="fill:none;stroke:#e85049;stroke-width:1.32292;stroke-linecap:round;stroke-linejoin:round;stroke-dasharray:none;stroke-opacity:1;paint-order:markers stroke fill"
         d="m 52.902275,71.575188 c 0.534471,-1.241133 -0.985934,-2.984442 -2.287228,-2.334279 -1.301294,0.650163 -1.44004,2.034377 -0.112889,3.230812"
         id="path46-2-0"
         sodipodi:nodetypes="czc" /><path
         style="fill:none;stroke:#b81f18;stroke-width:1.32292;stroke-linecap:round;stroke-linejoin:round;stroke-dasharray:none;stroke-opacity:1;paint-order:markers stroke fill"
         d="m 55.818091,71.674476 c 1.280894,0.430561 2.169241,-1.000688 1.336915,-2.371337 -0.832326,-1.370648 -2.177183,-1.340858 -3.260389,0.08022"
         id="path46-2-0-6-0"
         sodipodi:nodetypes="czc" /><path
         style="fill:none;stroke:#e85049;stroke-width:1.32292;stroke-linecap:round;stroke-linejoin:round;stroke-dasharray:none;stroke-opacity:1;paint-order:markers stroke fill"
         d="m 57.324397,70.500803 c 0.534471,-1.241133 -0.852756,-3.051031 -2.287228,-2.334279 -1.434472,0.716752 -1.515414,2.059502 -0.188263,3.255937"
         id="path46-2-0-6"
         sodipodi:nodetypes="czc" /><path
         style="fill:none;stroke:#3577d1;stroke-width:1.32292;stroke-linecap:round;stroke-linejoin:round;stroke-dasharray:none;stroke-opacity:1;paint-order:markers stroke fill"
         d="m 57.632745,70.517708 c -0.566655,0.946617 -1.322236,0.9805 -2.330615,1.132013"
         id="path49"
         sodipodi:nodetypes="cc" /><path
         style="fill:none;stroke:#e3504b;stroke-width:1.32292;stroke-linecap:round;stroke-linejoin:round;stroke-dasharray:none;stroke-opacity:1;paint-order:markers stroke fill"
         d="m 56.267671,72.91491 c 0.346844,-0.46633 1.135343,-1.081729 2.330615,-0.832362"
         id="path50"
         sodipodi:nodetypes="cc" /><path
         style="fill:none;stroke:#e85049;stroke-width:0.79375;stroke-linecap:round;stroke-linejoin:round;stroke-dasharray:none;stroke-opacity:1;paint-order:markers stroke fill"
         d="m 49.534016,71.100668 c 1.00787,0.461505 1.977497,0.425844 2.896621,-0.266353"
         id="path51"
         sodipodi:nodetypes="cc" /><path
         style="fill:none;stroke:#3577d1;stroke-width:1.32292;stroke-linecap:round;stroke-linejoin:round;stroke-dasharray:none;stroke-opacity:1;paint-order:markers stroke fill"
         d="m 52.646742,71.77473 c -0.584332,0.653368 -1.179505,1.096597 -2.012777,1.089932"
         id="path47"
         sodipodi:nodetypes="cc" /><path
         style="fill:none;stroke:#e3504b;stroke-width:1.32292;stroke-linecap:round;stroke-linejoin:round;stroke-dasharray:none;stroke-opacity:1;paint-order:markers stroke fill"
         d="m 51.406678,73.913745 c 0.535411,-0.407932 0.949325,-0.937362 2.164141,-0.66589"
         id="path48"
         sodipodi:nodetypes="cc" /></g><path
       style="fill:none;stroke:#000000;stroke-width:1.80065;stroke-linecap:round;stroke-linejoin:round;stroke-dasharray:none;stroke-opacity:0.996078;paint-order:markers stroke fill"
       d="m 73.091367,35.21691 c 0.805071,0.06886 2.853879,0.343189 3.289141,1.414685 0.435261,1.071496 -0.191724,1.445663 0.15915,2.068977 0.350875,0.623314 1.675185,0.791133 2.015925,1.59152 0.340741,0.800388 -0.303654,1.143965 0.123784,2.228127 0.427437,1.084161 1.712555,0.954399 1.998241,2.122028 0.285686,1.167629 -0.230531,1.555133 0.106102,2.6879 0.336633,1.132767 0.920329,-0.07803 1.137506,3.010655 0.526734,7.491193 -9.626476,20.640754 -33.745982,11.277658"
       id="path16"
       sodipodi:nodetypes="czzzzzzsc" /><path
       style="fill:none;stroke:#000000;stroke-width:2.02573;stroke-linecap:round;stroke-linejoin:round;stroke-dasharray:none;stroke-opacity:0.996078;paint-order:markers stroke fill"
       d="m 88.496848,44.320437 3.44465,-0.353296 c 0.385982,2.350618 0.91543,2.692705 1.382396,3.909566 1.373047,-0.646783 2.097274,-2.141987 3.295357,-3.576123 l 5.302899,1.079746 C 94.970135,70.842967 77.741842,76.572372 72.126053,75.163453 59.984065,72.117206 48.520925,72.704179 43.302366,79.06166 c -5.155843,6.281074 -4.726971,18.145486 3.77037,23.90614"
       id="path6"
       sodipodi:nodetypes="cccccssc" /><path
       id="rect53-4-10"
       style="fill:#a08b88;fill-opacity:1;stroke-width:0.144719;stroke-linecap:round;stroke-linejoin:round;paint-order:markers stroke fill"
       d="m 61.963237,47.408438 c 0.352873,-0.200302 1.532978,0.0573 2.444884,0.100755 0.911907,0.04344 1.865192,-0.192002 2.421619,0.203757 0.556426,0.395759 0.345519,1.969613 -0.002,2.314136 -0.347542,0.344524 -1.684334,0.366295 -2.535645,0.337578 -0.851311,-0.02872 -2.006115,-0.140136 -2.397141,-0.472421 -0.391027,-0.332287 -0.284569,-2.283503 0.06831,-2.483804 z"
       sodipodi:nodetypes="zzzzzzzz" /></g></svg>
