<?xml version="1.0" encoding="UTF-8" standalone="no"?>
<!-- Created with Inkscape (http://www.inkscape.org/) -->

<svg
   width="512"
   height="512"
   viewBox="0 0 135.46666 135.46667"
   version="1.1"
   id="svg1"
   xml:space="preserve"
   inkscape:version="1.4.1 (unknown)"
   sodipodi:docname="frame2.svg"
   inkscape:export-filename="frame2.png"
   inkscape:export-xdpi="192"
   inkscape:export-ydpi="192"
   xmlns:inkscape="http://www.inkscape.org/namespaces/inkscape"
   xmlns:sodipodi="http://sodipodi.sourceforge.net/DTD/sodipodi-0.dtd"
   xmlns="http://www.w3.org/2000/svg"
   xmlns:svg="http://www.w3.org/2000/svg"><sodipodi:namedview
     id="namedview1"
     pagecolor="#505050"
     bordercolor="#ffffff"
     borderopacity="1"
     inkscape:showpageshadow="0"
     inkscape:pageopacity="0"
     inkscape:pagecheckerboard="1"
     inkscape:deskcolor="#d1d1d1"
     inkscape:document-units="px"
     inkscape:zoom="2.8284271"
     inkscape:cx="375.82725"
     inkscape:cy="145.84077"
     inkscape:window-width="3840"
     inkscape:window-height="2038"
     inkscape:window-x="0"
     inkscape:window-y="0"
     inkscape:window-maximized="1"
     inkscape:current-layer="layer1" /><defs
     id="defs1" /><g
     inkscape:label="Layer 1"
     inkscape:groupmode="layer"
     id="layer1"><rect
       style="fill:#ffffff;fill-opacity:1;stroke-width:2.11667;stroke-linecap:round;stroke-dashoffset:34.0157;paint-order:fill markers stroke"
       id="rect1"
       width="135.46666"
       height="135.46666"
       x="2.7270507e-06"
       y="2.7270507e-06" /><g
       id="g77"
       transform="matrix(0.85070023,0,0,0.85070023,1.8034174,18.174143)"><path
         style="baseline-shift:baseline;display:inline;overflow:visible;vector-effect:none;fill:#714433;fill-opacity:1;stroke-linecap:round;stroke-linejoin:round;paint-order:fill markers stroke;enable-background:accumulate;stop-color:#000000"
         d="m 112.17069,109.02547 a 9.5922146,6.4811082 21.291475 0 1 6.58412,9.5218 9.5922146,6.4811082 21.291475 0 1 -11.29087,2.55569 9.5922146,6.4811082 21.291475 0 1 -6.58413,-9.5218 9.5922146,6.4811082 21.291475 0 1 11.29088,-2.55569 z"
         id="path73" /><circle
         style="fill:#000000;fill-opacity:1;stroke:none;stroke-width:2.11667;stroke-linecap:round;stroke-linejoin:round;stroke-dasharray:none;stroke-opacity:1;paint-order:fill markers stroke"
         id="path70"
         cx="105.4843"
         cy="111.2585"
         r="0.81363851" /><circle
         style="fill:#000000;fill-opacity:1;stroke:none;stroke-width:2.11667;stroke-linecap:round;stroke-linejoin:round;stroke-dasharray:none;stroke-opacity:1;paint-order:fill markers stroke"
         id="path70-9"
         cx="104.15862"
         cy="112.84798"
         r="0.81363851" /><path
         style="fill:none;fill-opacity:0.438131;stroke:#4d2d21;stroke-width:0.79375;stroke-linecap:round;stroke-linejoin:round;stroke-dasharray:none;stroke-opacity:1;paint-order:fill markers stroke"
         d="m 107.40028,113.01702 c 3.99978,1.06107 7.77347,3.02647 11.49593,5.19678"
         id="path72"
         sodipodi:nodetypes="cc" /><path
         id="rect53-4-159"
         style="fill:#47291f;fill-opacity:1;stroke-width:0.79375;stroke-linecap:round;stroke-linejoin:round;paint-order:markers stroke fill"
         d="m 102.21569,109.91994 c -0.90267,6.52466 18.16451,13.94198 13.92901,2.03139 13.03525,9.94596 -19.989317,16.71166 -13.92901,-2.03139 z"
         sodipodi:nodetypes="ccc" /><path
         style="baseline-shift:baseline;display:inline;overflow:visible;vector-effect:none;fill:#000000;fill-opacity:1;stroke-linecap:round;stroke-linejoin:round;paint-order:fill markers stroke;enable-background:accumulate;stop-color:#000000"
         d="m 99.894495,111.19663 c -0.803558,2.06193 -0.264622,4.34904 1.068905,6.27754 1.33351,1.9285 3.46896,3.58226 6.11703,4.61424 2.64805,1.03198 5.3394,1.25929 7.62621,0.74167 2.2868,-0.51762 4.23121,-1.83694 5.03476,-3.89886 0.80356,-2.06193 0.26392,-4.34722 -1.0696,-6.27572 -1.33352,-1.92851 -3.46826,-3.58408 -6.11632,-4.61606 -2.64806,-1.03198 -5.34012,-1.25747 -7.62692,-0.73985 -2.28681,0.51761 -4.23051,1.83512 -5.034065,3.89704 z m 1.970865,0.76807 c 0.49617,-1.27318 1.72945,-2.19378 3.52914,-2.60114 1.79968,-0.40736 4.10422,-0.2431 6.39221,0.64856 2.28797,0.89165 4.09413,2.32938 5.1436,3.84708 1.04946,1.51771 1.33459,3.03006 0.83841,4.30324 -0.49617,1.27318 -1.73016,2.1956 -3.52984,2.60296 -1.79969,0.40736 -4.10241,0.2438 -6.39039,-0.64785 -2.28798,-0.89165 -4.09596,-2.33009 -5.14542,-3.84779 -1.04946,-1.51771 -1.33388,-3.03188 -0.83771,-4.30506 z"
         id="path74" /><path
         style="fill:#9ba9be;fill-opacity:0.438131;stroke:#000000;stroke-width:2.11667;stroke-linecap:round;stroke-linejoin:round;stroke-dasharray:none;stroke-opacity:1;paint-order:fill markers stroke"
         d="m 103.14837,118.79123 -2.88711,2.25718"
         id="path62"
         sodipodi:nodetypes="cc" /><path
         style="fill:#9ba9be;fill-opacity:0.438131;stroke:#000000;stroke-width:2.11667;stroke-linecap:round;stroke-linejoin:round;stroke-dasharray:none;stroke-opacity:1;paint-order:fill markers stroke"
         d="m 105.93048,120.4185 -1.99472,2.9396"
         id="path63" /><path
         style="fill:#9ba9be;fill-opacity:0.438131;stroke:#000000;stroke-width:2.11667;stroke-linecap:round;stroke-linejoin:round;stroke-dasharray:none;stroke-opacity:1;paint-order:fill markers stroke"
         d="m 109.02756,121.67833 -0.0525,3.14957"
         id="path64"
         sodipodi:nodetypes="cc" /><path
         style="fill:#9ba9be;fill-opacity:0.438131;stroke:#000000;stroke-width:2.11667;stroke-linecap:round;stroke-linejoin:round;stroke-dasharray:none;stroke-opacity:1;paint-order:fill markers stroke"
         d="m 110.9173,107.71524 0.0525,-3.35954"
         id="path65"
         sodipodi:nodetypes="cc" /><path
         style="fill:#9ba9be;fill-opacity:0.438131;stroke:#000000;stroke-width:2.11667;stroke-linecap:round;stroke-linejoin:round;stroke-dasharray:none;stroke-opacity:1;paint-order:fill markers stroke"
         d="m 113.80441,109.18504 2.09971,-2.62464"
         id="path66"
         sodipodi:nodetypes="cc" /><path
         style="fill:#9ba9be;fill-opacity:0.438131;stroke:#000000;stroke-width:2.11667;stroke-linecap:round;stroke-linejoin:round;stroke-dasharray:none;stroke-opacity:1;paint-order:fill markers stroke"
         d="m 115.90412,111.02229 3.98945,-1.31232"
         id="path67"
         sodipodi:nodetypes="cc" /><path
         style="fill:#9ba9be;fill-opacity:0.438131;stroke:#000000;stroke-width:2.11667;stroke-linecap:round;stroke-linejoin:round;stroke-dasharray:none;stroke-opacity:1;paint-order:fill markers stroke"
         d="m 103.14836,108.81759 c -1.18419,-1.78475 -1.89646,-3.04458 -1.99473,-4.56687"
         id="path68"
         sodipodi:nodetypes="cc" /><path
         style="fill:#9ba9be;fill-opacity:0.438131;stroke:#000000;stroke-width:2.11667;stroke-linecap:round;stroke-linejoin:round;stroke-dasharray:none;stroke-opacity:1;paint-order:fill markers stroke"
         d="m 100.94367,110.96979 c -2.043856,-0.43141 -3.389247,-0.54041 -5.196789,-0.47243"
         id="path69"
         sodipodi:nodetypes="cc" /><path
         style="fill:none;fill-opacity:0.438131;stroke:#000000;stroke-width:2.11667;stroke-linecap:round;stroke-linejoin:round;stroke-dasharray:none;stroke-opacity:1;paint-order:fill markers stroke"
         d="m 111.91466,109.13255 c -3.90416,3.11457 -6.12932,5.96668 -8.13638,9.08125"
         id="path71"
         sodipodi:nodetypes="cc" /><path
         style="fill:none;fill-opacity:0.482353;stroke:#010101;stroke-width:1.05833;stroke-linecap:round;stroke-linejoin:round;stroke-dasharray:none;stroke-opacity:1;paint-order:fill markers stroke"
         d="m 99.880654,99.705963 c 1.700516,-0.211427 3.395816,-0.368149 4.978746,0.655097"
         id="path75"
         sodipodi:nodetypes="cc" /><path
         style="fill:none;fill-opacity:1;stroke:#010101;stroke-width:1.05833;stroke-linecap:round;stroke-linejoin:round;stroke-dasharray:none;stroke-opacity:1;paint-order:fill markers stroke"
         d="m 99.066772,102.34753 c 1.240188,-0.88941 2.728788,-0.96468 4.143688,-0.32557"
         id="path76"
         sodipodi:nodetypes="cc" /><path
         style="fill:none;fill-opacity:0.481438;stroke:#010101;stroke-width:1.32292;stroke-linecap:round;stroke-linejoin:round;stroke-dasharray:none;stroke-opacity:1;paint-order:fill markers stroke"
         d="m 121.9793,121.01849 c 0,0 1.41004,-1.30236 2.32571,-0.92088 0.91567,0.38148 0.17597,1.40999 1.21297,1.95599 1.037,0.546 1.69479,-0.49488 2.80928,0.0722 1.11449,0.56703 0.37927,1.34681 1.11042,1.92382 0.73116,0.577 1.16314,0.0814 1.70509,0.37278 0.54194,0.29133 0.074,0.58514 0.73875,1.10593 0.66478,0.52078 1.47598,0.29219 1.47598,0.29219"
         id="path77"
         sodipodi:nodetypes="czzzzzzc" /></g><path
       id="rect53-4-9"
       style="fill:#252e33;fill-opacity:1;stroke-width:0.675243;stroke-linecap:round;stroke-linejoin:round;paint-order:markers stroke fill"
       d="m 78.267993,11.99517 c -0.392077,-0.0075 -0.826286,0.0086 -1.305646,0.05056 -7.885481,0.689891 -34.809434,2.777698 -42.815964,17.108801 -3.415041,0.741311 -7.229273,0.668349 -8.371082,7.850143 l -3.524366,0.0655 -0.762726,4.713515 -3.717355,0.437854 c -1.144086,6.738301 0.772491,13.290536 5.777814,18.963962 -7.519847,6.761049 -7.188878,10.714235 -4.638781,17.503132 l -0.08572,3.141464 c -4.614286,1.693559 -6.171396,4.352246 -7.775409,6.996418 l 4.589544,0.362679 c 0.02798,3.809202 0.07116,7.618485 3.115527,11.427702 1.862341,-0.42332 3.566932,-1.162221 5.270502,-1.903079 0.332899,0.456673 1.274825,0.613236 1.124966,1.575569 0.346462,0.32314 0.804724,0.7466 1.452916,1.34608 -0.202044,1.0106 -0.393012,2.37303 -0.393012,2.37303 1.407189,1.29006 3.402621,2.19364 6.906736,2.14838 l 0.580728,1.68239 c 3.327723,0.32529 4.204099,-2.02375 6.223579,-3.12563 1.93776,1.22922 4.345395,2.17849 7.212268,2.74405 l 0.113859,-4.53371 C 36.752513,96.179849 40.186209,80.151022 45.812793,76.859851 c 6.42598,-3.758764 17.477754,-4.712618 26.65013,-1.613375 19.73629,-0.880652 28.772997,-22.389911 29.080307,-29.721695 l -1.978254,-0.549515 0.119132,-9.827515 C 102.68476,32.339663 106.44435,27.054916 104.8579,24.10427 103.27144,21.153624 89.134863,19.621925 79.231182,19.631223 80.597947,17.49615 84.149143,12.107492 78.267993,11.99517 Z m -49.557846,70.888238 7.050049,0.498519 -0.5416,2.895721 -2.095189,0.39653 -1.086281,2.056502 -2.562934,0.253656 z" /><path
       id="rect53-4-22"
       style="fill:#151d23;fill-opacity:1;stroke-width:0.675243;stroke-linecap:round;stroke-linejoin:round;paint-order:markers stroke fill"
       d="m 39.111654,44.036641 c 0,0 1.883772,0.22617 3.466279,-0.450313 1.582506,-0.676484 1.055693,-2.810867 2.704236,-3.453443 1.648543,-0.642577 3.502108,-0.07549 3.502108,-0.07549 l -0.870595,2.62886 -1.955341,0.782358 -1.853367,2.856115 c 1.976957,6.818166 2.099692,12.805129 1.233471,18.348766 -3.448402,-6.504549 -4.899563,-13.5538 -6.226791,-20.636853 z"
       sodipodi:nodetypes="czzcccccc" /><path
       id="rect53-4-68"
       style="fill:#151d23;fill-opacity:1;stroke-width:0.675243;stroke-linecap:round;stroke-linejoin:round;paint-order:markers stroke fill"
       d="m 56.873366,40.658811 c 0,0 2.354794,-0.103878 2.79247,-0.490834 0.437676,-0.386955 0.503289,-1.654189 0.52361,-2.004607 0.09966,-1.718451 0.602743,-1.671776 0.726874,-0.03424 0.02606,0.343744 0.202683,1.543259 0.4038,1.976337 0.201118,0.433078 7.974901,-1.290943 12.301125,-2.908711 -0.220691,2.433969 -0.25505,4.934485 -1.348487,7.056758 -0.86868,-0.340296 -1.482225,-0.903721 -1.969031,-1.816829 -0.25656,0.891932 -0.752761,1.574177 -1.532957,2.007927 -4.432233,0.09806 -8.333701,-0.378883 -11.982676,-1.129356 z"
       sodipodi:nodetypes="czsszcccccc" /><path
       id="rect53-4-2"
       style="fill:#151d23;fill-opacity:1;stroke-width:0.675243;stroke-linecap:round;stroke-linejoin:round;paint-order:markers stroke fill"
       d="m 34.550481,29.838975 c 1.961073,-3.924321 5.547801,-9.063438 12.997587,-11.57172 -16.667262,9.738533 18.673889,14.460933 31.048871,2.910564 -9.991529,9.815303 -20.966382,19.874189 -35.010431,14.980347 l -0.582591,1.5164 -2.782148,1.14726 c -0.86936,-3.792328 -0.608333,-7.461832 -5.671288,-8.982851 z"
       sodipodi:nodetypes="ccccccc" /><path
       id="rect53-4-4"
       style="fill:#151d23;fill-opacity:1;stroke-width:0.675243;stroke-linecap:round;stroke-linejoin:round;paint-order:markers stroke fill"
       d="m 78.940362,19.790735 2.830379,0.405072 c 0,0 -2.173464,3.869697 -1.516766,4.497617 0.656699,0.627921 10.833407,0.02427 10.833407,0.02427 l -9.876055,3.352927 -4.498857,-4.244083 z"
       sodipodi:nodetypes="cczcccc" /><path
       id="rect53-4-49"
       style="fill:#151d23;fill-opacity:1;stroke-width:0.675243;stroke-linecap:round;stroke-linejoin:round;paint-order:markers stroke fill"
       d="m 75.674064,35.736936 c 0,0 1.915023,-0.94488 2.892003,-1.374771 1.526021,-0.67148 1.483299,-0.165909 0.432477,1.133338 -0.535444,0.662026 -1.755121,2.774538 -1.755121,2.774538 0,0 2.416289,0.01811 3.626384,0.01661 1.066668,-0.0013 0.515314,0.33604 -0.205738,1.367192 -0.287483,0.411119 -0.898712,0.808563 -0.682555,1.239447 0.216158,0.430885 2.775625,1.423233 3.150269,2.186239 0.374645,0.763005 -0.309821,1.861627 0.02367,2.414613 0.333496,0.552986 1.745243,0.915516 2.945868,1.503755 1.200625,0.588239 3.710685,2.371176 3.710685,2.371176 l 0.243211,1.947023 -2.918158,0.823742 -2.526991,-2.836799 -2.781158,-0.616586 -1.161416,-4.482144 -1.581946,-1.307738 -0.458281,-2.188615 -2.346441,-2.333625 z"
       sodipodi:nodetypes="csscsszzzzcccccccccc" /><path
       id="rect53-4-7"
       style="fill:#151d23;fill-opacity:1;stroke-width:0.675243;stroke-linecap:round;stroke-linejoin:round;paint-order:markers stroke fill"
       d="m 81.746655,49.022771 2.800777,0.505804 c -0.681535,5.895441 -2.833859,12.055449 -8.042285,17.628194 -2.447124,-0.557592 -5.481635,-0.785571 -7.808238,-2.42786 14.370845,-4.351052 13.06592,-10.814799 13.049746,-15.706138 z"
       sodipodi:nodetypes="ccccc" /><path
       id="rect53-4-6"
       style="fill:#ffffff;fill-opacity:1;stroke-width:0.675243;stroke-linecap:round;stroke-linejoin:round;paint-order:markers stroke fill"
       d="m 81.840151,28.375069 c 5.127182,-1.866052 10.34779,-3.327257 15.769626,-3.916472 5.353713,-0.825317 5.176873,2.55466 1.698959,7.077953 -2.402394,3.124494 -6.225322,6.929743 -11.519981,9.71879 -0.592861,-4.742108 -3.263048,-9.202984 -5.948604,-12.880271 z"
       sodipodi:nodetypes="ccscc" /><g
       id="g54"
       transform="matrix(0.85070023,0,0,0.85070023,7.8567346,7.5775143)"><path
         style="baseline-shift:baseline;display:inline;overflow:visible;opacity:1;vector-effect:none;fill:#e7524b;fill-opacity:1;stroke-linecap:round;stroke-linejoin:round;paint-order:markers stroke fill;enable-background:accumulate;stop-color:#000000;stop-opacity:1"
         d="M 99.503906,23.455078 C 94.328487,23.812095 88.507812,25.4375 88.507812,25.4375 a 0.79374999,0.79374999 0 0 0 -0.552734,0.978516 0.79374999,0.79374999 0 0 0 0.978516,0.550781 c 0,0 5.755592,-1.588055 10.679687,-1.927735 1.216169,-0.08389 2.084609,-0.02485 2.570309,0.105469 0.4857,0.130322 0.48458,0.206239 0.5,0.277344 0.0154,0.0711 -0.027,0.429798 -0.36132,0.976562 -0.33436,0.546765 -0.90569,1.249769 -1.66407,2.052735 -2.911966,3.083202 -8.124997,4.99414 -8.124997,4.99414 a 0.79374999,0.79374999 0 0 0 -0.482422,1.013672 0.79374999,0.79374999 0 0 0 1.013672,0.480469 c 0,0 5.425422,-1.880432 8.748047,-5.398437 0.80028,-0.847337 1.43063,-1.606939 1.86328,-2.314454 0.43266,-0.707514 0.72259,-1.393537 0.56055,-2.140625 -0.16204,-0.747087 -0.85157,-1.26289 -1.64063,-1.474609 -0.78905,-0.211718 -1.78308,-0.246529 -3.091794,-0.15625 z"
         id="path53" /><path
         style="baseline-shift:baseline;display:inline;overflow:visible;opacity:1;vector-effect:none;fill:#4b87db;fill-opacity:1;stroke-linecap:round;stroke-linejoin:round;paint-order:markers stroke fill;enable-background:accumulate;stop-color:#000000;stop-opacity:1"
         d="m 99.503906,23.455078 c -2.338137,0.161292 -4.807974,0.581466 -6.813292,0.993688 l 1.883304,1.255917 c 1.604162,-0.291691 3.369571,-0.550433 5.039363,-0.665621 1.216169,-0.0839 2.084609,-0.02485 2.570309,0.105469 0.4857,0.130322 0.48458,0.20624 0.5,0.277344 0.0154,0.0711 -0.027,0.429798 -0.36132,0.976562 -0.33436,0.546765 -0.90569,1.249769 -1.66407,2.052735 -0.973994,1.031268 -2.205423,1.931388 -3.413106,2.672716 0,0 -0.881534,2.324275 -0.936609,2.375704 1.750423,-0.90877 3.878775,-2.23777 5.504015,-3.958576 0.80028,-0.847338 1.43063,-1.606939 1.86328,-2.314454 0.43266,-0.707514 0.72259,-1.393537 0.56055,-2.140625 -0.16204,-0.747087 -0.85157,-1.26289 -1.64063,-1.474609 -0.78905,-0.211718 -1.78308,-0.246529 -3.091794,-0.15625 z"
         id="path53-5"
         sodipodi:nodetypes="sccsssccccsssss" /></g><path
       id="rect53-4-1"
       style="fill:#3f546b;fill-opacity:0.430257;stroke-width:0.675243;stroke-linecap:round;stroke-linejoin:round;paint-order:markers stroke fill"
       d="M 81.814599,27.742034 97.297426,25.22652 c 2.058482,-0.13086 3.334534,0.01297 0.984166,1.388704 -4.35664,2.550046 -13.331508,6.861915 -13.331508,6.861915 z"
       sodipodi:nodetypes="ccscc" /><path
       id="rect53-4-73"
       style="fill:#3b484f;fill-opacity:1;stroke-width:0.675243;stroke-linecap:round;stroke-linejoin:round;paint-order:markers stroke fill"
       d="m 17.654987,42.063044 6.40445,-0.02646 2.234917,4.340854 2.747795,-3.65609 10.95069,2.240407 c 2.377755,8.778072 3.153987,25.763947 8.866643,17.450655 6.239502,1.765392 12.148467,2.649353 17.705935,2.595986 4.36463,1.327702 8.802886,2.949913 12.732046,2.535738 4.180863,-5.058392 5.689549,-10.384 7.712651,-15.658167 l 2.992917,-0.686155 -0.203108,-4.564735 -1.287884,-3.057483 3.423448,0.559962 1.781835,3.18068 3.380674,-2.79498 4.951414,0.967774 C 99.12809,54.68936 95.111254,71.110073 72.992899,75.832552 L 48.837036,90.046487 47.230809,107.24617 C 26.404744,101.41953 37.791942,80.400409 39.054288,74.477412 18.551501,65.493252 16.142521,45.536306 17.654987,42.063044 Z"
       sodipodi:nodetypes="ccccccccccccccccccccc" /><g
       id="g60"
       transform="matrix(0.85070023,0,0,0.85070023,7.8567346,7.5775143)"><path
         id="rect53-4-626"
         style="fill:#3479d8;fill-opacity:1;stroke-width:0.79375;stroke-linecap:round;stroke-linejoin:round;paint-order:markers stroke fill"
         d="m 14.016845,83.37028 11.138078,4.542729 -1.26187,2.650721 -11.074984,-4.353449 z"
         sodipodi:nodetypes="ccccc" /><path
         id="rect53-4-626-8"
         style="fill:#e34f48;fill-opacity:1;stroke-width:0.79375;stroke-linecap:round;stroke-linejoin:round;paint-order:markers stroke fill"
         d="m 14.016845,83.37028 6.304328,2.571256 -1.285748,2.712716 -6.217356,-2.443971 z"
         sodipodi:nodetypes="ccccc" /></g><path
       id="rect53-4-15"
       style="fill:#0a0c0f;fill-opacity:0.540493;stroke-width:0.675243;stroke-linecap:round;stroke-linejoin:round;paint-order:markers stroke fill"
       d="m 26.714357,65.7557 c 3.74243,3.371761 6.959419,7.093816 12.362302,9.358607 l -2.652834,7.88851 -6.840678,0.240127 -0.829604,1.933364 c 0.945558,2.206469 1.61596,6.759283 0.266113,9.040678 -1.980733,3.347675 -10.263799,6.618774 -10.263799,6.618774 -0.989364,-6.61287 0.701548,-12.481221 3.226149,-18.117988 l 1.160802,-3.506426 C 19.733396,70.52132 24.450913,68.942549 26.714357,65.7557 Z"
       sodipodi:nodetypes="cccccscccc" /><path
       style="fill:none;fill-opacity:0.505882;stroke:#357ad7;stroke-width:1.35049;stroke-linecap:round;stroke-linejoin:round;stroke-dasharray:none;stroke-opacity:1;paint-order:markers stroke fill"
       d="m 17.948229,43.281779 4.917741,-0.507075 c 0.03288,1.74268 0.295522,2.793866 2.098205,4.302038 0.641781,0.536933 4.321244,1.99638 3.617463,3.549577 -0.70378,1.553196 -2.076749,1.168035 -2.965869,0.0079 -0.580116,-0.756935 1.386735,-2.528724 2.673931,-4.185474 0.685636,-0.882482 0.564754,-0.929818 1.122223,-2.550676 2.748785,0.07638 5.93597,0.740161 10.033348,2.434856"
       id="path56"
       sodipodi:nodetypes="ccszsscc" /><path
       style="fill:none;fill-opacity:0.505882;stroke:#357ad7;stroke-width:1.35049;stroke-linecap:round;stroke-linejoin:round;stroke-dasharray:none;stroke-opacity:1;paint-order:markers stroke fill"
       d="m 88.478975,44.770185 2.18404,-0.02309 1.936555,4.299998 c 0,0 2.347124,1.70166 1.155668,2.55312 -1.191455,0.85146 -1.287924,0.453867 -2.003305,-0.464913 -0.633175,-0.813199 0.854426,-1.558102 1.653054,-1.990952 1.79183,-0.971156 3.063789,-2.53329 3.589623,-3.726617 l 4.43358,0.934761"
       id="path57"
       sodipodi:nodetypes="ccczsscc" /><path
       id="rect53-4-3"
       style="fill:#1f2830;fill-opacity:0.529412;stroke-width:0.675243;stroke-linecap:round;stroke-linejoin:round;paint-order:markers stroke fill"
       d="M 93.690431,46.929481 96.859562,44.441004 101.55,45.033243 C 99.157031,53.545595 94.933058,71.892614 72.208086,75.936075 71.32871,73.133712 69.816321,70.457952 67.800535,67.882871 l -7.839256,-0.135233 2.774978,-2.417348 4.074592,-0.09527 2.265173,-0.14718 c 2.65206,1.851616 6.490921,2.279072 10.243436,2.810143 5.614201,-5.547707 12.289966,-9.405677 14.370973,-20.968498 z"
       sodipodi:nodetypes="ccccccccccc" /><path
       id="rect53-4-94"
       style="fill:#1f2830;fill-opacity:0.53065;stroke-width:0.675243;stroke-linecap:round;stroke-linejoin:round;paint-order:markers stroke fill"
       d="m 17.681731,42.32526 6.480202,-0.341024 2.227245,4.571738 c 2.049643,8.0487 4.101157,16.097928 16.358603,27.031442 0.710043,5.709595 -8.696634,19.042126 4.380023,30.100684 l 0.02867,3.74967 C 26.758653,101.98478 36.786272,81.885815 39.081032,74.866258 23.891617,69.973996 16.35293,49.481245 17.681731,42.32526 Z"
       sodipodi:nodetypes="cccccccc" /><path
       id="rect53-4-44"
       style="fill:#ffffff;fill-opacity:1;stroke-width:0.675243;stroke-linecap:round;stroke-linejoin:round;paint-order:markers stroke fill"
       d="m 22.561555,37.192636 c 5.675798,-1.088395 11.351596,0.71721 17.027394,2.35996 l -0.372626,4.474935 -10.382242,-1.552605 -2.498983,4.259359 -2.108123,-4.98067 -2.222478,-0.845953 z"
       sodipodi:nodetypes="cccccccc" /><path
       id="rect53-4-17"
       style="fill:#ffffff;fill-opacity:1;stroke-width:0.675243;stroke-linecap:round;stroke-linejoin:round;paint-order:markers stroke fill"
       d="m 94.733356,39.807849 5.075592,0.542568 -0.542568,3.354989 -2.327601,0.648423 -3.859134,3.508009 -1.279836,-3.54649 -2.492126,-1.695075 z"
       sodipodi:nodetypes="cccccccc" /><path
       id="rect53-4-178"
       style="fill:#ffe8e0;fill-opacity:1;stroke-width:0.675243;stroke-linecap:round;stroke-linejoin:round;paint-order:markers stroke fill"
       d="m 95.342738,39.148768 4.33003,-3.785253 0.384932,4.290772 z"
       sodipodi:nodetypes="cccc" /><path
       id="rect53-4-64"
       style="fill:#ffffff;fill-opacity:1;stroke-width:0.675243;stroke-linecap:round;stroke-linejoin:round;paint-order:markers stroke fill"
       d="m 40.12658,91.386252 c 0.0082,-19.589396 15.360192,-20.053161 32.334717,-16.31837 5.783405,3.908934 6.204188,11.768812 3.765778,21.587176 L 47.175343,103.70382 C 41.993191,99.111966 40.124767,95.757187 40.12658,91.386252 Z"
       sodipodi:nodetypes="scccs" /><path
       id="rect53-4-85"
       style="fill:#2c3a4b;fill-opacity:0.505882;stroke-width:0.675243;stroke-linecap:round;stroke-linejoin:round;paint-order:markers stroke fill"
       d="m 96.172826,39.75145 c -0.159235,1.95518 -1.224354,5.567693 -2.661152,8.380218 L 90.138889,42.58895 Z"
       sodipodi:nodetypes="cccc" /><path
       style="fill:none;fill-opacity:1;stroke:#232b30;stroke-width:1.35049;stroke-linecap:round;stroke-linejoin:round;stroke-dasharray:none;stroke-opacity:1;paint-order:markers stroke fill"
       d="m 92.336804,40.818169 c 2.144668,-0.25649 5.650659,0.01732 7.095377,1.040724"
       id="path54"
       sodipodi:nodetypes="cc" /><path
       style="fill:none;fill-opacity:1;stroke:#232b30;stroke-width:1.35049;stroke-linecap:round;stroke-linejoin:round;stroke-dasharray:none;stroke-opacity:1;paint-order:markers stroke fill"
       d="m 22.297341,38.063239 c 3.285031,-0.379266 13.672254,0.846471 16.932723,3.209024"
       id="path55"
       sodipodi:nodetypes="cc" /><path
       id="rect53-4-88"
       style="fill:#2c3a4b;fill-opacity:0.50506;stroke-width:0.675243;stroke-linecap:round;stroke-linejoin:round;paint-order:markers stroke fill"
       d="m 22.251998,37.141338 h 6.120963 c -1.579816,2.8559 -2.178459,5.87533 -1.951005,9.032441 l -2.28444,-4.050683 -2.325888,-0.818287 z"
       sodipodi:nodetypes="cccccc" /><path
       id="rect53-4-60"
       style="fill:#b6c4d4;fill-opacity:1;stroke-width:0.675243;stroke-linecap:round;stroke-linejoin:round;paint-order:markers stroke fill"
       d="M 40.654079,83.763494 C 45.038438,81.27087 49.289681,77.507467 55.144254,75.88132 L 48.181668,91.561438 46.916028,102.9468 C 42.386474,98.698577 37.678968,94.606725 40.654079,83.763494 Z"
       sodipodi:nodetypes="ccccc" /><path
       id="rect53-4-97"
       style="fill:#ffe8e0;fill-opacity:1;stroke-width:0.675243;stroke-linecap:round;stroke-linejoin:round;paint-order:markers stroke fill"
       d="m 49.029061,88.99279 c -4.014901,0 -2.417238,-7.983791 0.92678,-10.634459 3.716493,-2.945913 10.661261,-2.135885 16.226151,-2.287753 9.680353,-0.26418 11.802182,5.858 11.335749,11.763366 -0.458561,5.805705 -4.971674,19.545896 -2.779582,26.424296 -3.175126,0.7227 -7.024922,-0.11512 -11.106603,-1.43217 -4.826732,1.90505 -9.844897,1.48098 -16.557829,-1.61528 z"
       sodipodi:nodetypes="cssscccc" /><path
       id="rect53-4-54"
       style="fill:#e0b7aa;fill-opacity:1;stroke-width:0.675243;stroke-linecap:round;stroke-linejoin:round;paint-order:markers stroke fill"
       d="m 62.364886,77.579595 c 2.7147,-1.48977 6.540937,-0.912023 10.278357,0.02717 0,0 -2.562785,0.111551 -3.582002,0.512508 -3.216206,1.265244 3.994278,1.141119 -2.671955,28.408757 l -3.674082,-0.78822 c 0.688614,-9.43707 5.666695,-19.142241 -0.350318,-28.160216 z"
       sodipodi:nodetypes="ccsccc" /><path
       id="rect53-4-69"
       style="fill:#ffffff;fill-opacity:1;stroke-width:0.675243;stroke-linecap:round;stroke-linejoin:round;paint-order:markers stroke fill"
       d="m 47.729153,106.94594 6.775132,0.0521 2.553138,1.64629 1.685893,-1.6221 3.592272,0.026 0.357639,6.67316 c -5.340638,0.23201 -10.491939,-0.41956 -15.423897,-2.09474 z"
       sodipodi:nodetypes="cccccccc" /><path
       id="rect53-4-89"
       style="fill:#333c40;fill-opacity:1;stroke-width:0.675243;stroke-linecap:round;stroke-linejoin:round;paint-order:markers stroke fill"
       d="m 47.69476,108.34371 c 3.327159,0.58508 6.190445,1.38286 6.376676,2.7852 2.431788,0.29745 5.600281,1.38056 8.025931,0.72169 l 0.356561,2.15443 c -5.380975,0.12111 -10.420636,-0.89548 -15.257766,-2.58717 z"
       sodipodi:nodetypes="cccccc" /><path
       id="rect53-4-0"
       style="fill:#e0b7aa;fill-opacity:1;stroke-width:0.675243;stroke-linecap:round;stroke-linejoin:round;paint-order:markers stroke fill"
       d="m 47.257245,82.054004 c 2.917373,-5.253387 10.592878,-5.86784 10.592878,-5.86784 -8.745645,4.535603 -6.521996,18.783113 -6.568478,30.875196 l -3.84924,-0.35032 c 0,0 0.45248,-7.792251 0.714786,-13.908786 -2.734724,-4.033352 -2.191395,-8.404699 -0.889946,-10.74825 z"
       sodipodi:nodetypes="sccccs" /><path
       id="rect53-4-75"
       style="fill:#ffffff;fill-opacity:1;stroke-width:0.675243;stroke-linecap:round;stroke-linejoin:round;paint-order:markers stroke fill"
       d="m 62.752917,106.01105 4.462705,0.42428 1.455339,1.783 1.727277,-1.48043 3.640172,0.34607 0.868554,6.87754 c -5.060629,0.83083 -8.303411,-0.30767 -11.796406,-1.17511 z"
       sodipodi:nodetypes="cccccccc" /><path
       id="rect53-4-21"
       style="fill:#333c40;fill-opacity:1;stroke-width:0.675243;stroke-linecap:round;stroke-linejoin:round;paint-order:markers stroke fill"
       d="m 62.621849,109.21874 c 2.908722,-0.0408 4.444797,1.12586 4.790924,2.21706 2.190972,0.63392 4.655271,0.72118 7.139468,0.76864 v 1.95039 c -4.015162,0.0625 -7.865203,-0.41168 -11.482538,-1.64213 z"
       sodipodi:nodetypes="cccccc" /><path
       style="fill:none;fill-opacity:1;stroke:#e85049;stroke-width:1.35049;stroke-linecap:round;stroke-linejoin:round;stroke-dasharray:none;stroke-opacity:1;paint-order:markers stroke fill"
       d="m 47.566417,110.62115 c 2.595878,1.53019 11.485679,3.91685 14.62988,2.94837"
       id="path58"
       sodipodi:nodetypes="cc" /><path
       style="fill:none;fill-opacity:1;stroke:#e85049;stroke-width:1.35049;stroke-linecap:round;stroke-linejoin:round;stroke-dasharray:none;stroke-opacity:1;paint-order:markers stroke fill"
       d="m 63.129327,111.92739 c 3.222034,1.34361 8.660153,2.38368 11.233659,1.90337"
       id="path59"
       sodipodi:nodetypes="cc" /><path
       id="rect53-4-62"
       style="fill:#26313f;fill-opacity:0.526713;stroke-width:0.675243;stroke-linecap:round;stroke-linejoin:round;paint-order:markers stroke fill"
       d="m 62.598963,105.88293 3.780591,0.57771 -0.743801,6.85041 -2.84422,-0.0963 z"
       sodipodi:nodetypes="ccccc" /><path
       id="rect53-4-08"
       style="fill:#26313f;fill-opacity:0.52549;stroke-width:0.675243;stroke-linecap:round;stroke-linejoin:round;paint-order:markers stroke fill"
       d="m 47.576043,106.66821 3.730641,0.26558 0.55785,5.91083 -4.962484,-0.96284 z"
       sodipodi:nodetypes="ccccc" /><g
       id="g59"
       transform="matrix(0.85070023,0,0,0.85070023,7.8567346,7.5775143)"><path
         id="rect53-4-8"
         style="fill:#e85049;fill-opacity:1;stroke-width:0.79375;stroke-linecap:round;stroke-linejoin:round;paint-order:markers stroke fill"
         d="m 23.788244,104.36447 c 2.256972,1.79468 4.415216,4.32411 8.924264,3.72444 l 1.592647,2.77582 c -5.075704,1.18713 -8.161376,-3.40894 -10.516911,-6.50026 z"
         sodipodi:nodetypes="cccc" /><path
         id="rect53-4-8-5"
         style="fill:#3377d6;fill-opacity:1;stroke-width:0.79375;stroke-linecap:round;stroke-linejoin:round;paint-order:markers stroke fill"
         d="m 23.788244,104.36447 c 2.256972,1.79468 5.135542,5.66472 9.64459,5.06505 l 0.872321,1.43521 c -5.075704,1.18713 -8.161376,-3.40894 -10.516911,-6.50026 z"
         sodipodi:nodetypes="cccc" /></g><path
       id="rect53-4-5"
       style="fill:#ffffff;fill-opacity:1;stroke-width:0.675243;stroke-linecap:round;stroke-linejoin:round;paint-order:markers stroke fill"
       d="m 25.766988,102.52062 c 4.881763,1.95098 7.655679,0.60254 8.085043,0.91141 0.429363,0.30888 -1.616856,2.11264 4.398363,-0.38893 l 1.389018,1.67188 c -2.297332,1.1884 -4.927627,5.29023 -6.643007,1.38655 -5.431337,0.52127 -6.535358,-2.19949 -7.229417,-3.58091 z"
       sodipodi:nodetypes="czcccc" /><path
       id="rect53-4-91"
       style="fill:#0c1013;fill-opacity:0.398761;stroke-width:0.675243;stroke-linecap:round;stroke-linejoin:round;paint-order:markers stroke fill"
       d="m 28.833506,95.108843 c 1.699272,1.056033 2.761175,3.015009 6.480098,1.209866 0.917488,2.523015 0.776482,4.921501 4.531577,7.778331 -3.304106,3.83681 -5.940103,5.12955 -6.389332,1.82915 -4.896531,1.23369 -8.538114,-0.82501 -7.08182,-3.63395 l -2.178348,-3.495169 z"
       sodipodi:nodetypes="ccccccc" /><path
       id="rect53-4-629"
       style="fill:#ffe8e0;fill-opacity:1;stroke-width:0.675243;stroke-linecap:round;stroke-linejoin:round;paint-order:markers stroke fill"
       d="m 28.934784,31.147714 c 4.087611,-2.881003 8.673782,-1.177275 9.956218,1.426139 1.282437,2.603414 1.125899,6.879792 1.125899,6.879792 L 25.557088,36.789017 c 0,0 -0.709913,-2.760299 3.377696,-5.641303 z"
       sodipodi:nodetypes="zzccz" /><path
       id="rect53-4-31"
       style="fill:#e2bbae;fill-opacity:1;stroke-width:0.675243;stroke-linecap:round;stroke-linejoin:round;paint-order:markers stroke fill"
       d="m 34.505456,30.220322 c -2.985011,1.187762 -4.250993,3.980918 -5.323393,6.902751 L 25.89155,36.464597 c 0.98267,-4.795768 5.133625,-6.567165 8.613906,-6.244275 z"
       sodipodi:nodetypes="cccc" /><path
       id="rect53-4-03"
       style="fill:#ffe8e0;fill-opacity:1;stroke-width:0.675243;stroke-linecap:round;stroke-linejoin:round;paint-order:markers stroke fill"
       d="m 57.048376,36.721175 -0.04386,6.748271 11.584468,1.113675 1.558703,-1.494573 2.009363,1.462682 1.179771,-9.427663 c 4.611172,1.65034 5.944825,8.763212 8.547204,13.76154 -0.0316,20.380458 -23.856589,15.88083 -33.382853,13.020508 l -1.082155,-19.324605 1.571865,-2.289476 2.317711,-0.753833 0.769874,-1.961999 z"
       sodipodi:nodetypes="ccccccccccccc" /><path
       id="rect53-4-66"
       style="fill:#e0b7ab;fill-opacity:1;stroke-width:0.675243;stroke-linecap:round;stroke-linejoin:round;paint-order:markers stroke fill"
       d="m 74.3601,35.785761 2.480651,0.01578 2.278059,6.992353 -0.185911,1.195895 c -2.1942,-0.752902 -2.278322,-2.234419 -1.476185,-3.388059 -2.27,-0.398992 -3.082309,-3.035639 -3.096614,-4.815968 z"
       sodipodi:nodetypes="cccccc" /><path
       id="rect53-4-93"
       style="fill:#e0b7ab;fill-opacity:1;stroke-width:0.675243;stroke-linecap:round;stroke-linejoin:round;paint-order:markers stroke fill"
       d="m 51.488671,37.001082 c 0,-2.047822 6.130514,-0.398756 6.130514,-0.398756 l -0.705481,6.952882 12.502051,0.224206 1.101268,-0.962966 1.974874,1.616757 -0.04236,2.207501 -2.974287,0.598684 0.525802,-2.943285 -0.910224,0.545693 c 0,0 -0.192483,1.549352 -0.540411,1.933594 -0.347929,0.384242 -14.492943,-0.812711 -14.492943,-0.812711 -0.259157,-2.647092 -0.151794,-5.294183 0.559187,-7.941276 l -1.899239,0.298693 c 0.447512,2.658507 -0.662705,4.430888 -4.578604,5.550132 l 0.359185,-2.933889 c 0,0 2.990665,-1.364122 2.990665,-3.935259 z"
       sodipodi:nodetypes="sccccccccczcccccs" /><path
       style="fill:none;stroke:#000000;stroke-width:2.02573;stroke-linecap:round;stroke-linejoin:round;stroke-dasharray:none;stroke-opacity:0.996078;paint-order:markers stroke fill"
       d="M 34.085748,29.753551 C 42.632599,14.77432 58.657762,15.210123 73.123693,12.160165 c 14.465931,-3.0499592 8.502062,7.294137 -3.640588,18.312684 -4.997683,4.535022 -16.576161,8.746733 -27.356528,5.217673"
       id="path1"
       sodipodi:nodetypes="czsc" /><path
       style="fill:none;stroke:#000000;stroke-width:2.02573;stroke-linecap:round;stroke-linejoin:round;stroke-dasharray:none;stroke-opacity:0.996078;paint-order:markers stroke fill"
       d="M 79.469701,19.926281 C 99.6813,19.610615 108.1302,21.53263 104.26817,29.043999 101.51773,34.393381 97.293666,37.520328 88.521959,43.466702"
       id="path2"
       sodipodi:nodetypes="csc" /><path
       style="fill:none;stroke:#000000;stroke-width:2.02573;stroke-linecap:round;stroke-linejoin:round;stroke-dasharray:none;stroke-opacity:0.996078;paint-order:markers stroke fill"
       d="m 76.369582,24.065565 c 8.300531,5.921542 11.636139,13.233262 11.61658,21.484429 2.614109,-0.334985 3.576584,4.731199 1.442283,6.12687 -1.417783,0.927123 -3.595895,0.952029 -4.622987,-2.388089 -0.88543,-0.723885 -2.18314,-0.745351 -3.002315,-0.366224"
       id="path3"
       sodipodi:nodetypes="ccscc" /><path
       style="fill:none;stroke:#000000;stroke-width:2.02573;stroke-linecap:round;stroke-linejoin:round;stroke-dasharray:none;stroke-opacity:0.996078;paint-order:markers stroke fill"
       d="M 86.699015,52.35355 C 85.39552,58.186348 81.722887,66.438 79.407246,67.39283 77.091605,68.34766 71.361606,67.361524 67.785984,64.886282"
       id="path4"
       sodipodi:nodetypes="czc" /><path
       style="fill:none;stroke:#000000;stroke-width:2.02573;stroke-linecap:round;stroke-linejoin:round;stroke-dasharray:none;stroke-opacity:0.996078;paint-order:markers stroke fill"
       d="m 84.875557,39.462599 4.327891,3.444651"
       id="path5" /><path
       style="fill:none;stroke:#000000;stroke-width:2.02573;stroke-linecap:round;stroke-linejoin:round;stroke-dasharray:none;stroke-opacity:0.996078;paint-order:markers stroke fill"
       d="M 81.342582,27.980436 C 87.303926,26.14888 92.345557,24.90938 99.007452,24.712435"
       id="path7"
       sodipodi:nodetypes="cc" /><path
       style="fill:none;stroke:#000000;stroke-width:2.02573;stroke-linecap:round;stroke-linejoin:round;stroke-dasharray:none;stroke-opacity:0.996078;paint-order:markers stroke fill"
       d="m 48.132632,93.958713 c -0.952927,-4.108091 -2.966173,-10.086026 0.635029,-13.989048 1.583277,-1.715974 4.180545,-3.52964 8.550701,-3.76414 14.310177,-0.767876 4.857841,30.648535 4.857841,30.648535 -0.139859,2.6571 1.229754,6.35464 -0.01965,7.16016 -1.258387,0.8113 -4.734501,0.20613 -7.687999,-0.46061 -4.091817,-0.92372 -8.022633,-2.09564 -7.287635,-3.45342 0.474282,-8.55786 1.569985,-16.200362 2.629876,-24.885585"
       id="path8"
       sodipodi:nodetypes="csscsscc" /><path
       style="fill:none;stroke:#000000;stroke-width:2.02573;stroke-linecap:round;stroke-linejoin:round;stroke-dasharray:none;stroke-opacity:0.996078;paint-order:markers stroke fill"
       d="m 61.911228,77.707036 c 4.556834,-1.889985 11.688288,-1.551423 13.248652,1.501514 4.84744,9.484279 0.618497,18.542568 -1.353527,27.57226"
       id="path9"
       sodipodi:nodetypes="csc" /><path
       style="fill:none;stroke:#000000;stroke-width:2.02573;stroke-linecap:round;stroke-linejoin:round;stroke-dasharray:none;stroke-opacity:0.996078;paint-order:markers stroke fill"
       d="m 62.839076,105.90209 4.245211,0.61625 c 0.431551,0.69477 0.877707,1.17588 1.495216,1.79085 1.191342,-0.59528 0.999608,-0.87148 1.894893,-1.49467 l 3.741493,-0.0324 c -0.345126,2.5368 1.154323,6.91845 0.123673,7.47772 -1.700417,0.92271 -7.611158,-0.38121 -11.420866,-1.73832"
       id="path10"
       sodipodi:nodetypes="cccccsc" /><path
       style="fill:none;stroke:#000000;stroke-width:2.02573;stroke-linecap:round;stroke-linejoin:round;stroke-dasharray:none;stroke-opacity:0.996078;paint-order:markers stroke fill"
       d="m 47.70695,106.58681 c 2.302858,0.29998 4.599849,0.60818 7.257942,0.41082 0.540873,0.72193 1.316497,1.24823 2.068278,1.7944 0.715381,-0.52963 1.291997,-1.1425 1.643308,-1.89056 l 3.312654,-0.0129"
       id="path11"
       sodipodi:nodetypes="ccccc" /><path
       style="fill:none;stroke:#000000;stroke-width:2.02573;stroke-linecap:round;stroke-linejoin:round;stroke-dasharray:none;stroke-opacity:0.996078;paint-order:markers stroke fill"
       d="m 99.414844,36.20554 c 0.659776,2.993665 0.40239,5.874433 -0.407392,8.203222"
       id="path12"
       sodipodi:nodetypes="cc" /><path
       style="fill:none;stroke:#000000;stroke-width:2.02573;stroke-linecap:round;stroke-linejoin:round;stroke-dasharray:none;stroke-opacity:0.996078;paint-order:markers stroke fill"
       d="m 93.171802,40.443669 c 2.193105,-0.914222 3.855101,-0.752307 6.436287,0.205415"
       id="path13"
       sodipodi:nodetypes="cc" /><path
       style="fill:none;stroke:#000000;stroke-width:2.02573;stroke-linecap:round;stroke-linejoin:round;stroke-dasharray:none;stroke-opacity:0.996078;paint-order:markers stroke fill"
       d="m 67.402546,64.973047 0.094,2.474527 4.717299,7.525555"
       id="path14"
       sodipodi:nodetypes="ccc" /><path
       style="fill:none;stroke:#000000;stroke-width:1.80065;stroke-linecap:round;stroke-linejoin:round;stroke-dasharray:none;stroke-opacity:0.996078;paint-order:markers stroke fill"
       d="m 57.321505,36.535017 c -0.412083,2.198434 -0.770821,5.917311 -0.343196,6.629346 0.427625,0.712034 11.206195,1.685746 12.030606,1.072866 0.824411,-0.612879 0.605518,-1.124226 1.198641,-1.483509 0.593122,0.334684 0.718742,1.651147 1.927618,1.510166 1.208877,-0.140981 1.211332,-6.571656 0.489498,-11.490254"
       id="path15"
       sodipodi:nodetypes="czzczc" /><g
       id="g51"
       transform="matrix(0.85070023,0,0,0.85070023,7.8567346,7.5775143)"><path
         style="fill:none;stroke:#2c51a9;stroke-width:1.32292;stroke-linecap:round;stroke-linejoin:round;stroke-dasharray:none;stroke-opacity:1;paint-order:markers stroke fill"
         d="m 66.44066,68.327056 c -3.945224,5.361679 -12.117212,7.083091 -20.586635,6.168201"
         id="path45-1"
         sodipodi:nodetypes="cc" /><path
         style="fill:none;stroke:#3577d1;stroke-width:1.32292;stroke-linecap:round;stroke-linejoin:round;stroke-dasharray:none;stroke-opacity:1;paint-order:markers stroke fill"
         d="M 66.560062,67.885317 C 62.280963,73.781196 54.142363,75.168733 45.67294,74.253843"
         id="path45"
         sodipodi:nodetypes="cc" /></g><path
       style="fill:none;stroke:#000000;stroke-width:2.02573;stroke-linecap:round;stroke-linejoin:round;stroke-dasharray:none;stroke-opacity:0.996078;paint-order:markers stroke fill"
       d="m 70.305247,36.347088 c 2.575111,1.809679 5.97202,2.050471 9.544082,1.95688"
       id="path17"
       sodipodi:nodetypes="cc" /><path
       style="fill:none;stroke:#000000;stroke-width:2.02573;stroke-linecap:round;stroke-linejoin:round;stroke-dasharray:none;stroke-opacity:0.996078;paint-order:markers stroke fill"
       d="m 59.868552,36.278424 c -2.747156,1.085989 -5.794785,1.042125 -7.301843,1.127576 -1.410025,0.07995 -0.740393,1.911743 -1.246634,2.477204 -0.50624,0.565462 -1.837597,0.03807 -2.403186,0.686623 -0.565589,0.648556 -0.0336,1.239817 -0.755287,1.956882 -0.721688,0.717066 -1.44941,-0.05714 -2.059875,0.686624 -0.738833,0.900167 -2.110862,4.644147 -5.59599,4.772042"
       id="path18"
       sodipodi:nodetypes="cszzzsc" /><path
       style="fill:none;stroke:#000000;stroke-width:2.02573;stroke-linecap:round;stroke-linejoin:round;stroke-dasharray:none;stroke-opacity:0.996078;paint-order:markers stroke fill"
       d="m 47.778336,43.081125 c 1.383284,13.905943 0.591004,21.247964 -1.756551,21.291519 -2.347555,0.04356 -6.024478,-11.855226 -5.74871,-19.05591 -3.865881,-1.675457 -8.150922,-2.665657 -11.603879,-2.66144 -0.799228,1.560583 -0.868416,3.681739 -2.342067,3.672787 -1.473652,-0.0089 -1.872431,-2.623484 -2.182381,-4.364761 -2.469584,-0.521179 -4.42647,-0.01696 -6.493914,0.266143 -1.400977,9.12073 5.384221,24.405381 21.025376,32.948628 -9.766421,25.145739 1.928674,30.611479 8.46338,31.990509"
       id="path19"
       sodipodi:nodetypes="czcczcccc" /><path
       style="fill:none;stroke:#000000;stroke-width:2.02573;stroke-linecap:round;stroke-linejoin:round;stroke-dasharray:none;stroke-opacity:0.996078;paint-order:markers stroke fill"
       d="M 51.238208,62.988696 C 50.383491,68.806175 43.035941,73.829135 38.62298,75.018405"
       id="path20"
       sodipodi:nodetypes="cc" /><path
       style="fill:none;stroke:#000000;stroke-width:2.02573;stroke-linecap:round;stroke-linejoin:round;stroke-dasharray:none;stroke-opacity:0.996078;paint-order:markers stroke fill"
       d="m 21.51128,41.638852 c -0.347273,-1.20111 -0.372369,-3.533974 1.600532,-4.551514 1.982855,-1.022675 14.272247,1.055961 16.005327,2.800931 1.427071,1.436862 -0.250083,4.501499 -0.250083,4.501499"
       id="path21"
       sodipodi:nodetypes="cssc" /><path
       style="fill:none;stroke:#000000;stroke-width:2.02573;stroke-linecap:round;stroke-linejoin:round;stroke-dasharray:none;stroke-opacity:0.996078;paint-order:markers stroke fill"
       d="m 25.681759,36.720013 c 0.35685,-2.30105 2.402726,-7.32077 7.566806,-6.955805 5.164081,0.364964 7.661858,5.932458 6.226367,10.068113"
       id="path22"
       sodipodi:nodetypes="czc" /><path
       style="fill:none;stroke:#000000;stroke-width:2.02573;stroke-linecap:round;stroke-linejoin:round;stroke-dasharray:none;stroke-opacity:0.996078;paint-order:markers stroke fill"
       d="m 43.539173,36.301311 c 0.02119,0.699154 -0.175492,1.13037 -0.85442,1.584555 -0.535419,0.358181 -1.522832,0.363356 -2.226601,1.096686 -0.729288,0.759922 -0.814957,1.561942 -0.465258,2.625393"
       id="path23"
       sodipodi:nodetypes="cssc" /><path
       style="fill:none;stroke:#000000;stroke-width:2.02573;stroke-linecap:round;stroke-linejoin:round;stroke-dasharray:none;stroke-opacity:0.996078;paint-order:markers stroke fill"
       d="m 23.17948,61.535274 c 0,0 -4.318858,4.612297 -5.29239,6.456117 -1.68168,3.185016 1.074585,10.665851 1.074585,10.665851 l -0.156407,3.065015 c -4.182839,1.779834 -7.276441,5.036527 -7.207485,6.909737 1.229438,0.667157 2.673219,0.446536 3.902657,0.469224 -0.483294,4.165161 1.137713,7.761752 2.956677,11.594432 10.52211,-3.789039 13.007788,-6.204875 10.20183,-15.774571 l 0.703835,-2.033297 c 2.026319,0.448409 3.957036,0.763887 6.66442,0.07718"
       id="path24"
       sodipodi:nodetypes="cscccccccc" /><path
       style="fill:none;stroke:#000000;stroke-width:2.02573;stroke-linecap:round;stroke-linejoin:round;stroke-dasharray:none;stroke-opacity:0.996078;paint-order:markers stroke fill"
       d="m 19.082319,78.580716 c 3.442351,0.640191 6.877187,1.393108 10.174913,4.20268"
       id="path25"
       sodipodi:nodetypes="cc" /><path
       style="fill:none;stroke:#000000;stroke-width:2.02573;stroke-linecap:round;stroke-linejoin:round;stroke-dasharray:none;stroke-opacity:0.996078;paint-order:markers stroke fill"
       d="m 18.900568,80.669625 c 2.919196,1.822848 6.29803,3.100954 9.748381,4.159815"
       id="path26"
       sodipodi:nodetypes="cc" /><path
       style="fill:none;stroke:#000000;stroke-width:2.02573;stroke-linecap:round;stroke-linejoin:round;stroke-dasharray:none;stroke-opacity:0.996078;paint-order:markers stroke fill"
       d="m 35.226777,86.807171 c -0.551659,-0.607042 -1.476411,-0.544018 -2.020399,-0.265131 -0.543987,0.278889 -0.655189,1.649049 -1.50536,2.217266 -0.850172,0.568216 -1.117763,-0.04902 -2.259882,-0.101591"
       id="path27"
       sodipodi:nodetypes="czzc" /><path
       style="fill:none;stroke:#000000;stroke-width:2.02573;stroke-linecap:round;stroke-linejoin:round;stroke-dasharray:none;stroke-opacity:0.996078;paint-order:markers stroke fill"
       d="m 24.916617,98.221198 c -0.402956,1.55724 0.238091,2.480552 1.501847,3.829462 -0.118504,0.6599 -0.15976,1.30072 -0.07936,1.86117 2.674489,3.15702 4.294502,2.27364 7.19133,2.12355 0.256361,3.70529 4.073273,0.99287 6.103178,-1.9167"
       id="path28"
       sodipodi:nodetypes="ccccc" /><path
       style="fill:none;stroke:#000000;stroke-width:2.02573;stroke-linecap:round;stroke-linejoin:round;stroke-dasharray:none;stroke-opacity:0.996078;paint-order:markers stroke fill"
       d="m 57.791228,64.479612 c 0.375915,1.290297 0.570906,2.082908 1.658954,3.373205"
       id="path29"
       sodipodi:nodetypes="cc" /><path
       style="fill:none;stroke:#000000;stroke-width:2.02573;stroke-linecap:round;stroke-linejoin:round;stroke-dasharray:none;stroke-opacity:0.996078;paint-order:markers stroke fill"
       d="m 63.486969,65.25379 c -4.516575,4.514138 -10.2135,4.831475 -16.036549,4.700368"
       id="path30"
       sodipodi:nodetypes="cc" /><path
       style="fill:none;stroke:#000000;stroke-width:1.80065;stroke-linecap:round;stroke-linejoin:round;stroke-dasharray:none;stroke-opacity:0.996078;paint-order:markers stroke fill"
       d="m 79.741865,97.921243 c 0,0 -0.26163,0.654061 -0.355189,1.213983 -0.09356,0.559923 0.485361,0.66917 0.176677,1.412754 -0.308683,0.74359 -0.467988,0.63184 -0.667706,1.43327 -0.199717,0.80144 0.281682,1.10878 0.149975,1.82702 -0.131709,0.71825 -1.031634,0.77479 -1.080133,1.26386 -0.03068,0.30931 0.321516,0.74898 0.182657,1.21699 -0.138859,0.46802 -0.409937,0.87581 -0.409937,0.87581"
       id="path31"
       sodipodi:nodetypes="czzzzszc" /><path
       style="fill:none;stroke:#000000;stroke-width:1.80065;stroke-linecap:round;stroke-linejoin:round;stroke-dasharray:none;stroke-opacity:0.996078;paint-order:markers stroke fill"
       d="m 93.407799,68.79199 c 0,0 -0.170821,1.319211 -0.61572,1.857944 -0.444899,0.538734 -1.288581,0.54481 -1.696211,1.020805 -0.407631,0.475996 -0.181574,1.248623 -0.67249,1.648538 -0.490915,0.399915 -1.911668,0.405341 -1.911668,0.405341"
       id="path32"
       sodipodi:nodetypes="czzzc" /><path
       style="fill:none;stroke:#000000;stroke-width:1.80065;stroke-linecap:round;stroke-linejoin:round;stroke-dasharray:none;stroke-opacity:0.996078;paint-order:markers stroke fill"
       d="m 107.2177,29.123806 c 0,0 -0.10916,2.135272 -0.45236,2.811758 -0.34005,0.670292 -1.10364,0.87723 -1.42179,1.558195 -0.18504,0.396072 -0.12027,0.889473 -0.29794,1.288923 -0.26151,0.588063 -1.23816,1.368212 -1.23816,1.368212"
       id="path33"
       sodipodi:nodetypes="csssc" /><path
       style="fill:none;stroke:#000000;stroke-width:1.80065;stroke-linecap:round;stroke-linejoin:round;stroke-dasharray:none;stroke-opacity:0.996078;paint-order:markers stroke fill"
       d="m 85.216866,15.773682 c 0,0 0.597777,-0.462921 1.024522,-0.477305 0.426746,-0.01434 0.936915,0.359959 1.465797,0.367687 0.528882,0.0077 1.01656,-0.364189 1.623598,-0.357189 0.607037,0.007 1.294411,0.500661 1.923476,0.469914 0.629067,-0.03075 1.140949,-0.561044 1.697499,-0.595291 0.556556,-0.03425 1.486468,0.482669 1.486468,0.482669"
       id="path34"
       sodipodi:nodetypes="czzzzzc" /><path
       style="fill:none;stroke:#000000;stroke-width:1.80065;stroke-linecap:round;stroke-linejoin:round;stroke-dasharray:none;stroke-opacity:0.996078;paint-order:markers stroke fill"
       d="m 47.241892,13.879433 c 0,0 -1.842132,0.172332 -2.428847,0.545679 -0.586715,0.373346 -0.45246,0.95567 -1.029829,1.331377 -0.577369,0.375706 -1.615479,0.163525 -2.37889,0.585552 -0.763412,0.422026 -1.636019,1.809223 -1.636019,1.809223"
       id="path35"
       sodipodi:nodetypes="czzzc" /><path
       style="fill:none;stroke:#000000;stroke-width:1.80065;stroke-linecap:round;stroke-linejoin:round;stroke-dasharray:none;stroke-opacity:0.996078;paint-order:markers stroke fill"
       d="m 37.290876,19.595676 -0.235055,0.266077"
       id="path36"
       sodipodi:nodetypes="cc" /><path
       style="fill:none;stroke:#000000;stroke-width:1.80065;stroke-linecap:round;stroke-linejoin:round;stroke-dasharray:none;stroke-opacity:0.996078;paint-order:markers stroke fill"
       d="m 14.30085,51.626788 c 0,0 0.506844,0.709812 0.60281,1.195354 0.09597,0.485543 -0.324011,1.070935 -0.125147,1.626053 0.198863,0.555117 1.06056,0.877504 1.320472,1.376024 0.259912,0.498522 0.115945,1.073552 0.286085,1.437946 0.17014,0.364393 0.593341,0.737841 0.593341,0.737841"
       id="path37"
       sodipodi:nodetypes="czzzzc" /><path
       style="fill:none;stroke:#000000;stroke-width:1.80065;stroke-linecap:round;stroke-linejoin:round;stroke-dasharray:none;stroke-opacity:0.996078;paint-order:markers stroke fill"
       d="m 11.885234,93.26396 c 0,0 -0.01985,0.719261 0.05956,1.062993 0.0794,0.343733 0.366011,0.550292 0.407797,0.969767 0.04183,0.419471 -0.396082,0.89894 -0.29275,1.447987 0.103333,0.549046 1.014156,1.576867 1.014156,1.576867"
       id="path38"
       sodipodi:nodetypes="czzzc" /><path
       style="fill:none;stroke:#000000;stroke-width:1.80065;stroke-linecap:round;stroke-linejoin:round;stroke-dasharray:none;stroke-opacity:0.996078;paint-order:markers stroke fill"
       d="m 29.536969,109.74661 c 0,0 0.842526,0.16366 1.250895,0.31434 0.408368,0.15066 0.605612,0.67072 1.094937,0.78035 0.489325,0.10963 1.131783,-0.33413 1.658767,-0.22569 0.526985,0.10844 0.809392,0.60939 1.40869,0.71324 0.599299,0.10386 1.725893,-0.50085 1.725893,-0.50085"
       id="path39"
       sodipodi:nodetypes="czzzzc" /><path
       style="fill:none;stroke:#000000;stroke-width:1.80065;stroke-linecap:round;stroke-linejoin:round;stroke-dasharray:none;stroke-opacity:0.996078;paint-order:markers stroke fill"
       d="M 86.568527,74.766082 86.42056,74.924555"
       id="path40"
       sodipodi:nodetypes="cc" /><path
       style="fill:none;stroke:#000000;stroke-width:1.80065;stroke-linecap:round;stroke-linejoin:round;stroke-dasharray:none;stroke-opacity:0.996078;paint-order:markers stroke fill"
       d="m 27.504767,108.44811 -0.352862,0.3689"
       id="path41" /><path
       style="fill:none;stroke:#000000;stroke-width:1.57556;stroke-linecap:round;stroke-linejoin:round;stroke-dasharray:none;stroke-opacity:0.996078;paint-order:markers stroke fill"
       d="m 60.853728,58.938797 c 0,0 1.974425,-2.383985 2.991011,-2.289992 1.016587,0.09399 2.149791,2.523665 2.149791,2.523665"
       id="path42"
       sodipodi:nodetypes="czc" /><path
       style="fill:none;stroke:#000000;stroke-width:2.25081;stroke-linecap:round;stroke-linejoin:round;stroke-dasharray:none;stroke-opacity:0.996078;paint-order:markers stroke fill"
       d="m 48.3756,43.750064 c 0,0 7.841484,2.02131 10.774619,3.73447 l -0.21261,0.892254 c -1.340117,0.826488 -10.42181,5.094065 -10.42181,5.094065"
       id="path43"
       sodipodi:nodetypes="cccc" /><path
       style="fill:none;stroke:#000000;stroke-width:2.25081;stroke-linecap:round;stroke-linejoin:round;stroke-dasharray:none;stroke-opacity:0.996078;paint-order:markers stroke fill"
       d="m 79.407348,44.310879 -9.440381,3.598562 -0.233675,0.607549 c 2.971556,1.974483 5.881468,4.087168 8.973036,5.701617"
       id="path44"
       sodipodi:nodetypes="cccc" /><g
       id="g52"
       transform="matrix(0.85070023,0,0,0.85070023,7.8567346,7.3702578)"><path
         style="fill:none;stroke:#2c51a9;stroke-width:1.32292;stroke-linecap:round;stroke-linejoin:round;stroke-dasharray:none;stroke-opacity:1;paint-order:markers stroke fill"
         d="m 51.955302,74.750393 c 0.492552,-1.059251 2.106008,-1.330357 2.840551,0.333314"
         id="path48-7"
         sodipodi:nodetypes="cc" /><path
         style="fill:none;stroke:#2c51a9;stroke-width:1.32292;stroke-linecap:round;stroke-linejoin:round;stroke-dasharray:none;stroke-opacity:1;paint-order:markers stroke fill"
         d="m 56.846771,73.748535 c 0.492552,-1.059251 2.106008,-1.330357 2.840551,0.333314"
         id="path48-7-6"
         sodipodi:nodetypes="cc" /><path
         style="fill:none;stroke:#2c51a9;stroke-width:1.32292;stroke-linecap:round;stroke-linejoin:round;stroke-dasharray:none;stroke-opacity:1;paint-order:markers stroke fill"
         d="m 51.903195,74.76309 c -0.327743,1.208841 0.705673,2.46415 1.827605,2.123054 1.121931,-0.341096 1.737922,-1.346103 0.436419,-2.655764"
         id="path46-3"
         sodipodi:nodetypes="czc" /><path
         style="fill:none;stroke:#3377d6;stroke-width:1.32292;stroke-linecap:round;stroke-linejoin:round;stroke-dasharray:none;stroke-opacity:1;paint-order:markers stroke fill"
         d="m 51.57315,74.326521 c -0.327743,1.208841 0.705673,2.46415 1.827605,2.123054 1.121931,-0.341096 1.737922,-1.346103 0.436419,-2.655764"
         id="path46"
         sodipodi:nodetypes="czc" /><path
         style="fill:none;stroke:#2c51a9;stroke-width:1.5875;stroke-linecap:round;stroke-linejoin:round;stroke-dasharray:none;stroke-opacity:1;paint-order:markers stroke fill"
         d="m 56.877183,73.653855 c -0.327743,1.208841 0.705673,2.46415 1.827605,2.123054 1.121931,-0.341096 1.737922,-1.346103 0.436419,-2.655764"
         id="path46-2-2"
         sodipodi:nodetypes="czc" /><path
         style="fill:none;stroke:#3377d6;stroke-width:1.5875;stroke-linecap:round;stroke-linejoin:round;stroke-dasharray:none;stroke-opacity:1;paint-order:markers stroke fill"
         d="m 56.618526,73.318095 c -0.327743,1.208841 0.705673,2.46415 1.827605,2.123054 1.121931,-0.341096 1.737922,-1.346103 0.436419,-2.655764"
         id="path46-2"
         sodipodi:nodetypes="czc" /><path
         style="fill:none;stroke:#b81f18;stroke-width:1.32292;stroke-linecap:round;stroke-linejoin:round;stroke-dasharray:none;stroke-opacity:1;paint-order:markers stroke fill"
         d="m 52.815383,71.9089 c 0.534471,-1.241133 -0.985934,-2.984442 -2.287228,-2.334279 -1.301294,0.650163 -1.44004,2.034377 -0.112889,3.230812"
         id="path46-2-0-4"
         sodipodi:nodetypes="czc" /><path
         style="fill:none;stroke:#b81f18;stroke-width:0.79375;stroke-linecap:round;stroke-linejoin:round;stroke-dasharray:none;stroke-opacity:1;paint-order:markers stroke fill"
         d="m 49.709874,71.2834 c 1.00787,0.461505 1.977497,0.425844 2.896621,-0.266353"
         id="path51-1"
         sodipodi:nodetypes="cc" /><path
         style="fill:none;stroke:#e85049;stroke-width:1.32292;stroke-linecap:round;stroke-linejoin:round;stroke-dasharray:none;stroke-opacity:1;paint-order:markers stroke fill"
         d="m 52.902275,71.575188 c 0.534471,-1.241133 -0.985934,-2.984442 -2.287228,-2.334279 -1.301294,0.650163 -1.44004,2.034377 -0.112889,3.230812"
         id="path46-2-0"
         sodipodi:nodetypes="czc" /><path
         style="fill:none;stroke:#b81f18;stroke-width:1.32292;stroke-linecap:round;stroke-linejoin:round;stroke-dasharray:none;stroke-opacity:1;paint-order:markers stroke fill"
         d="m 55.818091,71.674476 c 1.280894,0.430561 2.169241,-1.000688 1.336915,-2.371337 -0.832326,-1.370648 -2.177183,-1.340858 -3.260389,0.08022"
         id="path46-2-0-6-0"
         sodipodi:nodetypes="czc" /><path
         style="fill:none;stroke:#e85049;stroke-width:1.32292;stroke-linecap:round;stroke-linejoin:round;stroke-dasharray:none;stroke-opacity:1;paint-order:markers stroke fill"
         d="m 57.324397,70.500803 c 0.534471,-1.241133 -0.852756,-3.051031 -2.287228,-2.334279 -1.434472,0.716752 -1.515414,2.059502 -0.188263,3.255937"
         id="path46-2-0-6"
         sodipodi:nodetypes="czc" /><path
         style="fill:none;stroke:#3577d1;stroke-width:1.32292;stroke-linecap:round;stroke-linejoin:round;stroke-dasharray:none;stroke-opacity:1;paint-order:markers stroke fill"
         d="m 57.632745,70.517708 c -0.566655,0.946617 -1.322236,0.9805 -2.330615,1.132013"
         id="path49"
         sodipodi:nodetypes="cc" /><path
         style="fill:none;stroke:#e3504b;stroke-width:1.32292;stroke-linecap:round;stroke-linejoin:round;stroke-dasharray:none;stroke-opacity:1;paint-order:markers stroke fill"
         d="m 56.267671,72.91491 c 0.346844,-0.46633 1.135343,-1.081729 2.330615,-0.832362"
         id="path50"
         sodipodi:nodetypes="cc" /><path
         style="fill:none;stroke:#e85049;stroke-width:0.79375;stroke-linecap:round;stroke-linejoin:round;stroke-dasharray:none;stroke-opacity:1;paint-order:markers stroke fill"
         d="m 49.534016,71.100668 c 1.00787,0.461505 1.977497,0.425844 2.896621,-0.266353"
         id="path51"
         sodipodi:nodetypes="cc" /><path
         style="fill:none;stroke:#3577d1;stroke-width:1.32292;stroke-linecap:round;stroke-linejoin:round;stroke-dasharray:none;stroke-opacity:1;paint-order:markers stroke fill"
         d="m 52.646742,71.77473 c -0.584332,0.653368 -1.179505,1.096597 -2.012777,1.089932"
         id="path47"
         sodipodi:nodetypes="cc" /><path
         style="fill:none;stroke:#e3504b;stroke-width:1.32292;stroke-linecap:round;stroke-linejoin:round;stroke-dasharray:none;stroke-opacity:1;paint-order:markers stroke fill"
         d="m 51.406678,73.913745 c 0.535411,-0.407932 0.949325,-0.937362 2.164141,-0.66589"
         id="path48"
         sodipodi:nodetypes="cc" /></g><path
       style="fill:none;stroke:#000000;stroke-width:1.80065;stroke-linecap:round;stroke-linejoin:round;stroke-dasharray:none;stroke-opacity:0.996078;paint-order:markers stroke fill"
       d="m 73.091372,35.21691 c 0.805071,0.06886 2.853879,0.34319 3.28914,1.414685 0.435262,1.071496 -0.191724,1.445663 0.159151,2.068977 0.350875,0.623314 1.675184,0.791133 2.015925,1.591521 0.340741,0.800387 -0.303654,1.143964 0.123783,2.228126 0.427438,1.084162 1.712555,0.954399 1.998242,2.122028 0.285686,1.167629 -0.230532,1.555133 0.106101,2.6879 0.336634,1.132767 0.92033,-0.07803 1.137507,3.010655 0.526734,7.491193 -9.626477,20.640754 -33.745983,11.277658"
       id="path16"
       sodipodi:nodetypes="czzzzzzsc" /><path
       style="fill:none;stroke:#000000;stroke-width:2.02573;stroke-linecap:round;stroke-linejoin:round;stroke-dasharray:none;stroke-opacity:0.996078;paint-order:markers stroke fill"
       d="m 88.496853,44.320437 3.44465,-0.353296 c 0.385981,2.350619 0.91543,2.692706 1.382395,3.909566 1.373048,-0.646783 2.097274,-2.141987 3.295358,-3.576123 l 5.302904,1.079747 C 94.97014,70.842967 77.741846,76.572372 72.126057,75.163454 59.984069,72.117207 48.52093,72.70418 43.30237,79.06166 c -5.155842,6.281074 -4.726971,18.145486 3.770371,23.90614"
       id="path6"
       sodipodi:nodetypes="cccccssc" /><path
       id="rect53-4-10"
       style="fill:#a08b88;fill-opacity:1;stroke-width:0.144719;stroke-linecap:round;stroke-linejoin:round;paint-order:markers stroke fill"
       d="m 61.963241,47.408438 c 0.352873,-0.200301 1.532979,0.0573 2.444885,0.100755 0.911907,0.04345 1.865191,-0.192002 2.421618,0.203758 0.556427,0.395758 0.34552,1.969612 -0.002,2.314136 -0.347541,0.344523 -1.684333,0.366294 -2.535644,0.337577 -0.851311,-0.02872 -2.006116,-0.140136 -2.397142,-0.472421 -0.391027,-0.332287 -0.284568,-2.283502 0.06831,-2.483804 z"
       sodipodi:nodetypes="zzzzzzzz" /></g></svg>
