<?xml version="1.0" encoding="UTF-8" standalone="no"?>
<!-- Created with Inkscape (http://www.inkscape.org/) -->

<svg
   width="960"
   height="540"
   viewBox="0 0 253.99999 142.87499"
   version="1.1"
   id="svg5"
   inkscape:version="1.3.2 (091e20ef0f, 2023-11-25)"
   sodipodi:docname="biweekly-bilibili.svg"
   inkscape:export-filename="biweekly_bilibili.png"
   inkscape:export-xdpi="96"
   inkscape:export-ydpi="96"
   xmlns:inkscape="http://www.inkscape.org/namespaces/inkscape"
   xmlns:sodipodi="http://sodipodi.sourceforge.net/DTD/sodipodi-0.dtd"
   xmlns="http://www.w3.org/2000/svg"
   xmlns:svg="http://www.w3.org/2000/svg">
  <sodipodi:namedview
     id="namedview7"
     pagecolor="#104b37"
     bordercolor="#000000"
     borderopacity="0.25"
     inkscape:showpageshadow="2"
     inkscape:pageopacity="1"
     inkscape:pagecheckerboard="0"
     inkscape:deskcolor="#d1d1d1"
     inkscape:document-units="mm"
     showgrid="false"
     showguides="false"
     inkscape:zoom="0.62187794"
     inkscape:cx="865.92555"
     inkscape:cy="448.64109"
     inkscape:window-width="1920"
     inkscape:window-height="1100"
     inkscape:window-x="0"
     inkscape:window-y="0"
     inkscape:window-maximized="1"
     inkscape:current-layer="g17644" />
  <defs
     id="defs2" />
  <g
     inkscape:label="图层 1"
     inkscape:groupmode="layer"
     id="layer1">
    <g
       id="g17745"
       transform="translate(20)">
      <g
         id="g17684"
         transform="translate(140.09284,-121.43297)">
        <rect
           style="fill:#104b37;fill-opacity:1;stroke:#ffffff;stroke-width:1.53935;stroke-opacity:1"
           id="rect14223"
           width="43.460648"
           height="43.460644"
           x="152.99261"
           y="154.80301" />
        <rect
           style="fill:#104b37;fill-opacity:1;stroke:#ffffff;stroke-width:1.53935;stroke-opacity:1"
           id="rect14223-8"
           width="43.460648"
           height="43.460644"
           x="200.10928"
           y="201.91965" />
        <rect
           style="fill:#104b37;fill-opacity:1;stroke:#ffffff;stroke-width:1.53935;stroke-opacity:1"
           id="rect14223-85"
           width="43.460648"
           height="43.460644"
           x="152.99263"
           y="201.91965" />
        <rect
           style="fill:#104b37;fill-opacity:1;stroke:#ffffff;stroke-width:1.53935;stroke-opacity:1"
           id="rect14223-0"
           width="43.460648"
           height="43.460644"
           x="200.10928"
           y="154.80301" />
        <path
           style="font-size:44.9792px;line-height:0.85;font-family:'演示悠然小楷';-inkscape-font-specification:'演示悠然小楷';fill:#ffffff;stroke-width:1.85208"
           d="m 172.02508,159.72384 q 0,0.045 -0.09,0.17992 -0.045,0.13494 -0.045,0.26988 -0.09,0.6297 -0.09,0.98954 0.09,0.80962 0.53975,1.12448 0.09,0.045 0.09,0.13494 0.045,0.09 -0.045,0.13493 -0.58473,0.31486 -2.20398,0.89959 -0.17992,0 -0.53975,0.09 0.09,0.31485 0.35983,0.22489 0.17992,-0.045 0.26988,0.09 0.26987,0.17992 0.62971,0.09 l 0.09,0.045 q 0.17991,0.09 0.22489,0.09 0.35984,0 0.53975,-0.045 0.26988,-0.045 0.49477,-0.09 0.2249,-0.09 0.40482,-0.13494 0.31485,-0.13494 0.53975,0 0.22489,0 0.76464,0.17992 0.26988,0.13494 0.62971,0.13494 h 0.13494 q 0.35983,0 0.80962,-0.35984 0.17992,-0.045 0.67469,-0.44979 0.045,0 0.13494,-0.045 0.13494,-0.045 0.13494,-0.13494 0,-0.13493 0.09,-0.17991 0.13493,-0.045 0.17991,-0.09 0.17992,-0.09 0.26988,-0.09 0.22489,-0.2249 0.22489,-0.2249 0,-0.09 -0.0899,-0.44979 h -0.09 q -0.13494,-0.13494 -0.13494,-0.17992 -0.045,-0.22489 -0.35983,-0.44979 -0.31486,-0.22489 -0.35984,-0.31485 l -0.045,-0.045 -0.53975,-0.13494 q -0.22489,0 -0.31485,-0.045 -0.26988,-0.17991 -0.76465,-0.09 -0.35983,0.09 -0.49477,0.09 -0.31485,0 -0.53975,-0.17991 -0.35983,-0.17992 -0.80962,-0.58473 -0.09,-0.045 -0.17992,-0.13494 -0.09,-0.09 -0.2249,-0.17992 -0.17991,-0.045 -0.22489,-0.31485 z m -5.08265,10.3902 q 0.09,0.045 0.22489,0.09 0.17992,0.045 0.26988,0.13493 l 0.22489,0.09 q 0.17992,-0.045 0.49478,-0.045 0.26987,0 0.44979,0.045 0.17991,0.045 0.31485,0.09 h 0.09 q 0.13494,0 0.2249,0.045 0.09,0.045 0.17991,0.045 0.09,0.045 0.2249,0 0.13494,-0.09 0.17992,-0.09 0.17991,-0.09 0.67468,-0.09 0.31486,0 0.67469,-0.13493 0.40482,-0.13494 0.62971,-0.17992 l 0.13494,-0.13494 0.17992,-0.045 0.71966,-0.26987 q 0.17992,0 0.49477,-0.2249 l 0.85461,-0.2249 q 0.22489,-0.045 0.89958,-0.22489 l 0.98955,-0.2249 q 0.13493,-0.045 0.26987,-0.13494 0.13494,-0.0899 0.35983,-0.13493 0.2249,-0.09 0.40482,-0.09 0.17991,-0.045 0.26987,-0.045 h 0.13494 l 0.80962,-0.2249 1.16946,-0.22489 q 0.13494,-0.045 0.26988,0 0.13494,0 0.26987,-0.045 0.35984,-0.09 0.58473,-0.09 0.31486,-0.045 0.76465,-0.045 0.09,0 0.17992,0.17992 0.09,0.17991 0.045,0.22489 -0.2249,0.35984 -0.4498,0.85461 -0.26987,0.35983 -0.22489,0.67469 0,0.0899 -0.045,0.13493 -0.09,0.13494 -0.2249,0.26988 -0.09,0.13494 -0.13493,0.26987 -0.045,0.13494 -0.09,0.31486 -0.045,0.13494 -0.09,0.26987 l -0.13494,0.09 q -0.26987,0.62971 -0.44979,0.94457 -0.045,0.0899 -0.13494,0.17991 -0.09,0.045 -0.13494,0.13494 -0.045,0.045 -0.045,0.13494 0.045,0.045 0.13494,0.045 l 0.17992,0.09 q 0.045,0.17991 0.26987,-0.045 l 0.31486,-0.26988 q 0.44979,-0.35983 0.49477,-0.35983 0.35983,-0.2249 0.49477,-0.49477 l 0.35983,-0.31486 q 0.045,-0.045 0.09,-0.09 0.045,-0.045 0.09,-0.09 l 0.67469,-0.53975 q 0.2249,-0.13493 0.58473,-0.045 0.35983,-0.13494 0.40481,-0.17992 0.045,-0.045 0.09,-0.09 0.045,-0.09 0.13494,0 l 0.13494,-0.045 q 0.09,0 0.31485,-0.09 0.2249,-0.09 0.44979,0.045 0.09,0 0.17992,-0.17992 0.35983,-0.22489 0.35983,-0.67468 0,-0.26988 -0.17991,-0.62971 -0.045,-0.09 -0.09,-0.2249 0,-0.13494 0.09,-0.22489 0.13493,-0.31486 -0.09,-0.4498 -0.44979,-0.58473 -0.85461,-0.94456 -0.26987,-0.31485 -0.40481,-0.44979 -0.53975,-0.53975 -0.53975,-0.53975 -0.045,-0.045 -0.58473,-0.13494 -0.045,-0.045 -0.13494,-0.17992 0,-0.045 -0.09,-0.31485 l -0.045,-0.17992 q 0.045,-0.17991 -0.17991,-0.17991 -0.26988,-0.045 -0.85461,-0.045 l -0.35983,0.09 q -0.35983,0 -0.89958,0.0899 l -0.85461,0.2249 -1.03452,0.26988 -1.88913,0.53975 -1.16946,0.40481 -1.30439,0.44979 -1.66423,0.49477 -1.84415,0.85461 q -0.17992,0.0899 -0.44979,0.22489 -0.26988,0.09 -0.58473,0.17992 -0.2249,0.13494 -0.53975,0.22489 -0.31486,0.09 -0.62971,0.26988 -0.35984,0.13494 -0.44979,0.17992 v -0.045 q 0,-0.13494 0.13493,-0.40482 0.13494,-0.26987 0.4498,-1.25941 0.13493,-0.76465 0.49477,-1.34938 l 0.49477,-0.58473 q 0.49477,-0.35983 0.49477,-0.94456 v -0.49477 q 0,0 -1.12448,1.12448 l -0.49477,0.62971 -0.62971,0.89958 -0.53975,0.67469 -0.40481,0.67469 q -0.13494,0.17991 -0.26988,0.40481 -0.09,0.17992 -0.22489,0.35983 l -0.35984,0.58473 q -0.045,0.13494 -0.17992,0.26988 -0.13493,0.13493 -0.17991,0.22489 l -0.53975,1.03452 q -0.53975,1.25942 -0.85461,1.84415 l -0.44979,1.16946 -0.17992,0.35983 q -0.17991,0.26988 -0.22489,0.4498 -0.045,0 -0.045,0.09 0,0.045 0.045,0.09 0.09,0.26988 0.09,0.4498 0,0.22489 -0.045,0.44979 -0.045,0.22489 -0.045,0.44979 l 0.045,0.49477 q 0.045,0.17992 0.09,0.35983 0.045,0.17992 0.0899,0.31486 0.09,0.31485 0.26988,0.49477 0,0.09 0.045,0.13494 0.045,0.045 0.09,0.09 v 0.045 q 0.09,0 0.22489,-0.045 0.13494,-0.045 0.17992,-0.09 0.26988,-0.26988 0.49477,-0.31486 0.35983,-0.22489 0.31486,-0.44979 l 0.045,-0.09 0.09,-0.17991 q 0.045,-0.2249 0.09,-0.4498 0.045,-0.26987 0.13494,-0.49477 l 0.22489,-0.76464 q 0.045,-0.13494 0.40482,-1.3044 0.09,-0.35983 0.17991,-0.62971 l 0.17992,-0.94456 q 0.045,-0.13494 0.17992,-0.53975 0.13494,-0.40482 0.13494,-0.76465 l 0.045,-0.13494 q 0,-0.045 0.09,-0.13493 0.17992,-0.26988 0.31486,-0.71967 z m 15.7877,21.59001 q 0.045,0.045 0.17991,0.045 0.13494,0 0.26988,-0.13493 0.17992,-0.09 0.22489,-0.13494 0.09,-0.045 0.31486,-0.26988 0.49477,-0.40481 0.49477,-0.98954 0.045,-0.26988 0,-0.53975 0,-0.26988 0.045,-0.53975 0,-0.49477 -0.13494,-0.76465 0,-0.045 -0.045,-0.17991 -0.045,-0.09 0.09,-0.17992 v -0.09 q -0.045,-0.13494 -0.13494,-0.35983 -0.045,-0.2249 -0.13493,-0.35984 -0.09,-0.13493 -0.31486,-0.35983 -0.17992,-0.17992 -0.31485,-0.31485 l -0.17992,-0.13494 q -0.13494,-0.13494 -0.35983,-0.26988 -0.2249,-0.13493 -0.35984,-0.22489 -0.13493,-0.09 -0.26987,-0.17992 -0.13494,-0.09 -0.26988,-0.17992 l -1.16946,-0.67468 q -1.16946,-0.58473 -1.70921,-0.89959 l -1.43933,-0.62971 q -0.2249,-0.09 -0.045,-0.31485 0.045,-0.045 0.09,-0.09 0.09,-0.045 0.09,-0.09 0.44979,-0.71967 0.58473,-0.98954 l 0.67468,-1.79917 q 0.26988,-0.80962 0.26988,-1.16946 0,-0.49477 0.26987,-0.53975 0.31486,0 0.49478,-0.045 0.22489,-0.045 0.40481,-0.09 0.31485,-0.045 1.03452,-0.22489 l 1.03452,-0.17992 1.88913,-0.22489 q 0.40481,0 0.71967,-0.045 0.31485,-0.045 0.53975,-0.09 l 1.30439,-0.09 h 0.35984 q 0.045,-0.13494 0.13493,-0.17992 0.13494,-0.045 0.2249,0.045 l 0.13494,-0.13494 q 0.09,-0.09 0.17991,-0.09 0.13494,0 0.17992,0.09 0.09,0.13494 0.17992,0.13494 0.09,0 0.13494,0 l 0.49477,-0.09 q 0,-0.045 0.0899,-0.17991 0.09,-0.13494 0.35984,-0.09 0,-0.26988 0.045,-0.49477 0.09,-0.2249 0.09,-0.44979 0,-0.09 -0.045,-0.17992 -0.045,-0.09 -0.045,-0.17992 0,-0.49477 -0.44979,-0.62971 -0.53975,-0.40481 -0.53975,-0.40481 -0.09,-0.31485 -0.53975,-0.44979 -0.09,-0.045 -0.35984,-0.045 -0.71967,-0.09 -1.21444,-0.09 l -1.39435,0.045 q -0.2249,0 -0.62971,0.045 -0.35983,0 -0.85461,0.09 l -1.21443,0.13493 -1.39436,0.2249 q -0.40481,0.09 -1.16946,0.17992 -0.76464,0.09 -1.3044,0.22489 -0.0899,0.045 -0.26987,0.045 -0.17992,0 -0.35983,-0.31485 0,-0.09 -0.045,-0.09 -0.17992,-0.35983 -0.71967,-0.67469 l -0.35983,-0.09 q -0.13494,0 -0.31486,0.17992 l 0.31486,1.16946 q 0.045,0.17992 -0.13494,0.2249 -0.53975,0.09 -1.61925,0.35983 -0.35984,0 -0.49477,0.045 v -0.045 l 0.045,-0.13494 q 0.13493,-0.09 0.17991,-0.26987 0.09,-0.2249 0.17992,-0.31486 0.045,-0.045 0.045,-0.17991 -0.045,-0.09 -0.09,-0.31486 0,-0.2249 -0.09,-0.31485 -0.35983,-0.4498 -0.44979,-0.53975 l -0.85461,-0.98955 q 0,0 -0.49477,-0.49477 0,0 -0.17991,-0.17991 -0.09,-0.045 -0.17992,-0.09 -0.045,-0.09 -0.13494,-0.09 -0.09,0.045 -0.31485,0 -0.17992,-0.09 -0.31486,0 -0.22489,0.13494 -0.26987,0.22489 l 0.13494,0.26988 q 0,0.045 0.09,0.13494 0.62971,0.71966 0.62971,1.43933 0.13494,0.09 0.045,0.17992 -0.22489,0.62971 -0.62971,1.34937 -0.44979,0.98955 -0.71966,1.43934 -0.17992,0.17992 -0.2249,0.17992 -0.13494,0.045 -0.31485,0.13493 -0.17992,0.09 -0.4498,0.13494 -0.31485,0.09 -0.67468,0.17992 -0.31486,0.045 -0.62971,0.13494 l -1.61925,0.40481 -1.61926,0.49477 q -0.31485,0.13494 -1.03452,0.44979 -0.67468,0.26988 -1.25941,0.44979 -0.26988,0.13494 -0.85461,0.4498 -0.53975,0.26987 -0.94456,0.53975 l -0.76465,0.53975 q -0.40481,0.26987 -0.49477,0.35983 -0.09,0.17992 -0.26987,0.26987 -0.2249,0.045 -0.31486,0.2249 -0.09,0.13494 -0.13494,0.17992 l 0.045,0.045 q 0.17992,0.045 0.40482,0.045 0.26987,-0.045 0.40481,-0.045 0.53975,-0.09 0.8546,-0.09 0.2249,0 0.40482,0.045 0.22489,0.045 0.40481,0.045 0.13494,0 0.26987,0.045 0.13494,0.045 0.26988,0.045 0.13494,0 0.31485,0.045 0.17992,0.045 0.26988,0 0.26987,-0.13493 0.49477,-0.13493 0.09,0 0.26987,-0.09 l 0.31486,-0.13494 0.53975,-0.2249 q 0.17992,-0.0899 0.26987,-0.0899 0.2249,0 0.35984,-0.045 l 0.67469,-0.26988 q 0.22489,0 0.26987,-0.045 0.44979,-0.17991 0.67469,-0.22489 0.17992,-0.045 0.44979,-0.13494 0.26988,-0.09 0.58473,-0.13494 0.13494,0 0.35983,-0.045 0.2249,-0.045 0.35984,-0.09 0,0.17992 -0.045,0.17992 -0.17992,0.35983 -0.31486,0.49477 -0.045,0.13494 -0.17991,0.35984 -0.13494,0.22489 -0.17992,0.40481 0,0.045 -0.09,0.35983 -0.09,0.31486 0.045,0.58473 v 0.26988 q 0,0.26987 0.2249,0.58473 0.09,0.26987 0.09,0.35983 0,0.045 0.045,0.09 0.0899,0.045 0.13493,0 0.40482,-0.17992 0.62971,-0.44979 0.13494,-0.26988 0.58473,-0.17992 0.85461,0.13494 1.52929,0.40481 0.31486,0.045 0.58473,0.13494 0.31486,0.09 0.53975,0.13494 0.2249,0.09 0.49478,0.17991 -0.045,0.045 -0.09,0.13494 0,0.045 -0.09,0.09 -0.67469,0.71967 -1.21444,1.12448 -0.31485,0.2249 -1.03452,0.58473 -0.35984,0.17992 -0.98954,0.35983 -0.045,0 -0.17992,0.09 -0.13494,0.13494 -0.26988,0 -0.0899,0 -0.0899,0.09 -0.13494,0 -0.40482,0.09 -0.35983,0 -0.67469,0.045 -0.31485,0.045 -0.67468,0.045 -1.39436,0 -2.11403,-0.045 h -0.44979 l 0.31486,0.49477 q 0.17991,0.35983 0.8546,0.53975 0.44979,0.17992 1.16946,0.26987 0.94456,0.17992 1.48431,0.13494 0.13494,-0.045 0.4498,-0.045 0.09,0 0.26987,-0.045 0.2249,-0.045 0.31486,0 0.13493,0 0.49477,-0.09 0.49477,-0.045 1.21444,-0.31486 l 0.89958,-0.44979 q 0.17992,-0.045 0.53975,-0.17992 0.35983,-0.09 0.58473,-0.26987 l 0.2249,-0.17992 0.53975,-0.44979 q 0.045,0 0.09,-0.09 0.09,-0.045 0.13494,-0.045 h 0.09 q 0.13494,0 0.2249,-0.09 0.09,-0.045 0.13493,-0.09 0.17992,-0.0899 0.26988,-0.17991 0.13494,-0.13494 0.2249,-0.17992 h 0.22489 q 0.85461,0.44979 1.52929,0.89958 0.71967,0.35984 1.79917,1.07951 0.35984,0.22489 0.58473,0.40481 0.26988,0.22489 0.44979,0.35983 0.4498,0.26988 0.67469,0.44979 0.13494,0.09 0.31486,0.26988 0.22489,0.22489 0.44979,0.35983 l 1.12448,0.76465 q 0,0 0.09,0.09 0.22489,0 0.22489,0.26987 0.045,0.2249 0.31486,0.67469 0.0899,0.2249 0,0.35983 z m -12.45924,-9.80546 q 0.13494,-0.31486 0.17992,-0.35984 l 0.40481,-0.6297 q 0.17991,-0.35984 0.26987,-0.4498 l 0.31486,-0.44979 q 0.13494,-0.22489 0.35983,-0.22489 l 0.89959,-0.2249 q 0.31485,-0.045 0.94456,-0.2249 0.8546,-0.22489 0.94456,-0.22489 0.26988,-0.09 0.44979,-0.09 l 0.71967,-0.17992 h 0.26988 q -0.13494,0.44979 -0.31486,0.71967 l -0.94456,1.84415 q -0.13494,0.22489 -0.31486,0.67469 -0.0899,0.09 -0.31485,0.09 -0.31485,-0.045 -0.94456,-0.17991 -0.58473,-0.13494 -1.0795,-0.09 h -1.61926 z"
           id="text1885"
           aria-label="安" />
        <path
           style="font-size:44.9792px;line-height:0.85;font-family:'演示悠然小楷';-inkscape-font-specification:'演示悠然小楷';fill:#ffffff;stroke-width:1.85208"
           d="m 211.96044,169.76495 q -0.13494,0.13494 -0.31485,0 l 0.13493,-0.22489 q 0.045,-0.045 0.17992,-0.31486 0.17992,-0.17991 0.2249,-0.31485 0.35983,-0.31485 0.40481,-0.44979 0.045,-0.045 0.09,-0.13494 0.09,-0.13494 0.22489,-0.2249 l 0.13494,-0.17991 q -0.045,0 -0.17992,-0.13494 -0.045,-0.045 -0.17991,-0.13494 -0.13494,-0.13494 -0.17992,-0.31485 0,-0.17992 -0.09,-0.17992 -0.045,-0.045 -0.09,-0.09 -0.045,-0.09 -0.045,-0.17991 0,-0.40482 -0.045,-0.58473 l -0.17992,-0.71967 q -0.09,-0.2249 -0.17992,-1.16946 l 0.045,-0.49477 q 0,-0.09 0.045,-0.09 0.045,0 0.045,0.045 0.13494,0.13494 0.62971,0.89958 l 0.53975,0.71967 q 0.13494,0.2249 0.35983,0.13494 0.13494,-0.09 0.31486,-0.09 l 0.09,-0.09 q 0.09,-0.13494 0.22489,-0.17992 0.13494,-0.045 0.17992,-0.045 0.045,-0.045 0.045,-0.2249 l 0.17991,-0.045 q 0.17992,0 0.35984,0.13494 0.13494,0.045 0.58473,0.045 0.09,-0.045 0.17991,0 0.09,0 0.13494,0 0.17992,0.09 0.13494,0.31485 0,0.17992 -0.13494,0.26988 -0.045,0.13493 0.045,0.26987 v 0.2249 l -0.49477,0.62971 q -0.045,0.09 -0.13494,0.17991 -0.09,0.09 -0.17991,0.2249 l -0.2249,0.2249 q -0.13494,0.17991 -0.49477,0.44979 -0.2249,0.22489 -0.2249,0.22489 0,0.13494 -0.045,0.13494 -0.26987,0.09 -0.58473,0.40481 -0.40481,0.40482 -0.62971,0.40482 -0.13493,0 -0.35983,0.22489 -0.09,0.17992 -0.26987,0.26988 -0.13494,0.09 -0.17992,0.09 -0.045,0 -0.09,0.0899 z m 25.27831,13.04397 q 0.13494,0.17992 0.045,0.26988 0,0.17991 -0.09,0.26987 0,0.09 -0.13494,0.09 0,0 0,0.045 0.045,0 0.045,0 0.09,0.045 0.045,0.13494 l -0.35983,0.44979 q -0.045,0.13494 0.045,0.2249 h 0.045 l -0.045,0.13493 q -0.09,0.09 0,0.2249 v 0.17992 q -0.045,0 -0.09,0.09 -0.045,0.045 -0.13494,0.045 v 0.045 0.09 q 0,0.13494 -0.045,0.26988 -0.045,0.09 -0.17991,0.13493 0.045,0.2249 -0.13494,0.2249 -0.40482,0.2249 -0.58473,0.31485 v 0.045 l -0.2249,0.17992 q -0.17991,0.09 -0.26987,0.17992 -0.09,0.09 -0.17992,0.13493 h -0.17992 l -0.22489,0.09 q -0.17992,0.17992 -0.49477,0.26988 -0.26988,0.09 -0.4498,0.17992 -0.53975,0.17991 -0.53975,0.17991 -0.22489,0.045 -0.49477,0.2249 -0.26987,0 -0.53975,0.045 -0.22489,0.045 -0.44979,0.045 l -0.045,0.045 q -0.67469,0.13493 -0.67469,0.13493 -0.045,-0.09 -0.045,0 h -0.22489 -0.17992 q -0.13494,0 -0.31485,0.045 -0.13494,0.045 -0.2249,0.045 h -0.98954 q -0.13494,0.045 -0.31486,0 -0.13493,0 -0.17991,0 -0.09,-0.045 -0.26988,-0.045 -0.13494,0.045 -0.22489,0.045 -0.09,0 -0.26988,-0.045 -0.13494,-0.045 -0.40481,-0.045 -0.26988,-0.09 -0.49477,-0.13493 -0.17992,0 -0.31486,0 -0.76464,-0.09 -0.89958,-0.13494 l -0.94456,-0.26988 q -0.71967,-0.22489 -1.43934,-0.67469 -0.17992,-0.045 -0.26987,-0.26987 -0.31486,-0.31485 -0.49478,-0.58473 -0.44979,-0.58473 -0.53975,-0.76465 0,-0.0899 -0.09,-0.17991 -0.09,-0.13494 -0.13494,-0.2249 -0.13494,-0.09 -0.13494,-0.35983 -0.17992,-0.31486 -0.17992,-0.62971 0,-0.2249 0.045,-0.35984 0,-0.17991 -0.09,-0.26987 -0.13493,-0.13494 -0.13493,-0.49477 v -0.53975 q 0,-0.17992 0.13493,-0.31486 0,-0.35983 0.13494,-0.67468 v -0.045 l 0.31486,-0.98955 q 0.045,0 0.045,-0.13493 0,-0.13494 -0.13494,-0.2249 l -0.09,-0.13494 q -0.13494,-0.26987 -0.13494,-0.40481 -0.045,-0.13494 -0.045,-0.31485 0.045,-0.09 -0.045,-0.17992 -0.045,-0.09 -0.045,-0.17992 l -0.22489,-0.26987 -0.045,-0.09 q -0.045,-0.09 -0.13494,-0.09 -0.09,-0.44979 -0.09,-0.62971 v -0.22489 q 0.09,-0.09 0.09,-0.17992 0.13494,-0.17992 0.49477,-0.31486 l 0.62971,-0.09 q 0.17992,0 0.2249,-0.13494 l 1.57427,-1.0795 q 0.09,0 0.09,-0.17992 0.09,-0.26987 0.22489,-0.35983 0.045,-0.09 0.09,-0.13494 0.045,-0.09 0.09,-0.17992 0.09,-0.17991 0.17992,-0.31485 0.13494,-0.13494 0.17991,-0.26988 0,-0.17991 0.13494,-0.22489 l 0.80963,-1.43934 q 0,0 0.13494,-0.13493 h -0.09 q -0.53975,0.17991 -0.53975,0.17991 0,-0.045 -0.09,-0.13494 v 0.2249 q -0.09,-0.045 -0.09,-0.13494 -0.045,0.045 -0.09,0.13494 -0.045,0.045 -0.17992,0 l -0.045,0.09 q -0.045,0 -0.045,0 -0.045,0.09 -0.17992,0.09 v -0.17992 q 0,0 -0.09,0.09 0,0.09 -0.045,0.17992 -0.045,0.045 -0.045,0.0899 0,0 -0.13494,-0.13493 l -0.22489,0.22489 h -0.2249 q 0,0.045 -0.13493,0.09 0,0.17992 -0.2249,0.26988 -0.09,0.0899 -0.09,-0.13494 -0.13494,0.045 -0.26987,-0.09 -0.2249,-0.2249 -0.40482,-0.13494 -0.045,0 -0.045,0.09 -0.44979,-0.35983 -0.67468,-0.49477 -0.045,-0.045 -0.2249,-0.17992 -0.17992,-0.13493 -0.40481,-0.13493 -0.35984,-0.13494 -0.35984,-0.35984 l 0.045,-0.13494 h -0.045 q -0.045,0.045 -0.13493,0.045 -0.045,-0.045 -0.09,-0.09 0,-0.045 -0.13494,-0.17991 -0.045,-0.045 -0.13494,-0.09 -0.045,-0.045 -0.045,-0.09 -0.13493,-0.13494 -0.22489,-0.31485 -0.09,-0.17992 -0.17992,-0.26988 -0.045,-0.045 -0.045,-0.17992 0,-0.22489 0.13494,-0.35983 0.09,0 0.09,-0.17992 0.09,-0.26987 0.09,-0.58473 l 0.045,-0.13493 0.31486,0.40481 q 0.09,0.09 0.13494,0.2249 0.09,0.0899 0.17991,0.17991 0.09,0.045 0.35984,0.045 0.26987,-0.13494 0.35983,-0.13494 0.35983,-0.13493 0.76465,-0.31485 0.40481,-0.17992 0.8546,-0.35983 0.13494,0 0.13494,-0.045 0.045,-0.09 0.17992,-0.13494 0.13493,-0.045 0.17991,-0.045 0.17992,-0.13494 0.44979,-0.2249 0.31486,-0.13493 0.4498,-0.26987 0.76464,-0.26988 1.03452,-0.44979 0.26987,-0.045 0.53975,-0.13494 0.26987,-0.09 0.35983,-0.13494 0.13494,-0.045 0.31486,-0.09 0.17991,-0.045 0.26987,-0.13493 0.13494,-0.045 0.26988,-0.09 0.13493,-0.045 0.31485,-0.13494 0,-0.045 0.045,-0.045 0.13494,0 0.26988,-0.09 0.17991,-0.09 0.26987,-0.13494 0.13494,-0.045 0.26988,-0.09 0.13493,-0.045 0.17991,-0.09 0.13494,0 0.13494,-0.045 0.045,-0.045 0.17992,-0.09 0.17991,-0.045 0.31485,-0.09 h 0.09 q 0.045,-0.045 0.13494,0 0.09,0 0.13494,-0.045 h 0.40481 q 0.26987,0.09 0.31485,0.09 h 0.40482 q 0.0899,0 0.22489,0.13494 0,0.17992 0.045,0.17992 l 0.17992,-0.09 q 0.045,-0.045 0.09,0 0.045,0 0.0899,0 l 0.045,0.26987 q -0.13493,0.045 -0.13493,0.2249 0,0.17992 0,0.26987 -0.09,0.13494 0,0.53975 l 0.045,0.17992 q 0.045,0.09 0.13493,0.26988 0.09,0.17991 0.09,0.35983 v 0.045 q 0.09,0.09 0.09,0.31485 0,0.17992 0,0.2249 0.09,0.17992 0.09,0.31485 0,0.26988 -0.26988,0.49477 -0.22489,0.31486 -0.26987,0.35984 -0.17992,0.17992 -0.31486,0.40481 -0.09,0.17992 -0.26987,0.35983 -0.09,0.09 -0.2249,0.26988 -0.09,0.17992 -0.22489,0.31485 -0.09,0.13494 -0.2249,0.31486 -0.09,0.17992 -0.2249,0.26987 l -0.26987,0.35984 q -0.13494,0.31485 -0.44979,0.62971 -0.17992,0.26987 -0.35984,0.49477 -0.13493,0.17991 -0.26987,0.35983 l -0.35984,0.58473 q 0,0.045 -0.045,0.09 0,0 -0.045,0 -0.045,0.045 -0.09,0.09 0,0 -0.045,0 -0.045,0.26987 -0.2249,0.53975 -0.13494,0.22489 -0.22489,0.35983 v 0.045 0.17992 q -0.2249,0 -0.2249,0.22489 -0.09,0.09 -0.09,0.26988 v 0.22489 q -0.22489,0.17992 -0.31485,0.26988 h -0.09 q 0,0 -0.26988,0.26988 -0.045,0.0899 -0.17991,0.22489 -0.13494,0.13494 -0.2249,0.26988 -0.22489,0.09 -0.22489,0.26987 0,0.09 -0.09,0.09 -0.045,0 -0.13494,-0.045 l 0.045,0.045 q -0.045,0 -0.13494,0.09 0,0 -0.045,0.045 0,0 0,0 0,0.13493 -0.22489,0.13493 l -0.4498,0.49478 q -0.045,0.17991 -0.13493,0.31485 -0.045,0.09 -0.09,0.17992 l -0.2249,0.44979 -0.045,0.17992 q -0.31485,0.26987 -0.44979,0.49477 -0.13494,0.17991 -0.2249,0.40481 -0.09,0.17992 -0.17991,0.31485 l -0.31486,0.53975 h -0.13493 q -0.13494,0.13494 -0.13494,0.35984 -0.09,0.09 -0.17992,0.31485 0,0.26988 0.045,0.44979 0,0.35984 0.17992,0.58473 0,0.13494 0.26987,0.31486 0.49477,0.35983 1.25942,0.44979 h 1.16946 q 0.71967,0.09 1.0795,0.09 l 1.0795,0.09 q 0.53975,0 1.70921,-0.09 0.17992,0 0.49477,-0.045 0.31486,-0.09 0.49477,-0.13494 0.80963,-0.09 1.12448,-0.22489 l 0.76465,-0.31486 q 0.89958,-0.31485 1.34938,-0.71967 0.53975,-0.35983 0.80962,-0.49477 0.09,-0.09 0.13494,-0.13493 0.09,-0.09 0.17991,-0.17992 0.13494,-0.13494 0.13494,-0.31486 0.045,-0.22489 0,-0.44979 0,-0.26987 0,-0.35983 0,-0.35983 0.045,-0.62971 0,-0.17992 0.09,-0.62971 0,-0.045 -0.045,-0.13494 0,-0.13493 -0.09,-0.26987 0.045,-0.40481 0.045,-1.16946 0,-0.8546 -0.17992,-1.52929 l -0.0899,-0.40482 q 0.22489,0 0.26987,0.2249 0,0.09 0.09,0.2249 0.09,0.13493 0.09,0.22489 0.045,0.09 0.045,0.2249 0,0.09 0.045,0.17992 0.09,0.26987 0.26987,0.35983 h 0.045 q 0.045,0.045 0.13494,0.35983 0,0.045 0,0.09 0,0.045 0,0.045 0.045,0.35983 0.26987,0.71967 0.09,0.045 0.13494,0.17991 0.045,0.13494 0.045,0.17992 0.13494,0.26988 0.13494,0.53975 v 0.045 q 0.22489,0.31485 0.22489,0.76465 0,0.045 0.09,0.13493 0.045,0.31486 0.17992,0.53975 v 0.31486 q 0.045,0.09 0.045,0.40481 l 0.09,0.09 0.045,-0.045 q 0.17991,-0.09 0.17991,0.045 h 0.13494 q 0.045,0.09 0,0.17992 0,0.09 0,0.17991 z m -18.93624,-4.00315 q 0.09,-0.09 0.13494,-0.09 0.0899,0.2249 0,0.49478 0,0 -0.13494,0.40481 v 0.09 q -0.13494,0.31485 -0.2249,0.58473 -0.09,0.22489 -0.17992,0.40481 -0.045,0.26987 -0.26987,0.62971 0,0.09 -0.045,0.13494 -0.045,0.045 -0.045,0.13493 -0.045,0.2249 -0.31485,0.98955 -0.045,0.0899 -0.13494,0.26987 -0.045,0.17992 -0.045,0.26988 0,0.26987 -0.2249,0.58473 l -0.35983,0.71966 q -0.045,0.13494 -0.13494,0.31486 -0.09,0.13494 -0.17991,0.35983 -0.31486,0.62971 -0.53975,0.89959 -0.09,0.13493 -0.13494,0.22489 0,0.13494 0,0.17992 l -0.26988,0.71967 -0.13493,0.17991 -0.2249,0.045 q -0.26988,0 -0.49477,-0.22489 0,-0.09 -0.045,-0.09 -0.13494,-0.045 -0.2249,-0.13494 -0.09,-0.045 -0.13493,-0.09 l 0.045,-0.13494 q 0,-0.22489 -0.13493,-0.40481 -0.13494,-0.13494 -0.31486,-0.17992 -0.17991,-0.045 -0.13494,-0.17991 0,-0.09 -0.0899,-0.09 -0.17992,-0.17992 -0.09,-0.40481 0.13494,-0.26988 0,-0.49478 -0.09,-0.17991 -0.09,-0.6297 l -0.045,-1.61926 q 0,-0.35983 0.045,-0.67468 0.045,-0.35984 0.045,-0.62971 l 0.045,-1.03452 q 0.045,-0.35984 0.045,-1.03453 l 0.17991,-1.43933 0.17992,-1.0795 q 0.09,-0.31485 0.17992,-0.94456 0.045,-0.2249 0.09,-0.58473 0.0899,-0.35984 0.17991,-0.58473 0.045,-0.045 0,-0.17992 -0.53975,0.53975 -0.53975,0.53975 -0.09,0.045 -0.26987,0.26988 -0.13494,0.17991 -0.31486,0.13493 0,0.17992 -0.13493,0.26988 -0.09,0.09 -0.13494,0.09 -0.09,0.13493 -0.17992,0.17991 -0.09,0.045 -0.13494,0.09 l -0.44979,0.35984 q -0.09,0.17991 -0.31485,0.26987 -0.09,0.045 -0.26988,0.17992 -0.17992,0.09 -0.26987,0.13494 h -0.26988 q -0.09,-0.09 -0.17992,-0.045 h -0.09 l -0.35984,-0.09 -0.98954,-0.31486 q -0.09,0 -0.2249,-0.09 -0.09,-0.09 -0.17991,-0.2249 0,-0.09 -0.13494,-0.09 -0.045,-0.045 -0.17992,-0.045 -0.17991,-0.045 -0.17991,-0.31485 l -0.045,-0.09 q -0.17992,-0.53975 -0.13494,-0.94456 l -0.09,-0.2249 v -0.17992 q 0.13494,0.13494 0.40481,0.26988 -0.045,-0.045 0,-0.045 l -0.13493,-0.35983 -0.13494,-0.26988 q 0.045,0 0.045,0 0.045,-0.045 0.045,-0.09 0.045,0.045 0.09,0.045 0.045,0 0.045,0.045 0.045,0.49477 0.62971,0.76465 0,0.045 0,0.045 0.045,-0.045 0.09,-0.045 0.17992,-0.17992 0.53975,-0.35984 0.045,-0.045 0.58473,-0.44979 0.13494,-0.13494 0.40481,-0.31485 l 0.26988,-0.2249 0.2249,-0.17992 q 0.67468,-0.67468 1.0795,-0.98954 0.17991,-0.13494 0.40481,-0.31485 0.2249,-0.17992 0.35983,-0.26988 0.44979,-0.44979 0.80963,-0.67469 l 0.49477,-0.31485 q 0,0 0,0 0.045,-0.045 0.045,-0.045 0.045,-0.045 0.045,-0.09 0,-0.09 0.045,-0.09 0.17991,-0.09 0.26987,-0.045 0.53975,0 0.80963,0.09 l 0.40481,0.13494 q 0.17992,0 0.2249,0.045 0.26987,0.045 0.09,0.2249 l -0.09,0.045 0.35983,0.31486 q 0.17992,0.17992 0.26988,0.17992 0.13493,0 0.26987,0.17991 0.17992,0.13494 0.26988,0.17992 0.17991,0.13494 0.17991,0.31485 0,0.13494 -0.17991,0.31486 -0.2249,0.31485 -0.26988,0.53975 -0.35983,0.67469 -0.40481,0.89958 -0.09,0.35984 -0.17992,0.98954 l -0.17992,1.07951 q -0.22489,0.80962 -0.22489,1.48431 -0.045,0.26987 -0.17992,1.39435 -0.045,0.31486 -0.045,0.85461 0,0.53975 -0.13494,1.0795 v 0.58473 q 0,0.44979 -0.0899,1.52929 l 0.045,0.13494 q 0,0 0,0.045 0.045,0 0.045,0 0,-0.13494 0.13494,-0.17992 0.13494,-0.26987 0.49477,-0.71967 0.13494,-0.22489 0.31486,-0.49477 0.17991,-0.31485 0.35983,-0.67468 0.58473,-0.89959 0.62971,-1.03453 l 0.53975,-0.8546 q 0,-0.13494 0.045,-0.17992 0.045,0 0.045,0 0.045,-0.045 0.09,-0.045 z"
           id="text1889"
           aria-label="记" />
        <path
           style="font-size:44.9792px;line-height:0.85;font-family:'演示悠然小楷';-inkscape-font-specification:'演示悠然小楷';fill:#ffffff;stroke-width:1.85208"
           d="m 189.6979,232.09579 q 0.045,0.09 0.045,0.2249 0,0.13494 -0.09,0.49477 -0.045,0.045 -0.045,0.17992 0,0.40481 -0.31485,0.53975 -0.26988,0.13494 -0.53975,0.13494 -0.17992,0 -0.40481,-0.13494 -0.045,-0.045 -0.17992,-0.09 -0.09,-0.09 -0.13494,-0.2249 -0.13494,-0.26987 -0.67469,-0.53975 0,0 -0.13493,-0.13493 -0.13494,-0.13494 -0.4498,-0.35984 -0.26987,-0.22489 -0.44979,-0.49477 l -0.17991,-0.22489 q -0.09,-0.17992 -0.26988,-0.35984 -0.13494,-0.17991 -0.2249,-0.35983 -0.17991,-0.17992 -0.35983,-0.35983 -0.17992,-0.2249 -0.40481,-0.4498 l -1.48432,-1.30439 -0.98954,-0.76465 -0.8546,-0.67469 q -0.2249,-0.13494 -0.49477,-0.26987 -0.26988,-0.13494 -0.53975,-0.35984 -0.62971,-0.44979 -0.94457,-0.58473 l -0.98954,-0.35983 v 0.26988 l 0.045,1.12448 q 0,0.13493 -0.045,0.26987 -0.045,0.13494 -0.045,0.26988 v 0.17991 0.94457 q 0,0.98954 -0.09,1.43933 -0.045,0.26988 0,0.53975 0.045,0.26988 0,0.53975 v 0.17992 q 0,0.35983 0.045,0.53975 l -0.09,0.40481 v 0.09 q 0.045,0.045 0.045,0.17992 l -0.045,0.35983 q 0,0.31485 0.045,0.49477 v 0.62971 q 0,0.09 0,0.13494 0.045,0.09 0,0.17991 l -0.13493,0.58473 q -0.09,0.31486 -0.17992,0.76465 l -0.09,0.17992 q 0,0.09 -0.045,0.09 -0.44979,0.09 -0.53975,0.17992 l -0.2249,0.31486 q -0.13493,0.17991 -0.35983,0.17991 -0.045,0 -0.2249,-0.045 -0.13493,-0.045 -0.22489,0.045 h -0.13494 q -0.22489,-0.13493 -0.62971,-0.31485 -0.35983,-0.13494 -0.53975,-0.26988 -1.34937,-0.80962 -1.75419,-1.16946 -0.94456,-0.80962 -1.52929,-1.48431 l -0.49477,-0.58473 q -0.89958,-1.0795 -1.21444,-1.70921 -0.35983,-0.62971 -0.40481,-1.25942 l -0.045,-0.35983 q -0.045,-0.09 -0.045,-0.2249 0,-0.22489 -0.2249,-0.13493 -0.09,0.045 -0.26987,0.22489 l -0.44979,0.40482 q -0.35984,0.22489 -1.0795,0.76464 l -0.2249,0.09 q -0.045,0.045 -0.17992,0.09 -0.09,0 -0.22489,0.09 -0.35984,0.22489 -0.85461,0.40481 -0.26987,0.13494 -0.53975,0.13494 -0.17991,0.045 -0.53975,0.045 l -0.17992,0.35983 q 0,0 -0.045,0.045 0,0 0,0 0,0.17992 -0.09,0.31485 -0.09,0.13494 -0.13494,0.2249 -0.045,0.17992 -0.49477,0.71967 -0.2249,0.26987 -0.53975,0.31485 -0.26988,0 -0.40481,0 h -0.09 q -0.2249,0 -0.49477,-0.17992 -0.09,-0.0899 -0.35984,-0.0899 l -0.26987,-0.13494 q -0.13494,-0.17992 -0.35984,-0.26988 -0.22489,-0.09 -0.26987,-0.09 -0.49477,0 -0.76465,-0.31486 0,-0.09 -0.045,-0.09 -0.17991,0 -0.17991,-0.13494 0,-0.13493 0,-0.17991 v -0.13494 q 0,-0.31485 -0.17992,-0.40481 -0.09,0 -0.09,-0.2249 l 0.35983,-0.44979 q 0.09,-0.09 0.09,-0.13494 0,-0.22489 -0.09,-0.53975 -0.045,-0.31485 -0.045,-0.67469 l 0.09,-0.22489 q 0.09,-0.17992 0.17992,-0.62971 l 0.09,-0.17992 q 0.09,0.17992 0.22489,0.58473 0.13494,0.35984 0.35984,0.62971 0.22489,0.26988 0.53975,0.44979 l 0.71967,-0.62971 0.67468,-0.71966 q 0.045,-0.09 0.40482,-0.4498 l 2.02406,-2.06904 0.94456,-1.21444 q 1.34938,-1.66423 1.25942,-1.52929 l 0.26988,-0.35983 0.22489,-0.17992 q -0.58473,-0.13494 -0.80962,-0.58473 -0.09,-0.13494 0,-0.2249 0.09,-0.13493 -0.045,-0.31485 -0.09,-0.17992 -0.26988,-0.49477 -0.13494,-0.35983 -0.17991,-0.62971 0,-0.13494 -0.045,-0.2249 l -0.13494,0.045 -0.76465,0.26988 q -0.045,0.045 -0.17991,0 -0.09,-0.045 -0.17992,-0.045 -0.13494,0 -0.17992,0.045 l -1.16946,0.8546 q -0.22489,0.17992 -0.35983,0.35984 -0.13494,0.17991 -0.2249,0.26987 -0.09,0.09 -0.17991,0.13494 -0.045,0 -0.09,0 l -0.09,-0.045 q 0.09,-0.17992 0.17992,-0.53975 l 0.67468,-1.34938 0.09,-0.17991 q 0.045,-0.13494 0,-0.17992 0,-0.09 -0.13493,-0.13494 -0.13494,-0.09 -0.31486,-0.13493 -0.13494,-0.09 -0.31485,-0.2249 -0.2249,-0.13494 -0.35984,-0.31486 -0.09,-0.22489 -0.13493,-0.26987 l -0.49478,-0.98954 q -0.09,-0.31486 0.045,-0.44979 0.045,-0.09 0,-0.13494 0,-0.09 0,-0.13494 v -0.40481 l 0.045,-0.045 h 0.13494 q 0.09,0.045 0.17992,0.22489 0.09,0.2249 0.35983,0.40482 0.31485,0.17991 0.40481,0.22489 l 0.76465,0.58473 h 0.09 l 0.71967,-0.26987 q 0.045,-0.045 0.0899,0 0.045,0 0.09,0 0.13494,0.13493 0.31486,0.13493 0.35983,0 0.62971,0.13494 l 0.0899,0.09 q 0.13494,-0.045 0.2249,0 0.13494,0.045 0.17992,0.17992 v 0.09 q 0.13493,0.045 0.22489,0.22489 0.09,0.17992 0.17992,0.2249 0.17992,0.13494 0.09,0.35983 -0.13494,0.17992 0.09,0.26988 0.26987,0.13493 0.0899,0.31485 l -0.045,0.045 q 0.13493,0.35983 0.35983,0.76465 0.17992,0.17991 0.26987,0.22489 l 0.40482,0.35984 q 0,0.045 0.13493,0.045 l 0.58473,-0.26988 q 0.26988,-0.2249 0.58473,-0.35983 0.80963,-0.49477 1.48432,-0.76465 0.89958,-0.44979 1.34937,-0.62971 0.13494,-0.045 0.31486,-0.09 0.17991,-0.045 0.35983,-0.09 l 0.35983,-0.13493 q 0.13494,-0.045 0.31486,0 0.045,0.045 0.13494,0.045 0.0899,-0.045 0.17991,-0.045 0.31486,0 0.49477,0.045 0.2249,0 0.26988,0.17991 0,0.09 0.045,0.2249 0.045,0.09 0,0.2249 v 0.045 q 0.045,0.13494 0.045,0.35984 0,0.045 -0.045,0.09 0,0.045 0.045,0.0899 0.045,0.09 0.045,0.26988 0,0.13494 -0.09,0.31485 -0.045,0.17992 -0.045,0.26988 0,0.31485 -0.045,0.40481 -0.09,0.44979 -0.53975,1.25942 l -0.58473,1.03452 q -0.2249,0.2249 -0.2249,0.2249 -0.35983,0.44979 -0.6297,0.89958 0,0.045 -0.09,0.13494 -0.35984,0.35983 -0.76465,0.89958 -0.09,0.09 -0.2249,0.31486 -0.13493,0.17991 -0.31485,0.31485 -0.2249,0.2249 -0.44979,0.49477 -0.17992,0.2249 -0.40481,0.44979 -0.4498,0.4498 -0.76465,0.89959 l -0.35983,0.22489 -0.17992,0.2249 q -0.09,0.17992 0.045,0.31486 l 0.62971,1.39435 q 0.045,0.09 0.44979,0.49477 0.09,0.045 0.17992,0.09 0.09,0.045 0.17991,0.09 l 0.71967,0.62971 q 0.17992,0.17991 0.71967,0.49477 l 0.53975,0.49477 0.44979,0.2249 q 0.62971,0.35983 1.16946,0.6297 0.13494,0.09 0.40481,0.17992 h 0.2249 v -0.80962 q 0,-1.07951 0.045,-1.61926 l 0.045,-1.43933 v -0.94456 q 0,-0.40482 0.09,-1.21444 l 0.045,-1.16946 q 0.045,-0.35983 0.045,-0.89958 0,-0.58473 0.045,-0.98955 0,-0.94456 0.045,-1.39435 0.09,-0.80963 0.09,-1.3044 0,-0.76465 0.09,-2.29394 0.09,-0.89958 0.09,-1.39435 l 0.13493,-1.61925 0.09,-1.21444 0.09,-1.21444 q 0.045,-0.2249 0,-0.40481 0,-0.17992 0,-0.26988 0,-0.35983 0.09,-1.16946 0,-0.13494 -0.17992,-0.31485 -0.22489,-0.09 -0.53975,-0.53975 -0.09,-0.13494 -0.53975,-0.31486 l -0.13494,-0.045 q 0,-0.09 0.045,-0.13493 0.2249,-0.2249 0.62971,-0.2249 0.35984,0 0.62971,0.13494 l 0.53975,0.26987 q 0.13494,0.09 0.17992,0.045 0.045,-0.09 0.045,-0.09 0.045,-0.045 0.13493,-0.045 0.13494,0 0.17992,0.045 0.17992,0.26988 0.89959,0.53975 l 0.35983,0.13494 q 0.045,0.045 0.045,0.09 0.045,0.045 0.09,0.045 l 0.17991,0.22489 q 0.09,0.045 0.09,0.09 0,0.045 -0.045,0.09 l -0.13494,0.26988 q 0,0.045 -0.09,0.13493 -0.045,0.045 -0.045,0.13494 -0.09,0.53975 -0.09,0.76465 0,0.8546 -0.045,1.34937 v 1.21444 1.61925 q -0.045,0.35984 -0.045,1.03453 l -0.045,0.80962 v 0.76465 q 0.045,0.17991 0,0.31485 0,0.13494 0,0.26988 v 1.21444 h 0.09 q 0.045,-0.09 0.2249,-0.26988 0.22489,-0.26987 0.35983,-0.49477 0.13494,-0.2249 0.26987,-0.40481 l 0.67469,-0.71967 q 0.045,-0.09 0.2249,-0.26988 0.13494,-0.13493 0.13494,-0.17991 0.045,-0.045 0.0899,-0.13494 0.045,-0.09 0.13494,-0.13494 0.26988,-0.17991 0.67469,-0.67469 l 0.045,-0.045 -0.045,-0.0899 q 0,-0.09 0.09,-0.17992 0.09,-0.13494 0.13494,-0.17992 l 0.40481,-0.71966 q 0.045,0 0,-0.045 0,-0.045 0,-0.09 l -0.17992,-0.76465 q 0,-0.045 -0.09,-0.13494 l -0.26987,-0.13493 q 0.09,0 0.31485,0 0.2249,-0.045 0.31486,-0.31486 l 0.58473,0.26988 0.49477,0.31485 0.49477,0.44979 q 0,0 0,0.045 0.045,0 0.045,0 0.17991,0.09 0.26987,0.31486 0.13494,0.22489 0.17992,0.31485 0.045,0.17992 0.2249,0.53975 l 0.045,0.13494 q 0,0.17992 -0.17992,0.35983 -0.045,0.09 -0.045,0.2249 v 0.09 q -0.09,0.17991 -0.17992,0.44979 -0.09,0.2249 -0.26987,0.35983 l -0.2249,0.31486 q -0.13494,0.13494 -0.26987,0.09 h -0.045 q 0,0 -0.26988,0.26987 h -0.045 q -0.13494,0 -0.22489,0.09 -0.045,0.09 -0.09,0.13494 -0.09,0.045 -0.58473,0.44979 l -0.045,-0.09 q -0.045,-0.09 -0.09,-0.09 -0.045,-0.045 -0.09,0 -0.045,0.045 -0.09,0.045 -0.31485,0.2249 -0.44979,0.2249 h -0.045 q -0.09,0.13494 -0.31485,0.22489 -0.2249,0.09 -0.31486,0.17992 -0.22489,0.13494 -0.31485,0.09 -0.09,0 -0.13494,0.045 -0.045,0.045 -0.09,0.09 -0.045,0.045 -0.22489,0.13493 -0.17992,0.045 -0.26988,0.2249 l -0.35983,0.17992 q -0.045,0.045 -0.62971,0.49477 -0.09,0.13494 0.045,0.26987 l -0.045,0.67469 h 0.67469 q 0.71967,0.09 1.25942,0.26988 0.40481,0.13493 0.98954,0.35983 0.62971,0.2249 1.43933,0.58473 1.3044,0.58473 1.57427,0.76465 l 1.75419,1.03452 q 0.40482,0.22489 1.03452,0.80962 0.17992,0.13494 0.35984,0.26988 0.17992,0.13494 0.35983,0.26987 0.26988,0.2249 1.21444,1.25942 0.045,0 0.045,0.09 0.045,0.09 0.13494,0.13494 0.045,0.13493 0,0.31485 -0.17992,0.31486 -0.045,0.58473 0.09,0.2249 0.13494,0.44979 0.09,0.2249 0.17991,0.44979 z m -19.70089,-5.6224 q 0.09,-0.0899 0.09,-0.13493 l 0.35984,-0.35984 0.6297,-0.80962 q 0.13494,-0.2249 0.31486,-0.40481 0.17992,-0.17992 0.31485,-0.40482 0.40482,-0.67469 0.40482,-0.67469 l 0.80962,-1.48431 q 0.09,-0.17992 0.09,-0.22489 v -0.045 l -0.2249,0.17991 q 0,0 -0.0899,0.09 -0.58473,0.26988 -0.71967,0.40481 -0.26988,0.2249 -0.71967,0.35984 -0.62971,0.26987 -1.25942,0.40481 h -0.17991 q -0.35984,0 -0.4498,-0.17992 -0.13493,0 -0.22489,-0.09 -0.2249,0 -0.40481,-0.17991 -0.13494,0 -0.17992,-0.045 -0.045,0.17992 -0.09,0.35983 -0.045,0.17992 -0.09,0.35984 -0.17991,0.26987 -0.22489,0.40481 -0.2249,0.40481 -0.58473,1.21444 l -0.35984,0.71966 -0.26987,0.58473 q -0.045,0.09 -0.13494,0.17992 -0.045,0.045 -0.045,0.13494 l -0.49477,1.16946 v 0.045 q -0.17992,0.13493 -0.2249,0.35983 -0.045,0.2249 -0.0899,0.35983 0.0899,0.17992 0.0899,0.2249 0,0.09 -0.0899,0.2249 -0.09,0.09 -0.13494,0.22489 -0.09,0.17992 -0.31486,0.89959 -0.045,0.17991 -0.22489,0.44979 l 0.13494,-0.045 q 0.44979,-0.17992 0.8546,-0.53975 0.40481,-0.35984 0.58473,-0.49477 l 0.26987,-0.2249 q 0.17992,-0.13494 0.31486,-0.31485 0.09,-0.09 0.17992,-0.13494 0.0899,-0.09 0.17991,-0.17992 0.2249,-0.22489 0.49477,-0.44979 0.26988,-0.2249 0.53975,-0.49477 l 0.31486,-0.49477 q 0.045,-0.045 0.13494,-0.09 0.0899,-0.045 0.13493,-0.13494 z"
           id="text1893"
           aria-label="冰" />
        <path
           style="font-size:44.9792px;line-height:0.85;font-family:'演示悠然小楷';-inkscape-font-specification:'演示悠然小楷';fill:#ffffff;stroke-width:1.85208"
           d="m 218.99577,209.05936 q 0,0 0,-0.045 0.045,-0.09 0,-0.17992 0.13493,0.09 0.26987,0.13494 0.13494,0.045 0.26988,-0.09 0,-0.045 0.31485,0.13494 l 0.71967,0.53975 q 0.44979,0.35984 0.76464,0.35984 0.09,0 0.35984,-0.09 0.26987,-0.09 0.53975,-0.13494 0.31485,-0.09 0.58473,-0.17992 l 0.35983,-0.31485 q 0.17992,-0.17992 0.26988,-0.2249 0.13493,-0.09 0.35983,0.045 0.09,0.045 0.2249,0 0.13493,-0.045 0.31485,0 h 0.2249 q 0.22489,0.045 0.58473,0.045 0.49477,0 0.89958,0.26988 0.045,0.0899 0.40481,0.31485 0.09,0.045 0.13494,0.2249 0.045,0.13493 -0.045,0.22489 -0.13494,0.13494 -0.045,0.35984 v 0.0899 l -0.13494,0.67469 v 0.09 q 0.13494,0.13494 0.045,0.2249 -0.045,0.045 -0.17991,0.0899 -0.045,0.045 -0.09,0.13494 -0.045,0.045 -0.045,0.13494 -0.17992,0.35983 -0.53975,0.49477 l -1.61925,0.67469 q -0.85461,0.31485 -1.79917,0.8546 -0.31486,0.17992 -0.94456,0.17992 0.53975,-0.40481 0.67468,-0.58473 0.13494,-0.17992 0.045,-0.49477 -0.13493,-0.13494 -0.22489,-0.2249 -0.09,-0.13493 -0.17992,-0.22489 -0.26987,-0.13494 -0.49477,-0.26988 -0.2249,-0.13493 -0.40481,-0.26987 -0.09,-0.09 -0.53975,-0.35984 -0.26988,-0.17991 -0.26988,-0.58473 -0.045,-0.58473 -0.58473,-1.57427 z m 16.14753,8.50107 q 0,0.40481 -0.49477,0.31485 h -0.4498 -0.09 q -0.17992,-0.09 -0.2249,-0.09 -0.13494,0 -0.2249,0.045 -0.045,0.045 -0.13493,0.09 -0.2249,0.045 -0.40482,0 h -0.13493 q -0.17992,0 -0.62971,0.17992 -0.045,0 -0.09,0.045 0,0 -0.045,-0.045 h -0.2249 q -0.22489,0 -0.8546,0.17992 -0.09,0.045 -0.2249,0.045 -0.09,0 -0.26987,0.0899 l -1.61925,0.31486 q -0.13494,0.045 -0.31486,0.045 -0.13494,-0.045 -0.31485,0 l -0.35984,0.045 q -0.35983,0.0899 -0.89958,0.17991 l -0.35983,0.045 -0.80963,-0.045 h -0.26987 l 0.045,-0.09 q 1.12448,-0.44979 2.11402,-0.94456 0.22489,-0.13494 1.57427,-0.89958 l 1.03452,-0.58473 q 0.35983,-0.17992 0.67469,-0.49477 0.17992,-0.09 0.09,-0.17992 -0.17992,-0.17992 -0.2249,-0.17992 l -1.12448,0.13494 q -0.8546,0.09 -1.84415,0.31486 -0.98954,0.17991 -1.34937,0.26987 -0.40481,0.13494 -0.98954,0.26988 -0.53975,0.0899 -0.85461,0.13493 -0.26987,0.045 -0.58473,0.13494 -0.26987,0.09 -0.62971,0.17992 -0.62971,0.09 -2.38389,0.49477 -0.31486,0.09 -0.58473,0.09 -0.2249,0 -0.35984,0.045 l -1.57427,0.31485 -1.16946,0.2249 q -0.045,0 -0.09,0.045 -0.045,0.045 -0.13493,0.045 -0.35984,0 -0.49478,-0.09 -0.13493,-0.09 -0.40481,-0.17992 -0.26987,-0.09 -0.44979,-0.17992 -0.09,-0.045 -0.71967,-0.40481 l -0.26987,-0.13494 -0.045,0.53975 q -0.17992,0.76465 -0.2249,1.03452 -0.13494,0.35984 -0.17992,0.67469 -0.045,0.26988 -0.09,0.44979 -0.045,0.2249 -0.13494,0.4498 -0.09,0.22489 -0.17992,0.53975 l -0.22489,1.16946 q -0.045,0.09 -0.09,0.22489 -0.045,0.13494 -0.045,0.31486 l -0.49477,1.48431 q -0.09,0.26988 -0.2249,0.49477 -0.09,0.17992 -0.17992,0.31486 -0.13493,0.22489 -0.40481,0.0899 -0.09,-0.045 -0.44979,-0.17991 h -0.09 q 0,-0.13494 -0.17992,-0.31486 -0.13493,-0.17991 -0.13493,-0.31485 0,-0.09 -0.09,-0.17992 -0.045,-0.09 -0.13494,-0.045 h -0.045 q -0.17992,0 -0.26987,-0.09 -0.045,-0.13493 -0.09,-0.17991 -0.13494,-0.2249 -0.13494,-0.53975 0,-0.13494 -0.045,-0.13494 -0.17992,-0.2249 -0.17992,-0.53975 0,-0.31486 0.13494,-0.58473 0.17992,-0.35983 0.40481,-0.89958 0.26988,-0.53975 0.53976,-1.25942 0.09,-0.13494 0.40481,-1.03452 l 0.40481,-1.03453 q 0.44979,-0.98954 0.80963,-1.34937 l 1.21443,-1.43934 q 0.17992,-0.17991 0.40482,-0.49477 0.26987,-0.31485 0.40481,-0.49477 0.53975,-0.62971 0.94456,-0.80962 0.045,0 0.045,-0.045 0.045,-0.045 0.09,-0.045 0.045,0 0.045,0 0.045,-0.045 0.09,0 0,0 0,0.045 0,0.045 0,0.045 -0.09,0.71966 -0.17992,0.98954 -0.09,0.40481 -0.26987,0.71967 -0.17992,0.53975 -0.4498,0.80962 -0.09,0.13494 -0.17991,0.35984 -0.045,0.22489 -0.13494,0.31485 l 0.09,0.045 h 0.17992 l 1.03452,-0.31486 1.75419,-0.53975 q 0.26987,-0.09 0.6297,-0.17991 0.35984,-0.13494 0.85461,-0.2249 l 1.84415,-0.44979 q 0.8546,-0.26988 1.52929,-0.40481 l 2.3839,-0.58473 q 0.58473,-0.17992 1.84414,-0.35984 l 2.3839,-0.40481 h 1.12448 0.045 q 0.2249,0.13494 0.53975,0.2249 0.31486,0.09 0.53975,0.13493 0.045,0 0.17992,0.13494 0.26987,0.26988 0.26987,0.26988 l 0.17992,0.13493 q 0.76465,0.89959 0.71967,0.85461 0.17991,0.17992 0.31485,0.44979 0.17992,0.2249 0.40481,0.49477 0.35984,0.35984 0.53975,0.67469 0.17992,0.17992 0.26988,0.35983 l 0.13494,0.76465 z m -4.00315,19.20612 q 0.13494,0.13493 0.13494,0.35983 0,0.2249 0,0.31485 0,0.045 -0.13494,0.17992 -0.44979,0.2249 -0.49477,0.26988 l -0.17992,-0.13494 q -0.26987,0.13494 -0.31485,0.13494 -0.13494,0.045 -0.35984,0.045 -0.26987,0 -0.71966,-0.17992 -0.17992,-0.045 -0.31486,-0.045 -0.09,0.045 -0.17992,0.045 -0.26987,0.13494 -0.71966,0.2249 -0.44979,0.09 -0.67469,0.17991 l -0.26988,0.17992 -0.67468,0.17992 q -0.17992,0.045 -0.89959,0.17991 -0.31485,0.045 -0.67469,0.09 -0.31485,0.045 -0.6297,0.09 -0.58473,0 -0.85461,0.09 -0.98954,0.09 -2.02406,-0.13494 -0.85461,-0.13494 -1.84415,-0.49477 -0.58473,-0.17992 -1.0795,-0.71967 -0.35983,-0.44979 -0.62971,-0.89958 -0.13494,-0.17992 -0.13494,-0.49477 0,-0.13494 0.09,-0.49477 0.045,-0.31486 0.2249,-0.67469 0.17991,-0.31486 0.26987,-0.44979 0.045,0 0.045,-0.09 0,-0.17992 -0.17992,-0.40482 -0.13493,-0.22489 -0.22489,-0.31485 l -0.40481,-0.76465 q 0.13493,-0.13493 0.13493,-0.13493 l 1.25942,1.21443 q 0,0 1.79917,-1.79916 0,0 -0.09,-0.09 -0.53975,0.17991 -0.80962,0.22489 -0.40482,0.13494 -1.21444,0.31486 -0.26988,0 -0.40482,-0.09 -0.09,-0.045 -0.26987,-0.09 -0.17992,-0.09 -0.26988,-0.17992 -0.13493,-0.045 -0.31485,-0.22489 -0.13494,-0.17992 -0.26988,-0.26988 -0.17991,-0.045 -0.35983,-0.35983 -0.045,-0.09 -0.13494,-0.17992 -0.045,-0.09 0,-0.17991 0,-0.09 -0.045,-0.17992 -0.045,-0.09 -0.045,-0.17992 0,-0.045 0.17992,-0.22489 0.17992,-0.045 0.40481,0.0899 0,0.09 0.045,0.09 0.26988,-0.13493 0.35984,0.09 0.09,0.09 0.31485,0.09 0.58473,-0.17992 0.76465,-0.2249 l 1.12448,-0.31485 1.61925,-0.44979 q 0,0 0.17992,-0.17992 0.045,-0.67469 -0.17992,-1.70921 -0.09,-0.17992 -0.17992,-0.71967 l -0.71967,0.26988 -1.21443,0.40481 q -0.40482,0.09 -0.85461,0.13494 -0.40481,0.045 -0.80962,0.13494 h -0.09 q -0.17992,0 -0.35984,-0.09 -0.17991,-0.09 -0.22489,-0.13494 -0.09,0 -0.2249,-0.13494 -0.045,0 -0.13494,-0.045 -0.0899,-0.045 0,-0.13493 0,0 0,0 0,-0.045 0,-0.045 -0.13493,-0.045 -0.13493,-0.2249 0,-0.31485 -0.4498,-0.53975 -0.26987,-0.22489 -0.26987,-0.40481 0,-0.2249 0.40481,-0.35983 0.31486,-0.13494 0.58473,-0.40482 0.31486,-0.31485 0.44979,-0.44979 -0.045,0.045 1.39436,-1.52929 0.44979,-0.44979 0.44979,-0.44979 -0.17992,-0.045 -1.52929,-0.4498 -0.045,-0.22489 -0.2249,-0.35983 -0.17991,-0.17992 -0.26987,-0.26988 0,0 -0.13494,-0.13493 0,-0.045 -0.09,-0.09 -0.045,-0.09 0.045,-0.17992 0.045,-0.09 0.045,-0.22489 0,-0.17992 -0.045,-0.26988 -0.045,-0.13494 -0.09,-0.2249 v -0.0899 q 0.09,0 0.2249,0.045 0.17991,0 0.22489,0.09 0.045,0.09 0.26988,0.2249 0.045,0.045 0.09,0.045 0.045,-0.045 0.09,-0.045 0.31485,-0.13494 0.76464,-0.31485 0.49477,-0.17992 1.12448,-0.35984 0.09,-0.09 0.26988,-0.13494 0.17991,-0.045 0.31485,-0.09 0.09,-0.045 0.13494,-0.045 0.045,-0.045 0.09,-0.09 0.49477,-0.2249 1.16946,-0.44979 0.71966,-0.2249 1.0795,-0.35984 0.62971,-0.17991 1.97908,-0.17991 0.045,0 0.09,0.045 0.045,0 0.045,0.045 0.2249,0.35984 0.67469,0.35984 0.13494,0 0.17991,0.13494 0.09,0.09 0,0.17991 -0.0899,0.13494 -0.0899,0.26988 0,0.09 -0.045,0.17991 -0.045,0.09 -0.045,0.2249 v 0.17992 q 0,0.17991 -0.13494,0.22489 -0.2249,0.09 -0.44979,0.17992 -0.17992,0.045 -0.31486,0.09 l -0.13493,0.09 q -1.39436,1.12448 -1.3044,1.03452 -0.31485,0.26987 -0.62971,0.53975 -0.26987,0.26987 -0.58473,0.49477 l -1.3044,1.21444 -0.76464,0.80962 0.045,0.09 0.58473,-0.17991 q 0.53975,-0.09 0.80962,-0.17992 l 0.98954,-0.26988 1.66424,-0.71966 1.57427,-0.71967 0.09,0.045 -0.17992,0.22489 -0.31486,0.26988 -1.25941,1.0795 q -0.2249,0.13494 -0.49477,0.40481 -0.26988,0.2249 -0.40482,0.35984 -0.35983,0.26987 -0.44979,0.44979 -0.045,0.09 -0.35983,0.31485 -0.26988,0.13494 -0.09,0.31486 0.22489,0.58473 0.40481,0.80962 0.17992,0.2249 0.31486,0.62971 0.13493,0.35984 0.26987,0.62971 0.045,0.13494 0.13494,0.17992 0.09,0 0.22489,0 0.71967,-0.26988 1.12448,-0.26988 0.13494,0.045 0.2249,-0.045 0.31486,-0.22489 0.40481,0 0.35984,-0.26987 0.67469,-0.09 0.09,0.045 0.2249,0.09 0.17991,0.045 0.26987,0.045 0.13494,0 0.26988,0.045 0.17991,0.045 0.31485,0.045 0.31486,0.13494 0.31486,0.35983 0,0.045 0.045,0.13494 0.09,0.045 0.09,0.09 l 0.17992,0.2249 0.13494,0.22489 q -0.09,0.09 -0.98954,0.71967 -0.62971,0.40481 -1.34938,0.80962 -0.09,0.045 -0.2249,0.09 -0.13493,0.045 -0.22489,0.09 -0.13494,0 -0.2249,0.045 l -0.89958,0.53975 q -0.2249,0 -0.13494,0.2249 0,0.26987 -0.09,0.71966 0,0.31486 -0.045,0.40482 l -0.22489,0.94456 -0.2249,1.03452 -0.09,0.31486 q 0.045,0 0.09,0 0.09,0.045 0.13494,0 0.80962,-0.045 2.06904,-0.4498 l 1.3044,-0.44979 q 0.09,-0.045 0.17992,-0.13494 0.13493,-0.045 0.22489,-0.045 0.31486,-0.13494 0.58473,-0.17992 0.26988,-0.045 0.44979,-0.09 0.35984,-0.17992 0.4498,-0.17992 0.71966,0 1.0795,0.045 0.0899,0.045 0.13493,0.09 0.09,0.09 0.17992,0.17992 0.2249,0.13494 0.62971,0.53975 0,0 0.26987,0.26987 0.13494,0.09 0.13494,0.17992 0.31486,0.2249 0.62971,0.67469 z m -4.5429,-10.88497 q 0.26988,0 0.40481,-0.13494 0.17992,-0.17991 0.13494,-0.40481 l -0.44979,-0.89958 q -0.2249,-0.35984 -0.76465,-1.0795 l -0.17991,-0.2249 -0.09,-0.13494 0.22489,-0.09 q 1.12448,0.26988 1.97909,1.03453 0.09,0.0899 0.35983,0.40481 0.26988,0.26987 0.62971,0.40481 0.2249,0.09 0.62971,0.58473 l 0.13494,0.045 q 0.40481,0.17992 0.40481,0.62971 0,0.22489 -0.045,0.35983 0,0.44979 -0.13494,0.67469 0,0.09 -0.31485,0.31485 l -0.17992,0.2249 -0.31485,0.13494 -0.31486,0.17991 q -0.09,0 -0.13494,0.045 -0.045,0.045 -0.13493,0.045 l -0.13494,-0.045 q -0.09,0 -0.2249,0.045 -0.13493,0.045 -0.22489,0.09 h -0.13494 q -0.045,-0.13494 -0.17992,-0.17992 -0.13493,-0.045 -0.17991,-0.045 -0.09,-0.045 -0.2249,-0.09 -0.13494,-0.09 -0.17992,-0.17992 -0.31485,-0.31485 -0.31485,-0.44979 l -0.13494,-0.09 q -0.71967,-0.35983 -1.43933,-0.35983 -0.49477,0.045 -1.5293,0.045 l -0.17991,-0.045 2.06904,-0.58473 q 0.13494,-0.045 0.31486,-0.09 0.22489,-0.045 0.35983,-0.045 0.09,0 0.44979,-0.09 z m -6.34207,8.81592 q 0,-0.13493 -0.17991,-0.13493 -0.09,0 -0.2249,0.045 -0.09,0.0899 -0.13494,0.17991 0,0.09 0.13494,0.13494 0.13494,0.09 0.26988,0.09 z m -1.61925,1.75419 q 0.2249,0.2249 0.76465,0.2249 0.26987,0 0.40481,-0.045 -0.045,-0.045 -0.13494,-0.09 -0.045,-0.045 -0.0899,-0.09 0,-0.13494 -0.13494,-0.26987 -0.09,-0.13494 -0.13494,-0.17992 0,-0.09 0,-0.09 0.09,-0.13494 -0.045,-0.22489 -0.13494,-0.045 -0.13494,-0.045 -0.13493,-0.13494 -0.26987,-0.09 -0.09,0.045 -0.13494,0.17992 l -0.13494,0.31485 q 0,0.09 0,0.2249 0,0.13493 0.045,0.17991 z"
           id="text1897"
           aria-label="室" />
      </g>
      <g
         id="g17644"
         transform="matrix(1.0732492,0,0,1.0732492,-48.406434,5.2141196)">
        <rect
           style="fill:#104b37;fill-opacity:1;stroke:#ffffff;stroke-width:1.53935;stroke-opacity:1"
           id="rect14223-86"
           width="43.460648"
           height="43.460644"
           x="52.394627"
           y="39.973316" />
        <rect
           style="fill:#104b37;fill-opacity:1;stroke:#ffffff;stroke-width:1.53935;stroke-opacity:1"
           id="rect14223-0-8"
           width="43.460648"
           height="43.460644"
           x="99.511299"
           y="39.973316" />
        <path
           style="font-size:44.9792px;line-height:0.85;font-family:'演示悠然小楷';-inkscape-font-specification:'演示悠然小楷';fill:#ffffff;stroke-width:1.85208"
           d="m 71.427078,44.894147 q 0,0.04498 -0.08996,0.179917 -0.04498,0.134937 -0.04498,0.269875 -0.08996,0.629709 -0.08996,0.989542 0.08996,0.809626 0.53975,1.12448 0.08996,0.04498 0.08996,0.134938 0.04498,0.08996 -0.04498,0.134937 -0.584729,0.314855 -2.203981,0.899584 -0.179916,0 -0.53975,0.08996 0.08996,0.314854 0.359834,0.224896 0.179916,-0.04498 0.269875,0.08996 0.269875,0.179917 0.629709,0.08996 l 0.08996,0.04498 q 0.179917,0.08996 0.224896,0.08996 0.359834,0 0.53975,-0.04498 0.269876,-0.04498 0.494772,-0.08996 0.224896,-0.08996 0.404812,-0.134938 0.314855,-0.134938 0.539751,0 0.224896,0 0.764646,0.179917 0.269875,0.134937 0.629709,0.134937 h 0.134938 q 0.359833,0 0.809625,-0.359833 0.179917,-0.04498 0.674688,-0.449792 0.04498,0 0.134938,-0.04498 0.134937,-0.04498 0.134937,-0.134938 0,-0.134938 0.08996,-0.179917 0.134937,-0.04498 0.179916,-0.08996 0.179917,-0.08996 0.269876,-0.08996 0.224896,-0.224896 0.224896,-0.224896 0,-0.08996 -0.08996,-0.449792 h -0.08996 Q 76.32981,47.143107 76.32981,47.098128 76.284831,46.873232 75.969977,46.648336 75.655122,46.42344 75.610143,46.333481 l -0.04498,-0.04498 -0.539751,-0.134937 q -0.224896,0 -0.314854,-0.04498 -0.269875,-0.179916 -0.764646,-0.08996 -0.359834,0.08996 -0.494771,0.08996 -0.314855,0 -0.539751,-0.179916 -0.359833,-0.179917 -0.809625,-0.58473 -0.08996,-0.04498 -0.179917,-0.134938 -0.08996,-0.08996 -0.224896,-0.179916 -0.179917,-0.04498 -0.224896,-0.314855 z m -5.08265,10.390195 q 0.08996,0.04498 0.224896,0.08996 0.179917,0.04498 0.269875,0.134938 l 0.224896,0.08996 q 0.179917,-0.04498 0.494772,-0.04498 0.269875,0 0.449792,0.04498 0.179916,0.04498 0.314854,0.08996 h 0.08996 q 0.134938,0 0.224896,0.04498 0.08996,0.04498 0.179917,0.04498 0.08996,0.04498 0.224896,0 0.134938,-0.08996 0.179917,-0.08996 0.179917,-0.08996 0.674688,-0.08996 0.314854,0 0.674688,-0.134937 0.404813,-0.134938 0.629709,-0.179917 l 0.134937,-0.134938 0.179917,-0.04498 0.719667,-0.269875 q 0.179917,0 0.494771,-0.224896 l 0.854605,-0.224896 q 0.224896,-0.04498 0.899584,-0.224896 l 0.989542,-0.224896 q 0.134938,-0.04498 0.269876,-0.134938 0.134937,-0.08996 0.359833,-0.134937 0.224896,-0.08996 0.404813,-0.08996 0.179917,-0.04498 0.269875,-0.04498 h 0.134938 l 0.809625,-0.224896 1.16946,-0.224896 q 0.134937,-0.04498 0.269875,0 0.134937,0 0.269875,-0.04498 0.359834,-0.08996 0.584729,-0.08996 0.314855,-0.04498 0.764647,-0.04498 0.08996,0 0.179917,0.179917 0.08996,0.179917 0.04498,0.224896 -0.224896,0.359834 -0.449792,0.854605 -0.269875,0.359833 -0.224896,0.674688 0,0.08996 -0.04498,0.134937 -0.08996,0.134938 -0.224896,0.269876 -0.08996,0.134937 -0.134938,0.269875 -0.04498,0.134937 -0.08996,0.314854 -0.04498,0.134938 -0.08996,0.269875 l -0.134937,0.08996 q -0.269875,0.629709 -0.449792,0.944563 -0.04498,0.08996 -0.134938,0.179917 -0.08996,0.04498 -0.134937,0.134937 -0.04498,0.04498 -0.04498,0.134938 0.04498,0.04498 0.134938,0.04498 l 0.179917,0.08996 q 0.04498,0.179916 0.269875,-0.04498 l 0.314854,-0.269875 q 0.449792,-0.359833 0.494771,-0.359833 0.359834,-0.224896 0.494772,-0.494772 l 0.359833,-0.314854 q 0.04498,-0.04498 0.08996,-0.08996 0.04498,-0.04498 0.08996,-0.08996 l 0.674688,-0.53975 q 0.224896,-0.134938 0.58473,-0.04498 0.359833,-0.134938 0.404812,-0.179917 0.04498,-0.04498 0.08996,-0.08996 0.04498,-0.08996 0.134937,0 l 0.134938,-0.04498 q 0.08996,0 0.314854,-0.08996 0.224896,-0.08996 0.449792,0.04498 0.08996,0 0.179917,-0.179917 0.359834,-0.224896 0.359834,-0.674688 0,-0.269875 -0.179917,-0.629709 -0.04498,-0.08996 -0.08996,-0.224896 0,-0.134937 0.08996,-0.224896 0.134938,-0.314854 -0.08996,-0.449792 -0.449792,-0.584729 -0.854605,-0.944563 -0.269875,-0.314854 -0.404813,-0.449792 -0.53975,-0.53975 -0.53975,-0.53975 -0.04498,-0.04498 -0.58473,-0.134938 -0.04498,-0.04498 -0.134938,-0.179916 0,-0.04498 -0.08996,-0.314855 l -0.04498,-0.179917 Q 81.727314,49.79688 81.502418,49.79688 81.232543,49.7519 80.647813,49.7519 l -0.359833,0.08996 q -0.359834,0 -0.899584,0.08996 l -0.854605,0.224896 -1.034522,0.269875 -1.889126,0.539751 -1.169459,0.404813 -1.304397,0.449792 -1.66423,0.494771 -1.844147,0.854604 q -0.179917,0.08996 -0.449792,0.224896 -0.269876,0.08996 -0.58473,0.179917 -0.224896,0.134938 -0.53975,0.224896 -0.314855,0.08996 -0.629709,0.269875 -0.359834,0.134938 -0.449792,0.179917 v -0.04498 q 0,-0.134938 0.134938,-0.404813 0.134937,-0.269875 0.449792,-1.259417 0.134937,-0.764647 0.494771,-1.349376 l 0.494771,-0.58473 q 0.494771,-0.359833 0.494771,-0.944563 v -0.494771 q 0,0 -1.12448,1.12448 l -0.494771,0.629709 -0.629709,0.899584 -0.53975,0.674687 -0.404813,0.674688 q -0.134938,0.179917 -0.269875,0.404813 -0.08996,0.179917 -0.224896,0.359834 l -0.359834,0.584729 q -0.04498,0.134938 -0.179917,0.269876 -0.134937,0.134937 -0.179916,0.224896 l -0.539751,1.034521 q -0.53975,1.259418 -0.854605,1.844147 l -0.449792,1.169459 -0.179916,0.359834 q -0.179917,0.269875 -0.224896,0.449792 -0.04498,0 -0.04498,0.08996 0,0.04498 0.04498,0.08996 0.08996,0.269875 0.08996,0.449792 0,0.224896 -0.04498,0.449792 -0.04498,0.224896 -0.04498,0.449792 l 0.04498,0.494771 q 0.04498,0.179917 0.08996,0.359834 0.04498,0.179916 0.08996,0.314854 0.08996,0.314854 0.269875,0.494771 0,0.08996 0.04498,0.134938 0.04498,0.04498 0.08996,0.08996 v 0.04498 q 0.08996,0 0.224896,-0.04498 0.134938,-0.04498 0.179917,-0.08996 0.269875,-0.269875 0.494771,-0.314855 0.359834,-0.224896 0.314855,-0.449792 l 0.04498,-0.08996 0.08996,-0.179917 q 0.04498,-0.224896 0.08996,-0.449792 0.04498,-0.269875 0.134937,-0.494771 l 0.224896,-0.764646 q 0.04498,-0.134938 0.404813,-1.304397 0.08996,-0.359834 0.179917,-0.629709 l 0.179917,-0.944563 q 0.04498,-0.134938 0.179917,-0.53975 0.134937,-0.404813 0.134937,-0.764647 l 0.04498,-0.134937 q 0,-0.04498 0.08996,-0.134938 0.179917,-0.269875 0.314854,-0.719667 z m 15.787699,21.590015 q 0.04498,0.04498 0.179917,0.04498 0.134937,0 0.269875,-0.134937 0.179917,-0.08996 0.224896,-0.134938 0.08996,-0.04498 0.314854,-0.269875 0.494771,-0.404813 0.494771,-0.989542 0.04498,-0.269876 0,-0.539751 0,-0.269875 0.04498,-0.53975 0,-0.494771 -0.134938,-0.764647 0,-0.04498 -0.04498,-0.179916 -0.04498,-0.08996 0.08996,-0.179917 v -0.08996 q -0.04498,-0.134937 -0.134937,-0.359833 -0.04498,-0.224896 -0.134938,-0.359834 -0.08996,-0.134937 -0.314854,-0.359833 -0.179917,-0.179917 -0.314855,-0.314855 L 82.49196,71.566812 q -0.134937,-0.134938 -0.359833,-0.269876 -0.224896,-0.134937 -0.359834,-0.224896 -0.134937,-0.08996 -0.269875,-0.179916 -0.134938,-0.08996 -0.269875,-0.179917 l -1.169459,-0.674688 q -1.169459,-0.58473 -1.70921,-0.899584 L 76.91454,68.508226 q -0.224896,-0.08996 -0.04498,-0.314854 0.04498,-0.04498 0.08996,-0.08996 0.08996,-0.04498 0.08996,-0.08996 0.449792,-0.719667 0.58473,-0.989542 l 0.674688,-1.799168 q 0.269875,-0.809626 0.269875,-1.16946 0,-0.494771 0.269875,-0.53975 0.314855,0 0.494772,-0.04498 0.224896,-0.04498 0.404812,-0.08996 0.314855,-0.04498 1.034522,-0.224896 l 1.034521,-0.179917 1.889127,-0.224896 q 0.404813,0 0.719667,-0.04498 0.314854,-0.04498 0.53975,-0.08996 l 1.304397,-0.08996 h 0.359834 q 0.04498,-0.134938 0.134937,-0.179917 0.134938,-0.04498 0.224896,0.04498 l 0.134938,-0.134937 q 0.08996,-0.08996 0.179917,-0.08996 0.134937,0 0.179916,0.08996 0.08996,0.134937 0.179917,0.134937 0.08996,0 0.134938,0 l 0.494771,-0.08996 q 0,-0.04498 0.08996,-0.179917 0.08996,-0.134938 0.359834,-0.08996 0,-0.269876 0.04498,-0.494772 0.08996,-0.224896 0.08996,-0.449792 0,-0.08996 -0.04498,-0.179916 -0.04498,-0.08996 -0.04498,-0.179917 0,-0.494771 -0.449792,-0.629709 -0.53975,-0.404813 -0.53975,-0.404813 -0.08996,-0.314854 -0.539751,-0.449792 -0.08996,-0.04498 -0.359833,-0.04498 -0.719667,-0.08996 -1.214438,-0.08996 l -1.394356,0.04498 q -0.224896,0 -0.629708,0.04498 -0.359834,0 -0.854605,0.08996 l -1.214439,0.134938 -1.394355,0.224896 q -0.404812,0.08996 -1.169459,0.179917 -0.764646,0.08996 -1.304397,0.224896 -0.08996,0.04498 -0.269875,0.04498 -0.179917,0 -0.359833,-0.314854 0,-0.08996 -0.04498,-0.08996 -0.179916,-0.359833 -0.719667,-0.674688 l -0.359833,-0.08996 q -0.134938,0 -0.314855,0.179917 l 0.314855,1.169459 q 0.04498,0.179917 -0.134938,0.224896 -0.53975,0.08996 -1.619251,0.359833 -0.359834,0 -0.494771,0.04498 v -0.04498 l 0.04498,-0.134937 q 0.134938,-0.08996 0.179917,-0.269875 0.08996,-0.224896 0.179917,-0.314855 0.04498,-0.04498 0.04498,-0.179917 -0.04498,-0.08996 -0.08996,-0.314854 0,-0.224896 -0.08996,-0.314854 -0.359834,-0.449792 -0.449792,-0.539751 l -0.854605,-0.989542 q 0,0 -0.494771,-0.494771 0,0 -0.179917,-0.179917 -0.08996,-0.04498 -0.179917,-0.08996 -0.04498,-0.08996 -0.134937,-0.08996 -0.08996,0.04498 -0.314855,0 -0.179916,-0.08996 -0.314854,0 -0.224896,0.134938 -0.269875,0.224896 l 0.134937,0.269875 q 0,0.04498 0.08996,0.134938 0.629709,0.719667 0.629709,1.439334 0.134937,0.08996 0.04498,0.179917 -0.224896,0.629709 -0.629709,1.349376 -0.449792,0.989542 -0.719667,1.439334 -0.179917,0.179917 -0.224896,0.179917 -0.134938,0.04498 -0.314855,0.134938 -0.179916,0.08996 -0.449792,0.134937 -0.314854,0.08996 -0.674688,0.179917 -0.314854,0.04498 -0.629708,0.134938 l -1.619251,0.404813 -1.619252,0.494771 q -0.314854,0.134937 -1.034521,0.449792 -0.674688,0.269875 -1.259418,0.449792 -0.269875,0.134937 -0.854604,0.449792 -0.539751,0.269875 -0.944564,0.53975 l -0.764646,0.53975 q -0.404813,0.269876 -0.494771,0.359834 -0.08996,0.179917 -0.269875,0.269875 -0.224896,0.04498 -0.314855,0.224896 -0.08996,0.134938 -0.134937,0.179917 l 0.04498,0.04498 q 0.179917,0.04498 0.404813,0.04498 0.269875,-0.04498 0.404812,-0.04498 0.539751,-0.08996 0.854605,-0.08996 0.224896,0 0.404813,0.04498 0.224896,0.04498 0.404813,0.04498 0.134937,0 0.269875,0.04498 0.134938,0.04498 0.269875,0.04498 0.134938,0 0.314855,0.04498 0.179916,0.04498 0.269875,0 0.269875,-0.134938 0.494771,-0.134938 0.08996,0 0.269875,-0.08996 l 0.314854,-0.134938 0.539751,-0.224896 q 0.179917,-0.08996 0.269875,-0.08996 0.224896,0 0.359834,-0.04498 l 0.674688,-0.269876 q 0.224896,0 0.269875,-0.04498 0.449792,-0.179917 0.674688,-0.224896 0.179917,-0.04498 0.449792,-0.134937 0.269875,-0.08996 0.584729,-0.134938 0.134938,0 0.359834,-0.04498 0.224896,-0.04498 0.359834,-0.08996 0,0.179917 -0.04498,0.179917 -0.179916,0.359834 -0.314854,0.494771 -0.04498,0.134938 -0.179917,0.359834 -0.134937,0.224896 -0.179917,0.404813 0,0.04498 -0.08996,0.359833 -0.08996,0.314855 0.04498,0.58473 v 0.269875 q 0,0.269875 0.224896,0.58473 0.08996,0.269875 0.08996,0.359833 0,0.04498 0.04498,0.08996 0.08996,0.04498 0.134937,0 0.404813,-0.179917 0.629709,-0.449792 0.134938,-0.269875 0.58473,-0.179917 0.854604,0.134938 1.529292,0.404813 0.314855,0.04498 0.58473,0.134937 0.314854,0.08996 0.53975,0.134938 0.224896,0.08996 0.494772,0.179917 -0.04498,0.04498 -0.08996,0.134937 0,0.04498 -0.08996,0.08996 -0.674688,0.719667 -1.214439,1.12448 -0.314854,0.224896 -1.034521,0.584729 -0.359834,0.179917 -0.989543,0.359834 -0.04498,0 -0.179916,0.08996 -0.134938,0.134938 -0.269875,0 -0.08996,0 -0.08996,0.08996 -0.134937,0 -0.404813,0.08996 -0.359833,0 -0.674688,0.04498 -0.314854,0.04498 -0.674688,0.04498 -1.394355,0 -2.114022,-0.04498 h -0.449792 l 0.314854,0.494771 q 0.179917,0.359834 0.854605,0.539751 0.449792,0.179917 1.169459,0.269875 0.944564,0.179917 1.484314,0.134938 0.134938,-0.04498 0.449792,-0.04498 0.08996,0 0.269875,-0.04498 0.224896,-0.04498 0.314854,0 0.134938,0 0.494772,-0.08996 0.494771,-0.04498 1.214438,-0.314855 l 0.899584,-0.449792 q 0.179917,-0.04498 0.53975,-0.179916 0.359834,-0.08996 0.58473,-0.269876 l 0.224896,-0.179916 0.53975,-0.449792 q 0.04498,0 0.08996,-0.08996 0.08996,-0.04498 0.134937,-0.04498 h 0.08996 q 0.134937,0 0.224896,-0.08996 0.08996,-0.04498 0.134937,-0.08996 0.179917,-0.08996 0.269876,-0.179917 0.134937,-0.134937 0.224895,-0.179916 h 0.224896 q 0.854605,0.449792 1.529293,0.899584 0.719667,0.359833 1.799168,1.0795 0.359834,0.224896 0.58473,0.404813 0.269875,0.224896 0.449792,0.359834 0.449792,0.269875 0.674688,0.449792 0.134937,0.08996 0.314854,0.269875 0.224896,0.224896 0.449792,0.359834 l 1.12448,0.764646 q 0,0 0.08996,0.08996 0.224896,0 0.224896,0.269875 0.04498,0.224896 0.314855,0.674688 0.08996,0.224896 0,0.359834 z M 69.672889,67.068892 q 0.134937,-0.314855 0.179917,-0.359834 l 0.404812,-0.629709 q 0.179917,-0.359833 0.269876,-0.449792 l 0.314854,-0.449792 q 0.134938,-0.224896 0.359834,-0.224896 l 0.899584,-0.224896 q 0.314854,-0.04498 0.944563,-0.224896 0.854605,-0.224896 0.944563,-0.224896 0.269875,-0.08996 0.449792,-0.08996 l 0.719667,-0.179917 h 0.269875 q -0.134937,0.449792 -0.314854,0.719667 l -0.944563,1.844148 q -0.134938,0.224896 -0.314855,0.674688 -0.08996,0.08996 -0.314854,0.08996 -0.314854,-0.04498 -0.944563,-0.179917 -0.58473,-0.134937 -1.079501,-0.08996 h -1.619251 z"
           id="text1885-8"
           aria-label="安" />
        <path
           style="font-size:44.9792px;line-height:0.85;font-family:'演示悠然小楷';-inkscape-font-specification:'演示悠然小楷';fill:#ffffff;stroke-width:1.85208"
           d="m 111.36245,54.935258 q -0.13494,0.134937 -0.31486,0 l 0.13494,-0.224896 q 0.045,-0.04498 0.17992,-0.314855 0.17992,-0.179916 0.22489,-0.314854 0.35984,-0.314854 0.40482,-0.449792 0.045,-0.04498 0.09,-0.134938 0.09,-0.134937 0.22489,-0.224896 l 0.13494,-0.179916 q -0.045,0 -0.17992,-0.134938 -0.045,-0.04498 -0.17991,-0.134938 -0.13494,-0.134937 -0.17992,-0.314854 0,-0.179917 -0.09,-0.179917 -0.045,-0.04498 -0.09,-0.08996 -0.045,-0.08996 -0.045,-0.179917 0,-0.404813 -0.045,-0.584729 l -0.17991,-0.719668 q -0.09,-0.224896 -0.17992,-1.169459 l 0.045,-0.494771 q 0,-0.08996 0.045,-0.08996 0.045,0 0.045,0.04498 0.13494,0.134937 0.62971,0.899584 l 0.53975,0.719667 q 0.13493,0.224896 0.35983,0.134938 0.13494,-0.08996 0.31485,-0.08996 l 0.09,-0.08996 q 0.09,-0.134938 0.2249,-0.179917 0.13494,-0.04498 0.17992,-0.04498 0.045,-0.04498 0.045,-0.224896 l 0.17991,-0.04498 q 0.17992,0 0.35984,0.134937 0.13493,0.04498 0.58473,0.04498 0.09,-0.04498 0.17991,0 0.09,0 0.13494,0 0.17992,0.08996 0.13494,0.314855 0,0.179917 -0.13494,0.269875 -0.045,0.134938 0.045,0.269875 v 0.224896 l -0.49477,0.629709 q -0.045,0.08996 -0.13494,0.179917 -0.09,0.08996 -0.17992,0.224896 l -0.22489,0.224896 q -0.13494,0.179916 -0.49477,0.449792 -0.2249,0.224896 -0.2249,0.224896 0,0.134937 -0.045,0.134937 -0.26987,0.08996 -0.58473,0.404813 -0.40481,0.404813 -0.62971,0.404813 -0.13494,0 -0.35983,0.224896 -0.09,0.179917 -0.26988,0.269875 -0.13493,0.08996 -0.17991,0.08996 -0.045,0 -0.09,0.08996 z m 25.27831,13.043967 q 0.13494,0.179917 0.045,0.269876 0,0.179916 -0.09,0.269875 0,0.08996 -0.13494,0.08996 0,0 0,0.04498 0.045,0 0.045,0 0.09,0.04498 0.045,0.134938 l -0.35983,0.449792 q -0.045,0.134938 0.045,0.224896 h 0.045 l -0.045,0.134938 q -0.09,0.08996 0,0.224896 v 0.179916 q -0.045,0 -0.09,0.08996 -0.045,0.04498 -0.13494,0.04498 v 0.04498 0.08996 q 0,0.134938 -0.045,0.269876 -0.045,0.08996 -0.17992,0.134937 0.045,0.224896 -0.13493,0.224896 -0.40482,0.224896 -0.58473,0.314855 v 0.04498 l -0.2249,0.179917 q -0.17992,0.08996 -0.26987,0.179916 -0.09,0.08996 -0.17992,0.134938 h -0.17992 l -0.22489,0.08996 q -0.17992,0.179917 -0.49478,0.269876 -0.26987,0.08996 -0.44979,0.179916 -0.53975,0.179917 -0.53975,0.179917 -0.22489,0.04498 -0.49477,0.224896 -0.26987,0 -0.53975,0.04498 -0.2249,0.04498 -0.44979,0.04498 l -0.045,0.04498 q -0.67469,0.134937 -0.67469,0.134937 -0.045,-0.08996 -0.045,0 h -0.22489 -0.17992 q -0.13494,0 -0.31486,0.04498 -0.13493,0.04498 -0.22489,0.04498 h -0.98954 q -0.13494,0.04498 -0.31486,0 -0.13494,0 -0.17991,0 -0.09,-0.04498 -0.26988,-0.04498 -0.13494,0.04498 -0.2249,0.04498 -0.09,0 -0.26987,-0.04498 -0.13494,-0.04498 -0.40481,-0.04498 -0.26988,-0.08996 -0.49478,-0.134937 -0.17991,0 -0.31485,0 -0.76465,-0.08996 -0.89958,-0.134938 l -0.94457,-0.269875 q -0.71966,-0.224896 -1.43933,-0.674688 -0.17992,-0.04498 -0.26988,-0.269875 -0.31485,-0.314855 -0.49477,-0.58473 -0.44979,-0.584729 -0.53975,-0.764646 0,-0.08996 -0.09,-0.179917 -0.09,-0.134937 -0.13493,-0.224896 -0.13494,-0.08996 -0.13494,-0.359833 -0.17992,-0.314855 -0.17992,-0.629709 0,-0.224896 0.045,-0.359834 0,-0.179917 -0.09,-0.269875 -0.13493,-0.134938 -0.13493,-0.494771 v -0.539751 q 0,-0.179916 0.13493,-0.314854 0,-0.359834 0.13494,-0.674688 v -0.04498 l 0.31485,-0.989543 q 0.045,0 0.045,-0.134937 0,-0.134938 -0.13493,-0.224896 l -0.09,-0.134938 q -0.13494,-0.269875 -0.13494,-0.404812 -0.045,-0.134938 -0.045,-0.314855 0.045,-0.08996 -0.045,-0.179917 -0.045,-0.08996 -0.045,-0.179916 l -0.22489,-0.269876 -0.045,-0.08996 q -0.045,-0.08996 -0.13494,-0.08996 -0.09,-0.449792 -0.09,-0.629709 v -0.224896 q 0.09,-0.08996 0.09,-0.179917 0.13494,-0.179917 0.49477,-0.314854 l 0.62971,-0.08996 q 0.17992,0 0.2249,-0.134937 l 1.57427,-1.079501 q 0.09,0 0.09,-0.179917 0.0899,-0.269875 0.22489,-0.359834 0.045,-0.08996 0.09,-0.134937 0.045,-0.08996 0.09,-0.179917 0.09,-0.179917 0.17992,-0.314854 0.13493,-0.134938 0.17991,-0.269876 0,-0.179916 0.13494,-0.224896 l 0.80963,-1.439334 q 0,0 0.13493,-0.134937 h -0.09 q -0.53975,0.179916 -0.53975,0.179916 0,-0.04498 -0.09,-0.134937 v 0.224896 q -0.09,-0.04498 -0.09,-0.134938 -0.045,0.04498 -0.09,0.134938 -0.045,0.04498 -0.17992,0 l -0.045,0.08996 q -0.045,0 -0.045,0 -0.045,0.08996 -0.17991,0.08996 v -0.179917 q 0,0 -0.09,0.08996 0,0.08996 -0.045,0.179917 -0.045,0.04498 -0.045,0.08996 0,0 -0.13494,-0.134937 l -0.22489,0.224896 h -0.2249 q 0,0.04498 -0.13494,0.08996 0,0.179917 -0.22489,0.269875 -0.09,0.08996 -0.09,-0.134937 -0.13494,0.04498 -0.26988,-0.08996 -0.22489,-0.224896 -0.40481,-0.134937 -0.045,0 -0.045,0.08996 -0.44979,-0.359833 -0.67469,-0.494771 -0.045,-0.04498 -0.22489,-0.179917 -0.17992,-0.134937 -0.40481,-0.134937 -0.35984,-0.134938 -0.35984,-0.359834 l 0.045,-0.134938 h -0.045 q -0.045,0.04498 -0.13494,0.04498 -0.045,-0.04498 -0.09,-0.08996 0,-0.04498 -0.13494,-0.179917 -0.045,-0.04498 -0.13494,-0.08996 -0.045,-0.04498 -0.045,-0.08996 -0.13494,-0.134938 -0.22489,-0.314855 -0.09,-0.179917 -0.17992,-0.269875 -0.045,-0.04498 -0.045,-0.179917 0,-0.224896 0.13494,-0.359833 0.09,0 0.09,-0.179917 0.09,-0.269875 0.09,-0.58473 l 0.045,-0.134937 0.31486,0.404812 q 0.09,0.08996 0.13493,0.224896 0.09,0.08996 0.17992,0.179917 0.09,0.04498 0.35984,0.04498 0.26987,-0.134937 0.35983,-0.134937 0.35983,-0.134938 0.76465,-0.314855 0.40481,-0.179916 0.8546,-0.359833 0.13494,0 0.13494,-0.04498 0.045,-0.08996 0.17991,-0.134938 0.13494,-0.04498 0.17992,-0.04498 0.17992,-0.134938 0.44979,-0.224896 0.31486,-0.134938 0.44979,-0.269875 0.76465,-0.269876 1.03453,-0.449792 0.26987,-0.04498 0.53975,-0.134938 0.26987,-0.08996 0.35983,-0.134938 0.13494,-0.04498 0.31485,-0.08996 0.17992,-0.04498 0.26988,-0.134937 0.13494,-0.04498 0.26988,-0.08996 0.13493,-0.04498 0.31485,-0.134937 0,-0.04498 0.045,-0.04498 0.13494,0 0.26987,-0.08996 0.17992,-0.08996 0.26988,-0.134938 0.13494,-0.04498 0.26987,-0.08996 0.13494,-0.04498 0.17992,-0.08996 0.13494,0 0.13494,-0.04498 0.045,-0.04498 0.17992,-0.08996 0.17991,-0.04498 0.31485,-0.08996 h 0.09 q 0.045,-0.04498 0.13494,0 0.09,0 0.13493,-0.04498 h 0.40482 q 0.26987,0.08996 0.31485,0.08996 h 0.40481 q 0.09,0 0.2249,0.134937 0,0.179917 0.045,0.179917 l 0.17992,-0.08996 q 0.045,-0.04498 0.0899,0 0.045,0 0.09,0 l 0.045,0.269875 q -0.13494,0.04498 -0.13494,0.224896 0,0.179917 0,0.269875 -0.0899,0.134938 0,0.53975 l 0.045,0.179917 q 0.045,0.08996 0.13494,0.269875 0.09,0.179917 0.09,0.359834 v 0.04498 q 0.09,0.08996 0.09,0.314855 0,0.179916 0,0.224896 0.09,0.179916 0.09,0.314854 0,0.269875 -0.26988,0.494771 -0.2249,0.314855 -0.26987,0.359834 -0.17992,0.179917 -0.31486,0.404813 -0.09,0.179916 -0.26987,0.359833 -0.09,0.08996 -0.2249,0.269875 -0.09,0.179917 -0.2249,0.314855 -0.09,0.134937 -0.22489,0.314854 -0.09,0.179917 -0.2249,0.269875 l -0.26987,0.359834 q -0.13494,0.314854 -0.4498,0.629709 -0.17991,0.269875 -0.35983,0.494771 -0.13494,0.179917 -0.26987,0.359833 l -0.35984,0.58473 q 0,0.04498 -0.045,0.08996 0,0 -0.045,0 -0.045,0.04498 -0.09,0.08996 0,0 -0.045,0 -0.045,0.269875 -0.2249,0.53975 -0.13494,0.224896 -0.2249,0.359834 v 0.04498 0.179917 q -0.22489,0 -0.22489,0.224896 -0.09,0.08996 -0.09,0.269875 v 0.224896 q -0.2249,0.179917 -0.31485,0.269875 h -0.09 q 0,0 -0.26988,0.269875 -0.045,0.08996 -0.17991,0.224896 -0.13494,0.134938 -0.2249,0.269876 -0.2249,0.08996 -0.2249,0.269875 0,0.08996 -0.09,0.08996 -0.045,0 -0.13493,-0.04498 l 0.045,0.04498 q -0.045,0 -0.13494,0.08996 0,0 -0.045,0.04498 0,0 0,0 0,0.134937 -0.2249,0.134937 l -0.44979,0.494771 q -0.045,0.179917 -0.13494,0.314855 -0.045,0.08996 -0.09,0.179917 l -0.2249,0.449792 -0.045,0.179916 q -0.31485,0.269876 -0.44979,0.494772 -0.13494,0.179916 -0.2249,0.404812 -0.09,0.179917 -0.17991,0.314855 l -0.31486,0.53975 h -0.13494 q -0.13493,0.134938 -0.13493,0.359834 -0.09,0.08996 -0.17992,0.314854 0,0.269875 0.045,0.449792 0,0.359834 0.17992,0.58473 0,0.134937 0.26987,0.314854 0.49477,0.359834 1.25942,0.449792 h 1.16946 q 0.71966,0.08996 1.0795,0.08996 l 1.0795,0.08996 q 0.53975,0 1.70921,-0.08996 0.17992,0 0.49477,-0.04498 0.31485,-0.08996 0.49477,-0.134937 0.80963,-0.08996 1.12448,-0.224896 l 0.76465,-0.314855 q 0.89958,-0.314854 1.34937,-0.719667 0.53975,-0.359833 0.80963,-0.494771 0.09,-0.08996 0.13494,-0.134938 0.0899,-0.08996 0.17991,-0.179916 0.13494,-0.134938 0.13494,-0.314855 0.045,-0.224896 0,-0.449792 0,-0.269875 0,-0.359833 0,-0.359834 0.045,-0.629709 0,-0.179917 0.09,-0.629709 0,-0.04498 -0.045,-0.134938 0,-0.134937 -0.09,-0.269875 0.045,-0.404813 0.045,-1.169459 0,-0.854605 -0.17992,-1.529293 l -0.09,-0.404812 q 0.2249,0 0.26988,0.224896 0,0.08996 0.09,0.224896 0.09,0.134937 0.09,0.224896 0.045,0.08996 0.045,0.224896 0,0.08996 0.045,0.179916 0.0899,0.269876 0.26987,0.359834 h 0.045 q 0.045,0.04498 0.13494,0.359834 0,0.04498 0,0.08996 0,0.04498 0,0.04498 0.045,0.359834 0.26987,0.719667 0.09,0.04498 0.13494,0.179917 0.045,0.134938 0.045,0.179917 0.13494,0.269875 0.13494,0.53975 v 0.04498 q 0.22489,0.314855 0.22489,0.764647 0,0.04498 0.09,0.134937 0.045,0.314855 0.17992,0.539751 v 0.314854 q 0.045,0.08996 0.045,0.404813 l 0.09,0.08996 0.045,-0.04498 q 0.17992,-0.08996 0.17992,0.04498 h 0.13494 q 0.045,0.08996 0,0.179917 0,0.08996 0,0.179917 z m -18.93624,-4.003148 q 0.09,-0.08996 0.13493,-0.08996 0.09,0.224896 0,0.494771 0,0 -0.13493,0.404813 v 0.08996 q -0.13494,0.314854 -0.2249,0.584729 -0.09,0.224896 -0.17992,0.404813 -0.045,0.269875 -0.26987,0.629709 0,0.08996 -0.045,0.134937 -0.045,0.04498 -0.045,0.134938 -0.045,0.224896 -0.31486,0.989542 -0.045,0.08996 -0.13493,0.269876 -0.045,0.179916 -0.045,0.269875 0,0.269875 -0.2249,0.584729 l -0.35983,0.719668 q -0.045,0.134937 -0.13494,0.314854 -0.09,0.134938 -0.17992,0.359833 -0.31485,0.629709 -0.53975,0.899584 -0.09,0.134938 -0.13493,0.224896 0,0.134938 0,0.179917 l -0.26988,0.719667 -0.13494,0.179917 -0.22489,0.04498 q -0.26988,0 -0.49477,-0.224896 0,-0.08996 -0.045,-0.08996 -0.13494,-0.04498 -0.2249,-0.134938 -0.09,-0.04498 -0.13494,-0.08996 l 0.045,-0.134938 q 0,-0.224896 -0.13494,-0.404812 -0.13493,-0.134938 -0.31485,-0.179917 -0.17992,-0.04498 -0.13494,-0.179917 0,-0.08996 -0.09,-0.08996 -0.17991,-0.179917 -0.09,-0.404813 0.13493,-0.269875 0,-0.494771 -0.09,-0.179917 -0.09,-0.629709 l -0.045,-1.619251 q 0,-0.359834 0.045,-0.674688 0.045,-0.359834 0.045,-0.629709 l 0.045,-1.034522 q 0.045,-0.359833 0.045,-1.034521 l 0.17991,-1.439334 0.17992,-1.079501 q 0.09,-0.314855 0.17992,-0.944563 0.045,-0.224896 0.09,-0.58473 0.09,-0.359834 0.17992,-0.58473 0.045,-0.04498 0,-0.179916 -0.53975,0.53975 -0.53975,0.53975 -0.09,0.04498 -0.26987,0.269875 -0.13494,0.179917 -0.31486,0.134938 0,0.179917 -0.13494,0.269875 -0.09,0.08996 -0.13493,0.08996 -0.09,0.134938 -0.17992,0.179917 -0.09,0.04498 -0.13494,0.08996 l -0.44979,0.359833 q -0.09,0.179917 -0.31485,0.269875 -0.09,0.04498 -0.26988,0.179917 -0.17992,0.08996 -0.26988,0.134938 h -0.26987 q -0.09,-0.08996 -0.17992,-0.04498 h -0.09 l -0.35983,-0.08996 -0.98954,-0.314854 q -0.09,0 -0.2249,-0.08996 -0.09,-0.08996 -0.17991,-0.224896 0,-0.08996 -0.13494,-0.08996 -0.045,-0.04498 -0.17992,-0.04498 -0.17992,-0.04498 -0.17992,-0.314855 l -0.045,-0.08996 q -0.17992,-0.53975 -0.13494,-0.944563 l -0.09,-0.224896 v -0.179917 q 0.13494,0.134938 0.40481,0.269875 -0.045,-0.04498 0,-0.04498 l -0.13494,-0.359834 -0.13493,-0.269875 q 0.045,0 0.045,0 0.045,-0.04498 0.045,-0.08996 0.045,0.04498 0.09,0.04498 0.045,0 0.045,0.04498 0.045,0.494771 0.62971,0.764647 0,0.04498 0,0.04498 0.045,-0.04498 0.09,-0.04498 0.17992,-0.179917 0.53975,-0.359834 0.045,-0.04498 0.58473,-0.449792 0.13494,-0.134938 0.40481,-0.314854 l 0.26988,-0.224896 0.22489,-0.179917 q 0.67469,-0.674688 1.0795,-0.989542 0.17992,-0.134938 0.40482,-0.314855 0.22489,-0.179917 0.35983,-0.269875 0.44979,-0.449792 0.80963,-0.674688 l 0.49477,-0.314854 q 0,0 0,0 0.045,-0.04498 0.045,-0.04498 0.045,-0.04498 0.045,-0.08996 0,-0.08996 0.045,-0.08996 0.17991,-0.08996 0.26987,-0.04498 0.53975,0 0.80963,0.08996 l 0.40481,0.134937 q 0.17992,0 0.22489,0.04498 0.26988,0.04498 0.09,0.224896 l -0.09,0.04498 0.35984,0.314854 q 0.17992,0.179917 0.26987,0.179917 0.13494,0 0.26988,0.179917 0.17992,0.134937 0.26987,0.179917 0.17992,0.134937 0.17992,0.314854 0,0.134938 -0.17992,0.314854 -0.22489,0.314855 -0.26987,0.539751 -0.35983,0.674688 -0.40481,0.899584 -0.09,0.359833 -0.17992,0.989542 l -0.17992,1.079501 q -0.22489,0.809625 -0.22489,1.484313 -0.045,0.269876 -0.17992,1.394356 -0.045,0.314854 -0.045,0.854604 0,0.539751 -0.13494,1.079501 v 0.58473 q 0,0.449792 -0.09,1.529292 l 0.045,0.134938 q 0,0 0,0.04498 0.045,0 0.045,0 0,-0.134937 0.13494,-0.179917 0.13494,-0.269875 0.49477,-0.719667 0.13494,-0.224896 0.31486,-0.494771 0.17991,-0.314854 0.35983,-0.674688 0.58473,-0.899584 0.62971,-1.034522 l 0.53975,-0.854604 q 0,-0.134938 0.045,-0.179917 0.045,0 0.045,0 0.045,-0.04498 0.09,-0.04498 z"
           id="text1889-77"
           aria-label="记" />
        <g
           id="g17628"
           transform="translate(94.233334,-47.116634)">
          <rect
             style="fill:#104b37;fill-opacity:1;stroke:#ffffff;stroke-width:1.53935;stroke-opacity:1"
             id="rect14223-8-0"
             width="43.460648"
             height="43.460644"
             x="99.511299"
             y="87.089951" />
          <rect
             style="fill:#104b37;fill-opacity:1;stroke:#ffffff;stroke-width:1.53935;stroke-opacity:1"
             id="rect14223-85-4"
             width="43.460648"
             height="43.460644"
             x="52.39463"
             y="87.089951" />
          <g
             id="g17615">
            <path
               style="font-size:44.9792px;line-height:0.85;font-family:'演示悠然小楷';-inkscape-font-specification:'演示悠然小楷';fill:#ffffff;stroke-width:1.85208"
               d="m 89.099903,117.2661 q 0.04498,0.09 0.04498,0.22489 0,0.13494 -0.08996,0.49478 -0.04498,0.045 -0.04498,0.17991 0,0.40481 -0.314854,0.53975 -0.269875,0.13494 -0.53975,0.13494 -0.179917,0 -0.404813,-0.13494 -0.04498,-0.045 -0.179917,-0.09 -0.08996,-0.09 -0.134938,-0.22489 -0.134937,-0.26988 -0.674688,-0.53975 0,0 -0.134937,-0.13494 -0.134938,-0.13494 -0.449792,-0.35983 -0.269875,-0.2249 -0.449792,-0.49477 l -0.179917,-0.2249 q -0.08996,-0.17992 -0.269875,-0.35983 -0.134938,-0.17992 -0.224896,-0.35984 -0.179917,-0.17991 -0.359834,-0.35983 -0.179917,-0.2249 -0.404813,-0.44979 l -1.484313,-1.3044 -0.989542,-0.76465 -0.854605,-0.67468 q -0.224896,-0.13494 -0.494771,-0.26988 -0.269876,-0.13494 -0.539751,-0.35983 -0.629709,-0.4498 -0.944563,-0.58473 l -0.989542,-0.35984 v 0.26988 l 0.04498,1.12448 q 0,0.13494 -0.04498,0.26987 -0.04498,0.13494 -0.04498,0.26988 v 0.17992 0.94456 q 0,0.98954 -0.08996,1.43933 -0.04498,0.26988 0,0.53975 0.04498,0.26988 0,0.53975 v 0.17992 q 0,0.35983 0.04498,0.53975 l -0.08996,0.40481 v 0.09 q 0.04498,0.045 0.04498,0.17992 l -0.04498,0.35983 q 0,0.31486 0.04498,0.49477 v 0.62971 q 0,0.09 0,0.13494 0.04498,0.09 0,0.17992 l -0.134937,0.58473 q -0.08996,0.31485 -0.179917,0.76464 l -0.08996,0.17992 q 0,0.09 -0.04498,0.09 -0.449792,0.09 -0.53975,0.17992 l -0.224896,0.31485 q -0.134938,0.17992 -0.359834,0.17992 -0.04498,0 -0.224896,-0.045 -0.134937,-0.045 -0.224896,0.045 h -0.134937 q -0.224896,-0.13494 -0.629709,-0.31486 -0.359834,-0.13494 -0.539751,-0.26987 -1.349376,-0.80963 -1.754188,-1.16946 -0.944563,-0.80963 -1.529293,-1.48432 l -0.494771,-0.58473 q -0.899584,-1.0795 -1.214439,-1.70921 -0.359833,-0.6297 -0.404812,-1.25941 l -0.04498,-0.35984 q -0.04498,-0.09 -0.04498,-0.22489 0,-0.2249 -0.224896,-0.13494 -0.08996,0.045 -0.269875,0.2249 l -0.449792,0.40481 q -0.359834,0.22489 -1.079501,0.76465 l -0.224896,0.0899 q -0.04498,0.045 -0.179917,0.09 -0.08996,0 -0.224895,0.09 -0.359834,0.2249 -0.854605,0.40481 -0.269875,0.13494 -0.539751,0.13494 -0.179916,0.045 -0.53975,0.045 l -0.179917,0.35983 q 0,0 -0.04498,0.045 0,0 0,0 0,0.17992 -0.08996,0.31486 -0.08996,0.13493 -0.134938,0.22489 -0.04498,0.17992 -0.494771,0.71967 -0.224896,0.26988 -0.539751,0.31485 -0.269875,0 -0.404812,0 h -0.08996 q -0.224896,0 -0.494771,-0.17991 -0.08996,-0.09 -0.359834,-0.09 l -0.269875,-0.13494 q -0.134937,-0.17991 -0.359833,-0.26987 -0.224896,-0.09 -0.269876,-0.09 -0.494771,0 -0.764646,-0.31486 0,-0.09 -0.04498,-0.09 -0.179917,0 -0.179917,-0.13494 0,-0.13494 0,-0.17992 v -0.13494 q 0,-0.31485 -0.179917,-0.40481 -0.08996,0 -0.08996,-0.2249 l 0.359834,-0.44979 q 0.08996,-0.09 0.08996,-0.13493 0,-0.2249 -0.08996,-0.53976 -0.04498,-0.31485 -0.04498,-0.67468 l 0.08996,-0.2249 q 0.08996,-0.17992 0.179917,-0.62971 l 0.08996,-0.17991 q 0.08996,0.17991 0.224896,0.58472 0.134938,0.35984 0.359833,0.62971 0.224896,0.26988 0.539751,0.4498 l 0.719667,-0.62971 0.674688,-0.71967 q 0.04498,-0.09 0.404813,-0.44979 l 2.024064,-2.06905 0.944563,-1.21443 q 1.349376,-1.66423 1.259417,-1.5293 l 0.269876,-0.35983 0.224896,-0.17992 q -0.58473,-0.13493 -0.809626,-0.58473 -0.08996,-0.13493 0,-0.22489 0.08996,-0.13494 -0.04498,-0.31486 -0.08996,-0.17991 -0.269875,-0.49477 -0.134938,-0.35983 -0.179917,-0.62971 0,-0.13493 -0.04498,-0.22489 l -0.134938,0.045 -0.764646,0.26987 q -0.04498,0.045 -0.179917,0 -0.08996,-0.045 -0.179917,-0.045 -0.134937,0 -0.179917,0.045 l -1.169459,0.85461 q -0.224896,0.17991 -0.359833,0.35983 -0.134938,0.17992 -0.224896,0.26988 -0.08996,0.09 -0.179917,0.13493 -0.04498,0 -0.08996,0 l -0.08996,-0.045 q 0.08996,-0.17991 0.179917,-0.53975 l 0.674688,-1.34937 0.08996,-0.17992 q 0.04498,-0.13494 0,-0.17992 0,-0.09 -0.134937,-0.13493 -0.134938,-0.09 -0.314855,-0.13494 -0.134937,-0.09 -0.314854,-0.2249 -0.224896,-0.13494 -0.359834,-0.31485 -0.08996,-0.2249 -0.134937,-0.26988 l -0.494772,-0.98954 q -0.08996,-0.31485 0.04498,-0.44979 0.04498,-0.09 0,-0.13494 0,-0.09 0,-0.13494 v -0.40481 l 0.04498,-0.045 H 62.2923 q 0.08996,0.045 0.179917,0.2249 0.08996,0.22489 0.359834,0.40481 0.314854,0.17992 0.404813,0.2249 l 0.764646,0.58473 h 0.08996 l 0.719668,-0.26988 q 0.04498,-0.045 0.08996,0 0.04498,0 0.08996,0 0.134938,0.13494 0.314855,0.13494 0.359833,0 0.629709,0.13494 l 0.08996,0.09 q 0.134938,-0.045 0.224896,0 0.134938,0.045 0.179917,0.17992 v 0.09 q 0.134937,0.045 0.224896,0.2249 0.08996,0.17991 0.179916,0.22489 0.179917,0.13494 0.08996,0.35983 -0.134938,0.17992 0.08996,0.26988 0.269875,0.13494 0.08996,0.31485 l -0.04498,0.045 q 0.134938,0.35984 0.359834,0.76465 0.179917,0.17992 0.269875,0.2249 l 0.404813,0.35983 q 0,0.045 0.134938,0.045 l 0.584729,-0.26988 q 0.269875,-0.22489 0.58473,-0.35983 0.809625,-0.49477 1.484313,-0.76465 0.899584,-0.44979 1.349376,-0.62971 0.134938,-0.045 0.314855,-0.09 0.179916,-0.045 0.359833,-0.09 l 0.359834,-0.13494 q 0.134937,-0.045 0.314854,0 0.04498,0.045 0.134938,0.045 0.08996,-0.045 0.179917,-0.045 0.314854,0 0.494771,0.045 0.224896,0 0.269875,0.17992 0,0.09 0.04498,0.22489 0.04498,0.09 0,0.2249 v 0.045 q 0.04498,0.13494 0.04498,0.35983 0,0.045 -0.04498,0.09 0,0.045 0.04498,0.09 0.04498,0.09 0.04498,0.26987 0,0.13494 -0.08996,0.31486 -0.04498,0.17991 -0.04498,0.26987 0,0.31486 -0.04498,0.40482 -0.08996,0.44979 -0.539751,1.25941 l -0.584729,1.03452 q -0.224896,0.2249 -0.224896,0.2249 -0.359834,0.44979 -0.629709,0.89958 0,0.045 -0.08996,0.13494 -0.359834,0.35984 -0.764647,0.89959 -0.08996,0.09 -0.224896,0.31485 -0.134937,0.17992 -0.314854,0.31486 -0.224896,0.22489 -0.449792,0.49477 -0.179917,0.22489 -0.404813,0.44979 -0.449792,0.44979 -0.764646,0.89958 l -0.359834,0.2249 -0.179917,0.22489 q -0.08996,0.17992 0.04498,0.31486 l 0.629708,1.39435 q 0.04498,0.09 0.449792,0.49477 0.08996,0.045 0.179917,0.09 0.08996,0.045 0.179917,0.09 l 0.719667,0.62971 q 0.179917,0.17992 0.719667,0.49477 l 0.539751,0.49477 0.449792,0.2249 q 0.629708,0.35983 1.169459,0.62971 0.134937,0.09 0.404813,0.17991 h 0.224896 v -0.80962 q 0,-1.0795 0.04498,-1.61925 l 0.04498,-1.43934 v -0.94456 q 0,-0.40481 0.08996,-1.21444 l 0.04498,-1.16946 q 0.04498,-0.35983 0.04498,-0.89958 0,-0.58473 0.04498,-0.98954 0,-0.94457 0.04498,-1.39436 0.08996,-0.80962 0.08996,-1.3044 0,-0.76464 0.08996,-2.29393 0.08996,-0.89959 0.08996,-1.39436 l 0.134938,-1.61925 0.08996,-1.21444 0.08996,-1.214438 q 0.04498,-0.224896 0,-0.404813 0,-0.179916 0,-0.269875 0,-0.359833 0.08996,-1.169459 0,-0.134938 -0.179917,-0.314854 -0.224896,-0.08996 -0.53975,-0.539751 -0.08996,-0.134937 -0.53975,-0.314854 l -0.134938,-0.04498 q 0,-0.08996 0.04498,-0.134938 0.224896,-0.224896 0.629709,-0.224896 0.359834,0 0.629709,0.134938 l 0.53975,0.269875 q 0.134938,0.08996 0.179917,0.04498 0.04498,-0.08996 0.04498,-0.08996 0.04498,-0.04498 0.134938,-0.04498 0.134937,0 0.179917,0.04498 0.179916,0.269875 0.899584,0.53975 l 0.359833,0.134938 q 0.04498,0.04498 0.04498,0.08996 0.04498,0.04498 0.08996,0.04498 l 0.179916,0.224896 q 0.08996,0.04498 0.08996,0.08996 0,0.04498 -0.04498,0.08996 l -0.134938,0.269875 q 0,0.04498 -0.08996,0.134938 -0.04498,0.04498 -0.04498,0.134937 -0.08996,0.539751 -0.08996,0.764647 0,0.854605 -0.04498,1.349378 v 1.21444 1.61925 q -0.04498,0.35983 -0.04498,1.03452 l -0.04498,0.80962 v 0.76465 q 0.04498,0.17992 0,0.31486 0,0.13493 0,0.26987 v 1.21444 h 0.08996 q 0.04498,-0.09 0.224896,-0.26988 0.224896,-0.26987 0.359833,-0.49477 0.134938,-0.22489 0.269876,-0.40481 l 0.674688,-0.71967 q 0.04498,-0.09 0.224896,-0.26987 0.134937,-0.13494 0.134937,-0.17992 0.04498,-0.045 0.08996,-0.13494 0.04498,-0.09 0.134937,-0.13493 0.269875,-0.17992 0.674688,-0.67469 l 0.04498,-0.045 -0.04498,-0.09 q 0,-0.09 0.08996,-0.17992 0.08996,-0.13493 0.134937,-0.17991 l 0.404813,-0.71967 q 0.04498,0 0,-0.045 0,-0.045 0,-0.09 l -0.179917,-0.76465 q 0,-0.045 -0.08996,-0.13493 l -0.269875,-0.13494 q 0.08996,0 0.314854,0 0.224896,-0.045 0.314854,-0.31485 l 0.58473,0.26987 0.494771,0.31485 0.494771,0.4498 q 0,0 0,0.045 0.04498,0 0.04498,0 0.179916,0.09 0.269875,0.31485 0.134937,0.2249 0.179917,0.31485 0.04498,0.17992 0.224896,0.53976 l 0.04498,0.13493 q 0,0.17992 -0.179917,0.35984 -0.04498,0.09 -0.04498,0.22489 v 0.09 q -0.08996,0.17992 -0.179917,0.44979 -0.08996,0.2249 -0.269875,0.35984 l -0.224896,0.31485 q -0.134938,0.13494 -0.269875,0.09 h -0.04498 q 0,0 -0.269875,0.26987 h -0.04498 q -0.134938,0 -0.224896,0.09 -0.04498,0.09 -0.08996,0.13494 -0.08996,0.045 -0.58473,0.44979 l -0.04498,-0.09 q -0.04498,-0.09 -0.08996,-0.09 -0.04498,-0.045 -0.08996,0 -0.04498,0.045 -0.08996,0.045 -0.314855,0.2249 -0.449792,0.2249 h -0.04498 q -0.08996,0.13494 -0.314854,0.2249 -0.224896,0.09 -0.314854,0.17991 -0.224896,0.13494 -0.314855,0.09 -0.08996,0 -0.134937,0.045 -0.04498,0.045 -0.08996,0.09 -0.04498,0.045 -0.224896,0.13494 -0.179917,0.045 -0.269875,0.22489 l -0.359834,0.17992 q -0.04498,0.045 -0.629708,0.49477 -0.08996,0.13494 0.04498,0.26988 l -0.04498,0.67468 h 0.674688 q 0.719667,0.09 1.259417,0.26988 0.404813,0.13494 0.989543,0.35983 0.629708,0.2249 1.439334,0.58473 1.304397,0.58473 1.574272,0.76465 l 1.754189,1.03452 q 0.404812,0.2249 1.034521,0.80963 0.179917,0.13493 0.359834,0.26987 0.179917,0.13494 0.359833,0.26988 0.269876,0.22489 1.214439,1.25941 0.04498,0 0.04498,0.09 0.04498,0.09 0.134938,0.13494 0.04498,0.13494 0,0.31485 -0.179917,0.31486 -0.04498,0.58473 0.08996,0.2249 0.134938,0.4498 0.08996,0.22489 0.179917,0.44979 z m -19.700889,-5.6224 q 0.08996,-0.09 0.08996,-0.13494 l 0.359834,-0.35983 0.629709,-0.80963 q 0.134937,-0.22489 0.314854,-0.40481 0.179917,-0.17992 0.314854,-0.40481 0.404813,-0.67469 0.404813,-0.67469 l 0.809626,-1.48432 q 0.08996,-0.17991 0.08996,-0.22489 v -0.045 l -0.224896,0.17992 q 0,0 -0.08996,0.09 -0.58473,0.26988 -0.719667,0.40482 -0.269876,0.22489 -0.719668,0.35983 -0.629708,0.26988 -1.259417,0.40481 h -0.179917 q -0.359834,0 -0.449792,-0.17991 -0.134938,0 -0.224896,-0.09 -0.224896,0 -0.404813,-0.17992 -0.134937,0 -0.179917,-0.045 -0.04498,0.17992 -0.08996,0.35984 -0.04498,0.17991 -0.08996,0.35983 -0.179917,0.26987 -0.224896,0.40481 -0.224896,0.40482 -0.58473,1.21444 l -0.359834,0.71967 -0.269875,0.58473 q -0.04498,0.09 -0.134937,0.17991 -0.04498,0.045 -0.04498,0.13494 l -0.494772,1.16946 v 0.045 q -0.179916,0.13494 -0.224896,0.35983 -0.04498,0.2249 -0.08996,0.35984 0.08996,0.17991 0.08996,0.22489 0,0.09 -0.08996,0.2249 -0.08996,0.09 -0.134938,0.2249 -0.08996,0.17991 -0.314854,0.89958 -0.04498,0.17992 -0.224896,0.44979 l 0.134938,-0.045 q 0.449792,-0.17991 0.854604,-0.53975 0.404813,-0.35983 0.58473,-0.49477 l 0.269875,-0.2249 q 0.179917,-0.13493 0.314854,-0.31485 0.08996,-0.09 0.179917,-0.13494 0.08996,-0.09 0.179917,-0.17991 0.224896,-0.2249 0.494771,-0.4498 0.269875,-0.22489 0.539751,-0.49477 l 0.314854,-0.49477 q 0.04498,-0.045 0.134938,-0.09 0.08996,-0.045 0.134937,-0.13493 z"
               id="text1893-30"
               aria-label="冰" />
            <path
               style="font-size:44.9792px;line-height:0.85;font-family:'演示悠然小楷';-inkscape-font-specification:'演示悠然小楷';fill:#ffffff;stroke-width:1.85208"
               d="m 118.39777,94.229664 q 0,0 0,-0.04498 0.045,-0.08996 0,-0.179917 0.13494,0.08996 0.26988,0.134937 0.13494,0.04498 0.26987,-0.08996 0,-0.04498 0.31486,0.134938 l 0.71967,0.53975 q 0.44979,0.359834 0.76464,0.359834 0.09,0 0.35984,-0.08996 0.26987,-0.08996 0.53975,-0.134937 0.31485,-0.08996 0.58473,-0.179917 l 0.35983,-0.314855 q 0.17992,-0.179916 0.26987,-0.224896 0.13494,-0.08996 0.35984,0.04498 0.09,0.04498 0.22489,0 0.13494,-0.04498 0.31486,0 h 0.22489 q 0.2249,0.04498 0.58473,0.04498 0.49477,0 0.89959,0.269875 0.045,0.08996 0.40481,0.314854 0.09,0.04498 0.13494,0.224896 0.045,0.134938 -0.045,0.224896 -0.13494,0.134938 -0.045,0.359834 v 0.08996 l -0.13494,0.674688 v 0.08996 q 0.13494,0.134937 0.045,0.224896 -0.045,0.04498 -0.17992,0.08996 -0.045,0.04498 -0.09,0.134938 -0.045,0.04498 -0.045,0.134937 -0.17992,0.359834 -0.53975,0.494771 l -1.61925,0.674688 q -0.85461,0.314855 -1.79917,0.854605 -0.31486,0.179917 -0.94457,0.179917 0.53975,-0.404813 0.67469,-0.58473 0.13494,-0.179916 0.045,-0.494771 -0.13494,-0.134937 -0.22489,-0.224896 -0.09,-0.134937 -0.17992,-0.224896 -0.26988,-0.134937 -0.49477,-0.269875 -0.2249,-0.134938 -0.40482,-0.269875 -0.09,-0.08996 -0.53975,-0.359834 -0.26987,-0.179916 -0.26987,-0.584729 -0.045,-0.58473 -0.58473,-1.574272 z m 16.14754,8.501066 q 0,0.40482 -0.49478,0.31486 h -0.44979 -0.09 q -0.17991,-0.09 -0.22489,-0.09 -0.13494,0 -0.2249,0.045 -0.045,0.045 -0.13494,0.09 -0.22489,0.045 -0.40481,0 h -0.13494 q -0.17991,0 -0.6297,0.17991 -0.045,0 -0.09,0.045 0,0 -0.045,-0.045 h -0.2249 q -0.22489,0 -0.8546,0.17992 -0.09,0.045 -0.2249,0.045 -0.09,0 -0.26987,0.09 l -1.61926,0.31485 q -0.13493,0.045 -0.31485,0.045 -0.13494,-0.045 -0.31485,0 l -0.35984,0.045 q -0.35983,0.09 -0.89958,0.17992 l -0.35984,0.045 -0.80962,-0.045 h -0.26988 l 0.045,-0.09 q 1.12448,-0.44979 2.11403,-0.94456 0.22489,-0.13494 1.57427,-0.89959 l 1.03452,-0.58473 q 0.35983,-0.17992 0.67469,-0.49477 0.17991,-0.09 0.09,-0.17992 -0.17992,-0.17991 -0.2249,-0.17991 l -1.12448,0.13493 q -0.85461,0.09 -1.84415,0.31486 -0.98954,0.17992 -1.34937,0.26987 -0.40482,0.13494 -0.98955,0.26988 -0.53975,0.09 -0.8546,0.13494 -0.26988,0.045 -0.58473,0.13493 -0.26988,0.09 -0.62971,0.17992 -0.62971,0.09 -2.3839,0.49477 -0.31485,0.09 -0.58473,0.09 -0.22489,0 -0.35983,0.045 l -1.57427,0.31485 -1.16946,0.2249 q -0.045,0 -0.09,0.045 -0.045,0.045 -0.13494,0.045 -0.35983,0 -0.49477,-0.09 -0.13494,-0.09 -0.40481,-0.17992 -0.26988,-0.09 -0.44979,-0.17991 -0.09,-0.045 -0.71967,-0.40482 l -0.26988,-0.13493 -0.045,0.53975 q -0.17992,0.76464 -0.2249,1.03452 -0.13494,0.35983 -0.17992,0.67469 -0.045,0.26987 -0.09,0.44979 -0.045,0.22489 -0.13493,0.44979 -0.09,0.2249 -0.17992,0.53975 l -0.2249,1.16946 q -0.045,0.09 -0.0899,0.2249 -0.045,0.13493 -0.045,0.31485 l -0.49477,1.48431 q -0.09,0.26988 -0.2249,0.49477 -0.09,0.17992 -0.17992,0.31486 -0.13494,0.2249 -0.40481,0.09 -0.09,-0.045 -0.44979,-0.17992 h -0.09 q 0,-0.13494 -0.17992,-0.31485 -0.13494,-0.17992 -0.13494,-0.31486 0,-0.09 -0.09,-0.17991 -0.045,-0.09 -0.13494,-0.045 h -0.045 q -0.17992,0 -0.26988,-0.09 -0.045,-0.13494 -0.09,-0.17992 -0.13494,-0.2249 -0.13494,-0.53975 0,-0.13494 -0.045,-0.13494 -0.17992,-0.22489 -0.17992,-0.53975 0,-0.31485 0.13494,-0.58473 0.17992,-0.35983 0.40481,-0.89958 0.26988,-0.53975 0.53975,-1.25942 0.09,-0.13494 0.40482,-1.03452 l 0.40481,-1.03452 q 0.44979,-0.98954 0.80962,-1.34938 l 1.21444,-1.43933 q 0.17992,-0.179919 0.40482,-0.494773 0.26987,-0.314855 0.40481,-0.494771 0.53975,-0.629709 0.94456,-0.809626 0.045,0 0.045,-0.04498 0.045,-0.04498 0.09,-0.04498 0.045,0 0.045,0 0.045,-0.04498 0.09,0 0,0 0,0.04498 0,0.04498 0,0.04498 -0.09,0.719667 -0.17992,0.989542 -0.09,0.404813 -0.26988,0.719668 -0.17991,0.53975 -0.44979,0.80963 -0.09,0.13493 -0.17991,0.35983 -0.045,0.22489 -0.13494,0.31485 l 0.09,0.045 h 0.17991 l 1.03453,-0.31485 1.75418,-0.53975 q 0.26988,-0.09 0.62971,-0.17992 0.35984,-0.13494 0.85461,-0.2249 l 1.84414,-0.449787 q 0.85461,-0.269875 1.5293,-0.404813 l 2.38389,-0.58473 q 0.58473,-0.179916 1.84415,-0.359833 l 2.3839,-0.404813 h 1.12448 0.045 q 0.22489,0.134938 0.53975,0.224896 0.31485,0.08996 0.53975,0.134938 0.045,0 0.17992,0.134937 0.26987,0.269875 0.26987,0.269875 l 0.17992,0.134938 q 0.76464,0.899584 0.71967,0.854605 0.17991,0.179917 0.31485,0.449787 0.17992,0.2249 0.40481,0.49478 0.35984,0.35983 0.53975,0.67468 0.17992,0.17992 0.26988,0.35984 l 0.13494,0.76464 z m -4.00315,19.20612 q 0.13493,0.13494 0.13493,0.35983 0,0.2249 0,0.31486 0,0.045 -0.13493,0.17991 -0.44979,0.2249 -0.49477,0.26988 l -0.17992,-0.13494 q -0.26988,0.13494 -0.31486,0.13494 -0.13493,0.045 -0.35983,0.045 -0.26987,0 -0.71967,-0.17992 -0.17991,-0.045 -0.31485,-0.045 -0.09,0.045 -0.17992,0.045 -0.26987,0.13494 -0.71966,0.2249 -0.4498,0.09 -0.67469,0.17992 l -0.26988,0.17991 -0.67469,0.17992 q -0.17991,0.045 -0.89958,0.17992 -0.31485,0.045 -0.67469,0.09 -0.31485,0.045 -0.62971,0.09 -0.58473,0 -0.8546,0.09 -0.98954,0.09 -2.02406,-0.13494 -0.85461,-0.13493 -1.84415,-0.49477 -0.58473,-0.17991 -1.0795,-0.71967 -0.35984,-0.44979 -0.62971,-0.89958 -0.13494,-0.17992 -0.13494,-0.49477 0,-0.13494 0.09,-0.49477 0.045,-0.31486 0.2249,-0.67469 0.17991,-0.31485 0.26987,-0.44979 0.045,0 0.045,-0.09 0,-0.17992 -0.17992,-0.40481 -0.13493,-0.2249 -0.22489,-0.31486 l -0.40482,-0.76464 q 0.13494,-0.13494 0.13494,-0.13494 l 1.25942,1.21444 q 0,0 1.79917,-1.79917 0,0 -0.09,-0.09 -0.53975,0.17992 -0.80963,0.2249 -0.40481,0.13493 -1.21444,0.31485 -0.26987,0 -0.40481,-0.09 -0.09,-0.045 -0.26987,-0.09 -0.17992,-0.09 -0.26988,-0.17991 -0.13494,-0.045 -0.31485,-0.2249 -0.13494,-0.17991 -0.26988,-0.26987 -0.17991,-0.045 -0.35983,-0.35984 -0.045,-0.09 -0.13494,-0.17991 -0.045,-0.09 0,-0.17992 0,-0.09 -0.045,-0.17992 -0.045,-0.09 -0.045,-0.17991 0,-0.045 0.17992,-0.2249 0.17992,-0.045 0.40481,0.09 0,0.09 0.045,0.09 0.26988,-0.13494 0.35983,0.09 0.09,0.09 0.31486,0.09 0.58473,-0.17991 0.76465,-0.22489 l 1.12448,-0.31486 1.61925,-0.44979 q 0,0 0.17991,-0.17992 0.045,-0.67468 -0.17991,-1.70921 -0.09,-0.17991 -0.17992,-0.71966 l -0.71967,0.26987 -1.21444,0.40482 q -0.40481,0.0899 -0.8546,0.13493 -0.40481,0.045 -0.80963,0.13494 h -0.09 q -0.17992,0 -0.35984,-0.09 -0.17991,-0.09 -0.22489,-0.13494 -0.09,0 -0.2249,-0.13493 -0.045,0 -0.13494,-0.045 -0.09,-0.045 0,-0.13494 0,0 0,0 0,-0.045 0,-0.045 -0.13494,-0.045 -0.13494,-0.22489 0,-0.31486 -0.44979,-0.53976 -0.26987,-0.22489 -0.26987,-0.40481 0,-0.22489 0.40481,-0.35983 0.31485,-0.13494 0.58473,-0.40481 0.31485,-0.31486 0.44979,-0.4498 -0.045,0.045 1.39436,-1.52929 0.44979,-0.44979 0.44979,-0.44979 -0.17992,-0.045 -1.52929,-0.44979 -0.045,-0.2249 -0.2249,-0.35984 -0.17992,-0.17991 -0.26987,-0.26987 0,0 -0.13494,-0.13494 0,-0.045 -0.09,-0.09 -0.045,-0.09 0.045,-0.17991 0.045,-0.09 0.045,-0.2249 0,-0.17992 -0.045,-0.26988 -0.045,-0.13493 -0.09,-0.22489 v -0.09 q 0.09,0 0.2249,0.045 0.17991,0 0.22489,0.09 0.045,0.09 0.26988,0.22489 0.045,0.045 0.09,0.045 0.045,-0.045 0.09,-0.045 0.31486,-0.13493 0.76465,-0.31485 0.49477,-0.17992 1.12448,-0.35983 0.09,-0.09 0.26988,-0.13494 0.17991,-0.045 0.31485,-0.09 0.09,-0.045 0.13494,-0.045 0.045,-0.045 0.09,-0.09 0.49477,-0.22489 1.16946,-0.44979 0.71966,-0.2249 1.0795,-0.35983 0.6297,-0.17992 1.97908,-0.17992 0.045,0 0.09,0.045 0.045,0 0.045,0.045 0.22489,0.35983 0.67469,0.35983 0.13493,0 0.17991,0.13494 0.09,0.09 0,0.17992 -0.09,0.13493 -0.09,0.26987 0,0.09 -0.045,0.17992 -0.045,0.09 -0.045,0.22489 v 0.17992 q 0,0.17992 -0.13494,0.2249 -0.2249,0.0899 -0.44979,0.17991 -0.17992,0.045 -0.31486,0.09 l -0.13494,0.09 q -1.39435,1.12448 -1.30439,1.03452 -0.31486,0.26988 -0.62971,0.53975 -0.26988,0.26988 -0.58473,0.49477 l -1.3044,1.21444 -0.76464,0.80963 0.045,0.09 0.58473,-0.17992 q 0.53975,-0.09 0.80962,-0.17992 l 0.98954,-0.26987 1.66423,-0.71967 1.57428,-0.71967 0.09,0.045 -0.17991,0.2249 -0.31486,0.26987 -1.25942,1.0795 q -0.22489,0.13494 -0.49477,0.40482 -0.26987,0.22489 -0.40481,0.35983 -0.35983,0.26988 -0.44979,0.44979 -0.045,0.09 -0.35983,0.31486 -0.26988,0.13493 -0.09,0.31485 0.22489,0.58473 0.40481,0.80963 0.17992,0.22489 0.31485,0.62971 0.13494,0.35983 0.26988,0.6297 0.045,0.13494 0.13494,0.17992 0.09,0 0.22489,0 0.71967,-0.26987 1.12448,-0.26987 0.13494,0.045 0.2249,-0.045 0.31485,-0.2249 0.40481,0 0.35984,-0.26988 0.67469,-0.09 0.09,0.045 0.2249,0.09 0.17991,0.045 0.26987,0.045 0.13494,0 0.26988,0.045 0.17991,0.045 0.31485,0.045 0.31485,0.13494 0.31485,0.35984 0,0.045 0.045,0.13494 0.09,0.045 0.09,0.09 l 0.17992,0.2249 0.13494,0.2249 q -0.09,0.09 -0.98955,0.71966 -0.6297,0.40482 -1.34937,0.80963 -0.09,0.045 -0.2249,0.09 -0.13494,0.045 -0.22489,0.09 -0.13494,0 -0.2249,0.045 l -0.89958,0.53975 q -0.2249,0 -0.13494,0.2249 0,0.26988 -0.09,0.71967 0,0.31485 -0.045,0.40481 l -0.22489,0.94456 -0.2249,1.03453 -0.09,0.31485 q 0.045,0 0.09,0 0.09,0.045 0.13494,0 0.80962,-0.045 2.06904,-0.44979 l 1.3044,-0.44979 q 0.09,-0.045 0.17991,-0.13494 0.13494,-0.045 0.2249,-0.045 0.31485,-0.13494 0.58473,-0.17992 0.26987,-0.045 0.44979,-0.09 0.35983,-0.17991 0.44979,-0.17991 0.71967,0 1.0795,0.045 0.09,0.045 0.13494,0.09 0.09,0.09 0.17992,0.17992 0.22489,0.13494 0.62971,0.53975 0,0 0.26987,0.26988 0.13494,0.09 0.13494,0.17991 0.31485,0.2249 0.62971,0.67469 z m -4.5429,-10.88497 q 0.26987,0 0.40481,-0.13493 0.17992,-0.17992 0.13494,-0.40482 l -0.44979,-0.89958 q -0.2249,-0.35983 -0.76465,-1.0795 l -0.17992,-0.2249 -0.09,-0.13493 0.2249,-0.09 q 1.12448,0.26987 1.97909,1.03452 0.09,0.09 0.35983,0.40481 0.26987,0.26988 0.62971,0.40481 0.22489,0.09 0.62971,0.58473 l 0.13493,0.045 q 0.40482,0.17992 0.40482,0.62971 0,0.2249 -0.045,0.35984 0,0.44979 -0.13494,0.67468 0,0.09 -0.31485,0.31486 l -0.17992,0.22489 -0.31486,0.13494 -0.31485,0.17992 q -0.09,0 -0.13494,0.045 -0.045,0.045 -0.13493,0.045 l -0.13494,-0.045 q -0.09,0 -0.2249,0.045 -0.13494,0.045 -0.22489,0.09 h -0.13494 q -0.045,-0.13493 -0.17992,-0.17991 -0.13494,-0.045 -0.17992,-0.045 -0.09,-0.045 -0.22489,-0.09 -0.13494,-0.09 -0.17992,-0.17992 -0.31485,-0.31485 -0.31485,-0.44979 l -0.13494,-0.09 q -0.71967,-0.35983 -1.43933,-0.35983 -0.49478,0.045 -1.5293,0.045 l -0.17991,-0.045 2.06904,-0.58473 q 0.13494,-0.045 0.31485,-0.09 0.2249,-0.045 0.35984,-0.045 0.09,0 0.44979,-0.09 z m -6.34207,8.81593 q 0,-0.13494 -0.17992,-0.13494 -0.09,0 -0.22489,0.045 -0.09,0.09 -0.13494,0.17992 0,0.09 0.13494,0.13493 0.13494,0.09 0.26987,0.09 z m -1.61925,1.75419 q 0.2249,0.22489 0.76465,0.22489 0.26987,0 0.40481,-0.045 -0.045,-0.045 -0.13494,-0.09 -0.045,-0.045 -0.09,-0.09 0,-0.13494 -0.13493,-0.26988 -0.09,-0.13494 -0.13494,-0.17992 0,-0.09 0,-0.09 0.09,-0.13494 -0.045,-0.2249 -0.13494,-0.045 -0.13494,-0.045 -0.13494,-0.13494 -0.26987,-0.09 -0.09,0.045 -0.13494,0.17992 l -0.13494,0.31485 q 0,0.09 0,0.2249 0,0.13494 0.045,0.17992 z"
               id="text1897-0"
               aria-label="室" />
          </g>
        </g>
      </g>
      <text
         xml:space="preserve"
         style="font-style:normal;font-variant:normal;font-weight:normal;font-stretch:normal;font-size:42.3333px;line-height:0.85;font-family:'钟齐志莽行书';-inkscape-font-specification:'钟齐志莽行书';fill:#000000;fill-opacity:1;stroke:#ffffff;stroke-width:1.85208;stroke-opacity:1"
         x="228.99269"
         y="158.78438"
         id="text17948"><tspan
           sodipodi:role="line"
           id="tspan17946"
           style="stroke-width:1.85208"
           x="228.99269"
           y="158.78438" /></text>
    </g>
  </g>
</svg>
