<?xml version="1.0" encoding="UTF-8" standalone="no"?>
<!-- Created with Inkscape (http://www.inkscape.org/) -->

<svg
   width="512"
   height="256"
   viewBox="0 0 135.46666 67.733335"
   version="1.1"
   id="svg5"
   inkscape:version="1.2.1 (9c6d41e410, 2022-07-14)"
   sodipodi:docname="vibrate.svg"
   xml:space="preserve"
   xmlns:inkscape="http://www.inkscape.org/namespaces/inkscape"
   xmlns:sodipodi="http://sodipodi.sourceforge.net/DTD/sodipodi-0.dtd"
   xmlns="http://www.w3.org/2000/svg"
   xmlns:svg="http://www.w3.org/2000/svg"><sodipodi:namedview
     id="namedview7"
     pagecolor="#505050"
     bordercolor="#ffffff"
     borderopacity="1"
     inkscape:showpageshadow="0"
     inkscape:pageopacity="0"
     inkscape:pagecheckerboard="1"
     inkscape:deskcolor="#505050"
     inkscape:document-units="px"
     showgrid="false"
     inkscape:zoom="0.8915598"
     inkscape:cx="270.31277"
     inkscape:cy="178.89995"
     inkscape:window-width="1920"
     inkscape:window-height="1031"
     inkscape:window-x="4096"
     inkscape:window-y="0"
     inkscape:window-maximized="1"
     inkscape:current-layer="layer1" /><defs
     id="defs2"><filter
       style="color-interpolation-filters:sRGB"
       inkscape:label="Blur"
       id="filter2085"
       x="-0.26953968"
       y="-0.029835694"
       width="1.539079"
       height="1.059671"><feGaussianBlur
         stdDeviation="1 0.01"
         result="fbSourceGraphic"
         id="feGaussianBlur2083" /><feColorMatrix
         result="fbSourceGraphicAlpha"
         in="fbSourceGraphic"
         values="0 0 0 -1 0 0 0 0 -1 0 0 0 0 -1 0 0 0 0 1 0"
         id="feColorMatrix2087" /><feGaussianBlur
         id="feGaussianBlur2089"
         stdDeviation="1 0.01"
         result="fbSourceGraphic"
         in="fbSourceGraphic" /><feColorMatrix
         result="fbSourceGraphicAlpha"
         in="fbSourceGraphic"
         values="0 0 0 -1 0 0 0 0 -1 0 0 0 0 -1 0 0 0 0 1 0"
         id="feColorMatrix2091" /><feGaussianBlur
         id="feGaussianBlur2093"
         stdDeviation="1 0.01"
         result="fbSourceGraphic"
         in="fbSourceGraphic" /><feColorMatrix
         result="fbSourceGraphicAlpha"
         in="fbSourceGraphic"
         values="0 0 0 -1 0 0 0 0 -1 0 0 0 0 -1 0 0 0 0 1 0"
         id="feColorMatrix2095" /><feGaussianBlur
         id="feGaussianBlur2097"
         stdDeviation="1 0.01"
         result="fbSourceGraphic"
         in="fbSourceGraphic" /><feColorMatrix
         result="fbSourceGraphicAlpha"
         in="fbSourceGraphic"
         values="0 0 0 -1 0 0 0 0 -1 0 0 0 0 -1 0 0 0 0 1 0"
         id="feColorMatrix2099" /><feGaussianBlur
         id="feGaussianBlur2101"
         stdDeviation="1 0.01"
         result="blur"
         in="fbSourceGraphic" /></filter><filter
       style="color-interpolation-filters:sRGB"
       inkscape:label="Blur"
       id="filter3837"
       x="-0.11311623"
       y="-0.014644897"
       width="1.2264618"
       height="1.0293772"><feGaussianBlur
         stdDeviation="1 0.01"
         result="blur"
         id="feGaussianBlur3835" /></filter><filter
       style="color-interpolation-filters:sRGB"
       inkscape:label="Blur"
       id="filter3841"
       x="-0.11334557"
       y="-0.014644897"
       width="1.2264618"
       height="1.0293772"><feGaussianBlur
         stdDeviation="1 0.01"
         result="blur"
         id="feGaussianBlur3839" /></filter><filter
       style="color-interpolation-filters:sRGB"
       inkscape:label="Blur"
       id="filter2085-3"
       x="-0.18708141"
       y="-0.13925401"
       width="1.3741628"
       height="1.2785061"><feGaussianBlur
         stdDeviation="1 0.01"
         result="fbSourceGraphic"
         id="feGaussianBlur2083-6" /><feColorMatrix
         result="fbSourceGraphicAlpha"
         in="fbSourceGraphic"
         values="0 0 0 -1 0 0 0 0 -1 0 0 0 0 -1 0 0 0 0 1 0"
         id="feColorMatrix2087-7" /><feGaussianBlur
         id="feGaussianBlur2089-5"
         stdDeviation="1 0.01"
         result="fbSourceGraphic"
         in="fbSourceGraphic" /><feColorMatrix
         result="fbSourceGraphicAlpha"
         in="fbSourceGraphic"
         values="0 0 0 -1 0 0 0 0 -1 0 0 0 0 -1 0 0 0 0 1 0"
         id="feColorMatrix2091-3" /><feGaussianBlur
         id="feGaussianBlur2093-5"
         stdDeviation="1 0.01"
         result="fbSourceGraphic"
         in="fbSourceGraphic" /><feColorMatrix
         result="fbSourceGraphicAlpha"
         in="fbSourceGraphic"
         values="0 0 0 -1 0 0 0 0 -1 0 0 0 0 -1 0 0 0 0 1 0"
         id="feColorMatrix2095-6" /><feGaussianBlur
         id="feGaussianBlur2097-2"
         stdDeviation="1 0.01"
         result="fbSourceGraphic"
         in="fbSourceGraphic" /><feColorMatrix
         result="fbSourceGraphicAlpha"
         in="fbSourceGraphic"
         values="0 0 0 -1 0 0 0 0 -1 0 0 0 0 -1 0 0 0 0 1 0"
         id="feColorMatrix2099-9" /><feGaussianBlur
         id="feGaussianBlur2101-1"
         stdDeviation="1 0.01"
         result="blur"
         in="fbSourceGraphic" /></filter><filter
       style="color-interpolation-filters:sRGB"
       inkscape:label="Blur"
       id="filter3837-2"
       x="-0.11311624"
       y="-0.014644898"
       width="1.2264618"
       height="1.0293772"><feGaussianBlur
         stdDeviation="1 0.01"
         result="blur"
         id="feGaussianBlur3835-7" /></filter><filter
       style="color-interpolation-filters:sRGB"
       inkscape:label="Blur"
       id="filter3841-0"
       x="-0.11334557"
       y="-0.014644898"
       width="1.2264618"
       height="1.0293772"><feGaussianBlur
         stdDeviation="1 0.01"
         result="blur"
         id="feGaussianBlur3839-9" /></filter></defs><g
     inkscape:label="Layer 1"
     inkscape:groupmode="layer"
     id="layer1"><path
       style="color:#000000;-inkscape-font-specification:'Noto Serif CJK SC, Heavy';fill:#ffffff;fill-opacity:0.990385;stroke-linecap:round;stroke-linejoin:round;paint-order:markers stroke fill"
       d="m 49.557962,1.8600435 a 7.9382937,7.9382937 0 0 0 -8.68555,7.9023437 V 11.79559 c -1.41241,-1.100422 -3.06877,-1.732544 -4.33398,-1.8945318 -0.108309,-1.4018327 -0.489267,-3.1906307 -2.101563,-4.8554677 -2.061833,-2.129026 -4.813524,-2.49964 -6.207031,-2.421875 -2.787923,0.155629 -3.184674,0.809669 -3.753906,1.134765 -0.569232,0.325097 -0.922456,0.583631 -1.265625,0.841797 -0.686339,0.516333 -1.278095,1.03338 -1.955078,1.660157 C 5.8757195,20.499153 6.0610035,45.563407 21.378276,60.05145 c 1.307805,1.237015 2.445023,2.234446 3.638672,3.107422 0.596824,0.436488 1.028038,0.832374 2.4375,1.429687 0.70473,0.298657 1.544835,1.036589 4.501953,0.59375 1.478559,-0.221419 3.730606,-1.193415 5.136721,-2.992187 1.02657,-1.313247 1.36681,-2.614503 1.52734,-3.742188 0.29801,-0.0048 0.68152,-0.117323 1.03516,-0.191406 10e-4,0.02624 0.005,0.02606 0.006,0.05273 a 7.9382937,7.9382937 0 0 0 8.67383,7.564453 c 1.35588,-0.127729 2.69856,-0.376053 4.01757,-0.705078 a 7.9382937,7.9382937 0 0 0 7.21094,-0.509766 c 1.30387,-0.898523 2.45218,-1.876552 3.56055,-2.873047 a 7.9382937,7.9382937 0 0 0 10.11524,3.183594 c 0.87881,-0.439408 2.34149,-1.307409 3.59179,-2.736328 l -1.27343,1.169922 c 1.22756,-0.902187 2.14874,-1.710058 3.21289,-2.570313 0.53354,0.734031 0.9304,1.543555 1.53711,2.242188 a 7.9382937,7.9382937 0 0 0 13.47265,-2.550782 c 0.181808,-0.51237 0.185678,-0.573496 0.1211,-0.544922 a 7.9382937,7.9382937 0 0 0 2.953118,-1.470703 c 0.16748,1.116253 0.51201,2.390451 1.51953,3.679688 1.40578,1.798854 3.65781,2.772607 5.13673,2.99414 2.95785,0.443067 3.79719,-0.295008 4.50195,-0.59375 1.40953,-0.597483 1.84082,-0.995175 2.4375,-1.43164 1.19338,-0.87293 2.32913,-1.868659 3.63672,-3.105469 15.31718,-14.487964 15.5046,-39.552218 0.125,-53.7910155 -0.67744,-0.627205 -1.2703,-1.145679 -1.95703,-1.66211 -0.34336,-0.258215 -0.69645,-0.514923 -1.26562,-0.839844 -0.56917,-0.324921 -0.9641,-0.979189 -3.75196,-1.134765 -1.39342,-0.07778 -4.14838,0.292055 -6.21093,2.423828 -1.61064,1.664681 -1.98958,3.451962 -2.09767,4.8535147 -0.20894,0.02673 -0.48095,0.1747048 -0.71289,0.2304688 A 7.9382937,7.9382937 0 0 0 97.55811,9.3951942 C 94.81901,6.8387075 90.923342,3.7330855 90.923342,3.7330855 a 7.9382937,7.9382937 0 0 0 -11.36133,1.46289 l -1.07422,1.455078 h -8.08984 l -6.77735,-2.316406 a 7.9382937,7.9382937 0 0 0 -1.18359,0.173828 7.9382937,7.9382937 0 0 0 -4.29297,-1.835937 z m 5.01172,2.255859 a 7.9382937,7.9382937 0 0 0 -2.89062,1.513672 c 0.0873,-0.0822 0.13327,-0.213278 0.2246,-0.287109 1.32176,-1.068477 2.38995,-1.193435 2.66602,-1.226563 z"
       id="path1778"
       inkscape:export-filename="vibrate.webp"
       inkscape:export-xdpi="112.24937"
       inkscape:export-ydpi="112.24937" /><g
       id="g317"><g
         aria-label="振"
         id="text256"
         style="font-weight:900;font-size:50.8px;line-height:1.25;font-family:'Noto Serif CJK SC';-inkscape-font-specification:'Noto Serif CJK SC, Heavy';stroke:#ffffff;stroke-width:2.64583;stroke-linecap:round;stroke-linejoin:round;paint-order:markers stroke fill;filter:url(#filter2085)"><path
           d="m 85.081528,32.952266 c -0.508,1.8796 -1.7272,5.2324 -2.8956,8.0264 -1.1176,-2.4384 -1.9304,-5.2324 -2.4892,-8.636 h 11.2776 c 0.762,0 1.3208,-0.254 1.4732,-0.8128 -2.286,-2.1336 -6.1976,-5.2324 -6.1976,-5.2324 l -3.4036,4.6228 H 67.911129 c 0.1016,-1.6256 0.1016,-3.2004 0.1016,-4.6736 v -10.3124 h 22.707599 c 0.7112,0 1.27,-0.254 1.4224,-0.8128 -2.286,-2.1336 -6.1976,-5.2831999 -6.1976,-5.2831999 l -3.4544,4.6735999 H 69.079529 l -8.0264,-2.7432 v 9.1948 c -1.524,-1.7272 -3.2004,-3.5052 -3.2004,-3.5052 l -2.3368,3.9116 v -9.4488 c 1.27,-0.1524 1.778,-0.6604 1.8796,-1.4224 l -8.5852,-0.8127999 V 21.877866 h -5.334 l 0.4064,1.4224 h 4.9276 v 9.1948 c -2.54,0.6604 -4.572,1.1176 -5.7912,1.3716 l 2.3876,7.9756 c 0.6604,-0.2032 1.2192,-0.8636 1.4224,-1.524 l 1.9812,-1.3716 v 10.109199 c 0,0.508 -0.2032,0.762 -0.9144,0.762 -0.9652,0 -4.8768,-0.254 -4.8768,-0.254 v 0.7112 c 2.0828,0.4572 2.9972,1.1684 3.6068,2.3368 0.6604,1.1684 0.8636,2.8956 0.9652,5.2832 7.0104,-0.6604 7.9248,-3.3528 7.9248,-8.1788 V 34.019066 c 2.0828,-1.6256 3.7592,-2.9972 5.0292,-4.1148 l -0.1016,-0.4572 c -1.6256,0.4572 -3.302,0.9144 -4.9276,1.3208 v -7.4676 h 5.4864 0.0508 v 2.9464 c 0,10.16 -0.5588,22.047199 -6.4516,31.445199 l 0.4572,0.3556 c 9.8044,-6.7564 12.2428,-16.916399 12.8016,-25.704799 h 1.6764 v 14.9352 c 0,1.117599 -0.4572,1.727199 -3.3528,2.946399 l 3.5052,7.5692 c 0.4064,-0.2032 0.8128,-0.4572 1.1684,-0.8636 4.2164,-3.0988 7.569199,-6.1976 9.143999,-7.7724 l -0.0508,-0.508 c -1.3208,0.2032 -2.6416,0.4572 -3.911599,0.6604 V 32.342666 h 2.844799 c 0.7112,13.0556 2.3876,19.659599 7.4168,25.450799 1.1176,-3.1496 3.2512,-5.08 5.8928,-5.4864 l 0.1016,-0.5588 c -3.7084,-2.2352 -6.9596,-5.029199 -9.2964,-9.245599 2.4892,-1.6764 5.08,-3.7084 6.5024,-4.9784 1.016,0.254 1.6764,-0.1016 1.9304,-0.508 z m -15.239999,-10.3124 0.4064,1.4224 h 18.033999 c 0.762,0 1.3208,-0.254 1.4224,-0.8128 -2.1336,-2.032 -5.7912,-5.08 -5.7912,-5.08 l -3.2512,4.4704 z"
           id="path5058" /></g><path
         style="fill:#000000;stroke:#ffffff;stroke-width:1.32292;stroke-linecap:round;stroke-dasharray:none;stroke-opacity:1;paint-order:markers stroke fill;filter:url(#filter3837)"
         d="m 104.60752,57.153359 c 0,-0.131559 0.53366,-0.8229 1.18592,-1.536314 11.3221,-12.383672 12.10053,-31.00857 1.82541,-43.674979 -1.61377,-1.98934 -0.98264,-1.95413 1.20039,0.067 11.84791,10.969079 11.76014,30.900635 -0.18582,42.199888 -2.28338,2.159781 -4.0259,3.434205 -4.0259,2.944435 z M 97.644608,49.35899 c 8.145362,-8.606709 9.276882,-20.432845 2.875472,-30.053304 -1.407242,-2.11488 -1.147982,-2.24217 0.87048,-0.4274 8.79184,7.904609 7.84804,23.198991 -1.851932,30.011018 -2.20646,1.549538 -3.13359,1.779448 -1.89402,0.469686 z m -7.06001,-6.049907 c 0,-0.155165 0.40304,-0.752967 0.89562,-1.32845 3.73303,-4.361218 4.32369,-10.125658 1.57374,-15.358838 -1.13596,-2.16175 -1.07947,-2.31354 0.47736,-1.28235 4.83568,3.20302 5.45296,10.93613 1.23799,15.508851 -1.48662,1.61279 -4.18471,3.199382 -4.18471,2.460787 z"
         id="path3783"
         sodipodi:nodetypes="ssscssscssscscssss" /><path
         style="fill:#000000;stroke:#ffffff;stroke-width:1.32292;stroke-linecap:round;stroke-dasharray:none;stroke-opacity:1;paint-order:markers stroke fill;filter:url(#filter3841)"
         d="m 30.859145,57.153359 c 0,-0.131558 -0.53366,-0.8229 -1.18592,-1.536314 -11.3221,-12.383672 -12.10053,-31.00857 -1.82541,-43.674979 1.61377,-1.98934 0.98264,-1.95413 -1.20039,0.067 -11.84791,10.969079 -11.76014,30.900635 0.18582,42.199888 2.28338,2.159781 4.0259,3.434205 4.0259,2.944435 z m 6.96291,-7.794369 c -8.14536,-8.606709 -9.27688,-20.432845 -2.87547,-30.053304 1.40724,-2.11488 1.14798,-2.24217 -0.87048,-0.4274 -8.79184,7.904609 -7.84804,23.198991 1.85193,30.011018 2.20646,1.549538 3.13359,1.779448 1.89402,0.469686 z m 7.06001,-6.049907 c 0,-0.155165 -0.40304,-0.752967 -0.89562,-1.32845 -3.73303,-4.361218 -4.32369,-10.125658 -1.57374,-15.358838 1.13596,-2.16175 1.07947,-2.31354 -0.47736,-1.28235 -4.83568,3.20302 -5.45296,10.93613 -1.23799,15.508851 1.48662,1.61279 4.18471,3.199382 4.18471,2.460787 z"
         id="path3783-0"
         sodipodi:nodetypes="ssscssscssscscssss" /></g></g></svg>
