<?xml version="1.0" encoding="UTF-8" standalone="no"?>
<!-- Created with Inkscape (http://www.inkscape.org/) -->

<svg
   xmlns:dc="http://purl.org/dc/elements/1.1/"
   xmlns:cc="http://creativecommons.org/ns#"
   xmlns:rdf="http://www.w3.org/1999/02/22-rdf-syntax-ns#"
   xmlns:svg="http://www.w3.org/2000/svg"
   xmlns="http://www.w3.org/2000/svg"
   xmlns:sodipodi="http://sodipodi.sourceforge.net/DTD/sodipodi-0.dtd"
   xmlns:inkscape="http://www.inkscape.org/namespaces/inkscape"
   width="84.273369"
   height="121.05839"
   id="svg3506"
   version="1.1"
   inkscape:version="0.92.0 r15299"
   sodipodi:docname="blug_jelly.svg"
   inkscape:export-filename="blug_jelly.png"
   inkscape:export-xdpi="300"
   inkscape:export-ydpi="300">
  <defs
     id="defs3508" />
  <sodipodi:namedview
     id="base"
     pagecolor="#ffffff"
     bordercolor="#666666"
     borderopacity="1.0"
     inkscape:pageopacity="1"
     inkscape:pageshadow="2"
     inkscape:zoom="4"
     inkscape:cx="-82.078262"
     inkscape:cy="45.953"
     inkscape:document-units="px"
     inkscape:current-layer="g3044"
     showgrid="false"
     inkscape:window-width="1853"
     inkscape:window-height="1016"
     inkscape:window-x="67"
     inkscape:window-y="27"
     inkscape:window-maximized="1"
     units="cm"
     fit-margin-top="0"
     fit-margin-left="0"
     fit-margin-right="0"
     fit-margin-bottom="0"
     showguides="false" />
  <metadata
     id="metadata3511">
    <rdf:RDF>
      <cc:Work
         rdf:about="">
        <dc:format>image/svg+xml</dc:format>
        <dc:type
           rdf:resource="http://purl.org/dc/dcmitype/StillImage" />
        <dc:title />
      </cc:Work>
    </rdf:RDF>
  </metadata>
  <g
     inkscape:label="Capa 1"
     inkscape:groupmode="layer"
     id="layer1"
     transform="translate(-41.574803,-224.20167)">
    <g
       transform="scale(0.93828297,1.0657766)"
       style="font-style:normal;font-weight:normal;font-size:78.693367px;line-height:125%;font-family:Sans;letter-spacing:120.5385437px;word-spacing:0px;fill:#000000;fill-opacity:1;stroke:none"
       id="text5533" />
    <g
       transform="scale(1.0798269,0.92607437)"
       style="font-style:normal;font-weight:normal;font-size:76.60837555px;line-height:125%;font-family:Sans;letter-spacing:117.34487915px;word-spacing:0px;fill:#000000;fill-opacity:1;stroke:none"
       id="text5566" />
    <g
       transform="scale(1.066197,0.93791298)"
       style="font-style:normal;font-weight:normal;font-size:76.66862488px;line-height:125%;font-family:Sans;letter-spacing:117.43714905px;word-spacing:0px;fill:#000000;fill-opacity:1;stroke:none"
       id="text5574" />
    <g
       transform="scale(1.0201556,0.98024262)"
       style="font-style:normal;font-variant:normal;font-weight:bold;font-stretch:normal;font-size:76.70218658px;line-height:125%;font-family:'Zurich BdXCn BT';-inkscape-font-specification:'Zurich BdXCn BT Bold';letter-spacing:0px;word-spacing:0px;fill:#000000;fill-opacity:1;stroke:none"
       id="text5582" />
    <g
       transform="matrix(0.97659573,0,0,1.0239652,10.666667,-42.666667)"
       style="font-style:normal;font-weight:normal;font-size:80.24633026px;line-height:125%;font-family:Sans;letter-spacing:122.91731262px;word-spacing:0px;fill:#000000;fill-opacity:1;stroke:none"
       id="text5589" />
    <path
       id="path159"
       style="fill:url(#XMLID_29_);stroke:#2c72c7;stroke-width:1.31331897;stroke-linejoin:round"
       d=""
       inkscape:connector-curvature="0" />
    <g
       id="g9312">
      <g
         transform="translate(2.2404241,4.2666667)"
         id="g5922">
        <g
           id="g3044"
           transform="matrix(0.10099867,0,0,0.10099867,-143.10381,223.84062)">
          <path
             style="fill:#ffffff;fill-opacity:1;stroke:#e75625;stroke-width:14.59336472;stroke-linecap:round;stroke-linejoin:bevel;stroke-miterlimit:4;stroke-dashoffset:0;stroke-opacity:1"
             d="m 1906.7852,7.1315084 h 633.5153 c 27.7893,0 50.1613,22.3718946 50.1613,50.1611976 V 1063.9812 c 0,27.7894 -22.372,50.1612 -50.1613,50.1612 h -633.5153 c -27.7894,0 -50.1612,-22.3718 -50.1612,-50.1612 V 57.292706 c 0,-27.789303 22.3718,-50.1611976 50.1612,-50.1611976 z"
             id="rect3261-9-3"
             inkscape:connector-curvature="0" />
          <path
             inkscape:connector-curvature="0"
             style="fill:#e75625;fill-opacity:1;stroke-width:7.4666667;stroke-linecap:round;stroke-linejoin:bevel;stroke-miterlimit:4;stroke-dashoffset:0;stroke-opacity:1"
             d="m 2209.0147,796.73685 c -123.1615,0.11696 -241.6553,13.00301 -352.3907,38.17729 v 229.06376 c 0,27.7892 22.3754,50.1647 50.1647,50.1646 h 633.5083 c 27.7894,0 50.1648,-22.3754 50.1648,-50.1646 V 835.10959 C 2460.779,809.33664 2332.5583,796.61955 2209.0147,796.73685 Z"
             id="path3275-5-0" />
          <g
             transform="translate(1806.1675,49.980748)"
             style="font-style:normal;font-variant:normal;font-weight:normal;font-stretch:normal;font-size:40px;line-height:125%;font-family:Monospace;-inkscape-font-specification:Monospace;letter-spacing:0px;word-spacing:0px;fill:#e75625;fill-opacity:1;stroke:none;font-variant-east_asian:normal;opacity:1;vector-effect:none;stroke-width:7.46666674;stroke-linecap:round;stroke-linejoin:bevel;stroke-miterlimit:4;stroke-dasharray:none;stroke-dashoffset:0;stroke-opacity:1"
             id="flowRoot3073-2-4">
            <path
               d="m 72.58,670.17134 v 48.11733 h 8.528 v -18.72 c 1.247999,0.0693 2.426668,0.13867 3.744,0.13867 10.399989,0 23.15733,-1.59468 23.15733,-15.32267 0,-13.24265 -13.520003,-14.21333 -19.759997,-14.21333 H 72.58 m 8.528,7.83467 h 6.309333 c 6.170661,0 11.856,0.76267 11.856,6.656 0,6.65598 -6.656007,7.28 -13.936,7.28 -1.455999,0 -2.773334,-0.13867 -4.229333,-0.208 v -13.728"
               style="font-weight:bold;font-size:65px;font-family:Cantarell;-inkscape-font-specification:'Cantarell Bold';fill:#e75625;fill-opacity:1;stroke-width:7.46666674;font-variant-east_asian:normal;vector-effect:none;stroke-linecap:round;stroke-linejoin:bevel;stroke-miterlimit:4;stroke-dasharray:none;stroke-dashoffset:0;stroke-opacity:1"
               id="path8692"
               inkscape:connector-curvature="0" />
            <path
               d="m 130.32492,690.69401 c 4.71465,0 8.59733,3.81334 8.59733,10.95466 0,7.14132 -3.81334,10.74667 -8.59733,10.74667 -4.71467,0 -8.59734,-3.67468 -8.59734,-10.74667 0,-7.07199 3.952,-10.95466 8.59734,-10.95466 m 0,28.288 c 10.46932,0 17.19466,-7.00268 17.19466,-17.40267 0,-10.46932 -6.58667,-17.40267 -17.12533,-17.40267 -10.46932,0 -17.19467,7.00268 -17.19467,17.472 0,10.39999 6.65601,17.33334 17.12534,17.33334"
               style="font-weight:bold;font-size:65px;font-family:Cantarell;-inkscape-font-specification:'Cantarell Bold';fill:#e75625;fill-opacity:1;stroke-width:7.46666674;font-variant-east_asian:normal;vector-effect:none;stroke-linecap:round;stroke-linejoin:bevel;stroke-miterlimit:4;stroke-dasharray:none;stroke-dashoffset:0;stroke-opacity:1"
               id="path8694"
               inkscape:connector-curvature="0" />
            <path
               d="m 175.007,684.87001 -6.864,24.61333 -7.55734,-24.61333 h -8.944 l 12.75734,33.41866 h 7.97333 l 6.79467,-23.78133 6.79466,23.78133 h 7.97334 l 12.75733,-33.41866 h -8.944 l -7.55733,24.61333 -6.864,-24.61333 h -8.32"
               style="font-weight:bold;font-size:65px;font-family:Cantarell;-inkscape-font-specification:'Cantarell Bold';fill:#e75625;fill-opacity:1;stroke-width:7.46666674;font-variant-east_asian:normal;vector-effect:none;stroke-linecap:round;stroke-linejoin:bevel;stroke-miterlimit:4;stroke-dasharray:none;stroke-dashoffset:0;stroke-opacity:1"
               id="path8696"
               inkscape:connector-curvature="0" />
            <path
               d="m 226.29633,684.17667 c -8.18132,0 -15.46133,7.00268 -15.46133,17.472 0,10.12266 5.61601,17.472 17.68,17.472 4.43733,0 8.66667,-0.832 11.71733,-2.01066 v -5.89334 c -2.84266,0.55467 -6.032,1.38667 -10.608,1.38667 -5.96266,0 -9.984,-1.664 -10.4,-7.76533 h 22.672 v -3.18934 c 0,-10.33065 -5.13068,-17.472 -15.6,-17.472 m 0.208,6.51734 c 4.02133,0 7.14133,2.91201 7.14133,8.32 H 219.363 c 0.27733,-5.40799 3.74401,-8.32 7.14133,-8.32"
               style="font-weight:bold;font-size:65px;font-family:Cantarell;-inkscape-font-specification:'Cantarell Bold';fill:#e75625;fill-opacity:1;stroke-width:7.46666674;font-variant-east_asian:normal;vector-effect:none;stroke-linecap:round;stroke-linejoin:bevel;stroke-miterlimit:4;stroke-dasharray:none;stroke-dashoffset:0;stroke-opacity:1"
               id="path8698"
               inkscape:connector-curvature="0" />
            <path
               d="m 258.36625,687.15801 -1.10933,-2.288 h -5.824 v 33.41866 h 8.32 v -25.792 c 2.288,-0.69333 4.92266,-1.248 7.62666,-1.248 2.08,0 4.29867,0.34667 6.37867,1.248 h 0.55467 v -7.00266 c -1.94134,-0.90134 -4.02134,-1.31734 -6.10134,-1.31734 -3.46666,0 -7.00266,1.17867 -9.84533,2.98134"
               style="font-weight:bold;font-size:65px;font-family:Cantarell;-inkscape-font-specification:'Cantarell Bold';fill:#e75625;fill-opacity:1;stroke-width:7.46666674;font-variant-east_asian:normal;vector-effect:none;stroke-linecap:round;stroke-linejoin:bevel;stroke-miterlimit:4;stroke-dasharray:none;stroke-dashoffset:0;stroke-opacity:1"
               id="path8700"
               inkscape:connector-curvature="0" />
            <path
               d="m 293.32758,684.17667 c -8.18132,0 -15.46133,7.00268 -15.46133,17.472 0,10.12266 5.61601,17.472 17.68,17.472 4.43733,0 8.66667,-0.832 11.71733,-2.01066 v -5.89334 c -2.84266,0.55467 -6.032,1.38667 -10.608,1.38667 -5.96266,0 -9.984,-1.664 -10.4,-7.76533 h 22.672 v -3.18934 c 0,-10.33065 -5.13067,-17.472 -15.6,-17.472 m 0.208,6.51734 c 4.02134,0 7.14134,2.91201 7.14134,8.32 h -14.28267 c 0.27733,-5.40799 3.744,-8.32 7.14133,-8.32"
               style="font-weight:bold;font-size:65px;font-family:Cantarell;-inkscape-font-specification:'Cantarell Bold';fill:#e75625;fill-opacity:1;stroke-width:7.46666674;font-variant-east_asian:normal;vector-effect:none;stroke-linecap:round;stroke-linejoin:bevel;stroke-miterlimit:4;stroke-dasharray:none;stroke-dashoffset:0;stroke-opacity:1"
               id="path8702"
               inkscape:connector-curvature="0" />
            <path
               d="m 340.9975,670.17134 v 15.46133 c -2.288,-0.90133 -4.99201,-1.456 -7.97333,-1.456 -6.79467,0 -16.29333,4.57601 -16.29333,17.40267 0,10.74665 6.17067,17.40267 17.056,17.40267 3.60532,0 6.656,-1.31734 8.944,-2.496 l 0.624,1.80266 h 5.96266 v -48.11733 h -8.32 m -6.032,20.592 c 1.80266,0 3.81334,0.27733 6.032,1.10933 v 19.06667 c -1.52533,0.90133 -3.39734,1.664 -5.75466,1.664 -5.54667,0 -9.984,-2.70401 -9.984,-10.53867 0,-8.66665 4.16,-11.30133 9.70666,-11.30133"
               style="font-weight:bold;font-size:65px;font-family:Cantarell;-inkscape-font-specification:'Cantarell Bold';fill:#e75625;fill-opacity:1;stroke-width:7.46666674;font-variant-east_asian:normal;vector-effect:none;stroke-linecap:round;stroke-linejoin:bevel;stroke-miterlimit:4;stroke-dasharray:none;stroke-dashoffset:0;stroke-opacity:1"
               id="path8704"
               inkscape:connector-curvature="0" />
            <path
               d="m 376.55792,670.17134 v 48.11733 h 5.96267 l 0.624,-1.80266 c 2.28799,1.17866 5.33866,2.496 8.944,2.496 10.88532,0 17.056,-6.65602 17.056,-17.40267 0,-12.82666 -8.80535,-17.40267 -16.29334,-17.40267 -2.98133,0 -5.68534,0.55467 -7.97333,1.456 v -15.46133 h -8.32 m 14.352,20.592 c 5.54666,0 9.70667,2.63468 9.70667,11.30133 0,7.83466 -4.43735,10.53867 -9.984,10.53867 -2.35734,0 -4.22934,-0.76267 -5.75467,-1.664 v -19.06667 c 2.21866,-0.832 4.22933,-1.10933 6.032,-1.10933"
               style="font-weight:bold;font-size:65px;font-family:Cantarell;-inkscape-font-specification:'Cantarell Bold';fill:#e75625;fill-opacity:1;stroke-width:7.46666674;font-variant-east_asian:normal;vector-effect:none;stroke-linecap:round;stroke-linejoin:bevel;stroke-miterlimit:4;stroke-dasharray:none;stroke-dashoffset:0;stroke-opacity:1"
               id="path8706"
               inkscape:connector-curvature="0" />
            <path
               d="m 411.66875,684.87001 15.11466,33.696 -7.62666,17.68 h 9.36 l 20.45333,-51.376 h -8.80533 l -9.01334,25.65333 -9.91466,-25.65333 h -9.568"
               style="font-weight:bold;font-size:65px;font-family:Cantarell;-inkscape-font-specification:'Cantarell Bold';fill:#e75625;fill-opacity:1;stroke-width:7.46666674;font-variant-east_asian:normal;vector-effect:none;stroke-linecap:round;stroke-linejoin:bevel;stroke-miterlimit:4;stroke-dasharray:none;stroke-dashoffset:0;stroke-opacity:1"
               id="path8708"
               inkscape:connector-curvature="0" />
          </g>
          <text
             xml:space="preserve"
             style="color:#000000;font-style:normal;font-variant:normal;font-weight:500;font-stretch:normal;font-size:264.02987671px;line-height:normal;font-family:'Source Han Sans TW';-inkscape-font-specification:'Source Han Sans TW Medium';text-indent:0;text-align:start;text-decoration:none;text-decoration-line:none;text-decoration-style:solid;text-decoration-color:#000000;letter-spacing:0px;word-spacing:normal;text-transform:none;writing-mode:lr-tb;direction:ltr;baseline-shift:baseline;text-anchor:start;white-space:normal;clip-rule:nonzero;display:inline;overflow:visible;visibility:visible;opacity:1;isolation:auto;mix-blend-mode:normal;color-interpolation:sRGB;color-interpolation-filters:linearRGB;solid-color:#000000;solid-opacity:1;fill:#ffffff;fill-opacity:1;fill-rule:evenodd;stroke:none;stroke-width:1.06666672;stroke-linecap:round;stroke-linejoin:round;stroke-miterlimit:4;stroke-dasharray:none;stroke-dashoffset:0;stroke-opacity:1;marker:none;color-rendering:auto;image-rendering:auto;shape-rendering:auto;text-rendering:auto;enable-background:accumulate"
             x="1926.5044"
             y="1018.681"
             id="text19094"><tspan
               sodipodi:role="line"
               id="tspan19096"
               x="1926.5044"
               y="1018.681"
               style="font-style:normal;font-variant:normal;font-weight:bold;font-stretch:normal;font-size:158.41792297px;line-height:330.03735352px;font-family:Cantarell;-inkscape-font-specification:'Cantarell Bold';fill:#ffffff;fill-opacity:1;stroke-width:1.06666672">Jelly Bai</tspan></text>
          <g
             id="g4519"
             transform="matrix(4.4534653,0,0,4.4534653,1935.0278,88.065496)"
             style="stroke-width:2.22323966">
            <path
               id="path4511"
               d="M 125.74,74.99 C 133.53,45.33 117.01,15.77 87.51,10.36 24.09,-1.31 -3.8,53.67 0.83,94.54 c 0,13.63 28.17,24.69 62.93,24.69 32.58,0 59.37,-9.73 62.59,-22.17 0.22,-0.83 0.33,-1.67 0.33,-2.52 0.01,-6.48 -4.12,-7.46 -0.94,-19.55 z"
               inkscape:connector-curvature="0"
               style="fill:#fcc21b;stroke-width:2.22323966" />
            <path
               id="path4513"
               d="m 31.07,40.17 c 2.28,-4.54 7.2,-6.69 10.99,-4.84 3.78,1.86 5.01,7.03 2.74,11.56 -2.27,4.53 -7.18,6.69 -10.97,4.83 -3.78,-1.86 -5.02,-7.04 -2.76,-11.55 z"
               inkscape:connector-curvature="0"
               style="fill:#2f2f2f;stroke-width:2.22323966" />
            <path
               id="path4515"
               d="m 73.26,76.53 c 0.1,-1.28 -0.68,-2.43 -1.84,-2.84 -0.25,-0.09 -0.51,-0.15 -0.78,-0.17 -18.1,-1.23 -36.02,-5.94 -36.2,-5.99 -1.52,-0.39 -3.05,0.5 -3.46,2.01 -0.38,1.51 0.49,3.06 2.01,3.46 0.75,0.2 18.63,4.89 37.27,6.15 1.56,0.11 2.89,-1.06 3,-2.62 z"
               inkscape:connector-curvature="0"
               style="fill:#2f2f2f;stroke-width:2.22323966" />
            <path
               id="path4517"
               d="m 84.1,52.1 c -1.09,5.07 -5.41,8.47 -9.65,7.59 -4.27,-0.89 -6.84,-5.72 -5.77,-10.79 1.09,-5.08 5.41,-8.48 9.67,-7.59 4.25,0.87 6.83,5.69 5.75,10.79 z"
               inkscape:connector-curvature="0"
               style="fill:#2f2f2f;stroke-width:2.22323966" />
          </g>
        </g>
        <path
           style="fill:none;stroke:#aaaaaa;stroke-width:0.53333336;stroke-linecap:round;stroke-linejoin:bevel;stroke-miterlimit:4;stroke-dashoffset:0;stroke-opacity:1"
           d="m 45.062313,220.20167 h 72.817507 c 3.02553,0 5.46127,2.43573 5.46127,5.46127 v 109.60253 c 0,3.02554 -2.43574,5.46126 -5.46127,5.46126 H 45.062313 c -3.025543,0 -5.461268,-2.43572 -5.461268,-5.46126 V 225.66294 c 0,-3.02554 2.435725,-5.46127 5.461268,-5.46127 z"
           id="rect3261-7"
           inkscape:connector-curvature="0" />
      </g>
    </g>
  </g>
</svg>
