<?xml version="1.0" encoding="UTF-8" standalone="no"?>
<!-- Created with Inkscape (http://www.inkscape.org/) -->

<svg
   xmlns:dc="http://purl.org/dc/elements/1.1/"
   xmlns:cc="http://creativecommons.org/ns#"
   xmlns:rdf="http://www.w3.org/1999/02/22-rdf-syntax-ns#"
   xmlns:svg="http://www.w3.org/2000/svg"
   xmlns="http://www.w3.org/2000/svg"
   xmlns:sodipodi="http://sodipodi.sourceforge.net/DTD/sodipodi-0.dtd"
   xmlns:inkscape="http://www.inkscape.org/namespaces/inkscape"
   width="84.273369"
   height="121.05839"
   id="svg3506"
   version="1.1"
   inkscape:version="0.92.0 r15299"
   sodipodi:docname="blug_aosc.svg"
   inkscape:export-filename="blug_aosc.png"
   inkscape:export-xdpi="300"
   inkscape:export-ydpi="300">
  <defs
     id="defs3508" />
  <sodipodi:namedview
     id="base"
     pagecolor="#ffffff"
     bordercolor="#666666"
     borderopacity="1.0"
     inkscape:pageopacity="1"
     inkscape:pageshadow="2"
     inkscape:zoom="4"
     inkscape:cx="-102.55209"
     inkscape:cy="33.509196"
     inkscape:document-units="px"
     inkscape:current-layer="g3044"
     showgrid="false"
     inkscape:window-width="1853"
     inkscape:window-height="1016"
     inkscape:window-x="67"
     inkscape:window-y="27"
     inkscape:window-maximized="1"
     units="cm"
     fit-margin-top="0"
     fit-margin-left="0"
     fit-margin-right="0"
     fit-margin-bottom="0" />
  <metadata
     id="metadata3511">
    <rdf:RDF>
      <cc:Work
         rdf:about="">
        <dc:format>image/svg+xml</dc:format>
        <dc:type
           rdf:resource="http://purl.org/dc/dcmitype/StillImage" />
        <dc:title />
      </cc:Work>
    </rdf:RDF>
  </metadata>
  <g
     inkscape:label="Capa 1"
     inkscape:groupmode="layer"
     id="layer1"
     transform="translate(-41.574803,-224.20167)">
    <g
       transform="scale(0.93828297,1.0657766)"
       style="font-style:normal;font-weight:normal;font-size:78.693367px;line-height:125%;font-family:Sans;letter-spacing:120.5385437px;word-spacing:0px;fill:#000000;fill-opacity:1;stroke:none"
       id="text5533" />
    <g
       transform="scale(1.0798269,0.92607437)"
       style="font-style:normal;font-weight:normal;font-size:76.60837555px;line-height:125%;font-family:Sans;letter-spacing:117.34487915px;word-spacing:0px;fill:#000000;fill-opacity:1;stroke:none"
       id="text5566" />
    <g
       transform="scale(1.066197,0.93791298)"
       style="font-style:normal;font-weight:normal;font-size:76.66862488px;line-height:125%;font-family:Sans;letter-spacing:117.43714905px;word-spacing:0px;fill:#000000;fill-opacity:1;stroke:none"
       id="text5574" />
    <g
       transform="scale(1.0201556,0.98024262)"
       style="font-style:normal;font-variant:normal;font-weight:bold;font-stretch:normal;font-size:76.70218658px;line-height:125%;font-family:'Zurich BdXCn BT';-inkscape-font-specification:'Zurich BdXCn BT Bold';letter-spacing:0px;word-spacing:0px;fill:#000000;fill-opacity:1;stroke:none"
       id="text5582" />
    <g
       transform="matrix(0.97659573,0,0,1.0239652,10.666667,-42.666667)"
       style="font-style:normal;font-weight:normal;font-size:80.24633026px;line-height:125%;font-family:Sans;letter-spacing:122.91731262px;word-spacing:0px;fill:#000000;fill-opacity:1;stroke:none"
       id="text5589" />
    <path
       id="path159"
       style="fill:url(#XMLID_29_);stroke:#2c72c7;stroke-width:1.31331897;stroke-linejoin:round"
       d=""
       inkscape:connector-curvature="0" />
    <g
       id="g9312">
      <g
         transform="translate(2.2404241,4.2666667)"
         id="g5922">
        <g
           id="g3044"
           transform="matrix(0.10099867,0,0,0.10099867,-143.10381,223.84062)">
          <path
             style="fill:#ffffff;fill-opacity:1;stroke:#3f5172;stroke-width:14.59336472;stroke-linecap:round;stroke-linejoin:bevel;stroke-miterlimit:4;stroke-dashoffset:0;stroke-opacity:1"
             d="m 1906.7852,7.1315084 h 633.5153 c 27.7893,0 50.1613,22.3718946 50.1613,50.1611976 V 1063.9812 c 0,27.7894 -22.372,50.1612 -50.1613,50.1612 h -633.5153 c -27.7894,0 -50.1612,-22.3718 -50.1612,-50.1612 V 57.292706 c 0,-27.789303 22.3718,-50.1611976 50.1612,-50.1611976 z"
             id="rect3261-9-3"
             inkscape:connector-curvature="0" />
          <path
             inkscape:connector-curvature="0"
             style="fill:#3f5172;fill-opacity:1;stroke-width:7.4666667;stroke-linecap:round;stroke-linejoin:bevel;stroke-miterlimit:4;stroke-dashoffset:0;stroke-opacity:1"
             d="m 2209.0147,796.73685 c -123.1615,0.11696 -241.6553,13.00301 -352.3907,38.17729 v 229.06376 c 0,27.7892 22.3754,50.1647 50.1647,50.1646 h 633.5083 c 27.7894,0 50.1648,-22.3754 50.1648,-50.1646 V 835.10959 C 2460.779,809.33664 2332.5583,796.61955 2209.0147,796.73685 Z"
             id="path3275-5-0" />
          <g
             transform="translate(1806.1675,49.980748)"
             style="font-style:normal;font-variant:normal;font-weight:normal;font-stretch:normal;font-size:40px;line-height:125%;font-family:Monospace;-inkscape-font-specification:Monospace;letter-spacing:0px;word-spacing:0px;fill:#3f5172;fill-opacity:1;stroke:none"
             id="flowRoot3073-2-4">
            <path
               d="m 72.58,670.17134 v 48.11733 h 8.528 v -18.72 c 1.247999,0.0693 2.426668,0.13867 3.744,0.13867 10.399989,0 23.15733,-1.59468 23.15733,-15.32267 0,-13.24265 -13.520003,-14.21333 -19.759997,-14.21333 H 72.58 m 8.528,7.83467 h 6.309333 c 6.170661,0 11.856,0.76267 11.856,6.656 0,6.65598 -6.656007,7.28 -13.936,7.28 -1.455999,0 -2.773334,-0.13867 -4.229333,-0.208 v -13.728"
               style="font-weight:bold;font-size:65px;font-family:Cantarell;-inkscape-font-specification:'Cantarell Bold';fill:#3f5172;fill-opacity:1;stroke-width:1.06666672"
               id="path8692"
               inkscape:connector-curvature="0" />
            <path
               d="m 130.32492,690.69401 c 4.71465,0 8.59733,3.81334 8.59733,10.95466 0,7.14132 -3.81334,10.74667 -8.59733,10.74667 -4.71467,0 -8.59734,-3.67468 -8.59734,-10.74667 0,-7.07199 3.952,-10.95466 8.59734,-10.95466 m 0,28.288 c 10.46932,0 17.19466,-7.00268 17.19466,-17.40267 0,-10.46932 -6.58667,-17.40267 -17.12533,-17.40267 -10.46932,0 -17.19467,7.00268 -17.19467,17.472 0,10.39999 6.65601,17.33334 17.12534,17.33334"
               style="font-weight:bold;font-size:65px;font-family:Cantarell;-inkscape-font-specification:'Cantarell Bold';fill:#3f5172;fill-opacity:1;stroke-width:1.06666672"
               id="path8694"
               inkscape:connector-curvature="0" />
            <path
               d="m 175.007,684.87001 -6.864,24.61333 -7.55734,-24.61333 h -8.944 l 12.75734,33.41866 h 7.97333 l 6.79467,-23.78133 6.79466,23.78133 h 7.97334 l 12.75733,-33.41866 h -8.944 l -7.55733,24.61333 -6.864,-24.61333 h -8.32"
               style="font-weight:bold;font-size:65px;font-family:Cantarell;-inkscape-font-specification:'Cantarell Bold';fill:#3f5172;fill-opacity:1;stroke-width:1.06666672"
               id="path8696"
               inkscape:connector-curvature="0" />
            <path
               d="m 226.29633,684.17667 c -8.18132,0 -15.46133,7.00268 -15.46133,17.472 0,10.12266 5.61601,17.472 17.68,17.472 4.43733,0 8.66667,-0.832 11.71733,-2.01066 v -5.89334 c -2.84266,0.55467 -6.032,1.38667 -10.608,1.38667 -5.96266,0 -9.984,-1.664 -10.4,-7.76533 h 22.672 v -3.18934 c 0,-10.33065 -5.13068,-17.472 -15.6,-17.472 m 0.208,6.51734 c 4.02133,0 7.14133,2.91201 7.14133,8.32 H 219.363 c 0.27733,-5.40799 3.74401,-8.32 7.14133,-8.32"
               style="font-weight:bold;font-size:65px;font-family:Cantarell;-inkscape-font-specification:'Cantarell Bold';fill:#3f5172;fill-opacity:1;stroke-width:1.06666672"
               id="path8698"
               inkscape:connector-curvature="0" />
            <path
               d="m 258.36625,687.15801 -1.10933,-2.288 h -5.824 v 33.41866 h 8.32 v -25.792 c 2.288,-0.69333 4.92266,-1.248 7.62666,-1.248 2.08,0 4.29867,0.34667 6.37867,1.248 h 0.55467 v -7.00266 c -1.94134,-0.90134 -4.02134,-1.31734 -6.10134,-1.31734 -3.46666,0 -7.00266,1.17867 -9.84533,2.98134"
               style="font-weight:bold;font-size:65px;font-family:Cantarell;-inkscape-font-specification:'Cantarell Bold';fill:#3f5172;fill-opacity:1;stroke-width:1.06666672"
               id="path8700"
               inkscape:connector-curvature="0" />
            <path
               d="m 293.32758,684.17667 c -8.18132,0 -15.46133,7.00268 -15.46133,17.472 0,10.12266 5.61601,17.472 17.68,17.472 4.43733,0 8.66667,-0.832 11.71733,-2.01066 v -5.89334 c -2.84266,0.55467 -6.032,1.38667 -10.608,1.38667 -5.96266,0 -9.984,-1.664 -10.4,-7.76533 h 22.672 v -3.18934 c 0,-10.33065 -5.13067,-17.472 -15.6,-17.472 m 0.208,6.51734 c 4.02134,0 7.14134,2.91201 7.14134,8.32 h -14.28267 c 0.27733,-5.40799 3.744,-8.32 7.14133,-8.32"
               style="font-weight:bold;font-size:65px;font-family:Cantarell;-inkscape-font-specification:'Cantarell Bold';fill:#3f5172;fill-opacity:1;stroke-width:1.06666672"
               id="path8702"
               inkscape:connector-curvature="0" />
            <path
               d="m 340.9975,670.17134 v 15.46133 c -2.288,-0.90133 -4.99201,-1.456 -7.97333,-1.456 -6.79467,0 -16.29333,4.57601 -16.29333,17.40267 0,10.74665 6.17067,17.40267 17.056,17.40267 3.60532,0 6.656,-1.31734 8.944,-2.496 l 0.624,1.80266 h 5.96266 v -48.11733 h -8.32 m -6.032,20.592 c 1.80266,0 3.81334,0.27733 6.032,1.10933 v 19.06667 c -1.52533,0.90133 -3.39734,1.664 -5.75466,1.664 -5.54667,0 -9.984,-2.70401 -9.984,-10.53867 0,-8.66665 4.16,-11.30133 9.70666,-11.30133"
               style="font-weight:bold;font-size:65px;font-family:Cantarell;-inkscape-font-specification:'Cantarell Bold';fill:#3f5172;fill-opacity:1;stroke-width:1.06666672"
               id="path8704"
               inkscape:connector-curvature="0" />
            <path
               d="m 376.55792,670.17134 v 48.11733 h 5.96267 l 0.624,-1.80266 c 2.28799,1.17866 5.33866,2.496 8.944,2.496 10.88532,0 17.056,-6.65602 17.056,-17.40267 0,-12.82666 -8.80535,-17.40267 -16.29334,-17.40267 -2.98133,0 -5.68534,0.55467 -7.97333,1.456 v -15.46133 h -8.32 m 14.352,20.592 c 5.54666,0 9.70667,2.63468 9.70667,11.30133 0,7.83466 -4.43735,10.53867 -9.984,10.53867 -2.35734,0 -4.22934,-0.76267 -5.75467,-1.664 v -19.06667 c 2.21866,-0.832 4.22933,-1.10933 6.032,-1.10933"
               style="font-weight:bold;font-size:65px;font-family:Cantarell;-inkscape-font-specification:'Cantarell Bold';fill:#3f5172;fill-opacity:1;stroke-width:1.06666672"
               id="path8706"
               inkscape:connector-curvature="0" />
            <path
               d="m 411.66875,684.87001 15.11466,33.696 -7.62666,17.68 h 9.36 l 20.45333,-51.376 h -8.80533 l -9.01334,25.65333 -9.91466,-25.65333 h -9.568"
               style="font-weight:bold;font-size:65px;font-family:Cantarell;-inkscape-font-specification:'Cantarell Bold';fill:#3f5172;fill-opacity:1;stroke-width:1.06666672"
               id="path8708"
               inkscape:connector-curvature="0" />
          </g>
          <g
             id="g20378"
             transform="matrix(1.0944726,0,0,1.0944726,1928.1865,81.224514)">
            <g
               inkscape:label="Circle"
               id="layer2-36">
              <circle
                 id="path3558"
                 style="fill:#000000;fill-opacity:1;stroke:none;stroke-width:1.11934161"
                 cx="266.66666"
                 cy="266.66666"
                 r="259.04764" />
            </g>
            <g
               transform="translate(0,-589.18633)"
               id="layer1-6-7"
               inkscape:label="Next">
              <path
                 inkscape:connector-curvature="0"
                 id="path2996"
                 d="m 266.66667,664.86506 c -3.12096,0 -6.21254,0.0671 -9.29678,0.21545 l 6.44934,97.70871 c 0.75824,-0.0179 1.52509,-0.0241 2.28768,-0.0241 51.92075,0 94.01432,41.43394 94.01432,92.53714 0,14.49556 -3.38124,28.22389 -9.41848,40.43857 l 86.90786,45.01161 c 12.70187,-25.57579 19.85912,-54.39922 19.85912,-84.89953 0,-105.48164 -85.42544,-190.98799 -190.80306,-190.98799 z m -14.67529,0.55067 c -0.17128,0.0129 -0.33992,0.0345 -0.51108,0.0478 l 0.0242,0.2873 0.60843,-0.33517 c -0.0402,0.003 -0.0816,-0.003 -0.12165,0 z m -153.299552,99.7677 c -14.565232,26.97648 -22.828219,57.85296 -22.828219,90.66964 0,105.48162 85.425451,190.98793 190.803061,190.98793 5.34468,0 10.63433,-0.215 15.8678,-0.6465 l -6.52233,-98.85779 c -3.25488,0.33547 -6.56015,0.5028 -9.90523,0.5028 -51.92073,0 -94.01431,-41.43395 -94.01431,-92.53712 0,-16.63129 4.46147,-32.24171 12.26592,-45.72986 z"
                 style="fill:#dedede;fill-opacity:1;stroke:none;stroke-width:1.06666672" />
            </g>
          </g>
          <text
             xml:space="preserve"
             style="color:#000000;font-style:normal;font-variant:normal;font-weight:500;font-stretch:normal;font-size:264.02987671px;line-height:normal;font-family:'Source Han Sans TW';-inkscape-font-specification:'Source Han Sans TW Medium';text-indent:0;text-align:start;text-decoration:none;text-decoration-line:none;text-decoration-style:solid;text-decoration-color:#000000;letter-spacing:0px;word-spacing:normal;text-transform:none;writing-mode:lr-tb;direction:ltr;baseline-shift:baseline;text-anchor:start;white-space:normal;clip-rule:nonzero;display:inline;overflow:visible;visibility:visible;opacity:1;isolation:auto;mix-blend-mode:normal;color-interpolation:sRGB;color-interpolation-filters:linearRGB;solid-color:#000000;solid-opacity:1;fill:#3f5172;fill-opacity:1;fill-rule:evenodd;stroke:none;stroke-width:1.06666672;stroke-linecap:round;stroke-linejoin:round;stroke-miterlimit:4;stroke-dasharray:none;stroke-dashoffset:0;stroke-opacity:1;marker:none;color-rendering:auto;image-rendering:auto;shape-rendering:auto;text-rendering:auto;enable-background:accumulate"
             x="2001.8361"
             y="1018.681"
             id="text19094"><tspan
               sodipodi:role="line"
               id="tspan19096"
               x="2001.8361"
               y="1018.681"
               style="font-size:171.61941528px;fill:#ffffff;fill-opacity:1;stroke-width:1.06666672">AOSC</tspan></text>
        </g>
        <path
           style="fill:none;stroke:#aaaaaa;stroke-width:0.53333336;stroke-linecap:round;stroke-linejoin:bevel;stroke-miterlimit:4;stroke-dashoffset:0;stroke-opacity:1"
           d="m 45.062313,220.20167 h 72.817507 c 3.02553,0 5.46127,2.43573 5.46127,5.46127 v 109.60253 c 0,3.02554 -2.43574,5.46126 -5.46127,5.46126 H 45.062313 c -3.025543,0 -5.461268,-2.43572 -5.461268,-5.46126 V 225.66294 c 0,-3.02554 2.435725,-5.46127 5.461268,-5.46127 z"
           id="rect3261-7"
           inkscape:connector-curvature="0" />
      </g>
    </g>
  </g>
</svg>
