<?xml version="1.0" encoding="UTF-8" standalone="no"?>
<!-- Created with Inkscape (http://www.inkscape.org/) -->

<svg
   xmlns:dc="http://purl.org/dc/elements/1.1/"
   xmlns:cc="http://creativecommons.org/ns#"
   xmlns:rdf="http://www.w3.org/1999/02/22-rdf-syntax-ns#"
   xmlns:svg="http://www.w3.org/2000/svg"
   xmlns="http://www.w3.org/2000/svg"
   xmlns:sodipodi="http://sodipodi.sourceforge.net/DTD/sodipodi-0.dtd"
   xmlns:inkscape="http://www.inkscape.org/namespaces/inkscape"
   width="22.486914mm"
   height="29.115892mm"
   viewBox="0 0 79.678041 103.16655"
   id="svg13217"
   version="1.1"
   inkscape:version="0.92.0 r15299"
   sodipodi:docname="tuna_jelly.svg"
   inkscape:export-filename="tuna_jelly.png"
   inkscape:export-xdpi="93.988739"
   inkscape:export-ydpi="93.988739">
  <defs
     id="defs13219" />
  <sodipodi:namedview
     id="base"
     pagecolor="#ffffff"
     bordercolor="#666666"
     borderopacity="1.0"
     inkscape:pageopacity="1"
     inkscape:pageshadow="2"
     inkscape:zoom="3.7099183"
     inkscape:cx="-100.24176"
     inkscape:cy="42.028453"
     inkscape:document-units="px"
     inkscape:current-layer="layer1"
     showgrid="false"
     showguides="true"
     inkscape:guide-bbox="true"
     inkscape:window-width="1853"
     inkscape:window-height="1016"
     inkscape:window-x="67"
     inkscape:window-y="27"
     inkscape:window-maximized="1"
     units="px"
     fit-margin-top="0"
     fit-margin-left="0"
     fit-margin-right="0"
     fit-margin-bottom="0" />
  <metadata
     id="metadata13222">
    <rdf:RDF>
      <cc:Work
         rdf:about="">
        <dc:format>image/svg+xml</dc:format>
        <dc:type
           rdf:resource="http://purl.org/dc/dcmitype/StillImage" />
        <dc:title />
      </cc:Work>
    </rdf:RDF>
  </metadata>
  <g
     inkscape:label="Layer 1"
     inkscape:groupmode="layer"
     id="layer1"
     transform="translate(-20.882929,-414.51107)">
    <path
       inkscape:connector-curvature="0"
       id="path12710-5-3"
       style="font-style:normal;font-variant:normal;font-weight:bold;font-stretch:normal;font-size:65px;line-height:125%;font-family:Cantarell;-inkscape-font-specification:'Cantarell Bold';letter-spacing:0px;word-spacing:0px;fill:#e75625;fill-opacity:1;stroke:none;font-variant-east_asian:normal;opacity:1;vector-effect:none;stroke-width:7;stroke-linecap:round;stroke-linejoin:bevel;stroke-miterlimit:4;stroke-dasharray:none;stroke-dashoffset:0;stroke-opacity:1"
       d="m 45.828376,478.61256 0,3.72583 0.66035,0 0,-1.44953 c 0.0966,0.005 0.1879,0.0107 0.2899,0.0107 0.8053,0 1.79313,-0.12348 1.79313,-1.18647 0,-1.02541 -1.04689,-1.10057 -1.53006,-1.10057 l -1.21332,0 m 0.66035,0.60665 0.48854,0 c 0.47781,0 0.91804,0.059 0.91804,0.51539 0,0.51539 -0.51539,0.56371 -1.0791,0.56371 -0.11274,0 -0.21474,-0.0108 -0.32748,-0.0161 l 0,-1.06299" />
    <path
       inkscape:connector-curvature="0"
       id="path12712-6-6"
       style="font-style:normal;font-variant:normal;font-weight:bold;font-stretch:normal;font-size:65px;line-height:125%;font-family:Cantarell;-inkscape-font-specification:'Cantarell Bold';letter-spacing:0px;word-spacing:0px;fill:#e75625;fill-opacity:1;stroke:none;font-variant-east_asian:normal;opacity:1;vector-effect:none;stroke-width:7;stroke-linecap:round;stroke-linejoin:bevel;stroke-miterlimit:4;stroke-dasharray:none;stroke-dashoffset:0;stroke-opacity:1"
       d="m 50.299706,480.20168 c 0.36507,0 0.66571,0.29527 0.66571,0.84824 0,0.55297 -0.29527,0.83214 -0.66571,0.83214 -0.36507,0 -0.66571,-0.28453 -0.66571,-0.83214 0,-0.5476 0.30601,-0.84824 0.66571,-0.84824 m 0,2.1904 c 0.81067,0 1.33143,-0.54224 1.33143,-1.34752 0,-0.81067 -0.51003,-1.34754 -1.32606,-1.34754 -0.81067,0 -1.33142,0.54224 -1.33142,1.3529 0,0.8053 0.51539,1.34216 1.32605,1.34216" />
    <path
       inkscape:connector-curvature="0"
       id="path12714-4-9"
       style="font-style:normal;font-variant:normal;font-weight:bold;font-stretch:normal;font-size:65px;line-height:125%;font-family:Cantarell;-inkscape-font-specification:'Cantarell Bold';letter-spacing:0px;word-spacing:0px;fill:#e75625;fill-opacity:1;stroke:none;font-variant-east_asian:normal;opacity:1;vector-effect:none;stroke-width:7;stroke-linecap:round;stroke-linejoin:bevel;stroke-miterlimit:4;stroke-dasharray:none;stroke-dashoffset:0;stroke-opacity:1"
       d="m 53.759546,479.75071 -0.53149,1.90586 -0.58519,-1.90586 -0.69255,0 0.98783,2.58768 0.61739,0 0.52613,-1.84144 0.52613,1.84144 0.61739,0 0.98784,-2.58768 -0.69256,0 -0.58518,1.90586 -0.5315,-1.90586 -0.64424,0" />
    <path
       inkscape:connector-curvature="0"
       id="path12716-4-4"
       style="font-style:normal;font-variant:normal;font-weight:bold;font-stretch:normal;font-size:65px;line-height:125%;font-family:Cantarell;-inkscape-font-specification:'Cantarell Bold';letter-spacing:0px;word-spacing:0px;fill:#e75625;fill-opacity:1;stroke:none;font-variant-east_asian:normal;opacity:1;vector-effect:none;stroke-width:7;stroke-linecap:round;stroke-linejoin:bevel;stroke-miterlimit:4;stroke-dasharray:none;stroke-dashoffset:0;stroke-opacity:1"
       d="m 57.731006,479.69702 c -0.6335,0 -1.19721,0.54224 -1.19721,1.3529 0,0.78382 0.43486,1.3529 1.36901,1.3529 0.34359,0 0.67108,-0.0645 0.9073,-0.15569 l 0,-0.45633 c -0.22012,0.043 -0.46707,0.10737 -0.8214,0.10737 -0.46171,0 -0.77309,-0.12885 -0.8053,-0.60129 l 1.75555,0 0,-0.24696 c 0,-0.79993 -0.39729,-1.3529 -1.20795,-1.3529 m 0.0161,0.50466 c 0.31138,0 0.55297,0.22548 0.55297,0.64423 l -1.10594,0 c 0.0215,-0.41875 0.28991,-0.64423 0.55297,-0.64423" />
    <path
       inkscape:connector-curvature="0"
       id="path12718-4-9"
       style="font-style:normal;font-variant:normal;font-weight:bold;font-stretch:normal;font-size:65px;line-height:125%;font-family:Cantarell;-inkscape-font-specification:'Cantarell Bold';letter-spacing:0px;word-spacing:0px;fill:#e75625;fill-opacity:1;stroke:none;font-variant-east_asian:normal;opacity:1;vector-effect:none;stroke-width:7;stroke-linecap:round;stroke-linejoin:bevel;stroke-miterlimit:4;stroke-dasharray:none;stroke-dashoffset:0;stroke-opacity:1"
       d="m 60.214256,479.92787 -0.0859,-0.17716 -0.45097,0 0,2.58768 0.64424,0 0,-1.99713 c 0.17717,-0.0537 0.38118,-0.0966 0.59055,-0.0966 0.16106,0 0.33286,0.0268 0.49392,0.0966 l 0.043,0 0,-0.54224 c -0.15032,-0.0698 -0.31138,-0.10201 -0.47244,-0.10201 -0.26844,0 -0.54224,0.0913 -0.76235,0.23085" />
    <path
       inkscape:connector-curvature="0"
       id="path12720-2-1"
       style="font-style:normal;font-variant:normal;font-weight:bold;font-stretch:normal;font-size:65px;line-height:125%;font-family:Cantarell;-inkscape-font-specification:'Cantarell Bold';letter-spacing:0px;word-spacing:0px;fill:#e75625;fill-opacity:1;stroke:none;font-variant-east_asian:normal;opacity:1;vector-effect:none;stroke-width:7;stroke-linecap:round;stroke-linejoin:bevel;stroke-miterlimit:4;stroke-dasharray:none;stroke-dashoffset:0;stroke-opacity:1"
       d="m 62.921396,479.69702 c -0.6335,0 -1.19721,0.54224 -1.19721,1.3529 0,0.78382 0.43486,1.3529 1.36901,1.3529 0.34359,0 0.67108,-0.0645 0.9073,-0.15569 l 0,-0.45633 c -0.22011,0.043 -0.46707,0.10737 -0.8214,0.10737 -0.46171,0 -0.77309,-0.12885 -0.8053,-0.60129 l 1.75555,0 0,-0.24696 c 0,-0.79993 -0.39728,-1.3529 -1.20795,-1.3529 m 0.0161,0.50466 c 0.31138,0 0.55297,0.22548 0.55297,0.64423 l -1.10594,0 c 0.0215,-0.41875 0.28991,-0.64423 0.55297,-0.64423" />
    <path
       inkscape:connector-curvature="0"
       id="path12722-3-0"
       style="font-style:normal;font-variant:normal;font-weight:bold;font-stretch:normal;font-size:65px;line-height:125%;font-family:Cantarell;-inkscape-font-specification:'Cantarell Bold';letter-spacing:0px;word-spacing:0px;fill:#e75625;fill-opacity:1;stroke:none;font-variant-east_asian:normal;opacity:1;vector-effect:none;stroke-width:7;stroke-linecap:round;stroke-linejoin:bevel;stroke-miterlimit:4;stroke-dasharray:none;stroke-dashoffset:0;stroke-opacity:1"
       d="m 66.612596,478.61256 0,1.1972 c -0.17717,-0.0698 -0.38654,-0.11274 -0.61739,-0.11274 -0.52613,0 -1.26164,0.35433 -1.26164,1.34754 0,0.83213 0.47781,1.34752 1.32069,1.34752 0.27917,0 0.51539,-0.10201 0.69256,-0.19327 l 0.0483,0.13958 0.4617,0 0,-3.72583 -0.64424,0 m -0.46707,1.59449 c 0.13958,0 0.29527,0.0215 0.46707,0.0859 l 0,1.47638 c -0.11811,0.0698 -0.26306,0.12885 -0.4456,0.12885 -0.42949,0 -0.77308,-0.20939 -0.77308,-0.81603 0,-0.67109 0.32212,-0.87509 0.75161,-0.87509" />
    <path
       inkscape:connector-curvature="0"
       id="path12724-4-4"
       style="font-style:normal;font-variant:normal;font-weight:bold;font-stretch:normal;font-size:65px;line-height:125%;font-family:Cantarell;-inkscape-font-specification:'Cantarell Bold';letter-spacing:0px;word-spacing:0px;fill:#e75625;fill-opacity:1;stroke:none;font-variant-east_asian:normal;opacity:1;vector-effect:none;stroke-width:7;stroke-linecap:round;stroke-linejoin:bevel;stroke-miterlimit:4;stroke-dasharray:none;stroke-dashoffset:0;stroke-opacity:1"
       d="m 69.366126,478.61256 0,3.72583 0.4617,0 0.0483,-0.13958 c 0.17717,0.0913 0.41339,0.19327 0.69256,0.19327 0.84287,0 1.32069,-0.51539 1.32069,-1.34752 0,-0.99321 -0.68182,-1.34754 -1.26164,-1.34754 -0.23085,0 -0.44023,0.043 -0.61739,0.11274 l 0,-1.1972 -0.64424,0 m 1.11131,1.59449 c 0.42949,0 0.75161,0.204 0.75161,0.87509 0,0.60664 -0.34359,0.81603 -0.77308,0.81603 -0.18254,0 -0.32749,-0.059 -0.4456,-0.12885 l 0,-1.47638 c 0.1718,-0.0645 0.32749,-0.0859 0.46707,-0.0859" />
    <path
       inkscape:connector-curvature="0"
       id="path12726-6-1"
       style="font-style:normal;font-variant:normal;font-weight:bold;font-stretch:normal;font-size:65px;line-height:125%;font-family:Cantarell;-inkscape-font-specification:'Cantarell Bold';letter-spacing:0px;word-spacing:0px;fill:#e75625;fill-opacity:1;stroke:none;font-variant-east_asian:normal;opacity:1;vector-effect:none;stroke-width:7;stroke-linecap:round;stroke-linejoin:bevel;stroke-miterlimit:4;stroke-dasharray:none;stroke-dashoffset:0;stroke-opacity:1"
       d="m 72.084846,479.75071 1.17036,2.60916 -0.59055,1.369 0.72477,0 1.58375,-3.97816 -0.68182,0 -0.69792,1.9864 -0.76772,-1.9864 -0.74087,0" />
    <path
       sodipodi:nodetypes="csssscc"
       inkscape:connector-curvature="0"
       style="fill:#e75625;fill-opacity:1;stroke-width:7;stroke-linecap:round;stroke-linejoin:bevel;stroke-miterlimit:4;stroke-dashoffset:0;stroke-opacity:1"
       d="m 20.882933,485.4564 0,27.10727 c 0,2.83293 2.42946,5.11396 5.44675,5.11395 l 68.78454,0 c 3.01728,0 5.446747,-2.28102 5.446747,-5.11395 l 0,-27.08734 z"
       id="path111814" />
    <path
       inkscape:connector-curvature="0"
       id="path10786"
       d="m 89.042476,431.84094 0,71.97636 c 0,8.83616 -58.54794,8.83616 -58.54794,0 l 0,-71.99949 c 0,-10.01244 58.54794,-10.01244 58.54794,0.0231 z"
       style="fill:none;stroke:#aaaaaa;stroke-width:0.47527105;stroke-linecap:round;stroke-linejoin:bevel;stroke-miterlimit:4;stroke-dasharray:none;stroke-dashoffset:0;stroke-opacity:1"
       sodipodi:nodetypes="cccssc" />
    <text
       xml:space="preserve"
       style="color:#000000;font-style:normal;font-variant:normal;font-weight:500;font-stretch:normal;font-size:25px;line-height:normal;font-family:'Source Han Sans TW';-inkscape-font-specification:'Source Han Sans TW Medium';text-indent:0;text-align:start;text-decoration:none;text-decoration-line:none;text-decoration-style:solid;text-decoration-color:#000000;letter-spacing:0px;word-spacing:normal;text-transform:none;writing-mode:lr-tb;direction:ltr;baseline-shift:baseline;text-anchor:start;white-space:normal;clip-rule:nonzero;display:inline;overflow:visible;visibility:visible;opacity:1;isolation:auto;mix-blend-mode:normal;color-interpolation:sRGB;color-interpolation-filters:linearRGB;solid-color:#000000;solid-opacity:1;fill:#3f5172;fill-opacity:1;fill-rule:evenodd;stroke:none;stroke-width:1;stroke-linecap:round;stroke-linejoin:round;stroke-miterlimit:4;stroke-dasharray:none;stroke-dashoffset:0;stroke-opacity:1;marker:none;color-rendering:auto;image-rendering:auto;shape-rendering:auto;text-rendering:auto;enable-background:accumulate"
       x="36.330616"
       y="500.77032"
       id="text19094"><tspan
         sodipodi:role="line"
         id="tspan19096"
         x="36.330616"
         y="500.77032"
         style="font-style:normal;font-variant:normal;font-weight:bold;font-stretch:normal;font-size:12.5px;font-family:Cantarell;-inkscape-font-specification:'Cantarell Bold';fill:#ffffff;fill-opacity:1">Jelly Bai</tspan></text>
    <g
       id="g4508"
       transform="matrix(0.34376614,0,0,0.34376614,37.767764,431.09153)"
       style="stroke-width:2.72714472">
      <path
         id="path4500"
         d="M 125.74,74.99 C 133.53,45.33 117.01,15.77 87.51,10.36 24.09,-1.31 -3.8,53.67 0.83,94.54 c 0,13.63 28.17,24.69 62.93,24.69 32.58,0 59.37,-9.73 62.59,-22.17 0.22,-0.83 0.33,-1.67 0.33,-2.52 0.01,-6.48 -4.12,-7.46 -0.94,-19.55 z"
         inkscape:connector-curvature="0"
         style="fill:#fcc21b;stroke-width:2.72714472" />
      <path
         id="path4502"
         d="m 31.07,40.17 c 2.28,-4.54 7.2,-6.69 10.99,-4.84 3.78,1.86 5.01,7.03 2.74,11.56 -2.27,4.53 -7.18,6.69 -10.97,4.83 -3.78,-1.86 -5.02,-7.04 -2.76,-11.55 z"
         inkscape:connector-curvature="0"
         style="fill:#2f2f2f;stroke-width:2.72714472" />
      <path
         id="path4504"
         d="m 73.26,76.53 c 0.1,-1.28 -0.68,-2.43 -1.84,-2.84 -0.25,-0.09 -0.51,-0.15 -0.78,-0.17 -18.1,-1.23 -36.02,-5.94 -36.2,-5.99 -1.52,-0.39 -3.05,0.5 -3.46,2.01 -0.38,1.51 0.49,3.06 2.01,3.46 0.75,0.2 18.63,4.89 37.27,6.15 1.56,0.11 2.89,-1.06 3,-2.62 z"
         inkscape:connector-curvature="0"
         style="fill:#2f2f2f;stroke-width:2.72714472" />
      <path
         id="path4506"
         d="m 84.1,52.1 c -1.09,5.07 -5.41,8.47 -9.65,7.59 -4.27,-0.89 -6.84,-5.72 -5.77,-10.79 1.09,-5.08 5.41,-8.48 9.67,-7.59 4.25,0.87 6.83,5.69 5.75,10.79 z"
         inkscape:connector-curvature="0"
         style="fill:#2f2f2f;stroke-width:2.72714472" />
    </g>
  </g>
</svg>
