<?xml version="1.0" encoding="UTF-8" standalone="no"?>
<!-- Created with Inkscape (http://www.inkscape.org/) -->

<svg
   xmlns:dc="http://purl.org/dc/elements/1.1/"
   xmlns:cc="http://creativecommons.org/ns#"
   xmlns:rdf="http://www.w3.org/1999/02/22-rdf-syntax-ns#"
   xmlns:svg="http://www.w3.org/2000/svg"
   xmlns="http://www.w3.org/2000/svg"
   xmlns:sodipodi="http://sodipodi.sourceforge.net/DTD/sodipodi-0.dtd"
   xmlns:inkscape="http://www.inkscape.org/namespaces/inkscape"
   width="22.486914mm"
   height="29.115892mm"
   viewBox="0 0 79.678041 103.16655"
   id="svg13217"
   version="1.1"
   inkscape:version="0.92.0 r15299"
   sodipodi:docname="tuna_aosc.svg"
   inkscape:export-filename="tuna_aosc.png"
   inkscape:export-xdpi="93.988739"
   inkscape:export-ydpi="93.988739">
  <defs
     id="defs13219" />
  <sodipodi:namedview
     id="base"
     pagecolor="#ffffff"
     bordercolor="#666666"
     borderopacity="1.0"
     inkscape:pageopacity="1"
     inkscape:pageshadow="2"
     inkscape:zoom="4"
     inkscape:cx="20.583659"
     inkscape:cy="65.963114"
     inkscape:document-units="px"
     inkscape:current-layer="layer1"
     showgrid="false"
     showguides="true"
     inkscape:guide-bbox="true"
     inkscape:window-width="1853"
     inkscape:window-height="1016"
     inkscape:window-x="67"
     inkscape:window-y="27"
     inkscape:window-maximized="1"
     units="px"
     fit-margin-top="0"
     fit-margin-left="0"
     fit-margin-right="0"
     fit-margin-bottom="0" />
  <metadata
     id="metadata13222">
    <rdf:RDF>
      <cc:Work
         rdf:about="">
        <dc:format>image/svg+xml</dc:format>
        <dc:type
           rdf:resource="http://purl.org/dc/dcmitype/StillImage" />
        <dc:title />
      </cc:Work>
    </rdf:RDF>
  </metadata>
  <g
     inkscape:label="Layer 1"
     inkscape:groupmode="layer"
     id="layer1"
     transform="translate(-20.882929,-414.51107)">
    <path
       inkscape:connector-curvature="0"
       id="path12710-5-3"
       style="font-style:normal;font-variant:normal;font-weight:bold;font-stretch:normal;font-size:65px;line-height:125%;font-family:Cantarell;-inkscape-font-specification:'Cantarell Bold';letter-spacing:0px;word-spacing:0px;fill:#2f4b68;fill-opacity:1;stroke:none"
       d="m 45.828376,478.61256 0,3.72583 0.66035,0 0,-1.44953 c 0.0966,0.005 0.1879,0.0107 0.2899,0.0107 0.8053,0 1.79313,-0.12348 1.79313,-1.18647 0,-1.02541 -1.04689,-1.10057 -1.53006,-1.10057 l -1.21332,0 m 0.66035,0.60665 0.48854,0 c 0.47781,0 0.91804,0.059 0.91804,0.51539 0,0.51539 -0.51539,0.56371 -1.0791,0.56371 -0.11274,0 -0.21474,-0.0108 -0.32748,-0.0161 l 0,-1.06299" />
    <path
       inkscape:connector-curvature="0"
       id="path12712-6-6"
       style="font-style:normal;font-variant:normal;font-weight:bold;font-stretch:normal;font-size:65px;line-height:125%;font-family:Cantarell;-inkscape-font-specification:'Cantarell Bold';letter-spacing:0px;word-spacing:0px;fill:#2f4b68;fill-opacity:1;stroke:none"
       d="m 50.299706,480.20168 c 0.36507,0 0.66571,0.29527 0.66571,0.84824 0,0.55297 -0.29527,0.83214 -0.66571,0.83214 -0.36507,0 -0.66571,-0.28453 -0.66571,-0.83214 0,-0.5476 0.30601,-0.84824 0.66571,-0.84824 m 0,2.1904 c 0.81067,0 1.33143,-0.54224 1.33143,-1.34752 0,-0.81067 -0.51003,-1.34754 -1.32606,-1.34754 -0.81067,0 -1.33142,0.54224 -1.33142,1.3529 0,0.8053 0.51539,1.34216 1.32605,1.34216" />
    <path
       inkscape:connector-curvature="0"
       id="path12714-4-9"
       style="font-style:normal;font-variant:normal;font-weight:bold;font-stretch:normal;font-size:65px;line-height:125%;font-family:Cantarell;-inkscape-font-specification:'Cantarell Bold';letter-spacing:0px;word-spacing:0px;fill:#2f4b68;fill-opacity:1;stroke:none"
       d="m 53.759546,479.75071 -0.53149,1.90586 -0.58519,-1.90586 -0.69255,0 0.98783,2.58768 0.61739,0 0.52613,-1.84144 0.52613,1.84144 0.61739,0 0.98784,-2.58768 -0.69256,0 -0.58518,1.90586 -0.5315,-1.90586 -0.64424,0" />
    <path
       inkscape:connector-curvature="0"
       id="path12716-4-4"
       style="font-style:normal;font-variant:normal;font-weight:bold;font-stretch:normal;font-size:65px;line-height:125%;font-family:Cantarell;-inkscape-font-specification:'Cantarell Bold';letter-spacing:0px;word-spacing:0px;fill:#2f4b68;fill-opacity:1;stroke:none"
       d="m 57.731006,479.69702 c -0.6335,0 -1.19721,0.54224 -1.19721,1.3529 0,0.78382 0.43486,1.3529 1.36901,1.3529 0.34359,0 0.67108,-0.0645 0.9073,-0.15569 l 0,-0.45633 c -0.22012,0.043 -0.46707,0.10737 -0.8214,0.10737 -0.46171,0 -0.77309,-0.12885 -0.8053,-0.60129 l 1.75555,0 0,-0.24696 c 0,-0.79993 -0.39729,-1.3529 -1.20795,-1.3529 m 0.0161,0.50466 c 0.31138,0 0.55297,0.22548 0.55297,0.64423 l -1.10594,0 c 0.0215,-0.41875 0.28991,-0.64423 0.55297,-0.64423" />
    <path
       inkscape:connector-curvature="0"
       id="path12718-4-9"
       style="font-style:normal;font-variant:normal;font-weight:bold;font-stretch:normal;font-size:65px;line-height:125%;font-family:Cantarell;-inkscape-font-specification:'Cantarell Bold';letter-spacing:0px;word-spacing:0px;fill:#2f4b68;fill-opacity:1;stroke:none"
       d="m 60.214256,479.92787 -0.0859,-0.17716 -0.45097,0 0,2.58768 0.64424,0 0,-1.99713 c 0.17717,-0.0537 0.38118,-0.0966 0.59055,-0.0966 0.16106,0 0.33286,0.0268 0.49392,0.0966 l 0.043,0 0,-0.54224 c -0.15032,-0.0698 -0.31138,-0.10201 -0.47244,-0.10201 -0.26844,0 -0.54224,0.0913 -0.76235,0.23085" />
    <path
       inkscape:connector-curvature="0"
       id="path12720-2-1"
       style="font-style:normal;font-variant:normal;font-weight:bold;font-stretch:normal;font-size:65px;line-height:125%;font-family:Cantarell;-inkscape-font-specification:'Cantarell Bold';letter-spacing:0px;word-spacing:0px;fill:#2f4b68;fill-opacity:1;stroke:none"
       d="m 62.921396,479.69702 c -0.6335,0 -1.19721,0.54224 -1.19721,1.3529 0,0.78382 0.43486,1.3529 1.36901,1.3529 0.34359,0 0.67108,-0.0645 0.9073,-0.15569 l 0,-0.45633 c -0.22011,0.043 -0.46707,0.10737 -0.8214,0.10737 -0.46171,0 -0.77309,-0.12885 -0.8053,-0.60129 l 1.75555,0 0,-0.24696 c 0,-0.79993 -0.39728,-1.3529 -1.20795,-1.3529 m 0.0161,0.50466 c 0.31138,0 0.55297,0.22548 0.55297,0.64423 l -1.10594,0 c 0.0215,-0.41875 0.28991,-0.64423 0.55297,-0.64423" />
    <path
       inkscape:connector-curvature="0"
       id="path12722-3-0"
       style="font-style:normal;font-variant:normal;font-weight:bold;font-stretch:normal;font-size:65px;line-height:125%;font-family:Cantarell;-inkscape-font-specification:'Cantarell Bold';letter-spacing:0px;word-spacing:0px;fill:#2f4b68;fill-opacity:1;stroke:none"
       d="m 66.612596,478.61256 0,1.1972 c -0.17717,-0.0698 -0.38654,-0.11274 -0.61739,-0.11274 -0.52613,0 -1.26164,0.35433 -1.26164,1.34754 0,0.83213 0.47781,1.34752 1.32069,1.34752 0.27917,0 0.51539,-0.10201 0.69256,-0.19327 l 0.0483,0.13958 0.4617,0 0,-3.72583 -0.64424,0 m -0.46707,1.59449 c 0.13958,0 0.29527,0.0215 0.46707,0.0859 l 0,1.47638 c -0.11811,0.0698 -0.26306,0.12885 -0.4456,0.12885 -0.42949,0 -0.77308,-0.20939 -0.77308,-0.81603 0,-0.67109 0.32212,-0.87509 0.75161,-0.87509" />
    <path
       inkscape:connector-curvature="0"
       id="path12724-4-4"
       style="font-style:normal;font-variant:normal;font-weight:bold;font-stretch:normal;font-size:65px;line-height:125%;font-family:Cantarell;-inkscape-font-specification:'Cantarell Bold';letter-spacing:0px;word-spacing:0px;fill:#2f4b68;fill-opacity:1;stroke:none"
       d="m 69.366126,478.61256 0,3.72583 0.4617,0 0.0483,-0.13958 c 0.17717,0.0913 0.41339,0.19327 0.69256,0.19327 0.84287,0 1.32069,-0.51539 1.32069,-1.34752 0,-0.99321 -0.68182,-1.34754 -1.26164,-1.34754 -0.23085,0 -0.44023,0.043 -0.61739,0.11274 l 0,-1.1972 -0.64424,0 m 1.11131,1.59449 c 0.42949,0 0.75161,0.204 0.75161,0.87509 0,0.60664 -0.34359,0.81603 -0.77308,0.81603 -0.18254,0 -0.32749,-0.059 -0.4456,-0.12885 l 0,-1.47638 c 0.1718,-0.0645 0.32749,-0.0859 0.46707,-0.0859" />
    <path
       inkscape:connector-curvature="0"
       id="path12726-6-1"
       style="font-style:normal;font-variant:normal;font-weight:bold;font-stretch:normal;font-size:65px;line-height:125%;font-family:Cantarell;-inkscape-font-specification:'Cantarell Bold';letter-spacing:0px;word-spacing:0px;fill:#2f4b68;fill-opacity:1;stroke:none"
       d="m 72.084846,479.75071 1.17036,2.60916 -0.59055,1.369 0.72477,0 1.58375,-3.97816 -0.68182,0 -0.69792,1.9864 -0.76772,-1.9864 -0.74087,0" />
    <path
       sodipodi:nodetypes="csssscc"
       inkscape:connector-curvature="0"
       style="fill:#3f5172;fill-opacity:1;stroke-width:7;stroke-linecap:round;stroke-linejoin:bevel;stroke-miterlimit:4;stroke-dashoffset:0;stroke-opacity:1"
       d="m 20.882933,485.4564 0,27.10727 c 0,2.83293 2.42946,5.11396 5.44675,5.11395 l 68.78454,0 c 3.01728,0 5.446747,-2.28102 5.446747,-5.11395 l 0,-27.08734 z"
       id="path111814" />
    <path
       inkscape:connector-curvature="0"
       id="path10786"
       d="m 89.042476,431.84094 0,71.97636 c 0,8.83616 -58.54794,8.83616 -58.54794,0 l 0,-71.99949 c 0,-10.01244 58.54794,-10.01244 58.54794,0.0231 z"
       style="fill:none;stroke:#aaaaaa;stroke-width:0.47527105;stroke-linecap:round;stroke-linejoin:bevel;stroke-miterlimit:4;stroke-dasharray:none;stroke-dashoffset:0;stroke-opacity:1"
       sodipodi:nodetypes="cccssc" />
    <text
       xml:space="preserve"
       style="color:#000000;font-style:normal;font-variant:normal;font-weight:500;font-stretch:normal;font-size:25px;line-height:normal;font-family:'Source Han Sans TW';-inkscape-font-specification:'Source Han Sans TW Medium';text-indent:0;text-align:start;text-decoration:none;text-decoration-line:none;text-decoration-style:solid;text-decoration-color:#000000;letter-spacing:0px;word-spacing:normal;text-transform:none;direction:ltr;block-progression:tb;writing-mode:lr-tb;baseline-shift:baseline;text-anchor:start;white-space:normal;clip-rule:nonzero;display:inline;overflow:visible;visibility:visible;opacity:1;isolation:auto;mix-blend-mode:normal;color-interpolation:sRGB;color-interpolation-filters:linearRGB;solid-color:#000000;solid-opacity:1;fill:#3f5172;fill-opacity:1;fill-rule:evenodd;stroke:none;stroke-width:1;stroke-linecap:round;stroke-linejoin:round;stroke-miterlimit:4;stroke-dasharray:none;stroke-dashoffset:0;stroke-opacity:1;marker:none;color-rendering:auto;image-rendering:auto;shape-rendering:auto;text-rendering:auto;enable-background:accumulate"
       x="40.390736"
       y="502.64532"
       id="text19094"><tspan
         sodipodi:role="line"
         id="tspan19096"
         x="40.390736"
         y="502.64532"
         style="font-size:15px;fill:#ffffff;fill-opacity:1">AOSC</tspan></text>
    <g
       id="g20378"
       transform="matrix(0.0901147,0,0,0.0901147,37.239831,430.56362)">
      <g
         inkscape:label="Circle"
         id="layer2">
        <circle
           id="path3558"
           style="fill:#000000;fill-opacity:1;stroke:none"
           transform="matrix(1.0493828,0,0,1.0493828,-81.30515,-76.807773)"
           cx="315.71429"
           cy="311.42856"
           r="231.42857" />
      </g>
      <g
         transform="translate(0,-552.36218)"
         id="layer1-6"
         inkscape:label="Next">
        <path
           inkscape:connector-curvature="0"
           id="path2996"
           d="m 250,623.31099 c -2.9259,0 -5.82425,0.0629 -8.71573,0.20199 l 6.04626,91.60191 c 0.71085,-0.0168 1.42977,-0.0226 2.1447,-0.0226 48.6757,0 88.13842,38.84432 88.13842,86.75357 0,13.58959 -3.16991,26.4599 -8.82982,37.91116 l 81.47612,42.19838 c 11.908,-23.9773 18.61792,-50.99927 18.61792,-79.59331 0,-98.88903 -80.08635,-179.05124 -178.87787,-179.05124 z m -13.75808,0.51626 c -0.16058,0.0121 -0.31868,0.0323 -0.47914,0.0448 l 0.0227,0.26934 0.5704,-0.31422 c -0.0377,0.003 -0.0765,-0.003 -0.11405,0 z M 92.523589,717.35947 c -13.654905,25.29045 -21.401456,54.23715 -21.401456,85.00278 0,98.88902 80.086357,179.05123 178.877867,179.05123 5.01064,0 9.96969,-0.20161 14.87607,-0.60613 l -6.11469,-92.67918 c -3.05145,0.3145 -6.15014,0.47137 -9.28615,0.47137 -48.67569,0 -88.13842,-38.84433 -88.13842,-86.75355 0,-15.59183 4.18263,-30.2266 11.4993,-42.87174 L 92.523589,717.35947 Z"
           style="fill:#dedede;fill-opacity:1;stroke:none" />
      </g>
    </g>
  </g>
</svg>
