<?xml version="1.0" encoding="UTF-8" standalone="no"?>
<!-- Created with Inkscape (http://www.inkscape.org/) -->

<svg
   width="512"
   height="512"
   viewBox="0 0 135.46666 135.46667"
   version="1.1"
   id="svg5"
   inkscape:version="1.1 (c68e22c387, 2021-05-23)"
   sodipodi:docname="bark-only.svg"
   xmlns:inkscape="http://www.inkscape.org/namespaces/inkscape"
   xmlns:sodipodi="http://sodipodi.sourceforge.net/DTD/sodipodi-0.dtd"
   xmlns="http://www.w3.org/2000/svg"
   xmlns:svg="http://www.w3.org/2000/svg">
  <sodipodi:namedview
     id="namedview7"
     pagecolor="#505050"
     bordercolor="#ffffff"
     borderopacity="1"
     inkscape:pageshadow="0"
     inkscape:pageopacity="0"
     inkscape:pagecheckerboard="1"
     inkscape:document-units="mm"
     showgrid="false"
     units="px"
     inkscape:zoom="1"
     inkscape:cx="224.5"
     inkscape:cy="140.5"
     inkscape:window-width="1920"
     inkscape:window-height="1009"
     inkscape:window-x="-8"
     inkscape:window-y="-8"
     inkscape:window-maximized="1"
     inkscape:current-layer="layer1" />
  <defs
     id="defs2" />
  <g
     inkscape:label="Layer 1"
     inkscape:groupmode="layer"
     id="layer1">
    <path
       style="fill:#ffffff;fill-opacity:1;stroke:#000000;stroke-width:3.70036;stroke-linecap:butt;stroke-linejoin:miter;stroke-miterlimit:4;stroke-dasharray:none;stroke-opacity:1"
       d="m 86.815882,116.65983 c -0.247056,5.06885 -7.20209,5.701 -11.541996,6.18321 C 50.531209,125.59223 27.453637,117.16956 13.441765,94.400267 -34.407874,16.644601 121.07251,-19.483091 130.51058,46.583425 c 1.23807,8.666481 0.74426,22.767976 -5.35878,30.091631 -7.69886,9.238633 -16.74108,16.656902 -26.381707,23.083994 -5.982298,3.9882 22.072787,12.9783 15.251927,15.25192 -7.45154,2.48385 -19.248108,2.78572 -27.206138,1.64886 z"
       id="path9170" />
    <path
       style="fill:#000000;stroke-width:0.172008"
       d="m 27.345666,86.685336 c -0.828908,-0.295624 -1.305459,-0.71836 -1.60341,-1.422343 -0.328142,-0.775271 -0.29275,-1.3672 0.134489,-2.249823 0.59749,-1.234286 3.172428,-2.739122 8.285078,-4.841951 3.564603,-1.46612 5.037239,-2.240302 6.755941,-3.551671 0.819969,-0.625631 1.7494,-1.245538 2.065393,-1.377569 1.24774,-0.521343 2.883534,-0.07884 3.677275,0.994749 0.540017,0.730434 0.654921,1.975705 0.274222,2.972505 -0.524351,1.372999 -3.107859,3.486023 -6.09661,4.986338 -1.712139,0.859481 -9.964466,4.160305 -11.204304,4.481578 -1.195854,0.309876 -1.439745,0.310748 -2.288116,0.008 z m 24.307474,-0.54554 c -2.447758,-0.480119 -3.341657,-0.999488 -3.540021,-2.056786 -0.140398,-0.747713 0.343928,-1.731914 1.026115,-2.085755 0.621178,-0.322195 1.164505,-0.434653 8.14839,-1.68655 6.038508,-1.082432 6.878549,-1.202784 15.608481,-2.236186 8.326705,-0.985674 10.840022,-1.182761 13.5026,-1.058848 3.52129,0.163876 5.536013,0.72648 6.848805,1.912521 0.880449,0.795428 1.23555,1.561556 1.23555,2.665648 0,1.903171 -1.289508,3.27661 -3.076392,3.27661 -0.9853,0 -1.572875,-0.189262 -2.440789,-0.786206 -1.329857,-0.914654 -5.327858,-0.969747 -12.323445,-0.16982 -2.102104,0.24037 -5.507857,0.593003 -7.568353,0.783629 -2.060477,0.190626 -5.793293,0.580688 -8.295155,0.866802 -4.41933,0.505396 -8.249928,0.746732 -9.125786,0.574938 z M 68.230525,76.685164 C 67.34457,76.248107 66.801852,75.535039 66.26468,74.102273 65.596126,72.319032 65.309367,70.747795 65.050158,67.447691 l -0.213337,-2.716098 -0.442562,0.08968 c -3.438929,0.696789 -5.856619,0.542526 -6.981915,-0.445493 -1.063475,-0.933737 -1.195163,-2.367866 -0.313617,-3.415509 0.573618,-0.681702 1.150469,-0.971177 2.211037,-1.109541 0.471775,-0.06155 1.989432,-0.35581 3.372558,-0.653915 l 2.514821,-0.542009 0.119035,-3.361913 c 0.100154,-2.827067 0.07638,-3.481651 -0.149734,-4.114569 -0.429394,-1.202639 -0.35579,-2.024875 0.23406,-2.614722 0.935648,-0.935655 2.206102,-0.536703 3.378977,1.061078 0.870739,1.186184 1.379915,2.777556 1.728578,5.402441 0.163334,1.229856 0.348233,2.296738 0.410825,2.370853 0.06257,0.07411 1.785463,-0.03227 3.828629,-0.236403 2.043147,-0.204135 3.992779,-0.319008 4.332521,-0.255275 0.695169,0.130398 1.706148,0.938717 2.081201,1.663974 0.395182,0.764218 0.318592,2.156509 -0.163947,2.979882 -0.689985,1.177342 -1.474483,1.49256 -4.118655,1.654898 -1.244368,0.0764 -3.055894,0.194991 -4.02559,0.263535 l -1.763073,0.124629 -8.2e-5,0.705177 c -1.61e-4,1.865551 0.570185,5.753017 1.048949,7.148966 0.281539,0.820915 0.499202,1.818365 0.499202,2.287643 0,1.235253 -0.706789,2.436297 -1.75454,2.981435 -0.610634,0.317709 -1.978277,0.301593 -2.653028,-0.03127 z M 37.806533,63.595759 c -0.283814,-0.151779 -1.019147,-0.715698 -1.634088,-1.253132 -0.614921,-0.537434 -2.046886,-1.666111 -3.182137,-2.50817 -1.135248,-0.84206 -2.431747,-1.89684 -2.881135,-2.343955 -0.712435,-0.708869 -0.817023,-0.904166 -0.817023,-1.525618 0,-0.91432 0.428176,-1.630922 1.190693,-1.992761 0.820416,-0.38931 1.467333,-0.199665 4.524325,1.326355 3.513304,1.753801 5.76796,3.386358 6.421115,4.64939 0.914478,1.768426 -0.36849,3.947681 -2.31414,3.930755 -0.43537,-0.0038 -1.023799,-0.13108 -1.30761,-0.282864 z M 52.412587,48.33233 c -1.239429,-0.539652 -1.639916,-1.915934 -0.883943,-3.037728 0.822915,-1.221119 7.116568,-3.732673 12.25104,-4.888923 3.727474,-0.839397 5.534146,-1.017263 10.40648,-1.024498 4.398934,-0.0065 4.583383,0.0066 5.279261,0.37866 2.013813,1.076434 2.366009,3.614407 0.714735,5.150363 -0.728834,0.677937 -1.21739,0.742489 -5.619229,0.742489 -5.578961,0 -9.836538,0.530988 -15.163847,1.891171 -1.455289,0.371568 -5.358821,1.036554 -6.023861,1.026194 -0.236517,-0.0037 -0.668797,-0.110661 -0.960636,-0.237728 z M 39.3005,48.143717 c -0.313575,-0.136202 -1.31982,-0.951128 -2.236107,-1.810946 -1.410816,-1.32386 -3.178581,-2.634198 -5.415357,-4.014051 -1.544719,-0.952934 -1.523956,-3.505801 0.03514,-4.312008 1.873773,-0.968964 6.678375,1.050696 10.08868,4.240878 0.623207,0.582971 1.282255,1.352314 1.46455,1.709656 0.772652,1.514534 0.138143,3.389281 -1.423086,4.204927 -0.592025,0.309293 -1.779265,0.300577 -2.513744,-0.0185 z"
       id="path862"
       sodipodi:nodetypes="csssssssssccscsssssssssssssssscssssscscsssssssssscsssssssssssssscssssssssssssssssssss" />
  </g>
</svg>
