<?xml version="1.0" encoding="UTF-8" standalone="no"?>
<!-- Created with Inkscape (http://www.inkscape.org/) -->

<svg
   width="512"
   height="512"
   viewBox="0 0 135.46666 135.46667"
   version="1.1"
   id="svg5"
   inkscape:version="1.1 (c68e22c387, 2021-05-23)"
   sodipodi:docname="bark.svg"
   xmlns:inkscape="http://www.inkscape.org/namespaces/inkscape"
   xmlns:sodipodi="http://sodipodi.sourceforge.net/DTD/sodipodi-0.dtd"
   xmlns="http://www.w3.org/2000/svg"
   xmlns:svg="http://www.w3.org/2000/svg">
  <sodipodi:namedview
     id="namedview7"
     pagecolor="#505050"
     bordercolor="#ffffff"
     borderopacity="1"
     inkscape:pageshadow="0"
     inkscape:pageopacity="0"
     inkscape:pagecheckerboard="1"
     inkscape:document-units="mm"
     showgrid="false"
     units="px"
     inkscape:zoom="1"
     inkscape:cx="171.5"
     inkscape:cy="360.5"
     inkscape:window-width="1920"
     inkscape:window-height="1009"
     inkscape:window-x="-8"
     inkscape:window-y="-8"
     inkscape:window-maximized="1"
     inkscape:current-layer="layer1" />
  <defs
     id="defs2" />
  <g
     inkscape:label="Layer 1"
     inkscape:groupmode="layer"
     id="layer1">
    <rect
       style="fill:#ffffff;fill-opacity:1;stroke:none;stroke-width:1.27199;stroke-linecap:square;stroke-miterlimit:4;stroke-dasharray:none;stroke-opacity:1"
       id="rect8675"
       width="135.46666"
       height="135.46666"
       x="3.5603841e-06"
       y="3.5603841e-06" />
    <g
       id="g8651"
       transform="matrix(0.42194732,0,0,0.42194732,81.82016,71.875838)">
      <g
         id="g3623"
         transform="translate(4.630072,-4.924679)">
        <path
           style="color:#000000;fill:#bd350b;-inkscape-stroke:none"
           d="M -24.597656,-22.011719 C 1.392718,-2.9749618 -15.151766,19.50227 2.4003906,37.816406 9.5629225,44.94104 22.731955,49.069003 46.373047,49.408203 l 0.02148,-1.587891 C 22.930788,47.483657 10.205718,43.342216 3.5195313,36.691406 -12.58672,19.64943 2.4845442,-4.0133975 -24.597656,-22.011719 Z"
           id="path2996"
           sodipodi:nodetypes="cccccc" />
        <path
           style="color:#000000;fill:#bd350b;-inkscape-stroke:none"
           d="m -9.0788116,-27.730207 c 23.5797086,21.9521067 4.5145032,42.335037 19.7988736,62.580378 6.278005,7.915108 18.87237,13.558286 42.310719,16.666354 l 0.207464,-1.574426 C 29.975728,46.857347 17.823844,41.252826 11.96336,33.864112 -2.0341957,15.05165 15.706921,-6.6813926 -9.0788116,-27.730207 Z"
           id="path2996-5"
           sodipodi:nodetypes="cccccc" />
      </g>
      <path
         style="fill:#bd350b;stroke-width:0.264583"
         d="m 78.558964,101.55457 c 0.610336,-0.26423 1.108689,-0.92247 2.072638,-2.737594 1.515163,-2.853066 3.3479,-4.986382 5.555694,-6.466861 0.89226,-0.598324 1.660838,-1.117897 1.707949,-1.154605 0.266724,-0.207833 -2.097651,-4.083553 -2.491557,-4.084196 -0.622533,-0.0011 -4.059021,2.680116 -5.681964,4.433044 -1.809377,1.954295 -4.106768,5.702152 -4.376892,7.140266 -0.220935,1.176223 0.05665,2.106376 0.761146,2.550526 0.960101,0.60531 1.600123,0.68865 2.452986,0.31942 z m -9.29613,-7.062277 c 0.388797,-0.305827 1.04721,-1.230196 1.463143,-2.054154 1.855092,-3.674917 5.431394,-7.124272 9.476841,-9.140444 1.055026,-0.525804 1.918229,-1.047247 1.918229,-1.158761 0,-0.111514 -0.768919,-0.964841 -1.708711,-1.896277 -1.989743,-1.972059 -1.735227,-1.99049 -5.302747,0.384045 -4.490763,2.989046 -9.630664,9.447224 -9.651482,12.126887 -0.0079,1.017738 1.282827,2.294752 2.319406,2.294752 0.428131,0 1.096526,-0.250222 1.485321,-0.556048 z m -9.856346,-8.048049 c 0.385585,-0.209455 1.11877,-0.948827 1.629299,-1.643052 1.286666,-1.749631 4.41153,-4.713507 6.909015,-6.553076 2.236679,-1.647467 6.21751,-3.832833 7.958537,-4.369017 0.582083,-0.179263 1.151363,-0.410535 1.265068,-0.513937 0.113705,-0.103402 -1.081413,-0.85729 -2.655819,-1.675307 l -2.862556,-1.487302 -1.702401,0.943551 c -4.946912,2.741814 -10.153486,7.135242 -13.064421,11.024066 -1.443228,1.928056 -1.248222,3.566105 0.512093,4.301612 1.083117,0.452554 1.128525,0.451932 2.011185,-0.02754 z"
         id="path2047"
         sodipodi:nodetypes="sssscssssssssssssssssssscsssss" />
      <path
         style="fill:#fdcaba;stroke-width:0.264583"
         d="m 76.155807,129.80955 c 1.375785,-0.35741 2.556684,-0.70508 2.624224,-0.77262 0.06754,-0.0675 -0.248179,-0.63938 -0.701593,-1.27074 -1.171138,-1.63078 -2.577015,-4.52338 -3.144618,-6.47006 -0.421409,-1.44529 -0.555725,-1.64525 -1.014857,-1.51087 -1.550514,0.45382 -4.275719,0.9437 -4.672544,0.83993 -0.352973,-0.0923 -0.4029,-0.0215 -0.222292,0.31508 0.128108,0.23876 0.478155,1.26755 0.777885,2.2862 0.570812,1.93993 3.131831,7.05671 3.587785,7.1682 0.145521,0.0356 1.390226,-0.22772 2.76601,-0.58512 z m 21.526052,-11.1321 c -0.318775,0.19701 -3.610835,-1.6482 -6.065007,-3.39946 -0.981167,-0.70015 -2.71544,-2.20449 -3.853936,-3.34299 -2.075194,-2.07519 -2.599159,-2.41248 -2.599159,-1.67312 -2.23741,3.55554 -2.41844,3.05963 -2.730189,3.79783 l 2.310774,2.32461 c 2.39676,2.41111 6.99515,5.57351 8.005255,5.7674 1.706155,-0.59966 4.172603,-2.75784 4.932262,-3.47427 z m 10.204481,-16.51597 c 1.92123,-0.22288 2.26298,-0.0366 2.63014,-0.97805 0.36716,-0.9415 0.86538,-3.211769 1.48492,-4.522705 0.19416,-0.311158 -0.0234,-0.34122 -1.33036,-0.183827 -0.85935,0.103489 -2.51496,0.299746 -3.67913,0.436128 -4.51257,0.528643 -12.786397,0.160721 -17.544431,-0.780169 -1.000919,-0.197929 -1.117505,-0.172892 -0.954053,0.204896 1.310175,3.853427 -1.828035,4.741837 1.652164,5.305887 5.033394,0.81579 13.13421,1.05225 17.74077,0.51784 z M 88.867922,87.773122 c 7.838673,-2.16748 15.143958,-5.895838 21.642728,-11.045688 1.33857,-1.060723 2.11226,-1.215649 1.92897,-1.328928 -0.20133,-1.729316 -1.07889,-4.314772 -1.24075,-5.90922 0.25203,-0.656765 -0.1233,-0.403633 -2.05093,1.383204 -4.11516,3.814586 -10.066656,7.480676 -15.967971,9.836182 -3.786116,1.511226 -9.378024,2.886175 -10.416658,2.964144 -0.447229,0.03357 -0.312371,0.296023 -0.312371,0.296023 1.283878,0.856584 2.225475,4.423757 3.638857,4.443857 0.291042,-0.0097 1.541198,-0.29755 2.778125,-0.639574 z m -8.58266,-9.402686 c 7.780772,-2.467457 17.714601,-16.309785 19.117252,-26.639002 0.206513,-1.520762 0.178528,-1.684039 -0.370451,-2.161368 -1.129775,-0.782669 -2.255079,-1.15138 -3.656301,-1.170562 l -1.083881,-7.94e-4 -0.165524,2.012001 c -0.454308,5.522253 -4.807201,13.782725 -10.00719,18.990614 -2.621902,2.625903 -5.126633,4.215768 -6.641642,4.215768 -0.636429,0 -0.73737,0.11825 -0.846966,0.992188 0.02879,1.021704 0.137853,3.973551 1.578421,4.093466 0.12845,-0.0082 1.194195,-0.05258 2.076284,-0.332308 z"
         id="path2057"
         sodipodi:nodetypes="sssssssssscssccsccszcsssccssssccsssccssscccsssccss" />
      <path
         style="fill:#fd5621;stroke-width:0.264583"
         d="m 70.024656,131.04418 c 0.768552,-0.12172 1.799625,-0.29678 2.291276,-0.38901 l 0.893914,-0.1677 -0.866498,-1.43896 c -0.476572,-0.79142 -1.007575,-1.77955 -1.180007,-2.19584 l -0.31351,-0.75688 -1.640435,0.24119 c -2.188559,0.32179 -10.248276,0.0487 -13.535623,-0.45856 -5.695697,-0.87895 -11.598937,-2.60372 -16.018352,-4.68012 -2.740546,-1.2876 -4.794261,-1.48811 -6.005911,-0.58636 -0.61033,0.45422 -0.75362,0.77994 -0.81278,1.84757 -0.0846,1.5272 0.54602,2.74891 1.81841,3.5227 2.90898,1.76905 9.896687,3.75708 16.377365,4.6594 3.4545,0.48098 16.721473,0.7622 18.992151,0.40257 z m 11.839515,-3.16886 c 2.89442,-1.09571 7.1442,-3.18087 9.328161,-4.57689 l 1.39837,-0.89385 -2.038045,-1.29106 c -2.403264,-1.5224 -4.683959,-3.36677 -6.747794,-5.45685 l -1.491184,-1.51014 -1.022357,1.05457 c -1.37713,1.42051 -3.065188,2.63838 -5.057945,3.64909 -1.901624,0.96449 -1.884214,0.83463 -0.562734,4.19737 0.703805,1.79096 2.78552,5.35063 3.323534,5.68314 0.127527,0.0788 1.419024,-0.3061 2.869994,-0.85538 z m 18.564449,-11.86183 c 1.42698,-1.42053 3.29037,-3.51019 4.14087,-4.64371 2.45803,-3.27599 5.51788,-8.68394 5.13184,-9.06997 -0.0833,-0.0833 -1.4323,-0.0226 -2.99777,0.13499 -4.91469,0.49463 -11.969103,0.21947 -17.08933,-0.66658 -0.968592,-0.16762 -0.974956,-0.16265 -1.265648,0.9876 -0.442643,1.75149 -1.32747,4.1856 -2.027849,5.57846 l -0.627229,1.24741 1.601745,1.71227 c 0.88096,0.94175 2.458408,2.36813 3.505439,3.16974 2.071338,1.58582 6.210464,4.13206 6.717514,4.13236 0.173746,1.1e-4 1.483434,-1.16205 2.910418,-2.58257 z m 2.85909,-19.040348 c 2.54831,-0.08197 7.53646,-0.613397 8.22901,-0.876705 0.86445,-0.328662 1.45699,-3.839482 1.62377,-9.620837 0.12712,-4.406781 -0.22365,-9.799479 -0.69386,-10.667215 -0.11805,-0.217855 -0.77272,0.158433 -2.02094,1.161587 -6.33557,5.091724 -15.702613,9.690958 -23.334815,11.45744 l -1.380173,0.319443 0.901446,1.790033 c 0.495795,0.98452 1.152319,2.566575 1.458944,3.515677 l 0.557499,1.725647 1.508728,0.291468 c 3.289411,0.635474 9.090798,1.034042 13.150391,0.903462 z M 83.311672,83.486525 c 2.136839,-0.363974 7.124674,-1.837632 9.766774,-2.885596 6.147337,-2.438279 11.797944,-5.984235 16.887204,-10.597312 l 1.12169,-1.016735 -1.13485,-3.315587 c -1.70508,-4.981628 -5.24107,-10.778662 -8.60069,-14.10031 l -1.558512,-1.540896 -0.178575,1.540896 c -0.957157,8.259151 -8.684721,20.623194 -15.735293,25.176346 -2.044255,1.320149 -4.411027,2.239901 -5.393002,2.095778 -0.399822,-0.05868 -0.698093,-0.07781 -0.662826,-0.0425 0.03527,0.0353 1.113091,1.145644 2.395164,2.46742 1.282076,1.321776 2.353638,2.387015 2.38125,2.367198 0.02761,-0.01982 0.347864,-0.08673 0.711666,-0.148702 z M 77.843946,73.323572 c 1.882646,-0.291685 3.906438,-1.650622 6.518963,-4.377351 6.225562,-6.497707 10.79037,-16.809586 9.532663,-21.534227 C 93.496368,45.912365 92.633567,44.776072 90.90211,43.469647 86.200038,39.92183 78.723673,38.141435 54.821491,34.87754 49.194613,34.377693 43.961133,33.596378 38.993963,33.022985 35.93802,32.675206 33.38969,32.437676 33.331,32.49514 c -0.0587,0.05746 2.17372,1.198276 4.960933,2.535137 2.787211,1.336861 5.067655,2.510786 5.067655,2.608722 0,0.186205 -7.234018,-0.832983 -13.692188,-1.929069 -2.07367,-0.351945 -3.77031,-0.611976 -3.77031,-0.577846 0,0.03413 4.60955,3.081514 10.24346,6.771967 l 10.243458,6.709914 -5.348669,0.07162 c -2.941767,0.03939 -5.348669,0.177673 -5.348669,0.307287 0,0.389554 3.426413,3.41462 5.688543,5.022226 5.258154,3.736766 10.884731,6.926355 25.122188,14.241261 5.246026,2.695298 9.657292,4.982631 9.802812,5.082964 0.145521,0.100335 0.840201,0.09324 1.543733,-0.01577 z"
         id="path2051"
         sodipodi:nodetypes="sscsscscsscssssscsscsssssssscssscsssssssssscsscsscsscsscssssssccssscccssssscssssscc" />
      <path
         style="fill:#dc2b00;stroke-width:0.264583"
         d="m 69.513733,126.35786 c 0.930473,-0.0984 1.124336,-0.20726 1.011756,-0.56822 -0.07659,-0.24558 -0.445725,-1.32112 -0.82029,-2.39008 -0.374566,-1.06896 -0.681027,-2.09423 -0.681027,-2.27836 0,-0.21505 -0.544105,-0.38452 -1.521355,-0.47384 -3.584815,-0.32768 -8.400007,-2.51699 -18.719271,-8.51101 -9.367568,-5.44122 -10.595856,-6.04393 -12.361676,-6.06569 -2.40788,-0.0297 -3.65132,1.2778 -3.68231,3.87191 -0.0331,2.77146 1.16282,5.46441 3.8867,8.75199 1.246361,1.50431 1.831852,1.96811 3.392238,2.6872 4.17548,1.92424 10.167271,3.64644 15.655275,4.49973 2.596763,0.40375 11.596886,0.71353 13.83996,0.47637 z"
         id="path2049" />
      <circle
         style="fill:#3d2622;fill-opacity:1;stroke:none;stroke-width:1.94282;stroke-linecap:square;stroke-miterlimit:4;stroke-dasharray:none;stroke-opacity:1"
         id="path4134"
         cx="49.141617"
         cy="37.800014"
         r="5.4000025" />
    </g>
    <g
       id="g1079"
       transform="matrix(0.89118737,0,0,0.89118737,-4.8694339,-4.2052789)">
      <path
         style="fill:none;stroke:#000000;stroke-width:1.32292;stroke-linecap:butt;stroke-linejoin:miter;stroke-miterlimit:4;stroke-dasharray:none;stroke-opacity:1"
         d="m 67.204166,80.168749 c -0.158575,3.253486 -4.622726,3.659238 -7.408333,3.96875 C 43.914525,85.902088 29.101979,80.495923 20.108333,65.88125 -10.604384,15.973082 89.192086,-7.2158004 95.249999,35.189583 c 0.794666,5.562658 0.477711,14.613829 -3.439583,19.314583 -4.941581,5.929898 -10.745407,10.691381 -16.933333,14.816667 -3.839792,2.559859 14.167617,8.330237 9.789583,9.789583 -4.782836,1.594279 -12.354568,1.788038 -17.4625,1.058333 z"
         id="path9170" />
      <path
         style="fill:#000000;stroke-width:0.110405"
         d="m 29.032677,60.929353 c -0.532042,-0.189749 -0.83792,-0.461086 -1.029163,-0.912944 -0.210621,-0.497614 -0.187905,-0.877549 0.08632,-1.444069 0.383504,-0.792237 2.03625,-1.758129 5.317851,-3.107849 2.287972,-0.941042 3.233197,-1.437958 4.336361,-2.279672 0.526304,-0.401567 1.122868,-0.799459 1.325691,-0.884205 0.800873,-0.334628 1.850822,-0.05061 2.360291,0.638489 0.346615,0.468835 0.420368,1.268124 0.176013,1.907929 -0.33656,0.881271 -1.994808,2.237535 -3.913164,3.200525 -1.098952,0.551665 -6.395782,2.670329 -7.191583,2.876541 -0.767569,0.198897 -0.924113,0.199457 -1.468647,0.0052 z m 15.601969,-0.35016 c -1.571115,-0.308168 -2.144872,-0.64153 -2.272194,-1.320167 -0.09011,-0.479926 0.220753,-1.111644 0.658621,-1.33876 0.398708,-0.206803 0.747448,-0.278986 5.230117,-1.082527 3.87587,-0.694769 4.415058,-0.772018 10.018443,-1.435316 5.34457,-0.632663 6.957765,-0.759166 8.666764,-0.679631 2.260171,0.10518 3.55334,0.466298 4.395967,1.227569 0.565124,0.510552 0.793049,1.002299 0.793049,1.71097 0,1.221567 -0.827683,2.103121 -1.97461,2.103121 -0.632423,0 -1.009564,-0.121479 -1.566642,-0.504633 -0.85358,-0.587079 -3.419733,-0.622441 -7.909914,-0.109001 -1.349253,0.154284 -3.535266,0.380625 -4.857814,0.50298 -1.322536,0.122354 -3.718478,0.372719 -5.324319,0.556364 -2.836587,0.324393 -5.295291,0.479297 -5.857468,0.369029 z m 10.640343,-6.06854 C 54.706331,54.230124 54.357982,53.772435 54.013194,52.852801 53.584076,51.708212 53.400017,50.6997 53.233641,48.581499 l -0.136932,-1.743352 -0.284062,0.05756 c -2.207307,0.447241 -3.759123,0.348225 -4.481405,-0.285943 -0.6826,-0.599328 -0.767125,-1.519836 -0.201297,-2.192275 0.368182,-0.437557 0.738438,-0.623359 1.419174,-0.712169 0.302813,-0.03951 1.276935,-0.22838 2.164706,-0.419721 l 1.61416,-0.347893 0.07641,-2.157874 c 0.06429,-1.814578 0.04903,-2.234729 -0.09611,-2.640974 -0.275611,-0.771924 -0.228368,-1.299684 0.150233,-1.678282 0.600554,-0.600558 1.416006,-0.344487 2.168827,0.681062 0.558891,0.761363 0.88571,1.782799 1.109502,3.467605 0.104841,0.789394 0.223517,1.474182 0.263693,1.521753 0.04016,0.04757 1.146014,-0.02071 2.457439,-0.151737 1.311412,-0.131026 2.562801,-0.204758 2.780868,-0.16385 0.4462,0.0837 1.095106,0.602524 1.335836,1.068036 0.253652,0.49052 0.204492,1.384175 -0.105233,1.912664 -0.442874,0.755688 -0.946411,0.958013 -2.643596,1.062211 -0.798709,0.04904 -1.961453,0.125157 -2.583861,0.169152 l -1.131644,0.08 -5.2e-5,0.452624 c -1.04e-4,1.197421 0.365978,3.692626 0.673277,4.588628 0.180708,0.526912 0.320417,1.167134 0.320417,1.468345 0,0.792857 -0.453659,1.563758 -1.126167,1.91366 -0.391941,0.203924 -1.269775,0.19358 -1.70287,-0.02007 z M 35.747077,46.109102 c -0.182168,-0.09742 -0.654148,-0.459377 -1.048853,-0.804334 -0.394693,-0.344957 -1.313812,-1.069408 -2.042483,-1.609892 -0.72867,-0.540483 -1.560839,-1.217503 -1.849282,-1.504488 -0.457284,-0.454994 -0.524414,-0.580347 -0.524414,-0.979232 0,-0.586864 0.274829,-1.046821 0.764257,-1.279071 0.526591,-0.249882 0.941821,-0.128157 2.903978,0.851333 2.255046,1.125692 3.702217,2.173564 4.12145,2.984252 0.586966,1.13508 -0.236518,2.533855 -1.485351,2.52299 -0.279446,-0.0025 -0.657134,-0.08413 -0.839302,-0.181558 z m 9.375027,-9.796968 c -0.795539,-0.346381 -1.052595,-1.22976 -0.567367,-1.949793 0.528195,-0.783786 4.567833,-2.39585 7.863439,-3.137999 2.392513,-0.538775 3.552141,-0.652939 6.679493,-0.657584 2.823495,-0.0042 2.941885,0.0043 3.388541,0.243047 1.292583,0.690918 1.518643,2.319939 0.458758,3.305806 -0.467808,0.43514 -0.781392,0.476574 -3.606752,0.476574 -3.580906,0 -6.31367,0.340819 -9.733051,1.213864 -0.934089,0.238494 -3.439606,0.665322 -3.866468,0.658672 -0.151811,-0.0023 -0.429274,-0.07103 -0.616593,-0.152587 z m -8.41611,-0.121063 c -0.201271,-0.08742 -0.847139,-0.610491 -1.435265,-1.162372 -0.905545,-0.849732 -2.040201,-1.690784 -3.475896,-2.576455 -0.991491,-0.611649 -0.978164,-2.25023 0.02256,-2.767701 1.202698,-0.621938 4.286575,0.674399 6.475509,2.722046 0.400012,0.374185 0.823027,0.867995 0.940035,1.097357 0.495934,0.972118 0.08867,2.175441 -0.913421,2.698971 -0.379996,0.198522 -1.142037,0.192928 -1.613469,-0.01187 z"
         id="path862"
         sodipodi:nodetypes="csssssssssccscsssssssssssssssscssssscscsssssssssscsssssssssssssscssssssssssssssssssss" />
    </g>
  </g>
</svg>
