<?xml version="1.0" encoding="UTF-8" standalone="no"?>
<!-- Created with Inkscape (http://www.inkscape.org/) -->

<svg
   width="512"
   height="384"
   viewBox="0 0 135.46666 101.6"
   version="1.1"
   id="svg5"
   inkscape:version="1.2.1 (9c6d41e410, 2022-07-14)"
   sodipodi:docname="wahwei.svg"
   xmlns:inkscape="http://www.inkscape.org/namespaces/inkscape"
   xmlns:sodipodi="http://sodipodi.sourceforge.net/DTD/sodipodi-0.dtd"
   xmlns="http://www.w3.org/2000/svg"
   xmlns:svg="http://www.w3.org/2000/svg">
  <sodipodi:namedview
     id="namedview7"
     pagecolor="#505050"
     bordercolor="#ffffff"
     borderopacity="1"
     inkscape:showpageshadow="0"
     inkscape:pageopacity="0"
     inkscape:pagecheckerboard="1"
     inkscape:deskcolor="#505050"
     inkscape:document-units="px"
     showgrid="false"
     inkscape:zoom="1.0873423"
     inkscape:cx="284.17915"
     inkscape:cy="152.20599"
     inkscape:window-width="1920"
     inkscape:window-height="1103"
     inkscape:window-x="0"
     inkscape:window-y="48"
     inkscape:window-maximized="1"
     inkscape:current-layer="layer1" />
  <defs
     id="defs2" />
  <g
     inkscape:label="Layer 1"
     inkscape:groupmode="layer"
     id="layer1">
    <g
       id="g1902">
      <path
         style="color:#000000;-inkscape-font-specification:'Noto Serif CJK SC, Heavy';fill:#ffffff;stroke-linecap:round;stroke-linejoin:round;-inkscape-stroke:none;paint-order:markers stroke fill"
         d="m 90.788994,12.324413 c -1.542146,0 -3.347881,0.22721 -5.271484,1.542969 -1.154537,0.789712 -2.029827,2.163749 -2.660156,3.644531 -0.716782,-0.106346 -1.441303,-0.335938 -2.134766,-0.335938 -1.626757,0 -3.358459,0.320509 -4.99414,0.97461 -0.493677,-0.285915 -1.023009,-0.505266 -1.574219,-0.652344 h -5.150391 c -0.410451,0.123723 -0.807585,0.287942 -1.185547,0.490234 -0.358782,-0.153726 -0.730742,-0.274662 -1.111328,-0.361328 h -1.417969 c -0.429545,0.08809 -0.84902,0.219624 -1.251953,0.392578 -0.400379,-0.217721 -0.822645,-0.39252 -1.259765,-0.521484 h -7.082032 c -0.958896,0.162397 -1.868831,0.538922 -2.662109,1.101562 C 52.15196,18.100305 51.2845,17.876126 50.371026,17.656444 49.719975,14.898809 47.350014,12.885846 44.523369,12.689647 h -5.859375 c -2.670949,0.208028 -4.937276,2.040973 -5.699218,4.609375 -0.486987,-0.02559 -1.00254,-0.123047 -1.470703,-0.123047 -1.664548,0 -3.360958,0.166172 -5.283204,0.853516 -0.40743,-0.222621 -0.837643,-0.400731 -1.283203,-0.53125 h -5.152343 c -0.410451,0.123723 -0.807585,0.287942 -1.185547,0.490234 -0.358782,-0.153726 -0.730742,-0.274662 -1.111328,-0.361328 h -1.416016 c -0.429545,0.08809 -0.84902,0.219624 -1.251953,0.392578 -0.400379,-0.217721 -0.822646,-0.39252 -1.259766,-0.521484 H 6.4686815 c -3.571853,-5.7e-5 -6.46772862333,2.894944 -6.468749993333,6.466797 v 1.310547 C 0.07173697,27.139403 0.94457205,28.881513 2.3944628,30.054881 l 1.9160156,6.419922 c -0.7461778,0.813006 -1.2719612,1.803389 -1.5273438,2.876953 v 43.316407 c -5.71e-5,3.572616 2.8961344,6.468807 6.46875,6.46875 h 1.0664064 c 2.610435,0 4.754404,-0.655859 6.601563,-1.595703 0.923579,-0.469923 1.772855,-0.994316 2.675781,-1.84375 0.67899,-0.638765 1.735341,-1.416086 2.21875,-3.25 2.406732,1.898633 5.815642,1.847255 8.164063,-0.123047 0.107845,-0.09095 0.194373,-0.195208 0.300781,-0.28711 0.448176,0.331076 0.937251,0.602857 1.455078,0.808594 1.524585,0.234552 1.166789,0.256842 1.185547,0.320313 0.02652,0.164318 0.01765,0.0869 0.05273,0.388671 0.403044,3.459844 3.47335,5.979291 6.945313,5.699219 4.37074,-0.352918 8.087231,-1.112734 11.076172,-4.015625 0.870066,-0.845017 1.525766,-1.779811 2.018252,-2.746174 0,0 3.090409,0.112484 3.245419,0.314534 -5.7e-5,3.571853 2.894944,6.467729 6.466797,6.46875 h 1.251953 c 2.648405,0 4.890157,-0.559741 6.685547,-1.378907 0.897696,-0.409582 1.67783,-0.85829 2.484375,-1.521484 0.268849,-0.221065 0.575485,-0.575307 0.875,-0.902344 h 5.148438 c 1.086373,1.798413 2.978529,2.957158 5.074219,3.107422 H 85.4511 c 2.19378,0 3.808919,-0.417723 5.335937,-0.863281 0.763509,-0.222779 1.443027,-0.449769 2.19336,-0.779297 0.375166,-0.164764 0.751293,-0.327152 1.357422,-0.722656 0.303064,-0.197752 0.670353,-0.436302 1.21289,-0.992188 0.542537,-0.555885 1.545089,-1.466187 1.835938,-3.792969 0.03356,-0.266266 0.05052,-0.534362 0.05078,-0.802734 V 79.5666 c 1.853238,3.474464 5.464063,5.951172 9.531253,5.951172 3.57036,0 6.72899,-2.046668 8.73828,-4.882812 1.99857,2.864464 5.1766,4.882812 8.79297,4.882812 5.76513,0 10.875,-5.050988 10.875,-10.779297 0,-3.032119 -1.46979,-5.842798 -3.67384,-7.875 l 1.07031,-5.595703 c 1.81372,-6.72212 2.69533,-10.295127 2.69533,-13.800781 0,-2.758944 -1.00418,-5.843273 -3.20509,-7.962891 -2.2009,-2.119617 -5.15106,-2.957031 -7.76171,-2.957031 -2.61065,0 -5.58351,0.8497 -7.77344,2.990234 -0.3778,0.369282 -0.67073,0.797033 -0.97656,1.214844 -0.31737,-0.431936 -0.62714,-0.870147 -1.01953,-1.248047 -2.20091,-2.119617 -5.15107,-2.957031 -7.76172,-2.957031 -2.19988,0 -4.62914,0.658219 -6.6582,2.128906 -0.20358,-0.170392 -0.24838,-0.201835 -0.451178,-0.36914 0.613828,-0.837264 1.017108,-1.809969 1.175788,-2.835938 V 34.16035 c -0.0943,-1.417019 -0.6523,-2.763626 -1.587897,-3.832031 v -6.363281 c -0.108432,-0.336732 -0.244304,-0.664001 -0.40625,-0.978516 0.295865,-0.810478 0.511718,-1.647363 0.511718,-2.498047 0,-2.575262 -1.702423,-5.427292 -3.583984,-6.673828 -1.881561,-1.246535 -3.622462,-1.490234 -5.179688,-1.490234 z"
         id="path1792"
         sodipodi:nodetypes="sscsccccccccccccccsccccccccccccccccssscccccccscccssscccssssscccscssccsssscsscccccccssss" />
      <path
         style="color:#000000;-inkscape-font-specification:'Noto Serif CJK SC, Heavy';fill:#000000;stroke-width:12.936;stroke-linecap:round;stroke-linejoin:round;-inkscape-stroke:none;paint-order:markers stroke fill"
         d="m 90.789282,18.792739 c -1.28785,0 -2.27559,0.536538 -2.27559,1.6956 0,1.094669 0.98774,1.6956 2.27559,1.6956 1.22345,0 2.29636,-0.600931 2.29636,-1.6956 0,-1.159062 -1.07291,-1.6956 -2.29636,-1.6956 z m -52.12511,0.364947 v 1.309318 h 0.32172 c 0.34342,0 1.35255,0.150338 1.35255,1.202079 v 11.053965 c 0,1.244918 -0.64403,1.437892 -1.48113,1.437892 h -0.0859 v 1.309317 h 7.19058 V 34.16094 h -0.0859 c -0.94442,0 -1.33121,-0.214263 -1.33121,-1.373325 v -3.778044 c 0,-1.502486 0.15025,-3.219393 1.30932,-3.219393 0.90149,0 1.22397,1.051895 1.22397,2.876343 v 6.803736 h 5.53765 V 34.16094 h -0.0859 c -0.96588,0 -1.26665,-0.193149 -1.26665,-1.50246 v -4.914994 c 0,-2.87619 -1.09458,-4.099759 -3.4771,-4.099759 -1.86737,0 -2.68292,0.772854 -3.19806,1.567027 h -0.1718 c 0.0644,-0.751244 0.10723,-1.910295 0.10723,-3.090821 v -2.962247 z m -7.16924,4.486041 c -2.64009,0 -4.82966,0.643752 -4.82966,2.275024 0,1.094669 1.07334,1.502459 3.34853,1.502459 0,-1.523953 0.42933,-2.296359 1.11618,-2.296359 0.75124,0 1.11618,0.708015 1.11618,2.296359 v 1.116176 l -1.73884,0.06457 c -3.17668,0.107324 -4.74318,1.18062 -4.74318,3.541672 0,2.403979 1.52382,3.54167 3.3912,3.54167 1.52395,0 2.12493,-0.300984 3.09082,-1.417117 h 0.21447 l 0.53676,1.202079 h 4.78642 v -1.30932 h -0.0859 c -0.96589,0 -1.26609,-0.343398 -1.26609,-1.50246 v -5.409076 c 0,-2.661549 -1.65288,-3.605677 -4.93689,-3.605677 z m 49.22742,0 c -3.64889,0 -5.73079,2.081823 -5.73079,6.117074 0,3.756218 1.93179,5.924494 5.9885,5.924494 3.45572,0 4.76509,-1.395357 4.76509,-2.683203 0,-0.558067 -0.40777,-0.944592 -0.94437,-1.094841 -0.47221,1.137599 -1.28822,1.974644 -2.74777,1.974644 -1.84592,0 -2.79006,-1.180373 -2.85445,-3.863385 h 6.9542 v -1.180745 c 0,-3.412792 -2.06054,-5.194038 -5.43041,-5.194038 z M 6.4679817,23.965442 v 1.309318 h 0.0859 c 0.8371,0 1.1805,0.23658 1.50246,1.138073 l 2.7045403,9.057424 h 2.81178 l 2.03865,-5.773462 1.8893,5.773462 h 2.76854 l 2.76911,-8.521233 c 0.45075,-1.352239 0.7726,-1.674264 1.6097,-1.674264 h 0.27904 v -1.309318 h -5.15137 v 1.309318 h 0.14991 c 0.94442,0 1.41712,0.322391 1.41712,1.05217 0,0.236106 -0.0858,0.708055 -0.19314,1.072944 l -0.85903,2.897679 c -0.17172,0.558067 -0.27896,0.965774 -0.38628,1.609698 h -0.0859 c -0.0429,-0.407819 -0.15014,-0.987449 -0.30038,-1.481123 l -2.03922,-6.331551 h -1.41655 l -2.16779,5.859365 c -0.21464,0.558067 -0.45089,1.266586 -0.53675,1.931974 h -0.0859 c -0.0858,-0.62246 -0.32185,-1.567023 -0.57942,-2.5973 l -0.53676,-2.14645 c -0.0858,-0.321963 -0.17124,-0.729602 -0.17124,-0.965707 0,-0.708316 0.42886,-0.901699 1.28742,-0.901699 h 0.27904 v -1.309318 z m 49.2274303,0 v 1.309318 h 0.0859 c 0.8371,0 1.18049,0.236581 1.50246,1.138073 l 2.70454,9.057424 h 2.81177 l 2.03865,-5.773462 1.8893,5.773462 h 2.76855 l 2.7691,-8.521233 c 0.45075,-1.352239 0.7726,-1.674264 1.6097,-1.674264 h 0.27905 v -1.309318 h -5.15137 v 1.309318 h 0.15047 c 0.94442,0 1.41656,0.32239 1.41656,1.05217 0,0.236105 -0.0858,0.708054 -0.19314,1.072944 l -0.85903,2.897679 c -0.17172,0.558067 -0.27896,0.965775 -0.38629,1.609698 h -0.0859 c -0.0429,-0.407818 -0.15013,-0.987449 -0.30038,-1.481123 l -2.03921,-6.331551 h -1.41655 l -2.16779,5.859365 c -0.21464,0.558066 -0.4509,1.266586 -0.53675,1.931974 h -0.0859 c -0.0858,-0.62246 -0.32186,-1.567024 -0.57943,-2.5973 l -0.53619,-2.14645 c -0.0858,-0.321962 -0.1718,-0.729602 -0.1718,-0.965707 0,-0.708315 0.42885,-0.901699 1.28742,-0.901699 h 0.27904 v -1.309318 z m 31.35906,0 v 1.309318 h 0.40761 c 0.77271,0 1.35255,0.364813 1.35255,1.416555 v 5.881262 c 0,1.201991 -0.53691,1.588363 -1.35255,1.588363 h -0.25771 v 1.309317 h 7.36239 V 34.16094 h -0.23581 c -0.79418,0 -1.35255,-0.364863 -1.35255,-1.50246 v -8.693038 z m -6.22488,1.245312 c 0.85857,0 1.22342,1.159015 1.22342,3.283961 h -2.81178 c 0,-2.14641 0.6654,-3.283961 1.58836,-3.283961 z m -48.5621,4.63595 v 1.523794 c 0,1.56688 -0.55799,2.575965 -1.41655,2.575965 -0.57953,0 -0.83714,-0.601234 -0.83714,-1.738832 0,-1.459559 0.38638,-2.210503 1.58837,-2.296359 z m 26.46877,8.530216 c -1.15945,5.240689 -3.43155,10.435362 -5.75044,13.728185 l 0.46376,0.371123 c 3.47833,-1.576844 6.86361,-3.849472 9.73903,-7.142295 h 1.34525 c 0.46378,1.159444 0.69566,2.736384 0.46377,4.220473 3.38558,3.571089 8.95061,-1.716073 2.5041,-4.220473 h 7.09569 c 0.69567,0 1.15952,-0.23209 1.29865,-0.742246 -1.85511,-1.762355 -5.00876,-4.359152 -5.00876,-4.359152 l -2.73598,3.802749 h -3.94199 c 0.46378,-0.556534 0.88069,-1.159726 1.29809,-1.809015 1.06669,0.04638 1.71614,-0.324616 1.90165,-0.927527 z m 18.82958,0.0466 c -0.55653,3.802979 -1.71588,7.698958 -3.01446,10.203359 l 0.46039,0.367754 c -0.89258,-0.08228 -1.95099,-0.07519 -3.19693,0.04941 l -0.32452,0.231882 c 1.06668,0.973934 1.99451,2.829239 2.04089,4.591595 h -12.33689 c -0.23189,-1.066691 -0.64914,-2.226028 -1.25205,-3.478228 l -0.55641,0.04604 c 0.23189,2.087 -1.34498,4.081095 -2.68994,4.869516 -1.71597,0.695667 -2.92161,2.13381 -2.41145,4.174432 0.60291,2.087002 3.01429,2.736233 4.73027,1.855055 1.62322,-0.881178 2.73644,-3.107233 2.36542,-6.168167 h 27.03808 c 0,1.298579 -0.0928,2.875408 -0.23188,4.081231 l -4.54499,-3.292945 -2.78258,2.921822 h -11.40881 l -6.72513,-2.458059 v 26.389041 h 1.25205 c 3.43195,0 5.42648,-1.484256 5.42648,-1.901656 v -1.901655 h 14.84099 v 3.107665 h 1.20601 c 2.087,0 5.47218,-1.113469 5.51856,-1.484492 V 72.6505 c 0.74205,-0.185511 1.206,-0.510018 1.43789,-0.788286 l -5.79704,-4.267072 -2.78314,2.968422 h -14.42327 v -4.174432 h 11.87257 v 1.669773 h 1.20601 c 2.087,0 5.47274,-1.066869 5.51912,-1.437892 v -5.657802 c 0.74205,-0.185511 1.20544,-0.510019 1.43733,-0.788285 l -0.5098,-0.371123 c 1.94786,-0.8348 4.26635,-2.27252 5.75044,-3.385586 0.97393,-0.04638 1.43777,-0.185604 1.76241,-0.603004 l -5.37988,-5.101399 -3.1071,3.153704 h -9.92488 c 1.75612,-1.443918 1.7375,-4.430552 -3.0094,-4.871762 2.1781,-0.83473 4.35596,-2.040088 6.30235,-3.708423 h 1.71581 c 0.69567,1.159444 1.11304,2.875509 0.92753,4.452353 3.7566,3.339202 8.6729,-2.318976 2.50466,-4.452353 h 9.50715 c 0.69567,0 1.2059,-0.231529 1.29865,-0.741686 -2.087,-1.855111 -5.61176,-4.591594 -5.61176,-4.591594 l -3.06107,4.034629 h -5.93628 c 0.55653,-0.556532 1.06675,-1.113124 1.53053,-1.762413 1.06669,0.04638 1.71615,-0.324616 1.90166,-0.927527 z m -33.62397,0.371124 -2.92183,3.292945 H 16.115502 L 9.2516917,39.351048 v 43.316968 h 1.0662003 c 2.73629,0 5.28724,-1.576657 5.28724,-2.411458 V 75.896845 49.090642 c 2.22614,3.060935 3.98855,6.770949 5.37988,10.342038 -1.06668,5.843602 -2.78272,11.733631 -5.37988,16.464165 l 0.46377,0.324521 c 3.06093,-2.782666 5.4262,-6.167943 7.23493,-9.739032 0.32465,0.973935 0.5564,1.901403 0.78829,2.782581 3.52471,3.524712 7.18882,-2.040867 2.27277,-10.203358 1.15945,-3.478334 1.94779,-6.956805 2.5507,-10.064116 1.39134,2.411644 2.50463,5.194513 3.43219,7.97718 -1.2522,7.049423 -3.43196,14.376942 -7.00305,20.035031 l 0.46376,0.371124 c 3.84936,-3.246445 6.67813,-7.327777 8.81151,-11.687289 0.46377,2.040622 0.7885,3.9425 1.06676,5.565722 3.52472,4.359512 8.25508,-2.504443 1.9477,-13.078578 1.20582,-3.663845 1.99461,-7.328036 2.6439,-10.574481 0.55653,-0.04638 0.92718,-0.185389 1.20545,-0.324522 v 27.87297 c 0,0.649291 -0.23163,1.066768 -1.11281,1.066768 -1.39133,0 -7.65266,-0.371122 -7.65266,-0.371122 v 0.603004 c 3.01456,0.463779 4.12769,1.159381 5.148,2.086936 0.97393,0.927556 1.29864,2.272828 1.53053,4.267074 7.46683,-0.602913 8.58019,-2.921693 8.58019,-7.095695 V 44.406407 c 0.92755,-0.185512 1.53041,-0.603106 1.85505,-0.974128 z m 63.027468,4.220472 c -2.73629,0 -4.45235,1.576931 -4.45235,4.452354 0,2.226134 0.74197,5.565061 2.5507,12.428973 l 1.15941,6.307409 h 1.48449 l 1.20545,-6.307409 c 1.85511,-6.863912 2.5507,-10.202839 2.5507,-12.428973 0,-2.875423 -1.76211,-4.452354 -4.4984,-4.452354 z m 17.53094,0 c -2.73629,0 -4.45235,1.576931 -4.45235,4.452354 0,2.226134 0.74196,5.565061 2.55069,12.428973 l 1.15941,6.307409 h 1.48394 l 1.206,-6.307409 c 1.85511,-6.863912 2.55071,-10.202839 2.55071,-12.428973 0,-2.875423 -1.76211,-4.452354 -4.4984,-4.452354 z M 15.605132,43.386239 h 25.87868 v 3.014463 l -7.79134,-1.530532 c -0.0927,2.226134 -0.32474,4.683818 -0.60301,7.280975 -1.11306,-1.205823 -2.31877,-2.411309 -3.7101,-3.663507 l -0.41717,0.231881 0.18529,-0.974128 c 1.2522,-0.139133 1.62328,-0.556498 1.76241,-1.159408 l -8.44095,-1.623173 c -0.0927,2.597157 -0.27836,5.472428 -0.603,8.486985 -1.62322,-1.576845 -3.57079,-3.246295 -5.88968,-4.869517 l -0.37113,0.231881 z m 53.79825,16.788687 h 11.87257 v 4.916118 h -11.87257 z m 37.565958,10.156757 c -2.45803,0 -4.40575,1.947731 -4.40575,4.405753 0,2.411645 1.94772,4.313113 4.40575,4.313113 2.55078,0 4.40576,-1.901468 4.40576,-4.313113 0,-2.458022 -1.85498,-4.405753 -4.40576,-4.405753 z m 17.53094,0 c -2.45802,0 -4.40632,1.947731 -4.40632,4.405753 0,2.411645 1.9483,4.313113 4.40632,4.313113 2.55078,0 4.40575,-1.901468 4.40575,-4.313113 0,-2.458022 -1.85497,-4.405753 -4.40575,-4.405753 z m -55.096898,1.530531 h 14.84099 v 5.843083 h -14.84099 z"
         id="path1794" />
    </g>
  </g>
</svg>
