<?xml version="1.0" encoding="UTF-8" standalone="no"?>
<!-- Created with Inkscape (http://www.inkscape.org/) -->

<svg
   width="512"
   height="512"
   viewBox="0 0 135.46667 135.46667"
   version="1.1"
   id="svg15365"
   inkscape:version="1.2.1 (9c6d41e410, 2022-07-14)"
   sodipodi:docname="strawberry-orig.svg"
   xml:space="preserve"
   xmlns:inkscape="http://www.inkscape.org/namespaces/inkscape"
   xmlns:sodipodi="http://sodipodi.sourceforge.net/DTD/sodipodi-0.dtd"
   xmlns="http://www.w3.org/2000/svg"
   xmlns:svg="http://www.w3.org/2000/svg"><sodipodi:namedview
     id="namedview15367"
     pagecolor="#505050"
     bordercolor="#ffffff"
     borderopacity="1"
     inkscape:showpageshadow="0"
     inkscape:pageopacity="0"
     inkscape:pagecheckerboard="1"
     inkscape:deskcolor="#505050"
     inkscape:document-units="px"
     showgrid="false"
     inkscape:zoom="1.3106905"
     inkscape:cx="23.270177"
     inkscape:cy="382.62275"
     inkscape:window-width="1920"
     inkscape:window-height="1031"
     inkscape:window-x="4096"
     inkscape:window-y="0"
     inkscape:window-maximized="1"
     inkscape:current-layer="layer1" /><defs
     id="defs15362" /><g
     inkscape:label="Layer 1"
     inkscape:groupmode="layer"
     id="layer1"><g
       id="g17460"
       transform="matrix(2.2046804,0,0,2.2046804,23.857129,-170.47373)"><path
         style="color:#000000;fill:#ffffff"
         d="m 18.829184,79.316103 c -0.95206,0.0048 -1.912385,0.05786 -2.876953,0.164062 -5.132439,0.565071 -9.9657234,2.510692 -14.0546884,5.46875 -4.08881,2.957939 -7.446913,6.938689 -9.589843,11.636719 -4.2956726,9.417576 -2.8182066,20.315096 4.210937,27.449216 0.122503,0.1243 0.289526,0.17015 0.421875,0.2793 -0.0083,0.74071 0.127225,1.45471 0.404297,2.16016 -9.91e-4,7.4e-4 -0.05469,0.041 -0.05469,0.041 4.2e-5,1.3e-4 0.284164,0.69085 0.333984,0.77929 0.07488,0.13294 0.08662,0.14431 0.105469,0.17188 0.0019,0.003 0.002,0.007 0.0039,0.01 l 0.002,-0.002 c 0.0051,0.007 0.02465,0.0417 0.0293,0.0488 0.04381,0.067 0.05445,0.0835 0.06836,0.10351 0.02782,0.0401 0.04614,0.0645 0.06836,0.0957 0.04444,0.0624 0.09828,0.13773 0.167968,0.23438 0.139373,0.19329 0.335273,0.4631 0.570313,0.78711 0.47007904,0.64801 1.09666804,1.50999 1.72460904,2.37304 1.25588296,1.7261 2.51562496,3.45508 2.51562496,3.45508 l 0.128907,0.17578 0.146484,0.16016 c 1.936069,2.12267 5.200769,2.47094 7.5664064,0.86914 2.549022,1.42078 5.788796,1.36366 8.257813,-0.42188 l 0.002,-0.002 c 1.751088,-1.26889 2.741545,-3.19034 3.015625,-5.21875 0.317882,0.0917 1.246602,0.41746 2.246094,0.79297 1.069727,0.40191 1.960766,0.83807 3.478515,1.07032 h 0.002 0.002 c 1.313424,0.19975 3.455116,0.19027 5.642579,-0.68946 l 0.01367,0.0859 0.04687,-0.10351 c 0.768192,-0.31469 1.53851,-0.73023 2.283204,-1.29493 h 0.002 v -0.002 c 1.864386,-1.41416 3.256565,-3.12203 3.841797,-5.17382 0.377001,0.096 0.767945,0.27845 1.142578,0.33984 2.562309,0.4199 5.682464,-0.28458 7.332031,-2.69336 1.571604,-2.29493 1.330925,-4.82593 0.746094,-6.77344 -0.313316,-1.04335 -0.792012,-2.03095 -1.365235,-2.98242 0.354526,-1.19724 0.503356,-2.44985 0.25586,-3.68945 2.228957,-1.75443 2.909034,-4.93699 1.505859,-7.42383 l -0.107422,-0.18945 -0.126953,-0.17774 c 0,0 -1.248617,-1.734644 -2.496094,-3.466794 -0.623738,-0.866074 -1.248031,-1.731911 -1.716797,-2.380859 -0.234383,-0.324474 -0.428268,-0.594339 -0.568359,-0.787109 -0.07005,-0.09638 -0.126468,-0.172659 -0.171875,-0.234375 -0.0227,-0.03086 -0.04091,-0.05479 -0.07031,-0.09375 -0.0147,-0.01948 -0.02624,-0.0351 -0.07617,-0.09766 -0.0052,-0.0065 -0.02989,-0.03606 -0.03516,-0.04297 -0.0012,-0.0015 -0.0027,-0.0024 -0.0039,-0.0039 -0.02023,-0.0265 -0.02886,-0.04226 -0.134765,-0.158203 -0.0685,-0.07499 -0.634649,-0.560463 -0.634766,-0.560547 -2e-6,-10e-7 -0.07242,0.05148 -0.07422,0.05273 -0.661115,-0.549828 -1.382108,-0.928478 -2.189453,-1.144531 -0.03528,-0.07828 -0.02679,-0.165121 -0.06641,-0.242188 C 36.553812,83.997276 28.033121,79.269468 18.82941,79.315998 Z"
         id="path17346"
         sodipodi:nodetypes="ccssscccscccccsssscccccccsccccccccccssscccccssssssccssccccc" /><g
         id="g16954"
         transform="translate(-39.309218,49.096071)"><path
           id="path16806"
           style="color:#000000;fill:#161616"
           d="m 51.448024,43.602508 c -0.416039,-0.0025 -0.820564,0.129436 -1.102259,0.448034 -0.324223,0.366698 -0.462333,0.895871 -0.467671,1.596285 h -0.280087 v 2.936772 h 1.358574 v -2.936772 h -0.284737 c 0.0074,-0.585054 0.134509,-0.917776 0.269751,-1.070735 0.145302,-0.164336 0.326311,-0.218386 0.677478,-0.165882 0.702332,0.105009 1.859214,0.779933 3.001884,1.658297 2.285339,1.756729 4.615222,4.254004 4.615222,4.254004 l 0.582393,-0.541052 c 0,0 -2.346804,-2.523055 -4.71289,-4.341854 -1.183044,-0.909399 -2.346492,-1.661435 -3.369304,-1.81436 -0.09589,-0.01434 -0.192345,-0.02215 -0.288354,-0.02274 z" /><path
           style="color:#000000;fill:#161616"
           d="m 82.015625,63.847656 -0.589844,0.53125 c 1.02673,1.142759 1.75377,2.42516 2.097656,3.570313 0.343887,1.145153 0.289537,2.124677 -0.113281,2.71289 -0.402818,0.588214 -1.178896,0.921855 -2.632812,0.683594 -1.453917,-0.238261 -3.522284,-1.087657 -6.244141,-2.820312 l -0.425781,0.669921 c 2.77555,1.766836 4.912463,2.666715 6.541015,2.933594 1.628553,0.26688 2.811816,-0.13725 3.416016,-1.019531 0.6042,-0.882281 0.60381,-2.106412 0.21875,-3.388672 -0.385059,-1.28226 -1.168884,-2.65019 -2.267578,-3.873047 z"
           id="path16926" /><g
           id="g15638"
           transform="matrix(0.26458334,0,0,0.26458334,44.318008,46.156749)"><path
             style="fill:#ff2a23"
             d="M 73.13,16.43 C 72.55,15.85 55.41,16.06 55.41,16.06 L 16.14,59.68 c 0,0 -1.37,12.84 -0.11,18.22 0.71,3.03 2.16,8.48 6.56,14.95 3.01,4.43 5.37,6.35 5.37,6.35 l 23.44,10.13 39.19,4.03 22.95,-14.89 c 0,0 1.71,-6.84 1.1,-11.84 -0.61,-5.01 -1.59,-8.79 -1.47,-12.09 0.12,-3.3 2.08,-16.55 -1.02,-26.04 C 109.41,40.12 101.33,28.51 91.2,22.53 81.07,16.55 73.13,16.43 73.13,16.43 Z"
             id="path15579" /><path
             style="fill:#dc0d27"
             d="m 67.15,116.99 c 5.55,1.35 16.32,6.28 20.96,6.99 4.8,0.73 11.63,0.8 18.87,-4.69 6.46,-4.9 9.44,-9.88 9.8,-14.1 0.51,-5.91 -0.52,-11.14 -0.84,-13.64 -0.31,-2.5 -1.72,-7.94 -1.72,-7.94 0,0 -4.01,8.88 -9.02,13.05 -5.01,4.17 -17.1,9.7 -29.09,10.11 -11.99,0.42 -20.02,0.73 -28.47,-1.36 -8.45,-2.09 -22.8,-9.51 -22.8,-9.51 0,0 5.04,7.5 14.88,13.05 7.43,4.19 11.9,5.26 14.91,5.94 4.68,1.07 8.24,1.05 12.52,2.1 z"
             id="path15581" /><path
             style="fill:#dc0d27"
             d="m 35.87,33.05 c 0,0 -20.53,30.67 -20.72,35.78 -0.21,5.84 1,9.32 1,9.32 0,0 4.17,-0.15 8.24,-2.77 1.89,-1.21 3.31,-2.42 3.31,-2.42 0,0 5.79,8.11 7.66,8.21 1.87,0.1 6.85,-3.5 9.04,-6.1 2.19,-2.61 3.65,-7.41 3.65,-7.41 0,0 3.38,1.53 10.47,1.32 7.09,-0.21 9.27,-0.84 9.79,-1.36 0.52,-0.52 1.22,-3.81 1.84,-6.42 0.63,-2.61 0.69,-6.33 0.69,-7.9 0,-1.56 -0.44,-3.94 -0.44,-3.94 0,0 5.59,-2.65 8.2,-5.16 2.61,-2.5 3.86,-3.75 4.28,-4.59 0.42,-0.83 -1.15,-4.9 -2.92,-7.61 -1.77,-2.71 -4.17,-4.59 -4.17,-4.59 0,0 3.55,-2.82 5.01,-4.38 1.46,-1.56 3.36,-3.99 3.36,-3.99 0,0 -3.04,-1.33 -6.69,-2.16 -3.65,-0.83 -10.95,-1.77 -10.95,-1.77 z"
             id="path15583" /><path
             style="fill:#759937"
             d="m 19.32,52.84 c -0.29,0.2 -9.08,13.97 -9.18,15.23 -0.1,1.27 -0.31,3.31 1.07,4 0.98,0.49 1.76,-0.39 2.44,-0.98 0.68,-0.59 2.05,-1.46 3.61,-2.25 1.56,-0.79 4.24,-1.32 6.15,-2.44 2.83,-1.66 5.37,-5.66 5.37,-5.66 l 6.93,9.96 -2.47,6.14 c 0,0 1.74,2.09 2.09,2.35 0.63,0.47 4.39,-2.34 6.34,-7.32 1.95,-4.98 2.44,-11.33 2.44,-11.33 0,0 3.91,2.73 7.72,3.52 3.81,0.78 11.61,0.39 12.11,-0.2 0.44,-0.52 0.7,-7.96 0.31,-11.28 -0.39,-3.32 -2.22,-7.71 -2.22,-7.71 0,0 3.96,0.63 8.65,-0.64 4.69,-1.27 8.2,-4 8.4,-5.08 0.2,-1.08 -2.68,-3.82 -2.68,-3.82 l -11.58,-4.09 -1.4,-3.49 c 0,0 5.92,-1.74 9.01,-5.4 2.23,-2.65 6.23,-6.01 6.23,-7.58 0,-1.57 -2.52,-1.21 -2.52,-1.21 l -21.48,8.59 z"
             id="path15585" /><path
             style="fill:#98b715"
             d="m 29.77,26.42 c 6.31,-5.8 12.68,-10.56 22.95,-13.23 10.23,-2.66 17.37,-1.35 19.03,-1.05 1.66,0.29 6.66,1.2 6.27,1.73 -0.17,0.23 -3.82,1.96 -7.44,4.3 -3.62,2.34 -5.14,3.1 -6.05,3.61 -1.36,0.76 -3.32,1.81 -3.24,3.03 0.12,1.66 2.36,1.76 4.8,3.03 2.44,1.27 5.47,3.22 7.72,5.18 2.25,1.96 3.38,2.74 3.69,3.51 0.34,0.84 -7.01,4.79 -11.99,4.69 -4.98,-0.1 -7.32,-2.34 -8.5,-0.59 -1.17,1.76 2.54,6.15 3.52,11.04 0.98,4.89 0.98,9.77 0.98,9.77 0,0 -7.48,0.56 -10.94,-0.69 -5.21,-1.88 -5.86,-5.89 -8.69,-5.37 -3.83,0.7 -0.41,7.29 -3.1,15.16 -2.4,7.04 -4.44,7.58 -4.44,7.58 0,0 -3.31,-3.41 -4.49,-5.27 -1.18,-1.86 -2.53,-2.82 -2.82,-6.82 -0.29,-4 0.2,-9.08 -1.76,-9.28 -1.96,-0.2 -2.44,3.91 -4.69,5.96 -2.25,2.05 -5.66,3.13 -7.23,4.39 -1.56,1.27 -3.18,3.53 -3.18,3.53 0,0 -1.12,-6.75 1.91,-15.83 3.03,-9.08 8.02,-19.49 17.69,-28.38 z"
             id="path15587" /><path
             style="fill:#98b715"
             d="m 17.95,7.09 c 0.25,-0.93 4.52,-3.52 6.57,-3.42 2.05,0.1 1.64,0.68 1.93,1.46 0.29,0.78 -1.17,8.2 1.17,12.5 2.11,3.87 4,5.76 8.2,5.66 4.2,-0.1 -5.27,12.4 -5.27,12.4 0,0 -8.11,-4.49 -11.33,-12.79 C 16,14.6 17.56,8.55 17.95,7.09 Z"
             id="path15589" /><path
             style="fill:#ffebca"
             d="m 101.21,85.18 c -1.85,0.09 -3.55,2.61 -2.58,6.03 0.8,2.83 2.83,3.88 4.31,3.69 1.48,-0.18 2.83,-2.46 2.28,-5.66 -0.43,-2.43 -1.55,-4.18 -4.01,-4.06 z"
             id="path15591" /><path
             style="fill:#ffebca"
             d="m 98.75,57.07 c -2.53,0.65 -2.28,3.97 -1.72,5.78 0.55,1.81 2.09,3.02 3.75,2.69 1.66,-0.33 2.65,-2.96 2.21,-4.97 -0.42,-2.02 -1.9,-4.1 -4.24,-3.5 z"
             id="path15593" /><path
             style="fill:#ffebca"
             d="m 85.4,33.62 c -1.84,1.6 -1.05,4.18 0.55,5.91 1.6,1.72 3.69,2.15 5.05,1.11 1.36,-1.04 0.92,-4.68 -0.68,-6.21 -1.6,-1.54 -3.51,-2.04 -4.92,-0.81 z"
             id="path15595" /><path
             style="fill:#ffebca"
             d="m 76.46,54.55 c -1.46,1.31 -1.18,4.16 0.46,6.14 1.64,1.98 4.13,3.1 5.38,1.45 1.25,-1.65 0.33,-4.88 -0.98,-6.6 C 80,53.82 77.7,53.43 76.46,54.55 Z"
             id="path15597" /><path
             style="fill:#fffeff"
             d="m 76.48,58.39 c 1.65,0.99 3.85,-2.49 2.18,-3.66 -1.8,-1.27 -4.25,2.42 -2.18,3.66 z"
             id="path15599" /><path
             style="fill:#ffebca"
             d="m 76.88,79.24 c -1.35,1.68 -0.29,4.13 0.95,5.61 1.43,1.7 4.7,2.77 6.19,1.32 1.73,-1.68 0.95,-4.6 -1.29,-6.62 -1.69,-1.52 -4.49,-2.02 -5.85,-0.31 z"
             id="path15601" /><path
             style="fill:#ffebca"
             d="m 78.94,104.01 c -0.58,2.09 0.3,4.04 4.18,4.68 3.38,0.55 5.11,-1.05 5.05,-2.77 -0.04,-1.17 -1.35,-3.14 -4.55,-3.69 -2.57,-0.45 -4.19,0 -4.68,1.78 z"
             id="path15603" /><path
             style="fill:#ffebca"
             d="m 52.85,95.83 c -1.31,1.96 0.3,4.67 1.91,5.91 1.84,1.42 4.92,1.11 5.72,-0.62 0.8,-1.72 -0.18,-4.06 -2.09,-5.41 -1.91,-1.36 -4.43,-1.54 -5.54,0.12 z"
             id="path15605" /><path
             style="fill:#ffebca"
             d="m 31.87,83.83 c -2.42,2.02 -0.67,5.06 0.86,6.21 1.72,1.29 3.88,2.21 5.78,0.55 1.9,-1.66 0.06,-5.11 -1.11,-6.15 -1.16,-1.04 -3.68,-2.15 -5.53,-0.61 z"
             id="path15607" /><path
             style="fill:#fffffe"
             d="m 33.6,83.88 c -1.63,-0.31 -3.51,2.89 -1.48,4.06 1.89,1.09 3.75,-3.63 1.48,-4.06 z"
             id="path15609" /><path
             style="fill:#ffebca"
             d="m 55.68,74.23 c -1.28,1.93 -0.06,4.92 1.54,5.97 1.6,1.05 4.06,1.78 5.54,-0.12 1.48,-1.91 0.62,-4.37 -1.11,-5.78 -1.72,-1.42 -4.61,-2.1 -5.97,-0.07 z"
             id="path15611" /><path
             style="fill:#ffffff"
             d="m 57.9,73.74 c -1.11,-0.12 -1.78,1.05 -1.97,2.15 -0.18,1.11 0.12,2.21 1.29,2.46 1.17,0.25 1.85,-1.48 1.91,-2.15 0.06,-0.68 -0.06,-2.34 -1.23,-2.46 z"
             id="path15613" /></g><path
           id="path16707"
           style="color:#000000;fill:#161616;fill-opacity:1;stroke-width:0.468665;stroke-linecap:round;stroke-linejoin:round;paint-order:markers stroke fill"
           d="m 43.532161,39.049549 c -3.552742,2.570135 -6.462809,6.028643 -8.306051,10.069656 -3.686483,8.082024 -2.388348,17.112261 3.427813,23.015281 a 1.2400113,1.2400113 0 0 0 1.754165,0.01279 1.2400113,1.2400113 0 0 0 0.0134,-1.753386 C 36.701169,66.618018 35.07731,61.374929 35.790439,55.980515 a 2.1700192,2.1700192 0 0 0 1.408117,0.875049 2.1700192,2.1700192 0 0 0 2.485431,-1.799192 C 41.231405,45.394879 50.264763,38.855677 59.926258,40.40309 a 2.1700192,2.1700192 0 0 0 2.486218,-1.79976 2.1700192,2.1700192 0 0 0 -0.380057,-1.608793 c 5.347137,1.010594 9.819456,4.193931 12.241157,8.909838 a 1.2400113,1.2400113 0 0 0 1.668853,0.536811 1.2400113,1.2400113 0 0 0 0.537025,-1.670208 C 72.693838,37.39906 64.524117,33.339995 55.694899,34.312079 c -4.414601,0.486038 -8.609992,2.167293 -12.162732,4.737432 z m 0.04429,26.86564 c -1.536145,1.11357 -1.988106,3.204786 -1.048928,4.853338 -0.05573,0.0581 8.448604,11.684256 8.448604,11.684256 1.263734,1.451698 3.426153,1.699716 4.985761,0.571844 1.558528,-1.129361 1.998281,-3.26105 1.013881,-4.914954 L 48.51638,66.433226 C 47.243052,65.025541 45.11411,64.802291 43.576455,65.915189 Z M 69.247479,47.332065 c -1.537467,1.113158 -1.990283,3.205335 -1.050692,4.85461 l 8.450369,11.682973 c 1.263733,1.451698 3.426141,1.699704 4.985761,0.571857 1.558531,-1.129374 1.998281,-3.261063 1.013882,-4.914967 0,0 -8.388618,-11.709972 -8.461144,-11.675175 -1.272773,-1.407066 -3.400534,-1.63083 -4.938162,-0.519311 z M 40.868338,73.726449 c -0.79665,0.577208 -1.006062,1.674947 -0.477851,2.50489 -0.02855,-0.01875 5.004747,6.888861 5.004747,6.888861 0.637305,0.698728 1.697478,0.808006 2.463917,0.253965 0.765444,-0.555257 0.992749,-1.596272 0.528057,-2.419847 L 43.397764,74.054396 C 42.774122,73.293183 41.665481,73.14944 40.868338,73.726449 Z M 77.513792,47.198984 c -0.796941,0.577099 -1.00656,1.675064 -0.478244,2.505178 l 4.99639,6.894902 c 0.637245,0.698661 1.697179,0.80785 2.463723,0.25411 0.765681,-0.555084 0.992988,-1.596336 0.528252,-2.419985 0,0 -4.990107,-6.938884 -4.981206,-6.905892 -0.623414,-0.760934 -1.731523,-0.90487 -2.528642,-0.328511 z" /></g></g></g></svg>
