<?xml version="1.0" encoding="UTF-8" standalone="no"?>
<svg
   xmlns:dc="http://purl.org/dc/elements/1.1/"
   xmlns:cc="http://creativecommons.org/ns#"
   xmlns:rdf="http://www.w3.org/1999/02/22-rdf-syntax-ns#"
   xmlns:svg="http://www.w3.org/2000/svg"
   xmlns="http://www.w3.org/2000/svg"
   xmlns:sodipodi="http://sodipodi.sourceforge.net/DTD/sodipodi-0.dtd"
   xmlns:inkscape="http://www.inkscape.org/namespaces/inkscape"
   version="1.0"
   width="639.8493"
   height="873.53766"
   viewBox="0 0 512.75595 698.83013"
   preserveAspectRatio="xMidYMid meet"
   id="svg2"
   sodipodi:version="0.32"
   inkscape:version="0.92.4 (5da689c313, 2019-01-14)"
   sodipodi:docname="gcc-stove.svg"
   inkscape:output_extension="org.inkscape.output.svg.inkscape">
  <defs
     id="defs33" />
  <sodipodi:namedview
     inkscape:window-height="1016"
     inkscape:window-width="1854"
     inkscape:pageshadow="2"
     inkscape:pageopacity="0.0"
     borderopacity="1.0"
     bordercolor="#666666"
     pagecolor="#ffffff"
     id="base"
     inkscape:zoom="0.97048853"
     inkscape:cx="328.88388"
     inkscape:cy="510.20481"
     inkscape:window-x="66"
     inkscape:window-y="27"
     inkscape:current-layer="layer2"
     width="584px"
     height="688.75px"
     showgrid="false"
     inkscape:window-maximized="1"
     fit-margin-top="0"
     fit-margin-left="0"
     fit-margin-right="0"
     fit-margin-bottom="0">
    <inkscape:grid
       type="xygrid"
       id="grid836"
       originx="-11.592088"
       originy="-4.2721823" />
  </sodipodi:namedview>
  <metadata
     id="metadata4">
Created by potrace 1.7, written by Peter Selinger 2001-2005
<rdf:RDF>
  <cc:Work
     rdf:about="">
    <dc:format>image/svg+xml</dc:format>
    <dc:type
       rdf:resource="http://purl.org/dc/dcmitype/StillImage" />
    <dc:title />
  </cc:Work>
</rdf:RDF>
</metadata>
  <g
     inkscape:groupmode="layer"
     id="layer1"
     inkscape:label="Colors"
     style="display:inline"
     transform="translate(-11.592088,152.36277)">
    <path
       style="display:inline;fill:#ffcfab;fill-opacity:1;fill-rule:evenodd;stroke:#000000;stroke-width:4.32739735;stroke-linecap:butt;stroke-linejoin:miter;stroke-miterlimit:4;stroke-dasharray:none;stroke-opacity:1"
       d="m 314.59256,51.488159 c -6.76027,10.33743 -14.86238,18.404069 -21.62265,28.741489 32.04934,37.200502 32.58873,84.351512 96.14801,111.601502 4.51207,-18.46275 9.1559,3.94791 12.84453,11.75388 9.87751,22.33412 11.41517,47.22179 14.49539,71.119 5.82975,45.22892 3.90921,71.70171 -0.23977,96.3823 -13.44425,79.97444 -61.13526,126.653 -106.68463,153.5286 -15.58104,9.1933 -30.57738,15.6206 -52.57332,18.6219 -22.66509,3.0926 -44.87239,1.8682 -67.62562,-2.5652 -18.78435,-3.6601 -37.67752,-9.8286 -55.02691,-17.7795 -27.66265,-12.6774 -50.49619,-34.6199 -68.368866,-58.6912 -17.290849,-23.2877 -28.197122,-51.0763 -36.480272,-78.9223 -15.066541,-50.6501 -21.4366951,-104.5884 -9.418788,-156.69359 7.491185,-32.47899 18.292557,-64.64271 33.064573,-94.29931 15.676121,-31.47171 37.709798,-59.974931 64.381223,-83.609461 16.01673,-14.19302 33.42726,-27.27148 53.0287,-35.16613 14.37849,-5.7910698 29.59909,-7.0958998 45.31163,-6.0597098 15.53576,1.0245298 30.36535,2.7650698 45.16608,8.0285798 20.1406,7.16249 39.12107,18.36592 53.60069,34.00915 z"
       id="path1335"
       sodipodi:nodetypes="ccccssssssssssssssc"
       inkscape:connector-curvature="0" />
  </g>
  <g
     inkscape:groupmode="layer"
     id="layer2"
     inkscape:label="Drawing"
     style="display:inline"
     transform="translate(-11.592088,152.36277)">
    <g
       id="text3047"
       style="font-style:normal;font-weight:normal;font-size:32.05479431px;line-height:125%;font-family:Sans;letter-spacing:0px;word-spacing:0px;fill:#000000"
       font-size="32.05479430999999800px"
       font-style="normal"
       line-height="125%"
       font-weight="normal">
      <path
         id="path3233"
         d="m 124.19,439.45 c -13.659,0 -24.324,-3.3703 -31.996,-10.111 -7.672,-6.7407 -11.508,-16.32 -11.508,-28.737 -9e-6,-9.1354 1.408,-17.583 4.224,-25.344 2.816,-7.7606 6.907,-14.523 12.273,-20.289 5.3216,-5.7206 11.852,-10.2 19.59,-13.437 7.7384,-3.2372 16.441,-4.8558 26.109,-4.856 5.8093,1e-4 11.608,0.69856 17.395,2.0954 5.7872,1.397 11.696,3.6698 17.728,6.8183 l -2.9934,15.034 h -1.1974 c -4.9226,-4.612 -10.277,-7.949 -16.065,-10.011 -5.7873,-2.062 -12.007,-3.0931 -18.659,-3.0932 -7.3173,9e-5 -13.725,1.4414 -19.224,4.3238 -5.499,2.8826 -10.133,6.7186 -13.903,11.508 -3.6808,4.7008 -6.4636,10.178 -8.3483,16.43 -1.8848,6.2529 -2.8271,12.55 -2.8271,18.892 -2.3e-5,9.5346 2.6053,16.896 7.8161,22.085 5.2107,5.1886 12.916,7.7828 23.116,7.7828 4.479,1e-5 8.6808,-0.4102 12.606,-1.2306 3.9246,-0.8204 7.6165,-1.8736 11.076,-3.1597 l 5.5877,-25.344 h -26.408 l 2.5278,-11.109 h 39.646 l -9.845,42.506 c -2.927,1.1974 -5.5656,2.2728 -7.9159,3.2262 -2.3504,0.95345 -5.2995,1.9402 -8.8472,2.9601 -3.06,0.88693 -6.2197,1.6186 -9.4791,2.1952 -3.2595,0.5765 -6.7518,0.86475 -10.477,0.86475 z"
         inkscape:connector-curvature="0" />
      <path
         id="path3235"
         d="m 226.56,439.32 c -12.55,0 -22.395,-3.2484 -29.535,-9.7452 -7.1398,-6.4968 -10.71,-15.71 -10.71,-27.639 -1e-5,-9.1354 1.3747,-17.65 4.1242,-25.544 2.7495,-7.8936 6.6963,-14.812 11.841,-20.754 5.0998,-5.8537 11.375,-10.477 18.825,-13.869 7.4502,-3.3924 15.765,-5.0887 24.945,-5.0888 5.7206,10e-5 11.131,0.69856 16.231,2.0954 5.0998,1.397 10.333,3.6033 15.699,6.6187 l -2.9934,14.9 h -0.9978 c -1.4635,-1.4634 -2.9381,-2.827 -4.4236,-4.091 -1.4857,-1.2638 -3.7141,-2.6496 -6.6853,-4.1575 -2.4391,-1.286 -5.3438,-2.3614 -8.7141,-3.2262 -3.3704,-0.86467 -7.0955,-1.297 -11.175,-1.2971 -6.2086,9e-5 -11.907,1.2972 -17.096,3.8914 -5.1886,2.5944 -9.6898,6.2197 -13.504,10.876 -3.7252,4.5234 -6.652,10.022 -8.7806,16.497 -2.1287,6.4747 -3.193,13.371 -3.193,20.688 -2e-5,9.1354 2.3725,16.242 7.1176,21.32 4.745,5.0777 11.597,7.6165 20.555,7.6165 4.2129,10e-6 8.2152,-0.47672 12.007,-1.4302 3.7916,-0.95344 7.2395,-2.1619 10.344,-3.6253 2.8825,-1.3747 5.4767,-2.816 7.7828,-4.3238 2.3059,-1.5078 4.2794,-2.9047 5.9203,-4.1908 h 0.93128 l -3.1264,15.3 c -4.6565,2.3504 -10.011,4.4679 -16.065,6.3527 -6.0534,1.8847 -12.495,2.8271 -19.324,2.8271 z"
         inkscape:connector-curvature="0" />
      <path
         id="path3237"
         d="m 321.82,439.32 c -12.55,0 -22.395,-3.2484 -29.535,-9.7452 -7.1398,-6.4968 -10.71,-15.71 -10.71,-27.639 -10e-6,-9.1354 1.3747,-17.65 4.1242,-25.544 2.7495,-7.8936 6.6963,-14.812 11.841,-20.754 5.0998,-5.8537 11.375,-10.477 18.825,-13.869 7.4502,-3.3924 15.765,-5.0887 24.945,-5.0888 5.7206,10e-5 11.131,0.69856 16.231,2.0954 5.0998,1.397 10.333,3.6033 15.699,6.6187 l -2.9934,14.9 h -0.9978 c -1.4635,-1.4634 -2.9381,-2.827 -4.4236,-4.091 -1.4857,-1.2638 -3.7141,-2.6496 -6.6852,-4.1575 -2.4392,-1.286 -5.3439,-2.3614 -8.7141,-3.2262 -3.3704,-0.86467 -7.0955,-1.297 -11.175,-1.2971 -6.2086,9e-5 -11.907,1.2972 -17.096,3.8914 -5.1886,2.5944 -9.6898,6.2197 -13.504,10.876 -3.7251,4.5234 -6.652,10.022 -8.7806,16.497 -2.1287,6.4747 -3.193,13.371 -3.193,20.688 -2e-5,9.1354 2.3725,16.242 7.1176,21.32 4.745,5.0777 11.597,7.6165 20.555,7.6165 4.2129,10e-6 8.2152,-0.47672 12.007,-1.4302 3.7916,-0.95344 7.2395,-2.1619 10.344,-3.6253 2.8825,-1.3747 5.4767,-2.816 7.7828,-4.3238 2.3059,-1.5078 4.2794,-2.9047 5.9203,-4.1908 h 0.93128 l -3.1264,15.3 c -4.6565,2.3504 -10.011,4.4679 -16.065,6.3527 -6.0534,1.8847 -12.495,2.8271 -19.324,2.8271 z"
         inkscape:connector-curvature="0" />
    </g>
    <g
       id="g928"
       transform="matrix(0.66830072,-0.74389122,-0.74389122,-0.66830072,289.03193,452.28217)">
      <path
         inkscape:connector-curvature="0"
         id="path2211"
         d="m 165.41055,186.37168 -11.15983,-28.32974 12.01797,-6.00898 24.03805,-3.43462 44.64044,-54.941752 25.68759,5.949925 -0.52019,11.183197 1.54416,16.75532 -29.287,3.88447 z"
         style="display:inline;fill:#f39105;fill-opacity:1;fill-rule:evenodd;stroke:#000000;stroke-width:4.32739735;stroke-linecap:butt;stroke-linejoin:miter;stroke-miterlimit:4;stroke-dasharray:none;stroke-opacity:1"
         sodipodi:nodetypes="cccccccccc" />
      <path
         inkscape:connector-curvature="0"
         sodipodi:nodetypes="ccccccccccccccccccccccccccccccccccccccc"
         id="path4852"
         d="m 166.26869,188.08792 13.73632,22.32076 -13.73632,35.19685 32.62246,6.01002 6.86712,6.86711 20.60344,31.7633 65.24388,-34.33872 19.42269,5.36585 20.92608,-6.22399 -14.59446,-15.45258 2.57544,-4.29272 6.86814,-4.29169 3.43356,11.15985 6.00901,13.73528 16.31071,19.74532 4.29272,-2.57544 0.85814,-12.87714 15.16012,-2.66906 5.35039,-4.15747 13.39273,-1.6232 3.44014,-16.87501 -9.87178,-40.77728 v -17.16988 l 15.45257,-2.57543 13.73528,10.30171 19.74427,5.15088 7.7263,-1.71732 -23.17783,-29.18785 -14.24737,-14.58727 -8.07338,-5.157 -15.45258,-10.30173 -31.7633,1.71626 -24.89512,6.01004 -21.46261,10.30171 -12.87612,-1.7173 -16.31174,-7.72628 -5.15086,-7.7263 -33.47955,-0.85813 z"
         style="display:inline;fill:#ab9a7e;fill-opacity:1;fill-rule:evenodd;stroke:#000000;stroke-width:1.04141939px;stroke-linecap:butt;stroke-linejoin:miter;stroke-opacity:1" />
      <path
         inkscape:connector-curvature="0"
         id="path5728"
         d="m 326.80348,230.15295 4.29169,11.16089 -2.57542,6.86712 -12.87716,-7.72631 3.43461,-6.00899 z"
         style="display:inline;fill:#ffffff;fill-opacity:1;fill-rule:evenodd;stroke:#000000;stroke-width:1.04141939px;stroke-linecap:butt;stroke-linejoin:miter;stroke-opacity:1" />
      <path
         inkscape:connector-curvature="0"
         id="path6604"
         d="m 346.54776,183.79623 13.73528,-12.019 7.72628,-0.85813 2.57545,4.29169 -12.01799,12.87713 -6.86815,2.57545 z"
         style="display:inline;fill:#ffffff;fill-opacity:1;fill-rule:evenodd;stroke:#000000;stroke-width:1.04141939px;stroke-linecap:butt;stroke-linejoin:miter;stroke-opacity:1" />
      <path
         inkscape:connector-curvature="0"
         sodipodi:nodetypes="cccccccccccccccccccc"
         id="path7479"
         d="m 371.39152,124.25784 -42.01259,10.60523 -27.47161,11.15984 -24.037,-6.86711 -8.58442,-10.30173 22.31969,-50.649955 20.91309,-25.900065 13.70091,-5.425417 15.17731,2.995959 15.72449,23.078058 16.47829,11.036147 -1.89793,3.338176 -24.29586,-8.264416 -21.46157,-9.443174 -20.60344,31.763097 -4.29168,11.16088 3.43355,10.30172 55.80029,-9.4436 5.95763,4.95115 z"
         style="display:inline;fill:#ffffff;fill-opacity:1;fill-rule:evenodd;stroke:#000000;stroke-width:1.04141939px;stroke-linecap:butt;stroke-linejoin:miter;stroke-opacity:1" />
      <path
         inkscape:connector-curvature="0"
         sodipodi:nodetypes="ccccccccccccsccccccccc"
         id="path8354"
         d="m 387.75465,130.57033 9.83554,12.58965 6.20627,0.17481 22.94008,25.51657 5.70548,6.91953 10.25479,-6.56911 12.01797,-26.61243 6.66845,-21.15806 0.91055,-17.7245 -5.50576,-6.616015 h -19.24206 l -14.59446,3.433575 c 0,0 -12.01799,6.00898 -8.58443,6.00898 3.43357,0 19.74427,5.15086 19.74427,5.15086 l 6.86818,5.15086 1.71729,7.7263 -9.44359,18.88614 -4.29169,4.29272 -19.74531,-12.87714 -6.00899,-4.29274 -6.01003,-0.85813 z"
         style="display:inline;fill:#ffffff;fill-opacity:1;fill-rule:evenodd;stroke:#000000;stroke-width:1.04141939px;stroke-linecap:butt;stroke-linejoin:miter;stroke-opacity:1" />
      <path
         inkscape:connector-curvature="0"
         sodipodi:nodetypes="cczz"
         id="path5093"
         d="m 379.73571,230.93843 c -0.26557,-1.97285 -13.5064,0 -13.5064,0 0,0 -2.31431,7.89141 1.0623,7.89141 3.3766,0 12.70968,-5.91856 12.4441,-7.89141 z"
         style="display:inline;fill:#ffffff;fill-opacity:1;fill-rule:evenodd;stroke:#9e0000;stroke-width:1.04141939px;stroke-linecap:butt;stroke-linejoin:miter;stroke-opacity:1" />
      <g
         style="fill:#000000;stroke:none"
         id="g6"
         transform="matrix(0.2850198,0,0,-0.2850198,-5.4249234,564.95679)">
        <g
           id="g8">
          <path
             style="fill:#000000;fill-opacity:1;stroke-width:0.35566574"
             d="m 438.77148,180.41211 c -2.42065,-0.11287 -4.8997,0.8721 -8.24609,4.10351 -2.57099,2.48266 -1.47101,1.35752 -3.91992,5.58204 -2.97727,0.72457 -3.95116,-0.17599 -6.41406,1.16406 -9.22859,5.0212 -17.9688,11.43528 -20.89258,8.80859 -7.67272,-6.89306 -15.84283,-8.97451 -19.40821,-5.00586 -1.90152,2.11662 -2.26924,4.65471 -1.21093,5.60547 3.17492,2.8523 7.2109,22.85228 4.83398,25.49805 -1.18846,1.32288 -4.20772,-4.37572 -4.79492,-10.64063 -0.69474,-8.27398 -3.50154,-13.66334 -10.56445,-18.57422 -11.79841,-8.68704 -20.35961,-3.94814 -15.43164,8.12891 l 3.4707,8.37695 -5.82031,-5.22851 c -7.91042,-6.62848 -11.42373,-1.7189 -14.73828,16.40234 -0.75154,5.44471 -1.96011,8.56486 -1.65235,12.10157 3.88519,5.36291 8.40961,9.61876 17.9082,13.97851 4.58145,2.13106 5.783,5.4461 4.39454,9.03906 -2.29048,5.92728 -11.62964,12.60827 -24.46485,15.96094 -9.19786,2.25531 -26.50798,8.21793 -38.84961,12.9082 -12.07705,4.92797 -22.59267,7.35841 -24.49804,8.11133 -5.66337,2.23793 -6.52557,5.13419 0.45117,31.96094 l 7.32226,28.57226 -12.41015,17.53907 c -6.78552,9.68179 -11.82661,19.01781 -11.2168,21 0.34523,1.74449 10.68543,6.73134 22.74414,10.87109 l 21.81836,7.64649 9.30274,27.96289 c 5.11614,15.59293 12.05769,32.34611 14.83789,37.23437 5.21515,8.03202 6.75014,8.45476 14.83593,4.24414 5.15284,-2.5425 13.87054,-9.05509 19.62891,-14.40039 5.75837,-5.3453 11.27911,-10.42502 11.99219,-11.21875 0.97765,-0.55604 16.89284,0.35523 35.40039,2.63867 18.48066,1.78118 38.94317,2.95302 45.47265,2.60352 11.02302,-1.09374 12.47567,-2.17911 19.52149,-16.4082 5.00056,-10.54131 7.18798,-18.35098 12.35195,-19.27556 -0.35635,-0.93939 -0.54036,-1.92411 -0.54492,-2.91601 0.004,-1.40746 -0.82216,-3.69375 -1.84961,-3.53516 -6.58404,2.73789 -11.63605,15.30297 -18.2582,25.91813 -1.6058,7.64157 -4.32656,8.5439 -22.72657,8.26953 -11.57905,0.11609 -29.53037,-1.19027 -40.18554,-2.63476 -28.66045,-3.75482 -31.14627,-3.11896 -46.01758,10.77343 -17.98819,16.82964 -21.53059,16.51641 -29.26563,-0.95117 l -6.30468,-14.26953 12.92383,-3.21094 c 7.21566,-1.6455 31.00656,-4.17898 52.84179,-5.5996 31.37833,-1.93146 41.07861,-4.21268 46.78321,-10.5625 4.04074,-4.49781 11.9661,-11.72233 17.51367,-16.30079 5.4388,-4.25781 8.77203,-6.17123 13.92773,-6.04101 4.00999,0.10128 9.12191,1.43788 17.18555,3.87109 11.52956,3.66437 25.48706,7.42728 26.18957,7.53896 0,0 20.1174,5.76553 31.46873,6.67514 13.44515,1.07745 24.66003,1.48264 34.34951,-3.52855 9.50303,-4.91478 19.51837,-20.93591 18.58594,-28.94531 -0.69046,-3.489 -3.15751,-11.91954 -5.54297,-18.84375 -2.35858,-6.42195 -2.73893,-18.23976 -0.63086,-25.90821 2.34576,-7.93302 2.23463,-14.72727 -0.0391,-14.85742 -6.61015,-1.1573 -15.2157,12.14888 -20.45899,31.82227 l -5.27148,19.17187 c -1.55686,2.78329 -3.04452,4.39262 -4.66797,6.00391 -3.02924,3.00656 -22.69848,-0.55716 -28.25977,-1.60156 -3.11554,-0.58509 -8.92185,-1.48273 -16.42773,-4.2793 -14.05735,-4.80873 -18.03896,-9.24937 -12.02344,-16.40234 0.12571,-0.34074 0.67429,-0.91284 0.9043,-1.16993 2.18961,-2.44722 38.19143,-31.67483 41.84375,-34.1914 6.07672,-4.10308 10.06642,-7.41831 8.26758,-18.11133 -0.99547,-5.91744 -2.93089,-6.04444 -2.47656,-8.17383 1.854,-8.68959 7.52279,-16.4188 10.57421,-22.50977 10.40656,-6.3794 13.61241,-12.24846 12.96289,-29.08789 -0.19246,-8.30086 0.38186,-16.39 1.57032,-17.71289 3.32768,-3.70407 24.69103,1.33133 30.51172,6.56055 5.5561,4.99153 6.8352,13.60413 -4.33204,30.82422 0,0 -6.38587,8.7907 -5.49804,11.26172 0.88782,2.47101 9.3457,-0.85742 9.3457,-0.85742 6.44883,-1.85631 18.09533,-9.81636 26.75977,-17.33203 20.92114,-18.49776 20.86152,-24.28752 -0.5918,-39.25782 -20.95105,-14.99718 -58.1313,-26.83278 -69.4707,-25.77734 -8.47071,0.78843 -9.36524,5.04687 -9.36524,5.04687 l 0.01,-13.75 c -0.6901,-12.03904 -1.72747,-14.91205 -12.89844,-0.62109 -6.82037,8.72528 -13.0052,17.03268 -14.79492,25.94336 -1.99689,11.12418 -5.56959,15.82419 -10.03711,15.03906 l -9.73242,-0.93359 c -4.1567,-1.63128 -7.5293,-4.20508 -7.5293,-4.20508 -5.00007,-4.01387 -14.31703,-15.73112 -17.70703,-22.60156 -6.25085,-13.26551 -18.341,-22.69334 -32.32813,-25.21875 -0.3458,-0.0576 -0.6913,-0.0952 -1.03711,-0.11133 z m 0.26563,6.10156 c 7.6289,0.0251 23.00682,12.99967 28.3457,24.51953 3.65458,7.10814 12.65483,19.97514 20.40821,28.375 l 13.94531,15.875 9.69531,-7.0664 c 7.76744,-5.45285 10.27855,-5.58825 13.58789,-0.22461 2.46185,3.64603 7.56937,9.67036 11.27344,12.99804 3.70407,3.32769 7.3324,9.93389 8.10351,14.92969 1.19701,8.2471 1.19671,8.24551 -4.99609,0.76953 -8.62776,-10.61974 -11.47601,-2.65971 -3.08594,8.22461 7.30488,9.43129 6.38186,10.99274 -19.82226,34.30664 -18.51734,16.35426 -50.70366,31.42512 -56.25977,26.4336 -1.0583,-0.95077 -9.38631,-1.26037 -18.18945,-1.04102 l -16.83985,0.64844 17.24805,-16.53711 c 15.05523,-15.16152 20.20871,-17.70367 42.59571,-22.93164 27.1182,-6.23678 30.8681,-11.47501 5.59765,-8.35938 -18.74096,2.76613 -41.62657,12.80654 -49.97265,21.56446 -4.51615,5.02695 -8.24179,5.98108 -13.42579,3.23633 -9.30967,-4.53876 -12.91622,-15.42795 -12.19336,-34.85938 0.51207,-18.66458 -4.25726,-32.51147 -15.5039,-45.00586 -5.08073,-5.52068 -8.81684,-14.13695 -8.98242,-21.93555 -0.1387,-7.29633 -1.57303,-15.27739 -2.97657,-17.97265 -1.16584,-2.95984 1.69062,-1.34998 6.24219,3.69531 7.43503,7.15763 9.2339,7.81603 12.50781,3.10742 1.68051,-2.72832 6.85081,-9.91966 11.73243,-12.77734 1.17626,-0.68862 3.37131,-1.36021 4.45117,-0.52539 -3.07982,3.50433 -12.1348,18.37572 -14.51172,21.02148 -5.22922,5.82069 -4.18487,20.62294 1.90039,26.08985 2.38119,2.13922 9.17571,2.02849 15.59766,-0.33008 13.58385,-5.00862 14.53372,-6.06649 9.24218,-10.82031 L 422.8457,221.22461 c -6.34984,-5.7046 -5.95477,-7.73988 2.20313,-20.01367 5.14856,-7.32749 10.82581,-14.18016 12.57031,-14.52539 0.43444,-0.1177 0.90938,-0.17355 1.41797,-0.17188 z m 100.92578,2.79688 c 0,0 -0.34462,4.94741 -0.13672,9.77343 0.2079,4.82603 0.96875,9.53125 0.96875,9.53125 1.67239,7.71795 4.29921,19.16238 5.38867,25.40039 2.10094,12.68501 3.29466,22.02012 1.76368,26.56836 -0.76464,2.2716 -1.90909,3.47439 -3.35743,2.62696 -5.36324,-3.13816 -12.27361,-15.35744 -7.62304,-17.87305 5.39052,-2.80708 4.4674,-29.45335 -0.79297,-28.91992 -1.77138,-0.15704 -3.45647,5.97801 -3.08008,13.00976 0.43443,12.82129 -0.0424,13.34951 -6.25781,10.15625 -7.77599,-4.11714 -9.5754,-8.24144 3.43359,-34.6875 5.66209,-11.51051 9.69336,-15.58593 9.69336,-15.58593 z m -93.23242,17.03515 c -12.58627,-0.0664 -21.28789,6.27431 -18.79883,13.40625 0.53686,1.53833 1.85884,3.66299 3.41992,4.69141 1.55665,1.02554 3.66112,2.2044 5.6836,2.11914 3.36573,-0.14135 14.80555,-9.85459 16.52148,-15.04102 1.52942,-4.36337 0.47016,-5.31447 -6.82617,-5.17578 z m 108.83398,0.33008 c 6.85897,-0.12947 17.20645,2.23411 30.33399,7.08008 17.71808,6.35536 33.23278,13.38211 42.01758,22.23047 10.82126,10.16875 7.68775,12.38467 2.75,18.94531 -6.62849,7.91041 -32.08506,26.46116 -36.60547,26.70313 -1.7445,0.34523 5.40218,-7.40422 8.17383,-12.08594 9.21192,-16.10802 7.38227,-23.11841 -0.96485,-29.86914 -8.48459,-6.86189 -17.04874,-10.21786 -25.34961,-10.02539 -10.81221,0.32689 -12.02786,1.1461 -14.29297,10.58593 -1.47564,5.36792 -1.99572,14.46319 -1.22461,19.45899 0.79801,5.49806 -1.09887,12.3993 -3.95117,15.57422 -5.49379,5.58299 -8.28042,3.33428 -10.24609,-6.50391 0.11053,-1.46677 2.25012,-1.21338 4.47656,-5.23437 1.52522,-2.75462 1.39294,-4.74605 1.45508,-6.13868 0.82675,-18.53185 -3.0689,-33.57698 -5.41211,-40.65429 -2.22488,-6.57077 1.06635,-9.91967 8.83984,-10.06641 z m -111.00586,4.49805 c 0.47816,0.0107 0.83373,0.0924 1.01563,0.25586 1.45517,1.3073 -0.93977,3.45734 -3.94727,6.23828 -2.87251,2.65612 -5.76948,4.27448 -7.9414,0.26172 -1.848,-3.41428 7.52592,-6.83053 10.87304,-6.75586 z m -31.71679,13.11328 c 1.81966,0.12886 4.20452,1.29048 6.83789,3.65625 3.70407,3.32768 5.42674,7.26501 4.23828,8.58789 -3.32768,3.70407 -12.58359,0.16981 -14.14844,-5.53906 -1.20812,-4.0437 -0.099,-6.45833 2.32813,-6.69727 0.23596,-0.0232 0.48419,-0.0262 0.74414,-0.008 z m -28.33985,14.60547 1.1211,11.52539 c 0.58719,6.26491 -1.88951,16.47195 -5.84961,22.47656 -13.43661,21.87493 -11.87047,27.58377 11.80273,41.67969 15.60575,9.23882 15.46582,1.94219 -0.32812,-10.8125 l -14.47071,-11.56641 8.58008,-13.80859 c 6.25637,-10.15718 10.35037,-13.64912 15.37305,-13.91797 5.76264,-0.56031 6.69024,2.66327 5.88672,20.58789 -0.53468,22.9473 4.82069,38.27596 15.66406,43.23633 5.68626,2.71787 5.55588,4.99215 -2.62891,16.76367 -4.88398,7.56518 -7.78682,14.51994 -6.72851,15.4707 1.0583,0.95077 8.0101,-0.93272 15.38281,-4.34961 15.01001,-6.59607 32.16827,-6.00399 25.98828,0.875 -1.90153,2.11662 -5.27911,9.6014 -7.41406,16.76758 -2.13495,7.16618 -2.68296,15.7586 -1.49024,19.22071 1.74877,4.43976 -1.02335,9.12126 -12.48632,20.8164 l -14.57813,14.63281 -6.98828,-8.18945 c -4.57846,-5.54756 -7.67132,-6.89291 -9.81055,-4.51172 -1.66384,1.85204 -0.44535,5.81626 2.99414,8.90625 4.78927,4.78072 2.80821,5.39156 -15.59179,5.11719 -15.62409,-0.1711 -23.7956,-2.25184 -29.88086,-7.71875 -4.76238,-4.27845 -9.68068,-6.78577 -10.86914,-5.46289 -2.8523,3.17492 2.44263,12.71381 7.81054,14.18945 2.80281,0.60554 -1.42555,1.58606 -9.19726,2.25391 -7.53403,0.40327 -17.21194,-1.59615 -20.91602,-4.92383 -8.94183,-7.07698 -13.27495,-3.31904 -6.97461,6.16602 4.10308,6.07671 3.89226,6.84224 -1.74023,5.1289 -3.86111,-1.5563 -7.69899,-7.39378 -10.42969,-16.0625 l -4.03125,-14.14062 -21.28711,-7.17188 -21.05078,-7.43554 4.59375,-8.30469 c 2.50707,-4.91942 7.89179,-12.51255 11.66797,-17.24805 6.1531,-7.38126 6.15003,-12.16646 -0.10938,-35.00195 -4.05784,-14.64216 -6.73846,-27.09104 -6.02539,-27.88477 1.42615,-1.58746 46.32487,-19.10145 49.57618,-19.52734 1.5068,-0.0807 1.95893,3.6725 1.46093,8.48437 -2.70078,24.82623 0.40808,40.52736 11.50196,59.57813 6.40788,11.49413 12.41538,20.23932 13.41992,20.18555 5.02268,-0.26885 2.50285,-9.70509 -6.86914,-24.81836 -11.35846,-19.28846 -12.60386,-23.75594 -10.66992,-48.79297 l 1.04101,-18.18946 11.91992,-3.15625 c 11.41775,-3.12969 23.30211,-16.3588 23.53125,-26.19336 -0.37211,-2.24675 3.93233,-6.50647 9.56055,-9.57812 z m 122.77344,2.24219 c 1.77138,0.15703 1.85134,1.66358 0.1875,3.51562 -1.66384,1.85204 -3.17039,1.93395 -3.51562,0.18945 0.15703,-1.77138 1.58362,-3.35984 3.32812,-3.70507 z m -113.19922,8.72656 c 1.29732,0.0216 2.88806,0.70412 4.21094,1.89258 3.96865,3.56537 2.43901,7.92887 -3.08594,8.22461 -4.01814,0.21508 -6.11147,-5.96871 -3.02148,-9.40821 0.44567,-0.49608 1.11809,-0.72192 1.89648,-0.70898 z m 144.35547,61.02539 c 0.12427,0.002 0.21901,0.0324 0.28516,0.0918 3.17492,2.8523 2.50176,12.45426 -2.15235,16.23437 -6.43276,5.22472 -48.77053,34.59572 -51.69922,41.04883 -4.69579,11.08106 11.2281,21.56232 39.67774,26.08398 14.22482,2.26083 27.36423,3.06897 29.79492,1.42774 2.45757,-1.13896 6.44114,-11.42746 8.86328,-22.63867 3.3177,-14.50741 12.26644,-34.12124 14.13477,-34.2793 0.88997,-0.0753 -3.39062,11.29676 -4,16.61133 -0.73569,5.07645 1.09756,15.80711 4.03906,23.70898 3.17919,7.63729 4.66881,16.62508 3.58789,19.95703 -8.86243,22.63751 -30.11526,25.53856 -80.75391,11.12305 -45.24383,-12.4376 -51.53885,-17.1374 -47.3496,-32.97656 4.18923,-15.83917 11.84817,-23.30109 31.88085,-30.16602 11.39087,-3.63196 23.57057,-11.33569 34.84961,-21.76172 8.76622,-8.26095 16.97773,-14.50064 18.8418,-14.46484 z"
             transform="matrix(1.8790135,2.0915459,-2.0915459,1.8790135,948.16858,-161.08626)"
             id="path10"
             inkscape:connector-curvature="0"
             sodipodi:nodetypes="cccccccccccccccccccccccccccccscccccccccccccccccscscccccccccsccccsccccccccccscccccccccccccccccccccccccccccccccccccccccccccccccscccccsccsccccsccccccccccccccsccsccccccccccscccccccccccscccccccscccccccccccccccccsccccccccscccccscccccsccccccccccccc" />
          <g
             id="g24">
            <path
               inkscape:connector-curvature="0"
               id="path26"
               d="m 1312,1403 c 15,-15 31,-24 34,-20 10,10 -26,47 -45,47 -11,0 -8,-7 11,-27 z" />
          </g>
          <g
             id="g28">
            <path
               inkscape:connector-curvature="0"
               id="path30"
               d="m 1247,1365 c -22,-21 -25,-30 -17,-45 6,-11 18,-20 26,-20 21,0 77,57 72,73 -8,23 -52,19 -81,-8 z m 63,5 c 0,-5 -7,-10 -15,-10 -8,0 -19,-9 -25,-20 -6,-11 -16,-17 -22,-14 -7,5 -2,16 16,31 29,24 46,29 46,13 z" />
          </g>
          <path
             inkscape:connector-curvature="0"
             sodipodi:nodetypes="czcszc"
             transform="matrix(3.653849,0,0,-3.653849,0,2013.2708)"
             id="path2180"
             d="m 319.59749,230.14102 c 0,0 -1.82469,1.95234 -3.91569,3.4225 -2.091,1.47017 -4.73975,2.45815 -4.73975,2.45815 0,0 9.85657,12.7417 11.29914,11.09305 1.44257,-1.64865 0.39753,-4.48379 -0.22072,-8.19326 -0.62472,-3.74826 -2.42298,-8.78044 -2.42298,-8.78044 z"
             style="fill:#ffcfab;fill-opacity:1;fill-rule:evenodd;stroke:#000000;stroke-width:1.24000001;stroke-linecap:butt;stroke-linejoin:miter;stroke-miterlimit:4;stroke-dasharray:none;stroke-opacity:1" />
        </g>
      </g>
      <path
         inkscape:connector-curvature="0"
         sodipodi:nodetypes="czzz"
         id="path4122"
         d="m 355.07511,229.87612 c -0.91055,-4.05951 -11.91296,3.49042 -12.06471,7.89142 -0.15175,4.40096 10.69531,12.95377 11.53357,9.10543 0.83466,-3.83186 1.435,-12.96715 0.53114,-16.99685 z"
         style="fill:#ffffff;fill-opacity:1;fill-rule:evenodd;stroke:#000000;stroke-width:1.04141939px;stroke-linecap:butt;stroke-linejoin:miter;stroke-opacity:1" />
    </g>
    <path
       style="fill:#ef2929;fill-rule:evenodd;stroke:none;stroke-width:0.75430197px;stroke-linecap:butt;stroke-linejoin:miter;stroke-opacity:1"
       d="m 351.69658,7.0460934 c 5.9176,-10.9588339 35.45337,-39.8306434 29.04799,-53.5890854 -6.73268,-13.48203 -18.73989,7.179418 -26.63715,-0.852921 -8.09867,-13.941845 -21.57236,7.396619 -32.28287,7.597522 -10.36603,-1.025182 -16.02046,-21.925352 -28.01738,-9.209941 -7.52224,4.537722 -18.02369,12.107621 -25.5345,3.439665 -5.80018,-5.941043 -13.0234,-15.245284 -15.8775,-1.888041 -1.8385,6.961615 -9.80123,11.458837 -9.76305,1.062254 -5.11831,-11.166696 -11.23378,-1.112253 -14.69713,4.881075 -8.93532,4.917447 -27.51284,5.378327 -29.29135,-7.968329 -13.95126,-1.339006 -6.18993,25.252125 2.94652,28.800511 8.31284,5.05302 16.79873,9.409404 26.5093,8.971977 9.56808,-1.708729 18.07153,4.3329456 27.35268,5.1269475 10.37908,0.6356411 20.9117,-6.4057265 30.67572,1.2961251 9.35788,0.1988818 25.5841,9.8094899 33.87536,11.9113734 4.2306,1.0724843 9.82244,7.360201 12.18778,8.362103 5.85435,2.479759 17.53448,-4.290958 19.50558,-7.9412356 z"
       id="path936"
       inkscape:connector-curvature="0"
       sodipodi:nodetypes="scccccccccccccsss" />
    <path
       style="fill:#fcaf3e;fill-rule:evenodd;stroke:none;stroke-width:0.80136985px;stroke-linecap:butt;stroke-linejoin:miter;stroke-opacity:1"
       d="m 254.54073,-27.123451 c 0.49058,1.086647 5.71288,3.05428 6.45603,3.391899 1.24296,0.828637 1.38448,0.984181 2.91943,1.751657 0.38926,0.194628 1.86844,0.934216 2.33554,1.167771 12.09394,4.299113 16.2481,-0.42912 23.93931,5.838854 1.59351,1.59352 9.17869,1.773576 15.45399,7.1068044 3.37272,2.8663888 7.59912,4.4845149 8.11392,4.7419149 8.66904,4.3345134 10.05632,8.4994834 18.80954,5.5817438 1.55223,-0.5174124 5.94648,-1.93964372 8.0137,-4.0068493 3.25367,-3.2536739 8.11638,-5.5046712 6.53767,-10.2122448 -2.36271,-7.045384 6.59039,-16.278271 5.87783,-17.685061 -2.6612,-5.322395 -20.08118,4.543979 -24.61225,5.202362 -8.58252,1.247076 -19.91612,-0.375417 -35.57552,-4.399889 -9.67083,-2.485407 -42.32244,-7.457027 -38.26919,1.521038 z"
       id="path938"
       inkscape:connector-curvature="0"
       sodipodi:nodetypes="sccccssccscsss" />
    <path
       style="color:#000000;clip-rule:nonzero;display:inline;overflow:visible;visibility:visible;opacity:1;isolation:auto;mix-blend-mode:normal;color-interpolation:sRGB;color-interpolation-filters:linearRGB;solid-color:#000000;solid-opacity:1;vector-effect:none;fill:#000000;fill-opacity:1;fill-rule:nonzero;stroke:none;stroke-width:40.49229813;stroke-linecap:butt;stroke-linejoin:miter;stroke-miterlimit:4;stroke-dasharray:none;stroke-dashoffset:0;stroke-opacity:0.95366791;marker:none;color-rendering:auto;image-rendering:auto;shape-rendering:auto;text-rendering:auto;enable-background:accumulate"
       id="path954"
       sodipodi:type="arc"
       sodipodi:cx="285.26578"
       sodipodi:cy="-93.23658"
       sodipodi:rx="123.60624"
       sodipodi:ry="74.580971"
       sodipodi:start="0"
       sodipodi:end="3.1415927"
       d="m 408.87202,-93.23658 a 123.60624,74.580971 0 0 1 -61.80312,64.589016 123.60624,74.580971 0 0 1 -123.60625,-2e-6 123.60624,74.580971 0 0 1 -61.80311,-64.589017 l 123.60624,3e-6 z"
       transform="rotate(-2.0101683)" />
    <ellipse
       id="path956"
       style="color:#000000;clip-rule:nonzero;display:inline;overflow:visible;visibility:visible;opacity:1;isolation:auto;mix-blend-mode:normal;color-interpolation:sRGB;color-interpolation-filters:linearRGB;solid-color:#000000;solid-opacity:1;vector-effect:none;fill:#2e3436;fill-opacity:1;fill-rule:nonzero;stroke:#ffffff;stroke-width:4.00684929;stroke-linecap:butt;stroke-linejoin:miter;stroke-miterlimit:4;stroke-dasharray:none;stroke-dashoffset:0;stroke-opacity:1;marker:none;color-rendering:auto;image-rendering:auto;shape-rendering:auto;text-rendering:auto;enable-background:accumulate"
       cx="286.30881"
       cy="-103.1459"
       rx="123.60624"
       ry="37.551258"
       transform="rotate(-2.0101683)" />
    <path
       style="fill:none;fill-rule:evenodd;stroke:#000000;stroke-width:18.45356941;stroke-linecap:round;stroke-linejoin:miter;stroke-miterlimit:4;stroke-dasharray:none;stroke-opacity:1"
       d="M 46.884532,-85.775789 155.4075,-89.584778"
       id="path977"
       inkscape:connector-curvature="0" />
  </g>
</svg>
