<svg xmlns="http://www.w3.org/2000/svg" width="1400" height="1650" viewBox="0 0 1400 1650"><defs><clipPath id="g"><path d="M111.22-46.964h1296.283v1434.348H111.22z" fill="#3b1e7a" stroke="#c7bed4" stroke-width="6"/></clipPath><clipPath id="f"><path d="M111.22-46.964h1296.283v1434.348H111.22z" fill="#3b1e7a" stroke="#c7bed4" stroke-width="6"/></clipPath><clipPath id="e"><path d="M111.22-46.964h1296.283v1434.348H111.22z" fill="#3b1e7a" stroke="#c7bed4" stroke-width="6"/></clipPath><clipPath id="d"><path d="M111.22-46.964h1296.283v1434.348H111.22z" fill="#3b1e7a" stroke="#c7bed4" stroke-width="6"/></clipPath><clipPath id="c"><path d="M111.22-46.964h1296.283v1434.348H111.22z" fill="#3b1e7a" stroke="#c7bed4" stroke-width="6"/></clipPath><clipPath id="b"><path d="M111.22-46.964h1296.283v1434.348H111.22z" fill="#3b1e7a" stroke="#c7bed4" stroke-width="6"/></clipPath><clipPath id="a"><path d="M111.22-46.964h1296.283v1434.348H111.22z" fill="#3b1e7a" stroke="#c7bed4" stroke-width="6"/></clipPath></defs><path d="M0 0h1400v1650H0z" fill="#3b1e7a"/><path d="M0 1228.58v-51.42l3.083-8.83c7.761-22.229 13.178-29.48 46.553-62.33 48.185-47.426 67.036-62.095 112.63-87.649 13.33-7.47 32.334-18.344 42.234-24.165 36.66-21.557 56.407-32.887 68.325-39.202 15.495-8.212 24.011-13.737 26.556-17.228 1.256-1.723 2.27-5.269 2.726-9.536 1.465-13.712 8.579-27.377 16.73-32.139 8.146-4.759 12.504-9.512 17.186-18.749 8.117-16.012 22.642-27.637 41.484-33.202 12.787-3.777 17.254-7.702 29.264-25.714 21.127-31.684 58.374-65.947 90.729-83.46 11.925-6.455 20.994-12.616 24.573-16.692 3.093-3.523 3.172-3.84 2.644-10.697-.964-12.506-11.099-49.042-17.157-61.848-2.592-5.48-4.668-7.074-13.822-10.618-3.579-1.385-10.767-12.463-22.683-34.955-9.825-18.547-35.83-72.008-44.16-90.789-5.86-13.208-6.023-11.344 2.653-30.357 8.337-18.271 8.574-20.536 3.523-33.644-3.196-8.293-6.794-23.691-10.512-44.975-3.818-21.866-7.071-35.35-11.082-45.94-7.703-20.334-8.477-25.87-8.477-60.61 0-31.885 1.32-48.926 4.507-58.175 2.595-7.532 2.472-8.785-1.091-11.12-1.329-.87-2.416-2.172-2.416-2.892 0-2.309 7.226-8.628 11.04-9.655 6.487-1.747 26.95-25.193 28.475-32.626.267-1.3.742-3.6 1.056-5.113 1.228-5.914 20.773-21.447 34.781-27.642 13.464-5.955 36.702-23.192 64.148-47.585 19.956-17.736 27.621-22.134 46-26.393 14.797-3.428 30.198-5.96 32.017-5.262.916.352 1.483 1.894 1.483 4.033 0 2.503.518 3.629 1.866 4.056 1.026.326 9.913-.533 19.75-1.91 25.663-3.589 42.663-5.601 43.157-5.108.892.893-.96 2.445-7.98 6.685C670.353 80.827 663 86.678 663 88.488c0 2.21 3.338 3.512 9 3.512 8.572 0 9.243.786 8.45 9.884-.774 8.866-.016 10.31 6.334 12.073 10.271 2.852 26.253-.297 32.79-6.462 3.218-3.035 3.58-3.846 2.995-6.723-1.428-7.027-1.204-8.062 2.256-10.414 9.665-6.569 43.342-11.127 74.175-10.04 20.687.73 32.377 2.76 47 8.158 6.325 2.336 18.7 6.619 27.5 9.518 32.45 10.69 56.455 24.88 76.998 45.51 7.725 7.758 20.09 23.294 24.534 30.826l2.153 3.65-2.592.985c-1.426.542-2.593 1.349-2.593 1.793 0 .444 4.738 6.192 10.53 12.775 12.676 14.406 18.828 23.099 24.778 35.01 7.418 14.847 10.778 27.322 12.65 46.957.576 6.05 2.465 25.175 4.198 42.5 4.017 40.168 4.521 70.487 1.305 78.5-1.696 4.224-2.775 5.388-6.955 7.5-6.014 3.038-10.73 8.993-17.422 22-6.732 13.083-9.524 20.255-14.122 36.287-7.442 25.947-12.9 32.468-18.096 21.623-.898-1.876-2.797-8.713-4.219-15.194-3.834-17.477-6.415-21.716-13.22-21.716-9.04 0-33.084 19.079-56.975 45.208-7.724 8.449-13.33 11.734-20.08 11.77-6.218.033-6.846-1.482-3.88-9.362 3.198-8.495 3.19-11.662-.04-14.891-3.832-3.832-11.016-5.168-27.952-5.198-18.5-.033-21.59 1.064-29.384 10.43-11.938 14.344-11.568 20.233 1.419 22.592 6.649 1.208 11.465 3.498 11.465 5.453 0 2.705-2.407 3.25-15.763 3.56-11.597.269-12.63.465-19 3.611-6.451 3.186-7.225 3.327-18.237 3.327-10.89 0-11.785-.158-16.882-2.98-3.105-1.72-13.484-10.627-24.533-21.054-10.533-9.94-21.287-19.54-23.896-21.336-5.664-3.897-10.754-4.963-14.42-3.02-3.596 1.907-9.897 11.946-12.221 19.47-3.926 12.711-8.922 53.967-9.228 76.198-.15 10.917.056 12.58 1.854 15 2.417 3.252 16.52 10.918 28.326 15.396 8.153 3.093 9.133 3.23 24 3.367 17.468.161 23.738 1.543 28.906 6.371 3.77 3.522 4.037 7.37.843 12.19-3.108 4.69-9.9 7.768-20.733 9.396-5.049.758-10.305 2.117-11.681 3.018-2.843 1.863-4.78 5.975-5.838 12.394-.417 2.532-1.724 5.408-3.067 6.75-2.163 2.164-3.151 2.34-13.135 2.342-11.945.002-16.04 1.298-19.648 6.22-1.684 2.297-1.812 3.121-.818 5.301 2.805 6.157 14.853 8.159 56.671 9.416 65.896 1.982 72.97 2.58 80.82 6.84 7.824 4.245 7.98 6.946.625 10.75-5.802 3-25.65 6.434-48.945 8.468-14.48 1.265-28.541 3.316-38.5 5.617-7.87 1.82-25.5 9.672-25.5 11.359 0 2.054 15.732 8.804 23.265 9.982C744.662 733.36 748 736.11 748 746.389c0 4.41-.397 5.293-3.827 8.516-2.105 1.977-10.543 7.107-18.75 11.4-17.846 9.335-23.923 13.579-26.16 18.27-1.59 3.335-1.577 3.69.282 7.195 4.799 9.05 33.815 35.9 47.974 44.391 10.194 6.114 15.215 7.318 30.481 7.307 33.287-.024 67.489-13.664 107.5-42.873 19.904-14.53 23.994-13.294 14.991 4.529-12.065 23.886-27.434 44.673-50.451 68.237-15.533 15.903-30.107 28.422-52.681 45.256-26.224 19.556-35.852 30.147-39.346 43.28-.643 2.418-1.549 10.786-2.012 18.594-.993 16.713-2.197 20.345-7.946 23.974-8.775 5.54-32.207 31.31-33.633 36.988-1.374 5.478 4.953 11.353 16.078 14.928 2.75.884 11.487 2.509 19.416 3.61 15.493 2.152 21.399 4.21 21.886 7.626.65 4.554-9.339 9.383-19.409 9.383-1.93 0-7.997-.93-13.483-2.067-13.293-2.755-14.76-2.238-26.66 9.394-5.088 4.973-9.25 9.615-9.25 10.315 0 .7 3.066 6.13 6.813 12.066 12.342 19.549 17.43 30.141 21.397 44.542.568 2.062 1.444 3.75 1.947 3.75 1.863 0 6.769-3.815 23.843-18.542 18.937-16.334 32.282-27.297 49.5-40.665 12.626-9.803 21.317-18.554 24.372-24.542 1.167-2.288 2.574-7.347 3.127-11.242 1.368-9.645 4.053-17.322 11.08-31.672 6.167-12.596 11.78-21.033 20.05-30.137 22.341-24.593 46.632-69.351 60.894-112.2 8.237-24.75 10.932-38.914 12.079-63.5 1.523-32.652 6.32-69.35 12.94-99 4.134-18.516 5.963-24.327 12.274-39 3.076-7.15 6.683-17.079 8.016-22.064 3.09-11.556 4.827-14.845 8.68-16.44 5.892-2.442 31.018.912 35.201 4.697 1.275 1.153 1.787 3.092 1.787 6.762 0 2.83.54 5.685 1.2 6.345.683.683 3.955 1.2 7.598 1.2 6.383 0 6.408.011 11.05 4.976 4.216 4.51 13.761 10.004 17.43 10.034.672.005 3.679 1.153 6.681 2.55 15.658 7.29 25.153 21.13 42.487 61.94 4.206 9.9 13.252 29.25 20.104 43 13.74 27.575 15.71 33.548 13.113 39.763-1.055 2.525-2.33 3.832-4.097 4.201-1.411.295-3.685.768-5.053 1.052-5.627 1.167-6.884 8.17-2.25 12.54 2.818 2.66 7.107 2.237 15.497-1.529 13.42-6.022 14.3-1.884 4.271 20.044-3.905 8.536-7.365 16.85-7.69 18.474-.527 2.635-.227 3.105 2.794 4.367 1.862.778 7.656 2.629 12.875 4.113 14.764 4.199 20.502 7.666 25.573 15.454 2.335 3.587 5.202 7.098 6.37 7.803 1.167.705 5.274 1.678 9.125 2.162 3.852.483 8.147 1.629 9.546 2.545 3.967 2.6 5.743 7.948 4.811 14.493-1.901 13.359-.81 15.25 18.229 31.588 7.61 6.53 18.295 16.32 23.745 21.755 11.051 11.022 14.19 12.787 28.007 15.754 11.988 2.575 18.36 6.254 21.545 12.438 2.181 4.234 2.48 6.166 2.624 16.937.26 19.43 3.83 23.108 13.579 13.99 4.669-4.368 5.11-4.552 10.604-4.43 3.152.07 6.857-.019 8.232-.194 2.308-.295 3.116.91 10.5 15.654 6.374 12.727 9.055 17 13.187 21.02 5.393 5.246 7.313 8.747 7.313 13.337 0 4.884 3.426 9.422 11.054 14.642 10.53 7.206 12.775 10.663 18.781 28.911 6.005 18.244 9.753 26.129 15.261 32.105 6.215 6.742 9.513 7.887 20.408 7.087 16.779-1.231 30.882 3.917 36.074 13.168 5.01 8.928 11.299 17.75 21.863 30.668l10.559 12.912V1280H0v-51.42zm583.783-606.998c10.094-5.173 29.603-24.425 39.459-38.938 5.135-7.562 11.393-20.91 12.935-27.59 1.817-7.872.936-8.113-20.207-5.532-38.517 4.703-67.348 12.138-79.508 20.504-5.393 3.71-9.462 10.313-9.462 15.352 0 2.036.963 5.596 2.14 7.912 4.844 9.532 22.783 23.054 37.45 28.23 8.689 3.066 11.315 3.075 17.193.062zm128.54-188.956c1.748-.737 6.804-4.229 11.237-7.76 19.436-15.48 43.737-23.34 75.97-24.575 17.417-.668 25.88.119 28.4 2.64.971.97 2.05 3.547 2.399 5.725.89 5.565 3.992 7.995 13.226 10.363 31.895 8.177 59.366 8.996 81.98 2.443 16.71-4.842 20.465-7.94 20.465-16.878 0-10.29-17.973-52.03-30.989-71.97-4.497-6.888-5.307-7.598-12.633-11.076-10.844-5.147-34.812-13.177-45.215-15.147-8.953-1.696-23.312-1.656-86.163.241-25.743.777-34.755-.116-56.078-5.556-8.525-2.175-19.083-4.234-23.461-4.575-16.59-1.294-31.19-5.728-44.392-13.482-7.143-4.196-10.938-7.576-18.482-16.46-7.932-9.343-14.166-11.897-18.182-7.45-2.886 3.197-2.315 11.544 1.485 21.71 1.71 4.574 3.11 9.885 3.11 11.8 0 3.028-.452 3.672-3.463 4.93-1.904.796-10.792 2.132-19.75 2.969-25.431 2.377-38.911 5.423-50.775 11.476-13.26 6.765-15.168 11.378-10.762 26.026 2.099 6.978 2.25 9.338 2.25 35.146 0 15.216.358 28.023.795 28.461.437.438 6.287.877 13 .976 26.562.392 79.856 10.67 116.307 22.43 13.813 4.457 26.916 8.118 33.398 9.333 3.813.714 12.767-.24 16.324-1.74zm287.162 56.31C987.87 482.92 986.83 473 997.813 473c5.53 0 10.077 3.93 11.115 9.609 1.5 8.197-1.697 10.338-9.443 6.327zm35.573-48.113c-4.662-4.662-10.034-13.271-10.049-16.104-.025-4.728 8.383-2.075 15.574 4.913 4.768 4.635 6.188 8.266 4.792 12.258-1.52 4.349-5.291 3.958-10.317-1.067zM779.231 68.04c-2.898-1.062-6.661-2.922-8.362-4.133-2.785-1.983-2.917-2.3-1.324-3.192 4.032-2.257 29.957 2.052 31.973 5.314.876 1.417-3.583 2.838-10.757 3.428-4.697.386-7.577.032-11.53-1.417z" clip-path="url(#a)" transform="translate(-53.766 156.79)" fill="#c7bed3"/><path d="M195.254-24.407v1328.814" clip-path="url(#b)" transform="matrix(1 0 0 .96272 -53.766 180.33)" fill="#3b1e7a" fill-rule="evenodd" stroke="#c7bed3" stroke-width="6.115"/><path d="M195.593 434.348h227.409" clip-path="url(#c)" transform="matrix(1.02922 0 0 1.02922 -59.482 144.097)" fill="none" stroke="#c7bed3" stroke-width="5.83"/><path d="M1342.373-18.983V1309.83" clip-path="url(#d)" transform="matrix(1 0 0 .96224 -53.766 175.056)" stroke-width="6.117" stroke="#c7bed3" fill-rule="evenodd" fill="#3b1e7a"/><path d="M697.898 653.085h647.07" clip-path="url(#e)" transform="translate(-53.766 156.79)" fill="none" stroke="#c7bed3" stroke-width="6"/><path d="M1339.661 1049.492L900.339-43.39" clip-path="url(#f)" transform="matrix(.96272 0 0 .96184 -3.722 196.88)" fill="none" stroke="#c7bed3" stroke-width="6.235"/><path d="M195.638 876.76h232.986" clip-path="url(#g)" transform="translate(-53.766 156.79)" fill="none" stroke="#c7bed3" stroke-width="6"/><path d="M778.956 1213.176h580.262v282.513H778.956z" stroke-width="7" stroke="#c7bed4" fill="#3b1e7a"/><text style="line-height:125%" x="1069.369" y="1341.251" font-weight="400" font-size="40" letter-spacing="0" word-spacing="0" font-family="sans-serif"><tspan x="1069.369" y="1341.251" style="-inkscape-font-specification:'Comic Neue';text-align:center" font-size="47.5" font-family="Comic Neue" text-anchor="middle" fill="#c7bed3">Freedesktop.org</tspan> <tspan x="1069.369" y="1400.626" style="-inkscape-font-specification:'Comic Neue Bold';text-align:center" font-weight="700" font-size="47.5" font-family="Comic Neue" text-anchor="middle" fill="#c7bed3">Lennart Standard Base</tspan></text><circle cx="247.881" cy="401.059" r="1.5"/><path d="M340.208 555.428l35.674 35.71-35.674 35.71" fill="none" stroke="#c7bed3" stroke-width="6"/><path style="isolation:auto;mix-blend-mode:normal;marker:none" d="M1190.211 967.597a258.21 258.21 0 0 1 98.396-19.483" color="#000" overflow="visible" fill="none" stroke="#c7bed4" stroke-width="6"/></svg>