<?xml version="1.0" encoding="UTF-8" standalone="no"?>
<!-- Created with Inkscape (http://www.inkscape.org/) -->

<svg
   width="512"
   height="768"
   viewBox="0 0 135.46667 203.2"
   version="1.1"
   id="svg1"
   inkscape:version="1.4.1 (unknown)"
   sodipodi:docname="aosc-16.svg"
   xml:space="preserve"
   xmlns:inkscape="http://www.inkscape.org/namespaces/inkscape"
   xmlns:sodipodi="http://sodipodi.sourceforge.net/DTD/sodipodi-0.dtd"
   xmlns="http://www.w3.org/2000/svg"
   xmlns:svg="http://www.w3.org/2000/svg"><sodipodi:namedview
     id="namedview1"
     pagecolor="#505050"
     bordercolor="#ffffff"
     borderopacity="1"
     inkscape:showpageshadow="0"
     inkscape:pageopacity="0"
     inkscape:pagecheckerboard="1"
     inkscape:deskcolor="#d1d1d1"
     inkscape:document-units="px"
     inkscape:zoom="5.2972065"
     inkscape:cx="339.3298"
     inkscape:cy="161.78339"
     inkscape:window-width="2560"
     inkscape:window-height="1364"
     inkscape:window-x="0"
     inkscape:window-y="0"
     inkscape:window-maximized="1"
     inkscape:current-layer="layer1" /><defs
     id="defs1" /><g
     inkscape:label="Layer 1"
     inkscape:groupmode="layer"
     id="layer1"><path
       style="fill:#252e33;stroke-linecap:round;stroke-linejoin:round;paint-order:fill markers stroke"
       d="m 39.781157,71.286939 c 0,0 -5.237356,-10.674625 -1.274046,-22.700158 20.955973,-63.584913 27.822658,-13.318367 34.45421,13.418705 z"
       id="path23" /><path
       id="rect1-1-28"
       style="font-variation-settings:'wght' 900;fill:#151d23;fill-opacity:1;stroke:none;stroke-width:2.64583;stroke-linecap:round;stroke-linejoin:round;stroke-dasharray:none;stroke-opacity:0.365;paint-order:stroke markers fill"
       d="M 65.249573,60.977135 63.931029,26.294241 73.651077,61.418857 Z"
       sodipodi:nodetypes="cccc" /><path
       style="stroke-linecap:round;stroke-linejoin:round;paint-order:fill markers stroke"
       d="m 57.130859,16.542969 c -2.081991,-0.419274 -4.261696,0.551214 -6.28125,2.634765 -4.039106,4.167103 -8.337673,13.0283 -13.599609,28.994141 -4.144609,12.575632 1.34375,23.697266 1.34375,23.697266 a 1.3230489,1.3230489 0 0 0 1.542969,0.691406 l 33.18164,-9.28125 A 1.3230489,1.3230489 0 0 0 74.246094,61.6875 C 72.59868,55.045463 70.924533,46.883481 69.009766,39.361328 67.094998,31.839175 64.990826,24.983522 62.214844,20.705078 60.826853,18.565856 59.21285,16.962242 57.130859,16.542969 Z m -0.523437,2.59375 c 1.002321,0.201848 2.194107,1.166706 3.388672,3.007812 2.389129,3.682213 4.556484,10.433544 6.449218,17.869141 1.786694,7.019014 3.363619,14.566865 4.939454,21.060547 L 40.560547,69.695312 C 39.583399,67.35878 36.518599,58.846247 39.763672,49 44.979723,33.173384 49.398547,24.475174 52.748047,21.019531 c 1.67475,-1.727821 2.857054,-2.084661 3.859375,-1.882812 z"
       id="path24" /><path
       style="fill:#ffffff;stroke-linecap:round;stroke-linejoin:round;paint-order:fill markers stroke"
       d="m 39.781158,71.286939 c 0,0 -5.237356,-10.674625 -1.274046,-22.700158 7.253727,-22.009362 12.819363,-30.377752 17.271475,-30.802697 11.377946,-0.02168 0.506278,28.301205 2.343062,45.627266 z"
       id="path21" /><g
       id="g6"><path
         style="fill:#387cd7;fill-opacity:1;paint-order:fill markers stroke"
         d="m 57.273437,33.5625 c -1.276504,-0.173372 -2.517018,0.211696 -3.550781,0.953125 -2.067526,1.482859 -3.530932,4.24944 -4.71289,7.693359 -2.363916,6.887838 -3.430737,16.621788 -3.013672,24.560547 l 2.115234,-0.109375 c -0.402104,-7.653975 0.67437,-17.277623 2.900391,-23.763672 1.11301,-3.243024 2.556841,-5.665726 3.943359,-6.660156 0.693259,-0.497215 1.317066,-0.673436 2.033203,-0.576172 0.716137,0.09727 1.586182,0.512912 2.59961,1.455078 l 1.441406,-1.550781 c -1.228732,-1.14233 -2.479355,-1.828581 -3.75586,-2.001953 z"
         id="path1" /><path
         style="fill:#e7514a;fill-opacity:1;paint-order:fill markers stroke"
         d="m 46.720197,52.127224 c -0.711406,4.884088 -0.964731,10.061988 -0.724103,14.642307 l 2.115234,-0.109375 c -0.270778,-5.154205 0.128936,-11.201598 1.098667,-16.582583 -6.36e-4,0.04469 -2.489798,2.049651 -2.489798,2.049651 z"
         id="path1-0"
         sodipodi:nodetypes="ccccc" /></g><path
       id="rect1-1-2"
       style="font-variation-settings:'wght' 900;fill:#7f97b3;fill-opacity:0.572549;stroke:none;stroke-width:2.64583;stroke-linecap:round;stroke-linejoin:round;stroke-dasharray:none;stroke-opacity:0.365;paint-order:stroke markers fill"
       d="M 47.985848,62.956726 C 54.254513,52.439705 57.931391,37.993475 59.975,23.715189 c -0.03874,13.53593 -3.893209,29.398517 0,40.536914 L 41.274673,70.507559 41.04066,69.230503 Z"
       sodipodi:nodetypes="cccccc" /><path
       style="stroke-linecap:round;stroke-linejoin:round;paint-order:fill markers stroke"
       d="m 55.775391,16.460937 a 1.3230489,1.3230489 0 0 0 -0.123047,0.0059 c -2.991822,0.285563 -5.664133,2.920592 -8.601563,7.958984 -2.93743,5.038393 -6.158035,12.693222 -9.800781,23.746094 -4.144609,12.575632 1.34375,23.697266 1.34375,23.697266 a 1.3230489,1.3230489 0 0 0 1.708984,0.632812 l 18.341797,-7.875 A 1.3230489,1.3230489 0 0 0 59.4375,63.271484 c -0.881579,-8.315781 1.328053,-19.69541 2.404297,-29.027343 0.538122,-4.665967 0.814209,-8.816631 0.140625,-12.046875 -0.336792,-1.615122 -0.92612,-3.038626 -1.970703,-4.097657 -1.044584,-1.059031 -2.539862,-1.641904 -4.236328,-1.638672 z m 0.07813,2.658204 c 1.093744,0.01297 1.743633,0.298778 2.27539,0.83789 0.545857,0.553407 0.989007,1.473431 1.261719,2.78125 0.545424,2.615639 0.35022,6.625323 -0.177734,11.203125 -1.018795,8.833801 -3.137388,19.752433 -2.431641,28.605469 L 40.496094,69.541016 C 39.438626,66.941045 36.601031,58.596132 39.763672,49 43.374653,38.04351 46.56409,30.512192 49.335937,25.757812 c 2.743715,-4.706124 5.054562,-6.467945 6.517579,-6.638671 z"
       id="path22" /><path
       style="fill:#3b484f;fill-opacity:1;stroke-linecap:round;stroke-linejoin:round;paint-order:fill markers stroke"
       d="m 54.659712,130.27224 c 15.045792,0.9192 21.168113,-0.38362 28.335891,-2.93218 -1.76791,9.21988 -6.291709,17.81549 8.809637,29.24678 1.797977,5.66141 1.844902,9.63411 1.453056,14.12259 H 20.160721 c -4.544715,-4.07718 -6.119793,-8.19534 -2.359528,-11.55278 l 36.563876,-23.30486 z"
       id="path54" /><path
       style="font-variation-settings:'wght' 900;fill:none;fill-opacity:1;stroke:#eb514a;stroke-width:2.64583;stroke-linecap:round;stroke-linejoin:round;stroke-dasharray:none;stroke-opacity:1;paint-order:fill markers stroke"
       d="m 55.106017,132.90517 c 1.972721,1.31827 4.570453,2.14229 5.849715,3.80729"
       id="path56"
       sodipodi:nodetypes="cc" /><path
       id="rect1-495-7-08"
       style="font-variation-settings:'wght' 900;fill:#fce6de;fill-opacity:1;stroke:none;stroke-width:2.64583;stroke-linecap:round;stroke-linejoin:round;stroke-dasharray:none;stroke-opacity:0.365;paint-order:stroke markers fill"
       d="m 17.490473,159.0588 9.25941,5.40639 0.27032,6.54342 -6.64632,-0.54064 c -6.211979,-4.50317 -3.423298,-7.80625 -2.88341,-11.40917 z"
       sodipodi:nodetypes="ccccc" /><path
       id="rect1-495-7-0"
       style="font-variation-settings:'wght' 900;fill:#fcfcfc;fill-opacity:1;stroke:none;stroke-width:2.64583;stroke-linecap:round;stroke-linejoin:round;stroke-dasharray:none;stroke-opacity:0.365;paint-order:stroke markers fill"
       d="m 64.069374,153.08559 5.159682,0.55509 0.280643,8.94697 4.308618,3.13958 -4.42714,2.27335 -0.34715,2.96039 -6.578241,0.0617 z"
       sodipodi:nodetypes="cccccccc" /><path
       id="rect1-495-7-3"
       style="font-variation-settings:'wght' 900;fill:#1e272f;fill-opacity:0.65490198;stroke:none;stroke-width:2.64583;stroke-linecap:round;stroke-linejoin:round;stroke-dasharray:none;stroke-opacity:0.365;paint-order:stroke markers fill"
       d="m 33.524213,165.82616 16.333383,-2.3013 3.61632,7.0777 -19.620946,-0.16437 z"
       sodipodi:nodetypes="ccccc" /><path
       id="rect1-495-7-96"
       style="font-variation-settings:'wght' 900;fill:#e0b7aa;fill-opacity:1;stroke:none;stroke-width:2.64583;stroke-linecap:round;stroke-linejoin:round;stroke-dasharray:none;stroke-opacity:0.365;paint-order:stroke markers fill"
       d="m 19.478441,161.37862 6.637345,3.42405 0.720853,5.46213 -4.663976,0.45054 c -2.106561,-3.11224 -2.735271,-6.22448 -2.694222,-9.33672 z"
       sodipodi:nodetypes="ccccc" /><path
       id="rect1-495-7-12"
       style="font-variation-settings:'wght' 900;fill:#b5c3d3;fill-opacity:1;stroke:none;stroke-width:2.64583;stroke-linecap:round;stroke-linejoin:round;stroke-dasharray:none;stroke-opacity:0.365;paint-order:stroke markers fill"
       d="m 27.14812,164.98862 6.10568,0.72086 0.630746,5.46213 -6.285894,-0.36043 z"
       sodipodi:nodetypes="ccccc" /><path
       style="font-variation-settings:'wght' 900;fill:none;fill-opacity:1;stroke:#212a31;stroke-width:2.64583;stroke-linecap:round;stroke-linejoin:round;stroke-dasharray:none;stroke-opacity:1;paint-order:fill markers stroke"
       d="m 29.284634,165.07524 c -0.596318,1.9523 -0.845365,3.7244 -0.09011,5.6767"
       id="path59"
       sodipodi:nodetypes="cc" /><path
       style="font-variation-settings:'wght' 900;fill:none;fill-opacity:0.572549;stroke:#000000;stroke-width:2.64583;stroke-linecap:round;stroke-linejoin:round;stroke-dasharray:none;stroke-opacity:1;paint-order:fill markers stroke"
       d="m 27.858586,164.37918 c -0.725626,2.10269 -1.16735,3.94371 -0.04801,6.0464"
       id="path53"
       sodipodi:nodetypes="cc" /><path
       style="font-variation-settings:'wght' 900;fill:none;fill-opacity:0.572549;stroke:#000000;stroke-width:2.64583;stroke-linecap:round;stroke-linejoin:round;stroke-dasharray:none;stroke-opacity:1;paint-order:fill markers stroke"
       d="m 33.85898,165.10136 c -0.605625,1.94785 -0.391065,4.32837 0.53684,5.584"
       id="path52"
       sodipodi:nodetypes="cc" /><path
       style="fill:#ffffff;stroke-linecap:round;stroke-linejoin:round;paint-order:fill markers stroke"
       d="m 10.805055,139.59029 c 0.72874,-8.35405 48.553849,-8.81548 50.246383,1.53264 -1.227556,8.13646 -0.899399,16.51671 -9.877036,21.10756 -10.264308,5.24881 -27.993049,4.31983 -34.153626,-4.0019 -4.2781,-5.77888 -6.575987,-10.46813 -6.215721,-18.6383 z"
       id="path41" /><path
       id="rect1-88"
       style="font-variation-settings:'wght' 900;fill:#7f97b3;fill-opacity:0.572549;stroke:none;stroke-width:2.64583;stroke-linecap:round;stroke-linejoin:round;stroke-dasharray:none;stroke-opacity:0.365;paint-order:stroke markers fill"
       d="m 11.49064,138.21134 c 6.170583,-4.49412 19.717701,-4.76514 30.786019,-5.26852 -9.196736,2.49711 -23.465151,6.45258 -20.441889,12.4755 l -10.203636,-3.51236 z"
       sodipodi:nodetypes="ccccc" /><path
       style="font-variation-settings:'wght' 900;fill:none;fill-opacity:1;stroke:#3479da;stroke-width:2.64583;stroke-linecap:round;stroke-linejoin:round;stroke-dasharray:none;stroke-opacity:1;paint-order:fill markers stroke"
       d="m 74.146843,131.81036 c -4.469242,1.20321 -10.453448,3.79928 -12.494856,5.97173 -0.675816,0.74845 -0.447199,1.32436 -0.495903,2.15112 l 0.441063,-3.14577"
       id="path57"
       sodipodi:nodetypes="cccc" /><path
       style="font-variation-settings:'wght' 900;fill:none;fill-opacity:1;stroke:#252e33;stroke-width:2.64583;stroke-linecap:round;stroke-linejoin:round;stroke-dasharray:none;stroke-opacity:1;paint-order:fill markers stroke"
       d="m 64.953916,154.09755 c -1.122464,5.62 -0.752766,11.11618 -0.520819,16.51045"
       id="path58"
       sodipodi:nodetypes="cc" /><path
       id="rect1-495-7-5"
       style="font-variation-settings:'wght' 900;fill:#1e272f;fill-opacity:0.654902;stroke:none;stroke-width:2.64583;stroke-linecap:round;stroke-linejoin:round;stroke-dasharray:none;stroke-opacity:0.365;paint-order:stroke markers fill"
       d="m 79.386003,139.86835 c 4.260016,7.08599 8.520031,11.96987 12.780047,16.62794 l 1.352512,14.12939 -14.096187,0.10374 8.556864,-6.07339 c 1.632033,-1.15837 1.028011,-3.9698 -0.465889,-5.19948 -1.577549,-1.29854 -2.394436,-0.90853 -2.168389,-1.99246 -4.281575,-5.58635 -6.41735,-11.6872 -5.958954,-17.59574 z"
       sodipodi:nodetypes="ccccssccc" /><path
       id="rect1-495-7-98"
       style="font-variation-settings:'wght' 900;fill:#1e272f;fill-opacity:0.65490198;stroke:none;stroke-width:2.64583;stroke-linecap:round;stroke-linejoin:round;stroke-dasharray:none;stroke-opacity:0.365;paint-order:stroke markers fill"
       d="m 75.744044,128.89784 6.467882,-0.61783 -1.235668,9.7503 -5.077756,-2.31688 z"
       sodipodi:nodetypes="ccccc" /><path
       id="rect1-49"
       style="font-variation-settings:'wght' 900;fill:#7f97b3;fill-opacity:0.572549;stroke:none;stroke-width:2.64583;stroke-linecap:round;stroke-linejoin:round;stroke-dasharray:none;stroke-opacity:0.365;paint-order:stroke markers fill"
       d="m 46.294648,145.8766 14.510881,-3.90318 -4.770002,17.09073 c -7.90885,5.47554 -13.660824,5.57476 -20.987291,6.82803 5.809992,-5.40278 11.480889,-10.27318 11.246412,-20.01558 z"
       sodipodi:nodetypes="ccccc" /><path
       style="stroke-linecap:round;stroke-linejoin:round;paint-order:fill markers stroke"
       d="m 35.582031,132.01953 c -6.213499,-0.0679 -12.384084,0.44899 -17.152344,1.54102 -2.384129,0.54601 -4.417392,1.22628 -5.984374,2.125 -1.566983,0.89871 -2.8135071,2.12135 -2.9589849,3.78906 -0.00105,0.0188 -0.0017,0.0377 -0.00195,0.0566 -0.3721534,8.43975 2.1257169,13.61251 6.4726559,19.48437 3.427366,4.6297 9.757132,6.98053 16.476563,7.61915 6.719431,0.63861 13.908535,-0.44719 19.34375,-3.22657 4.785157,-2.44696 7.232182,-6.079 8.5,-9.99414 1.267818,-3.91513 1.480842,-8.10896 2.082031,-12.09375 0.02066,-0.13599 0.01998,-0.27437 -0.002,-0.41015 -0.291792,-1.78401 -1.544945,-3.19361 -3.197266,-4.27344 -1.65232,-1.07983 -3.772956,-1.90655 -6.224609,-2.57031 -4.903307,-1.32753 -11.140017,-1.97901 -17.353516,-2.04688 z m -0.0293,2.64649 c 6.045438,0.066 12.126754,0.71782 16.689453,1.95312 2.28135,0.61765 4.18078,1.38943 5.470704,2.23242 1.241376,0.81127 1.826798,1.61717 1.988281,2.39258 -0.591046,4.03849 -0.851237,7.98893 -1.941406,11.35547 -1.119402,3.45681 -2.995021,6.30924 -7.1875,8.45312 -4.829094,2.46943 -11.637511,3.54333 -17.888672,2.94922 -6.251161,-0.5941 -11.866398,-2.86851 -14.59961,-6.56054 -4.200363,-5.67388 -6.292408,-9.87973 -5.955078,-17.74805 0.04209,-0.42058 0.447414,-1.03303 1.632813,-1.71289 1.194549,-0.68511 3.031366,-1.3295 5.259765,-1.83985 4.456798,-1.02069 10.485813,-1.54064 16.53125,-1.4746 z"
       id="path42"
       sodipodi:nodetypes="cssccssssccsscccsscsssscssc" /><path
       id="rect1-495-7-7"
       style="font-variation-settings:'wght' 900;fill:#fce6de;fill-opacity:1;stroke:none;stroke-width:2.64583;stroke-linecap:round;stroke-linejoin:round;stroke-dasharray:none;stroke-opacity:0.365;paint-order:stroke markers fill"
       d="m 57.664123,152.61831 5.858367,1.27295 -1.511631,16.59573 -8.642951,-0.0796 c -3.703862,-0.96128 -6.527452,-16.22493 4.296215,-17.78912 z"
       sodipodi:nodetypes="ccccc" /><path
       id="rect1-495-7-73"
       style="font-variation-settings:'wght' 900;fill:#212b33;fill-opacity:0.67148012;stroke:none;stroke-width:2.64583;stroke-linecap:round;stroke-linejoin:round;stroke-dasharray:none;stroke-opacity:0.365;paint-order:stroke markers fill"
       d="m 63.88133,164.60273 9.517341,0.84669 -4.99547,4.85009 -5.368561,-0.0847 z"
       sodipodi:nodetypes="ccccc" /><path
       id="rect1-495-7-9"
       style="font-variation-settings:'wght' 900;fill:#e0b7aa;fill-opacity:1;stroke:none;stroke-width:2.64583;stroke-linecap:round;stroke-linejoin:round;stroke-dasharray:none;stroke-opacity:0.365;paint-order:stroke markers fill"
       d="m 52.054534,155.30981 c 0.02696,4.56506 2.918706,10.83269 9.310409,11.36506 l -0.179631,4.49586 -8.363557,-0.56257 c -3.99871,-4.93954 -1.923294,-10.35881 -0.767221,-15.29835 z"
       sodipodi:nodetypes="ccccc" /><path
       style="stroke-linecap:round;stroke-linejoin:round;paint-order:fill markers stroke"
       d="m 16.919921,158.16992 c -2.149028,1.91881 -2.932503,4.43842 -2.335938,6.81445 0.596566,2.37604 2.312751,4.57328 4.69336,6.70899 0.242334,0.2182 0.556716,0.33923 0.882812,0.33984 h 73.097656 c 0.686577,1.2e-4 1.259166,-0.52496 1.31836,-1.20898 0.398524,-4.56497 0.340242,-8.81343 -1.509766,-14.63867 -0.08294,-0.26071 -0.244655,-0.48931 -0.46289,-0.6543 -7.372762,-5.58097 -9.722149,-10.19656 -10.214844,-14.54688 -0.492695,-4.35031 0.997313,-8.6543 1.90625,-13.39453 0.192767,-1.00446 -0.778396,-1.83844 -1.742187,-1.49609 -7.077822,2.51658 -12.864453,3.77065 -27.8125,2.85742 -0.734197,-0.0451 -1.364196,0.51736 -1.402343,1.25195 l -0.227914,4.33036 -0.0299,0.56808 2.670557,0.49487 -0.02293,-0.47299 0.184406,-3.49258 c 12.58863,0.66771 19.088644,-0.35198 25.304688,-2.35547 h -4e-6 c -0.87105,3.80762 -1.94367,7.71097 -1.457031,12.00781 0.567144,5.00768 3.463665,10.29854 10.849609,16.01367 1.479009,4.79299 1.609849,8.28855 1.349609,12.08985 H 20.734375 c -1.943333,-1.82049 -3.219897,-3.59482 -3.583984,-5.04492 -0.383392,-1.52699 -0.06933,-2.7394 1.501953,-4.16016 z"
       id="path55"
       sodipodi:nodetypes="csccccccscccccccccccscccscc" /><path
       id="rect1-495-7-63"
       style="font-variation-settings:'wght' 900;fill:#ffffff;fill-opacity:1;stroke:none;stroke-width:2.64583;stroke-linecap:round;stroke-linejoin:round;stroke-dasharray:none;stroke-opacity:0.365;paint-order:stroke markers fill"
       d="m 92.15305,24.858239 c 16.38625,-17.2444586 16.41897,4.319406 11.53799,16.640985 L 96.903664,75.675446 C 91.008278,70.320106 84.789835,65.038714 76.792142,62.626604 78.804747,44.443294 86.143564,35.847165 92.15305,24.858239 Z"
       sodipodi:nodetypes="ccccc" /><path
       style="fill:#252e33;stroke-linecap:round;stroke-linejoin:round;paint-order:fill markers stroke"
       d="m 22.127349,95.959288 c -0.05134,-2.115924 0.287125,-4.191855 1.175884,-5.272371 0.896322,-1.089712 3.039,-1.297996 3.480748,-2.207761 0.769642,-1.585052 -0.212481,-2.24162 0.811508,-3.829308 0.544112,-0.843642 1.584626,-0.483827 2.202509,-1.464045 5.763421,-9.143166 14.987735,-20.498914 35.371889,-21.596406 23.816737,-1.282304 37.418003,19.774087 42.889603,34.333754 1.00504,2.674358 2.38164,7.128949 2.83059,8.982489 1.47984,1.10799 2.69072,3.76632 3.05016,5.32914 0.81276,3.53385 -0.87991,4.13496 -2.3736,6.21897 4.45499,28.49907 7.17365,31.67844 -1.52857,41.02963 1.60526,1.54569 1.46464,3.09137 1.94406,4.63706 3.86364,1.45545 7.3308,4.89334 10.85498,8.04607 H 97.455581 l 0.225339,-5.24505 c -0.870308,-1.57743 -1.638065,-3.22323 -1.461633,-5.49848 -12.008338,-7.28468 -18.842521,-12.65518 -14.059416,-31.58694 -7.954611,3.30856 -18.51369,3.11757 -27.879201,2.19319 l 0.319303,6.18503 c 0,0 -5.839605,-4.53893 -28.248742,-2.27982 -5.217448,-6.97996 -5.580135,-14.26104 -1.234899,-34.456691 -2.294088,-0.81256 -2.937706,-1.405009 -2.988983,-3.518461 z"
       id="path16" /><path
       id="rect1-495-7-189"
       style="font-variation-settings:'wght' 900;fill:#151d23;fill-opacity:1;stroke:none;stroke-width:2.64583;stroke-linecap:round;stroke-linejoin:round;stroke-dasharray:none;stroke-opacity:0.365;paint-order:stroke markers fill"
       d="m 79.072632,63.615662 c 5.487118,3.088664 10.028667,2.71024 17.2884,12.298493 L 94.169222,89.51724 C 92.1943,76.108272 85.864481,69.339053 79.072632,63.615662 Z"
       sodipodi:nodetypes="cccc" /><g
       id="g69"><path
         style="fill:#4685da;fill-opacity:1;stroke-linecap:round;stroke-linejoin:round;paint-order:fill markers stroke"
         d="m 98.09375,36.658203 c -0.929886,0.266131 -1.865747,0.831496 -2.734375,1.693359 -3.474512,3.447455 -6.953031,11.500933 -10.689453,27.455079 a 1.0583349,1.0583349 0 0 0 0.789062,1.271484 1.0583349,1.0583349 0 0 0 1.271485,-0.789063 C 90.434201,50.4745 94.094396,42.589211 96.851562,39.853516 c 1.378584,-1.367848 2.260161,-1.483803 3.160158,-1.126954 0.89999,0.35685 1.95223,1.491318 2.8457,3.1875 a 1.0583349,1.0583349 0 0 0 1.42969,0.44336 1.0583349,1.0583349 0 0 0 0.44336,-1.429688 c -1.0158,-1.928409 -2.2516,-3.498733 -3.93945,-4.167968 -0.843931,-0.334618 -1.767384,-0.367694 -2.69727,-0.101563 z"
         id="path68" /><path
         style="fill:#e75750;fill-opacity:1;stroke-linecap:round;stroke-linejoin:round;paint-order:fill markers stroke"
         d="m 88.134712,52.970337 c -1.134601,3.562393 -2.286878,7.806754 -3.464786,12.836305 -0.133098,0.568984 0.220127,1.138168 0.78906,1.271484 0.568983,0.133095 1.138165,-0.220131 1.27148,-0.789063 1.389936,-5.934888 2.773741,-10.753057 4.105989,-14.601419 0.0127,-0.0089 -2.701743,1.282693 -2.701743,1.282693 z"
         id="path68-9"
         sodipodi:nodetypes="cccccc" /></g><path
       id="rect1-495-7-78"
       style="font-variation-settings:'wght' 900;fill:#7f97b3;fill-opacity:0.57254905;stroke:none;stroke-width:2.64583;stroke-linecap:round;stroke-linejoin:round;stroke-dasharray:none;stroke-opacity:0.365;paint-order:stroke markers fill"
       d="M 104.99162,32.612881 95.874211,76.053434 C 90.016068,70.916688 84.764253,64.567287 77.316962,62.608837 l 0.508343,-2.445134 c 5.831516,0.584376 7.645305,1.670968 11.02336,2.562027 6.955279,-9.407899 10.776933,-20.069248 16.142955,-30.112849 z"
       sodipodi:nodetypes="cccccc" /><path
       id="rect1-9"
       style="font-variation-settings:'wght' 900;fill:#151d23;fill-opacity:1;stroke:none;stroke-width:2.64583;stroke-linecap:round;stroke-linejoin:round;stroke-dasharray:none;stroke-opacity:0.365;paint-order:stroke markers fill"
       d="m 88.091282,108.093 1.069265,-4.06941 c 0,0 3.287338,2.94666 4.298093,3.29775 1.57101,0.54569 3.09018,-0.687 4.523797,-0.21038 2.848773,0.94709 0.828099,2.82602 5.481193,2.67956 4.59969,-0.14478 3.33256,-4.68712 3.33256,-4.68712 0.42697,1.59725 5.11493,0.2326 5.6832,1.82591 0.29234,0.81967 1.46259,4.26981 0.96341,5.91645 -0.58464,1.92851 -2.86843,2.07583 -2.65755,3.03356 2.31887,10.53122 3.19858,20.99527 4.96356,31.47111 l -4.97078,9.60714 -12.244566,1.85648 c 0,0 -2.327336,-3.59551 -2.841865,-8.64734 -0.514529,-5.05183 -0.675294,-9.53225 1.828587,-1.90785 2.503884,7.62441 3.843414,7.97498 3.843414,7.97498 0,0 4.30961,-4.11796 4.42195,-9.24902 0.11233,-5.13106 -5.874677,-32.04457 -5.874677,-32.04457 l -1.033659,-1.28732 c 0,0 -2.750893,-1.07391 -3.078221,0.55747 -0.790101,3.93781 -1.163024,12.49857 -1.237439,16.07528 -0.105245,5.0585 -1.139747,3.68215 -1.416688,0.31032 -0.276941,-3.37183 -0.08117,-13.90064 -0.999655,-16.26228 -0.918487,-2.36163 -4.053929,-6.24072 -4.053929,-6.24072 z"
       sodipodi:nodetypes="ccssscsscccczzczccsszzc" /><path
       id="rect1-6"
       style="font-variation-settings:'wght' 900;fill:#151d23;fill-opacity:1;stroke:none;stroke-width:2.64583;stroke-linecap:round;stroke-linejoin:round;stroke-dasharray:none;stroke-opacity:0.365;paint-order:stroke markers fill"
       d="m 23.878048,91.321562 c 0,0 1.297496,2.078989 2.772176,1.773249 1.407363,-0.291784 1.413346,-1.032124 2.368637,-1.40505 1.704455,-0.665382 1.514464,0.05761 2.864142,-0.436479 2.155372,-0.789036 2.340329,-3.454533 3.592904,-3.574685 3.263301,-0.313027 6.331369,0.939739 6.331369,0.939739 -0.827119,2.19469 -4.333441,1.57825 -4.737848,3.577198 -6.504877,32.152966 6.942829,33.661386 17.944109,38.485356 l -0.248091,4.32974 -19.985913,-2.21046 C 29.73173,122.90086 30.578044,107.80695 30.00602,101.63314 l -4.378011,1.61786 c -3.333392,-4.086566 -3.01433,-9.073838 -1.749961,-11.929438 z"
       sodipodi:nodetypes="csssscscccccc" /><path
       id="rect1-15"
       style="font-variation-settings:'wght' 900;fill:#151d23;fill-opacity:1;stroke:none;stroke-width:2.64583;stroke-linecap:round;stroke-linejoin:round;stroke-dasharray:none;stroke-opacity:0.365;paint-order:stroke markers fill"
       d="m 52.586278,80.909929 c 6.211516,4.311949 12.529413,7.252484 19.070493,8.466529 0.679833,0.126179 1.754717,-5.487121 2.423821,-5.31922 0.738866,0.185407 0.653669,3.41231 1.540016,5.075926 0.515988,0.968477 2.228389,1.018608 2.811296,1.051758 l -3.156178,6.017207 -17.916653,-3.968833 -1.29674,-3.171223 -4.307887,1.480654 z"
       sodipodi:nodetypes="ccsscccccc" /><ellipse
       style="font-variation-settings:'wght' 900;fill:#151d23;fill-opacity:1;stroke:none;stroke-width:1.92168;stroke-linecap:round;stroke-linejoin:round;stroke-dasharray:none;stroke-opacity:1;paint-order:fill markers stroke"
       id="path15-2-4"
       cx="-18.213465"
       cy="81.663071"
       rx="1.603434"
       ry="2.2386422"
       transform="matrix(0.27894104,-0.96030823,0.5846892,0.81125738,0,0)" /><ellipse
       style="font-variation-settings:'wght' 900;fill:#151d23;fill-opacity:1;stroke:none;stroke-width:1.92168;stroke-linecap:round;stroke-linejoin:round;stroke-dasharray:none;stroke-opacity:1;paint-order:fill markers stroke"
       id="path15-2-4-1"
       cx="-22.366497"
       cy="77.344223"
       rx="1.603434"
       ry="2.2386422"
       transform="matrix(0.17320046,-0.98488659,0.66918374,0.74309698,0,0)" /><path
       style="font-variation-settings:'wght' 900;fill:none;fill-opacity:1;stroke:#000000;stroke-width:2.64583;stroke-linecap:round;stroke-linejoin:round;stroke-dasharray:none;stroke-opacity:1;paint-order:fill markers stroke"
       d="m 33.647242,82.880494 c -2.058651,0.457478 -3.587916,-0.510603 -5.795325,1.770337 -0.669198,0.69149 0.204596,2.336264 -0.920102,4.214374 -0.741864,1.238822 -3.315398,1.101402 -3.925059,2.446229 -1.872743,4.131008 -0.358268,9.249646 1.943599,8.674184 0,0 2.125166,-0.01081 3.106836,-0.641188 0.981671,-0.630377 0.537191,-1.793934 2.150648,-3.143025 0.331108,-0.276857 2.273415,0.418349 3.899785,-0.716071 0.772391,-0.538756 2.258124,-3.926943 3.184783,-4.620657 1.024549,-0.766996 2.501129,-0.643915 3.599701,-1.409519 1.065919,-0.742849 1.065459,-2.909653 2.101919,-3.658055 0.89203,-0.644113 2.641029,-0.668359 3.52376,-1.19694 1.004266,-0.601356 1.247752,-2.684034 2.057564,-3.189333 2.315003,-1.444497 4.416456,-0.892151 4.416456,-0.892151"
       id="path12"
       sodipodi:nodetypes="csssczsssssssc" /><ellipse
       style="font-variation-settings:'wght' 900;fill:#151d23;fill-opacity:1;stroke:none;stroke-width:1.14725;stroke-linecap:round;stroke-linejoin:round;stroke-dasharray:none;stroke-opacity:1;paint-order:fill markers stroke"
       id="path15-2-4-1-6"
       cx="-109.0567"
       cy="50.176563"
       rx="0.68482304"
       ry="1.868148"
       transform="matrix(-0.3361395,-0.94181221,0.95694954,-0.29025433,0,0)" /><ellipse
       style="font-variation-settings:'wght' 900;fill:#151d23;fill-opacity:1;stroke:none;stroke-width:1.64248;stroke-linecap:round;stroke-linejoin:round;stroke-dasharray:none;stroke-opacity:1;paint-order:fill markers stroke"
       id="path15-2-4-1-6-5"
       cx="-116.56567"
       cy="51.025547"
       rx="0.98043954"
       ry="2.6745684"
       transform="matrix(-0.3361395,-0.94181221,0.95694954,-0.29025433,0,0)" /><ellipse
       style="font-variation-settings:'wght' 900;fill:#151d23;fill-opacity:1;stroke:none;stroke-width:2.35607;stroke-linecap:round;stroke-linejoin:round;stroke-dasharray:none;stroke-opacity:1;paint-order:fill markers stroke"
       id="path15-2"
       cx="96.645699"
       cy="64.442688"
       rx="2.0571015"
       ry="2.622963"
       transform="matrix(0.98161772,0.19085767,-0.31822891,0.9480139,0,0)" /><path
       id="rect1-4"
       style="font-variation-settings:'wght' 900;fill:#151d23;fill-opacity:1;stroke:none;stroke-width:2.64583;stroke-linecap:round;stroke-linejoin:round;stroke-dasharray:none;stroke-opacity:0.365;paint-order:stroke markers fill"
       d="m 102.01458,163.38267 10.70842,-1.0304 8.93013,7.50052 -13.97135,0.68693 z"
       sodipodi:nodetypes="ccccc" /><path
       style="fill-opacity:0.992157;stroke-linecap:round;stroke-linejoin:round;paint-order:fill markers stroke"
       d="m 65.099609,60.267578 c -20.85195,1.122678 -30.580443,12.949066 -36.419922,22.212891 -0.09137,0.144949 -0.05783,0.107054 -0.4375,0.236328 -0.379665,0.129274 -1.231139,0.400194 -1.757812,1.216797 -0.661429,1.025541 -0.736116,2.070989 -0.712891,2.68164 0.02323,0.610652 0.07916,0.75609 -0.177734,1.285157 0.128893,-0.26545 -0.201283,0.09919 -0.902344,0.40039 -0.70106,0.301203 -1.659729,0.632584 -2.410156,1.544922 -1.312163,1.595273 -1.531831,3.868632 -1.476563,6.146484 0.02882,1.187902 0.259689,2.269737 0.984375,3.089844 0.48963,0.5541 1.125897,0.898022 1.832032,1.205079 -1.997181,9.46096 -2.994063,16.22312 -2.794922,21.42578 0.207824,5.42951 1.732851,8.82961 4.464844,12.4845 0.278326,0.37186 0.731268,0.57054 1.193359,0.52344 11.105185,-1.11954 18.038176,-0.54601 22.134766,0.27344 2.048295,0.40972 3.388541,0.88143 4.191406,1.23047 0.802864,0.34903 0.978515,0.5039 0.978515,0.5039 0.893669,0.69392 2.189533,0.0187 2.132813,-1.11133 l -0.242188,-4.16028 c 8.268575,0.7366 17.23565,0.73464 24.773438,-1.75 -1.798246,8.38341 -1.300556,14.36424 1.287109,18.94141 2.726924,4.82349 7.49668,8.03122 13.259766,11.54687 0.04949,1.97893 0.625705,3.6177 1.345703,4.96875 l -0.210937,4.94531 c -0.0329,0.75209 0.567505,1.38002 1.320312,1.38086 h 25.382812 c 1.21572,3.1e-4 1.78825,-1.50145 0.88086,-2.31054 -3.29681,-2.94933 -6.64005,-6.24395 -10.5918,-7.95899 -0.23051,-1.01443 -0.43415,-2.32668 -1.39843,-3.70898 3.84904,-4.36164 5.47573,-7.98749 5.33007,-13.39844 -0.15297,-5.68263 -1.91804,-13.52222 -4.08984,-27.29883 0.58071,-0.70896 1.22429,-1.30929 1.78516,-2.25 0.6632,-1.11234 0.93158,-2.64855 0.47656,-4.62695 -0.39336,-1.7103 -1.43719,-4.024 -3.12891,-5.57812 -0.51143,-2.0508 -1.79598,-6.218227 -2.80468,-8.902349 C 106.50797,88.035888 101.67355,78.983384 94.419922,71.871094 87.166295,64.758804 77.409652,59.6048 65.099609,60.267578 Z m 0.140625,2.642578 c 11.506695,-0.619525 20.459035,4.114363 27.328125,10.84961 6.869091,6.735246 11.569261,15.490382 14.251951,22.628906 0.9748,2.593895 2.36575,7.104598 2.78321,8.828128 0.0726,0.29925 0.24739,0.5638 0.49414,0.74804 0.94434,0.70705 2.26531,3.31672 2.55273,4.56641 0.35774,1.55545 0.1854,2.08701 -0.16797,2.67969 -0.35337,0.59268 -1.14063,1.28728 -1.99023,2.47265 -0.20225,0.28184 -0.28571,0.63183 -0.23242,0.97461 2.23267,14.28269 4.01231,22.25314 4.15429,27.52735 0.14198,5.2742 -1.09038,7.82592 -5.34375,12.39648 -0.49125,0.52835 -0.46866,1.35287 0.0508,1.85352 1.26003,1.21327 1.02263,2.22223 1.59766,4.07617 0.12048,0.39044 0.41461,0.70331 0.79688,0.84765 2.59572,0.97782 5.18133,3.15362 7.80273,5.48438 H 98.835937 l 0.166016,-3.86523 c 0.0107,-0.24225 -0.04538,-0.48278 -0.162109,-0.69532 -0.841263,-1.52478 -1.450541,-2.82652 -1.300782,-4.75781 0.03895,-0.49792 -0.205801,-0.97533 -0.632812,-1.23437 -5.976063,-3.62529 -10.457671,-6.69363 -12.861328,-10.94532 -2.403658,-4.25168 -2.949184,-9.89354 -0.601563,-19.18554 0.266072,-1.05574 -0.785748,-1.96304 -1.791015,-1.54493 -7.554658,3.14221 -17.955676,3.01424 -27.242188,2.09766 -0.805461,-0.0794 -1.49284,0.57647 -1.451172,1.38477 l 0.208985,4.02148 c -0.981982,-0.38762 -2.143105,-0.81215 -4.029297,-1.18945 -4.286359,-0.85741 -11.337783,-1.34885 -22.03711,-0.34766 -2.224296,-3.1363 -3.45169,-6.2388 -3.632812,-10.9707 -0.191573,-5.00494 0.777257,-11.79701 2.941406,-21.855471 0.139912,-0.650228 -0.224644,-1.303252 -0.851562,-1.52539 -1.088365,-0.385496 -1.603646,-0.692771 -1.78711,-0.900391 -0.183463,-0.20762 -0.299809,-0.476793 -0.322265,-1.402344 -0.04741,-1.953996 0.409645,-3.834631 0.875,-4.40039 0.145895,-0.177374 0.707313,-0.494067 1.412109,-0.796875 0.704796,-0.302808 1.667641,-0.498614 2.238281,-1.673828 0.512747,-1.055986 0.460835,-2.030199 0.441407,-2.541016 -0.01943,-0.510817 -0.07155,-0.586291 0.291015,-1.148438 0.01744,-0.02704 -0.04242,3e-4 0.388672,-0.146484 0.43109,-0.146784 1.295752,-0.494809 1.822266,-1.330078 5.687363,-9.022507 14.405907,-19.908163 34.322265,-20.980469 z"
       id="path17"
       sodipodi:nodetypes="ssssscsssscsccssccccsccccccccscsscssssssccssccsccccccccccscccccscsscssssssssss" /><path
       id="rect1-495-7-18"
       style="font-variation-settings:'wght' 900;fill:#252e33;fill-opacity:1;stroke:none;stroke-width:2.64583;stroke-linecap:round;stroke-linejoin:round;stroke-dasharray:none;stroke-opacity:0.365;paint-order:stroke markers fill"
       d="m 106.78843,22.752184 c 3.38507,8.540474 3.31075,54.892373 3.13774,82.644706 l -2.80258,0.10877 -1.97676,-4.56514 -3.48808,-0.74491 -2.605907,-4.789702 -3.835859,-2.047998 z"
       sodipodi:nodetypes="cccccccc" /><path
       style="font-variation-settings:'wght' 900;fill:none;fill-opacity:0.590253;stroke:#000000;stroke-width:2.64583;stroke-linecap:round;stroke-linejoin:round;stroke-dasharray:none;stroke-opacity:1;paint-order:fill markers stroke"
       d="m 10.983946,140.06659 c 8.091887,10.42164 46.731902,5.75727 49.896061,1.02177"
       id="path29"
       sodipodi:nodetypes="cc" /><path
       style="font-variation-settings:'wght' 900;fill:none;fill-opacity:1;stroke:#3b7ed8;stroke-width:1.05833335;stroke-linecap:round;stroke-linejoin:round;stroke-dasharray:none;stroke-opacity:1;paint-order:fill markers stroke"
       d="m 16.155889,148.60463 c -0.52742,4.63889 0.626252,6.08192 3.300137,5.51665 l 0.04925,-5.22112"
       id="path30"
       sodipodi:nodetypes="ccc" /><path
       style="font-variation-settings:'wght' 900;fill:none;fill-opacity:1;stroke:#3b7ed8;stroke-width:1.05833335;stroke-linecap:round;stroke-linejoin:round;stroke-dasharray:none;stroke-opacity:1;paint-order:fill markers stroke"
       d="m 21.130721,154.81086 0.09851,-5.51665 c 2.489791,-0.19602 3.64643,0.43906 3.59567,2.46279 -0.04475,1.78401 -1.768303,1.72608 -3.546415,1.62544"
       id="path31"
       sodipodi:nodetypes="ccsc" /><path
       style="font-variation-settings:'wght' 900;fill:none;fill-opacity:1;stroke:#3b7ed8;stroke-width:1.05833335;stroke-linecap:round;stroke-linejoin:round;stroke-dasharray:none;stroke-opacity:1;paint-order:fill markers stroke"
       d="m 29.110154,150.32858 c -1.315705,-1.78539 -4.65948,0.8595 -1.034371,2.21651 3.625109,1.35701 -0.636612,4.12724 -1.97023,1.6747"
       id="path32"
       sodipodi:nodetypes="czc" /><path
       style="font-variation-settings:'wght' 900;fill:none;fill-opacity:1;stroke:#3b7ed8;stroke-width:1.05833335;stroke-linecap:round;stroke-linejoin:round;stroke-dasharray:none;stroke-opacity:1;paint-order:fill markers stroke"
       d="m 30.784851,150.23007 3.300135,0.34479"
       id="path33"
       sodipodi:nodetypes="cc" /><path
       style="font-variation-settings:'wght' 900;fill:none;fill-opacity:1;stroke:#3b7ed8;stroke-width:1.05833335;stroke-linecap:round;stroke-linejoin:round;stroke-dasharray:none;stroke-opacity:1;paint-order:fill markers stroke"
       d="m 32.607314,150.57486 -0.09851,5.41814"
       id="path34" /><path
       style="font-variation-settings:'wght' 900;fill:none;fill-opacity:1;stroke:#3b7ed8;stroke-width:1.05833335;stroke-linecap:round;stroke-linejoin:round;stroke-dasharray:none;stroke-opacity:1;paint-order:fill markers stroke"
       d="m 35.907449,156.28853 0.147767,-6.0092 c 1.84277,-0.1903 3.197299,0.20409 3.25088,1.82246 0.04618,1.39485 -1.77643,2.09355 -3.250879,1.82246 l 1.62544,0.0493 1.329905,1.77321"
       id="path35"
       sodipodi:nodetypes="ccsccc" /><path
       style="font-variation-settings:'wght' 900;fill:none;fill-opacity:1;stroke:#3b7ed8;stroke-width:1.05833335;stroke-linecap:round;stroke-linejoin:round;stroke-dasharray:none;stroke-opacity:1;paint-order:fill markers stroke"
       d="m 44.182419,150.20545 -3.053858,-0.0246 0.04926,5.36888 3.053855,-4e-5"
       id="path36"
       sodipodi:nodetypes="cccc" /><path
       style="font-variation-settings:'wght' 900;fill:none;fill-opacity:1;stroke:#3b7ed8;stroke-width:1.05833335;stroke-linecap:round;stroke-linejoin:round;stroke-dasharray:none;stroke-opacity:1;paint-order:fill markers stroke"
       d="m 41.177817,152.84063 2.512043,0.006"
       id="path37"
       sodipodi:nodetypes="cc" /><path
       style="font-variation-settings:'wght' 900;fill:none;fill-opacity:1;stroke:#3b7ed8;stroke-width:1.05833335;stroke-linecap:round;stroke-linejoin:round;stroke-dasharray:none;stroke-opacity:1;paint-order:fill markers stroke"
       d="m 45.807859,154.86011 2.06874,-5.5659 1.576186,5.61516"
       id="path38" /><path
       style="font-variation-settings:'wght' 900;fill:none;fill-opacity:1;stroke:#3b7ed8;stroke-width:1.05833335;stroke-linecap:round;stroke-linejoin:round;stroke-dasharray:none;stroke-opacity:1;paint-order:fill markers stroke"
       d="m 46.448182,153.0869 2.413532,-0.34478"
       id="path39" /><path
       style="font-variation-settings:'wght' 900;fill:none;fill-opacity:1;stroke:#3b7ed8;stroke-width:1.05833335;stroke-linecap:round;stroke-linejoin:round;stroke-dasharray:none;stroke-opacity:1;paint-order:fill markers stroke"
       d="m 51.127479,155.00788 0.197025,-6.20623 1.822463,3.54642 1.773205,-3.94047 0.394049,4.77782"
       id="path40"
       sodipodi:nodetypes="ccccc" /><ellipse
       style="font-variation-settings:'wght' 900;fill:#151d23;fill-opacity:1;stroke:none;stroke-width:3.6463;stroke-linecap:round;stroke-linejoin:round;stroke-dasharray:none;stroke-opacity:1;paint-order:fill markers stroke"
       id="path15"
       cx="81.968842"
       cy="61.989452"
       rx="3.0531301"
       ry="4.2328105"
       transform="matrix(0.97783261,0.20938814,-0.29155108,0.95655526,0,0)" /><ellipse
       style="font-variation-settings:'wght' 900;fill:#151d23;fill-opacity:1;stroke:none;stroke-width:2.82936;stroke-linecap:round;stroke-linejoin:round;stroke-dasharray:none;stroke-opacity:1;paint-order:fill markers stroke"
       id="path15-7"
       cx="88.9375"
       cy="62.422264"
       rx="2.3690846"
       ry="3.2844608"
       transform="matrix(0.97783261,0.20938814,-0.29155108,0.95655526,0,0)" /><path
       style="font-variation-settings:'wght' 900;fill:none;fill-opacity:1;stroke:#000000;stroke-width:2.64583;stroke-linecap:round;stroke-linejoin:round;stroke-dasharray:none;stroke-opacity:1;paint-order:fill markers stroke"
       d="m 58.336697,70.600342 c -5.1687,5.623094 -7.693724,12.772818 -6.413098,20.645677 1.262591,-0.568776 2.696596,-1.308965 4.556675,-2.475229 -0.199545,1.633807 0.05634,2.377705 1.350124,3.712846 l 18.001683,3.881612 c 2.9723,-5.020708 3.825947,-11.410147 4.50042,-17.326619"
       id="path13"
       sodipodi:nodetypes="cccccc" /><g
       id="g27"><path
         style="fill:#e7524b;stroke-linecap:round;stroke-linejoin:round;paint-order:fill markers stroke"
         d="m 96.684521,160.04368 c 4.499799,-1.6083 8.753159,-2.72686 13.252959,-2.36369 1.69503,1.227 1.61411,3.06111 1.96258,4.55742 -5.63517,-0.37853 -10.13465,0.91583 -14.316393,2.35407 -0.729391,-1.35304 -1.387866,-2.83648 -0.899146,-4.5478 z"
         id="path26" /><path
         id="rect1-56"
         style="font-variation-settings:'wght' 900;fill:#377bd7;fill-opacity:1;stroke:none;stroke-width:2.64583;stroke-linecap:round;stroke-linejoin:round;stroke-dasharray:none;stroke-opacity:0.365;paint-order:stroke markers fill"
         d="m 96.973495,159.98753 8.104125,-1.74562 -2.90936,4.78106 -4.612892,1.26073 z"
         sodipodi:nodetypes="ccccc" /><path
         style="stroke-linecap:round;stroke-linejoin:round;paint-order:fill markers stroke"
         d="m 106.51172,156.34961 c -3.48519,0.24854 -6.847336,1.22537 -10.271486,2.44922 a 1.3230472,1.3230472 0 0 0 -0.828125,0.88086 c -0.630312,2.20712 0.244579,4.12324 1.007813,5.53906 a 1.3230472,1.3230472 0 0 0 1.59375,0.62305 c 4.136598,-1.42271 8.409898,-2.64702 13.796878,-2.28516 a 1.3230472,1.3230472 0 0 0 1.3789,-1.61914 c -0.14202,-0.60983 -0.20975,-1.4805 -0.49609,-2.45313 -0.28634,-0.97262 -0.87124,-2.074 -1.98047,-2.87695 a 1.3230472,1.3230472 0 0 0 -0.66992,-0.24609 c -1.19589,-0.0965 -2.36952,-0.0946 -3.53125,-0.0117 z m 2.83789,2.68164 c 0.37332,0.35134 0.65539,0.69209 0.80469,1.19922 0.0552,0.1874 0.0957,0.47568 0.13672,0.6914 -4.59538,-0.0464 -8.45075,0.92958 -11.958989,2.0879 -0.289911,-0.65862 -0.414683,-1.31519 -0.373047,-1.96094 3.935206,-1.35613 7.619366,-2.22823 11.390626,-2.01758 z"
         id="path27" /></g><path
       id="rect1-495-7-6"
       style="font-variation-settings:'wght' 900;fill:#d7b5ab;fill-opacity:1;stroke:none;stroke-width:2.64583;stroke-linecap:round;stroke-linejoin:round;stroke-dasharray:none;stroke-opacity:0.365;paint-order:stroke markers fill"
       d="m 57.644255,130.82177 9.96531,-0.13127 -5.305051,4.30537 z"
       sodipodi:nodetypes="cccc" /><path
       style="fill:#ffe8e0;stroke-linecap:round;stroke-linejoin:round;paint-order:fill markers stroke"
       d="m 52.429654,80.710234 c -1.174324,4.031598 -0.827774,7.062281 -0.517748,10.569991 l 4.536721,-2.538305 c -0.275323,1.275714 0.151358,2.636 1.371814,3.741404 l 18.051202,3.925014 c 1.738803,-3.087007 2.626439,-6.471 3.403942,-10.015776 0,0 2.179169,-0.09557 3.770668,3.408285 0.406311,0.894536 -0.866834,1.168507 -0.23506,3.034444 0.342326,1.011054 2.553954,1.73217 3.015267,2.915952 0.294669,0.756156 -0.387,2.911188 -0.136542,3.697968 0.365204,1.147239 2.71055,1.322149 3.071582,2.281449 1.090436,2.89743 0.06308,5.68501 0.06308,5.68501 -2.883847,7.66574 -4.640003,13.60171 -6.653592,20.39719 -17.366778,4.83269 -39.920249,5.16525 -45.737147,-11.0432 -1.468276,-4.09126 -0.42363,-13.95152 -0.820381,-21.379389 0,0 0.499729,-4.215571 1.756096,-5.16721 1.256368,-0.951638 2.067645,0.494596 3.674969,-0.811952 1.607324,-1.306547 0.158805,-2.090736 1.880276,-3.87102 0.621047,-0.642264 1.990676,-0.06549 3.386258,-1.123635 1.212079,-0.919012 1.290494,-2.256105 2.278998,-3.079732 1.129593,-0.941182 3.839598,-0.626488 3.839597,-0.626488 z"
       id="path62" /><path
       id="rect1-495-7-53"
       style="font-variation-settings:'wght' 900;fill:#151d23;fill-opacity:1;stroke:none;stroke-width:2.64583;stroke-linecap:round;stroke-linejoin:round;stroke-dasharray:none;stroke-opacity:0.365;paint-order:stroke markers fill"
       d="m 109.3944,45.312473 0.8091,59.913507 -2.51664,0.27513 -4.01883,-5.702975 c 0.55426,-16.425446 3.60516,-38.060217 5.72637,-54.485662 z"
       sodipodi:nodetypes="ccccc" /><path
       style="font-variation-settings:'wght' 900;fill:none;fill-opacity:0.67148;stroke:#000000;stroke-width:2.64583;stroke-linecap:round;stroke-linejoin:round;stroke-dasharray:none;stroke-opacity:1;paint-order:fill markers stroke"
       d="M 76.938291,62.615339 C 77.519177,57.070818 80.247699,46.887008 83.657591,39.4593 96.52104,11.439068 111.61948,11.408168 103.84759,41.044524 98.233351,62.45314 97.19901,75.532299 95.111205,93.462829"
       id="path65"
       sodipodi:nodetypes="cssc" /><path
       style="font-variation-settings:'wght' 900;fill:none;fill-opacity:0.572549;stroke:#000000;stroke-width:2.64583;stroke-linecap:round;stroke-linejoin:round;stroke-dasharray:none;stroke-opacity:1;paint-order:fill markers stroke"
       d="m 55.027347,130.54245 c 2.61059,1.49523 6.27976,3.44729 7.114356,5.14744"
       id="path43"
       sodipodi:nodetypes="cc" /><path
       id="rect1-3"
       style="font-variation-settings:'wght' 900;fill:#e0bdb3;fill-opacity:1;stroke:none;stroke-width:2.64583;stroke-linecap:round;stroke-linejoin:round;stroke-dasharray:none;stroke-opacity:0.365;paint-order:stroke markers fill"
       d="M 51.398796,90.847841 55.260515,89.9563 c 5.867508,3.037329 13.3609,4.123596 20.048641,6.176646 l 4.694688,-9.746948 c 1.443781,3.93317 0.07602,8.153545 -2.79243,12.967235 -6.451292,-0.561367 -12.168129,-2.080122 -21.318415,-6.886929 l -4.413153,2.375365 z"
       sodipodi:nodetypes="cccccccc" /><path
       id="rect1-495-7-1"
       style="font-variation-settings:'wght' 900;fill:#1e272f;fill-opacity:0.65343;stroke:none;stroke-width:2.64583;stroke-linecap:round;stroke-linejoin:round;stroke-dasharray:none;stroke-opacity:0.365;paint-order:stroke markers fill"
       d="m 62.000124,137.18278 c 3.777762,-2.98896 8.071812,-5.03922 12.171908,-7.44212 l 1.638728,6.35257 z"
       sodipodi:nodetypes="cccc" /><path
       id="rect1-8"
       style="font-variation-settings:'wght' 900;fill:#e0bdb3;fill-opacity:1;stroke:none;stroke-width:2.64583;stroke-linecap:round;stroke-linejoin:round;stroke-dasharray:none;stroke-opacity:0.365;paint-order:stroke markers fill"
       d="M 35.814302,93.256649 51.040019,80.278321 c 0,0 -2.588686,6.506895 -4.212264,8.059319 -1.623579,1.552424 -4.086482,1.854776 -4.086482,1.854776 0,0 -0.38477,1.699453 -1.576256,2.414411 -1.191486,0.714958 -5.350715,0.649822 -5.350715,0.649822 z"
       sodipodi:nodetypes="cczczc" /><path
       style="font-variation-settings:'wght' 900;fill:none;fill-opacity:0.572549;stroke:#000000;stroke-width:2.64583;stroke-linecap:round;stroke-linejoin:round;stroke-dasharray:none;stroke-opacity:1;paint-order:fill markers stroke"
       d="m 73.565668,130.40039 c -4.76494,0.44307 -9.303311,3.64309 -11.565299,5.45766"
       id="path44"
       sodipodi:nodetypes="cc" /><path
       id="rect1-159"
       style="font-variation-settings:'wght' 900;fill:#e0bdb3;fill-opacity:1;stroke:none;stroke-width:2.64583;stroke-linecap:round;stroke-linejoin:round;stroke-dasharray:none;stroke-opacity:0.365;paint-order:stroke markers fill"
       d="m 82.844028,91.239769 6.677083,11.195721 -1.605242,2.94212 -5.322129,-3.02617 c -0.285416,-1.91121 -0.421032,-3.855832 0.976368,-5.329296 -2.978731,-1.126962 -0.769319,-3.694281 -0.72608,-5.782375 z"
       sodipodi:nodetypes="cccccc" /><path
       style="font-variation-settings:'wght' 900;fill:none;fill-opacity:0.572549;stroke:#000000;stroke-width:2.64583;stroke-linecap:round;stroke-linejoin:round;stroke-dasharray:none;stroke-opacity:1;paint-order:fill markers stroke"
       d="m 75.42175,129.60992 0.307692,5.06452 4.938743,4.34801"
       id="path45"
       sodipodi:nodetypes="ccc" /><g
       id="g10"><g
         id="g8"><path
           id="rect1-2-6"
           style="font-variation-settings:'wght' 900;fill:#ffffff;fill-opacity:1;stroke:none;stroke-width:2.64583;stroke-linecap:round;stroke-linejoin:round;stroke-dasharray:none;stroke-opacity:0.365;paint-order:stroke markers fill"
           d="m 68.554919,97.712555 18.32331,7.711465 c 0.611635,13.30335 -8.79246,13.93733 -12.866603,13.59184 -4.074144,-0.3455 -13.552635,-6.39246 -5.456707,-21.303305 z"
           sodipodi:nodetypes="cczc" /><g
           id="g5"><path
             style="fill:#252e33;fill-opacity:1;stroke-linecap:round;stroke-linejoin:round;paint-order:stroke markers fill"
             d="m 81.856767,110.42339 a 7.5586634,7.5586634 0 0 1 -7.558664,7.55867 7.5586634,7.5586634 0 0 1 -7.558663,-7.55867 7.5586634,7.5586634 0 0 1 7.558663,-7.55866 7.5586634,7.5586634 0 0 1 7.558664,7.55866 z"
             id="path5" /><path
             id="rect1-76-3"
             style="font-variation-settings:'wght' 900;fill:#656d71;fill-opacity:1;stroke:none;stroke-width:2.64583;stroke-linecap:round;stroke-linejoin:round;stroke-dasharray:none;stroke-opacity:0.365;paint-order:stroke markers fill"
             d="m 68.110276,114.32455 c 2.141798,2.2482 4.366626,4.35177 9.182945,1.94113 0,0 -0.335973,-4.41221 -4.006605,-4.91718 -3.670632,-0.50497 -5.17634,2.97605 -5.17634,2.97605 z"
             sodipodi:nodetypes="cczc" /><path
             style="fill:#000000;fill-opacity:1;stroke-linecap:round;stroke-linejoin:round;paint-order:stroke markers fill"
             d="m 74.298828,101.60547 c -4.855148,0 -8.818359,3.96321 -8.818359,8.81836 0,4.85515 3.963211,8.81836 8.818359,8.81836 4.855149,0 8.816406,-3.96321 8.816406,-8.81836 0,-4.85515 -3.961257,-8.81836 -8.816406,-8.81836 z m 0,2.51953 c 3.493921,0 6.298828,2.80491 6.298828,6.29883 0,3.49392 -2.804907,6.29883 -6.298828,6.29883 -3.49392,0 -6.300781,-2.80491 -6.300781,-6.29883 0,-3.49392 2.806861,-6.29883 6.300781,-6.29883 z"
             id="path4" /></g><path
           style="font-variation-settings:'wght' 900;fill:none;fill-opacity:1;stroke:#000000;stroke-width:2.11667;stroke-linecap:round;stroke-linejoin:round;stroke-dasharray:none;stroke-opacity:1;paint-order:fill markers stroke"
           d="m 73.210366,86.102555 c 3.603288,3.24629 8.415731,7.573589 12.493638,8.780907"
           id="path7-0-8"
           sodipodi:nodetypes="cc" /><path
           style="font-variation-settings:'wght' 900;fill:none;fill-opacity:1;stroke:#000000;stroke-width:2.64583;stroke-linecap:round;stroke-linejoin:round;stroke-dasharray:none;stroke-opacity:1;paint-order:fill markers stroke"
           d="m 69.235495,97.180085 c 7.080293,1.478319 13.07138,4.862705 18.445797,8.073715"
           id="path7-7"
           sodipodi:nodetypes="cc" /></g><g
         id="g9"><path
           id="rect1-2"
           style="font-variation-settings:'wght' 900;fill:#ffffff;fill-opacity:1;stroke:none;stroke-width:2.64583;stroke-linecap:round;stroke-linejoin:round;stroke-dasharray:none;stroke-opacity:0.365;paint-order:stroke markers fill"
           d="m 36.591362,94.77283 19.084262,0.101941 C 56.563969,111.0144 50.66133,112.08183 45.991185,113.65492 35.053856,112.43353 37.004264,102.8351 36.591362,94.77283 Z"
           sodipodi:nodetypes="cccc" /><g
           id="g3"><path
             style="fill:#252e33;stroke-linecap:round;stroke-linejoin:round;paint-order:fill markers stroke"
             d="m 53.257367,105.26653 a 7.5586634,7.5586634 0 0 1 -7.558663,7.55867 7.5586634,7.5586634 0 0 1 -7.558664,-7.55867 7.5586634,7.5586634 0 0 1 7.558664,-7.55866 7.5586634,7.5586634 0 0 1 7.558663,7.55866 z"
             id="path2" /><path
             id="rect1-76"
             style="font-variation-settings:'wght' 900;fill:#656d71;fill-opacity:1;stroke:none;stroke-width:2.64583;stroke-linecap:round;stroke-linejoin:round;stroke-dasharray:none;stroke-opacity:0.365;paint-order:stroke markers fill"
             d="m 40.188835,109.62909 c 2.141798,2.2482 4.366626,4.35177 9.182945,1.94113 0,0 -0.335973,-4.41221 -4.006605,-4.91718 -3.670632,-0.50497 -5.17634,2.97605 -5.17634,2.97605 z"
             sodipodi:nodetypes="cczc" /><path
             style="stroke-linecap:round;stroke-linejoin:round;paint-order:fill markers stroke"
             d="m 45.699219,96.449219 c -4.855174,0 -8.81836,3.961231 -8.81836,8.816411 0,4.85517 3.963186,8.81835 8.81836,8.81835 4.855174,0 8.818359,-3.96318 8.818359,-8.81835 0,-4.85518 -3.963185,-8.816411 -8.818359,-8.816411 z m 0,2.517578 c 3.493895,0 6.298828,2.804933 6.298828,6.298833 0,3.49389 -2.804933,6.30078 -6.298828,6.30078 -3.493895,0 -6.298828,-2.80689 -6.298828,-6.30078 0,-3.4939 2.804933,-6.298833 6.298828,-6.298833 z"
             id="path3" /></g><path
           style="font-variation-settings:'wght' 900;fill:none;fill-opacity:1;stroke:#000000;stroke-width:2.11667;stroke-linecap:round;stroke-linejoin:round;stroke-dasharray:none;stroke-opacity:1;paint-order:fill markers stroke"
           d="m 42.640232,86.01599 c 4.723001,0.299677 9.18185,-0.323334 12.729367,-2.003697"
           id="path7-0"
           sodipodi:nodetypes="cc" /><path
           style="font-variation-settings:'wght' 900;fill:none;fill-opacity:1;stroke:#000000;stroke-width:2.64583;stroke-linecap:round;stroke-linejoin:round;stroke-dasharray:none;stroke-opacity:1;paint-order:fill markers stroke"
           d="m 36.00761,95.175599 c 6.785631,-0.820036 13.424973,-1.089454 19.742306,0.117864"
           id="path7"
           sodipodi:nodetypes="cc" /></g><path
         style="font-variation-settings:'wght' 900;fill:none;fill-opacity:1;stroke:#000000;stroke-width:2.11667;stroke-linecap:round;stroke-linejoin:round;stroke-dasharray:none;stroke-opacity:1;paint-order:fill markers stroke"
         d="m 55.580878,121.77644 c 0,0 2.02876,-2.50541 3.169752,-2.49063 1.140991,0.0148 1.941596,2.4519 2.684424,3.63484"
         id="path9"
         sodipodi:nodetypes="czc" /></g><path
       style="stroke-linecap:round;stroke-linejoin:round;paint-order:fill markers stroke"
       d="m 50.871094,79.349609 c -0.93779,0.04464 -2.106732,0.120651 -3.126953,0.970703 -0.751515,0.626167 -1.094912,1.370007 -1.376954,1.898438 -0.282041,0.528431 -0.484616,0.861394 -0.855468,1.142578 -0.439553,0.333274 -0.800876,0.39746 -1.335938,0.458984 -0.535062,0.06153 -1.41527,-0.01197 -2.201172,0.800782 -1.057101,1.093217 -1.294421,2.315123 -1.349609,2.910156 -0.05519,0.595033 0.13814,0.404646 -0.414063,0.853516 -0.533737,0.433859 -0.46759,0.32423 -0.951171,0.255859 -0.483582,-0.06837 -1.6949,-0.225983 -2.689454,0.527344 -0.655177,0.496266 -0.95699,1.116608 -1.224609,1.75 -0.267619,0.633391 -0.459667,1.304733 -0.611328,1.935547 -0.303323,1.261627 -0.435547,2.380859 -0.435547,2.380859 a 1.3230472,1.3230472 0 0 0 -0.0059,0.226562 c 0.193414,3.621048 0.03411,7.926803 0.0059,11.861333 -0.02824,3.93452 0.0087,7.43698 0.890625,9.89453 3.093036,8.61856 10.755278,12.88802 19.576172,14.27148 8.820894,1.38346 18.941436,0.0535 27.759766,-2.40039 a 1.3230472,1.3230472 0 0 0 0.914062,-0.89844 c 2.013682,-6.79579 3.756126,-12.68784 6.623047,-20.30859 a 1.3230472,1.3230472 0 0 0 0.0039,-0.008 c 0,0 1.219035,-3.19184 -0.06641,-6.60742 -0.251905,-0.66934 -0.734606,-1.02223 -1.128906,-1.26368 -0.394301,-0.241447 -0.770539,-0.398537 -1.097657,-0.546872 -0.654234,-0.296669 -0.882062,-0.594094 -0.822265,-0.40625 0.0859,0.26984 0.02972,-0.539874 0.132812,-1.277344 0.05155,-0.368734 0.107769,-0.759152 0.13086,-1.158203 0.02309,-0.39905 0.05727,-0.793891 -0.15625,-1.341797 -0.45736,-1.173637 -1.367543,-1.668433 -2.029297,-2.128906 -0.661754,-0.460473 -1.040574,-0.956089 -0.964844,-0.732422 -0.223012,-0.658663 -0.142968,-0.628862 -0.01563,-0.908203 0.06367,-0.13967 0.19919,-0.346412 0.314453,-0.744141 0.115263,-0.397728 0.106392,-1.020272 -0.113281,-1.503906 -0.891644,-1.963049 -2.040443,-3.068772 -3.042969,-3.626953 -1.002526,-0.55818 -1.990234,-0.556641 -1.990234,-0.556641 a 1.3230472,1.3230472 0 0 0 -1.234375,1.039063 c -0.696745,3.176586 -1.54215,6.096971 -2.890625,8.775391 L 58.556641,91.291016 C 57.81127,90.519562 57.58198,89.76381 57.742187,89.021484 a 1.3230472,1.3230472 0 0 0 -1.939453,-1.433593 l -2.697265,1.507812 c -0.200417,-2.598164 -0.279981,-5.016002 0.59375,-8.015625 a 1.3230472,1.3230472 0 0 0 -1.117188,-1.683594 c 0,0 -0.773147,-0.09152 -1.710937,-0.04687 z m 0.04102,2.66211 c -0.697859,3.438327 -0.582394,6.397407 -0.318359,9.384765 a 1.3230472,1.3230472 0 0 0 1.964844,1.039063 l 2.763672,-1.546875 c 0.285885,0.939849 0.79456,1.836217 1.609375,2.574219 a 1.3230472,1.3230472 0 0 0 0.607421,0.3125 l 18.050782,3.925781 a 1.3230472,1.3230472 0 0 0 1.433593,-0.644531 c 1.58905,-2.821141 2.442893,-5.836431 3.16211,-8.898438 0.444251,0.306982 0.993339,0.86504 1.55664,2.029297 -0.02998,0.06322 -0.03102,0.06205 -0.101562,0.216797 -0.249708,0.547762 -0.490793,1.648195 -0.08203,2.855469 0.418056,1.234721 1.315968,1.605893 1.960937,2.054687 0.64497,0.448794 1.070266,0.907824 1.074219,0.917969 -0.06618,-0.169828 -0.0055,-0.01376 -0.01953,0.228515 -0.01402,0.242274 -0.05865,0.582423 -0.109375,0.945313 -0.10146,0.72578 -0.371514,1.386739 -0.03516,2.443359 0.425002,1.335081 1.551956,1.698201 2.251954,2.015621 0.349999,0.15871 0.650188,0.29754 0.808593,0.39454 0.158405,0.097 0.104592,0.12718 0.0332,-0.0625 0.892501,2.37148 0.06793,4.73643 0.0625,4.75195 -2.792871,7.42391 -4.536028,13.26446 -6.458984,19.75195 -8.389195,2.25856 -17.91463,3.43427 -25.951172,2.17383 -8.25176,-1.2942 -14.772232,-4.96285 -17.496094,-12.55273 -0.586308,-1.63372 -0.762195,-5.10704 -0.734375,-8.98243 0.02737,-3.81304 0.176807,-8.064001 -0.01172,-11.826168 0.0037,-0.0309 0.116581,-0.974282 0.373047,-2.041016 0.130316,-0.542034 0.297129,-1.100714 0.476562,-1.52539 0.179433,-0.424677 0.41176,-0.690369 0.384766,-0.669922 0.261814,-0.198312 0.08468,-0.107778 0.722656,-0.01758 0.63798,0.0902 1.914694,0.05042 2.988281,-0.822266 1.055122,-0.857678 1.328108,-2.09334 1.38086,-2.662109 0.05275,-0.56877 -0.04913,-0.62934 0.615234,-1.316407 -0.164855,0.170487 -0.05039,0.06543 0.603516,-0.0098 0.653909,-0.07519 1.67483,-0.253645 2.630859,-0.978516 0.841227,-0.637828 1.284485,-1.432037 1.591797,-2.007812 0.307311,-0.575776 0.499339,-0.911915 0.736328,-1.109375 0.103478,-0.08622 0.809416,-0.290505 1.474609,-0.341797 z"
       id="path63" /><path
       style="font-variation-settings:'wght' 900;fill:none;fill-opacity:0.572549;stroke:#000000;stroke-width:2.64583;stroke-linecap:round;stroke-linejoin:round;stroke-dasharray:none;stroke-opacity:1;paint-order:fill markers stroke"
       d="m 86.18004,157.98687 c -1.869942,-1.57292 -13.011144,-6.9749 -15.992634,-6.72557 -1.219761,3.83809 -1.937273,7.64828 -0.879033,11.35981 1.827342,0.89991 3.279004,2.17551 4.733256,3.44851 -1.467884,0.60856 -2.686175,1.21713 -4.5338,1.82569 -0.413623,1.44312 -0.166343,1.82316 -0.115433,2.56948"
       id="path46"
       sodipodi:nodetypes="cccccc" /><path
       style="font-variation-settings:'wght' 900;fill:none;fill-opacity:0.572549;stroke:#000000;stroke-width:2.64583;stroke-linecap:round;stroke-linejoin:round;stroke-dasharray:none;stroke-opacity:1;paint-order:fill markers stroke"
       d="m 75.977937,146.23436 c 0.573829,2.2626 0.878517,4.35005 0.306686,6.63195"
       id="path47"
       sodipodi:nodetypes="cc" /><path
       style="font-variation-settings:'wght' 900;fill:none;fill-opacity:0.572549;stroke:#000000;stroke-width:2.64583;stroke-linecap:round;stroke-linejoin:round;stroke-dasharray:none;stroke-opacity:1;paint-order:fill markers stroke"
       d="m 42.16117,165.03775 -1.590416,5.56228"
       id="path51"
       sodipodi:nodetypes="cc" /><path
       style="font-variation-settings:'wght' 900;fill:none;fill-opacity:0.572549;stroke:#000000;stroke-width:2.64583;stroke-linecap:round;stroke-linejoin:round;stroke-dasharray:none;stroke-opacity:1;paint-order:fill markers stroke"
       d="m 69.495177,153.36939 c -2.163774,0.10439 -3.094375,0.12244 -5.258149,-0.14716 -1.729293,7.09573 -2.266141,12.50213 -1.449975,17.38601"
       id="path48"
       sodipodi:nodetypes="ccc" /><path
       style="font-variation-settings:'wght' 900;fill:none;fill-opacity:0.572549;stroke:#000000;stroke-width:2.64583;stroke-linecap:round;stroke-linejoin:round;stroke-dasharray:none;stroke-opacity:1;paint-order:fill markers stroke"
       d="m 63.599052,154.9981 c -0.389132,-1.77713 -6.696241,-4.92416 -10.952113,0.39154 -4.255872,5.3157 -2.682646,11.02611 1.229547,15.02734"
       id="path49"
       sodipodi:nodetypes="czc" /><path
       style="font-variation-settings:'wght' 900;fill:none;fill-opacity:1;stroke:#000000;stroke-width:2.64583;stroke-linecap:round;stroke-linejoin:round;stroke-dasharray:none;stroke-opacity:1;paint-order:fill markers stroke"
       d="m 79.488672,85.620494 c 0,0 1.142879,-0.392312 3.387737,3.238702 0.621301,1.004942 -0.581377,2.008642 0.179132,4.347372 0.396362,1.218897 2.30043,1.071609 2.809795,2.460117 0.33937,0.925107 0.128037,2.732753 0.416585,3.726145 0.408257,1.40552 2.083285,1.64287 2.444413,2.8775 0.92134,3.1499 -0.500591,6.13286 -0.500591,6.13286 0,0 2.828052,1.41376 4.249393,1.59233 1.421342,0.17858 2.495558,-1.08375 4.033275,-0.43957 1.537717,0.64417 1.870144,3.96491 3.686899,4.66495 1.81676,0.70003 3.76662,-1.12435 5.65653,-0.95003 1.88992,0.17432 5.30854,1.93989 5.30854,1.93989 0,0 3.16448,0.68833 2.73584,-4.19141 -0.42865,-4.87973 -3.33545,-6.14137 -3.33545,-6.14137 0,0 -1.43077,1.49931 -2.98369,1.23709 -1.02277,-0.1727 -0.63519,-3.71168 -2.25611,-5.3712 -1.13276,-1.159748 -3.54616,0.34281 -4.29815,-0.967593 -0.8602,-1.498933 0.33759,-3.15976 -1.94646,-4.757405 -1.922619,-1.344831 -3.836219,-1.146364 -3.836219,-1.146364"
       id="path14"
       sodipodi:nodetypes="csssssczzzzczcssssc" /><path
       style="font-variation-settings:'wght' 900;fill:none;fill-opacity:0.67148;stroke:#000000;stroke-width:2.64583;stroke-linecap:round;stroke-linejoin:round;stroke-dasharray:none;stroke-opacity:1;paint-order:fill markers stroke"
       d="m 100.77541,18.640052 c 15.59907,-0.151743 6.79795,40.256028 9.50084,87.020748"
       id="path66"
       sodipodi:nodetypes="cc" /><path
       style="font-variation-settings:'wght' 900;fill:#151d23;fill-opacity:1;stroke:#000000;stroke-width:2.64583;stroke-linecap:round;stroke-linejoin:round;stroke-dasharray:none;stroke-opacity:1;paint-order:fill markers stroke"
       d="m 35.719734,112.91068 0.06054,16.1647"
       id="path69"
       sodipodi:nodetypes="cc" /></g></svg>
