<?xml version="1.0" encoding="UTF-8" standalone="no"?>
<!-- Created with Inkscape (http://www.inkscape.org/) -->

<svg
   width="512"
   height="512"
   viewBox="0 0 135.46666 135.46667"
   version="1.1"
   id="svg1"
   inkscape:version="1.4.1 (unknown)"
   sodipodi:docname="aosc-03.svg"
   xml:space="preserve"
   xmlns:inkscape="http://www.inkscape.org/namespaces/inkscape"
   xmlns:sodipodi="http://sodipodi.sourceforge.net/DTD/sodipodi-0.dtd"
   xmlns="http://www.w3.org/2000/svg"
   xmlns:svg="http://www.w3.org/2000/svg"><sodipodi:namedview
     id="namedview1"
     pagecolor="#505050"
     bordercolor="#ffffff"
     borderopacity="1"
     inkscape:showpageshadow="0"
     inkscape:pageopacity="0"
     inkscape:pagecheckerboard="1"
     inkscape:deskcolor="#d1d1d1"
     inkscape:document-units="px"
     inkscape:zoom="1.2899495"
     inkscape:cx="13.566423"
     inkscape:cy="204.65917"
     inkscape:window-width="2560"
     inkscape:window-height="1364"
     inkscape:window-x="0"
     inkscape:window-y="0"
     inkscape:window-maximized="1"
     inkscape:current-layer="layer1" /><defs
     id="defs1" /><g
     inkscape:label="Layer 1"
     inkscape:groupmode="layer"
     id="layer1"><g
       id="g37"
       transform="matrix(0.85084329,0,0,0.85084329,10.9403,18.179692)"><path
         id="rect18-2-31"
         style="fill:#3b484f;fill-opacity:1;stroke:none;stroke-width:2.11667;stroke-linecap:round;stroke-linejoin:round;stroke-opacity:0.362426;paint-order:fill markers stroke"
         d="M 82.977836,96.987881 C 96.01881,109.69187 108.8288,122.48249 119.17232,136.19803 l -56.466476,0.93384 -5.366959,-10.65145 c 5.255952,-1.23779 11.038774,-2.43505 -5.402322,-5.34184 l -0.955376,-2.04789 c 5.68511,-5.87143 10.561839,-11.70243 9.485472,-17.23579 z"
         sodipodi:nodetypes="cccccccc" /><path
         style="fill:none;fill-opacity:0.41568;stroke:#3571c3;stroke-width:2.11667;stroke-linecap:round;stroke-linejoin:round;stroke-dasharray:none;stroke-opacity:1;paint-order:fill markers stroke"
         d="M 83.342527,99.150958 C 76.932276,102.02289 65.343553,111.20918 56.692299,117.74554"
         id="path32"
         sodipodi:nodetypes="cc" /><path
         id="rect18-2-175"
         style="fill:#27333f;fill-opacity:0.510355;stroke:none;stroke-width:2.11667;stroke-linecap:round;stroke-linejoin:round;stroke-opacity:0.362426;paint-order:fill markers stroke"
         d="m 60.096552,102.25096 c 7.793337,-0.92377 15.586674,-2.561623 23.380011,-5.310738 l 2.012821,5.254148 -19.045593,5.70133 c 3.644486,2.74222 6.383134,7.66323 -1.150612,9.25467 -0.51495,2.54964 -0.813422,5.21654 -6.657167,4.87975 l -7.402803,-0.96611 -0.272326,-2.28886 z"
         sodipodi:nodetypes="ccccccccc" /><path
         id="rect18-2-3"
         style="fill:#252e33;fill-opacity:1;stroke:none;stroke-width:2.11667;stroke-linecap:round;stroke-linejoin:round;stroke-opacity:0.362426;paint-order:fill markers stroke"
         d="M 24.549316,52.478652 C 13.143784,42.808107 9.0712899,3.0192563 21.626092,-9.1602436 33.537157,-8.4822274 45.044053,11.191789 56.629949,27.152755 l 4.025095,-0.964465 c -1.370683,-0.152298 -8.211973,-37.255247 13.792468,-46.163245 13.019769,1.402319 26.601008,44.416314 34.813248,76.982733 4.44082,2.151966 5.39665,8.655015 1.87259,11.091635 5.08653,17.804205 8.61967,35.122977 -13.205315,44.517337 L 84.228586,101.52924 83.3024,96.470906 c -9.337337,3.782524 -10.571924,3.930394 -23.27124,5.592374 2.648765,8.85386 -4.909446,11.67632 -9.180319,16.4413 l 0.814116,2.41809 c 16.604084,2.8513 10.813121,4.28069 6.489754,5.80325 1.534432,3.42609 3.068864,6.85219 4.603296,10.27828 l -31.337027,-0.31412 5.480427,-6.56972 -2.724281,-3.25301 C 11.595274,122.58108 18.955729,98.190698 18.854873,78.810051 l -0.712951,-8.913025 3.00606,-1.109704 0.688067,-5.913661 z"
         sodipodi:nodetypes="ccccccccccccccccccccccc" /><path
         id="rect18-2-91"
         style="fill:#ffe8e0;fill-opacity:1;stroke:none;stroke-width:2.11667;stroke-linecap:round;stroke-linejoin:round;stroke-opacity:0.362426;paint-order:fill markers stroke"
         d="m 44.892155,50.1884 2.579444,12.392287 4.178596,-1.933078 3.012339,3.24346 19.601005,-4.856706 -0.613423,-11.653028 4.305251,1.392741 1.967188,3.109597 2.98164,0.05716 1.644099,3.699981 2.898386,0.319347 2.035866,3.941987 2.897376,0.909833 3.439545,5.378016 -1.469239,22.113976 c -19.930599,20.533277 -56.377919,15.248557 -61.290367,0.0255 l -2.545644,-17.928926 3.16986,-2.03795 0.675308,-7.607167 4.120316,-2.169476 0.355443,-2.927878 1.569522,-0.640676 1.123797,-2.387992 z"
         sodipodi:nodetypes="cccccccccccccccccccccccc" /><path
         id="rect18-2-11"
         style="fill:#e0b7ab;fill-opacity:1;stroke:none;stroke-width:2.11667;stroke-linecap:round;stroke-linejoin:round;stroke-opacity:0.362426;paint-order:fill markers stroke"
         d="m 55.386653,63.544259 19.341106,-4.370982 -0.733517,-11.802043 3.878039,1.189983 2.028169,3.265053 3.105711,0.03468 2.215236,3.981629 3.198159,1.681116 1.408314,2.191494 4.714709,3.750879 -6.21715,-3.901848 c 0,0 -2.326042,0.313767 -3.372872,-0.468723 -1.04683,-0.78249 -1.359573,-3.668328 -1.829657,-4.041615 -0.470085,-0.373287 -1.106356,1.158284 -3.033929,-0.0074 -1.927572,-1.165647 -2.308207,-5.026294 -2.308207,-5.026294 0,0 0.825523,8.658251 0.02238,10.406234 -1.417863,1.90524 -14.848328,6.432023 -22.568561,5.774178 z"
         sodipodi:nodetypes="ccccccccccczzzcccc" /><path
         id="rect18-2-6"
         style="fill:#e0b8ab;fill-opacity:1;stroke:none;stroke-width:2.11667;stroke-linecap:round;stroke-linejoin:round;stroke-opacity:0.362426;paint-order:fill markers stroke"
         d="m 44.523638,50.933968 0.13648,1.695924 c 0,0 -0.109784,0.325532 -1.139983,1.53779 -0.784925,0.923638 -0.554417,3.421533 -1.403422,4.467576 -0.84818,1.045028 -1.149935,0.204888 -2.545235,1.50917 -2.088483,1.952248 -5.238323,6.148962 -5.238323,6.148962 l -0.414685,-4.422464 4.314729,-3.047898 1.559346,-3.946837 z"
         sodipodi:nodetypes="ccsssccccc" /><path
         id="rect18-0"
         style="fill:#ffffff;fill-opacity:1;stroke:#000000;stroke-width:2.64583;stroke-linecap:round;stroke-linejoin:round;stroke-dasharray:none;stroke-opacity:0.996078;paint-order:fill markers stroke"
         d="m 68.212265,73.726951 c -0.871959,-3.614548 0.433601,-8.291336 4.115582,-10.305941 1.197372,-3.230979 9.138991,-5.849238 14.382012,-0.412691 2.77574,0.88154 6.879459,3.3579 5.516394,11.27856 0.07063,1.970818 0.360861,3.941637 -0.377062,5.912455 -1.210128,1.623298 -2.43073,2.154897 -3.57817,2.296402 -0.641675,0.659267 -1.606812,1.403453 -2.447276,1.717724 1.291427,3.163782 0.807415,5.670961 -2.33102,6.093985 -3.138435,0.423023 -3.429223,-2.059669 -3.831111,-4.858809 -2.166427,0.261166 -3.867084,0.173005 -5.468805,0.01064 -1.50159,-1.213403 -2.851049,-2.457233 -3.645088,-3.812147 -0.932526,-0.516314 -1.851785,-1.5747 -2.462886,-2.90154 -0.797734,-1.732064 -0.971099,-3.353546 0.12743,-5.01864 z"
         sodipodi:nodetypes="ccccccczcccscc" /><path
         id="rect18-7"
         style="fill:#ffffff;fill-opacity:1;stroke:#000000;stroke-width:2.64583;stroke-linecap:round;stroke-linejoin:round;stroke-dasharray:none;stroke-opacity:1;paint-order:fill markers stroke"
         d="m 38.228398,63.912112 c 2.313353,-1.579459 5.445701,-1.415709 8.381127,-0.79933 0.796887,0.414302 1.452697,0.969683 2.124355,1.509215 1.868095,-0.466224 3.10452,-0.106645 4.252313,0.494091 2.857014,2.270894 3.157998,4.676317 3.619357,7.073298 2.836619,5.134433 0.876064,7.821935 -1.689348,9.868884 -1.502278,3.104427 -2.507829,3.787075 -3.756059,4.605073 l -3.186347,0.12282 c 0.603126,4.339523 -0.569542,5.79779 -3.260581,5.890051 -1.922117,0.0659 -3.887674,-2.072304 -3.611701,-5.037274 -2.640696,-0.106792 -5.133653,-1.077384 -5.464016,-4.521324 -6.334392,-5.194197 -2.820991,-9.805316 -1.49526,-12.518716 0.932038,-2.265578 1.14328,-4.677517 4.08616,-6.686791 z"
         sodipodi:nodetypes="scccccccscccss" /><path
         id="rect18-2-5"
         style="fill:#ffe8e0;fill-opacity:1;stroke:none;stroke-width:2.11667;stroke-linecap:round;stroke-linejoin:round;stroke-opacity:0.362426;paint-order:fill markers stroke"
         d="m 64.846322,101.48033 9.834614,-1.30962 -5.238483,4.43899 z"
         sodipodi:nodetypes="cccc" /><path
         style="fill:none;fill-opacity:0.396078;stroke:#000000;stroke-width:2.64583;stroke-linecap:round;stroke-linejoin:round;stroke-dasharray:none;stroke-opacity:0.996078;paint-order:fill markers stroke"
         d="M 82.633308,97.657548 C 76.084373,98.924934 57.462833,114.77932 57.462833,114.77932 l -1.609741,6.0975"
         id="path15"
         sodipodi:nodetypes="ccc" /><path
         id="rect18-2-49"
         style="fill:#ffffff;fill-opacity:1;stroke:none;stroke-width:2.11667;stroke-linecap:round;stroke-linejoin:round;stroke-opacity:0.362426;paint-order:fill markers stroke"
         d="m 17.370438,17.191548 c 0.418,-11.5502974 3.431448,-32.432518 11.285374,-17.20711398 L 39.068321,36.031058 C 34.206787,39.974492 30.368705,44.770802 26.912078,49.884991 18.282605,36.765446 17.014666,27.022368 17.370438,17.191548 Z"
         sodipodi:nodetypes="scccs" /><path
         id="rect18-2-43"
         style="fill:#151d23;fill-opacity:1;stroke:none;stroke-width:2.11667;stroke-linecap:round;stroke-linejoin:round;stroke-opacity:0.362426;paint-order:fill markers stroke"
         d="m 45.286662,55.250414 c 7.249038,-0.378826 14.144301,0.43634 21.54335,-0.44877 -0.566104,-8.619688 0.950082,-6.118735 3.058234,-0.464479 1.51256,-0.280953 3.050019,-0.645938 4.619265,-1.118207 l 0.08292,5.940659 -20.17558,4.892078 -2.635076,-3.643749 -4.187599,3.191502 z"
         sodipodi:nodetypes="ccccccccc" /><path
         id="rect18-2-8"
         style="fill:#151d23;fill-opacity:1;stroke:none;stroke-width:2.11667;stroke-linecap:round;stroke-linejoin:round;stroke-opacity:0.362426;paint-order:fill markers stroke"
         d="m 75.921036,47.608325 1.321895,0.796827 c 4.831937,-5.814391 5.851434,-4.969094 2.243369,1.352284 l 1.116643,1.247335 2.111231,0.184413 c 3.574874,-3.682847 4.857685,-2.464557 2.352452,1.457106 0,0 0.50002,1.152859 1.047297,1.552764 0.547277,0.399906 1.248998,0.05057 2.105655,0.616183 0.856658,0.565619 1.278668,2.138478 2.358625,2.687968 1.079957,0.549489 2.158438,0.07431 3.459691,0.568935 1.301253,0.494625 2.107105,2.484268 3.963939,3.124898 1.856834,0.640629 4.895357,-0.681736 6.737857,-0.02114 1.8425,0.660596 2.35322,2.799163 3.85572,3.192975 1.50251,0.393813 4.24447,-0.767859 4.24447,-0.767859 1.62682,2.456894 -0.56822,3.697744 -1.89675,5.214298 2.77068,11.817745 12.57329,34.298408 -13.226473,43.489188 l -13.32693,-11.17917 -1.243444,-4.493977 10.939644,-7.754116 1.342383,8.467527 c 2.873447,6.785416 6.84375,2.819836 8.49003,-10.823668 1.68087,-13.930116 0.0962,-17.019713 -8.110273,-17.555809 l -0.443331,-3.192211 -3.030974,-4.693655 -2.213687,-0.389069 -2.530761,-4.103415 -2.58311,-0.512959 -2.494405,-3.501587 z"
         sodipodi:nodetypes="cccccczzzzzzzcccccccscccccccc" /><path
         id="rect18-2-0"
         style="fill:#151d23;fill-opacity:1;stroke:none;stroke-width:2.11667;stroke-linecap:round;stroke-linejoin:round;stroke-opacity:0.362426;paint-order:fill markers stroke"
         d="m 45.100169,46.240733 0.198285,4.338827 -3.663898,2.328004 -3.83469,3.686095 c -4.26359,-3.092982 -3.913613,-4.113769 1.934245,-2.665168 l 0.443402,-1.412327 c -2.425447,-2.439045 -3.813994,-4.268911 0.538137,-2.726128 z"
         sodipodi:nodetypes="cccccccc" /><g
         id="g35"><circle
           style="fill:none;fill-opacity:0.41568;stroke:#184aa1;stroke-width:2.11667;stroke-linecap:round;stroke-linejoin:round;stroke-dasharray:none;stroke-opacity:1;paint-order:fill markers stroke"
           id="path33-0"
           r="2.2107573"
           cy="111.91567"
           cx="67.615685" /><circle
           style="fill:none;fill-opacity:0.41568;stroke:#3376d5;stroke-width:2.11667;stroke-linecap:round;stroke-linejoin:round;stroke-dasharray:none;stroke-opacity:1;paint-order:fill markers stroke"
           id="path33"
           r="2.2107573"
           cy="111.53725"
           cx="67.685524" /><g
           id="g33"><circle
             style="fill:none;fill-opacity:0.41568;stroke:#e54e47;stroke-width:2.11667;stroke-linecap:round;stroke-linejoin:round;stroke-dasharray:none;stroke-opacity:1;paint-order:fill markers stroke"
             id="path33-3"
             r="2.2107573"
             cy="111.57603"
             cx="57.594555" /><path
             style="fill:none;fill-opacity:0.41568;stroke:#3575d0;stroke-width:2.11667;stroke-linecap:butt;stroke-linejoin:round;stroke-dasharray:none;stroke-opacity:1;paint-order:fill markers stroke"
             id="path33-3-7"
             sodipodi:type="arc"
             sodipodi:cx="57.594555"
             sodipodi:cy="111.57603"
             sodipodi:rx="2.2107573"
             sodipodi:ry="2.2107573"
             sodipodi:start="0.059550917"
             sodipodi:end="1.5595886"
             sodipodi:arc-type="arc"
             d="m 59.801393,111.7076 a 2.2107573,2.2107573 0 0 1 -2.182061,2.07905"
             sodipodi:open="true" /></g><circle
           style="fill:none;fill-opacity:0.41568;stroke:#b62620;stroke-width:2.11667;stroke-linecap:round;stroke-linejoin:round;stroke-dasharray:none;stroke-opacity:1;paint-order:fill markers stroke"
           id="path33-18-6"
           r="2.2107573"
           cy="107.77946"
           cx="63.064926" /><g
           id="g34"><circle
             style="fill:none;fill-opacity:0.41568;stroke:#e54e47;stroke-width:2.11667;stroke-linecap:round;stroke-linejoin:round;stroke-dasharray:none;stroke-opacity:1;paint-order:fill markers stroke"
             id="path33-18"
             r="2.2107573"
             cy="107.39703"
             cx="63.071285" /><path
             style="fill:none;fill-opacity:0.41568;stroke:#3775cf;stroke-width:2.11667;stroke-linecap:butt;stroke-linejoin:round;stroke-dasharray:none;stroke-opacity:1;paint-order:fill markers stroke"
             id="path33-18-4"
             sodipodi:type="arc"
             sodipodi:cx="63.071285"
             sodipodi:cy="107.39703"
             sodipodi:rx="2.2107573"
             sodipodi:ry="2.2107573"
             sodipodi:start="6.2322221"
             sodipodi:end="1.357745"
             sodipodi:arc-type="arc"
             d="m 65.279172,107.28442 a 2.2107573,2.2107573 0 0 1 -1.740437,2.27339"
             sodipodi:open="true" /></g><path
           style="fill:none;fill-opacity:0.41568;stroke:#e6514a;stroke-width:2.11667;stroke-linecap:butt;stroke-linejoin:round;stroke-dasharray:none;stroke-opacity:1;paint-order:fill markers stroke"
           id="path33-1"
           sodipodi:type="arc"
           sodipodi:cx="67.685524"
           sodipodi:cy="111.53725"
           sodipodi:rx="2.2107573"
           sodipodi:ry="2.2107573"
           sodipodi:start="3.1901272"
           sodipodi:end="4.9114808"
           sodipodi:arc-type="arc"
           d="m 65.47737,111.42999 a 2.2107573,2.2107573 0 0 1 0.849935,-1.63707 2.2107573,2.2107573 0 0 1 1.795461,-0.42276"
           sodipodi:open="true" /><circle
           style="fill:none;fill-opacity:0.41568;stroke:#184aa1;stroke-width:2.11667;stroke-linecap:round;stroke-linejoin:round;stroke-dasharray:none;stroke-opacity:1;paint-order:fill markers stroke"
           id="path33-7-54"
           cx="62.029972"
           cy="116.41525"
           r="2.2107573" /><circle
           style="fill:none;fill-opacity:0.41568;stroke:#3376d5;stroke-width:2.11667;stroke-linecap:round;stroke-linejoin:round;stroke-dasharray:none;stroke-opacity:1;paint-order:fill markers stroke"
           id="path33-7"
           cx="62.044853"
           cy="116.00391"
           r="2.2107573" /><path
           style="fill:none;fill-opacity:0.41568;stroke:#e6514a;stroke-width:2.11667;stroke-linecap:butt;stroke-linejoin:round;stroke-dasharray:none;stroke-opacity:1;paint-order:fill markers stroke"
           id="path33-7-5"
           sodipodi:type="arc"
           sodipodi:cx="62.044853"
           sodipodi:cy="116.00391"
           sodipodi:rx="2.2107573"
           sodipodi:ry="2.2107573"
           sodipodi:start="3.1690905"
           sodipodi:end="4.8678457"
           sodipodi:arc-type="arc"
           d="m 59.834932,115.94312 a 2.2107573,2.2107573 0 0 1 0.796018,-1.63872 2.2107573,2.2107573 0 0 1 1.756198,-0.48459"
           sodipodi:open="true" /></g><path
         id="rect18-2-1"
         style="fill:#151d23;fill-opacity:1;stroke:none;stroke-width:2.11667;stroke-linecap:round;stroke-linejoin:round;stroke-opacity:0.362426;paint-order:fill markers stroke"
         d="m 19.045959,82.592968 -0.487823,-7.793671 c 0,0 4.934562,-1.529188 5.926911,-2.755285 0.992349,-1.226097 0.653854,-2.854192 0.653854,-2.854192 0,0 3.754507,-1.619644 5.192334,-2.893196 1.437827,-1.273551 3.284959,-4.511233 3.284959,-4.511233 0,0 0.221991,3.692356 0.276811,6.35898 -0.810011,1.483626 -2.107615,1.748268 -3.308167,2.255539 0.528249,16.223304 4.13223,30.82677 29.370722,31.73147 2.483543,8.4549 -4.831918,11.75244 -8.875316,16.77211 l 1.194271,1.74539 c 0,0 19.673676,5.12116 5.39885,5.57398 0.996921,2.41276 5.014945,7.12204 4.221096,10.49527 l -18.21653,-0.18354 -3.321232,-9.13846 c -7.298761,1.00104 -15.29491,-3.65961 -20.232079,-10.23829 3.598792,2.42469 7.129755,5.14331 11.022144,6.29575 -2.53682,-1.96161 -5.750442,-7.00066 -6.473571,-10.67114 -1.927567,-9.784 -1.608882,-9.3355 2.178012,0.0592 1.545418,3.83395 5.144006,6.59401 6.089799,6.08478 -2.79339,-11.93157 -3.508361,-25.331082 -5.311391,-37.648954 l -2.180617,0.294672 c -0.559272,4.397281 -2.359328,19.889702 -2.903821,0.462949 z"
         sodipodi:nodetypes="cczczccccccccccccssccccc" /><path
         id="rect18-2-4"
         style="fill:#2a3742;fill-opacity:1;stroke:none;stroke-width:2.11667;stroke-linecap:round;stroke-linejoin:round;stroke-opacity:0.362426;paint-order:fill markers stroke"
         d="m 91.780438,107.72762 c 6.995114,5.38804 13.104472,11.13875 27.404212,28.32937 l -9.30218,0.42879 C 105.32356,126.03538 97.520455,117.2788 91.780438,107.72762 Z"
         sodipodi:nodetypes="cccc" /><ellipse
         style="fill:#151d23;fill-opacity:1;stroke:none;stroke-width:3.37654;stroke-linecap:round;stroke-linejoin:round;stroke-dasharray:none;stroke-opacity:0.362426;paint-order:fill markers stroke"
         id="path23"
         cx="55.78804"
         cy="41.805107"
         rx="2.9030895"
         ry="4.4586134"
         transform="rotate(5.4657341)" /><ellipse
         style="fill:#151d23;fill-opacity:1;stroke:none;stroke-width:2.7821;stroke-linecap:round;stroke-linejoin:round;stroke-dasharray:none;stroke-opacity:0.362426;paint-order:fill markers stroke"
         id="path23-4"
         cx="62.560349"
         cy="40.333912"
         rx="2.3919985"
         ry="3.2836289"
         transform="rotate(5.4657341)" /><ellipse
         style="fill:#151d23;fill-opacity:1;stroke:none;stroke-width:2.7821;stroke-linecap:round;stroke-linejoin:round;stroke-dasharray:none;stroke-opacity:0.362426;paint-order:fill markers stroke"
         id="path23-4-9"
         cx="64.235153"
         cy="44.340664"
         rx="2.1348855"
         ry="2.8024213"
         transform="rotate(0.26126959)" /><path
         id="rect18-2-9"
         style="fill:#ffffff;fill-opacity:1;stroke:none;stroke-width:2.11667;stroke-linecap:round;stroke-linejoin:round;stroke-opacity:0.362426;paint-order:fill markers stroke"
         d="M 64.316932,-3.3197177 C 67.422053,-11.49797 75.016059,-23.444971 82.356449,-10.297234 86.211722,3.0103039 87.741775,16.574291 87.692198,30.686318 79.469543,26.037829 71.741492,25.84077 64.056878,26.03464 60.723452,8.9992186 61.418455,4.3142763 64.316932,-3.3197177 Z"
         sodipodi:nodetypes="scccs" /><path
         id="rect18-2-95"
         style="fill:#151d23;fill-opacity:1;stroke:none;stroke-width:2.11667;stroke-linecap:round;stroke-linejoin:round;stroke-opacity:0.362426;paint-order:fill markers stroke"
         d="M 32.130422,-3.7528042 C 40.59481,6.2127706 49.99528,15.164257 56.637972,27.103335 L 48.6707,30.285544 C 45.593577,18.607204 38.759272,7.4412085 32.130422,-3.7528042 Z"
         sodipodi:nodetypes="cccc" /><path
         id="rect18-2-17"
         style="fill:#151d23;fill-opacity:1;stroke:none;stroke-width:2.11667;stroke-linecap:round;stroke-linejoin:round;stroke-opacity:0.362426;paint-order:fill markers stroke"
         d="M 93.035943,5.7377632 C 100.08719,22.978915 106.24957,40.220067 109.31682,57.461219 l -3.47499,-0.446566 -2.59983,-3.905625 -2.44256,-0.436301 C 99.902533,37.027739 96.17677,21.382751 93.035943,5.7377632 Z"
         sodipodi:nodetypes="cccccc" /><g
         id="g28"><path
           style="fill:none;fill-opacity:1;stroke:#3c7ed8;stroke-width:2.11667;stroke-linecap:round;stroke-linejoin:round;stroke-dasharray:none;stroke-opacity:1;paint-order:fill markers stroke"
           d="M 31.337051,8.9042141 C 23.390964,-0.21425064 20.121043,24.443805 31.290769,43.55356"
           id="path24"
           sodipodi:nodetypes="cc" /><path
           style="baseline-shift:baseline;display:inline;overflow:visible;opacity:1;vector-effect:none;fill:#e65049;fill-opacity:1;stroke-linecap:round;stroke-linejoin:round;paint-order:fill markers stroke;enable-background:accumulate;stop-color:#000000;stop-opacity:1"
           d="m 25.027171,31.359433 c 1.186303,4.239347 2.93802,8.601357 5.350279,12.728377 0.295189,0.504059 0.942944,0.673647 1.447266,0.378907 0.504059,-0.29519 0.673646,-0.942944 0.378906,-1.447266 -2.99865,-5.130249 -4.935974,-10.700045 -6.007197,-15.86665 0,0 -1.241856,4.173327 -1.169254,4.206632 z"
           id="path24-6"
           sodipodi:nodetypes="cccccc" /></g><g
         id="g27"><path
           style="fill:none;fill-opacity:1;stroke:#3479d7;stroke-width:2.11667;stroke-linecap:round;stroke-linejoin:round;stroke-dasharray:none;stroke-opacity:1;paint-order:fill markers stroke"
           d="M 70.012512,25.826801 C 65.49762,12.373627 66.913979,5.0562806 68.453944,-0.54669122 71.621891,-12.072881 76.989273,-11.688083 78.931737,-4.0996855 80.583133,2.3516292 81.179025,17.939795 82.319293,28.164917"
           id="path25"
           sodipodi:nodetypes="cssc" /><path
           style="baseline-shift:baseline;display:inline;overflow:visible;opacity:1;vector-effect:none;fill:#e75049;fill-opacity:1;stroke-linecap:round;stroke-linejoin:round;paint-order:fill markers stroke;enable-background:accumulate;stop-color:#000000;stop-opacity:1"
           d="m 80.000009,13.647502 c 0.403614,5.091687 0.786514,10.319986 1.267569,14.633748 0.06425,0.58167 0.588363,1.000787 1.169922,0.935547 0.580881,-0.06524 0.998877,-0.589045 0.933594,-1.169922 -0.387993,-3.479246 -0.71459,-7.605595 -1.042425,-11.78815 z m -13.807185,0.471682 c 0.393968,3.426587 1.254644,7.389648 2.816942,12.044878 0.18622,0.553774 0.785954,0.851893 1.339843,0.666016 0.553774,-0.18622 0.851893,-0.785954 0.666016,-1.339844 -2.021133,-6.022436 -2.838954,-10.74097 -2.987292,-14.615962 z"
           id="path25-5"
           sodipodi:nodetypes="cccccccccccc" /></g><g
         id="g31"><g
           id="g30"><path
             id="rect18-2-2"
             style="fill:#252e33;fill-opacity:1;stroke:none;stroke-width:2.11667;stroke-linecap:round;stroke-linejoin:round;stroke-opacity:0.362426;paint-order:fill markers stroke"
             d="m 75.717552,66.983324 c 1.545483,-1.62016 3.296547,-2.838503 6.538261,-1.143302 2.721035,0.29359 6.559857,3.475212 5.279328,7.829474 0.282892,3.287112 -1.414419,5.462278 -5.044805,6.231326 -2.199106,0.830751 -4.286203,0.639016 -6.407386,-0.32247 -1.108869,-0.17259 -2.636961,-1.513394 -2.712522,-2.891551 -2.87341,-7.155188 0.01576,-8.130219 2.347124,-9.703477 z"
             sodipodi:nodetypes="ccccccc" /><path
             id="rect18-2-2-7"
             style="fill:#656d71;fill-opacity:1;stroke:none;stroke-width:2.11667;stroke-linecap:round;stroke-linejoin:round;stroke-opacity:0.362426;paint-order:fill markers stroke"
             d="m 86.175508,78.07384 c -0.845515,0.868402 -2.075275,1.485947 -3.685171,1.826982 -2.199106,0.830751 -4.286203,0.639016 -6.407386,-0.32247 0.661164,-5.90462 8.604557,-5.790179 10.092557,-1.504512 z"
             sodipodi:nodetypes="cccc" /></g><ellipse
           style="fill:#ffffff;fill-opacity:1;stroke:none;stroke-width:3.58012;stroke-linecap:round;stroke-linejoin:round;stroke-dasharray:none;stroke-opacity:1;paint-order:fill markers stroke"
           id="path30-3"
           cx="78.658241"
           cy="71.49601"
           rx="3.2355947"
           ry="3.3572338" /><ellipse
           style="fill:#ffffff;fill-opacity:1;stroke:none;stroke-width:1.93082;stroke-linecap:round;stroke-linejoin:round;stroke-dasharray:none;stroke-opacity:1;paint-order:fill markers stroke"
           id="path30-3-2-8"
           cx="83.332588"
           cy="75.048271"
           rx="1.6784467"
           ry="1.8824092" /></g><g
         id="g32"><g
           id="g29"><path
             id="rect18-8"
             style="fill:#252e33;fill-opacity:1;stroke:none;stroke-width:2.11667;stroke-linecap:round;stroke-linejoin:round;stroke-opacity:0.362426;paint-order:fill markers stroke"
             d="m 38.09619,73.441176 c 0.584537,-2.377661 0.85625,-4.159713 3.194591,-4.913316 0.997424,-1.201307 3.111392,-0.618713 5.014649,-0.216884 3.484971,-0.165649 4.386945,1.864251 4.778415,4.328078 0.988038,2.652366 2.911639,5.235941 -1.181673,8.261936 -2.526412,2.69848 -5.915971,2.807521 -10.162222,0.346486 -1.480953,-1.10558 -4.097635,-3.331473 -1.64376,-7.8063 z"
             sodipodi:nodetypes="ccccccc" /><path
             id="rect18-8-5"
             style="fill:#656d71;fill-opacity:1;stroke:none;stroke-width:2.11667;stroke-linecap:round;stroke-linejoin:round;stroke-opacity:0.362426;paint-order:fill markers stroke"
             d="m 49.902172,80.90099 c -2.526412,2.69848 -5.915971,2.807521 -10.162222,0.346486 1.274287,-4.664621 8.584068,-5.13312 10.162222,-0.346486 z"
             sodipodi:nodetypes="ccc" /></g><ellipse
           style="fill:#ffffff;fill-opacity:1;stroke:none;stroke-width:3.45494;stroke-linecap:round;stroke-linejoin:round;stroke-dasharray:none;stroke-opacity:1;paint-order:fill markers stroke"
           id="path30"
           cx="43.50317"
           cy="73.90609"
           rx="3.122462"
           ry="3.2398479" /><ellipse
           style="fill:#ffffff;fill-opacity:1;stroke:none;stroke-width:1.86965;stroke-linecap:round;stroke-linejoin:round;stroke-dasharray:none;stroke-opacity:1;paint-order:fill markers stroke"
           id="path30-3-2"
           cx="47.972336"
           cy="77.448997"
           rx="1.6784467"
           ry="1.7650235" /></g><g
         id="g36"><path
           id="rect18-2-7"
           style="fill:#e75049;fill-opacity:1;stroke:none;stroke-width:2.11667;stroke-linecap:round;stroke-linejoin:round;stroke-opacity:0.362426;paint-order:fill markers stroke"
           d="m 34.543075,126.63374 c 4.60404,-6.4302 9.942631,-8.30619 15.522338,-8.68726 l 0.441725,2.73875 -14.156894,8.54001 z"
           sodipodi:nodetypes="ccccc" /><path
           id="rect18-2-7-6"
           style="fill:#a53d3d;fill-opacity:1;stroke:none;stroke-width:2.11667;stroke-linecap:round;stroke-linejoin:round;stroke-opacity:0.362426;paint-order:fill markers stroke"
           d="m 39.636509,121.4171 c 3.28459,-2.34548 6.805919,-3.22319 10.428904,-3.47062 l 0.441725,2.73875 -9.969595,6.01406 c 0,0 -0.852649,-5.19459 -0.901034,-5.28219 z"
           sodipodi:nodetypes="ccccc" /><path
           id="rect18-2-7-1"
           style="fill:#255db3;fill-opacity:1;stroke:none;stroke-width:2.11667;stroke-linecap:round;stroke-linejoin:round;stroke-opacity:0.362426;paint-order:fill markers stroke"
           d="m 43.939756,119.15858 c 1.991105,-0.71887 4.041562,-1.06977 6.125657,-1.2121 l 0.441725,2.73875 -10.18104,6.12748 z"
           sodipodi:nodetypes="ccccc" /></g><path
         id="rect18-2-81"
         style="fill:#27466a;fill-opacity:0.384314;stroke:none;stroke-width:2.11667;stroke-linecap:round;stroke-linejoin:round;stroke-opacity:0.362426;paint-order:fill markers stroke"
         d="M 27.589831,-0.14056467 38.537823,36.261222 c -1.85334,1.573905 -9.995992,10.619059 -11.866628,13.289372 l -1.056439,-1.679371 c 0.360897,-3.78603 4.117033,-9.459055 4.663647,-10.787066 0.546614,-1.328011 -2.688572,-37.22472167 -2.688572,-37.22472167 z"
         sodipodi:nodetypes="cccczc" /><path
         id="rect18-2-44"
         style="fill:#27466a;fill-opacity:0.383136;stroke:none;stroke-width:2.11667;stroke-linecap:round;stroke-linejoin:round;stroke-opacity:0.362426;paint-order:fill markers stroke"
         d="m 63.725033,24.305791 c 4.930271,-1.699663 10.941651,-1.98358 11.916957,-1.74088 4.899063,-10.936872 5.185501,-21.87374399 6.788119,-32.810616 3.639985,13.2799735 5.217361,27.075599 5.632889,41.161687 -8.435281,-4.375686 -14.028556,-6.838597 -24.077781,-5.08129 z"
         sodipodi:nodetypes="cccccc" /><path
         style="fill:none;fill-opacity:0.396078;stroke:#000000;stroke-width:2.64583;stroke-linecap:round;stroke-linejoin:round;stroke-dasharray:none;stroke-opacity:0.996078;paint-order:fill markers stroke"
         d="M 87.968883,31.015535 C 60.140643,15.902244 28.301527,36.305399 21.937334,61.810854"
         id="path1"
         sodipodi:nodetypes="cc" /><path
         style="fill:none;fill-opacity:0.396078;stroke:#000000;stroke-width:2.64583;stroke-linecap:round;stroke-linejoin:round;stroke-dasharray:none;stroke-opacity:0.996078;paint-order:fill markers stroke"
         d="m 26.851114,58.401461 c 0,0 -3.956974,1.322245 -5.072736,3.741634 -1.115761,2.419388 0.935988,2.664772 -0.217792,5.086115 -1.15378,2.421343 -2.20388,1.231164 -3.176276,3.058514 -0.972396,1.82735 -1.209844,7.423507 2.070143,7.777086 0.678461,0.07314 5.475674,0.834422 7.261616,-1.112681 0.339459,-0.370091 -1.001877,-3.992172 0.29883,-5.717937 1.300707,-1.725765 4.759205,-1.352788 5.813206,-3.049171 1.054001,-1.696383 -1.041057,-4.542886 0.489932,-6.852008 1.530989,-2.309122 2.787558,-1.203803 3.977672,-2.449909 1.190114,-1.246106 0.06738,-2.867841 0.621061,-3.530977 0.553682,-0.663136 1.689688,-0.06089 2.032513,-0.630842 0.342825,-0.56995 -0.71336,-0.931729 0.337806,-2.003578 1.051166,-1.071849 3.829299,-2.358416 3.829299,-2.358416"
         id="path2"
         sodipodi:nodetypes="czzzsszzzzzzzc" /><path
         style="fill:none;fill-opacity:0.396078;stroke:#000000;stroke-width:2.64583;stroke-linecap:round;stroke-linejoin:round;stroke-dasharray:none;stroke-opacity:0.996078;paint-order:fill markers stroke"
         d="M 19.210238,77.899783 C 16.805436,114.49776 17.078584,120.66196 33.428839,126.4548"
         id="path3"
         sodipodi:nodetypes="cc" /><path
         style="fill:none;fill-opacity:0.396078;stroke:#000000;stroke-width:2.64583;stroke-linecap:round;stroke-linejoin:round;stroke-dasharray:none;stroke-opacity:0.996078;paint-order:fill markers stroke"
         d="m 45.227253,40.991924 c 0.168084,7.865609 -0.527538,14.403833 2.366939,22.415783 l 4.078684,-3.211435 2.936079,3.923433 19.947811,-4.933004 C 74.915669,51.341467 72.854019,44.2795 68.370296,37.059121"
         id="path4"
         sodipodi:nodetypes="cccccc" /><path
         style="fill:none;fill-opacity:0.396078;stroke:#000000;stroke-width:2.64583;stroke-linecap:round;stroke-linejoin:round;stroke-dasharray:none;stroke-opacity:0.996078;paint-order:fill markers stroke"
         d="m 73.201302,47.125656 c 0,0 3.339436,0.62509 4.479381,1.542509 1.139946,0.917418 1.002503,2.466918 1.99556,3.100191 0.993058,0.633274 2.361817,-0.245229 3.348402,0.459883 0.986585,0.705111 0.854017,2.779685 1.751413,3.480245 0.897396,0.70056 1.924691,-0.08347 2.86325,0.643629 0.93856,0.727101 0.941907,2.960551 1.910739,3.727639 0.968832,0.767088 1.882843,-0.13233 3.131434,0.773849 1.248591,0.906179 1.405896,4.209914 3.190544,5.117932 1.784647,0.908019 4.022623,-0.566426 5.967685,0.03846 1.94507,0.604883 2.59078,3.183597 4.87031,3.42954 2.27952,0.245943 5.61136,-1.747969 6.32585,-3.514055 0.71449,-1.766086 -1.10367,-8.061493 -3.26323,-8.655916 -2.15957,-0.594422 -2.57836,0.557695 -3.87638,-0.173385 -1.29802,-0.731079 -1.54139,-3.651998 -3.13845,-4.473669 -1.59706,-0.82167 -3.417849,1.110222 -5.311279,0.04619 -1.89343,-1.064029 -2.328494,-5.446745 -3.956852,-6.628899 C 91.86132,44.857646 89.244412,45.07599 89.244412,45.07599"
         id="path5"
         sodipodi:nodetypes="czzzzzzzzzzzzzzzzc" /><path
         style="fill:none;fill-opacity:0.396078;stroke:#000000;stroke-width:2.64583;stroke-linecap:round;stroke-linejoin:round;stroke-dasharray:none;stroke-opacity:0.996078;paint-order:fill markers stroke"
         d="m 95.613666,66.501856 c -0.26745,5.28419 -3.828073,25.559485 1.379707,36.148314"
         id="path6"
         sodipodi:nodetypes="cc" /><path
         style="fill:none;fill-opacity:0.396078;stroke:#000000;stroke-width:2.64583;stroke-linecap:round;stroke-linejoin:round;stroke-dasharray:none;stroke-opacity:0.996078;paint-order:fill markers stroke"
         d="m 30.491514,70.089092 c 0.212317,1.497425 0.418945,2.984696 0.624081,4.464063 1.647159,11.878707 3.198158,23.24779 6.826335,35.271495"
         id="path7"
         sodipodi:nodetypes="csc" /><path
         style="fill:none;fill-opacity:0.396078;stroke:#000000;stroke-width:2.64583;stroke-linecap:round;stroke-linejoin:round;stroke-dasharray:none;stroke-opacity:0.996078;paint-order:fill markers stroke"
         d="m 32.974987,87.611367 c 7.235314,20.405113 48.456598,16.462913 61.258971,0.689852"
         id="path8"
         sodipodi:nodetypes="cc" /><path
         style="fill:none;fill-opacity:0.396078;stroke:#000000;stroke-width:2.64583;stroke-linecap:round;stroke-linejoin:round;stroke-dasharray:none;stroke-opacity:0.996078;paint-order:fill markers stroke"
         d="m 59.696361,101.96032 c 3.959074,6.27701 -5.884847,13.81166 -8.768096,16.80995"
         id="path9"
         sodipodi:nodetypes="cc" /><path
         style="fill:none;fill-opacity:0.396078;stroke:#000000;stroke-width:2.64583;stroke-linecap:round;stroke-linejoin:round;stroke-dasharray:none;stroke-opacity:0.996078;paint-order:fill markers stroke"
         d="m 110.92571,67.99931 c 9.03324,34.5767 0.58846,36.06538 -12.939918,44.35423"
         id="path10"
         sodipodi:nodetypes="cc" /><path
         style="fill:none;fill-opacity:0.396078;stroke:#000000;stroke-width:2.64583;stroke-linecap:round;stroke-linejoin:round;stroke-dasharray:none;stroke-opacity:0.996078;paint-order:fill markers stroke"
         d="m 37.853275,136.525 c -0.383242,-2.37095 -0.49503,-4.74189 -0.626398,-7.11283 L 31.219195,136.525 H 119.90123 C 108.60875,123.92162 98.172664,110.30614 84.194268,100.87703 L 83.31623,96.486828"
         id="path11"
         sodipodi:nodetypes="cccccc" /><path
         style="fill:none;fill-opacity:0.396078;stroke:#000000;stroke-width:2.64583;stroke-linecap:round;stroke-linejoin:round;stroke-dasharray:none;stroke-opacity:0.996078;paint-order:fill markers stroke"
         d="m 50.821841,120.39228 c 0,0 -0.239425,-2.36478 -1.370964,-2.51431 -5.470285,-0.72289 -11.809601,4.85097 -14.524403,8.36465 -1.51607,1.9622 0.874939,4.13185 2.439001,2.9268 3.23965,-2.49603 13.080058,-8.64781 13.917337,-8.47431 4.679169,-0.78118 21.20638,6.30257 5.201811,5.20612 2.694889,2.73595 5.494843,7.11069 5.758649,9.90227"
         id="path12"
         sodipodi:nodetypes="csssccc" /><path
         style="fill:none;fill-opacity:0.396078;stroke:#000000;stroke-width:2.64583;stroke-linecap:round;stroke-linejoin:round;stroke-dasharray:none;stroke-opacity:0.996078;paint-order:fill markers stroke"
         d="m 92.291748,107.70622 c 0.464246,18.52971 2.952826,24.45374 5.407166,28.81878"
         id="path13"
         sodipodi:nodetypes="cc" /><path
         style="fill:none;fill-opacity:0.396078;stroke:#000000;stroke-width:2.64583;stroke-linecap:round;stroke-linejoin:round;stroke-dasharray:none;stroke-opacity:0.996078;paint-order:fill markers stroke"
         d="m 63.413993,101.55995 4.533475,3.62249 5.388979,-3.40205"
         id="path14"
         sodipodi:nodetypes="ccc" /><path
         style="fill:none;fill-opacity:0.396078;stroke:#000000;stroke-width:2.11667;stroke-linecap:round;stroke-linejoin:round;stroke-dasharray:none;stroke-opacity:0.996078;paint-order:fill markers stroke"
         d="m 39.114681,54.843335 c 2.788957,0.992116 8.188601,-0.712046 11.348086,-2.138545"
         id="path16"
         sodipodi:nodetypes="cc" /><path
         style="fill:none;fill-opacity:0.396078;stroke:#000000;stroke-width:2.11667;stroke-linecap:round;stroke-linejoin:round;stroke-dasharray:none;stroke-opacity:0.996078;paint-order:fill markers stroke"
         d="m 70.709961,50.152334 c 4.092206,1.24666 8.325156,1.742689 12.693301,1.517676"
         id="path17"
         sodipodi:nodetypes="cc" /><path
         style="fill:none;fill-opacity:0.396078;stroke:#000000;stroke-width:2.11667;stroke-linecap:round;stroke-linejoin:round;stroke-dasharray:none;stroke-opacity:0.996078;paint-order:fill markers stroke"
         d="m 60.966166,89.63096 c 0,0 1.673112,-1.430679 2.24612,-1.497414 0.573008,-0.06673 3.476142,0.962623 3.476142,0.962623"
         id="path18"
         sodipodi:nodetypes="czc" /><path
         style="fill:none;fill-opacity:0.396078;stroke:#000000;stroke-width:2.64583;stroke-linecap:round;stroke-linejoin:round;stroke-dasharray:none;stroke-opacity:0.996078;paint-order:fill markers stroke"
         d="M 24.958183,53.581337 C 14.005423,42.117614 13.035979,24.56668 13.804267,15.406825 16.363738,-15.108245 23.423037,-14.620413 37.237249,1.3158389 43.630263,8.6909015 50.212345,17.713817 56.571882,27.075847"
         id="path19"
         sodipodi:nodetypes="cssc" /><path
         style="fill:none;fill-opacity:0.396078;stroke:#000000;stroke-width:2.64583;stroke-linecap:round;stroke-linejoin:round;stroke-dasharray:none;stroke-opacity:0.996078;paint-order:fill markers stroke"
         d="M 60.648836,26.385754 C 56.64633,13.949373 59.001496,0.40797613 62.080163,-6.304259 73.061308,-30.245796 82.63307,-20.783832 92.674287,5.0687835 98.042456,18.889938 106.90052,40.995468 109.36695,57.295348"
         id="path20"
         sodipodi:nodetypes="cssc" /><path
         style="fill:none;fill-opacity:0.396078;stroke:#000000;stroke-width:2.64583;stroke-linecap:round;stroke-linejoin:round;stroke-dasharray:none;stroke-opacity:0.996078;paint-order:fill markers stroke"
         d="M 28.357465,-0.08291657 C 32.807175,11.073992 35.641901,24.199855 38.722037,35.98579"
         id="path21"
         sodipodi:nodetypes="cc" /><path
         style="fill:none;fill-opacity:0.396078;stroke:#000000;stroke-width:2.64583;stroke-linecap:round;stroke-linejoin:round;stroke-dasharray:none;stroke-opacity:0.996078;paint-order:fill markers stroke"
         d="M 82.293122,-9.9408109 C 87.672248,5.7368987 87.14456,26.924604 89.466977,45.106613"
         id="path22"
         sodipodi:nodetypes="cc" /><path
         id="rect18-2-05"
         style="fill:#000000;fill-opacity:1;stroke:none;stroke-width:2.11667;stroke-linecap:round;stroke-linejoin:round;stroke-opacity:0.362426;paint-order:fill markers stroke"
         d="m 27.669374,71.138534 5.718663,-2.104747 -0.888671,5.935695 -4.449848,3.441912 z"
         sodipodi:nodetypes="ccccc" /></g></g></svg>
