<?xml version="1.0" encoding="UTF-8" standalone="no"?>
<!-- Created with Inkscape (http://www.inkscape.org/) -->

<svg
   width="512"
   height="512"
   viewBox="0 0 135.46666 135.46667"
   version="1.1"
   id="svg1"
   inkscape:version="1.4.1 (unknown)"
   sodipodi:docname="aosc-09.svg"
   xml:space="preserve"
   xmlns:inkscape="http://www.inkscape.org/namespaces/inkscape"
   xmlns:sodipodi="http://sodipodi.sourceforge.net/DTD/sodipodi-0.dtd"
   xmlns="http://www.w3.org/2000/svg"
   xmlns:svg="http://www.w3.org/2000/svg"><sodipodi:namedview
     id="namedview1"
     pagecolor="#505050"
     bordercolor="#ffffff"
     borderopacity="1"
     inkscape:showpageshadow="0"
     inkscape:pageopacity="0"
     inkscape:pagecheckerboard="1"
     inkscape:deskcolor="#d1d1d1"
     inkscape:document-units="px"
     inkscape:zoom="8.244206"
     inkscape:cx="154.71472"
     inkscape:cy="48.155031"
     inkscape:window-width="1605"
     inkscape:window-height="1080"
     inkscape:window-x="0"
     inkscape:window-y="0"
     inkscape:window-maximized="0"
     inkscape:current-layer="layer1" /><defs
     id="defs1" /><g
     inkscape:label="Layer 1"
     inkscape:groupmode="layer"
     id="layer1"><path
       id="rect49-311"
       style="fill:#90bbf3;fill-opacity:1;stroke-width:7.73179;stroke-linecap:round;stroke-linejoin:round;stroke-opacity:0.71752;paint-order:fill markers stroke"
       d="M 1.9999999e-6,-1.0000001e-6 H 135.46666 V 135.46667 H 1.9999999e-6 Z" /><path
       id="rect49-896"
       style="fill:#6790ca;fill-opacity:1;stroke-width:1.28837;stroke-linecap:round;stroke-linejoin:round;stroke-opacity:0.71752;paint-order:fill markers stroke"
       d="m 108.44965,43.888418 25.29352,21.535901 1.72349,-9.957335 0,18.928923 z"
       sodipodi:nodetypes="ccccc" /><path
       id="rect49-77"
       style="fill:#6790ca;fill-opacity:1;stroke-width:1.28837;stroke-linecap:round;stroke-linejoin:round;stroke-opacity:0.71752;paint-order:fill markers stroke"
       d="m 19.265372,82.98822 1.982311,1.683098 0.896816,17.530352 c 0,0 -0.361018,4.79286 -1.991311,3.68856 -1.48071,-1.00298 -4.168696,-7.907917 -5.542765,-7.997358 C 13.166725,97.798898 -1.1145318,120.5072 -1.1145318,120.5072 l -0.059772,-9.02877 z"
       sodipodi:nodetypes="cccssccc" /><path
       id="rect49-74"
       style="fill:#6790ca;fill-opacity:1;stroke-width:1.28837;stroke-linecap:round;stroke-linejoin:round;stroke-opacity:0.71752;paint-order:fill markers stroke"
       d="m 31.379252,95.078215 4.78028,0.08015 2.003708,2.21554 c -1.781277,2.348784 -4.702018,1.658997 -7.745768,0.641187 z"
       sodipodi:nodetypes="ccccc" /><path
       id="rect49-962"
       style="fill:#ffffff;fill-opacity:1;stroke:#000000;stroke-width:2.11667;stroke-linecap:round;stroke-linejoin:round;stroke-opacity:1;paint-order:fill markers stroke"
       d="M 25.430036,67.124726 60.216744,101.04271 48.555284,107.71215 20.628918,79.635281 Z"
       sodipodi:nodetypes="ccccc" /><path
       style="baseline-shift:baseline;display:inline;overflow:visible;vector-effect:none;fill:#ffffff;stroke-linejoin:round;paint-order:fill markers stroke;enable-background:accumulate;stop-color:#000000"
       d="M 39.979617,-18.361008 C 78.43268,17.73981 123.01582,55.895851 155.18015,97.135661 L 109.86992,147.48036 C 64.760682,109.45548 21.955873,70.383127 -14.511119,28.429951 Z"
       id="path64" /><path
       id="rect49-01"
       style="fill:#5f7ea1;fill-opacity:0.45882353;stroke-width:2.11667;stroke-linecap:round;stroke-linejoin:round;stroke-opacity:0.71752;paint-order:fill markers stroke"
       d="m 36.122876,78.062252 26.491994,-9.891336 -1.437684,4.592477 -23.037637,10.006476 -3.833197,7.473341 -2.189767,-1.962305 0.355917,-4.12139 z"
       sodipodi:nodetypes="cccccccc" /><path
       id="rect49-99"
       style="fill:#5f7ea1;fill-opacity:0.45767716;stroke-width:2.11667;stroke-linecap:round;stroke-linejoin:round;stroke-opacity:0.71752;paint-order:fill markers stroke"
       d="M 96.324123,129.82004 140.40384,97.705425 c 0,0 7.74533,2.595135 1.40635,8.851625 -7.09274,7.00044 -20.66591,21.96777 -20.66591,21.96777 l -2.80997,1.11704 c 0,0 1.75052,3.04534 -3.08338,5.07303 -5.43996,2.28192 -17.353621,3.47197 -17.353621,3.47197 z"
       sodipodi:nodetypes="ccsccscc" /><path
       style="baseline-shift:baseline;display:inline;overflow:visible;vector-effect:none;fill-opacity:0.992157;stroke-linejoin:round;paint-order:fill markers stroke;enable-background:accumulate;stop-color:#000000"
       d="m 39.117187,-19.365234 -54.490234,46.791015 a 1.3230472,1.3230472 0 0 0 -0.136719,1.871094 C 21.026686,71.32996 63.88221,110.44528 109.01758,148.49219 a 1.3230472,1.3230472 0 0 0 1.83594,-0.12696 l 45.31054,-50.343746 a 1.3230472,1.3230472 0 0 0 0.0586,-1.699218 C 123.9371,54.927024 79.304945,16.743774 40.884766,-19.326172 a 1.3230472,1.3230472 0 0 0 -1.767579,-0.03906 z m 0.830079,2.77539 C 77.968841,19.053597 121.68032,56.641963 153.43555,97.097656 L 109.75391,145.63281 C 65.391057,108.19399 23.317534,69.745703 -12.625,28.554687 Z"
       id="path65" /><path
       id="rect49-793"
       style="fill:#5f7ea1;fill-opacity:0.45882353;stroke-width:2.11667;stroke-linecap:round;stroke-linejoin:round;stroke-opacity:0.71752;paint-order:fill markers stroke"
       d="M 66.530634,63.498832 86.340462,45.099168 c 5.047285,-0.444653 3.087631,3.704745 -4.087778,10.263172 -3.807129,3.479771 -7.291152,7.635996 -11.415059,9.474155 z"
       sodipodi:nodetypes="ccscc" /><path
       style="baseline-shift:baseline;display:inline;overflow:visible;vector-effect:none;fill:#ffffff;stroke-linejoin:round;paint-order:fill markers stroke;enable-background:accumulate;stop-color:#000000"
       d="M 41.542884,-5.0130279 C 45.939237,4.4347146 77.788127,27.191199 87.445414,42.370222 L 53.09256,74.353913 C 32.267239,62.98211 12.265618,35.755573 4.2285756,27.562957 Z"
       id="path62" /><path
       id="rect49-49"
       style="fill:#5f7ea1;fill-opacity:0.45882353;stroke-width:2.11667;stroke-linecap:round;stroke-linejoin:round;stroke-opacity:0.71752;paint-order:fill markers stroke"
       d="M 31.597041,4.1884793 38.845053,9.3523158 35.324256,11.595801 31.518801,5.8842845 Z"
       sodipodi:nodetypes="ccccc" /><path
       id="rect49-97"
       style="fill:#5f7ea1;fill-opacity:0.45882353;stroke-width:2.11667;stroke-linecap:round;stroke-linejoin:round;stroke-opacity:0.71752;paint-order:fill markers stroke"
       d="m 55.640321,11.440591 2.082162,2.159395 c -0.562871,3.218294 -2.007705,6.289595 -3.208792,9.40152 l -4.999374,2.696132 z"
       sodipodi:nodetypes="ccccc" /><path
       id="rect49-57"
       style="fill:#5f7ea1;fill-opacity:0.45882353;stroke-width:2.11667;stroke-linecap:round;stroke-linejoin:round;stroke-opacity:0.71752;paint-order:fill markers stroke"
       d="m 69.684193,25.137666 2.808,2.058648 c -1.335707,4.12194 -2.190377,8.243881 -4.803512,12.365821 l -3.579993,-1.458209 z"
       sodipodi:nodetypes="ccccc" /><path
       style="baseline-shift:baseline;display:inline;overflow:visible;vector-effect:none;fill-opacity:0.988235;stroke-linejoin:round;paint-order:fill markers stroke;enable-background:accumulate;stop-color:#000000"
       d="m 41.816406,-6.3066406 a 1.3230472,1.3230472 0 0 0 -1.142578,0.296875 L 3.359375,26.566406 a 1.3230472,1.3230472 0 0 0 -0.074219,1.923828 c 3.8896745,3.964968 10.960361,12.879582 19.611328,22.177735 8.650968,9.298152 18.916426,19.034298 29.5625,24.847656 a 1.3230472,1.3230472 0 0 0 1.535157,-0.193359 L 88.347656,43.337891 A 1.3230472,1.3230472 0 0 0 88.5625,41.660156 C 83.541024,33.767557 73.131706,24.31847 63.408203,15.546875 58.546452,11.161078 53.85987,6.9628197 50.140625,3.2988281 46.42138,-0.3651635 43.669214,-3.5781362 42.742187,-5.5703125 a 1.3230472,1.3230472 0 0 0 -0.925781,-0.7363281 z m -0.513672,3.2597656 c 1.483632,2.41905826 3.790494,5.0878846 6.980469,8.2304687 3.790686,3.7343713 8.494387,7.9464553 13.351563,12.3281253 9.354578,8.438786 19.174214,17.531263 24.037109,24.703125 L 52.9375,72.689453 C 43.024987,67.075665 33.177142,57.83255 24.833984,48.865234 16.671923,40.092563 10.300503,32.113265 6.0996094,27.683594 Z"
       id="path63" /><path
       id="rect1-0-6"
       style="fill:#ffffff;fill-opacity:1;stroke:#000000;stroke-width:2.64583;stroke-linejoin:round;stroke-opacity:0.996078;paint-order:fill markers stroke"
       d="m 96.03697,50.035041 c 7.40148,6.816011 17.74706,14.363739 24.89595,24.89823 10.16485,7.369726 18.23808,15.842839 23.0796,23.669603 L 109.74497,132.52686 C 88.91964,121.15506 66.759706,90.803643 58.722664,82.611026 Z"
       sodipodi:nodetypes="cccccc" /><path
       id="rect49-549"
       style="fill:#5f7ea1;fill-opacity:0.45882353;stroke-width:2.11667;stroke-linecap:round;stroke-linejoin:round;stroke-opacity:0.71752;paint-order:fill markers stroke"
       d="m 127.6532,88.759104 c 0,0 5.10039,-2.201548 0.45682,4.519214 -4.25934,6.16464 -13.73487,17.637312 -13.73487,17.637312 l -2.14045,-2.65836 z"
       sodipodi:nodetypes="csccc" /><path
       id="rect47-2"
       style="fill:#3b484f;fill-opacity:1;stroke-width:2.11667;stroke-linecap:round;stroke-linejoin:round;stroke-opacity:0.71752;paint-order:fill markers stroke"
       d="m 7.1086184,11.431446 8.5787676,1.157963 2.34808,-4.6772851 4.819557,0.1023682 C 33.835396,0.62073222 34.749276,9.469863 34.770297,12.115516 L 54.532553,49.61123 63.781275,38.704552 c 9.396113,1.676062 5.342859,7.020132 3.20402,11.84209 l 1.115803,4.07137 -2.505066,2.792642 1.546341,6.0764 C 57.563642,69.831591 47.387101,75.129961 36.350113,78.922549 34.6991,81.230923 33.88083,83.411968 31.77668,84.673762 l 0.188778,3.155111 c 6.830106,5.727777 4.398149,7.245525 -0.725053,7.539979 0.03099,5.324338 -4.224941,6.361758 -7.235559,8.644478 C 18.615993,98.056047 13.657644,92.16207 20.416669,87.991235 l 0.84547,-3.41161 -1.304694,-2.732322 -20.48517317,28.651307 -0.29886852,-77.57357 z"
       sodipodi:nodetypes="cccccccccccccccccccccc" /><path
       style="fill:none;fill-opacity:1;stroke:#377bd7;stroke-width:2.11667;stroke-linecap:round;stroke-linejoin:round;stroke-dasharray:none;stroke-opacity:1;paint-order:fill markers stroke"
       d="m 7.4228793,12.897911 8.6863477,1.474047 2.895449,7.054368 -2.526937,2.474292 -1.421402,-3.316605 2.637367,-1.935962 0.798258,0.450096 5.198079,-3.725943 3.26396,1.895203"
       id="path51"
       sodipodi:nodetypes="ccccccccc" /><path
       id="rect47-7"
       style="fill:#252e33;fill-opacity:1;stroke-width:2.11667;stroke-linecap:round;stroke-linejoin:round;stroke-opacity:0.71752;paint-order:fill markers stroke"
       d="m 17.672279,26.636668 c 1.063348,-3.13693 0.430493,-8.139682 6.4228,-5.854757 12.931732,-11.4776272 44.846695,-33.231118 25.544878,4.590278 36.298855,-22.8306644 15.624301,15.772391 4.298879,24.654763 2.349337,4.458717 -0.657725,6.651266 -5.106311,8.233939 C 42.534149,70.859027 34.929786,71.330135 26.794395,66.870275 19.455828,62.622761 12.2303,58.084576 6.7026273,49.180475 -0.74908081,35.889578 14.120958,29.59676 17.672279,26.636668 Z"
       sodipodi:nodetypes="cccccccc" /><path
       id="rect47-6"
       style="fill:#3b484f;fill-opacity:1;stroke-width:2.11667;stroke-linecap:round;stroke-linejoin:round;stroke-opacity:0.71752;paint-order:fill markers stroke"
       d="m 66.591427,64.087263 5.394493,1.3024 2.491497,-3.073978 3.712264,0.755604 c 3.451224,-5.113409 9.540693,-4.208383 11.399668,1.627967 l -10.025506,13.260038 33.627277,31.484156 5.85788,-0.4078 c 10.12619,-7.69492 14.68662,9.18943 5.23936,9.23433 l 0.17518,3.27947 -3.84676,2.63915 -0.10791,4.0515 c -9.99717,3.7807 -12.922,9.78787 -46.84999,6.03479 l -0.409124,2.2042 -57.309013,0.26657 -7.4537599,-0.74561 5.7891789,-4.45251 -0.018,-2.6864 25.457791,-11.40407 6.15854,-4.16793 1.007136,-3.31148 C 42.849171,103.15501 44.85177,97.725061 53.05543,93.72613 55.493341,83.846508 58.257625,73.966885 66.591427,64.087263 Z"
       sodipodi:nodetypes="ccccccccccccccccccccccc" /><path
       id="rect47-3"
       style="fill:#252e33;fill-opacity:1;stroke-width:2.11667;stroke-linecap:round;stroke-linejoin:round;stroke-opacity:0.71752;paint-order:fill markers stroke"
       d="m 45.572162,113.28342 0.971079,-3.17549 c -5.498402,-14.510569 8.849286,-17.620193 20.091862,-22.513605 0.486393,-1.997255 0.273415,-4.20644 3.768472,-5.291979 3.012996,-2.666757 6.025992,-3.519867 9.038988,-4.509043 3.037777,-8.911646 36.653707,-39.252812 22.528357,7.404343 10.15584,-2.156061 23.06874,-10.185838 26.41439,2.166771 l -17.05668,22.667523 -16.352829,6.3832 -0.943925,-6.61092 1.086959,-1.58719 -0.84534,-2.44641 3.572373,-7.23502 c -2.484565,2.59803 -6.013452,4.67391 -9.762825,6.63954 l -6.403554,-7.601355 0.275176,-3.193145 -2.94785,-1.167363 3.685926,-5.106399 -3.74898,0.06851 -3.928116,0.939227 -3.651327,-0.429068 c -10.240531,12.652063 -4.75453,14.520203 -2.680003,18.727653 -2.441166,3.19445 -6.428357,4.84288 -11.097798,5.80907 l -1.612652,2.43728 c 2.095917,7.61971 -2.55986,10.09527 -8.185618,11.8318 l -2.97845,-7.93184 -5.526864,-1.11809 z"
       sodipodi:nodetypes="cccccccccccccccccccccccccccc" /><ellipse
       style="fill:#3b484f;fill-opacity:1;stroke:none;stroke-width:1.51331;stroke-linecap:round;stroke-linejoin:round;stroke-dasharray:none;stroke-opacity:0.71752;paint-order:fill markers stroke"
       id="path47-78-0"
       cx="59.680347"
       cy="121.6499"
       rx="1.542693"
       ry="1.3056159"
       transform="rotate(-19.138019)" /><ellipse
       style="fill:#3b484f;fill-opacity:1;stroke:none;stroke-width:2.53216;stroke-linecap:round;stroke-linejoin:round;stroke-dasharray:none;stroke-opacity:0.71752;paint-order:fill markers stroke"
       id="path47-78"
       cx="56.53278"
       cy="114.10392"
       rx="2.5813246"
       ry="2.1846333"
       transform="rotate(-19.138019)" /><path
       id="rect49-7"
       style="fill:#151d23;fill-opacity:1;stroke-width:2.11667;stroke-linecap:round;stroke-linejoin:round;stroke-opacity:0.71752;paint-order:fill markers stroke"
       d="m 66.928814,84.650967 c 0,0 2.017387,1.087554 2.855796,1.192118 0.838409,0.104564 1.260791,-0.464024 1.953417,-0.289829 0.692626,0.174195 1.235291,1.110914 2.293528,1.159633 1.058237,0.04872 1.504515,-0.675267 2.464733,-0.617671 0.960219,0.05759 0.96852,0.733828 1.906397,0.961564 0.186983,-0.568635 0.455303,-1.81846 0.455303,-1.81846 l 3.202762,2.159018 1.302838,1.440712 c 0.350515,1.47195 2.146503,7.436663 5.357614,10.406185 5.585763,-1.986339 3.150542,0.03781 1.136135,1.851563 0.695425,1.28631 1.642848,1.81662 2.628103,2.23344 l -4.115728,2.38688 -6.700476,-8.613864 0.393303,-2.704067 -3.241994,-0.849355 3.210027,-4.421794 -1.001199,-0.863947 -1.968563,0.146067 -2.354802,0.03556 -2.156462,0.943526 -1.620001,-0.687154 -2.686142,0.354058 c -4.33847,-0.202736 -3.222924,-2.539652 -3.314589,-4.404181 z"
       sodipodi:nodetypes="czzzzcccccccccccccccccccc" /><ellipse
       style="fill:#3b484f;fill-opacity:1;stroke:none;stroke-width:1.83029;stroke-linecap:round;stroke-linejoin:round;stroke-dasharray:none;stroke-opacity:0.71752;paint-order:fill markers stroke"
       id="path47-78-3"
       cx="57.928032"
       cy="118.327"
       rx="1.8658228"
       ry="1.579088"
       transform="rotate(-19.138019)" /><path
       id="rect47-4"
       style="fill:#151d23;fill-opacity:1;stroke-width:2.11667;stroke-linecap:round;stroke-linejoin:round;stroke-opacity:0.71752;paint-order:fill markers stroke"
       d="M 53.839154,40.202901 C 64.957551,30.048863 65.941836,26.087894 69.639486,20.468758 c 0.836,13.111654 -8.799694,20.987461 -15.837065,30.16243 l -4.207965,-1.692677 c 1.551247,-5.546919 0.578775,-10.562529 -0.803769,-15.491808 2.783239,1.900428 3.897646,4.410565 5.048467,6.756198 z"
       sodipodi:nodetypes="cccccc" /><path
       id="rect47-65"
       style="fill:#151d23;fill-opacity:1;stroke-width:2.11667;stroke-linecap:round;stroke-linejoin:round;stroke-opacity:0.71752;paint-order:fill markers stroke"
       d="m 35.662555,23.262255 c 0,0 4.435085,2.797936 6.728011,2.57533 C 43.816978,25.699104 55.224235,8.5813955 55.224235,8.5813955 56.223274,9.8773393 54.588818,15.142609 47.976434,27.910842 l -1.725019,3.636579 c -4.272802,-2.596571 -7.235748,-5.48422 -10.58886,-8.285166 z"
       sodipodi:nodetypes="cscccc" /><path
       id="rect47-10"
       style="fill:#151d23;fill-opacity:1;stroke-width:2.11667;stroke-linecap:round;stroke-linejoin:round;stroke-opacity:0.71752;paint-order:fill markers stroke"
       d="m 4.4134094,40.345838 4.0466707,4.796025 c 1.4354773,-5.498267 4.3736369,-7.982925 5.0870599,-8.578412 -0.896174,1.954655 -2.37867,6.033743 -2.724612,8.196114 -0.385931,2.41233 1.133793,5.140351 1.983282,7.337825 -0.106107,-4.120249 3.368026,-9.135559 7.176374,-14.234422 l 3.528015,0.914717 1.253012,5.642096 4.574642,1.447214 2.212658,5.005594 4.444204,1.751114 2.507736,3.379983 4.444879,-0.412103 5.375934,3.450912 C 43.889757,65.698082 39.897775,73.010823 27.044924,67.135293 18.014272,63.204517 12.41755,56.464162 6.7356806,49.793473 Z"
       sodipodi:nodetypes="cccsccccccccccccc" /><path
       style="fill:none;fill-opacity:1;stroke:#377bd7;stroke-width:2.11667;stroke-linecap:round;stroke-linejoin:round;stroke-dasharray:none;stroke-opacity:1;paint-order:fill markers stroke"
       d="m 57.401425,47.276141 4.318133,6.179399 -2.60577,6.998359 -2.680223,-1.265661 1.414561,-2.382419 6.551656,2.159066 1.563463,4.690389"
       id="path50"
       sodipodi:nodetypes="ccccccc" /><path
       id="rect47"
       style="fill:#1b2329;fill-opacity:0.47450981;stroke-width:2.11667;stroke-linecap:round;stroke-linejoin:round;stroke-opacity:0.71752;paint-order:fill markers stroke"
       d="M 6.5863728,49.433262 C 12.165975,56.054941 18.012657,62.491717 26.691905,66.967487 L 38.943572,69.66319 C 47.894617,66.524745 56.65697,62.065453 65.367467,57.243173 l 1.80247,6.633438 C 51.832542,75.507704 35.984988,78.210998 20.178761,81.637529 L -0.63776547,110.64019 -0.81779817,97.384005 c -0.23113523,4.005015 3.62091677,1.649937 3.32541937,-2.37921 1.6523362,-2.23716 3.8508329,-4.396297 3.0833149,-6.979151 L 19.116681,70.029107 C 10.333474,61.921964 6.7521768,54.408604 6.5863728,49.433262 Z"
       sodipodi:nodetypes="cccccccccccc" /><ellipse
       style="fill:#151d23;fill-opacity:1;stroke:none;stroke-width:2.53216;stroke-linecap:round;stroke-linejoin:round;stroke-dasharray:none;stroke-opacity:0.71752;paint-order:fill markers stroke"
       id="path47"
       cx="16.100756"
       cy="41.096024"
       rx="2.5813246"
       ry="2.1846333"
       transform="rotate(-27.087492)" /><ellipse
       style="fill:#151d23;fill-opacity:1;stroke:none;stroke-width:2.53216;stroke-linecap:round;stroke-linejoin:round;stroke-dasharray:none;stroke-opacity:0.71752;paint-order:fill markers stroke"
       id="path47-7"
       cx="16.719988"
       cy="45.578609"
       rx="1.7146488"
       ry="1.4223571"
       transform="rotate(-27.087492)" /><circle
       style="fill:#151d23;fill-opacity:1;stroke:none;stroke-width:2.11667;stroke-linecap:round;stroke-linejoin:round;stroke-dasharray:none;stroke-opacity:0.71752;paint-order:fill markers stroke"
       id="path48"
       cx="37.641014"
       cy="36.233879"
       r="1.0553557" /><circle
       style="fill:#151d23;fill-opacity:1;stroke:none;stroke-width:2.11667;stroke-linecap:round;stroke-linejoin:round;stroke-dasharray:none;stroke-opacity:0.71752;paint-order:fill markers stroke"
       id="path49"
       cx="48.106628"
       cy="32.100403"
       r="0.73288584" /><path
       id="rect49-04"
       style="fill:#fbfbfb;fill-opacity:1;stroke-width:2.11667;stroke-linecap:round;stroke-linejoin:round;stroke-opacity:0.71752;paint-order:fill markers stroke"
       d="m 61.195983,41.977573 c 2.721009,3.735797 5.703602,7.272792 6.40037,12.547013 l -2.647535,2.951643 -2.776763,-0.856814 1.043549,-3.137062 -4.206715,-7.747366 z"
       sodipodi:nodetypes="ccccccc" /><path
       id="rect49-04-5"
       style="fill:#252e33;fill-opacity:1;stroke-width:2.11667;stroke-linecap:round;stroke-linejoin:round;stroke-opacity:0.71752;paint-order:fill markers stroke"
       d="m 61.195983,41.977573 c 2.721009,3.735797 5.703602,7.272792 6.40037,12.547013 l -1.279478,1.426445 C 65.126966,51.321815 60.044254,43.956237 60.044254,43.956237 Z"
       sodipodi:nodetypes="ccccc" /><path
       id="rect49-2"
       style="fill:#3b5d3f;fill-opacity:0.482874;stroke-width:2.11667;stroke-linecap:round;stroke-linejoin:round;stroke-opacity:0.71752;paint-order:fill markers stroke"
       d="m 120.07109,108.72102 c 2.81686,-1.92785 5.62668,-3.65144 8.20361,1.37893 3.23896,7.27545 -1.62571,6.77143 -4.04486,8.61509 z"
       sodipodi:nodetypes="cccc" /><path
       id="rect49-1"
       style="fill:#151d23;fill-opacity:1;stroke-width:2.11667;stroke-linecap:round;stroke-linejoin:round;stroke-opacity:0.71752;paint-order:fill markers stroke"
       d="m 97.110999,81.85981 8.080821,-18.226434 c 0.29478,7.324136 -2.98277,14.766491 -2.81157,22.311703 z"
       sodipodi:nodetypes="cccc" /><path
       id="rect49-9"
       style="fill:#151d23;fill-opacity:1;stroke-width:2.11667;stroke-linecap:round;stroke-linejoin:round;stroke-opacity:0.71752;paint-order:fill markers stroke"
       d="m 102.00625,109.51316 21.26328,-16.156975 -11.92273,16.574125 -10.56625,4.4571 -0.74599,-2.52525 z"
       sodipodi:nodetypes="cccccc" /><path
       id="rect49-6"
       style="fill:#151d23;fill-opacity:1;stroke-width:2.11667;stroke-linecap:round;stroke-linejoin:round;stroke-opacity:0.71752;paint-order:fill markers stroke"
       d="m 95.954751,103.98472 c 0,0 1.166305,2.67508 1.256707,3.88716 0.0904,1.21208 -0.214629,1.67061 -0.523028,3.1645 -0.28802,1.39518 1.645983,3.94411 1.645983,3.94411 l -3.111307,0.94411 c -5.77537,2.51699 -9.501873,2.39973 -13.773305,2.98309 l 12.312143,-7.49371 -0.285701,-2.00092 1.614696,-1.86136 z"
       sodipodi:nodetypes="czsccccccc" /><path
       id="rect49-0"
       style="fill:#151d23;fill-opacity:1;stroke-width:2.11667;stroke-linecap:round;stroke-linejoin:round;stroke-opacity:0.71752;paint-order:fill markers stroke"
       d="m 68.060158,88.559692 2.876582,0.653668 c -3.675886,4.78732 -8.732163,8.857898 -2.624496,18.72514 -3.358436,3.82598 -7.389762,4.62395 -11.447895,5.3013 l -1.01571,2.19876 c 2.728308,10.59481 -4.345585,9.42698 -8.145779,12.18759 0.03389,-4.45828 -0.06764,-8.92697 2.761942,-13.1702 l -3.583945,-4.63311 1.55841,-0.35976 c -0.375519,-2.66679 0.36936,-5.77467 1.958905,-8.28939 -0.493282,3.72923 0.761041,6.7806 1.468635,8.52387 -0.528445,-6.64418 9.056694,-13.974022 16.193351,-21.137868 z"
       sodipodi:nodetypes="cccccccccccc" /><path
       id="rect49-63-8"
       style="fill:#fbfbfb;fill-opacity:1;stroke-width:2.11667;stroke-linecap:round;stroke-linejoin:round;stroke-opacity:0.71752;paint-order:fill markers stroke"
       d="m 18.248167,8.0762951 c 4.945887,0.761922 9.891774,2.7284919 14.837661,5.2497859 L 28.990995,16.2749 23.31054,14.040792 19.136633,17.499711 17.707217,13.206877 15.72827,12.390058 Z"
       sodipodi:nodetypes="cccccccc" /><path
       id="rect49-63"
       style="fill:#21292d;fill-opacity:1;stroke-width:2.11667;stroke-linecap:round;stroke-linejoin:round;stroke-opacity:0.71752;paint-order:fill markers stroke"
       d="m 18.248167,8.0762951 c 4.945887,0.7619219 9.891774,2.7284919 14.837661,5.2497859 l -2.240327,1.61333 C 26.607292,12.249184 17.245955,9.7919627 17.245955,9.7919627 Z"
       sodipodi:nodetypes="ccccc" /><path
       id="rect49-3"
       style="fill:#ffe8e0;fill-opacity:1;stroke-width:2.11667;stroke-linecap:round;stroke-linejoin:round;stroke-opacity:0.71752;paint-order:fill markers stroke"
       d="m 63.637665,38.502249 c 9.501279,0.65412 5.43739,8.694147 3.744971,12.338112 l -6.089251,-8.917088 z"
       sodipodi:nodetypes="cccc" /><path
       id="rect49-67"
       style="fill:#ffe8e0;fill-opacity:1;stroke-width:2.11667;stroke-linecap:round;stroke-linejoin:round;stroke-opacity:0.71752;paint-order:fill markers stroke"
       d="M 35.302164,11.923627 34.132102,13.434347 22.536887,8.4940853 C 25.45375,4.9277084 33.939407,2.2171818 35.302164,11.923627 Z"
       sodipodi:nodetypes="cccc" /><path
       style="fill:none;fill-opacity:1;stroke:#377bd7;stroke-width:2.11667;stroke-linecap:round;stroke-linejoin:round;stroke-dasharray:none;stroke-opacity:1;paint-order:fill markers stroke"
       d="m 111.99074,109.94667 c 2.31163,2.21585 3.62851,5.04989 4.27398,7.68078 l -3.09708,7.06136 -2.60156,-1.61049 1.54855,-2.29185 5.82253,2.16797 c 0.6343,1.91309 1.0543,3.86904 0.86718,5.94641"
       id="path53"
       sodipodi:nodetypes="ccccccc" /><path
       id="rect47-1"
       style="fill:#1b2329;fill-opacity:0.47450981;stroke-width:2.11667;stroke-linecap:round;stroke-linejoin:round;stroke-opacity:0.71752;paint-order:fill markers stroke"
       d="m 72.820819,130.23511 c 16.306198,1.0241 32.124371,-1.53065 47.492511,-7.38565 l 0.70885,5.62673 c -13.13332,5.70703 -27.3458,9.97518 -47.893787,5.79599 l -0.183529,2.34885 -10.443078,-0.46905 z"
       sodipodi:nodetypes="ccccccc" /><path
       id="rect49-25"
       style="fill:#ffffff;fill-opacity:1;stroke-width:2.11667;stroke-linecap:round;stroke-linejoin:round;stroke-opacity:0.71752;paint-order:fill markers stroke"
       d="m 104.33297,88.246773 c 0,0 9.51941,-5.23657 14.58672,-5.087532 5.70957,0.167926 6.35942,2.876671 6.35942,2.876671 l -16.19778,12.888415 z"
       sodipodi:nodetypes="csccc" /><path
       id="rect49-5"
       style="fill:#151d23;fill-opacity:1;stroke-width:2.11667;stroke-linecap:round;stroke-linejoin:round;stroke-opacity:0.71752;paint-order:fill markers stroke"
       d="m 103.18065,87.276098 c 3.28414,2.885648 5.30216,6.91684 6.09466,12.056826 l -4.89911,4.185636 z"
       sodipodi:nodetypes="cccc" /><path
       id="rect49-8-6"
       style="fill:#fbfbfb;fill-opacity:1;stroke-width:2.11667;stroke-linecap:round;stroke-linejoin:round;stroke-opacity:0.71752;paint-order:fill markers stroke"
       d="m 114.226,110.13867 4.58389,-1.30442 c 3.29646,3.94393 5.91651,7.98449 5.81059,12.41448 l -4.46531,2.846 -0.71042,-2.64853 -2.78016,-0.71924 1.12103,-3.37787 z"
       sodipodi:nodetypes="cccccccc" /><path
       id="rect49-8"
       style="fill:#222b30;fill-opacity:1;stroke-width:2.11667;stroke-linecap:round;stroke-linejoin:round;stroke-opacity:0.71752;paint-order:fill markers stroke"
       d="m 116.67114,109.44287 2.13875,-0.60862 c 3.29646,3.94393 5.91651,7.98449 5.81059,12.41448 l -2.25771,1.43897 c -1.2154,-4.45505 -2.44139,-8.90948 -5.69163,-13.24483 z"
       sodipodi:nodetypes="ccccc" /><path
       id="rect49-89"
       style="fill:#ffe8e0;fill-opacity:1;stroke-width:2.11667;stroke-linecap:round;stroke-linejoin:round;stroke-opacity:0.71752;paint-order:fill markers stroke"
       d="m 124.10454,119.12744 c 9.17714,-0.84112 5.68503,-19.138826 -4.51815,-9.79583 z"
       sodipodi:nodetypes="ccc" /><path
       id="rect49-893"
       style="fill:#1f2a35;fill-opacity:0.16948819;stroke-width:2.11667;stroke-linecap:round;stroke-linejoin:round;stroke-opacity:0.71752;paint-order:fill markers stroke"
       d="m 116.97882,120.4634 c 4.77192,-2.24284 8.79436,-5.53496 11.86048,-10.16592 0.22293,3.30401 1.49806,6.92368 -4.82262,8.26461 l 0.2794,2.922 -4.23328,2.81544 -0.68825,-2.87943 z"
       sodipodi:nodetypes="ccccccc" /><path
       id="rect49-96"
       style="fill:#ffe8e0;fill-opacity:1;stroke-width:2.11667;stroke-linecap:round;stroke-linejoin:round;stroke-opacity:0.71752;paint-order:fill markers stroke"
       d="m 77.369212,62.647292 c 5.181261,-4.328935 9.295102,-3.557972 12.374001,2.157714 l -4.4025,3.941951 z"
       sodipodi:nodetypes="cccc" /><path
       id="rect49-75"
       style="fill:#e4c3ba;fill-opacity:1;stroke-width:2.11667;stroke-linecap:round;stroke-linejoin:round;stroke-opacity:0.71752;paint-order:fill markers stroke"
       d="m 85.226794,60.60112 c 1.385916,0.854972 2.893155,0.921351 3.961683,3.839343 l -4.607212,4.595741 c 0.640969,-2.505268 2.799824,-4.757848 0.645529,-8.435084 z"
       sodipodi:nodetypes="cccc" /><path
       id="rect49-4"
       style="fill:#fbfbfb;fill-opacity:1;stroke-width:2.11667;stroke-linecap:round;stroke-linejoin:round;stroke-opacity:0.71752;paint-order:fill markers stroke"
       d="m 74.194712,62.487773 c 3.714716,0.618655 7.429433,3.458722 11.144149,6.016859 l -2.762645,4.102745 -4.136882,-2.751604 -3.419009,0.584891 -0.620719,-3.166098 -2.791975,-1.532655 z"
       sodipodi:nodetypes="cccccccc" /><path
       style="fill:none;fill-opacity:1;stroke:#377bd7;stroke-width:2.11667;stroke-linecap:round;stroke-linejoin:round;stroke-dasharray:none;stroke-opacity:1;paint-order:fill markers stroke"
       d="m 66.215767,65.038871 6.751654,2.973208 1.796311,6.999421 -3.46874,0.743301 -0.309708,-3.46874 6.565828,-0.743302 3.159031,2.106021"
       id="path52"
       sodipodi:nodetypes="ccccccc" /><path
       id="rect49-4-5"
       style="fill:#252e33;fill-opacity:1;stroke-width:2.11667;stroke-linecap:round;stroke-linejoin:round;stroke-opacity:0.71752;paint-order:fill markers stroke"
       d="m 74.194712,62.487773 c 3.714716,0.618655 7.429433,3.458722 11.144149,6.016859 l -1.488394,2.210382 c 0,0 -7.369408,-4.881878 -10.748669,-6.852529 z"
       sodipodi:nodetypes="ccccc" /><path
       id="rect2"
       style="fill:#5f7ea1;fill-opacity:0.45882353;stroke-width:2.11667;stroke-linecap:round;stroke-linejoin:round;paint-order:fill markers stroke"
       d="m 105.13747,65.085104 c 0,0 2.66446,-2.67718 2.43908,2.182341 -0.27602,5.951394 -1.02698,17.843844 -1.02698,17.843844 l -4.87817,1.540476 z"
       sodipodi:nodetypes="csccc" /><path
       id="rect49-85"
       style="fill:#ffffff;fill-opacity:1;stroke-width:2.11667;stroke-linecap:round;stroke-linejoin:round;stroke-opacity:0.71752;paint-order:fill markers stroke"
       d="m 81.805919,77.495106 c -0.187445,-0.656057 7.971031,-10.676981 14.199882,-13.094442 7.066459,-2.742541 5.991329,1.334609 5.991329,1.334609 L 91.070853,79.138545 Z"
       sodipodi:nodetypes="csccc" /><g
       id="g56"><path
         style="fill:none;fill-opacity:1;stroke:#3579d7;stroke-width:1.5875;stroke-linecap:round;stroke-linejoin:round;stroke-dasharray:none;stroke-opacity:0.99215686;paint-order:fill markers stroke"
         d="M 85.678752,77.284754 C 91.668025,69.758047 99.306603,62.756099 98.389666,69.430369"
         id="path54"
         sodipodi:nodetypes="cc" /><path
         style="baseline-shift:baseline;display:inline;overflow:visible;opacity:1;vector-effect:none;fill:#d0595e;fill-opacity:1;stroke-linecap:round;stroke-linejoin:round;paint-order:fill markers stroke;enable-background:accumulate;stop-color:#000000;stop-opacity:1"
         d="m 89.953302,71.174841 c -1.629772,1.683713 -3.3148,3.629924 -4.894918,5.615655 -0.273318,0.342518 -0.217365,0.841724 0.125,1.115234 0.343344,0.274197 0.844121,0.217291 1.117187,-0.126953 1.917481,-2.409693 4.018298,-4.770498 5.917352,-6.615683 0.0043,-0.07413 -2.264621,0.01175 -2.264621,0.01175 z"
         id="path54-9"
         sodipodi:nodetypes="cccccc" /></g><path
       id="rect49-47"
       style="fill:#ffe8e0;fill-opacity:1;stroke-width:2.11667;stroke-linecap:round;stroke-linejoin:round;stroke-opacity:0.71752;paint-order:fill markers stroke"
       d="m 70.694803,88.494142 11.364656,-1.115454 1.426101,1.606235 -3.906614,4.486885 2.47204,0.958046 -0.19354,2.975529 6.5483,7.707277 9.03314,-6.139185 c -0.47919,2.177245 -0.08516,4.275105 -2.73134,6.649345 l 0.633089,2.3629 -1.230217,3.00188 -12.847712,8.14755 c -6.3694,-6.97109 -17.43152,-10.13496 -15.507773,-22.468443 z"
       sodipodi:nodetypes="cccccccccccccc" /><path
       id="rect49-604"
       style="fill:#e1b9ad;fill-opacity:1;stroke-width:2.11667;stroke-linecap:round;stroke-linejoin:round;stroke-opacity:0.71752;paint-order:fill markers stroke"
       d="m 75.947827,88.713733 8.400998,-0.667189 -3.730679,3.521375 z"
       sodipodi:nodetypes="cccc" /><path
       id="rect49-30"
       style="fill:#1b2329;fill-opacity:0.47450981;stroke-width:2.11667;stroke-linecap:round;stroke-linejoin:round;stroke-opacity:0.71752;paint-order:fill markers stroke"
       d="m 74.339415,69.981115 3.615285,-0.319607 4.874008,2.822282 -3.618706,5.837052 -8.317241,4.112818 -2.638575,0.978495 -1.314131,3.813281 -5.544727,1.478414 z"
       sodipodi:nodetypes="ccccccccc" /><path
       id="rect49-69"
       style="fill:#e0b7ab;fill-opacity:1;stroke-width:2.11667;stroke-linecap:round;stroke-linejoin:round;stroke-opacity:0.71752;paint-order:fill markers stroke"
       d="m 68.002778,39.800799 2.112571,3.466791 -3.301705,8.108519 -1.617316,-3.796961 c 1.906805,-2.471368 2.192547,-5.145368 2.80645,-7.778349 z"
       sodipodi:nodetypes="ccccc" /><path
       id="rect49-54"
       style="fill:#e0b7aa;fill-opacity:1;stroke-width:2.11667;stroke-linecap:round;stroke-linejoin:round;stroke-opacity:0.71752;paint-order:fill markers stroke"
       d="m 30.688783,5.8764545 3.547794,2.2108631 -0.340132,4.9957184 -2.782496,-1.275498 c 1.16457,-2.1403146 0.118952,-4.0043553 -0.425166,-5.9310835 z"
       sodipodi:nodetypes="ccccc" /><path
       id="rect49-03"
       style="fill:#5d7b9e;fill-opacity:0.407843;stroke-width:2.11667;stroke-linecap:round;stroke-linejoin:round;stroke-opacity:0.71752;paint-order:fill markers stroke"
       d="M 99.820262 67.238272 L 87.56778 73.527811 L 83.900821 74.487442 C 83.900683 74.487607 83.900442 74.487794 83.900304 74.487959 C 82.55964 76.088201 81.74516 77.282568 81.805858 77.49501 L 87.664932 78.534223 L 90.648729 78.923347 L 99.820262 67.238272 z " /><path
       id="rect49-31"
       style="fill:#5d7b9e;fill-opacity:0.40728346;stroke-width:2.11667;stroke-linecap:round;stroke-linejoin:round;stroke-opacity:0.71752;paint-order:fill markers stroke"
       d="m 106.8257,92.294035 16.45216,-4.663571 -14.07551,11.779852 z"
       sodipodi:nodetypes="cccc" /><path
       id="rect49-29"
       style="fill:#151d23;fill-opacity:1;stroke-width:2.11667;stroke-linecap:round;stroke-linejoin:round;stroke-opacity:0.71752;paint-order:fill markers stroke"
       d="m 20.305706,80.6709 12.230873,-1.6788 c -1.594172,0.921535 -3.927215,5.382705 -5.497521,5.962066 2.656964,10.255066 0.468303,13.785992 -3.264262,19.336264 -1.966439,-2.66254 -9.804049,-8.165344 -3.34873,-16.761487 l 1.2087,-2.893852 z"
       sodipodi:nodetypes="ccccccc" /><g
       id="g57"><path
         style="fill:none;fill-opacity:1;stroke:#3d7ed9;stroke-width:1.5875;stroke-linecap:round;stroke-linejoin:round;stroke-dasharray:none;stroke-opacity:0.99607843;paint-order:fill markers stroke"
         d="m 106.06418,90.954981 c 10.04242,-5.934862 20.66846,-7.649945 6.95503,4.736616"
         id="path55"
         sodipodi:nodetypes="cc" /><path
         style="baseline-shift:baseline;display:inline;overflow:visible;opacity:1;vector-effect:none;fill:#e9605a;fill-opacity:0.99607843;stroke-linecap:round;stroke-linejoin:round;paint-order:fill markers stroke;enable-background:accumulate;stop-color:#000000;stop-opacity:1"
         d="m 111.06356,87.496875 c -1.72872,0.750616 -3.57454,1.693791 -5.4034,2.774609 -0.37776,0.223124 -0.50285,0.71039 -0.2793,1.087891 0.22312,0.377754 0.71039,0.502851 1.08789,0.279297 2.3197,-1.370891 4.67312,-2.513367 6.71951,-3.294074 z m 4.10017,5.053685 c -0.75792,0.770992 -1.64717,1.622404 -2.6774,2.552956 -0.32521,0.293954 -0.35055,0.79588 -0.0566,1.121093 0.29394,0.325217 0.79587,0.350575 1.12109,0.05664 0.69316,-0.62609 1.32576,-1.216004 1.90127,-1.772577 -0.0372,-0.03573 -0.28836,-1.958112 -0.28836,-1.958112 z"
         id="path55-5"
         sodipodi:nodetypes="ccccccccsccc" /></g><g
       id="g60"><path
         id="rect49-60"
         style="fill:#e64d46;fill-opacity:1;stroke-width:2.11667;stroke-linecap:round;stroke-linejoin:round;stroke-opacity:0.71752;paint-order:fill markers stroke"
         d="m 21.477767,83.895322 c 2.615355,0.954071 5.040521,2.049022 10.50401,0.893364 l -0.148894,3.021382 c -4.183534,1.884496 -7.9789,1.284719 -11.620715,-0.297788 z"
         sodipodi:nodetypes="ccccc" /><path
         id="rect49-60-3"
         style="fill:#3d7dd9;fill-opacity:1;stroke-width:2.11667;stroke-linecap:round;stroke-linejoin:round;stroke-opacity:0.71752;paint-order:fill markers stroke"
         d="m 23.140852,84.590147 c 1.848864,0.472006 5.361191,0.934586 8.840925,0.198539 l -0.148894,3.021382 c -0.930577,0.419183 -3.147847,0.960304 -4.042593,1.150177 z"
         sodipodi:nodetypes="ccccc" /></g><g
       id="g61"><path
         id="rect49-07"
         style="fill:#e64d46;fill-opacity:1;stroke-width:2.11667;stroke-linecap:round;stroke-linejoin:round;stroke-opacity:0.71752;paint-order:fill markers stroke"
         d="m 46.813129,110.2794 c 3.353988,-0.069 6.707975,0.26281 10.061962,3.23194 l -1.038836,1.99744 -9.83111,-2.82794 z"
         sodipodi:nodetypes="ccccc" /><path
         id="rect49-07-4"
         style="fill:#3d7dd9;fill-opacity:1;stroke-width:2.11667;stroke-linecap:round;stroke-linejoin:round;stroke-opacity:0.71752;paint-order:fill markers stroke"
         d="m 46.813129,110.27941 c 1.906706,-0.0392 3.813411,0.0511 5.720117,0.68182 -0.008,0.0675 -3.545458,2.57757 -3.545458,2.57757 l -2.982643,-0.85796 z"
         sodipodi:nodetypes="ccccc" /></g><path
       id="rect49-46"
       style="fill:#ffe8e0;fill-opacity:1;stroke-width:2.11667;stroke-linecap:round;stroke-linejoin:round;stroke-opacity:0.71752;paint-order:fill markers stroke"
       d="m 70.245143,110.00669 5.267764,4.7425 -5.357245,-0.34155 z"
       sodipodi:nodetypes="cccc" /><path
       id="rect49-72"
       style="fill:#252e33;fill-opacity:1;stroke-width:2.11667;stroke-linecap:round;stroke-linejoin:round;stroke-opacity:0.71752;paint-order:fill markers stroke"
       d="M -0.86779817,82.434314 C 2.3920982,80.0631 2.3849701,83.613368 2.5637437,86.826689 c 7.5163173,2.756957 0.6278786,5.820398 -0.1488941,8.753803 0.2650846,3.021951 -1.4125682,4.101165 -3.5059889,4.764608 z"
       sodipodi:nodetypes="ccccc" /><path
       style="fill:#5d7b9e;fill-opacity:0.407843;stroke:#3d7ed9;stroke-width:2.11667;stroke-linecap:round;stroke-linejoin:round;stroke-dasharray:none;stroke-opacity:0.996078;paint-order:fill markers stroke"
       d="m 19.994202,126.48231 -1.23382,2.62582 -2.515093,-0.88582"
       id="path58" /><path
       id="rect1"
       style="fill:#efefef;stroke-width:2.11667;stroke-linecap:round;stroke-linejoin:round;paint-order:fill markers stroke;fill-opacity:1"
       d="m 13.974503,131.2447 2.142387,5.21396 -8.6031568,-0.34583 z"
       sodipodi:nodetypes="cccc" /><path
       style="fill:none;fill-opacity:1;stroke:#e14f48;stroke-width:2.11667;stroke-linecap:round;stroke-linejoin:round;stroke-dasharray:none;stroke-opacity:1;paint-order:fill markers stroke"
       d="m 15.399754,128.61265 c -0.251807,2.88913 0.774699,5.86716 2.137287,7.72462"
       id="path57"
       sodipodi:nodetypes="cc" /><path
       id="rect49-92-3"
       style="fill:#151d23;fill-opacity:1;stroke-width:2.11667;stroke-linecap:round;stroke-linejoin:round;stroke-opacity:0.71752;paint-order:fill markers stroke"
       d="m -1.0117654,92.598042 6.1186703,-3.859043 c -0.4606148,1.883952 0.7275854,2.418874 -2.5600299,6.615826 1.2086672,3.319366 -1.59850398,4.128833 -3.628158,5.424245 z"
       sodipodi:nodetypes="ccccc" /><path
       id="rect49-79-7"
       style="fill:#243a68;fill-opacity:1;stroke-width:2.11667;stroke-linecap:round;stroke-linejoin:round;stroke-opacity:0.71752;paint-order:fill markers stroke"
       d="m -0.97440148,97.140709 4.02555718,-2.72652 c 0.3934414,2.33104 -0.1948929,4.52182 -4.01404758,6.251061 z"
       sodipodi:nodetypes="cccc" /><path
       id="rect49-92"
       style="fill:#1b2329;fill-opacity:0.47451;stroke-width:2.11667;stroke-linecap:round;stroke-linejoin:round;stroke-opacity:0.71752;paint-order:fill markers stroke"
       d="m 21.47132,84.182584 5.619798,0.789583 0.842401,4.198508 c -2.727768,0.120264 -5.055139,-0.581687 -7.438241,-1.926256 z"
       sodipodi:nodetypes="ccccc" /><path
       id="rect49-92-8"
       style="fill:#1b2329;fill-opacity:0.47450981;stroke-width:2.11667;stroke-linecap:round;stroke-linejoin:round;stroke-opacity:0.71752;paint-order:fill markers stroke"
       d="m 52.40183,110.47805 4.844225,2.85419 -1.576219,2.23028 -5.271547,-1.20772 z"
       sodipodi:nodetypes="ccccc" /><path
       id="rect49-606"
       style="fill:#ffffff;fill-opacity:1;stroke-width:1.28837;stroke-linecap:round;stroke-linejoin:round;stroke-opacity:0.71752;paint-order:fill markers stroke"
       d="m 111.58269,13.979557 c 1.78654,-16.33428 15.64232,-12.98861958 6.38325,2.083856 l 0.96839,0.821662 c 12.03952,-13.3994526 17.80323,1.500296 3.51992,5.641735 2.29195,5.516858 -3.94342,13.218513 -13.51645,4.247862 -9.573037,-8.970652 -1.61405,-13.811145 2.64489,-12.795115 z"
       sodipodi:nodetypes="cccczc" /><path
       id="rect49-70"
       style="fill:#e1b9ad;fill-opacity:1;stroke-width:2.11667;stroke-linecap:round;stroke-linejoin:round;stroke-opacity:0.71752;paint-order:fill markers stroke"
       d="m 87.747084,105.08352 8.48983,-5.1237 c -0.0023,2.80013 -3.363434,5.87713 -7.155453,7.79593 z"
       sodipodi:nodetypes="cccc" /><path
       id="rect49-64"
       style="fill:#1b2329;fill-opacity:0.47450981;stroke-width:2.11667;stroke-linecap:round;stroke-linejoin:round;stroke-opacity:0.71752;paint-order:fill markers stroke"
       d="m 67.944529,108.07721 12.362185,10.08033 -3.001555,3.33266 -7.399893,-6.95799 -9.986358,-1.32727 z"
       sodipodi:nodetypes="cccccc" /><path
       id="rect49-79"
       style="fill:#632a2f;fill-opacity:1;stroke-width:2.11667;stroke-linecap:round;stroke-linejoin:round;stroke-opacity:0.71752;paint-order:fill markers stroke"
       d="m 3.1399357,95.142349 c 0.1457889,2.057168 -0.6840714,3.974956 -4.10282764,5.522901 l -0.00758,-2.321332 c 0,0 4.09333343,-3.4425 4.11040803,-3.201569 z"
       sodipodi:nodetypes="cccc" /><path
       id="rect49-68"
       style="fill:#943b3b;fill-opacity:1;stroke-width:2.11667;stroke-linecap:round;stroke-linejoin:round;stroke-opacity:0.71752;paint-order:fill markers stroke"
       d="m -1.0904896,104.7958 2.7380324,2.95373 -2.43508546,2.84291 z"
       sodipodi:nodetypes="cccc" /><path
       id="rect49-26"
       style="fill:#1f2a35;fill-opacity:0.380392;stroke-width:2.11667;stroke-linecap:round;stroke-linejoin:round;stroke-opacity:0.71752;paint-order:fill markers stroke"
       d="M 25.96185,9.4106175 33.210563,13.258365 15.340368,28.545948 14.227349,28.053527 Z"
       sodipodi:nodetypes="ccccc" /><path
       id="rect47-61"
       style="fill:#151d24;fill-opacity:1;stroke-width:2.11667;stroke-linecap:round;stroke-linejoin:round;stroke-opacity:0.71752;paint-order:fill markers stroke"
       d="m 15.26721,28.727259 c 2.456872,-3.617949 5.291899,-9.442401 7.748771,-8.319395 0,0 -2.453203,4.147831 -2.209998,5.902878 0.243204,1.755047 2.214603,1.99989 2.562442,3.487764 0.347839,1.487874 -1.467703,3.245225 -0.839445,4.766716 0.628257,1.521491 3.228183,1.550389 4.11868,2.89881 0.890497,1.348421 0.142309,3.332649 0.970274,4.556887 0.827964,1.224239 2.274296,1.031653 3.494038,2.345984 1.219742,1.314331 1.264409,4.122804 2.70625,5.014424 1.441841,0.891619 2.991522,0.290148 4.145667,0.874467 1.154145,0.584319 1.173491,2.694165 2.625945,3.201066 1.452455,0.506902 2.511715,-1.06323 3.992478,-0.845177 1.480763,0.218052 2.729418,1.612251 4.388789,1.654113 1.659371,0.04186 5.453595,-2.662597 5.453595,-2.662597 0.590411,3.968873 -2.973488,5.751269 -6.072378,7.778405 C 30.871425,57.269448 26.458045,47.223444 19.729431,38.583118 l -0.554333,-4.986315 c -2.13022,-1.209386 -2.941771,-3.078107 -3.907888,-4.869544 z"
       sodipodi:nodetypes="cczzzzzzzzzzzccccc" /><g
       id="g46"
       style="stroke:#000000;stroke-opacity:0.99607843"><path
         style="fill:none;fill-opacity:0.388386;stroke:#000000;stroke-width:2.11667;stroke-linecap:round;stroke-linejoin:round;stroke-dasharray:none;stroke-opacity:0.99607843;paint-order:fill markers stroke"
         d="m 29.105004,16.14517 -5.686687,-2.499077 c -1.373423,1.49852 -2.694536,3.018042 -4.304376,4.043727 -0.952854,-1.577252 -1.302436,-2.9268 -1.367618,-4.604559 -3.588613,-1.35161 -7.177225,-1.880075 -10.7658379,-1.559344 l -8.0388184,20.95615 V 111.5891 C 6.0584805,102.10392 13.175294,91.726723 20.292108,80.681422"
         id="path1"
         sodipodi:nodetypes="cccccccc" /><path
         style="fill:none;fill-opacity:0.388386;stroke:#000000;stroke-width:2.11667;stroke-linecap:round;stroke-linejoin:round;stroke-dasharray:none;stroke-opacity:0.99607843;paint-order:fill markers stroke"
         d="m 6.8566376,49.334343 -7.27472527,5.435139"
         id="path2" /><path
         style="fill:none;fill-opacity:0.388386;stroke:#000000;stroke-width:2.11667;stroke-linecap:round;stroke-linejoin:round;stroke-dasharray:none;stroke-opacity:0.99607843;paint-order:fill markers stroke"
         d="m 26.757611,66.810407 c -3.140604,4.807302 -5.521656,9.352805 -6.689404,14.382217"
         id="path3"
         sodipodi:nodetypes="cc" /><path
         style="fill:none;fill-opacity:0.388386;stroke:#000000;stroke-width:2.11667;stroke-linecap:round;stroke-linejoin:round;stroke-dasharray:none;stroke-opacity:0.99607843;paint-order:fill markers stroke"
         d="m 58.677141,46.057242 c 2.374605,2.301065 3.414005,4.817854 4.85381,7.226781 l -1.617937,3.775183 3.451597,0.215724 c 0.78693,1.981539 1.545672,3.991265 2.049386,6.25602 C 48.315834,76.056025 35.391269,79.685501 20.27813,80.788932"
         id="path4"
         sodipodi:nodetypes="cccccc" /><path
         style="fill:none;fill-opacity:0.388386;stroke:#000000;stroke-width:2.11667;stroke-linecap:round;stroke-linejoin:round;stroke-dasharray:none;stroke-opacity:0.99607843;paint-order:fill markers stroke"
         d="M 24.269039,21.141029 C 50.605719,-3.3670246 59.323635,3.2817127 54.612555,13.851211 52.430275,18.747246 50.072208,24.098598 46.596553,28.691398 69.858061,10.437282 75.252727,18.338094 65.313444,35.610943 62.744025,40.076174 59.013953,45.469947 53.715472,50.263874"
         id="path5"
         sodipodi:nodetypes="cscsc" /><path
         style="fill:none;fill-opacity:0.388386;stroke:#000000;stroke-width:2.11667;stroke-linecap:round;stroke-linejoin:round;stroke-dasharray:none;stroke-opacity:0.99607843;paint-order:fill markers stroke"
         d="m 15.609402,12.298317 2.71982,-4.3753628 c 4.92721,0.2133692 9.85442,2.3985888 14.78163,5.4396398"
         id="path6"
         sodipodi:nodetypes="ccc" /><path
         style="fill:none;fill-opacity:0.388386;stroke:#000000;stroke-width:2.11667;stroke-linecap:round;stroke-linejoin:round;stroke-dasharray:none;stroke-opacity:0.99607843;paint-order:fill markers stroke"
         d="M 22.586332,8.6324725 C 23.816176,4.7692823 34.967739,2.7923789 34.529889,11.825305"
         id="path7"
         sodipodi:nodetypes="cc" /><path
         style="fill:none;fill-opacity:0.388386;stroke:#000000;stroke-width:2.11667;stroke-linecap:round;stroke-linejoin:round;stroke-dasharray:none;stroke-opacity:0.99607843;paint-order:fill markers stroke"
         d="m 24.3505,21.243508 c -0.961166,-0.60562 -1.305193,-1.765576 -3.194596,-1.106315 -1.889403,0.659261 -3.867053,4.496681 -3.37238,6.496862 0.494673,2.000181 1.2312,1.541224 1.995382,3.177106 0.764182,1.635882 -1.160241,4.816562 -0.07269,6.683465 1.087555,1.866903 2.955608,0.947922 4.242191,2.948461 1.286582,2.00054 -0.584314,3.02247 0.724437,4.867631 1.308751,1.845161 2.978781,0.01661 4.77216,1.689719 1.793379,1.673112 0.83671,3.938355 2.193379,5.069961 1.356669,1.131606 2.914091,0.74437 4.192287,1.552207 1.278196,0.807839 0.600811,2.771567 2.719818,3.448595 2.119007,0.677027 3.154929,-1.120858 4.730123,-0.374015 1.575194,0.746843 1.042011,2.31344 3.345261,2.674254 2.30325,0.360814 5.986495,-1.517263 7.229163,-3.757788 1.242668,-2.240525 1.269632,-2.941693 -0.759419,-4.94737 -2.029051,-2.005677 -5.298754,0.707273 -6.755345,0.324112 -1.456591,-0.383161 -1.509569,-1.716079 -2.719818,-2.315158 -1.210249,-0.599079 -2.94555,0.314798 -4.234329,-0.461623 -1.288779,-0.776421 -0.980737,-2.519421 -2.018164,-3.341732 -1.037427,-0.822311 -2.561179,-0.337759 -3.516945,-1.365604 -0.955766,-1.027845 0.193463,-2.635263 -1.083533,-4.211545 -1.276997,-1.576281 -2.763899,-0.988519 -3.558984,-2.227552 -0.795085,-1.239033 0.36643,-3.68685 -0.236506,-4.966628 C 28.36906,29.820773 26.892819,30.11846 26.37043,28.735491 25.848041,27.352522 27.524853,24.359332 26.637583,22.76588 25.750314,21.172428 25.311666,21.849128 24.3505,21.243508 Z"
         id="path8"
         sodipodi:nodetypes="zzzzzzzzzzzzzzzzzzzzzzzzzz" /><path
         style="fill:none;fill-opacity:0.388386;stroke:#000000;stroke-width:2.11667;stroke-linecap:round;stroke-linejoin:round;stroke-dasharray:none;stroke-opacity:0.99607843;paint-order:fill markers stroke"
         d="m 37.127411,24.293244 c -3.5586,-1.469857 -7.769187,-1.473781 -9.900645,-0.458363"
         id="path9"
         sodipodi:nodetypes="cc" /><path
         style="fill:none;fill-opacity:0.388386;stroke:#000000;stroke-width:2.11667;stroke-linecap:round;stroke-linejoin:round;stroke-dasharray:none;stroke-opacity:0.99607843;paint-order:fill markers stroke"
         d="m 17.392447,26.757611 c 0,0 -11.8486535,7.885165 -12.6178109,14.006311 C 3.3847434,51.825033 24.203695,70.165082 37.795125,69.068081 42.750156,68.668147 48.83264,58.030567 48.83264,58.030567"
         id="path10"
         sodipodi:nodetypes="cssc" /><path
         style="fill:none;fill-opacity:0.388386;stroke:#000000;stroke-width:2.11667;stroke-linecap:round;stroke-linejoin:round;stroke-dasharray:none;stroke-opacity:0.99607843;paint-order:fill markers stroke"
         d="m 61.581214,41.810402 c 3.7235,4.344886 6.30152,11.200944 5.963655,12.640356 -0.337864,1.439411 -2.46325,2.78736 -2.46325,2.78736"
         id="path11"
         sodipodi:nodetypes="czc" /><path
         style="fill:none;fill-opacity:0.388386;stroke:#000000;stroke-width:2.11667;stroke-linecap:round;stroke-linejoin:round;stroke-dasharray:none;stroke-opacity:0.99607843;paint-order:fill markers stroke"
         d="m 63.655529,38.634109 c 7.559327,-0.226867 6.936764,6.967838 3.630049,12.121776"
         id="path12"
         sodipodi:nodetypes="cc" /><path
         style="fill:none;fill-opacity:0.388386;stroke:#000000;stroke-width:2.11667;stroke-linecap:round;stroke-linejoin:round;stroke-dasharray:none;stroke-opacity:0.99607843;paint-order:fill markers stroke"
         d="m 20.12214,81.451121 0.458363,2.016797 c 2.791445,1.906714 8.629924,2.495647 11.871604,1.054235 1.935172,-1.779173 2.957227,-3.862719 3.804413,-6.004555"
         id="path13"
         sodipodi:nodetypes="cccc" /><path
         style="fill:none;fill-opacity:0.388386;stroke:#000000;stroke-width:2.11667;stroke-linecap:round;stroke-linejoin:round;stroke-dasharray:none;stroke-opacity:0.99607843;paint-order:fill markers stroke"
         d="m 21.634738,84.201301 c -0.825054,0.763938 -1.390368,1.772336 -1.237581,3.025195 4.350545,2.49072 8.020535,1.961395 11.504915,0.320855 0.352851,-0.928661 0.34958,-1.928546 0.09167,-2.979359"
         id="path14"
         sodipodi:nodetypes="cccc" /><path
         style="fill:none;fill-opacity:0.388386;stroke:#000000;stroke-width:2.11667;stroke-linecap:round;stroke-linejoin:round;stroke-dasharray:none;stroke-opacity:0.99607843;paint-order:fill markers stroke"
         d="m 20.442994,87.501514 c -3.415368,2.915523 -5.465589,7.692369 3.116869,16.821926 1.893402,-1.22411 7.615603,-4.1773 7.608829,-9.579788 1.818173,0.499068 3.498838,1.029836 5.317011,0.458362 0.412577,-1.314401 -0.814611,-4.602507 -4.583631,-7.287972"
         id="path15"
         sodipodi:nodetypes="ccccc" /><path
         style="fill:none;fill-opacity:0.388386;stroke:#000000;stroke-width:2.11667;stroke-linecap:round;stroke-linejoin:round;stroke-dasharray:none;stroke-opacity:0.99607843;paint-order:fill markers stroke"
         d="m -1.1219399,82.340629 c 0.073219,-0.10188 4.5148712,-3.919183 3.6097196,4.438978 5.1342233,1.773653 2.4315035,5.34662 -0.09756,8.682842 1.0515229,3.362553 -1.61126695,3.979744 -3.36581959,5.268241"
         id="path16"
         sodipodi:nodetypes="cccc" /><path
         style="fill:none;fill-opacity:0.388386;stroke:#000000;stroke-width:2.11667;stroke-linecap:round;stroke-linejoin:round;stroke-dasharray:none;stroke-opacity:0.99607843;paint-order:fill markers stroke"
         d="m 47.195131,110.2179 c 3.032992,-0.44851 6.451099,0.0395 9.743244,3.00108"
         id="path37"
         sodipodi:nodetypes="cc" /></g><path
       style="fill:none;fill-opacity:0.388386;stroke:#000000;stroke-width:2.11667;stroke-linecap:round;stroke-linejoin:round;stroke-dasharray:none;stroke-opacity:0.996078;paint-order:fill markers stroke"
       d="M 14.143588,130.9706 6.9522821,136.525 H 73.052442 c 0.230111,-7.35092 2.033867,-13.82759 7.380112,-18.33621"
       id="path17"
       sodipodi:nodetypes="cccc" /><path
       style="fill:none;fill-opacity:0.388386;stroke:#000000;stroke-width:2.11667;stroke-linecap:round;stroke-linejoin:round;stroke-dasharray:none;stroke-opacity:0.996078;paint-order:fill markers stroke"
       d="m 39.788446,117.44009 c -9.867408,3.98172 -17.374356,7.62623 -25.349091,11.33756 -0.494444,2.67396 0.2259,4.96827 1.72338,7.64223"
       id="path18"
       sodipodi:nodetypes="ccc" /><path
       style="fill:none;fill-opacity:0.388386;stroke:#000000;stroke-width:2.11667;stroke-linecap:round;stroke-linejoin:round;stroke-dasharray:none;stroke-opacity:0.996078;paint-order:fill markers stroke"
       d="m 80.004722,118.83055 c 6.709406,1.44969 20.019458,-4.09499 33.263998,-9.94712 2.80562,3.87833 3.86873,6.51201 4.70616,8.98449 l -1.49742,3.10179 2.99483,0.21391 c 0.8773,2.63363 1.0381,5.02843 1.06958,7.38012 -14.80246,7.70997 -31.687347,8.67746 -46.954638,5.56182"
       id="path19"
       sodipodi:nodetypes="ccccccc" /><path
       style="fill:none;fill-opacity:0.388386;stroke:#000000;stroke-width:2.11667;stroke-linecap:round;stroke-linejoin:round;stroke-dasharray:none;stroke-opacity:0.996078;paint-order:fill markers stroke"
       d="m 114.65638,110.49669 4.08407,-1.89078 c 2.95366,3.46651 5.2421,7.51574 5.59668,12.78161 l -4.00843,3.02525"
       id="path20"
       sodipodi:nodetypes="cccc" /><path
       style="fill:none;fill-opacity:0.388386;stroke:#000000;stroke-width:2.11667;stroke-linecap:round;stroke-linejoin:round;stroke-dasharray:none;stroke-opacity:0.996078;paint-order:fill markers stroke"
       d="m 120.02617,108.90844 c 7.64827,-7.64465 13.74403,8.26449 4.31096,9.68075"
       id="path21"
       sodipodi:nodetypes="cc" /><path
       style="fill:none;fill-opacity:0.388386;stroke:#000000;stroke-width:2.11667;stroke-linecap:round;stroke-linejoin:round;stroke-dasharray:none;stroke-opacity:0.996078;paint-order:fill markers stroke"
       d="m 52.87672,93.674763 c 1.655803,-10.042067 6.418747,-20.05569 13.651271,-29.519727 2.640292,-0.144096 5.443227,1.221852 7.987031,3.121663 0.0046,1.404492 0.130048,2.567263 0.355708,3.529621 1.06851,-0.315386 2.129301,-0.623055 3.304913,-1.045543 1.86283,0.908663 2.90316,1.714512 3.898577,2.514748"
       id="path23"
       sodipodi:nodetypes="cccccc" /><path
       style="fill:none;fill-opacity:0.388386;stroke:#000000;stroke-width:2.11667;stroke-linecap:round;stroke-linejoin:round;stroke-dasharray:none;stroke-opacity:0.996078;paint-order:fill markers stroke"
       d="m 72.054865,65.306209 2.589206,-3.004507 c 2.529608,0.673802 9.225191,4.914047 10.435651,6.350259"
       id="path24"
       sodipodi:nodetypes="ccc" /><path
       style="fill:none;fill-opacity:0.388386;stroke:#000000;stroke-width:2.11667;stroke-linecap:round;stroke-linejoin:round;stroke-dasharray:none;stroke-opacity:0.996078;paint-order:fill markers stroke"
       d="m 77.743991,62.832625 c 4.755172,-4.413738 9.739899,-3.993597 11.921838,2.016255"
       id="path25"
       sodipodi:nodetypes="cc" /><path
       style="fill:none;fill-opacity:0.388386;stroke:#000000;stroke-width:2.11667;stroke-linecap:round;stroke-linejoin:round;stroke-dasharray:none;stroke-opacity:0.996078;paint-order:fill markers stroke"
       d="M 79.418505,77.692014 C 83.717854,70.4961 89.29327,61.866639 100.53479,60.294316 c 10.10548,-1.413427 1.44502,14.610537 1.52728,24.901287"
       id="path26"
       sodipodi:nodetypes="csc" /><path
       style="fill:none;fill-opacity:0.388386;stroke:#000000;stroke-width:2.11667;stroke-linecap:round;stroke-linejoin:round;stroke-dasharray:none;stroke-opacity:0.996078;paint-order:fill markers stroke"
       d="m 103.19093,86.324461 c 0,0 9.46799,-6.226335 18.39375,-5.245871 9.71098,1.066716 6.53233,6.786598 4.51544,9.495689 -4.71283,6.330267 -15.47201,19.323401 -15.47201,19.323401"
       id="path27"
       sodipodi:nodetypes="cssc" /><path
       style="fill:none;fill-opacity:0.388386;stroke:#000000;stroke-width:2.11667;stroke-linecap:round;stroke-linejoin:round;stroke-dasharray:none;stroke-opacity:0.996078;paint-order:fill markers stroke"
       d="M 102.08025,65.141675 90.973718,78.556865"
       id="path28" /><path
       style="fill:none;fill-opacity:0.388386;stroke:#000000;stroke-width:2.11667;stroke-linecap:round;stroke-linejoin:round;stroke-dasharray:none;stroke-opacity:0.996078;paint-order:fill markers stroke"
       d="M 124.99786,86.202646 101.41488,105.92221"
       id="path29" /><path
       style="fill:none;fill-opacity:0.388386;stroke:#000000;stroke-width:2.11667;stroke-linecap:round;stroke-linejoin:round;stroke-dasharray:none;stroke-opacity:0.996078;paint-order:fill markers stroke"
       d="m 100.28805,105.9222 c 0,0 2.18706,1.81725 1.66934,3.22486 -0.51772,1.40761 -1.55427,1.37383 -1.991297,2.65077 -0.437029,1.27694 0.724387,2.33415 0.724387,2.33415"
       id="path30"
       sodipodi:nodetypes="czzc" /><path
       style="fill:none;fill-opacity:0.388386;stroke:#000000;stroke-width:2.11667;stroke-linecap:round;stroke-linejoin:round;stroke-dasharray:none;stroke-opacity:0.996078;paint-order:fill markers stroke"
       d="M 71.29922,88.771059 62.828026,99.624776"
       id="path31" /><path
       style="fill:none;fill-opacity:0.388386;stroke:#000000;stroke-width:2.11667;stroke-linecap:round;stroke-linejoin:round;stroke-dasharray:none;stroke-opacity:0.996078;paint-order:fill markers stroke"
       d="m 66.975381,94.330281 c -5.798458,9.143309 5.217565,17.831029 13.412726,23.913479"
       id="path32"
       sodipodi:nodetypes="cc" /><path
       style="fill:none;fill-opacity:0.388386;stroke:#000000;stroke-width:2.11667;stroke-linecap:round;stroke-linejoin:round;stroke-dasharray:none;stroke-opacity:0.996078;paint-order:fill markers stroke"
       d="m 94.065555,111.09619 c -3.318408,2.61783 -8.274591,5.23567 -12.442066,7.8535"
       id="path33"
       sodipodi:nodetypes="cc" /><path
       style="fill:none;fill-opacity:0.388386;stroke:#000000;stroke-width:2.11667;stroke-linecap:round;stroke-linejoin:round;stroke-dasharray:none;stroke-opacity:0.996078;paint-order:fill markers stroke"
       d="m 79.064481,83.167716 c 0,0 -0.826115,-1.161612 -2.161919,-1.191261 -1.335803,-0.02965 -2.924787,2.690995 -4.4562,2.250161 -1.531413,-0.440834 -0.980613,-1.376975 -2.294281,-1.544229 -1.313669,-0.167254 -3.039716,1.151476 -3.309062,2.867853 -0.269346,1.716377 1.019612,3.181973 2.426643,3.573784 1.407031,0.391811 2.412434,-0.826748 3.397303,-0.838295 0.984869,-0.01155 1.175921,0.939967 2.338403,0.970658 1.162482,0.03069 0.84667,-0.764056 1.632469,-0.750054 0.785799,0.014 0.994396,0.1963 1.897196,0.132364 0.9028,-0.06394 3.30906,-0.926537 3.30906,-0.926537"
       id="path34"
       sodipodi:nodetypes="czzzzzzzzzc" /><path
       style="fill:none;fill-opacity:0.388386;stroke:#000000;stroke-width:2.11667;stroke-linecap:round;stroke-linejoin:round;stroke-dasharray:none;stroke-opacity:0.996078;paint-order:fill markers stroke"
       d="m 98.211681,96.776568 c 0,0 -1.218539,4.998002 -1.851565,6.496932 -0.633026,1.49894 -1.687496,1.79023 -1.809491,2.68304 -0.121995,0.89282 0.923656,1.12509 0.686359,2.05908 -0.237297,0.93399 -0.965988,0.071 -1.399334,1.39933 -0.433346,1.32836 1.254221,6.70445 1.254221,6.70445"
       id="path35"
       sodipodi:nodetypes="czzzzc" /><path
       style="fill:none;fill-opacity:0.388386;stroke:#000000;stroke-width:2.11667;stroke-linecap:round;stroke-linejoin:round;stroke-dasharray:none;stroke-opacity:0.996078;paint-order:fill markers stroke"
       d="m 70.734779,82.546453 c 9.245868,-9.567446 34.455141,-4.138135 38.174381,16.607473"
       id="path36"
       sodipodi:nodetypes="cc" /><path
       style="fill:none;fill-opacity:0.388386;stroke:#000000;stroke-width:2.11667;stroke-linecap:round;stroke-linejoin:round;stroke-dasharray:none;stroke-opacity:0.996078;paint-order:fill markers stroke"
       d="m 46.126251,112.9312 c 3.091366,0.87986 6.108938,1.7966 9.619912,2.46665"
       id="path38"
       sodipodi:nodetypes="cc" /><path
       style="fill:none;fill-opacity:0.388386;stroke:#000000;stroke-width:2.11667;stroke-linecap:round;stroke-linejoin:round;stroke-dasharray:none;stroke-opacity:0.996078;paint-order:fill markers stroke"
       d="m 88.561401,85.8038 c -7.728129,3.878527 -7.645945,5.554144 -9.757664,7.848555 2.322528,0.292355 2.612013,0.381405 3.500033,0.530309 0.003,1.097449 -0.34256,2.020659 -0.636371,2.969723 l 6.678715,8.272803 c 3.728,-1.72625 7.48525,-4.36792 9.972951,-7.954617"
       id="path39"
       sodipodi:nodetypes="cccccc" /><path
       style="fill:none;fill-opacity:0.388386;stroke:#000000;stroke-width:2.11667;stroke-linecap:round;stroke-linejoin:round;stroke-dasharray:none;stroke-opacity:0.996078;paint-order:fill markers stroke"
       d="m 71.743979,90.057879 7.093003,6.686026"
       id="path40" /><path
       style="fill:none;fill-opacity:0.388386;stroke:#000000;stroke-width:2.11667;stroke-linecap:round;stroke-linejoin:round;stroke-dasharray:none;stroke-opacity:0.996078;paint-order:fill markers stroke"
       d="m 86.16254,104.36016 5.58138,7.73254"
       id="path41" /><path
       style="fill:none;fill-opacity:0.388386;stroke:#000000;stroke-width:1.32292;stroke-linecap:round;stroke-linejoin:round;stroke-dasharray:none;stroke-opacity:0.996078;paint-order:fill markers stroke"
       d="m 74.883505,104.65086 c 0,0 2.235407,-0.90861 3.139526,-0.11628 0.647621,0.56755 0.232556,3.25581 0.232556,3.25581"
       id="path42"
       sodipodi:nodetypes="csc" /><path
       style="fill:none;fill-opacity:0.388386;stroke:#000000;stroke-width:1.32292;stroke-linecap:round;stroke-linejoin:round;stroke-dasharray:none;stroke-opacity:0.996078;paint-order:fill markers stroke"
       d="m 78.953261,85.406729 c 2.595272,1.224705 4.781569,3.403686 6.918584,5.697659"
       id="path43"
       sodipodi:nodetypes="cc" /><path
       style="fill:none;fill-opacity:0.388386;stroke:#000000;stroke-width:1.32292;stroke-linecap:round;stroke-linejoin:round;stroke-dasharray:none;stroke-opacity:0.996078;paint-order:fill markers stroke"
       d="m 93.546241,98.488086 c 1.789208,1.957524 3.301593,4.152324 4.011618,7.034864"
       id="path44"
       sodipodi:nodetypes="cc" /><path
       style="fill:none;fill-opacity:0.388386;stroke:#000000;stroke-width:2.11667;stroke-linecap:round;stroke-linejoin:round;stroke-dasharray:none;stroke-opacity:0.996078;paint-order:fill markers stroke"
       d="m 70.057938,109.65085 -0.17442,4.94184"
       id="path45"
       sodipodi:nodetypes="cc" /><path
       style="fill:none;fill-opacity:0.388386;stroke:#000000;stroke-width:2.11667;stroke-linecap:round;stroke-linejoin:round;stroke-dasharray:none;stroke-opacity:0.996078;paint-order:fill markers stroke"
       d="m 57.790529,113.19735 c 4.780096,0.76627 12.116482,1.64003 15.545533,1.56105 2.161682,0.83413 5.326501,2.39243 5.326501,2.39243"
       id="path46"
       sodipodi:nodetypes="ccc" /><g
       id="g59"><circle
         style="fill:none;fill-opacity:0.407843;stroke:#7a1717;stroke-width:1.60271;stroke-linecap:round;stroke-linejoin:round;stroke-dasharray:none;stroke-opacity:1;paint-order:fill markers stroke"
         id="path59-25"
         cx="65.997643"
         cy="112.34818"
         r="1.6780661" /><circle
         style="fill:none;fill-opacity:0.407843;stroke:#1a4da3;stroke-width:1.60271;stroke-linecap:round;stroke-linejoin:round;stroke-dasharray:none;stroke-opacity:1;paint-order:fill markers stroke"
         id="path59-25-2"
         cx="65.632622"
         cy="116.89074"
         r="1.6780661" /><circle
         style="fill:none;fill-opacity:0.407843;stroke:#0f42a0;stroke-width:1.60271;stroke-linecap:round;stroke-linejoin:round;stroke-dasharray:none;stroke-opacity:1;paint-order:fill markers stroke"
         id="path59-25-1"
         cx="60.862579"
         cy="116.08186"
         r="1.6780661" /><circle
         style="fill:none;fill-opacity:0.407843;stroke:#e64d46;stroke-width:1.60271;stroke-linecap:round;stroke-linejoin:round;stroke-dasharray:none;stroke-opacity:1;paint-order:fill markers stroke"
         id="path59"
         cx="66.081535"
         cy="112.13664"
         r="1.6780661" /><circle
         style="fill:none;fill-opacity:0.407843;stroke:#3d7ed9;stroke-width:1.60271;stroke-linecap:round;stroke-linejoin:round;stroke-dasharray:none;stroke-opacity:0.996078;paint-order:fill markers stroke"
         id="path59-5"
         cx="65.734337"
         cy="116.69285"
         r="1.6780661" /><circle
         style="fill:none;fill-opacity:0.407843;stroke:#3d7ed9;stroke-width:1.60271;stroke-linecap:round;stroke-linejoin:round;stroke-dasharray:none;stroke-opacity:0.996078;paint-order:fill markers stroke"
         id="path59-5-8"
         cx="60.971832"
         cy="115.87511"
         r="1.6780661" /><path
         style="fill:none;fill-opacity:0.407843;stroke:#3276d4;stroke-width:1.60258;stroke-linecap:butt;stroke-linejoin:round;stroke-dasharray:none;stroke-opacity:1;paint-order:fill markers stroke"
         id="path59-5-0"
         sodipodi:type="arc"
         sodipodi:cx="66.081535"
         sodipodi:cy="112.13664"
         sodipodi:rx="1.6780661"
         sodipodi:ry="1.6780661"
         sodipodi:start="0.8552611"
         sodipodi:end="2.417487"
         sodipodi:arc-type="arc"
         d="M 67.182383,113.40315 A 1.6780661,1.6780661 0 0 1 64.824509,113.2483"
         sodipodi:open="true" /><path
         style="fill:none;fill-opacity:0.407843;stroke:#e85048;stroke-width:1.60271;stroke-linecap:butt;stroke-linejoin:round;stroke-dasharray:none;stroke-opacity:1;paint-order:fill markers stroke"
         id="path59-9"
         sodipodi:type="arc"
         sodipodi:cx="65.734337"
         sodipodi:cy="116.69285"
         sodipodi:rx="1.6780661"
         sodipodi:ry="1.6780661"
         sodipodi:start="3.9808115"
         sodipodi:end="5.4608379"
         sodipodi:arc-type="arc"
         d="m 64.613314,115.44416 a 1.6780661,1.6780661 0 0 1 2.262952,0.0191"
         sodipodi:open="true" /><path
         style="fill:none;fill-opacity:0.407843;stroke:#e85048;stroke-width:1.60271;stroke-linecap:butt;stroke-linejoin:round;stroke-dasharray:none;stroke-opacity:1;paint-order:fill markers stroke"
         id="path59-2"
         sodipodi:type="arc"
         sodipodi:cx="60.971832"
         sodipodi:cy="115.87511"
         sodipodi:rx="1.6780661"
         sodipodi:ry="1.6780661"
         sodipodi:start="4.1010662"
         sodipodi:end="5.4682769"
         sodipodi:arc-type="arc"
         d="m 60.008704,114.50096 a 1.6780661,1.6780661 0 0 1 2.114173,0.15308"
         sodipodi:open="true" /></g><path
       style="fill:none;fill-opacity:0.388386;stroke:#000000;stroke-width:2.11667;stroke-linecap:round;stroke-linejoin:round;stroke-dasharray:none;stroke-opacity:0.996078;paint-order:fill markers stroke"
       d="m 66.95645,87.242731 c -11.905188,4.410333 -27.497741,12.084161 -19.603553,22.714889 -1.356553,0.84838 -1.602398,2.05817 -1.248192,3.61426 -9.240122,4.82839 -7.595605,5.90082 -1.19346,5.33152 0.907073,5.47645 1.759336,10.38997 6.114519,7.56483 4.691776,-3.04348 6.625754,-5.54302 4.439038,-10.49637 0.692752,-0.83941 1.563277,-1.65906 1.524402,-2.57976 5.034142,-1.21053 9.133563,-2.53582 11.277245,-5.78667"
       id="path22"
       sodipodi:nodetypes="ccccsccc" /><path
       id="rect49-10"
       style="fill:#1f2a35;fill-opacity:0.3820866;stroke-width:2.11667;stroke-linecap:round;stroke-linejoin:round;stroke-opacity:0.71752;paint-order:fill markers stroke"
       d="m 80.175112,65.182213 5.178605,3.541123 -2.826718,4.134349 -4.119332,-2.728715 -2.727058,0.136197 z"
       sodipodi:nodetypes="cccccc" /><path
       style="fill:none;fill-opacity:1;stroke:#000000;stroke-width:2.11667;stroke-linecap:round;stroke-linejoin:round;stroke-dasharray:none;stroke-opacity:1;paint-order:fill markers stroke"
       d="m 10.991257,106.13556 c 4.76657,2.05007 8.666769,6.18684 11.239789,10.27359"
       id="path66"
       sodipodi:nodetypes="cc" /><path
       style="fill:none;fill-opacity:1;stroke:#000000;stroke-width:2.11667;stroke-linecap:round;stroke-linejoin:round;stroke-dasharray:none;stroke-opacity:1;paint-order:fill markers stroke"
       d="m 12.427069,111.55462 c 3.488284,2.27485 6.075851,5.63056 8.284714,9.44072"
       id="path67"
       sodipodi:nodetypes="cc" /></g></svg>
