<?xml version="1.0" encoding="UTF-8" standalone="no"?>
<!-- Created with Inkscape (http://www.inkscape.org/) -->

<svg
   width="512"
   height="768"
   viewBox="0 0 135.46667 203.2"
   version="1.1"
   id="svg1"
   inkscape:version="1.3.2 (091e20ef0f, 2023-11-25)"
   sodipodi:docname="aosc-13.svg"
   xml:space="preserve"
   xmlns:inkscape="http://www.inkscape.org/namespaces/inkscape"
   xmlns:sodipodi="http://sodipodi.sourceforge.net/DTD/sodipodi-0.dtd"
   xmlns="http://www.w3.org/2000/svg"
   xmlns:svg="http://www.w3.org/2000/svg"><sodipodi:namedview
     id="namedview1"
     pagecolor="#ffffff"
     bordercolor="#000000"
     borderopacity="0.25"
     inkscape:showpageshadow="2"
     inkscape:pageopacity="0.0"
     inkscape:pagecheckerboard="0"
     inkscape:deskcolor="#d1d1d1"
     inkscape:document-units="px"
     inkscape:zoom="4.1206234"
     inkscape:cx="406.00652"
     inkscape:cy="178.00704"
     inkscape:window-width="1920"
     inkscape:window-height="1124"
     inkscape:window-x="0"
     inkscape:window-y="48"
     inkscape:window-maximized="1"
     inkscape:current-layer="layer1" /><defs
     id="defs1" /><g
     inkscape:label="Layer 1"
     inkscape:groupmode="layer"
     id="layer1"><path
       id="rect50-1-9"
       style="fill:#e7534c;fill-opacity:1;stroke-width:2.91042;stroke-linecap:round;stroke-linejoin:round;paint-order:fill markers stroke"
       d="m 64.122828,155.33326 10.03828,-1.36542 15.971513,-1.14185 10.435139,1.92852 -2.414751,15.62711 -32.957966,-0.045 z"
       sodipodi:nodetypes="ccccccc" /><path
       id="rect50-1-9-4"
       style="fill:#ffffff;fill-opacity:1;stroke-width:2.91042;stroke-linecap:round;stroke-linejoin:round;paint-order:fill markers stroke"
       d="m 77.787502,160.91162 9.176494,0.0155 10.181502,10.0838 -27.457775,-0.10997 z"
       sodipodi:nodetypes="ccccc" /><path
       id="rect68-5"
       style="fill:#ffe8e0;fill-opacity:1;stroke-width:2.91042;stroke-linecap:round;stroke-linejoin:round;paint-order:fill markers stroke"
       d="m 104.16017,149.40403 4.11006,-1.92703 6.35794,10.49158 9.78512,-2.10878 c 3.05919,0.13855 3.20037,8.78801 4.13228,15.13114 l -23.81443,0.4996 z"
       sodipodi:nodetypes="ccccccc" /><path
       id="rect68-8"
       style="fill:#e1b8ab;fill-opacity:1;stroke-width:2.91042;stroke-linecap:round;stroke-linejoin:round;paint-order:fill markers stroke"
       d="m 104.31396,158.02405 5.5182,6.55398 -4.19495,3.69155 -1.46889,-4.89145 z"
       sodipodi:nodetypes="ccccc" /><path
       id="rect68-7"
       style="fill:#ffffff;fill-opacity:1;stroke-width:2.91042;stroke-linecap:round;stroke-linejoin:round;paint-order:fill markers stroke"
       d="m 104.89026,168.54478 13.32683,-12.01567 c 5.84136,-1.37382 7.88611,-0.34312 8.55647,1.55802 l 0.90964,13.13086 h -22.72857 z"
       sodipodi:nodetypes="cccccc" /><path
       id="rect50-79"
       style="fill:#1d2437;fill-opacity:0.402685;stroke-width:2.91042;stroke-linecap:round;stroke-linejoin:round;paint-order:fill markers stroke"
       d="m 104.84854,170.58491 c 0,0 2.93987,-2.51838 5.0892,-2.78973 1.48448,-0.18741 3.02199,0.3507 4.4607,0.0492 1.06778,-0.22378 2.00709,-1.75581 3.69355,-2.18953 1.52754,-0.39284 2.74051,0.85527 4.25548,0.69428 2.32901,-0.2475 4.04722,-4.13733 4.04722,-4.13733 l 1.31619,8.15603 z"
       sodipodi:nodetypes="cssssccc" /><path
       id="rect50-1-9-9"
       style="fill:#604640;fill-opacity:1;stroke-width:2.91042;stroke-linecap:round;stroke-linejoin:round;paint-order:fill markers stroke"
       d="m 70.69714,131.94129 20.191704,-0.24665 10.107346,9.08039 3.80551,20.25575 -5.73945,-0.88078 0.97019,-5.8621 -18.281711,-3.14803 -17.945657,4.81955 -6.579442,-2.63451 -1.238423,-4.59723 c 3.407056,-7.57266 7.165565,-14.68089 14.709933,-16.78639 z"
       sodipodi:nodetypes="ccccccccccc" /><path
       id="rect50"
       style="fill:#ffffff;fill-opacity:1;stroke-width:2.91042;stroke-linecap:round;stroke-linejoin:round;paint-order:fill markers stroke"
       d="m 31.058528,151.7219 8.423789,3.21583 1.433464,2.43115 3.528989,12.86511 -3.072843,1.53376 -13.85731,-12.91181 z"
       sodipodi:nodetypes="ccccccc" /><path
       id="rect50-1-0"
       style="fill:#ffdda2;fill-opacity:1;stroke-width:2.91042;stroke-linecap:round;stroke-linejoin:round;paint-order:fill markers stroke"
       d="m 28.661465,157.72343 13.623983,13.93404 -19.900416,-1.05064 z"
       sodipodi:nodetypes="cccc" /><path
       id="rect68-9"
       style="fill:#604640;fill-opacity:1;stroke-width:2.91042;stroke-linecap:round;stroke-linejoin:round;paint-order:fill markers stroke"
       d="m 59.994108,163.6997 2.530174,-0.4736 1.980651,3.54945 -5.664319,1.21955 z"
       sodipodi:nodetypes="ccccc" /><path
       id="rect68-96"
       style="fill:#ccd2d8;fill-opacity:1;stroke-width:2.91042;stroke-linecap:round;stroke-linejoin:round;paint-order:fill markers stroke"
       d="m 76.494957,161.17557 10.43418,-0.10429 9.698789,9.26493 -5.381041,-0.0255 -5.163365,-6.50715 c -3.615217,1.25176 -6.42102,1.64352 -7.815233,0.53546 l -3.337306,6.06055 -4.432587,-0.11552 z"
       sodipodi:nodetypes="ccccccccc" /><path
       id="rect68-2"
       style="fill:#f1b181;fill-opacity:1;stroke-width:2.91042;stroke-linecap:round;stroke-linejoin:round;paint-order:fill markers stroke"
       d="m 27.482553,158.87392 4.314736,3.27592 0.410229,8.06796 -10.564825,-0.10255 c 2.436913,-2.99214 5.565486,-7.16793 5.83986,-11.24133 z"
       sodipodi:nodetypes="ccccc" /><path
       id="rect50-7"
       style="fill:none;fill-opacity:1;stroke:#000000;stroke-width:2.91042;stroke-linecap:round;stroke-linejoin:round;stroke-opacity:1;paint-order:fill markers stroke"
       d="m 71.848058,129.14667 17.716895,0.0828 c 0,0 8.277602,4.05321 12.141247,8.32456 3.86365,4.27134 10.68723,18.04835 10.68723,18.04835 0,0 0.86559,1.98114 2.59054,2.08431 1.66771,0.0997 2.07926,-1.27108 2.73768,-1.5687 0.59561,-0.26923 1.5404,0.25898 2.5052,0.18957 0.70756,-0.0509 1.65225,-0.19896 2.24032,-0.5065 2.02231,-1.0576 6.55462,2.01325 3.95912,7.44473 1.05244,1.35423 1.46727,6.47937 1.46101,7.72848 h -23.14132 l -0.75439,-10.20895 -3.47388,-0.46263 -1.892167,10.67158 H 64.551465 l -1.307834,-8.13434 -3.549943,0.94793 -2.942342,7.18641 H 21.085208 l 5.433065,-8.14184 c 0.296129,-4.68667 4.41701,-5.99375 4.127743,-13.53968 z"
       sodipodi:nodetypes="cczcsssscccccccccccccc" /><path
       id="rect68-75"
       style="fill:#47332e;fill-opacity:1;stroke-width:2.91042;stroke-linecap:round;stroke-linejoin:round;paint-order:fill markers stroke"
       d="m 56.542823,146.2065 4.629071,-4.45364 2.151007,12.65957 -6.182041,-1.5506 z"
       sodipodi:nodetypes="ccccc" /><path
       style="fill:none;fill-opacity:1;stroke:#000000;stroke-width:2.91042;stroke-linecap:round;stroke-linejoin:round;stroke-dasharray:none;stroke-opacity:0.997315;paint-order:fill markers stroke"
       d="m 24.99659,76.56969 c 3.175781,0.133572 5.73514,1.242348 8.181728,2.539157"
       id="path72"
       sodipodi:nodetypes="cc" /><path
       style="color:#000000;fill:#252e33;stroke-linecap:round;stroke-linejoin:round;-inkscape-stroke:none;paint-order:fill markers stroke"
       d="M 35.209574,100.44707 C 37.878907,79.821819 38.76003,50.115121 37.830875,32.074785 36.826274,12.569596 55.827571,18.851843 69.044233,42.351814 c 2.907586,5.16985 4.446483,9.054546 4.53687,17.213017 l 7.945423,-0.567133 c 0.298861,-4.31528 -0.562638,-15.40066 5.691461,-31.332561 10.227504,-26.0538883 21.756563,5.178842 28.768923,21.197656 6.3037,14.399959 -0.49009,30.295429 -0.49009,30.295429 l 2.16269,2.613004 c 1.89896,4.083833 2.97722,8.773453 4.59598,12.98832 4.67584,1.152545 4.08242,9.931194 -0.0687,11.543444 6.06078,15.54524 6.46648,28.14983 -6.69893,33.69745 1.00834,2.47951 1.31868,10.58208 -3.5445,3.79303 -2.06079,2.68573 -5.04232,5.06895 -8.05324,6.12589 -0.46381,-3.12913 -1.07264,-6.5231 -2.30571,-9.84539 -3.039184,-2.34067 -7.307564,-5.76973 -11.783855,-7.93103 -6.107139,0.22357 -11.317584,1.76647 -18.953899,-0.49487 -3.642897,1.0255 -5.792932,3.61786 -9.037093,5.53391 l -6.229028,11.6188 1.350158,4.23608 c 5.873873,1.40222 8.334616,5.05172 8.05831,8.2081 -1.545228,0.3189 -2.269901,1.30918 -5.895474,-0.074 1.056112,5.09991 -1.018051,8.08936 -2.597749,11.56724 -10.888914,0.70271 -17.892268,-7.67513 -14.552048,-14.42953 l -2.385194,-3.45598 c -27.216605,-9.31331 -9.901465,-27.31573 -6.338962,-42.63472 -2.850823,-8.58368 0.656163,-10.30988 1.989958,-11.77088 z"
       id="path35"
       sodipodi:nodetypes="cssccsscccccccccccccccccccsc" /><path
       style="fill:none;fill-opacity:1;stroke:#ffffff;stroke-width:1.05833;stroke-linecap:round;stroke-linejoin:round;stroke-dasharray:none;stroke-opacity:0.997315;paint-order:fill markers stroke"
       d="m 61.75083,137.23232 c -0.526143,5.35359 1.107887,12.99974 1.901394,17.9731"
       id="path69"
       sodipodi:nodetypes="cc" /><path
       id="rect1-9"
       style="fill:#ffffff;fill-opacity:1;stroke:none;stroke-width:0.2;stroke-linecap:square;paint-order:fill markers stroke"
       d="m 43.312964,36.605114 c -5.366914,-30.8015857 31.853687,3.066624 30.370348,22.884355 -8.277386,1.121007 -16.3458,7.048376 -24.460242,11.917099 0,0 -0.543192,-3.999868 -5.910106,-34.801454 z"
       sodipodi:nodetypes="zccz" /><path
       id="rect1-9-7"
       style="fill:#151d23;fill-opacity:1;stroke:none;stroke-width:0.2;stroke-linecap:square;paint-order:fill markers stroke"
       d="m 104.77115,81.058486 6.18131,9.572916 4.78009,-1.699047 2.19746,3.385436 -3.79742,1.574502 3.29041,6.891887 8.33646,-0.51601 -1.61742,5.88313 -5.73379,-0.57131 -1.75658,3.99631 c 3.9699,6.22845 3.4879,9.34146 4.36527,13.82936 1.07428,5.49515 0.94958,6.33064 2.56043,4.24733 l 1.96682,-2.54368 c -1.33723,8.9831 -4.60417,14.63478 -11.16401,12.62292 l 0.29535,-11.25789 c 1.21985,-7.47302 1.24897,-15.25871 2.17338,-22.76456 0,0 -3.81888,-0.27032 -5.23451,0.42368 -0.4976,0.24394 -1.00122,1.18177 -1.10764,1.72564 -0.2415,1.23418 2.00487,2.20291 1.86672,3.78873 -0.11907,1.36687 -1.13032,1.7587 -1.36186,3.22189 -0.18126,1.14547 1.84578,3.45721 1.69225,4.62384 -0.16155,1.22764 -0.47613,2.34212 -0.84611,3.31141 -0.37309,0.97745 0.96842,3.86821 0.86307,4.86686 -0.002,0.007 -1.63835,1.07861 -1.63835,1.07861 -1.20667,-4.14523 -1.38612,-8.40459 -3.80161,-12.4155 l 2.09231,-4.78463 -1.90318,-4.40239 c 0.93897,-1.79285 1.66595,-4.71628 3.01926,-4.29933 l -5.94971,-10.113326 c -1.23226,-3.225592 -0.29615,-6.451185 0.2316,-9.676778 z"
       sodipodi:nodetypes="ccccccccccssccccsssssscccccccc" /><path
       id="rect1-9-99"
       style="fill:#151d23;fill-opacity:1;stroke:none;stroke-width:0.2;stroke-linecap:square;paint-order:fill markers stroke"
       d="m 89.939352,131.71115 c 5.992959,-3.20331 13.802228,-7.94836 18.013518,-16.19833 3.99822,3.97939 0.65004,7.30124 2.07631,11.03649 -8.80597,3.55834 -1.95428,11.80198 0.25569,9.98718 -0.60137,6.10551 -3.48398,8.91591 -5.74397,12.62565 l -2.57533,-8.73511 c -3.04093,-3.59659 -7.662528,-6.06412 -12.026218,-8.71588 z"
       sodipodi:nodetypes="ccccccc" /><ellipse
       style="fill:#151d23;fill-opacity:1;stroke:none;stroke-width:1.14675;stroke-linecap:round;stroke-linejoin:round;stroke-dasharray:none;stroke-opacity:1;paint-order:fill markers stroke"
       id="path31"
       cx="-19.829023"
       cy="103.32117"
       rx="0.78088295"
       ry="2.8632374"
       transform="rotate(-47.098906)" /><path
       id="rect1-9-4"
       style="fill:#151d23;fill-opacity:1;stroke:none;stroke-width:0.2;stroke-linecap:square;paint-order:fill markers stroke"
       d="m 42.743606,157.67271 8.18366,-2.82036 c 3.76106,2.04647 4.040832,9.31487 3.545594,17.74578 -18.593218,-4.02782 -11.771478,-9.69531 -11.729254,-14.92542 z"
       sodipodi:nodetypes="cccc" /><path
       id="rect1-9-0"
       style="fill:#151d23;fill-opacity:1;stroke:none;stroke-width:0.2;stroke-linecap:square;paint-order:fill markers stroke"
       d="m 52.993109,94.685201 c 10.037102,-6.241589 6.755351,-3.561985 6.755351,-3.561985 l -3.458135,11.334004 -3.670003,1.75476 -0.813013,10.75141 c -0.347626,4.59706 -1.428469,3.95723 -1.390876,-0.20111 l 0.0389,-4.3028 c 0.0094,-1.03775 -0.230049,-1.65308 -1.601561,0.24334 -1.693,2.34094 -2.301169,2.31449 -5.038237,3.98095 -2.737068,1.66646 -2.049914,3.45987 -4.890833,13.34611 -4.401893,15.31834 -2.242175,15.72483 9.629321,20.80257 1.295133,-4.89304 2.275834,-9.79961 2.669417,-15.41876 0.549465,-7.84467 2.298181,-5.26914 2.687771,1.31959 0.146401,2.47594 -8.09e-4,9.58338 -1.970507,14.42479 l -11.384566,4.09624 C 28.525178,152.832 25.8559,146.68866 24.852795,139.5271 c 0.02692,-9.27924 5.292318,-18.55848 8.461065,-27.83772 l 0.148453,-5.71154 c 2.529577,2.03943 3.459381,2.40519 6.427784,0.19499 0.93004,-0.69249 2.427083,0.28251 3.339885,-0.33468 1.113567,-0.75294 1.795916,-3.61252 2.812967,-4.29652 1.401737,-0.9427 3.407858,-0.97726 4.563137,-1.768188 1.640684,-1.123248 1.341083,-4.43777 2.387025,-5.088191 z"
       sodipodi:nodetypes="scccsssszscsscccccssssss" /><path
       id="rect1-9-14"
       style="fill:#151d23;fill-opacity:1;stroke:none;stroke-width:0.2;stroke-linecap:square;paint-order:fill markers stroke"
       d="m 38.100228,34.573941 c 5.323575,24.746535 3.870691,42.536099 3.537027,61.233557 l -6.747952,5.025792 c 3.435956,-19.45795 2.958973,-43.263614 3.210925,-66.259349 z"
       sodipodi:nodetypes="cccc" /><path
       id="rect1-9-76"
       style="fill:#151d23;fill-opacity:1;stroke:none;stroke-width:0.2;stroke-linecap:square;paint-order:fill markers stroke"
       d="m 61.525839,126.81668 9.132194,5.24487 -8.767401,5.3513 z"
       sodipodi:nodetypes="cccc" /><path
       id="rect34-0"
       style="fill:#ffffff;fill-opacity:1;stroke-width:1.5875;stroke-linecap:round;stroke-linejoin:round;paint-order:fill markers stroke"
       d="M 93.601355,32.579429 C 89.069189,3.3535117 122.97769,29.587628 116.03438,78.565149 109.87003,72.905137 104.28957,66.751054 96.004851,62.885197 c 0,0 2.12867,-1.079851 -2.403496,-30.305768 z"
       sodipodi:nodetypes="zccz" /><path
       id="rect1-9-1"
       style="fill:#151d23;fill-opacity:1;stroke:none;stroke-width:0.2;stroke-linecap:square;paint-order:fill markers stroke"
       d="M 49.556537,72.423443 C 56.476429,66.867813 64.677082,62.990656 72.099681,59.948564 60.309642,67.832757 54.416809,74.788319 50.501604,83.176391 Z"
       sodipodi:nodetypes="cccc" /><path
       id="rect34"
       style="fill:#151d23;fill-opacity:1;stroke-width:1.5875;stroke-linecap:round;stroke-linejoin:round;paint-order:fill markers stroke"
       d="M 90.662704,23.519861 C 89.798358,35.64219 88.286527,51.659968 88.845993,60.649913 l -7.690662,-2.076088 c 2.091728,-15.290608 6.328101,-26.016732 9.507373,-35.053964 z"
       sodipodi:nodetypes="cccc" /><g
       id="g49"><path
         id="rect49"
         style="fill:#e7534c;fill-opacity:1;stroke-width:2.91042;stroke-linecap:round;stroke-linejoin:round;paint-order:fill markers stroke"
         d="m 41.146064,157.64639 15.520005,-5.05303 -1.243204,-3.32858 c -5.601221,0.0991 -10.572939,1.54704 -14.677835,4.85251 z"
         sodipodi:nodetypes="ccccc" /><path
         id="rect49-6"
         style="fill:#3479d7;fill-opacity:1;stroke-width:2.91042;stroke-linecap:round;stroke-linejoin:round;paint-order:fill markers stroke"
         d="m 45.017427,156.38594 11.648642,-3.79258 -1.243204,-3.32858 c -2.10541,0.0373 -4.121879,0.26508 -6.036802,0.71049 z"
         sodipodi:nodetypes="ccccc" /></g><path
       id="rect68-90"
       style="fill:#c6cdd4;fill-opacity:1;stroke-width:2.91042;stroke-linecap:round;stroke-linejoin:round;paint-order:fill markers stroke"
       d="m 31.307744,152.54314 3.583406,0.98262 c 0,0 -0.528788,1.2232 0.446356,3.20092 0.315772,0.64043 1.376035,1.35158 2.279702,2.341 0.901173,0.98669 0.188507,1.4811 0.817878,2.35867 1.030915,1.43748 2.617024,1.28566 2.617024,1.28566 l -1.230688,6.3088 -10.359711,-9.74295 z"
       sodipodi:nodetypes="ccssscccc" /><path
       id="rect49-0"
       style="fill:#1d2437;fill-opacity:0.402685;stroke-width:2.91042;stroke-linecap:round;stroke-linejoin:round;paint-order:fill markers stroke"
       d="m 40.646841,157.80275 10.406236,-2.85127 1.349193,-6.13405 c -5.601221,0.0991 -8.051567,2.15075 -12.156463,5.45622 z"
       sodipodi:nodetypes="ccccc" /><path
       style="fill:none;fill-opacity:1;stroke:#ffffff;stroke-width:1.05833;stroke-linecap:round;stroke-linejoin:round;stroke-dasharray:none;stroke-opacity:0.997315;paint-order:fill markers stroke"
       d="m 97.399472,137.11936 c 1.142231,5.08392 2.208379,10.26929 2.556064,16.41261"
       id="path70"
       sodipodi:nodetypes="cc" /><path
       id="rect68-06"
       style="fill:#342320;fill-opacity:0.550336;stroke-width:2.91042;stroke-linecap:round;stroke-linejoin:round;paint-order:fill markers stroke"
       d="m 90.710575,133.17562 11.279755,6.70504 1.67626,5.50935 -13.028896,-6.4864 z"
       sodipodi:nodetypes="ccccc" /><path
       id="rect68-6"
       style="fill:#342320;fill-opacity:0.550336;stroke-width:2.91042;stroke-linecap:round;stroke-linejoin:round;paint-order:fill markers stroke"
       d="m 61.462613,135.40254 8.220999,-2.29617 1.951745,5.17251 -12.526319,6.02744 z"
       sodipodi:nodetypes="ccccc" /><path
       id="rect68-0"
       style="fill:#432923;fill-opacity:1;stroke-width:2.91042;stroke-linecap:round;stroke-linejoin:round;paint-order:fill markers stroke"
       d="m 71.475913,131.62519 7.731889,0.42081 -0.210405,5.14101 -7.311079,-0.63121 z"
       sodipodi:nodetypes="ccccc" /><path
       id="rect68-60-0"
       style="fill:#ba3e38;fill-opacity:1;stroke-width:2.91042;stroke-linecap:round;stroke-linejoin:round;paint-order:fill markers stroke"
       d="m 64.986517,168.14775 12.297738,-8.18743 0.42717,2.65413 -9.165154,8.54341 z"
       sodipodi:nodetypes="ccccc" /><g
       id="g39"><path
         style="fill:none;fill-opacity:1;stroke:#367ad7;stroke-width:2.38125;stroke-linecap:round;stroke-linejoin:round;stroke-dasharray:none;stroke-opacity:1;paint-order:fill markers stroke"
         d="M 51.322975,71.671289 C 52.840032,54.6697 51.118754,59.740013 49.514234,44.427155 47.909714,29.114297 64.81996,43.631698 63.192825,63.758054"
         id="path37"
         sodipodi:nodetypes="czc" /><path
         style="color:#000000;fill:#e85f59;fill-opacity:1;stroke-linecap:round;stroke-linejoin:round;-inkscape-stroke:none;paint-order:fill markers stroke"
         d="m 60.254908,50.137542 c 1.354705,3.876846 2.154664,8.530962 1.750951,13.524567 -0.05327,0.655971 0.435761,1.230734 1.091797,1.283203 0.655238,0.05213 1.22876,-0.436586 1.28125,-1.091796 0.356237,-4.406368 -0.131471,-8.540558 -1.1233,-12.187852 z"
         id="path37-4"
         sodipodi:nodetypes="cccccc" /><path
         style="color:#000000;fill:#e85f59;fill-opacity:1;stroke-linecap:round;stroke-linejoin:round;-inkscape-stroke:none;paint-order:fill markers stroke"
         d="m 50.239552,56.613758 c 0.06409,0.336555 0.122551,0.663378 0.17451,0.989758 0.422642,2.654831 0.478573,5.491373 -0.277343,13.96289 -0.05802,0.654689 0.425428,1.232557 1.080078,1.291016 0.655417,0.05917 1.234533,-0.424595 1.292969,-1.080078 0.761139,-8.530055 0.71572,-11.66021 0.255859,-14.548828 -0.196858,-1.236567 -0.457937,-2.390587 -0.754641,-3.902254 0,0 -1.731192,3.406922 -1.771432,3.287496 z"
         id="path37-8"
         sodipodi:nodetypes="cscccscc" /></g><path
       id="rect34-4"
       style="fill:#264e71;fill-opacity:0.414765;stroke-width:1.5875;stroke-linecap:round;stroke-linejoin:round;paint-order:fill markers stroke"
       d="m 42.573419,33.247769 c 4.29981,9.713117 6.5986,19.30117 14.069822,29.212501 5.927819,-2.864979 11.280475,-3.141729 16.799257,-4.16604 L 49.524836,72.693593 Z"
       sodipodi:nodetypes="ccccc" /><path
       style="fill:none;fill-opacity:0.524832;stroke:#000000;stroke-width:2.91042;stroke-linecap:round;stroke-linejoin:round;stroke-dasharray:none;stroke-opacity:1;paint-order:fill markers stroke"
       d="m 42.485555,34.015858 c 2.657761,17.80336 7.409473,34.040953 7.705477,51.844313 0,0 -2.343286,0.92435 -5.092548,3.291809 -0.970638,0.83584 0.08868,3.910795 -1.63377,5.974129 -1.193071,1.429188 -2.097901,0.706484 -3.470224,1.733546 -0.933927,0.698962 -0.402859,3.537555 -1.378702,4.456115 -1.383665,1.30244 -4.498707,1.18393 -4.498707,1.18393"
       id="path1"
       sodipodi:nodetypes="ccssssc" /><path
       id="rect1-0"
       style="fill:#ffe8e0;fill-opacity:1;stroke:#000000;stroke-width:0.2;stroke-linecap:square;stroke-opacity:1;paint-order:fill markers stroke"
       d="m 68.089928,82.770024 1.454159,16.172021 17.710749,-1.2447 2.472625,-3.086495 4.784216,1.27206 -0.768325,-13.008261 11.786088,8.793301 3.11809,6.809604 -1.47258,20.463576 c -10.88151,16.47284 -27.346751,15.70893 -45.711636,9.08091 L 56.545419,97.682568 Z"
       sodipodi:nodetypes="cccccccccccc" /><path
       id="rect1"
       style="fill:#ffffff;fill-opacity:0.995973;stroke-width:2.91042;stroke-linecap:round;stroke-linejoin:round;stroke-opacity:0.997315;paint-order:fill markers stroke"
       d="M 91.215265,99.451419 C 95.874108,95.54767 102.0472,95.261481 107.982,97.418522 c 2.28884,5.791148 -3.29223,16.688798 -10.755506,15.611388 z"
       sodipodi:nodetypes="cccc" /><path
       id="rect1-03"
       style="fill:#e0b7ab;fill-opacity:1;stroke:none;stroke-width:0.2;stroke-linecap:square;paint-order:fill markers stroke"
       d="m 89.324102,94.526054 3.833283,2.347005 c 0,0 -1.446021,-0.290371 -2.056082,-0.145065 -0.610062,0.145306 -0.925247,1.75482 -1.862478,3.071003 -0.937231,1.316183 -12.719197,2.215243 -19.777708,1.902033 -1.598231,-0.0709 -2.502836,-0.95263 -2.667454,-2.480826 -0.143713,-1.33413 -0.888394,-13.145416 -1.122512,-14.382789 -0.730297,-0.0079 -1.185466,6.18775 -2.284604,7.476947 -0.942049,1.104946 -2.093354,0.924415 -2.94383,2.571659 -0.432836,0.838339 -0.09004,1.746248 -0.885293,2.600435 -1.959942,2.105197 -3.944244,1.102179 -3.72269,0.364993 3.703595,-4.011301 8.039671,-11.39077 12.385857,-13.731336 l 1.12126,14.690879 18.255396,-1.401993 z"
       sodipodi:nodetypes="cczzsscsssccccc" /><ellipse
       style="fill:#151d23;fill-opacity:1;stroke:none;stroke-width:1.14675;stroke-linecap:round;stroke-linejoin:round;stroke-dasharray:none;stroke-opacity:1;paint-order:fill markers stroke"
       id="path31-6"
       cx="-25.93569"
       cy="104.09138"
       rx="0.78088295"
       ry="2.8632374"
       transform="rotate(-47.098906)" /><path
       style="fill:none;fill-opacity:0.524832;stroke:#000000;stroke-width:2.91042;stroke-linecap:round;stroke-linejoin:round;stroke-dasharray:none;stroke-opacity:1;paint-order:fill markers stroke"
       d="m 33.592826,111.95237 c 0,0 3.045569,2.72148 6.011047,-0.0432 0.675469,-0.62973 1.016498,-2.36364 1.895002,-2.93784 0.998157,-0.6524 3.22746,2.07005 4.262333,1.0698 1.136066,-1.09806 1.589832,-4.44182 2.87401,-5.72878 1.882345,-1.88642 4.144029,0.65867 5.927433,-0.97408 2.279071,-2.08656 0.771722,-5.343223 2.120298,-6.549598 1.303651,-1.166188 2.039165,-1.233153 2.897311,-2.248866 0.687625,-0.813884 -0.280323,-2.541834 0.360989,-3.319539 0.85685,-1.03908 2.673468,-0.989649 3.539815,-1.832932 0.714472,-0.695453 -0.492476,-2.44604 0.07268,-3.082088 1.775616,-1.998349 4.628306,-2.465485 4.628306,-2.465485"
       id="path2"
       sodipodi:nodetypes="cssssssssssc" /><path
       id="rect1-9-9"
       style="fill:#151d23;fill-opacity:1;stroke:none;stroke-width:0.2;stroke-linecap:square;paint-order:fill markers stroke"
       d="m 69.409421,94.047069 2.292345,-0.142745 c 0.379597,-0.02364 0.62507,-0.550716 0.662108,-0.929241 l 0.217686,-2.224748 c 0.219693,-2.245255 1.233979,-1.606961 1.518123,-0.122511 l 0.443856,2.318829 c 0.178235,0.931153 0.857219,0.784817 1.598787,0.65259 6.218549,-1.108808 17.31702,-6.511947 17.31702,-6.511947 l 0.488754,9.208354 -4.725983,-2.696828 -2.291029,3.358963 -16.831627,1.381352 z"
       sodipodi:nodetypes="csssssscccccc" /><path
       style="fill:none;fill-opacity:0.524832;stroke:#000000;stroke-width:2.91042;stroke-linecap:round;stroke-linejoin:round;stroke-dasharray:none;stroke-opacity:1;paint-order:fill markers stroke"
       d="m 93.972044,83.484092 c 0,0 -2.707579,-2.035387 2.463574,0.744464 0.822801,0.442313 0.656291,2.111039 2.087451,3.193636 0.823278,0.622767 2.054861,0.270488 3.035331,1.017319 0.86734,0.660664 0.10265,1.792466 1.04199,2.537501 0.94735,0.751392 2.05104,-0.253118 3.07458,0.534548 0.83428,0.642015 -0.88911,2.542832 0.85586,3.781359 2.04028,1.448131 2.3352,4.118581 3.73538,5.096501 2.61484,1.82629 3.81127,0.56386 5.89471,1.26868 1.10793,0.37481 1.23121,2.01057 2.26453,2.742 1.13513,0.80351 3.65774,1.15835 3.65774,1.15835"
       id="path3"
       sodipodi:nodetypes="csssssssssc" /><path
       style="fill:none;fill-opacity:0.524832;stroke:#000000;stroke-width:2.91042;stroke-linecap:round;stroke-linejoin:round;stroke-dasharray:none;stroke-opacity:1;paint-order:fill markers stroke"
       d="m 114.52843,88.413431 c 2.16751,0.566667 5.41049,3.584661 7.578,5.823349"
       id="path4"
       sodipodi:nodetypes="cc" /><path
       style="fill:none;fill-opacity:0.524832;stroke:#000000;stroke-width:2.91042;stroke-linecap:round;stroke-linejoin:round;stroke-dasharray:none;stroke-opacity:1;paint-order:fill markers stroke"
       d="m 56.238943,99.463918 c 2.855259,15.493252 5.097192,27.472022 5.887273,37.182772"
       id="path5"
       sodipodi:nodetypes="cc" /><g
       id="g20"
       style="display:none"><path
         style="fill:none;fill-opacity:1;stroke:#367ad7;stroke-width:2.38125;stroke-linecap:round;stroke-linejoin:round;stroke-dasharray:none;stroke-opacity:1;paint-order:fill markers stroke"
         d="M 94.845759,43.635833 C 100.28722,26.471757 110.06789,54.386691 107.73303,71.219104"
         id="path38"
         sodipodi:nodetypes="cc" /><path
         style="color:#000000;fill:#e85f59;fill-opacity:1;stroke-linecap:round;stroke-linejoin:round;-inkscape-stroke:none;paint-order:fill markers stroke"
         d="m 105.44168,52.928865 c 1.2862,5.903147 1.86444,12.694536 1.11105,18.125822 -0.0908,0.652252 0.36514,1.254327 1.01758,1.34375 0.65088,0.08968 1.25138,-0.364847 1.3418,-1.015625 0.64634,-4.65961 0.41183,-10.035342 -0.39356,-15.127503 0,0 -3.06202,-3.469591 -3.07687,-3.326444 z"
         id="path38-9"
         sodipodi:nodetypes="cccccc" /></g><g
       id="g19"><path
         style="fill:none;fill-opacity:0.995973;stroke:#367ad7;stroke-width:2.38125;stroke-linecap:round;stroke-linejoin:round;stroke-dasharray:none;stroke-opacity:1;paint-order:fill markers stroke"
         d="M 94.420892,38.819329 C 99.11727,13.048696 110.28042,47.947672 107.6722,70.671037"
         id="path13"
         sodipodi:nodetypes="cc" /><path
         style="color:#000000;fill:#e85f59;fill-opacity:1;stroke-linecap:round;stroke-linejoin:round;-inkscape-stroke:none;paint-order:fill markers stroke"
         d="m 106.20292,52.913336 c 0.71596,5.907299 0.91425,12.159773 0.28731,17.62182 -0.0748,0.653103 0.39381,1.243267 1.04688,1.31836 0.6531,0.07483 1.24326,-0.393804 1.31836,-1.046875 0.51819,-4.514609 0.51167,-9.455217 0.12571,-14.313157 0,0 -2.63195,-3.455616 -2.77826,-3.580148 z"
         id="path13-1"
         sodipodi:nodetypes="cccccc" /></g><path
       id="rect34-7"
       style="fill:#264e71;fill-opacity:0.414765;stroke-width:1.5875;stroke-linecap:round;stroke-linejoin:round;paint-order:fill markers stroke"
       d="m 94.169495,29.890899 c 3.771773,10.126916 7.480265,20.24856 9.593135,30.237234 6.12812,6.643249 12.62835,15.679799 12.41933,15.596193 l -0.93138,2.859213 C 110.08106,72.47044 104.21521,66.811466 95.824594,62.799081 Z"
       sodipodi:nodetypes="cccccc" /><path
       style="fill:none;fill-opacity:0.524832;stroke:#000000;stroke-width:2.91042;stroke-linecap:round;stroke-linejoin:round;stroke-dasharray:none;stroke-opacity:1;paint-order:fill markers stroke"
       d="M 49.701113,73.278017 C 74.656532,51.912751 95.730315,55.799633 115.12016,79.104309"
       id="path6"
       sodipodi:nodetypes="cc" /><path
       style="color:#000000;fill:#ffb771;stroke-linecap:round;stroke-linejoin:round;-inkscape-stroke:none;paint-order:fill markers stroke"
       d="m 127.47954,87.103599 c 1.51529,-6.065532 -0.72715,-9.521531 -3.4715,-12.628974 -6.2622,5.050784 -4.79788,8.154106 -12.65881,16.18021 -4.91612,-2.710839 -4.25647,-6.422459 -4.7431,-9.928335 7.31093,-0.479231 13.46521,4.356885 20.87341,6.377099 z"
       id="path43" /><path
       id="rect34-46"
       style="fill:#f1935a;fill-opacity:1;stroke-width:1.5875;stroke-linecap:round;stroke-linejoin:round;paint-order:fill markers stroke"
       d="m 107.83714,86.524268 19.28491,-6.913705 -0.31113,6.836793 -8.63296,-2.421425 -6.70414,7.464275 z"
       sodipodi:nodetypes="cccccc" /><path
       style="color:#000000;fill:#000000;stroke-linecap:round;stroke-linejoin:round;-inkscape-stroke:none;paint-order:fill markers stroke"
       d="m 123.09375,73.341797 c -3.2876,2.651619 -4.67248,4.962332 -6.07422,7.376953 -0.10017,0.172551 -0.24786,0.381882 -0.34961,0.556641 -3.19236,-1.26052 -6.48806,-2.242531 -10.1582,-2.001954 a 1.4553555,1.4553555 0 0 0 -1.34766,1.652344 c 0.22139,1.594974 0.16001,3.483606 0.75782,5.480469 0.5978,1.996863 1.99652,4.019124 4.7246,5.523437 a 1.4553555,1.4553555 0 0 0 1.74219,-0.255859 c 2.66886,-2.724931 4.18162,-4.831054 5.40235,-6.722656 2.90676,1.25115 5.92314,2.633963 9.30664,3.55664 a 1.4553555,1.4553555 0 0 0 1.79296,-1.050781 c 1.62862,-6.519157 -0.95265,-10.731419 -3.79101,-13.945312 a 1.4553555,1.4553555 0 0 0 -2.00586,-0.169922 z m 0.79297,3.298828 c 1.81795,2.252227 2.92405,4.690165 2.38867,8.480469 -2.30927,-0.780289 -4.58645,-1.7353 -6.86523,-2.738282 0.0349,-0.06006 0.0925,-0.143762 0.12695,-0.203125 1.17694,-2.027395 2.31471,-3.658851 4.34961,-5.539062 z m -15.60156,5.701172 c 2.25834,0.117057 4.49283,0.676039 6.74804,1.544922 -0.91329,1.364233 -2.20891,2.955572 -3.89648,4.777343 -1.33464,-0.971901 -2.08572,-1.955877 -2.42578,-3.091796 -0.27091,-0.9049 -0.3285,-2.104055 -0.42578,-3.230469 z"
       id="path44" /><path
       style="fill:none;fill-opacity:0.524832;stroke:#000000;stroke-width:2.91042;stroke-linecap:round;stroke-linejoin:round;stroke-dasharray:none;stroke-opacity:1;paint-order:fill markers stroke"
       d="m 93.467126,29.052063 c 1.088092,11.207351 2.176184,22.414701 3.264276,33.622052"
       id="path7"
       sodipodi:nodetypes="cc" /><path
       style="fill:none;fill-opacity:0.524832;stroke:#000000;stroke-width:2.91042;stroke-linecap:round;stroke-linejoin:round;stroke-dasharray:none;stroke-opacity:1;paint-order:fill markers stroke"
       d="m 69.016371,77.443631 c -1.535945,7.397713 -0.570639,14.824025 0.225167,21.755388 6.024255,0.04411 12.008857,0.273273 18.372928,-1.268422 l 1.809,-3.914765 4.87469,2.461789 C 95.416865,89.046263 93.149479,81.67959 90.57276,76.849355"
       id="path8"
       sodipodi:nodetypes="cccccc" /><path
       style="fill:none;fill-opacity:0.524832;stroke:#000000;stroke-width:2.38125;stroke-linecap:round;stroke-linejoin:round;stroke-dasharray:none;stroke-opacity:1;paint-order:fill markers stroke"
       d="m 59.504842,90.865892 c 4.139736,-2.844537 10.223049,-3.214595 13.893623,-2.725245"
       id="path9"
       sodipodi:nodetypes="cc" /><path
       style="fill:none;fill-opacity:0.524832;stroke:#000000;stroke-width:2.38125;stroke-linecap:round;stroke-linejoin:round;stroke-dasharray:none;stroke-opacity:1;paint-order:fill markers stroke"
       d="m 90.508314,86.309014 c 2.641593,-2.213763 8.599639,-2.583389 13.044636,-1.340202"
       id="path10"
       sodipodi:nodetypes="cc" /><path
       style="fill:none;fill-opacity:0.261745;stroke:#000000;stroke-width:2.38125;stroke-linecap:round;stroke-linejoin:round;stroke-dasharray:none;stroke-opacity:1;paint-order:fill markers stroke"
       d="m 60.675628,126.04776 c 8.748643,7.69214 43.871602,11.35523 46.873622,-12.65382"
       id="path11"
       sodipodi:nodetypes="cc" /><path
       style="fill:none;fill-opacity:0.261745;stroke:#000000;stroke-width:2.38125;stroke-linecap:round;stroke-linejoin:round;stroke-dasharray:none;stroke-opacity:1;paint-order:fill markers stroke"
       d="m 109.82283,100.21869 c 0,0 -1.99945,0.19283 -2.53762,4.794 -0.13689,1.17035 1.72199,2.18941 2.0391,4.47586 0.16137,1.16349 -1.79277,2.77713 -1.65424,4.08853 0.0997,0.9438 2.23021,3.07564 2.31079,4.02899 0.0947,1.12082 -1.50751,2.43256 -1.30775,3.2799 1.04614,4.43738 2.14941,5.68163 2.14941,5.68163 l 3.67742,1.1425 c 0,0 1.29812,-1.93045 2.12902,-5.91927 0.20705,-0.994 -1.78784,-2.51582 -1.63783,-4.39358 0.0874,-1.09441 2.11377,-2.00739 2.31393,-3.20624 0.16409,-0.9828 -1.99092,-3.44538 -1.90506,-4.42251 0.11717,-1.33352 1.54589,-1.947 1.90485,-2.85088 0.71579,-1.80237 0.51197,-3.24406 0.51197,-3.24406"
       id="path12"
       sodipodi:nodetypes="csssssccsssssc" /><path
       style="color:#000000;fill:#614741;stroke-linecap:round;stroke-linejoin:round;-inkscape-stroke:none;paint-order:fill markers stroke"
       d="m 128.90653,97.790461 c 1.42529,-3.27552 1.34286,-5.381514 -0.32148,-7.138951 -4.1022,1.135768 -7.5778,7.107601 -10.57871,10.00368 -2.30611,-1.49583 -3.18521,-3.469917 -3.67184,-6.975793 6.32093,0.105771 7.16383,2.09085 14.57203,4.111064 z"
       id="path46" /><path
       style="color:#000000;fill:#ffd367;stroke-linecap:round;stroke-linejoin:round;-inkscape-stroke:none;paint-order:fill markers stroke"
       d="m 115.97272,131.84927 a 5.2193184,5.2193184 0 0 1 -5.21932,5.21932 5.2193184,5.2193184 0 0 1 -5.21932,-5.21932 5.2193184,5.2193184 0 0 1 5.21932,-5.21931 5.2193184,5.2193184 0 0 1 5.21932,5.21931 z"
       id="path41" /><circle
       style="fill:#f1a952;fill-opacity:1;stroke:none;stroke-width:3.25538;stroke-linecap:round;stroke-linejoin:round;stroke-dasharray:none;stroke-opacity:1;paint-order:fill markers stroke"
       id="path40"
       cx="108.97005"
       cy="132.61179"
       r="3.0986743" /><path
       style="color:#000000;fill:#000001;stroke-linecap:round;stroke-linejoin:round;-inkscape-stroke:none;paint-order:fill markers stroke"
       d="m 94.115234,15.677734 c -1.159715,0.256152 -2.268288,0.831971 -3.220703,1.740235 -1.90483,1.816527 -3.308265,4.745733 -4.345703,8.990234 -3.555487,14.546676 -6.152914,23.851366 -6.378906,31.228516 l -5.236328,0.373047 C 74.645262,50.741959 73.059597,46.526636 70.310547,41.638672 63.58332,29.67728 55.469476,21.984077 48.558594,19.705078 c -3.455441,-1.139499 -6.851831,-0.82381 -9.146485,1.396484 -2.294653,2.220295 -3.300173,5.941211 -3.037109,11.048829 0.915841,17.781839 0.04276,47.152568 -2.564453,67.625 -0.600028,0.553449 -1.772247,1.512619 -2.515625,3.337889 -0.810299,1.98959 -0.842737,4.87645 0.429687,9.00781 -1.746113,7.2218 -6.873532,15.45677 -8.3125,23.40625 -0.726975,4.01613 -0.43275,8.08995 1.958985,11.69336 2.331776,3.51308 6.555624,6.45763 13.236328,8.81836 l 1.755859,2.54297 c -1.384607,3.72225 -0.333638,7.78139 2.460938,10.73828 3.022778,3.19835 7.928323,5.24572 13.763672,4.86914 a 1.4553555,1.4553555 0 0 0 1.230468,-0.84961 c 1.292669,-2.84595 3.060036,-5.94098 2.859375,-10.24609 2.44078,0.44126 3.771007,-0.25202 4.603516,-0.42383 a 1.4553555,1.4553555 0 0 0 1.154297,-1.29883 c 0.332521,-3.79855 -2.614448,-7.73451 -8.328125,-9.42578 l -0.955078,-3 5.777343,-10.77929 c 3.134555,-1.94367 5.172177,-4.10318 8.058594,-5.01172 7.491022,2.06697 12.865437,0.73598 18.466797,0.47461 4.009039,1.99297 7.909575,5.03439 10.867192,7.31836 1.08813,3.05335 1.68344,6.20652 2.125,9.18554 a 1.4553555,1.4553555 0 0 0 1.92187,1.16016 c 2.82966,-0.99331 5.36622,-3.0324 7.46094,-5.3418 0.78519,0.93107 1.5392,1.63706 2.51172,1.875 0.70087,0.17148 1.60209,-0.0554 2.11328,-0.5293 0.51119,-0.47389 0.72042,-1.01749 0.86328,-1.54296 0.44981,-1.65445 0.23396,-3.45901 -0.17969,-5.02344 6.1737,-2.99474 9.55384,-7.79237 10.34766,-13.63281 0.80317,-5.90932 -0.75448,-12.76611 -3.55469,-20.21289 1.98815,-1.44743 2.97006,-4.00097 3.05078,-6.47852 0.0482,-1.480129 -0.20919,-2.970996 -0.89844,-4.267578 -0.54724,-1.029454 -1.49279,-1.830496 -2.625,-2.357422 -1.47978,-3.977806 -2.56299,-8.495203 -4.48242,-12.623047 a 1.4553555,1.4553555 0 0 0 -0.19922,-0.314453 l -1.67382,-2.023438 C 122.42412,64.264104 117.45728,43.404554 110.16797,29.625 106.45248,22.601317 102.25986,17.324675 97.640625,15.853516 96.485816,15.485726 95.27495,15.421583 94.115234,15.677734 Z m 0.619141,2.767578 c 0.617475,-0.134842 1.267648,-0.06102 2.023437,0.179688 3.023159,0.962832 7.286998,5.646836 10.837888,12.359375 7.1018,13.425077 11.78191,34.554716 6.54688,47.632812 a 1.4553555,1.4553555 0 0 0 0.23047,1.46875 l 2.01562,2.4375 c 1.77246,3.862341 2.85355,8.455585 4.50586,12.757813 a 1.4553555,1.4553555 0 0 0 1.00977,0.890625 c 0.74522,0.18369 1.22453,0.610036 1.60937,1.333984 0.38484,0.723949 0.59509,1.744558 0.56055,2.804691 -0.0691,2.12026 -1.14953,4.14483 -2.41602,4.63672 a 1.4553555,1.4553555 0 0 0 -0.83007,1.88476 c 2.98602,7.65883 4.505,14.50492 3.77539,19.87305 -0.72962,5.36812 -3.46926,9.33649 -9.6836,11.95508 a 1.4553555,1.4553555 0 0 0 -0.7832,1.88867 c 0.27228,0.66955 0.40955,2.69091 0.32226,3.83398 -0.29244,-0.23501 -0.53831,-0.324 -1.33593,-1.4375 a 1.4553555,1.4553555 0 0 0 -2.33594,-0.0371 c -1.52849,1.99201 -3.67163,3.6346 -5.82422,4.75977 -0.43941,-2.6087 -0.99213,-5.33672 -2.01758,-8.09961 a 1.4553555,1.4553555 0 0 0 -0.47461,-0.64649 c -3.01668,-2.32334 -7.346234,-5.82399 -12.039059,-8.08984 a 1.4553555,1.4553555 0 0 0 -0.6875,-0.14258 c -6.321497,0.23142 -11.195617,1.7215 -18.486329,-0.4375 a 1.4553555,1.4553555 0 0 0 -0.808593,-0.004 c -4.114879,1.15836 -6.391119,3.9147 -9.382813,5.68164 a 1.4553555,1.4553555 0 0 0 -0.541015,0.56445 l -6.230469,11.61914 a 1.4553555,1.4553555 0 0 0 -0.103516,1.12891 l 1.34961,4.23633 a 1.4553555,1.4553555 0 0 0 1.048828,0.9746 c 4.74171,1.13195 6.562583,3.60434 6.828125,5.75977 -0.800184,0.30314 -1.500673,0.47814 -3.808594,-0.40234 a 1.4553555,1.4553555 0 0 0 -1.943359,1.65625 c 0.87166,4.2092 -0.596923,6.65275 -2.103516,9.78906 -4.645288,0.0792 -8.395038,-1.57813 -10.623047,-3.93555 -2.366067,-2.50349 -3.078353,-5.56653 -1.693359,-8.36719 a 1.4553555,1.4553555 0 0 0 -0.107422,-1.4707 l -2.384766,-3.45703 a 1.4553555,1.4553555 0 0 0 -0.726562,-0.54883 c -6.623552,-2.26652 -10.327407,-4.99511 -12.232422,-7.86523 -1.905015,-2.87012 -2.164577,-6.00095 -1.519531,-9.56446 1.29009,-7.12701 6.488792,-15.45638 8.359375,-23.49999 a 1.4553555,1.4553555 0 0 0 -0.03711,-0.78711 c -1.359954,-4.09475 -1.129772,-6.26626 -0.607422,-7.54883 0.522351,-1.28257 1.388348,-1.79445 2.291016,-2.78321 l -0.423828,0.32032 a 1.4553555,1.4553555 0 0 0 0.792969,-1.11328 C 39.337318,79.873572 40.217056,50.169463 39.28125,32 c -0.239236,-4.644968 0.755734,-7.453398 2.154297,-8.806641 1.398563,-1.353242 3.389553,-1.655016 6.210937,-0.724609 5.64277,1.860814 13.637532,9.057143 20.126953,20.595703 2.862446,5.089587 4.261193,8.535005 4.34961,16.515625 a 1.4553555,1.4553555 0 0 0 1.558594,1.435547 l 7.945312,-0.566406 a 1.4553555,1.4553555 0 0 0 1.351563,-1.466797 c -0.06888,-6.80984 2.620435,-16.425757 6.398437,-31.882813 0.963338,-3.941334 2.268181,-6.377243 3.525391,-7.576172 0.628605,-0.599464 1.214556,-0.943282 1.832031,-1.078125 z"
       id="path79" /><path
       style="color:#000000;fill:#000000;stroke-linecap:round;stroke-linejoin:round;-inkscape-stroke:none;paint-order:fill markers stroke"
       d="m 110.75391,125.17383 c -3.669,0 -6.67578,3.00678 -6.67578,6.67578 0,3.669 3.00678,6.67383 6.67578,6.67383 3.669,0 6.67382,-3.00483 6.67382,-6.67383 0,-3.669 -3.00482,-6.67578 -6.67382,-6.67578 z m 0,2.91211 c 2.09609,0 3.76367,1.66758 3.76367,3.76367 0,2.09609 -1.66758,3.76367 -3.76367,3.76367 -2.0961,0 -3.76368,-1.66758 -3.76368,-3.76367 0,-2.09609 1.66758,-3.76367 3.76368,-3.76367 z"
       id="path42" /><circle
       style="fill:#000000;fill-opacity:1;stroke:none;stroke-width:4.2248;stroke-linecap:round;stroke-linejoin:round;stroke-dasharray:none;stroke-opacity:0.70604;paint-order:fill markers stroke"
       id="path14"
       cx="111.40923"
       cy="130.92018"
       r="1.2296823" /><path
       style="fill:none;fill-opacity:0.571812;stroke:#000000;stroke-width:1.85208;stroke-linecap:round;stroke-linejoin:round;stroke-dasharray:none;stroke-opacity:1;paint-order:fill markers stroke"
       d="m 111.32724,130.94751 c -2.40637,1.62154 -3.6662,3.48611 -4.2629,4.53616"
       id="path15"
       sodipodi:nodetypes="cc" /><path
       style="fill:none;fill-opacity:0.571812;stroke:#000000;stroke-width:2.91042;stroke-linecap:round;stroke-linejoin:round;stroke-dasharray:none;stroke-opacity:1;paint-order:fill markers stroke"
       d="m 107.00969,135.81158 c -3.20658,2.81381 -4.20824,6.70768 -3.77842,10.23121"
       id="path16"
       sodipodi:nodetypes="cc" /><path
       style="fill:none;fill-opacity:0.571812;stroke:#000000;stroke-width:2.91042;stroke-linecap:round;stroke-linejoin:round;stroke-dasharray:none;stroke-opacity:1;paint-order:fill markers stroke"
       d="m 113.95288,136.05855 c 1.4131,2.03941 1.66388,3.95459 2.05388,6.19783"
       id="path17"
       sodipodi:nodetypes="cc" /><path
       style="fill:none;fill-opacity:0.571812;stroke:#000000;stroke-width:2.91042;stroke-linecap:round;stroke-linejoin:round;stroke-dasharray:none;stroke-opacity:1;paint-order:fill markers stroke"
       d="m 60.303381,103.41575 c 6.739185,0.087 11.623912,1.10259 15.529533,2.45722 -5.758651,2.38657 -10.808311,5.85822 -13.576716,7.56199"
       id="path18"
       sodipodi:nodetypes="ccc" /><path
       style="color:#000000;fill:#252e33;stroke-linecap:round;stroke-linejoin:round;-inkscape-stroke:none;paint-order:fill markers stroke"
       d="m 104.23838,104.89519 a 7.2890491,7.2890491 0 0 1 -7.289047,7.28905 7.2890491,7.2890491 0 0 1 -7.289049,-7.28905 7.2890491,7.2890491 0 0 1 7.289049,-7.289052 7.2890491,7.2890491 0 0 1 7.289047,7.289052 z"
       id="path27" /><ellipse
       style="fill:#656d71;fill-opacity:1;stroke:none;stroke-width:2.91042;stroke-linecap:round;stroke-linejoin:round;stroke-dasharray:none;stroke-opacity:0.70604;paint-order:fill markers stroke"
       id="path21"
       cx="96.171227"
       cy="109.74265"
       rx="3.7195344"
       ry="3.3982244" /><path
       style="color:#000000;fill:#000000;stroke-width:0.983204;stroke-linecap:round;stroke-linejoin:round;-inkscape-stroke:none;paint-order:fill markers stroke"
       d="m 97.240493,96.150391 c -4.651786,0 -8.452867,3.932059 -8.452867,8.744139 0,4.81208 3.801081,8.74414 8.452867,8.74414 4.651787,0 8.452867,-3.93206 8.452867,-8.74414 0,-4.81208 -3.80108,-8.744139 -8.452867,-8.744139 z m 0,2.910156 c 3.131267,0 5.639647,2.594813 5.639647,5.833983 0,3.23917 -2.50838,5.83399 -5.639647,5.83399 -3.131275,0 -5.63965,-2.59482 -5.63965,-5.83399 0,-3.23917 2.508375,-5.833983 5.63965,-5.833983 z"
       id="path28" /><path
       style="fill:none;fill-opacity:0.571812;stroke:#000000;stroke-width:2.91042;stroke-linecap:round;stroke-linejoin:round;stroke-dasharray:none;stroke-opacity:1;paint-order:fill markers stroke"
       d="m 90.339567,101.66329 c 2.895822,-7.641534 14.523283,-8.005969 18.453583,-3.864394"
       id="path20"
       sodipodi:nodetypes="cc" /><path
       style="color:#000000;fill:#f18a83;stroke-linecap:round;stroke-linejoin:round;-inkscape-stroke:none;paint-order:fill markers stroke"
       d="m 88.553531,115.95459 c -1.064936,0.49856 -3.050518,1.12726 -5.251685,0.35157 -1.739174,1.11547 -3.549903,1.66691 -5.405502,1.80184 0.178521,3.6599 1.922782,14.39823 8.701537,3.16419"
       id="path29" /><path
       id="rect1-06"
       style="fill:#ffada5;fill-opacity:1;stroke:none;stroke-width:0.2;stroke-linecap:square;paint-order:fill markers stroke"
       d="m 77.946948,118.90584 c 0.602882,-1.19087 4.69203,-1.9752 7.617056,-2.75628 0.915934,1.92478 0.482501,3.79387 0.859401,6.12294 -1.143547,1.93937 -2.835457,3.46747 -5.64022,4.16093 -2.47352,-2.08472 -2.830791,-4.75729 -2.836237,-7.52759 z"
       sodipodi:nodetypes="ccccc" /><path
       style="color:#000000;fill:#000000;fill-opacity:0.998658;stroke-linecap:round;stroke-linejoin:round;-inkscape-stroke:none;paint-order:fill markers stroke"
       d="m 88.914062,114.95898 a 1.0583349,1.0583349 0 0 0 -0.808593,0.0371 c -0.916858,0.42924 -2.607244,0.9623 -4.451172,0.3125 a 1.0584408,1.0584408 0 0 0 -0.923828,0.10743 c -1.5916,1.02081 -3.212912,1.5133 -4.910157,1.63671 a 1.0584408,1.0584408 0 0 0 -0.980468,1.10743 c 0.09498,1.94717 0.433553,5.55081 2.085937,7.75 0.413096,0.54979 0.950014,1.03419 1.652344,1.26757 0.70233,0.23339 1.519099,0.15934 2.267578,-0.18554 1.496959,-0.68978 2.914611,-2.28428 4.658203,-5.17383 a 1.0583349,1.0583349 0 0 0 -0.359375,-1.45313 1.0583349,1.0583349 0 0 0 -1.453125,0.35938 c -1.645782,2.72746 -2.988277,4.00371 -3.730469,4.3457 -0.371095,0.171 -0.544504,0.15426 -0.714843,0.0977 -0.170339,-0.0566 -0.389141,-0.21019 -0.628907,-0.5293 -0.835433,-1.11189 -1.342397,-3.83775 -1.533203,-5.6914 1.513379,-0.24376 3.007499,-0.72458 4.441407,-1.58399 2.303219,0.59516 4.36252,0.0723 5.476562,-0.44922 a 1.0583349,1.0583349 0 0 0 0.509766,-1.4082 1.0583349,1.0583349 0 0 0 -0.597657,-0.54688 z"
       id="path30" /><path
       style="fill:none;fill-opacity:0.480537;stroke:#ffa598;stroke-width:1.5875;stroke-linecap:round;stroke-linejoin:round;stroke-dasharray:none;stroke-opacity:1;paint-order:fill markers stroke"
       d="m 65.071796,116.27329 1.443747,2.83594"
       id="path23" /><path
       style="fill:none;fill-opacity:0.480537;stroke:#ffa598;stroke-width:1.5875;stroke-linecap:round;stroke-linejoin:round;stroke-dasharray:none;stroke-opacity:1;paint-order:fill markers stroke"
       d="m 62.648361,116.32486 1.134374,2.78437"
       id="path24" /><path
       style="fill:none;fill-opacity:0.480537;stroke:#ffa598;stroke-width:1.5875;stroke-linecap:round;stroke-linejoin:round;stroke-dasharray:none;stroke-opacity:1;paint-order:fill markers stroke"
       d="m 101.21706,114.00455 0.98464,2.42343"
       id="path25"
       sodipodi:nodetypes="cc" /><path
       style="fill:none;fill-opacity:0.480537;stroke:#ffa598;stroke-width:1.5875;stroke-linecap:round;stroke-linejoin:round;stroke-dasharray:none;stroke-opacity:1;paint-order:fill markers stroke"
       d="m 103.69206,113.74674 0.97969,2.68124"
       id="path26"
       sodipodi:nodetypes="cc" /><ellipse
       style="fill:#151d23;fill-opacity:1;stroke:none;stroke-width:1.5875;stroke-linecap:round;stroke-linejoin:round;stroke-dasharray:none;stroke-opacity:1;paint-order:fill markers stroke"
       id="path32"
       cx="70.86068"
       cy="82.24044"
       rx="1.8863382"
       ry="2.6087654"
       transform="rotate(-1.5687481)" /><ellipse
       style="fill:#151d23;fill-opacity:1;stroke:none;stroke-width:1.5875;stroke-linecap:round;stroke-linejoin:round;stroke-dasharray:none;stroke-opacity:1;paint-order:fill markers stroke"
       id="path33"
       cx="59.33025"
       cy="95.315361"
       rx="2.6288328"
       ry="3.43153"
       transform="rotate(-12.708236)" /><ellipse
       style="fill:#151d23;fill-opacity:1;stroke:none;stroke-width:1.5875;stroke-linecap:round;stroke-linejoin:round;stroke-dasharray:none;stroke-opacity:1;paint-order:fill markers stroke"
       id="path34"
       cx="60.600082"
       cy="99.389885"
       rx="3.3913951"
       ry="4.1338897"
       transform="rotate(-15.926896)" /><path
       style="fill:none;fill-opacity:1;stroke:#fbfbfb;stroke-width:0.264583;stroke-linecap:round;stroke-linejoin:round;stroke-dasharray:none;stroke-opacity:1;paint-order:fill markers stroke"
       d="m 128.94215,93.927756 c -5.93467,-1.259762 -11.5816,1.88693 -14.33324,3.179694"
       id="path45"
       sodipodi:nodetypes="cc" /><path
       style="fill:none;fill-opacity:1;stroke:#fbfbfb;stroke-width:0.264583;stroke-linecap:round;stroke-linejoin:round;stroke-dasharray:none;stroke-opacity:1;paint-order:fill markers stroke"
       d="m 129.63034,95.608783 c -4.93283,-0.548068 -8.4824,-1.764711 -13.54883,3.109699"
       id="path45-8"
       sodipodi:nodetypes="cc" /><path
       style="color:#000000;fill:#000000;stroke-linecap:round;stroke-linejoin:round;-inkscape-stroke:none;paint-order:fill markers stroke"
       d="m 127.48333,89.544607 c -2.40965,0.667158 -4.3661,2.580272 -6.15039,4.601563 -0.14449,-0.05876 -0.40683,-0.142292 -0.55078,-0.199219 -1.9815,-0.783625 -3.97958,-1.357384 -7.25,-1.412109 a 1.0584392,1.0584392 0 0 0 -1.06445,1.203125 c 0.50305,3.62421 1.58283,6.058404 4.14258,7.718753 a 1.0584392,1.0584392 0 0 0 1.3125,-0.12695 c 1.32688,-1.28053 2.67518,-3.048147 4.05469,-4.703131 1.56928,0.651475 3.00823,1.327607 5.83203,2.097656 a 1.0584392,1.0584392 0 0 0 1.24804,-0.597656 c 0.74874,-1.720696 1.14497,-3.211637 1.08399,-4.607422 -0.061,-1.395785 -0.63613,-2.656011 -1.60742,-3.681641 a 1.0584392,1.0584392 0 0 0 -1.05079,-0.292969 z m -0.043,2.382813 c 0.33602,0.511932 0.55955,1.034907 0.58789,1.683594 0.0295,0.674867 -0.32447,1.694721 -0.67188,2.707031 -1.62048,-0.493552 -2.71496,-0.926719 -3.82031,-1.376953 1.30552,-1.39007 2.62744,-2.470968 3.9043,-3.013672 z m -12.52735,2.867187 c 1.99117,0.161285 3.48312,0.504856 4.93164,1.070313 -0.95162,1.154794 -1.88996,2.266357 -2.70703,3.146484 -1.15178,-0.969949 -1.82996,-2.30896 -2.22461,-4.216797 z"
       id="path47" /><path
       style="fill:none;fill-opacity:1;stroke:#000000;stroke-width:2.91042;stroke-linecap:round;stroke-linejoin:round;stroke-dasharray:none;stroke-opacity:1;paint-order:fill markers stroke"
       d="m 39.850744,154.67116 c 5.037465,-4.62776 8.866398,-5.60893 15.808272,-5.52346"
       id="path48"
       sodipodi:nodetypes="cc" /><path
       style="fill:none;fill-opacity:1;stroke:#000000;stroke-width:2.91042;stroke-linecap:round;stroke-linejoin:round;stroke-dasharray:none;stroke-opacity:1;paint-order:fill markers stroke"
       d="m 41.797001,157.95496 c 5.37258,-2.49649 9.789572,-3.91961 15.162152,-5.03661"
       id="path49"
       sodipodi:nodetypes="cc" /><path
       style="fill:none;fill-opacity:1;stroke:#000000;stroke-width:2.91042;stroke-linecap:round;stroke-linejoin:round;stroke-dasharray:none;stroke-opacity:1;paint-order:fill markers stroke"
       d="m 30.108951,154.38064 1.16514,2.43387 c -0.991139,1.08318 -1.23618,1.91645 -0.951544,3.04494 0.284636,1.1285 1.138261,2.22665 2.664323,2.53745"
       id="path50"
       sodipodi:nodetypes="cczc" /><path
       style="fill:none;fill-opacity:1;stroke:#000000;stroke-width:2.91042;stroke-linecap:round;stroke-linejoin:round;stroke-dasharray:none;stroke-opacity:1;paint-order:fill markers stroke"
       d="m 37.060619,166.15298 c 0.6654,1.95799 2.412014,3.34558 3.382123,4.38945"
       id="path51"
       sodipodi:nodetypes="cc" /><circle
       style="fill:#000000;fill-opacity:1;stroke:none;stroke-width:4.40973;stroke-linecap:round;stroke-linejoin:round;stroke-dasharray:none;stroke-opacity:1;paint-order:fill markers stroke"
       id="path52"
       cx="35.270576"
       cy="164.10968"
       r="1.3045133" /><path
       style="fill:#fafafd;fill-opacity:0.716779;stroke:none;stroke-width:2.91042;stroke-linecap:round;stroke-linejoin:round;stroke-dasharray:none;stroke-opacity:0.444295;paint-order:fill markers stroke"
       d="m 25.184207,165.06123 7.612356,5.01146"
       id="path53" /><path
       style="fill:none;fill-opacity:0.716779;stroke:#000000;stroke-width:2.91042;stroke-linecap:round;stroke-linejoin:round;stroke-dasharray:none;stroke-opacity:1;paint-order:fill markers stroke"
       d="m 25.383509,164.91364 c 4.335171,4.00368 6.331914,5.39474 9.98629,6.03853"
       id="path54"
       sodipodi:nodetypes="cc" /><path
       id="rect50-1"
       style="fill:#ffe8e0;fill-opacity:1;stroke-width:2.91042;stroke-linecap:round;stroke-linejoin:round;paint-order:fill markers stroke"
       d="m 70.994234,134.29579 c 5.658082,4.22843 15.165651,3.71615 19.297112,0.7252 -1.083935,5.06043 -0.788998,9.81062 -4.829815,15.53636 -2.667352,-0.39242 -5.361804,-0.47318 -8.188423,0.96598 -3.445641,-5.62979 -5.727543,-11.35656 -6.278874,-17.22754 z"
       sodipodi:nodetypes="ccccc" /><path
       id="rect68-1"
       style="fill:#e0b7aa;fill-opacity:1;stroke-width:2.91042;stroke-linecap:round;stroke-linejoin:round;paint-order:fill markers stroke"
       d="m 71.935135,136.56113 18.041746,-0.1052 c -2.64352,6.02332 -17.936543,4.40459 -17.936543,4.40459 z"
       sodipodi:nodetypes="cccc" /><path
       style="fill:none;fill-opacity:0.716779;stroke:#000000;stroke-width:2.91042;stroke-linecap:round;stroke-linejoin:round;stroke-dasharray:none;stroke-opacity:1;paint-order:fill markers stroke"
       d="m 77.428204,151.77407 c -2.971942,-5.9922 -6.314262,-11.88093 -6.717556,-18.08651 0.281717,4.91178 20.828291,4.8565 19.74139,-0.76387 0.21568,6.59794 -2.195671,12.95681 -5.318002,18.17227"
       id="path55"
       sodipodi:nodetypes="cccc" /><path
       style="fill:none;fill-opacity:0.716779;stroke:#000000;stroke-width:2.91042;stroke-linecap:round;stroke-linejoin:round;stroke-dasharray:none;stroke-opacity:1;paint-order:fill markers stroke"
       d="m 77.736437,160.46626 -7.890772,9.98675"
       id="path56" /><path
       id="rect68-60-6-7"
       style="fill:#ba3e38;fill-opacity:1;stroke-width:2.91042;stroke-linecap:round;stroke-linejoin:round;paint-order:fill markers stroke"
       d="m 88.594011,159.1176 10.090691,6.90593 -2.634219,4.07803 -9.19799,-9.33103 z"
       sodipodi:nodetypes="ccccc" /><path
       id="rect68-60-6"
       style="fill:#ba3e38;fill-opacity:1;stroke-width:2.91042;stroke-linecap:round;stroke-linejoin:round;paint-order:fill markers stroke"
       d="m 88.543016,155.5856 10.660251,2.70542 -1.139122,3.22369 -9.663519,-3.41737 z"
       sodipodi:nodetypes="ccccc" /><path
       style="fill:none;fill-opacity:0.716779;stroke:#000000;stroke-width:2.91042;stroke-linecap:round;stroke-linejoin:round;stroke-dasharray:none;stroke-opacity:1;paint-order:fill markers stroke"
       d="m 86.120385,160.21967 10.808261,10.67381"
       id="path57"
       sodipodi:nodetypes="cc" /><path
       style="fill:none;fill-opacity:0.716779;stroke:#000000;stroke-width:2.91042;stroke-linecap:round;stroke-linejoin:round;stroke-dasharray:none;stroke-opacity:1;paint-order:fill markers stroke"
       d="m 101.4704,139.44474 c 1.82715,7.22664 3.99695,14.25911 2.83575,23.17915"
       id="path58"
       sodipodi:nodetypes="cc" /><path
       style="fill:none;fill-opacity:0.716779;stroke:#000000;stroke-width:2.91042;stroke-linecap:round;stroke-linejoin:round;stroke-dasharray:none;stroke-opacity:1;paint-order:fill markers stroke"
       d="m 110.59411,163.61024 c 0.49658,-1.99354 1.88098,-3.153 3.55977,-3.41471 0.64932,-0.10123 1.9008,-0.70777 1.45642,-2.10693"
       id="path59"
       sodipodi:nodetypes="csc" /><path
       id="rect68-60"
       style="fill:#ba3e38;fill-opacity:1;stroke-width:2.91042;stroke-linecap:round;stroke-linejoin:round;paint-order:fill markers stroke"
       d="m 65.406608,158.3208 10.517861,-2.8478 0.42717,2.65413 -10.66025,4.91246 z"
       sodipodi:nodetypes="ccccc" /><path
       style="color:#000000;fill:#ffd367;stroke-linecap:round;stroke-linejoin:round;-inkscape-stroke:none;paint-order:fill markers stroke"
       d="m 87.807813,156.13647 a 5.8255358,5.8255358 0 0 1 -5.825536,5.82554 5.8255358,5.8255358 0 0 1 -5.825536,-5.82554 5.8255358,5.8255358 0 0 1 5.825536,-5.82553 5.8255358,5.8255358 0 0 1 5.825536,5.82553 z"
       id="path76" /><circle
       style="fill:#f1a952;fill-opacity:1;stroke:none;stroke-width:2.91042;stroke-linecap:round;stroke-linejoin:round;stroke-dasharray:none;stroke-opacity:0.997315;paint-order:fill markers stroke"
       id="path75"
       cx="80.889847"
       cy="157.23921"
       r="4.1950197" /><path
       style="color:#000000;fill:#000000;stroke-linecap:round;stroke-linejoin:round;-inkscape-stroke:none;paint-order:fill markers stroke"
       d="m 81.982422,148.85547 c -4.003805,0 -7.28125,3.27744 -7.28125,7.28125 0,4.0038 3.277445,7.28125 7.28125,7.28125 4.003804,0 7.28125,-3.27745 7.28125,-7.28125 0,-4.00381 -3.277446,-7.28125 -7.28125,-7.28125 z m 0,2.91015 c 2.430898,0 4.371094,1.9402 4.371094,4.3711 0,2.4309 -1.940196,4.36914 -4.371094,4.36914 -2.430898,0 -4.371094,-1.93824 -4.371094,-4.36914 0,-2.4309 1.940196,-4.3711 4.371094,-4.3711 z"
       id="path77" /><path
       style="fill:none;fill-opacity:0.716779;stroke:#000000;stroke-width:1.85208;stroke-linecap:round;stroke-linejoin:round;stroke-dasharray:none;stroke-opacity:1;paint-order:fill markers stroke"
       d="m 82.164327,156.01513 c 0.244521,1.78188 0.05589,4.80331 -0.788876,5.82553"
       id="path61"
       sodipodi:nodetypes="cc" /><circle
       style="fill:#000000;fill-opacity:1;stroke:none;stroke-width:1.85208;stroke-linecap:round;stroke-linejoin:round;stroke-dasharray:none;stroke-opacity:0.695302;paint-order:fill markers stroke"
       id="path62"
       cx="82.042961"
       cy="155.46898"
       r="1.5777494" /><path
       style="fill:none;fill-opacity:0.716779;stroke:#000000;stroke-width:2.91042;stroke-linecap:round;stroke-linejoin:round;stroke-dasharray:none;stroke-opacity:1;paint-order:fill markers stroke"
       d="m 76.144471,153.6943 c -3.860639,-0.22346 -7.691585,-0.63992 -11.881604,1.27759 l 1.405353,7.60167 c 3.641137,-0.91385 7.084866,-2.75506 10.726003,-4.65937"
       id="path63"
       sodipodi:nodetypes="cccc" /><path
       style="fill:none;fill-opacity:0.716779;stroke:#000000;stroke-width:2.91042;stroke-linecap:round;stroke-linejoin:round;stroke-dasharray:none;stroke-opacity:1;paint-order:fill markers stroke"
       d="m 86.940122,152.92774 c 7.25551,-0.6848 11.147587,0.13814 13.478598,1.66087 l -2.171909,6.64348 -10.284614,-3.19398"
       id="path64"
       sodipodi:nodetypes="cccc" /><path
       style="fill:none;fill-opacity:0.716779;stroke:#000000;stroke-width:2.91042;stroke-linecap:round;stroke-linejoin:round;stroke-dasharray:none;stroke-opacity:1;paint-order:fill markers stroke"
       d="m 98.182931,161.29597 2.044159,1.02207 -2.682958,8.62375"
       id="path65"
       sodipodi:nodetypes="ccc" /><path
       style="fill:none;fill-opacity:0.716779;stroke:#000000;stroke-width:2.91042;stroke-linecap:round;stroke-linejoin:round;stroke-dasharray:none;stroke-opacity:1;paint-order:fill markers stroke"
       d="m 66.179256,162.38192 -2.874583,2.04415 4.391331,6.47277"
       id="path66"
       sodipodi:nodetypes="ccc" /><circle
       style="fill:#000000;fill-opacity:1;stroke:none;stroke-width:2.61063;stroke-linecap:round;stroke-linejoin:round;stroke-dasharray:none;stroke-opacity:0.790604;paint-order:fill markers stroke"
       id="path67"
       cx="108.21811"
       cy="165.85588"
       r="1.2105325" /><path
       style="fill:none;fill-opacity:0.402685;stroke:#000000;stroke-width:2.91042;stroke-linecap:round;stroke-linejoin:round;stroke-dasharray:none;stroke-opacity:1;paint-order:fill markers stroke"
       d="m 58.815958,167.99527 5.472794,-1.40949"
       id="path68"
       sodipodi:nodetypes="cc" /><path
       style="color:#000000;fill:#ffd367;stroke-linecap:round;stroke-linejoin:round;-inkscape-stroke:none;paint-order:fill markers stroke"
       d="m 9.4955737,65.510722 c 1.9496913,-0.920973 5.9666363,3.40432 5.9666363,3.40432 0,0 4.861893,-2.072386 6.183387,-0.572149 1.321493,1.500236 -1.027703,5.712278 -1.027703,5.712278 0,0 3.51337,5.576901 1.935413,7.702554 -1.446073,1.947993 -7.270006,0.34531 -7.270006,0.34531 0,0 -3.631206,4.565792 -5.6663067,3.945043 -2.035101,-0.620749 -2.013694,-5.970936 -2.013694,-5.970936 0,0 -4.1351972,-1.903997 -4.0471793,-3.98378 0.088018,-2.079782 4.3332669,-4.229075 4.3332669,-4.229075 0,0 -0.3435051,-5.432593 1.6061858,-6.353565 z"
       id="path73" /><path
       id="rect72"
       style="fill:#f1a952;fill-opacity:1;stroke:none;stroke-width:2.91042;stroke-linecap:round;stroke-linejoin:round;stroke-opacity:0.997315;paint-order:fill markers stroke"
       d="M 7.6296833,72.303729 16.471559,81.929965 10.267985,86.065683 7.438869,80.465922 3.2087452,75.869003 Z"
       sodipodi:nodetypes="cccccc" /><path
       style="color:#000000;fill:#000000;stroke-linecap:round;stroke-linejoin:round;-inkscape-stroke:none;paint-order:fill markers stroke"
       d="M 10.427734,63.933594 C 9.9292355,63.885758 9.4048336,63.945036 8.875,64.195312 7.8730757,64.66859 7.3731217,65.55174 7.0605469,66.376953 c -0.3125749,0.825213 -0.4599347,1.688478 -0.546875,2.5 -0.1226083,1.144454 -0.070382,1.645662 -0.052734,2.171875 -0.4284877,0.23619 -0.7757227,0.388718 -1.5742188,0.982422 -1.1900378,0.884827 -2.7002522,1.993799 -2.7851562,4 -0.042755,1.010252 0.4083437,1.836563 0.9121094,2.46875 0.5037657,0.632187 1.1042506,1.129998 1.6835937,1.546875 0.7704196,0.554369 1.10329,0.68246 1.5273438,0.898437 0.01329,0.514367 -0.00705,1.020109 0.1894531,2.136719 0.1383896,0.786396 0.340077,1.619615 0.71875,2.404297 0.378673,0.784682 0.9931298,1.62754 2.0605469,1.953125 1.1004412,0.335658 2.0666722,-0.0336 2.8632812,-0.466797 0.796608,-0.433194 1.505574,-1.012267 2.138672,-1.591797 0.913869,-0.836545 1.258322,-1.294281 1.607421,-1.710937 0.542757,0.133556 1.129882,0.314261 2.433594,0.439453 0.894622,0.08591 1.859981,0.115559 2.808594,-0.04102 0.948612,-0.156575 1.980642,-0.504312 2.677734,-1.443359 0.730063,-0.983462 0.770389,-2.13424 0.636719,-3.15625 -0.13367,-1.02201 -0.466311,-2.011276 -0.835938,-2.912109 -0.574837,-1.40096 -1.02081,-2.082613 -1.300781,-2.548829 0.218317,-0.422267 0.450811,-0.80048 0.783203,-1.777343 0.236907,-0.696242 0.443899,-1.463293 0.490235,-2.279297 0.04633,-0.816004 -0.06284,-1.781337 -0.757813,-2.570313 -0.73276,-0.831871 -1.728914,-1.015027 -2.578125,-1.037109 -0.84921,-0.02208 -1.677696,0.123788 -2.441406,0.306641 -1.028426,0.246232 -1.409324,0.431039 -1.904297,0.623046 -0.395144,-0.402198 -0.75017,-0.811271 -1.71289,-1.55664 -0.682353,-0.5283 -1.441834,-1.045525 -2.283204,-1.402344 -0.420684,-0.178409 -0.892126,-0.333024 -1.390625,-0.380859 z m -0.310546,2.892578 c -0.08482,0.04007 0.104295,-0.02718 0.564453,0.167969 0.460157,0.195149 1.071125,0.585536 1.636718,1.023437 1.131188,0.875802 2.078125,1.888672 2.078125,1.888672 a 1.4553555,1.4553555 0 0 0 1.636719,0.347656 c 0,0 1.129384,-0.476056 2.363281,-0.771484 0.616949,-0.147714 1.253437,-0.239803 1.6875,-0.228516 0.434064,0.01129 0.540764,0.132536 0.46875,0.05078 -0.03423,-0.03886 0.05958,0.08477 0.03711,0.480469 -0.02247,0.395695 -0.154639,0.963515 -0.339844,1.507813 -0.370411,1.088594 -0.902344,2.052734 -0.902344,2.052734 a 1.4553555,1.4553555 0 0 0 0.03906,1.484375 c 0,0 0.820419,1.313837 1.443359,2.832031 0.31147,0.759097 0.563245,1.562096 0.644531,2.183594 0.08129,0.621498 -0.03093,0.965558 -0.08984,1.044922 -0.02594,0.03495 -0.264372,0.215846 -0.814454,0.306641 -0.550081,0.09079 -1.312568,0.08689 -2.054687,0.01563 -1.484238,-0.142527 -2.845703,-0.513672 -2.845703,-0.513672 a 1.4553555,1.4553555 0 0 0 -1.525391,0.498047 c 0,0 -0.855881,1.068463 -1.914062,2.037109 -0.529091,0.484323 -1.10784,0.933335 -1.564453,1.181641 -0.456614,0.248305 -0.7078931,0.21495 -0.625,0.240234 0.04987,0.01521 -0.097425,-0.04248 -0.2871097,-0.435547 C 9.5642215,83.827641 9.3899429,83.206868 9.2792969,82.578125 9.0580049,81.320639 9.0585937,80.082031 9.0585938,80.082031 A 1.4553555,1.4553555 0 0 0 8.2128906,78.755859 c 0,0 -0.9295004,-0.434076 -1.8164062,-1.072265 C 5.9530314,77.364499 5.5358905,76.995297 5.2890625,76.685547 5.0422345,76.375797 5.0085113,76.183936 5.0097656,76.154297 5.0128795,76.080718 5.670411,75.076951 6.625,74.367187 7.579589,73.657424 8.546875,73.162109 8.546875,73.162109 a 1.4553555,1.4553555 0 0 0 0.7949219,-1.390625 c 0,0 -0.075383,-1.260491 0.066406,-2.583984 0.070895,-0.661747 0.203632,-1.326877 0.375,-1.779297 0.1713681,-0.45242 0.3610641,-0.594823 0.3339851,-0.582031 z"
       id="path74" /><path
       style="fill:#47332e;fill-opacity:1;stroke:#000000;stroke-width:2.91042;stroke-linecap:round;stroke-linejoin:round;stroke-dasharray:none;stroke-opacity:1;paint-order:fill markers stroke"
       d="m 57.649558,144.69623 1.821059,8.79312"
       id="path71"
       sodipodi:nodetypes="cc" /></g></svg>
