<?xml version="1.0" encoding="UTF-8" standalone="no"?>
<!-- Created with Inkscape (http://www.inkscape.org/) -->

<svg
   width="512"
   height="512"
   viewBox="0 0 135.46666 135.46667"
   version="1.1"
   id="svg1"
   xml:space="preserve"
   inkscape:version="1.4.1 (unknown)"
   sodipodi:docname="aosc-14.svg"
   xmlns:inkscape="http://www.inkscape.org/namespaces/inkscape"
   xmlns:sodipodi="http://sodipodi.sourceforge.net/DTD/sodipodi-0.dtd"
   xmlns="http://www.w3.org/2000/svg"
   xmlns:svg="http://www.w3.org/2000/svg"><sodipodi:namedview
     id="namedview1"
     pagecolor="#505050"
     bordercolor="#ffffff"
     borderopacity="1"
     inkscape:showpageshadow="0"
     inkscape:pageopacity="0"
     inkscape:pagecheckerboard="1"
     inkscape:deskcolor="#d1d1d1"
     inkscape:document-units="px"
     inkscape:zoom="7.3432425"
     inkscape:cx="195.34967"
     inkscape:cy="151.29556"
     inkscape:window-width="1611"
     inkscape:window-height="1080"
     inkscape:window-x="0"
     inkscape:window-y="0"
     inkscape:window-maximized="0"
     inkscape:current-layer="g78" /><defs
     id="defs1" /><g
     inkscape:label="Layer 1"
     inkscape:groupmode="layer"
     id="layer1"><g
       id="g77"><path
         style="baseline-shift:baseline;display:inline;overflow:visible;vector-effect:none;fill:#714433;fill-opacity:1;stroke-linecap:round;stroke-linejoin:round;paint-order:fill markers stroke;enable-background:accumulate;stop-color:#000000"
         d="m 112.17069,109.02547 a 9.5922146,6.4811082 21.291475 0 1 6.58412,9.5218 9.5922146,6.4811082 21.291475 0 1 -11.29087,2.55569 9.5922146,6.4811082 21.291475 0 1 -6.58413,-9.5218 9.5922146,6.4811082 21.291475 0 1 11.29088,-2.55569 z"
         id="path73" /><circle
         style="fill:#000000;fill-opacity:1;stroke:none;stroke-width:2.11667;stroke-linecap:round;stroke-linejoin:round;stroke-dasharray:none;stroke-opacity:1;paint-order:fill markers stroke"
         id="path70"
         cx="105.4843"
         cy="111.2585"
         r="0.81363851" /><circle
         style="fill:#000000;fill-opacity:1;stroke:none;stroke-width:2.11667;stroke-linecap:round;stroke-linejoin:round;stroke-dasharray:none;stroke-opacity:1;paint-order:fill markers stroke"
         id="path70-9"
         cx="104.15862"
         cy="112.84798"
         r="0.81363851" /><path
         style="fill:none;fill-opacity:0.438131;stroke:#4d2d21;stroke-width:0.79375;stroke-linecap:round;stroke-linejoin:round;stroke-dasharray:none;stroke-opacity:1;paint-order:fill markers stroke"
         d="m 107.40028,113.01702 c 3.99978,1.06107 7.77347,3.02647 11.49593,5.19678"
         id="path72"
         sodipodi:nodetypes="cc" /><path
         id="rect53-4-159"
         style="fill:#47291f;fill-opacity:1;stroke-width:0.79375;stroke-linecap:round;stroke-linejoin:round;paint-order:markers stroke fill"
         d="m 102.21569,109.91994 c -0.90267,6.52466 18.16451,13.94198 13.92901,2.03139 13.03525,9.94596 -19.989317,16.71166 -13.92901,-2.03139 z"
         sodipodi:nodetypes="ccc" /><path
         style="baseline-shift:baseline;display:inline;overflow:visible;vector-effect:none;fill:#000000;fill-opacity:1;stroke-linecap:round;stroke-linejoin:round;paint-order:fill markers stroke;enable-background:accumulate;stop-color:#000000"
         d="m 99.894495,111.19663 c -0.803558,2.06193 -0.264622,4.34904 1.068905,6.27754 1.33351,1.9285 3.46896,3.58226 6.11703,4.61424 2.64805,1.03198 5.3394,1.25929 7.62621,0.74167 2.2868,-0.51762 4.23121,-1.83694 5.03476,-3.89886 0.80356,-2.06193 0.26392,-4.34722 -1.0696,-6.27572 -1.33352,-1.92851 -3.46826,-3.58408 -6.11632,-4.61606 -2.64806,-1.03198 -5.34012,-1.25747 -7.62692,-0.73985 -2.28681,0.51761 -4.23051,1.83512 -5.034065,3.89704 z m 1.970865,0.76807 c 0.49617,-1.27318 1.72945,-2.19378 3.52914,-2.60114 1.79968,-0.40736 4.10422,-0.2431 6.39221,0.64856 2.28797,0.89165 4.09413,2.32938 5.1436,3.84708 1.04946,1.51771 1.33459,3.03006 0.83841,4.30324 -0.49617,1.27318 -1.73016,2.1956 -3.52984,2.60296 -1.79969,0.40736 -4.10241,0.2438 -6.39039,-0.64785 -2.28798,-0.89165 -4.09596,-2.33009 -5.14542,-3.84779 -1.04946,-1.51771 -1.33388,-3.03188 -0.83771,-4.30506 z"
         id="path74" /><path
         style="fill:#9ba9be;fill-opacity:0.438131;stroke:#000000;stroke-width:2.11667;stroke-linecap:round;stroke-linejoin:round;stroke-dasharray:none;stroke-opacity:1;paint-order:fill markers stroke"
         d="m 103.14837,118.79123 -2.88711,2.25718"
         id="path62"
         sodipodi:nodetypes="cc" /><path
         style="fill:#9ba9be;fill-opacity:0.438131;stroke:#000000;stroke-width:2.11667;stroke-linecap:round;stroke-linejoin:round;stroke-dasharray:none;stroke-opacity:1;paint-order:fill markers stroke"
         d="m 105.93048,120.4185 -1.99472,2.9396"
         id="path63" /><path
         style="fill:#9ba9be;fill-opacity:0.438131;stroke:#000000;stroke-width:2.11667;stroke-linecap:round;stroke-linejoin:round;stroke-dasharray:none;stroke-opacity:1;paint-order:fill markers stroke"
         d="m 109.02756,121.67833 -0.0525,3.14957"
         id="path64"
         sodipodi:nodetypes="cc" /><path
         style="fill:#9ba9be;fill-opacity:0.438131;stroke:#000000;stroke-width:2.11667;stroke-linecap:round;stroke-linejoin:round;stroke-dasharray:none;stroke-opacity:1;paint-order:fill markers stroke"
         d="m 110.9173,107.71524 0.0525,-3.35954"
         id="path65"
         sodipodi:nodetypes="cc" /><path
         style="fill:#9ba9be;fill-opacity:0.438131;stroke:#000000;stroke-width:2.11667;stroke-linecap:round;stroke-linejoin:round;stroke-dasharray:none;stroke-opacity:1;paint-order:fill markers stroke"
         d="m 113.80441,109.18504 2.09971,-2.62464"
         id="path66"
         sodipodi:nodetypes="cc" /><path
         style="fill:#9ba9be;fill-opacity:0.438131;stroke:#000000;stroke-width:2.11667;stroke-linecap:round;stroke-linejoin:round;stroke-dasharray:none;stroke-opacity:1;paint-order:fill markers stroke"
         d="m 115.90412,111.02229 3.98945,-1.31232"
         id="path67"
         sodipodi:nodetypes="cc" /><path
         style="fill:#9ba9be;fill-opacity:0.438131;stroke:#000000;stroke-width:2.11667;stroke-linecap:round;stroke-linejoin:round;stroke-dasharray:none;stroke-opacity:1;paint-order:fill markers stroke"
         d="m 103.14836,108.81759 c -1.18419,-1.78475 -1.89646,-3.04458 -1.99473,-4.56687"
         id="path68"
         sodipodi:nodetypes="cc" /><path
         style="fill:#9ba9be;fill-opacity:0.438131;stroke:#000000;stroke-width:2.11667;stroke-linecap:round;stroke-linejoin:round;stroke-dasharray:none;stroke-opacity:1;paint-order:fill markers stroke"
         d="m 100.94367,110.96979 c -2.043856,-0.43141 -3.389247,-0.54041 -5.196789,-0.47243"
         id="path69"
         sodipodi:nodetypes="cc" /><path
         style="fill:none;fill-opacity:0.438131;stroke:#000000;stroke-width:2.11667;stroke-linecap:round;stroke-linejoin:round;stroke-dasharray:none;stroke-opacity:1;paint-order:fill markers stroke"
         d="m 111.91466,109.13255 c -3.90416,3.11457 -6.12932,5.96668 -8.13638,9.08125"
         id="path71"
         sodipodi:nodetypes="cc" /><path
         style="fill:none;fill-opacity:0.482353;stroke:#010101;stroke-width:1.05833332;stroke-linecap:round;stroke-linejoin:round;stroke-dasharray:none;stroke-opacity:1;paint-order:fill markers stroke"
         d="m 99.880654,99.705963 c 1.700516,-0.211427 3.395816,-0.368149 4.978746,0.655097"
         id="path75"
         sodipodi:nodetypes="cc" /><path
         style="fill:none;fill-opacity:1;stroke:#010101;stroke-width:1.05833;stroke-linecap:round;stroke-linejoin:round;stroke-dasharray:none;stroke-opacity:1;paint-order:fill markers stroke"
         d="m 99.066772,102.34753 c 1.240188,-0.88941 2.728788,-0.96468 4.143688,-0.32557"
         id="path76"
         sodipodi:nodetypes="cc" /><path
         style="fill:none;fill-opacity:0.481438;stroke:#010101;stroke-width:1.32291665;stroke-linecap:round;stroke-linejoin:round;stroke-dasharray:none;stroke-opacity:1;paint-order:fill markers stroke"
         d="m 121.9793,121.01849 c 0,0 1.41004,-1.30236 2.32571,-0.92088 0.91567,0.38148 0.17597,1.40999 1.21297,1.95599 1.037,0.546 1.69479,-0.49488 2.80928,0.0722 1.11449,0.56703 0.37927,1.34681 1.11042,1.92382 0.73116,0.577 1.16314,0.0814 1.70509,0.37278 0.54194,0.29133 0.074,0.58514 0.73875,1.10593 0.66478,0.52078 1.47598,0.29219 1.47598,0.29219"
         id="path77"
         sodipodi:nodetypes="czzzzzzc" /></g><g
       id="g78"><path
         id="rect53-4-9"
         style="fill:#252e33;fill-opacity:1;stroke-width:0.79375;stroke-linecap:round;stroke-linejoin:round;paint-order:markers stroke fill"
         d="m 82.76859,5.1929646 c -0.460887,-0.0088 -0.971301,0.010129 -1.53479,0.059428 -9.2694,0.8109682 -40.918566,3.2651907 -50.33026,20.1114334 -4.014388,0.871413 -8.498027,0.785646 -9.840226,9.227861 l -4.1429,0.077 -0.896586,5.540747 -4.369759,0.514698 c -1.344875,7.920888 0.908065,15.623055 6.791833,22.292179 -8.8395962,7.947629 -8.4505416,12.594608 -5.452897,20.574971 l -0.100769,3.692798 c -5.4241036,1.990782 -7.2544889,5.116075 -9.1400103,8.224304 l 5.3950195,0.426331 c 0.032891,4.477725 0.083652,8.955545 3.6623088,13.433285 2.189186,-0.49761 4.192936,-1.36619 6.195487,-2.23707 0.391323,0.53682 1.498559,0.72086 1.3224,1.85208 0.407267,0.37986 0.945954,0.87764 1.707906,1.58233 -0.237504,1.18796 -0.461987,2.7895 -0.461987,2.7895 1.654154,1.51647 3.999789,2.57862 8.118884,2.52542 l 0.682646,1.97766 c 3.911746,0.38238 4.941928,-2.37893 7.315832,-3.67419 2.277841,1.44495 5.108021,2.56082 8.478036,3.22564 L 46.3026,112.07998 C 33.967051,104.15224 38.003369,85.310319 44.617431,81.44154 52.171184,77.023105 65.162569,75.901847 75.944717,79.545014 99.14477,78.509806 109.76744,53.225624 110.12868,44.607096 l -2.32544,-0.645956 0.14004,-11.552266 c 3.52727,-3.300914 7.94668,-9.513145 6.0818,-12.981636 C 112.1602,15.958747 95.542619,14.158231 83.900821,14.169161 85.507456,11.659378 89.681895,5.3249987 82.76859,5.1929646 Z m -58.255358,83.3292794 8.287349,0.586011 -0.636653,3.403926 -2.462899,0.466122 -1.276925,2.417423 -3.012735,0.298173 z" /><path
         id="rect53-4-22"
         style="fill:#151d23;fill-opacity:1;stroke-width:0.79375;stroke-linecap:round;stroke-linejoin:round;paint-order:markers stroke fill"
         d="m 36.740227,42.857784 c 0,0 2.214378,0.265863 4.074618,-0.529344 1.86024,-0.795208 1.24097,-3.30418 3.178836,-4.05953 1.937866,-0.75535 4.116736,-0.08874 4.116736,-0.08874 l -1.023387,3.090231 -2.298507,0.919664 -2.178638,3.357369 c 2.323918,8.014769 2.468193,15.052457 1.449948,21.569015 -4.053604,-7.646112 -5.759447,-15.932522 -7.319606,-24.258665 z"
         sodipodi:nodetypes="czzcccccc" /><path
         id="rect53-4-68"
         style="fill:#151d23;fill-opacity:1;stroke-width:0.79375;stroke-linecap:round;stroke-linejoin:round;paint-order:markers stroke fill"
         d="m 57.619159,38.887137 c 0,0 2.768065,-0.122108 3.282554,-0.576976 0.514489,-0.454867 0.591617,-1.944503 0.615505,-2.35642 0.117149,-2.020043 0.708526,-1.965177 0.854442,-0.04025 0.03063,0.404072 0.238254,1.814104 0.474668,2.323188 0.236414,0.509084 9.374513,-1.517506 14.459999,-3.419196 -0.259423,2.861136 -0.299811,5.800498 -1.585149,8.295235 -1.021135,-0.400019 -1.742359,-1.062327 -2.314601,-2.135687 -0.301586,1.048468 -0.884872,1.850448 -1.801994,2.360323 -5.2101,0.115266 -9.796284,-0.445378 -14.085662,-1.327561 z"
         sodipodi:nodetypes="czsszcccccc" /><path
         id="rect53-4-2"
         style="fill:#151d23;fill-opacity:1;stroke-width:0.79375;stroke-linecap:round;stroke-linejoin:round;paint-order:markers stroke fill"
         d="M 31.378558,26.168396 C 33.683803,21.555348 37.90001,15.514305 46.65725,12.565814 27.064847,24.013481 68.608448,29.564673 83.155266,15.987188 71.410202,27.525099 58.509238,39.349341 42.000428,33.596619 l -0.684838,1.782532 -3.27042,1.348607 C 37.023235,32.269867 37.330073,27.956357 31.378558,26.168396 Z"
         sodipodi:nodetypes="ccccccc" /><path
         id="rect53-4-4"
         style="fill:#151d23;fill-opacity:1;stroke-width:0.79375;stroke-linecap:round;stroke-linejoin:round;paint-order:markers stroke fill"
         d="m 83.558961,14.356668 3.327117,0.476163 c 0,0 -2.554912,4.548837 -1.782962,5.286959 0.771951,0.738122 12.734694,0.02853 12.734694,0.02853 l -11.609325,3.941373 -5.288416,-4.988929 z"
         sodipodi:nodetypes="cczcccc" /><path
         id="rect53-4-49"
         style="fill:#151d23;fill-opacity:1;stroke-width:0.79375;stroke-linecap:round;stroke-linejoin:round;paint-order:markers stroke fill"
         d="m 79.71942,33.101462 c 0,0 2.251114,-1.110708 3.399557,-1.616046 1.793841,-0.789326 1.743621,-0.195026 0.508377,1.332241 -0.629415,0.778213 -2.063149,3.261476 -2.063149,3.261476 0,0 2.840353,0.02129 4.262823,0.01953 1.253871,-0.0015 0.605753,0.395016 -0.241846,1.607137 -0.337937,0.483271 -1.056437,0.950468 -0.802344,1.456973 0.254094,0.506506 3.262753,1.673013 3.703148,2.569928 0.440396,0.896915 -0.364196,2.188347 0.02783,2.838383 0.392025,0.650037 2.051537,1.076192 3.462874,1.767668 1.411337,0.691476 4.361918,2.787322 4.361918,2.787322 l 0.285895,2.28873 -3.430301,0.968311 -2.970483,-3.334664 -3.269257,-0.724798 -1.365248,-5.26877 -1.859581,-1.537249 -0.53871,-2.572722 -2.758247,-2.743181 z"
         sodipodi:nodetypes="csscsszzzzcccccccccc" /><path
         id="rect53-4-7"
         style="fill:#151d23;fill-opacity:1;stroke-width:0.79375;stroke-linecap:round;stroke-linejoin:round;paint-order:markers stroke fill"
         d="m 86.857765,48.718991 3.292319,0.594573 c -0.801146,6.930105 -3.331207,14.171207 -9.453723,20.721982 -2.8766,-0.655451 -6.443675,-0.923441 -9.178601,-2.853955 16.89296,-5.114671 15.359017,-12.71282 15.340005,-18.4626 z"
         sodipodi:nodetypes="ccccc" /><path
         id="rect53-4-6"
         style="fill:#ffffff;fill-opacity:1;stroke-width:0.79375;stroke-linecap:round;stroke-linejoin:round;paint-order:markers stroke fill"
         d="m 86.967669,24.447572 c 6.027014,-2.193549 12.16385,-3.911198 18.537231,-4.603822 6.2933,-0.970162 6.08542,3.003009 1.99713,8.320149 -2.82402,3.67285 -7.31788,8.145929 -13.541763,11.424459 C 93.263357,34.014 90.124546,28.770231 86.967669,24.447572 Z"
         sodipodi:nodetypes="ccscc" /><g
         id="g54"><path
           style="baseline-shift:baseline;display:inline;overflow:visible;opacity:1;vector-effect:none;fill:#e7524b;fill-opacity:1;stroke-linecap:round;stroke-linejoin:round;paint-order:markers stroke fill;enable-background:accumulate;stop-color:#000000;stop-opacity:1"
           d="M 99.503906,23.455078 C 94.328487,23.812095 88.507812,25.4375 88.507812,25.4375 a 0.79374999,0.79374999 0 0 0 -0.552734,0.978516 0.79374999,0.79374999 0 0 0 0.978516,0.550781 c 0,0 5.755592,-1.588055 10.679687,-1.927735 1.216169,-0.08389 2.084609,-0.02485 2.570309,0.105469 0.4857,0.130322 0.48458,0.206239 0.5,0.277344 0.0154,0.0711 -0.027,0.429798 -0.36132,0.976562 -0.33436,0.546765 -0.90569,1.249769 -1.66407,2.052735 -2.911966,3.083202 -8.124997,4.99414 -8.124997,4.99414 a 0.79374999,0.79374999 0 0 0 -0.482422,1.013672 0.79374999,0.79374999 0 0 0 1.013672,0.480469 c 0,0 5.425422,-1.880432 8.748047,-5.398437 0.80028,-0.847337 1.43063,-1.606939 1.86328,-2.314454 0.43266,-0.707514 0.72259,-1.393537 0.56055,-2.140625 -0.16204,-0.747087 -0.85157,-1.26289 -1.64063,-1.474609 -0.78905,-0.211718 -1.78308,-0.246529 -3.091794,-0.15625 z"
           id="path53" /><path
           style="baseline-shift:baseline;display:inline;overflow:visible;opacity:1;vector-effect:none;fill:#4b87db;fill-opacity:1;stroke-linecap:round;stroke-linejoin:round;paint-order:markers stroke fill;enable-background:accumulate;stop-color:#000000;stop-opacity:1"
           d="m 99.503906,23.455078 c -2.338137,0.161292 -4.807974,0.581466 -6.813292,0.993688 l 1.883304,1.255917 c 1.604162,-0.291691 3.369571,-0.550433 5.039363,-0.665621 1.216169,-0.0839 2.084609,-0.02485 2.570309,0.105469 0.4857,0.130322 0.48458,0.20624 0.5,0.277344 0.0154,0.0711 -0.027,0.429798 -0.36132,0.976562 -0.33436,0.546765 -0.90569,1.249769 -1.66407,2.052735 -0.973994,1.031268 -2.205423,1.931388 -3.413106,2.672716 0,0 -0.881534,2.324275 -0.936609,2.375704 1.750423,-0.90877 3.878775,-2.23777 5.504015,-3.958576 0.80028,-0.847338 1.43063,-1.606939 1.86328,-2.314454 0.43266,-0.707514 0.72259,-1.393537 0.56055,-2.140625 -0.16204,-0.747087 -0.85157,-1.26289 -1.64063,-1.474609 -0.78905,-0.211718 -1.78308,-0.246529 -3.091794,-0.15625 z"
           id="path53-5"
           sodipodi:nodetypes="sccsssccccsssss" /></g><path
         id="rect53-4-1"
         style="fill:#3f546b;fill-opacity:0.430257;stroke-width:0.79375;stroke-linecap:round;stroke-linejoin:round;paint-order:markers stroke fill"
         d="m 86.937633,23.703437 18.200097,-2.956992 c 2.41975,-0.153826 3.91975,0.01525 1.15689,1.632425 -5.12124,2.997585 -15.671217,8.066196 -15.671217,8.066196 z"
         sodipodi:nodetypes="ccscc" /><path
         id="rect53-4-73"
         style="fill:#3b484f;fill-opacity:1;stroke-width:0.79375;stroke-linecap:round;stroke-linejoin:round;paint-order:markers stroke fill"
         d="m 11.517867,40.537816 7.528446,-0.0311 2.627149,5.102684 3.230039,-4.297742 12.872561,2.633603 c 2.795056,10.318643 3.707519,30.285577 10.422758,20.513283 7.334549,2.075223 14.28055,3.114321 20.813366,3.051588 5.130632,1.560717 10.347812,3.467629 14.966548,2.980765 4.914614,-5.94615 6.688077,-12.206415 9.066238,-18.406209 l 3.518181,-0.806577 -0.238754,-5.365856 -1.51391,-3.594078 4.02427,0.658236 2.094551,3.738897 3.97399,-3.285506 5.8204,1.137621 c -3.43402,10.812654 -8.15582,30.115238 -34.155995,35.666523 L 48.172435,96.94246 46.284312,117.16073 C 21.803226,110.3115 35.188903,85.603474 36.672793,78.640978 12.571722,68.080078 9.7399608,44.620644 11.517867,40.537816 Z"
         sodipodi:nodetypes="ccccccccccccccccccccc" /><g
         id="g60"><path
           id="rect53-4-626"
           style="fill:#3479d8;fill-opacity:1;stroke-width:0.79375;stroke-linecap:round;stroke-linejoin:round;paint-order:markers stroke fill"
           d="m 14.016845,83.37028 11.138078,4.542729 -1.26187,2.650721 -11.074984,-4.353449 z"
           sodipodi:nodetypes="ccccc" /><path
           id="rect53-4-626-8"
           style="fill:#e34f48;fill-opacity:1;stroke-width:0.79375;stroke-linecap:round;stroke-linejoin:round;paint-order:markers stroke fill"
           d="m 14.016845,83.37028 6.304328,2.571256 -1.285748,2.712716 -6.217356,-2.443971 z"
           sodipodi:nodetypes="ccccc" /></g><path
         id="rect53-4-15"
         style="fill:#0a0c0f;fill-opacity:0.540493;stroke-width:0.79375;stroke-linecap:round;stroke-linejoin:round;paint-order:markers stroke fill"
         d="m 22.167177,68.388586 c 4.399234,3.963512 8.180812,8.338796 14.531913,11.001063 l -3.118412,9.272961 -8.041232,0.28227 -0.975202,2.272674 c 1.111506,2.593709 1.899565,7.945552 0.312817,10.627336 -2.328356,3.9352 -12.065119,7.78038 -12.065119,7.78038 -1.162999,-7.77344 0.824672,-14.671699 3.792346,-21.297731 l 1.364525,-4.121812 c -4.007771,-10.215144 1.53768,-12.070993 4.198364,-15.817141 z"
         sodipodi:nodetypes="cccccscccc" /><path
         style="fill:none;fill-opacity:0.505882;stroke:#357ad7;stroke-width:1.5875;stroke-linecap:round;stroke-linejoin:round;stroke-dasharray:none;stroke-opacity:1;paint-order:markers stroke fill"
         d="m 11.862574,41.970442 5.780815,-0.596068 c 0.03865,2.048524 0.347387,3.284196 2.466445,5.057056 0.754415,0.631165 5.079632,2.346749 4.252336,4.172535 -0.827295,1.825785 -2.441223,1.373028 -3.486386,0.0093 -0.681928,-0.889779 1.63011,-2.972521 3.143212,-4.920034 0.805967,-1.03736 0.66387,-1.093004 1.319176,-2.998326 3.231202,0.08979 6.977746,0.870061 11.794222,2.862179"
         id="path56"
         sodipodi:nodetypes="ccszsscc" /><path
         style="fill:none;fill-opacity:0.505882;stroke:#357ad7;stroke-width:1.5875;stroke-linecap:round;stroke-linejoin:round;stroke-dasharray:none;stroke-opacity:1;paint-order:markers stroke fill"
         d="m 94.771622,43.720066 2.567343,-0.02714 2.276425,5.054657 c 0,0 2.75905,2.000305 1.35849,3.001198 -1.400557,1.000893 -1.513957,0.533521 -2.354889,-0.546507 -0.744299,-0.955917 1.00438,-1.831552 1.943169,-2.340368 2.1063,-1.141596 3.60149,-2.977888 4.21961,-4.380647 l 5.21168,1.098814"
         id="path57"
         sodipodi:nodetypes="ccczsscc" /><path
         id="rect53-4-3"
         style="fill:#1f2830;fill-opacity:0.529412;stroke-width:0.79375;stroke-linecap:round;stroke-linejoin:round;paint-order:markers stroke fill"
         d="m 100.8977,46.258324 3.72532,-2.92521 5.51362,0.696178 C 107.3237,54.035581 102.35841,75.602542 75.645156,80.355639 74.611447,77.061455 72.833631,73.916093 70.46407,70.88908 L 61.249007,70.730113 64.511,67.888515 69.300692,67.776521 71.963408,67.60351 c 3.117502,2.176579 7.630092,2.679054 12.041181,3.30333 6.599506,-6.521342 14.446882,-11.056394 16.893111,-24.648516 z"
         sodipodi:nodetypes="ccccccccccc" /><path
         id="rect53-4-94"
         style="fill:#1f2830;fill-opacity:0.53065;stroke-width:0.79375;stroke-linecap:round;stroke-linejoin:round;paint-order:markers stroke fill"
         d="m 11.549305,40.846052 7.617492,-0.400875 2.618131,5.374089 c 2.40936,9.461264 4.820919,18.92315 19.229574,31.775519 0.834657,6.711642 -10.222912,22.384062 5.148727,35.383425 l 0.0337,4.40774 C 22.219247,110.97595 34.006735,87.349572 36.704231,79.098067 18.84904,73.347202 9.987297,49.257928 11.549305,40.846052 Z"
         sodipodi:nodetypes="cccccccc" /><path
         id="rect53-4-44"
         style="fill:#ffffff;fill-opacity:1;stroke-width:0.79375;stroke-linecap:round;stroke-linejoin:round;paint-order:markers stroke fill"
         d="m 17.285549,34.812641 c 6.671913,-1.279411 13.343826,0.843082 20.015739,2.774138 l -0.438022,5.260296 -12.204349,-1.825091 -2.93756,5.006887 -2.478103,-5.854789 -2.612528,-0.99442 z"
         sodipodi:nodetypes="cccccccc" /><path
         id="rect53-4-17"
         style="fill:#ffffff;fill-opacity:1;stroke-width:0.79375;stroke-linecap:round;stroke-linejoin:round;paint-order:markers stroke fill"
         d="m 102.12366,37.88683 5.96637,0.637789 -0.63779,3.943798 -2.7361,0.762222 -4.53642,4.123672 -1.504451,-4.168906 -2.929499,-1.992565 z"
         sodipodi:nodetypes="cccccccc" /><path
         id="rect53-4-178"
         style="fill:#ffe8e0;fill-opacity:1;stroke-width:0.79375;stroke-linecap:round;stroke-linejoin:round;paint-order:markers stroke fill"
         d="m 102.83999,37.112079 5.08996,-4.449574 0.45249,5.043812 z"
         sodipodi:nodetypes="cccc" /><path
         id="rect53-4-64"
         style="fill:#ffffff;fill-opacity:1;stroke-width:0.79375;stroke-linecap:round;stroke-linejoin:round;paint-order:markers stroke fill"
         d="m 37.933274,98.517356 c 0.0096,-23.027378 18.05594,-23.572535 38.009532,-19.18228 6.798405,4.594961 7.293037,13.834265 4.42668,25.375774 l -34.150375,8.28584 C 40.12748,107.59895 37.931143,103.6554 37.933274,98.517356 Z"
         sodipodi:nodetypes="scccs" /><path
         id="rect53-4-85"
         style="fill:#2c3a4b;fill-opacity:0.505882;stroke-width:0.79375;stroke-linecap:round;stroke-linejoin:round;paint-order:markers stroke fill"
         d="m 103.81576,37.820533 c -0.18718,2.298318 -1.43923,6.544835 -3.12819,9.850964 L 96.722854,41.15602 Z"
         sodipodi:nodetypes="cccc" /><path
         style="fill:none;fill-opacity:1;stroke:#232b30;stroke-width:1.5875;stroke-linecap:round;stroke-linejoin:round;stroke-dasharray:none;stroke-opacity:1;paint-order:markers stroke fill"
         d="m 99.306508,39.074463 c 2.521062,-0.301504 6.642362,0.02036 8.340632,1.223373"
         id="path54"
         sodipodi:nodetypes="cc" /><path
         style="fill:none;fill-opacity:1;stroke:#232b30;stroke-width:1.5875;stroke-linecap:round;stroke-linejoin:round;stroke-dasharray:none;stroke-opacity:1;paint-order:markers stroke fill"
         d="m 16.974965,35.836037 c 3.861561,-0.445828 16.071764,0.995028 19.904453,3.772215"
         id="path55"
         sodipodi:nodetypes="cc" /><path
         id="rect53-4-88"
         style="fill:#2c3a4b;fill-opacity:0.50506;stroke-width:0.79375;stroke-linecap:round;stroke-linejoin:round;paint-order:markers stroke fill"
         d="m 16.921664,34.75234 h 7.195205 c -1.857077,3.357117 -2.560783,6.906463 -2.29341,10.617654 l -2.685364,-4.761586 -2.734087,-0.961899 z"
         sodipodi:nodetypes="cccccc" /><path
         id="rect53-4-60"
         style="fill:#b6c4d4;fill-opacity:1;stroke-width:0.79375;stroke-linecap:round;stroke-linejoin:round;paint-order:markers stroke fill"
         d="m 38.553351,89.556787 c 5.153824,-2.930084 10.151169,-7.353973 17.033233,-9.265512 l -8.184536,18.432013 -1.487762,13.383522 c -5.324501,-4.9938 -10.858185,-9.80378 -7.360935,-22.550023 z"
         sodipodi:nodetypes="ccccc" /><path
         id="rect53-4-97"
         style="fill:#ffe8e0;fill-opacity:1;stroke-width:0.79375;stroke-linecap:round;stroke-linejoin:round;paint-order:markers stroke fill"
         d="m 48.398161,95.703837 c -4.719525,0 -2.841469,-9.384964 1.089432,-12.500831 4.368745,-3.462927 12.532336,-2.510737 19.073876,-2.689258 11.379276,-0.310544 13.873491,6.886092 13.325198,13.827863 -0.53904,6.824619 -5.844214,22.976239 -3.267405,31.061819 -3.732368,0.84953 -8.257811,-0.13532 -13.055836,-1.68352 -5.673834,2.23939 -11.572698,1.7409 -19.463765,-1.89876 z"
         sodipodi:nodetypes="cssscccc" /><path
         id="rect53-4-54"
         style="fill:#e0b7aa;fill-opacity:1;stroke-width:0.79375;stroke-linecap:round;stroke-linejoin:round;paint-order:markers stroke fill"
         d="m 64.074452,82.2876 c 3.191136,-1.751227 7.688886,-1.072084 12.082232,0.03194 0,0 -3.01256,0.131129 -4.210651,0.602454 -3.780658,1.487297 4.695282,1.341388 -3.14089,33.394556 L 64.486252,115.39 c 0.809467,-11.0933 6.661212,-22.50175 -0.4118,-33.1024 z"
         sodipodi:nodetypes="ccsccc" /><path
         id="rect53-4-69"
         style="fill:#ffffff;fill-opacity:1;stroke-width:0.79375;stroke-linecap:round;stroke-linejoin:round;paint-order:markers stroke fill"
         d="m 46.870116,116.8078 7.964183,0.0612 3.001219,1.93522 1.981771,-1.90678 4.222723,0.0305 0.420406,7.84432 c -6.277932,0.27272 -12.333298,-0.4932 -18.130825,-2.46238 z"
         sodipodi:nodetypes="cccccccc" /><path
         id="rect53-4-89"
         style="fill:#333c40;fill-opacity:1;stroke-width:0.79375;stroke-linecap:round;stroke-linejoin:round;paint-order:markers stroke fill"
         d="m 46.829687,118.45088 c 3.911083,0.68777 7.276882,1.62556 7.495797,3.27401 2.858572,0.34966 6.583142,1.62286 9.434499,0.84835 l 0.419138,2.53254 c -6.325347,0.14237 -12.24948,-1.05264 -17.935537,-3.04123 z"
         sodipodi:nodetypes="cccccc" /><path
         id="rect53-4-0"
         style="fill:#e0b7aa;fill-opacity:1;stroke-width:0.79375;stroke-linecap:round;stroke-linejoin:round;paint-order:markers stroke fill"
         d="m 46.315387,87.547278 c 3.429379,-6.175368 12.451951,-6.897659 12.451951,-6.897659 -10.280525,5.331612 -7.66662,22.079591 -7.72126,36.293861 l -4.52479,-0.4118 c 0,0 0.531891,-9.15981 0.840232,-16.34981 -3.214673,-4.741214 -2.575989,-9.879742 -1.046133,-12.634592 z"
         sodipodi:nodetypes="sccccs" /><path
         id="rect53-4-75"
         style="fill:#ffffff;fill-opacity:1;stroke-width:0.79375;stroke-linecap:round;stroke-linejoin:round;paint-order:markers stroke fill"
         d="m 64.530584,115.70884 5.245919,0.49874 1.710755,2.09592 2.030418,-1.74025 4.27903,0.40681 1.020987,8.08456 c -5.948781,0.97665 -9.760678,-0.36166 -13.866702,-1.38134 z"
         sodipodi:nodetypes="cccccccc" /><path
         id="rect53-4-21"
         style="fill:#333c40;fill-opacity:1;stroke-width:0.79375;stroke-linecap:round;stroke-linejoin:round;paint-order:markers stroke fill"
         d="m 64.376513,119.47949 c 3.419209,-0.048 5.224869,1.32345 5.631742,2.60616 2.575492,0.74517 5.472281,0.84774 8.39246,0.90353 v 2.29269 c -4.719832,0.0735 -9.245563,-0.48393 -13.497749,-1.93033 z"
         sodipodi:nodetypes="cccccc" /><path
         style="fill:none;fill-opacity:1;stroke:#e85049;stroke-width:1.5875;stroke-linecap:round;stroke-linejoin:round;stroke-dasharray:none;stroke-opacity:1;paint-order:markers stroke fill"
         d="m 46.678819,121.12802 c 3.051461,1.79874 13.501441,4.60427 17.197457,3.46582"
         id="path58"
         sodipodi:nodetypes="cc" /><path
         style="fill:none;fill-opacity:1;stroke:#e85049;stroke-width:1.5875;stroke-linecap:round;stroke-linejoin:round;stroke-dasharray:none;stroke-opacity:1;paint-order:markers stroke fill"
         d="m 64.973054,122.66351 c 3.787508,1.57942 10.18003,2.80202 13.205191,2.23742"
         id="path59"
         sodipodi:nodetypes="cc" /><path
         id="rect53-4-62"
         style="fill:#26313f;fill-opacity:0.526713;stroke-width:0.79375;stroke-linecap:round;stroke-linejoin:round;paint-order:markers stroke fill"
         d="m 64.349611,115.55823 4.444093,0.6791 -0.87434,8.05267 -3.343387,-0.11318 z"
         sodipodi:nodetypes="ccccc" /><path
         id="rect53-4-08"
         style="fill:#26313f;fill-opacity:0.52549;stroke-width:0.79375;stroke-linecap:round;stroke-linejoin:round;paint-order:markers stroke fill"
         d="m 46.690135,116.48133 4.385376,0.31219 0.655755,6.9482 -5.833411,-1.13183 z"
         sodipodi:nodetypes="ccccc" /><g
         id="g59"><path
           id="rect53-4-8"
           style="fill:#e85049;fill-opacity:1;stroke-width:0.79375;stroke-linecap:round;stroke-linejoin:round;paint-order:markers stroke fill"
           d="m 23.788244,104.36447 c 2.256972,1.79468 4.415216,4.32411 8.924264,3.72444 l 1.592647,2.77582 c -5.075704,1.18713 -8.161376,-3.40894 -10.516911,-6.50026 z"
           sodipodi:nodetypes="cccc" /><path
           id="rect53-4-8-5"
           style="fill:#3377d6;fill-opacity:1;stroke-width:0.79375;stroke-linecap:round;stroke-linejoin:round;paint-order:markers stroke fill"
           d="m 23.788244,104.36447 c 2.256972,1.79468 5.135542,5.66472 9.64459,5.06505 l 0.872321,1.43521 c -5.075704,1.18713 -8.161376,-3.40894 -10.516911,-6.50026 z"
           sodipodi:nodetypes="cccc" /></g><path
         id="rect53-4-5"
         style="fill:#ffffff;fill-opacity:1;stroke-width:0.79375;stroke-linecap:round;stroke-linejoin:round;paint-order:markers stroke fill"
         d="m 21.053543,111.60583 c 5.738523,2.29338 8.999267,0.70829 9.503985,1.07137 0.504718,0.36308 -1.900617,2.48341 5.170286,-0.45719 l 1.632794,1.96529 c -2.700519,1.39697 -5.792437,6.21868 -7.80887,1.6299 -6.384548,0.61275 -7.682328,-2.58551 -8.498195,-4.20937 z"
         sodipodi:nodetypes="czcccc" /><path
         id="rect53-4-91"
         style="fill:#0c1013;fill-opacity:0.398761;stroke-width:0.79375;stroke-linecap:round;stroke-linejoin:round;paint-order:markers stroke fill"
         d="m 24.658241,102.89327 c 1.997498,1.24137 3.245768,3.54415 7.61737,1.4222 1.078509,2.96581 0.912756,5.78523 5.326879,9.14345 -3.883984,4.51017 -6.982605,6.02979 -7.510675,2.15017 -5.755882,1.4502 -10.036571,-0.96981 -8.324694,-4.27172 l -2.560653,-4.10858 z"
         sodipodi:nodetypes="ccccccc" /><path
         id="rect53-4-629"
         style="fill:#ffe8e0;fill-opacity:1;stroke-width:0.79375;stroke-linecap:round;stroke-linejoin:round;paint-order:markers stroke fill"
         d="m 24.777294,27.706822 c 4.804995,-3.386625 10.196049,-1.383889 11.703556,1.676429 1.507508,3.060319 1.323497,8.087211 1.323497,8.087211 L 20.806804,34.338186 c 0,0 -0.834504,-3.244738 3.97049,-6.631364 z"
         sodipodi:nodetypes="zzccz" /><path
         id="rect53-4-31"
         style="fill:#e2bbae;fill-opacity:1;stroke-width:0.79375;stroke-linecap:round;stroke-linejoin:round;paint-order:markers stroke fill"
         d="m 31.325631,26.616671 c -3.508887,1.396216 -4.997052,4.679577 -6.25766,8.114199 l -3.868006,-0.77404 c 1.155131,-5.637436 6.034588,-7.719717 10.125666,-7.340159 z"
         sodipodi:nodetypes="cccc" /><path
         id="rect53-4-03"
         style="fill:#ffe8e0;fill-opacity:1;stroke-width:0.79375;stroke-linecap:round;stroke-linejoin:round;paint-order:markers stroke fill"
         d="m 57.824883,34.258438 -0.05156,7.932607 13.617568,1.309128 1.832259,-1.756875 2.36201,1.719387 1.386824,-11.082239 c 5.420443,1.939978 6.988155,10.301175 10.047257,16.176721 -0.03715,23.957273 -28.043473,18.66795 -39.241617,15.305635 l -1.272076,-22.716116 1.847731,-2.691284 2.724474,-0.886132 0.904989,-2.306334 z"
         sodipodi:nodetypes="ccccccccccccc" /><path
         id="rect53-4-66"
         style="fill:#e0b7ab;fill-opacity:1;stroke-width:0.79375;stroke-linecap:round;stroke-linejoin:round;paint-order:markers stroke fill"
         d="m 78.174853,33.158856 2.916011,0.01855 2.677863,8.219526 -0.218539,1.405777 c -2.579287,-0.885038 -2.678172,-2.626564 -1.735259,-3.982671 -2.668389,-0.469015 -3.62326,-3.5684 -3.640076,-5.66118 z"
         sodipodi:nodetypes="cccccc" /><path
         id="rect53-4-93"
         style="fill:#e0b7ab;fill-opacity:1;stroke-width:0.79375;stroke-linecap:round;stroke-linejoin:round;paint-order:markers stroke fill"
         d="m 51.289438,34.587469 c 0,-2.40722 7.206432,-0.468739 7.206432,-0.468739 l -0.829294,8.173128 14.696189,0.263555 1.294542,-1.131968 2.321469,1.900501 -0.04979,2.594922 -3.496282,0.703754 0.618082,-3.459838 -1.06997,0.641464 c 0,0 -0.226265,1.821267 -0.635255,2.272944 -0.408991,0.451677 -17.036486,-0.955344 -17.036486,-0.955344 -0.30464,-3.111662 -0.178434,-6.223324 0.657325,-9.334987 l -2.232559,0.351114 c 0.526051,3.125081 -0.779012,5.208519 -5.38216,6.524193 l 0.422223,-3.448793 c 0,0 3.515534,-1.819611 3.515534,-4.625906 z"
         sodipodi:nodetypes="sccccccccczcccccs" /><g
         id="g53"><path
           style="fill:none;stroke:#000000;stroke-width:2.38125;stroke-linecap:round;stroke-linejoin:round;stroke-dasharray:none;stroke-opacity:0.996078;paint-order:markers stroke fill"
           d="M 30.832263,26.06798 C 40.879106,8.4598605 59.71672,8.9721489 76.721454,5.3869156 93.726188,1.8016823 86.715646,13.96119 72.441934,26.913516 66.567147,32.244445 52.956621,37.19532 40.284275,33.046903"
           id="path1"
           sodipodi:nodetypes="czsc" /><path
           style="fill:none;stroke:#000000;stroke-width:2.38125;stroke-linecap:round;stroke-linejoin:round;stroke-dasharray:none;stroke-opacity:0.996078;paint-order:markers stroke fill"
           d="m 84.1812,14.516002 c 23.75878,-0.371066 33.69048,1.888267 29.15065,10.717898 -3.23314,6.288211 -8.19854,9.963944 -18.509701,16.95392"
           id="path2"
           sodipodi:nodetypes="csc" /><path
           style="fill:none;stroke:#000000;stroke-width:2.38125;stroke-linecap:round;stroke-linejoin:round;stroke-dasharray:none;stroke-opacity:0.996078;paint-order:markers stroke fill"
           d="m 80.537004,19.38174 c 9.757292,6.960786 13.678307,15.555729 13.655315,25.254994 3.072891,-0.393776 4.204282,5.561535 1.695407,7.202149 -1.666607,1.089835 -4.226983,1.119112 -5.434332,-2.807204 -1.040825,-0.850928 -2.566286,-0.876162 -3.529227,-0.430497"
           id="path3"
           sodipodi:nodetypes="ccscc" /><path
           style="fill:none;stroke:#000000;stroke-width:2.38125;stroke-linecap:round;stroke-linejoin:round;stroke-dasharray:none;stroke-opacity:0.996078;paint-order:markers stroke fill"
           d="m 92.679275,52.634329 c -1.532262,6.856467 -5.84945,16.556302 -8.571491,17.678707 -2.722041,1.122405 -9.457667,-0.0368 -13.660819,-2.946453"
           id="path4"
           sodipodi:nodetypes="czc" /><path
           style="fill:none;stroke:#000000;stroke-width:2.38125;stroke-linecap:round;stroke-linejoin:round;stroke-dasharray:none;stroke-opacity:0.996078;paint-order:markers stroke fill"
           d="m 90.535796,37.480988 5.087445,4.049194"
           id="path5" /><path
           style="fill:none;stroke:#000000;stroke-width:2.38125;stroke-linecap:round;stroke-linejoin:round;stroke-dasharray:none;stroke-opacity:0.996078;paint-order:markers stroke fill"
           d="m 86.382776,23.98368 c 7.007573,-2.152999 12.934021,-3.610034 20.765094,-3.841543"
           id="path7"
           sodipodi:nodetypes="cc" /><path
           style="fill:none;stroke:#000000;stroke-width:2.38125;stroke-linecap:round;stroke-linejoin:round;stroke-dasharray:none;stroke-opacity:0.996078;paint-order:markers stroke fill"
           d="m 47.344406,101.54129 c -1.120167,-4.82907 -3.486743,-11.856146 0.746478,-16.444157 1.861146,-2.017131 4.91424,-4.1491 10.051368,-4.424755 16.821645,-0.90264 5.710403,36.027422 5.710403,36.027422 -0.164405,3.12343 1.445579,7.46989 -0.0231,8.41678 -1.479236,0.95369 -5.565416,0.24231 -9.03726,-0.54145 -4.809939,-1.08583 -9.430622,-2.46343 -8.566631,-4.0595 0.55752,-10.05978 1.845521,-19.04356 3.091426,-29.253058"
           id="path8"
           sodipodi:nodetypes="csscsscc" /><path
           style="fill:none;stroke:#000000;stroke-width:2.38125;stroke-linecap:round;stroke-linejoin:round;stroke-dasharray:none;stroke-opacity:0.996078;paint-order:markers stroke fill"
           d="m 63.541176,82.437408 c 5.356569,-2.221682 13.739609,-1.823702 15.57382,1.765033 5.698176,11.148791 0.727045,21.796829 -1.591074,32.411249"
           id="path9"
           sodipodi:nodetypes="csc" /><path
           style="fill:none;stroke:#000000;stroke-width:2.38125;stroke-linecap:round;stroke-linejoin:round;stroke-dasharray:none;stroke-opacity:0.996078;paint-order:markers stroke fill"
           d="m 64.631864,115.58076 4.990255,0.7244 c 0.507289,0.8167 1.031746,1.38225 1.757629,2.10515 1.400426,-0.69975 1.175042,-1.02443 2.227451,-1.75699 l 4.398134,-0.0381 c -0.405697,2.98202 1.356909,8.13265 0.145377,8.79008 -1.998843,1.08465 -8.946933,-0.44812 -13.425253,-2.0434"
           id="path10"
           sodipodi:nodetypes="cccccsc" /><path
           style="fill:none;stroke:#000000;stroke-width:2.38125;stroke-linecap:round;stroke-linejoin:round;stroke-dasharray:none;stroke-opacity:0.996078;paint-order:markers stroke fill"
           d="m 46.844016,116.38565 c 2.707015,0.35262 5.407133,0.71491 8.531727,0.48292 0.635797,0.84863 1.547545,1.46729 2.431266,2.10932 0.840931,-0.62258 1.518745,-1.34301 1.931712,-2.22236 l 3.894032,-0.0151"
           id="path11"
           sodipodi:nodetypes="ccccc" /><path
           style="fill:none;stroke:#000000;stroke-width:2.38125;stroke-linecap:round;stroke-linejoin:round;stroke-dasharray:none;stroke-opacity:0.996078;paint-order:markers stroke fill"
           d="m 107.62676,33.652308 c 0.77557,3.519059 0.47301,6.905409 -0.47889,9.642905"
           id="path12"
           sodipodi:nodetypes="cc" /><path
           style="fill:none;stroke:#000000;stroke-width:2.38125;stroke-linecap:round;stroke-linejoin:round;stroke-dasharray:none;stroke-opacity:0.996078;paint-order:markers stroke fill"
           d="m 100.28805,38.634238 c 2.578,-1.074671 4.53168,-0.884339 7.56587,0.241465"
           id="path13"
           sodipodi:nodetypes="cc" /><path
           style="fill:none;stroke:#000000;stroke-width:2.38125;stroke-linecap:round;stroke-linejoin:round;stroke-dasharray:none;stroke-opacity:0.996078;paint-order:markers stroke fill"
           d="m 69.996233,67.468576 0.110495,2.908812 5.545195,8.846306"
           id="path14"
           sodipodi:nodetypes="ccc" /><path
           style="fill:none;stroke:#000000;stroke-width:2.11667;stroke-linecap:round;stroke-linejoin:round;stroke-dasharray:none;stroke-opacity:0.996078;paint-order:markers stroke fill"
           d="m 58.145947,34.039608 c -0.484405,2.584264 -0.906102,6.955813 -0.403428,7.792811 0.502674,0.836998 13.172907,1.981598 14.142004,1.261157 0.969097,-0.720441 0.711788,-1.32153 1.409005,-1.743869 0.697217,0.393422 0.844883,1.940928 2.26592,1.775204 1.421037,-0.165724 1.423923,-7.724996 0.575405,-13.506819"
           id="path15"
           sodipodi:nodetypes="czzczc" /><g
           id="g51"><path
             style="fill:none;stroke:#2c51a9;stroke-width:1.32292;stroke-linecap:round;stroke-linejoin:round;stroke-dasharray:none;stroke-opacity:1;paint-order:markers stroke fill"
             d="m 66.44066,68.327056 c -3.945224,5.361679 -12.117212,7.083091 -20.586635,6.168201"
             id="path45-1"
             sodipodi:nodetypes="cc" /><path
             style="fill:none;stroke:#3577d1;stroke-width:1.32292;stroke-linecap:round;stroke-linejoin:round;stroke-dasharray:none;stroke-opacity:1;paint-order:markers stroke fill"
             d="M 66.560062,67.885317 C 62.280963,73.781196 54.142363,75.168733 45.67294,74.253843"
             id="path45"
             sodipodi:nodetypes="cc" /></g><path
           style="fill:none;stroke:#000000;stroke-width:2.38125;stroke-linecap:round;stroke-linejoin:round;stroke-dasharray:none;stroke-opacity:0.996078;paint-order:markers stroke fill"
           d="m 73.408364,33.818697 c 3.027049,2.127282 7.020123,2.410334 11.21909,2.300317"
           id="path17"
           sodipodi:nodetypes="cc" /><path
           style="fill:none;stroke:#000000;stroke-width:2.38125;stroke-linecap:round;stroke-linejoin:round;stroke-dasharray:none;stroke-opacity:0.996078;paint-order:markers stroke fill"
           d="m 61.140006,33.737983 c -3.229288,1.276582 -6.811782,1.22502 -8.583332,1.325468 -1.657488,0.09398 -0.870334,2.247258 -1.465421,2.911959 -0.595087,0.664701 -2.1601,0.04475 -2.824951,0.807127 -0.664851,0.762378 -0.0395,1.457407 -0.887841,2.300319 -0.848346,0.842912 -1.703785,-0.06717 -2.421388,0.807128 -0.8685,1.058148 -2.481323,5.459205 -6.578099,5.609545"
           id="path18"
           sodipodi:nodetypes="cszzzsc" /><path
           style="fill:none;stroke:#000000;stroke-width:2.38125;stroke-linecap:round;stroke-linejoin:round;stroke-dasharray:none;stroke-opacity:0.996078;paint-order:markers stroke fill"
           d="m 46.927931,41.734573 c 1.626053,16.346467 0.694726,24.977028 -2.06483,25.028228 -2.759556,0.0512 -7.081787,-13.935845 -6.757621,-22.400265 -4.544352,-1.969503 -9.581427,-3.133486 -13.640386,-3.128528 -0.939494,1.834468 -1.020824,4.327892 -2.753105,4.317369 -1.732281,-0.01052 -2.201046,-3.083911 -2.565393,-5.130786 -2.903002,-0.612647 -5.203325,-0.01994 -7.633611,0.312851 -1.6468514,10.721438 6.329164,28.68858 24.715376,38.731185 -11.480449,29.558873 2.267161,35.983863 9.948722,37.604913"
           id="path19"
           sodipodi:nodetypes="czcczcccc" /><path
           style="fill:none;stroke:#000000;stroke-width:2.38125;stroke-linecap:round;stroke-linejoin:round;stroke-dasharray:none;stroke-opacity:0.996078;paint-order:markers stroke fill"
           d="m 50.995018,65.135966 c -1.004722,6.83846 -9.641783,12.74296 -14.829228,14.14095"
           id="path20"
           sodipodi:nodetypes="cc" /><path
           style="fill:none;stroke:#000000;stroke-width:2.38125;stroke-linecap:round;stroke-linejoin:round;stroke-dasharray:none;stroke-opacity:0.996078;paint-order:markers stroke fill"
           d="m 16.050948,40.039178 c -0.40822,-1.411908 -0.43772,-4.154195 1.881429,-5.350315 2.330851,-1.202157 16.777058,1.241285 18.814297,3.292501 1.677525,1.689034 -0.293973,5.291522 -0.293973,5.291522"
           id="path21"
           sodipodi:nodetypes="cssc" /><path
           style="fill:none;stroke:#000000;stroke-width:2.38125;stroke-linecap:round;stroke-linejoin:round;stroke-dasharray:none;stroke-opacity:0.996078;paint-order:markers stroke fill"
           d="m 20.953355,34.257072 c 0.419479,-2.70489 2.82441,-8.605582 8.894798,-8.176565 6.070388,0.429016 9.006531,6.973618 7.319108,11.835089"
           id="path22"
           sodipodi:nodetypes="czc" /><path
           style="fill:none;stroke:#000000;stroke-width:2.38125;stroke-linecap:round;stroke-linejoin:round;stroke-dasharray:none;stroke-opacity:0.996078;paint-order:markers stroke fill"
           d="m 41.944785,33.764887 c 0.02491,0.821857 -0.206291,1.328752 -1.004372,1.862647 -0.629387,0.421043 -1.790093,0.427126 -2.617375,1.289157 -0.85728,0.89329 -0.957983,1.836067 -0.546912,3.086155"
           id="path23"
           sodipodi:nodetypes="cssc" /><path
           style="fill:none;stroke:#000000;stroke-width:2.38125;stroke-linecap:round;stroke-linejoin:round;stroke-dasharray:none;stroke-opacity:0.996078;paint-order:markers stroke fill"
           d="m 18.011921,63.427466 c 0,0 -5.076827,5.421765 -6.221216,7.58918 -1.9768189,3.743993 1.263177,12.537731 1.263177,12.537731 l -0.183857,3.602932 c -4.9169367,2.092199 -8.5534721,5.920449 -8.4724143,8.122411 1.4452068,0.784245 3.1423748,0.524904 4.5875816,0.551574 -0.5681132,4.896156 1.3373847,9.123956 3.4755807,13.629286 12.368763,-4.45403 15.290684,-7.29385 11.992274,-18.543049 l 0.827359,-2.390145 c 2.381943,0.527106 4.651505,0.897951 7.834041,0.09073"
           id="path24"
           sodipodi:nodetypes="cscccccccc" /><path
           style="fill:none;stroke:#000000;stroke-width:2.38125;stroke-linecap:round;stroke-linejoin:round;stroke-dasharray:none;stroke-opacity:0.996078;paint-order:markers stroke fill"
           d="m 13.195699,83.46442 c 4.046491,0.752547 8.084149,1.637602 11.960633,4.94026"
           id="path25"
           sodipodi:nodetypes="cc" /><path
           style="fill:none;stroke:#000000;stroke-width:2.38125;stroke-linecap:round;stroke-linejoin:round;stroke-dasharray:none;stroke-opacity:0.996078;paint-order:markers stroke fill"
           d="m 12.982051,85.919938 c 3.431521,2.142762 7.403348,3.645178 11.459243,4.889871"
           id="path26"
           sodipodi:nodetypes="cc" /><path
           style="fill:none;stroke:#000000;stroke-width:2.38125;stroke-linecap:round;stroke-linejoin:round;stroke-dasharray:none;stroke-opacity:0.996078;paint-order:markers stroke fill"
           d="m 32.173545,93.134636 c -0.648476,-0.713579 -1.735524,-0.639494 -2.374983,-0.311661 -0.639458,0.327834 -0.770176,1.93846 -1.769554,2.6064 -0.999379,0.66794 -1.313933,-0.05762 -2.656496,-0.11942"
           id="path27"
           sodipodi:nodetypes="czzc" /><path
           style="fill:none;stroke:#000000;stroke-width:2.38125;stroke-linecap:round;stroke-linejoin:round;stroke-dasharray:none;stroke-opacity:0.996078;paint-order:markers stroke fill"
           d="m 20.05393,106.55185 c -0.473676,1.83054 0.279876,2.9159 1.765424,4.50154 -0.139302,0.77571 -0.187798,1.529 -0.09329,2.18781 3.143868,3.71109 5.048196,2.67267 8.453424,2.49624 0.301353,4.35557 4.788141,1.16712 7.174299,-2.25309"
           id="path28"
           sodipodi:nodetypes="ccccc" /><path
           style="fill:none;stroke:#000000;stroke-width:2.38125;stroke-linecap:round;stroke-linejoin:round;stroke-dasharray:none;stroke-opacity:0.996078;paint-order:markers stroke fill"
           d="m 58.698107,66.888542 c 0.441889,1.516747 0.671101,2.448463 1.950105,3.96521"
           id="path29"
           sodipodi:nodetypes="cc" /><path
           style="fill:none;stroke:#000000;stroke-width:2.38125;stroke-linecap:round;stroke-linejoin:round;stroke-dasharray:none;stroke-opacity:0.996078;paint-order:markers stroke fill"
           d="m 65.393463,67.798589 c -5.309243,5.30638 -12.005991,5.67941 -18.850998,5.525294"
           id="path30"
           sodipodi:nodetypes="cc" /><path
           style="fill:none;stroke:#000000;stroke-width:2.11667;stroke-linecap:round;stroke-linejoin:round;stroke-dasharray:none;stroke-opacity:0.996078;paint-order:markers stroke fill"
           d="m 85.490784,103.89006 c 0,0 -0.307547,0.76885 -0.417526,1.42704 -0.109979,0.65819 0.570543,0.78661 0.207685,1.6607 -0.362858,0.87409 -0.550122,0.74272 -0.78489,1.68481 -0.234768,0.94209 0.331118,1.30337 0.176295,2.14767 -0.154824,0.8443 -1.212687,0.91076 -1.269698,1.48567 -0.03606,0.36359 0.377943,0.88042 0.214714,1.43057 -0.163229,0.55016 -0.481882,1.02952 -0.481882,1.02952"
           id="path31"
           sodipodi:nodetypes="czzzzszc" /><path
           style="fill:none;stroke:#000000;stroke-width:2.11667;stroke-linecap:round;stroke-linejoin:round;stroke-dasharray:none;stroke-opacity:0.996078;paint-order:markers stroke fill"
           d="m 102.35382,70.713679 c 0,0 -0.2008,1.550735 -0.72378,2.184017 -0.52298,0.633283 -1.51473,0.640425 -1.9939,1.199959 -0.479171,0.559534 -0.21344,1.467758 -0.790513,1.937859 -0.577072,0.470101 -2.24717,0.47648 -2.24717,0.47648"
           id="path32"
           sodipodi:nodetypes="czzzc" /><path
           style="fill:none;stroke:#000000;stroke-width:2.11667;stroke-linecap:round;stroke-linejoin:round;stroke-dasharray:none;stroke-opacity:0.996078;paint-order:markers stroke fill"
           d="m 116.79903,25.327714 c 0,0 -0.12831,2.510017 -0.53174,3.305227 -0.39974,0.78793 -1.29734,1.031186 -1.67132,1.831662 -0.21752,0.465583 -0.14138,1.045577 -0.35023,1.515132 -0.30741,0.691269 -1.45546,1.608336 -1.45546,1.608336"
           id="path33"
           sodipodi:nodetypes="csssc" /><path
           style="fill:none;stroke:#000000;stroke-width:2.11667;stroke-linecap:round;stroke-linejoin:round;stroke-dasharray:none;stroke-opacity:0.996078;paint-order:markers stroke fill"
           d="m 91.041367,10.498746 c 0,0 0.745969,-0.483131 1.247253,-0.457785 0.501284,0.02535 1.061851,0.514271 1.680586,0.575617 0.618735,0.06135 1.226743,-0.326074 1.937096,-0.257854 0.710354,0.06822 1.466688,0.714428 2.206576,0.740612 0.739888,0.02619 1.391908,-0.544359 2.047202,-0.529444 0.6553,0.01492 1.69343,0.712343 1.69343,0.712343"
           id="path34"
           sodipodi:nodetypes="czzzzzc" /><path
           style="fill:none;stroke:#000000;stroke-width:2.11667;stroke-linecap:round;stroke-linejoin:round;stroke-dasharray:none;stroke-opacity:0.996078;paint-order:markers stroke fill"
           d="m 43.630753,9.4992854 c 0,0 -2.136764,0.4054259 -2.782095,0.9072416 -0.645331,0.501816 -0.423808,1.168453 -1.057941,1.671997 -0.634132,0.503544 -1.872487,0.37005 -2.71922,0.948378 -0.846733,0.578328 -1.714505,2.298261 -1.714505,2.298261"
           id="path35"
           sodipodi:nodetypes="czzzc" /><path
           style="fill:none;stroke:#000000;stroke-width:2.11667;stroke-linecap:round;stroke-linejoin:round;stroke-dasharray:none;stroke-opacity:0.996078;paint-order:markers stroke fill"
           d="m 32.617444,17.289554 -0.245653,0.337385"
           id="path36"
           sodipodi:nodetypes="cc" /><path
           style="fill:none;stroke:#000000;stroke-width:2.11667;stroke-linecap:round;stroke-linejoin:round;stroke-dasharray:none;stroke-opacity:0.996078;paint-order:markers stroke fill"
           d="m 8.2348419,51.670056 c 0,0 0.5957954,0.834386 0.7086035,1.405142 0.1128082,0.570756 -0.3808749,1.258886 -0.1471105,1.911428 0.2337644,0.652542 1.2466911,1.031508 1.5522181,1.61752 0.305527,0.586013 0.136293,1.261962 0.336293,1.690308 0.200001,0.428345 0.697474,0.867334 0.697474,0.867334"
           id="path37"
           sodipodi:nodetypes="czzzzc" /><path
           style="fill:none;stroke:#000000;stroke-width:2.11667;stroke-linecap:round;stroke-linejoin:round;stroke-dasharray:none;stroke-opacity:0.996078;paint-order:markers stroke fill"
           d="m 6.174585,100.0197 c 0,0 -0.1182383,0.83751 -0.070922,1.2495 0.047316,0.41199 0.3547922,0.69114 0.3481621,1.18663 -0.00663,0.49549 -0.5814468,0.99766 -0.5333116,1.65263 0.048135,0.65497 0.9761862,1.97589 0.9761862,1.97589"
           id="path38"
           sodipodi:nodetypes="czzzc" /><path
           style="fill:none;stroke:#000000;stroke-width:2.11667;stroke-linecap:round;stroke-linejoin:round;stroke-dasharray:none;stroke-opacity:0.996078;paint-order:markers stroke fill"
           d="m 25.485164,120.1 c 0,0 0.990391,0.19238 1.470429,0.3695 0.480038,0.17711 0.711898,0.78844 1.287101,0.91731 0.575203,0.12887 1.330413,-0.39277 1.949885,-0.2653 0.619472,0.12747 0.951441,0.71634 1.655918,0.83842 0.704477,0.12208 2.028791,-0.58876 2.028791,-0.58876"
           id="path39"
           sodipodi:nodetypes="czzzzc" /><path
           style="fill:none;stroke:#000000;stroke-width:2.11667;stroke-linecap:round;stroke-linejoin:round;stroke-dasharray:none;stroke-opacity:0.996078;paint-order:markers stroke fill"
           d="m 94.314241,77.736237 -0.173936,0.186285"
           id="path40"
           sodipodi:nodetypes="cc" /><path
           style="fill:none;stroke:#000000;stroke-width:2.11667;stroke-linecap:round;stroke-linejoin:round;stroke-dasharray:none;stroke-opacity:0.996078;paint-order:markers stroke fill"
           d="m 23.096306,118.57361 -0.414791,0.43364"
           id="path41" /><path
           style="fill:none;stroke:#000000;stroke-width:1.85208;stroke-linecap:round;stroke-linejoin:round;stroke-dasharray:none;stroke-opacity:0.996078;paint-order:markers stroke fill"
           d="m 62.298083,60.375301 c 0,0 2.320941,-2.802379 3.51594,-2.69189 1.195,0.110488 2.527084,2.966574 2.527084,2.966574"
           id="path42"
           sodipodi:nodetypes="czc" /><path
           style="fill:none;stroke:#000000;stroke-width:2.64583;stroke-linecap:round;stroke-linejoin:round;stroke-dasharray:none;stroke-opacity:0.996078;paint-order:markers stroke fill"
           d="m 47.630016,42.520912 c 0,0 9.217681,2.376055 12.665588,4.389878 l -0.249923,1.048846 C 58.47037,48.931175 47.79482,53.947721 47.79482,53.947721"
           id="path43"
           sodipodi:nodetypes="cccc" /><path
           style="fill:none;stroke:#000000;stroke-width:2.64583;stroke-linecap:round;stroke-linejoin:round;stroke-dasharray:none;stroke-opacity:0.996078;paint-order:markers stroke fill"
           d="m 84.107904,43.180151 -11.097189,4.230118 -0.274685,0.714175 c 3.493071,2.321009 6.913678,4.804475 10.547823,6.702263"
           id="path44"
           sodipodi:nodetypes="cccc" /><g
           id="g52"
           transform="translate(0,-0.24363049)"><path
             style="fill:none;stroke:#2c51a9;stroke-width:1.32292;stroke-linecap:round;stroke-linejoin:round;stroke-dasharray:none;stroke-opacity:1;paint-order:markers stroke fill"
             d="m 51.955302,74.750393 c 0.492552,-1.059251 2.106008,-1.330357 2.840551,0.333314"
             id="path48-7"
             sodipodi:nodetypes="cc" /><path
             style="fill:none;stroke:#2c51a9;stroke-width:1.32292;stroke-linecap:round;stroke-linejoin:round;stroke-dasharray:none;stroke-opacity:1;paint-order:markers stroke fill"
             d="m 56.846771,73.748535 c 0.492552,-1.059251 2.106008,-1.330357 2.840551,0.333314"
             id="path48-7-6"
             sodipodi:nodetypes="cc" /><path
             style="fill:none;stroke:#2c51a9;stroke-width:1.32292;stroke-linecap:round;stroke-linejoin:round;stroke-dasharray:none;stroke-opacity:1;paint-order:markers stroke fill"
             d="m 51.903195,74.76309 c -0.327743,1.208841 0.705673,2.46415 1.827605,2.123054 1.121931,-0.341096 1.737922,-1.346103 0.436419,-2.655764"
             id="path46-3"
             sodipodi:nodetypes="czc" /><path
             style="fill:none;stroke:#3377d6;stroke-width:1.32292;stroke-linecap:round;stroke-linejoin:round;stroke-dasharray:none;stroke-opacity:1;paint-order:markers stroke fill"
             d="m 51.57315,74.326521 c -0.327743,1.208841 0.705673,2.46415 1.827605,2.123054 1.121931,-0.341096 1.737922,-1.346103 0.436419,-2.655764"
             id="path46"
             sodipodi:nodetypes="czc" /><path
             style="fill:none;stroke:#2c51a9;stroke-width:1.5875;stroke-linecap:round;stroke-linejoin:round;stroke-dasharray:none;stroke-opacity:1;paint-order:markers stroke fill"
             d="m 56.877183,73.653855 c -0.327743,1.208841 0.705673,2.46415 1.827605,2.123054 1.121931,-0.341096 1.737922,-1.346103 0.436419,-2.655764"
             id="path46-2-2"
             sodipodi:nodetypes="czc" /><path
             style="fill:none;stroke:#3377d6;stroke-width:1.5875;stroke-linecap:round;stroke-linejoin:round;stroke-dasharray:none;stroke-opacity:1;paint-order:markers stroke fill"
             d="m 56.618526,73.318095 c -0.327743,1.208841 0.705673,2.46415 1.827605,2.123054 1.121931,-0.341096 1.737922,-1.346103 0.436419,-2.655764"
             id="path46-2"
             sodipodi:nodetypes="czc" /><path
             style="fill:none;stroke:#b81f18;stroke-width:1.32292;stroke-linecap:round;stroke-linejoin:round;stroke-dasharray:none;stroke-opacity:1;paint-order:markers stroke fill"
             d="m 52.815383,71.9089 c 0.534471,-1.241133 -0.985934,-2.984442 -2.287228,-2.334279 -1.301294,0.650163 -1.44004,2.034377 -0.112889,3.230812"
             id="path46-2-0-4"
             sodipodi:nodetypes="czc" /><path
             style="fill:none;stroke:#b81f18;stroke-width:0.79375;stroke-linecap:round;stroke-linejoin:round;stroke-dasharray:none;stroke-opacity:1;paint-order:markers stroke fill"
             d="m 49.709874,71.2834 c 1.00787,0.461505 1.977497,0.425844 2.896621,-0.266353"
             id="path51-1"
             sodipodi:nodetypes="cc" /><path
             style="fill:none;stroke:#e85049;stroke-width:1.32292;stroke-linecap:round;stroke-linejoin:round;stroke-dasharray:none;stroke-opacity:1;paint-order:markers stroke fill"
             d="m 52.902275,71.575188 c 0.534471,-1.241133 -0.985934,-2.984442 -2.287228,-2.334279 -1.301294,0.650163 -1.44004,2.034377 -0.112889,3.230812"
             id="path46-2-0"
             sodipodi:nodetypes="czc" /><path
             style="fill:none;stroke:#b81f18;stroke-width:1.32292;stroke-linecap:round;stroke-linejoin:round;stroke-dasharray:none;stroke-opacity:1;paint-order:markers stroke fill"
             d="m 55.818091,71.674476 c 1.280894,0.430561 2.169241,-1.000688 1.336915,-2.371337 -0.832326,-1.370648 -2.177183,-1.340858 -3.260389,0.08022"
             id="path46-2-0-6-0"
             sodipodi:nodetypes="czc" /><path
             style="fill:none;stroke:#e85049;stroke-width:1.32292;stroke-linecap:round;stroke-linejoin:round;stroke-dasharray:none;stroke-opacity:1;paint-order:markers stroke fill"
             d="m 57.324397,70.500803 c 0.534471,-1.241133 -0.852756,-3.051031 -2.287228,-2.334279 -1.434472,0.716752 -1.515414,2.059502 -0.188263,3.255937"
             id="path46-2-0-6"
             sodipodi:nodetypes="czc" /><path
             style="fill:none;stroke:#3577d1;stroke-width:1.32292;stroke-linecap:round;stroke-linejoin:round;stroke-dasharray:none;stroke-opacity:1;paint-order:markers stroke fill"
             d="m 57.632745,70.517708 c -0.566655,0.946617 -1.322236,0.9805 -2.330615,1.132013"
             id="path49"
             sodipodi:nodetypes="cc" /><path
             style="fill:none;stroke:#e3504b;stroke-width:1.32292;stroke-linecap:round;stroke-linejoin:round;stroke-dasharray:none;stroke-opacity:1;paint-order:markers stroke fill"
             d="m 56.267671,72.91491 c 0.346844,-0.46633 1.135343,-1.081729 2.330615,-0.832362"
             id="path50"
             sodipodi:nodetypes="cc" /><path
             style="fill:none;stroke:#e85049;stroke-width:0.79375;stroke-linecap:round;stroke-linejoin:round;stroke-dasharray:none;stroke-opacity:1;paint-order:markers stroke fill"
             d="m 49.534016,71.100668 c 1.00787,0.461505 1.977497,0.425844 2.896621,-0.266353"
             id="path51"
             sodipodi:nodetypes="cc" /><path
             style="fill:none;stroke:#3577d1;stroke-width:1.32292;stroke-linecap:round;stroke-linejoin:round;stroke-dasharray:none;stroke-opacity:1;paint-order:markers stroke fill"
             d="m 52.646742,71.77473 c -0.584332,0.653368 -1.179505,1.096597 -2.012777,1.089932"
             id="path47"
             sodipodi:nodetypes="cc" /><path
             style="fill:none;stroke:#e3504b;stroke-width:1.32292;stroke-linecap:round;stroke-linejoin:round;stroke-dasharray:none;stroke-opacity:1;paint-order:markers stroke fill"
             d="m 51.406678,73.913745 c 0.535411,-0.407932 0.949325,-0.937362 2.164141,-0.66589"
             id="path48"
             sodipodi:nodetypes="cc" /></g><path
           style="fill:none;stroke:#000000;stroke-width:2.11667;stroke-linecap:round;stroke-linejoin:round;stroke-dasharray:none;stroke-opacity:0.996078;paint-order:markers stroke fill"
           d="m 76.68346,32.490171 c 0.946363,0.08094 3.354741,0.40342 3.866392,1.662965 0.511651,1.259546 -0.225372,1.69938 0.187082,2.432087 0.412454,0.732707 1.969183,0.929979 2.369724,1.870836 0.400542,0.940857 -0.356946,1.344733 0.145508,2.619168 0.502454,1.274434 2.013112,1.121898 2.348937,2.494448 0.335825,1.372551 -0.27099,1.828063 0.124723,3.159633 0.395713,1.33157 1.081849,-0.09173 1.337141,3.539031 0.619177,8.805914 -11.315944,24.263252 -39.668477,13.256912"
           id="path16"
           sodipodi:nodetypes="czzzzzzsc" /><path
           style="fill:none;stroke:#000000;stroke-width:2.38125;stroke-linecap:round;stroke-linejoin:round;stroke-dasharray:none;stroke-opacity:0.996078;paint-order:markers stroke fill"
           d="m 94.792637,43.191387 4.049194,-0.4153 c 0.453722,2.763157 1.07609,3.165281 1.625009,4.595703 1.61402,-0.760295 2.46535,-2.51791 3.8737,-4.20374 l 6.23357,1.269244 C 102.402,74.36868 82.150103,81.103608 75.548731,79.447421 c -14.272934,-3.58087 -27.74788,-2.890882 -33.882308,4.58235 -6.060704,7.383417 -5.556565,21.330059 4.432079,28.101719"
           id="path6"
           sodipodi:nodetypes="cccccssc" /></g><path
         id="rect53-4-10"
         style="fill:#a08b88;fill-opacity:1;stroke-width:0.170118;stroke-linecap:round;stroke-linejoin:round;paint-order:markers stroke fill"
         d="m 63.602318,46.821339 c 0.414803,-0.235455 1.80202,0.06735 2.873967,0.118438 1.071949,0.05107 2.192537,-0.225699 2.846618,0.239517 0.654081,0.465215 0.406159,2.315284 -0.0024,2.720272 -0.408536,0.404988 -1.979938,0.43058 -2.980656,0.396823 -1.000718,-0.03376 -2.358193,-0.16473 -2.817845,-0.555332 -0.459653,-0.390604 -0.334511,-2.684262 0.0803,-2.919717 z"
         sodipodi:nodetypes="zzzzzzzz" /></g></g></svg>
