<?xml version="1.0" encoding="UTF-8" standalone="no"?>
<!-- Created with Inkscape (http://www.inkscape.org/) -->

<svg
   width="512"
   height="512"
   viewBox="0 0 135.46666 135.46667"
   version="1.1"
   id="svg1"
   inkscape:version="1.3.2 (091e20ef0f, 2023-11-25)"
   sodipodi:docname="aosc-15.svg"
   xml:space="preserve"
   xmlns:inkscape="http://www.inkscape.org/namespaces/inkscape"
   xmlns:sodipodi="http://sodipodi.sourceforge.net/DTD/sodipodi-0.dtd"
   xmlns="http://www.w3.org/2000/svg"
   xmlns:svg="http://www.w3.org/2000/svg"><sodipodi:namedview
     id="namedview1"
     pagecolor="#ffffff"
     bordercolor="#000000"
     borderopacity="0.25"
     inkscape:showpageshadow="2"
     inkscape:pageopacity="0.0"
     inkscape:pagecheckerboard="0"
     inkscape:deskcolor="#d1d1d1"
     inkscape:document-units="px"
     inkscape:zoom="1.0298259"
     inkscape:cx="249.07123"
     inkscape:cy="352.97228"
     inkscape:window-width="1920"
     inkscape:window-height="1124"
     inkscape:window-x="0"
     inkscape:window-y="48"
     inkscape:window-maximized="1"
     inkscape:current-layer="layer1" /><defs
     id="defs1"><clipPath
       clipPathUnits="userSpaceOnUse"
       id="clipPath75"><path
         id="path75"
         style="fill:#a03c3d;fill-opacity:0.605485;stroke-width:12.8531;stroke-linecap:round;stroke-linejoin:round;paint-order:fill markers stroke"
         d="M -9.8333338e-7,33.866668 H 135.46666 V 169.33333 H -9.8333338e-7 Z" /></clipPath></defs><g
     inkscape:label="Layer 1"
     inkscape:groupmode="layer"
     id="layer1"><g
       id="g75"
       clip-path="url(#clipPath75)"
       transform="translate(2.9916666e-6,-33.866667)"><path
         id="rect1-33"
         style="fill:#ffeb00;fill-opacity:1;stroke:#ff6100;stroke-width:2.91042;stroke-linecap:round;stroke-linejoin:round;stroke-dasharray:none;stroke-opacity:1;paint-order:fill markers stroke"
         d="M -1.5875,85.046846 6.2965072,69.839187 C 32.784969,76.146442 63.988354,60.39736 83.73881,101.23689 c 3.383518,-6.535547 6.887913,-13.131535 11.260546,-20.161641 0.03483,0.03391 8.762914,15.083319 8.762914,15.083319 8.62431,-10.031541 12.76226,-20.51172 16.90231,-30.991687 l 16.25729,27.71856 V 171.45127 H -1.5875 Z"
         sodipodi:nodetypes="cccccccccc" /><path
         style="color:#000000;fill:#ff6100;fill-opacity:0.436709;stroke-linecap:round;-inkscape-stroke:none;paint-order:fill markers stroke"
         d="m 9.2832031,67.402344 -9.38217554,17.590778 c 0,0 0.35789304,16.248188 0.16615844,16.554418 l 11.895705,-22.305353 45.677734,33.701173 14.84375,-12.37109 9.939968,18.55818 10.829563,-17.10897 7.461344,23.30113 4.4618,-12.64327 2.71417,3.31301 12.94913,-26.325514 10.19676,14.846834 c 1.0051,1.94837 2.64614,2.60508 4.59421,1.59939 L 135.61422,94.522542 121.00586,67.773437 103.21661,98.061244 94.93736,81.80374 83.593206,101.65933 74.994141,88.148437 57.341797,102.85938 Z"
         id="path52"
         sodipodi:nodetypes="cccccccccccccccccccccc" /><path
         id="rect1-510"
         style="fill:#252e33;fill-opacity:1;stroke-width:1.5875;stroke-linecap:round;stroke-linejoin:round;paint-order:fill markers stroke"
         d="m 124.54726,115.96418 12.37461,-12.51064 v 20.96013 z"
         sodipodi:nodetypes="cccc" /><path
         id="rect1-74"
         style="fill:#ffeb00;fill-opacity:1;stroke-width:1.5875;stroke-linecap:round;stroke-linejoin:round;paint-order:fill markers stroke"
         d="m 136.92187,105.37256 -0.0642,2.90484 c -3.90241,1.88848 -6.68351,4.72436 -9.78178,7.57781 1.88453,-3.10006 -4.00978,-4.00609 9.846,-10.48265 z"
         sodipodi:nodetypes="cccc" /><path
         style="fill:#252e33;fill-opacity:1;stroke:#7a9dc3;stroke-width:2.91042;stroke-linecap:round;stroke-linejoin:round;stroke-dasharray:none;stroke-opacity:1;paint-order:fill markers stroke"
         d="m 129.75191,118.99484 c 2.55894,-2.70275 4.81461,-4.49567 7.16996,-6.58766"
         id="path59"
         sodipodi:nodetypes="cc" /><g
         id="g74"><path
           id="rect1-5"
           style="fill:#aea49e;fill-opacity:1;stroke:#3a312c;stroke-width:2.91042;stroke-linecap:round;stroke-linejoin:miter;stroke-dasharray:none;stroke-opacity:0.992157;paint-order:fill markers stroke"
           d="M -1.3109452,32.80989 H 136.80155 v 10.518136 c 0,0 -7.4179,2.310671 -11.33753,2.182586 -3.91963,-0.128086 -13.39365,-4.561789 -13.39365,-4.561789 0,0 -2.51297,4.383288 -12.368863,5.017057 -9.855892,0.633768 -14.450791,-3.548207 -14.450791,-3.548207 0,0 -6.561442,4.793137 -15.641864,5.48036 -9.080422,0.687224 -17.179505,-6.142094 -17.179505,-6.142094 0,0 -4.056832,4.284697 -9.081551,4.426788 -5.02472,0.142092 -9.649524,-2.221857 -9.649524,-2.221857 0,0 -3.521307,3.249394 -12.701061,3.673087 -9.179753,0.423692 -22.3081562,-1.130931 -22.3081562,-1.130931 z"
           sodipodi:nodetypes="ccczczczczczcc" /><path
           id="rect1-53"
           style="fill:#8b7f78;fill-opacity:1;stroke-width:4.39136;stroke-linecap:round;stroke-linejoin:round;paint-order:fill markers stroke"
           d="m 0,33.991974 h 135.46666 c -2.36136,3.461569 -9.74185,10.884162 -24.85971,1.531238 -5.85447,4.310805 -11.193457,9.53801 -24.11215,1.290191 -11.480474,8.761593 -21.684866,6.357469 -31.558039,1.055181 -5.976437,2.880044 -11.961704,5.671787 -18.729893,0.634311 C 23.629159,46.793243 16.160007,42.901646 8.7266134,38.924779 6.0333283,40.376015 3.0980807,41.101363 0,41.338213 Z"
           sodipodi:nodetypes="ccccccccc" /></g><path
         style="color:#000000;fill:#252e33;fill-opacity:1;stroke-linecap:round;stroke-linejoin:round;-inkscape-stroke:none;paint-order:fill markers stroke"
         d="M 1.9468793,52.501213 C 1.7270836,49.746214 -0.49281293,38.827095 10.82766,45.37313 c 11.320473,6.546035 18.258073,16.522422 18.770439,21.815473 1.133752,-0.527935 2.267504,-0.781246 3.401256,-0.535199 0,0 19.519863,-17.721401 23.532796,-21.443285 4.012933,-3.721884 8.11007,-9.10576 12.314682,-1.345443 4.204612,7.760317 3.25582,24.995338 -2.894316,32.030451 3.63551,4.503423 7.361551,8.688771 9.646684,13.839987 0,0 3.004735,0.127344 2.966811,4.270504 -0.03792,4.14316 -2.53488,4.245081 -2.53488,4.245081 0,0 6.398817,20.173751 3.718727,27.274101 -2.680091,7.10034 -13.61729,11.78604 -13.61729,11.78604 6.468956,10.49558 11.266956,21.1718 14.465834,32.0209 l -61.972391,9.4e-4 0.520782,-6.74883 c -7.80101,2.05839 -5.472268,-1.88461 -3.877449,-3.67109 1.594819,-1.78648 3.525295,-2.96909 5.846681,-4.4226 l -1.694117,-3.2455 c 0,0 -3.565384,-0.18248 -6.286873,-0.67085 -2.721489,-0.48836 -7.0534216,-4.19525 -7.4491528,-8.52289 -0.3957312,-4.32765 -1.2498436,-17.71769 -0.3061936,-28.49368 0,0 -1.5733214,0.78738 -1.7228742,-4.44676 -0.1495527,-5.23415 1.754387,-5.07778 1.5853309,-7.60586 C 4.1152749,84.653273 2.166675,55.256211 1.9468793,52.501213 Z"
         id="path35" /><path
         id="rect1-25"
         style="fill:#3b484f;fill-opacity:1;stroke-width:1.5875;stroke-linecap:round;stroke-linejoin:round;paint-order:fill markers stroke"
         d="m 32.252923,121.60336 c 5.06027,2.06287 9.954602,4.70652 14.512472,8.5278 0.892626,-3.81674 4.15648,-5.85506 6.961102,-8.2378 l 2.015907,4.61599 c 13.7565,13.83543 21.364294,28.2174 23.788102,43.06018 l -45.756645,-0.66119 c 1.135287,-4.96647 7.902768,-6.32257 0.223263,-16.93955 l -1.293512,-4.91334 2.848258,-6.02959 z"
         sodipodi:nodetypes="cccccccccc" /><path
         id="rect1-22"
         style="fill:#2a3742;fill-opacity:1;stroke-width:1.5875;stroke-linecap:round;stroke-linejoin:round;paint-order:fill markers stroke"
         d="m 31.581567,122.19255 9.298072,2.06943 3.076965,4.25243 c -4.184414,0.53141 -8.763616,0.54261 -12.586732,-1.49074 z"
         sodipodi:nodetypes="ccccc" /><path
         id="rect1-54"
         style="fill:#2a3742;fill-opacity:1;stroke-width:1.5875;stroke-linecap:round;stroke-linejoin:round;paint-order:fill markers stroke"
         d="m 48.743385,124.53161 6.713077,-1.96259 0.294388,3.8411 c -2.698839,1.46553 -5.814443,2.09752 -9.166314,2.25698 z"
         sodipodi:nodetypes="ccccc" /><path
         id="rect1-8"
         style="fill:#2a3742;fill-opacity:1;stroke-width:1.5875;stroke-linecap:round;stroke-linejoin:round;paint-order:fill markers stroke"
         d="m 42.02021,150.71261 c 7.452145,-0.20039 14.733779,-1.76487 22.021063,-3.28414 l 0.902933,8.08745 4.63489,14.13083 -5.474074,0.60438 -5.527043,-13.58893 c -4.690656,1.64039 -10.202087,2.04962 -15.532221,2.73079 z"
         sodipodi:nodetypes="cccccccc" /><path
         id="rect1-59"
         style="fill:#2a3742;fill-opacity:1;stroke-width:1.5875;stroke-linecap:round;stroke-linejoin:round;paint-order:fill markers stroke"
         d="m 33.060361,146.78063 2.236231,-5.15578 0.423763,14.32974 -2.024349,-4.59076 z"
         sodipodi:nodetypes="ccccc" /><path
         id="rect1-32"
         style="fill:#a03c3d;fill-opacity:0.605485;stroke-width:1.5875;stroke-linecap:round;stroke-linejoin:round;paint-order:fill markers stroke"
         d="m 102.39375,148.43124 h 17.70358 v 15.81291 h -17.70358 z" /><path
         style="color:#000000;fill:#ffe8e0;stroke-linecap:round;-inkscape-stroke:none;paint-order:fill markers stroke"
         d="m 68.832422,101.02336 c 2e-6,12.70618 -10.940433,23.00657 -24.436144,23.00657 -13.495711,0 -24.436145,-10.30039 -24.436143,-23.00657 1.932829,-3.796061 4.544378,-10.693251 9.162357,-17.920858 2.431381,8.676383 2.008585,13.277468 13.362897,10.24801 2.278369,-0.607894 7.358941,-5.526758 11.540006,-3.583854 0.130032,-2.400533 -3.289083,-11.90017 -5.118377,-15.324988 3.341965,3.689956 6.564148,5.150539 9.904411,9.093721 4.934995,5.825764 10.020993,11.713725 10.020993,17.487969 z"
         id="path32"
         sodipodi:nodetypes="csccsccsc" /><g
         id="g17"><g
           id="g16"><g
             id="g15"><path
               id="path8"
               style="fill:#ffffff;fill-opacity:1;stroke-width:2.93774;stroke-linecap:round;paint-order:fill markers stroke"
               d="m 40.896483,103.01838 c 0.03113,5.94455 -3.672481,10.78742 -8.272241,10.81686 -5.451626,-0.16487 -9.863018,-8.08282 -9.313003,-12.82302 4.839637,-4.233834 11.192839,-5.09781 16.325424,-3.619167 0.788851,1.633647 1.249005,3.560127 1.25982,5.625327 z"
               sodipodi:nodetypes="ssccs" /><g
               id="g7"><path
                 style="color:#000000;fill:#252e33;stroke-linecap:round;-inkscape-stroke:none;paint-order:fill markers stroke"
                 d="m 39.283192,106.26014 a 6.3976827,6.3976827 0 0 1 -6.397683,6.39768 6.3976827,6.3976827 0 0 1 -6.397682,-6.39768 6.3976827,6.3976827 0 0 1 6.397682,-6.397683 6.3976827,6.3976827 0 0 1 6.397683,6.397683 z"
                 id="path6" /><ellipse
                 style="fill:#656d71;fill-opacity:1;stroke:none;stroke-width:3.55755;stroke-linecap:round;stroke-linejoin:miter;stroke-dasharray:none;stroke-opacity:1;paint-order:fill markers stroke"
                 id="path3"
                 ry="1.9563429"
                 rx="3.1654294"
                 cy="114.19017"
                 cx="3.981271"
                 transform="rotate(-15.189909)" /><path
                 style="color:#000000;fill:#000000;stroke-linecap:round;-inkscape-stroke:none;paint-order:fill markers stroke"
                 d="m 32.884766,98.408203 c -4.319792,0 -7.851563,3.531767 -7.851563,7.851567 0,4.31979 3.531771,7.85351 7.851563,7.85351 4.319792,0 7.853515,-3.53372 7.853515,-7.85351 0,-4.3198 -3.533723,-7.851567 -7.853515,-7.851567 z m 0,2.910157 c 2.746886,0 4.943359,2.19452 4.943359,4.94141 0,2.74688 -2.196473,4.94335 -4.943359,4.94336 -2.746886,0 -4.941407,-2.19648 -4.941407,-4.94336 0,-2.74689 2.194521,-4.94141 4.941407,-4.94141 z"
                 id="path7" /></g><path
               style="fill:none;fill-opacity:1;stroke:#000000;stroke-width:2.91042;stroke-linecap:round;stroke-linejoin:miter;stroke-dasharray:none;stroke-opacity:1;paint-order:fill markers stroke"
               d="m 22.999937,101.50876 c 3.748646,-3.216778 7.382916,-6.395754 16.224762,-4.279054"
               id="path9"
               sodipodi:nodetypes="cc" /></g><g
             id="g11"><path
               id="path8-0"
               style="fill:#ffffff;fill-opacity:1;stroke-width:2.99374;stroke-linecap:round;paint-order:fill markers stroke"
               d="m 65.612183,97.770058 c 0.0303,6.341862 -3.574875,11.508422 -8.052383,11.539832 -4.477508,0.0314 -8.13181,-5.08423 -8.16211,-11.426097 -0.0042,-0.871673 0.06035,-1.721142 0.186372,-2.538125 4.039517,-2.585679 7.958915,-5.365836 15.0111,-3.073864 0.639432,1.630102 1.007491,3.503522 1.017021,5.498254 z"
               sodipodi:nodetypes="sssccs" /><g
               id="g8"><path
                 style="color:#000000;fill:#252e33;stroke-linecap:round;-inkscape-stroke:none;paint-order:fill markers stroke"
                 d="m 63.455777,102.21447 a 5.8667192,5.8667192 0 0 1 -5.866719,5.86672 5.8667192,5.8667192 0 0 1 -5.866719,-5.86672 5.8667192,5.8667192 0 0 1 5.866719,-5.866719 5.8667192,5.8667192 0 0 1 5.866719,5.866719 z"
                 id="path4" /><ellipse
                 style="fill:#656d71;fill-opacity:1;stroke:none;stroke-width:3.16927;stroke-linecap:round;stroke-linejoin:miter;stroke-dasharray:none;stroke-opacity:1;paint-order:fill markers stroke"
                 id="path3-5"
                 ry="1.7428231"
                 rx="2.819947"
                 cy="116.78628"
                 cx="28.959505"
                 transform="rotate(-15.189909)" /><path
                 style="color:#000000;fill:#000000;stroke-linecap:round;-inkscape-stroke:none;paint-order:fill markers stroke"
                 d="m 57.589844,94.892578 c -4.026549,0 -7.322266,3.295717 -7.322266,7.322262 0,4.02655 3.295717,7.32227 7.322266,7.32227 4.026548,0 7.320312,-3.29572 7.320312,-7.32227 0,-4.026545 -3.293764,-7.322262 -7.320312,-7.322262 z m 0,2.910156 C 60.043488,97.802734 62,99.7612 62,102.21484 c 0,2.45365 -1.956512,4.41211 -4.410156,4.41211 -2.453644,0 -4.41211,-1.95846 -4.41211,-4.41211 0,-2.45364 1.958466,-4.412106 4.41211,-4.412106 z"
                 id="path5" /></g><path
               style="fill:none;fill-opacity:1;stroke:#000000;stroke-width:2.91042;stroke-linecap:round;stroke-linejoin:miter;stroke-dasharray:none;stroke-opacity:1;paint-order:fill markers stroke"
               d="m 49.463099,96.428626 c 3.748646,-3.216778 7.204622,-5.80144 16.105899,-2.971564"
               id="path9-6"
               sodipodi:nodetypes="cc" /></g></g><g
           id="g14"><path
             style="color:#000000;fill:#dd877c;stroke-linecap:round;stroke-linejoin:round;-inkscape-stroke:none;paint-order:fill markers stroke"
             d="m 50.751337,111.17537 c -1.432652,0.58785 -2.76036,0.33616 -4.08763,0.081 -1.960534,1.05667 -3.584045,1.77631 -4.897059,2.18546 1.064327,10.16725 6.314387,8.45617 7.446767,1.82122"
             id="path13" /><path
             id="rect1-3"
             style="fill:#ffada5;fill-opacity:1;stroke-width:1.5875;stroke-linecap:round;stroke-linejoin:round;paint-order:fill markers stroke"
             d="m 41.692827,113.61973 5.455594,-2.25251 c 2.56185,2.33091 1.796634,7.74249 -0.837963,9.19619 -2.634596,1.45369 -4.399506,-3.69013 -4.617631,-6.94368 z"
             sodipodi:nodetypes="cczc" /><path
             style="color:#000000;fill:#000000;stroke-linecap:round;stroke-linejoin:round;-inkscape-stroke:none;paint-order:fill markers stroke"
             d="m 50.400391,110.31836 c -1.160879,0.47633 -2.236797,0.28416 -3.5625,0.0293 a 0.92613427,0.92613427 0 0 0 -0.613282,0.0937 c -1.927155,1.03868 -3.508815,1.73529 -4.734375,2.11718 a 0.92613427,0.92613427 0 0 0 -0.644531,0.98047 c 0.274569,2.62289 0.811911,4.52831 1.568359,5.86524 0.756449,1.33692 1.840962,2.16535 3.042969,2.17578 1.202008,0.0104 2.241398,-0.74815 3.017578,-1.83399 0.776181,-1.08584 1.350396,-2.55891 1.652344,-4.32812 a 0.92604166,0.92604166 0 0 0 -0.757812,-1.06836 0.92604166,0.92604166 0 0 0 -1.06836,0.75781 c -0.264241,1.54827 -0.772085,2.77721 -1.332031,3.56055 -0.559946,0.78334 -1.111,1.06193 -1.496094,1.05859 -0.385094,-0.003 -0.8846,-0.23993 -1.447265,-1.23437 -0.504794,-0.89216 -0.947495,-2.43745 -1.22461,-4.50391 1.170544,-0.41787 2.453627,-0.9636 3.998047,-1.78125 1.266509,0.23937 2.722412,0.47346 4.304688,-0.17578 a 0.92604166,0.92604166 0 0 0 0.503906,-1.20703 0.92604166,0.92604166 0 0 0 -1.207031,-0.50586 z"
             id="path14" /></g></g><ellipse
         style="fill:#151d23;fill-opacity:1;stroke:none;stroke-width:0.803109;stroke-linecap:round;stroke-linejoin:round;stroke-dasharray:none;stroke-opacity:1;paint-order:fill markers stroke"
         id="path39"
         cx="66.180901"
         cy="62.197353"
         rx="2.3674414"
         ry="1.1050392"
         transform="matrix(0.86507577,0.50164121,-0.52680133,0.84998844,0,0)" /><path
         id="rect1-50"
         style="fill:#151d23;fill-opacity:1;stroke-width:1.5875;stroke-linecap:round;stroke-linejoin:round;paint-order:fill markers stroke"
         d="m 65.827377,89.968608 c 0,0 1.327214,0.608367 3.384184,1.315821 0.58099,0.19982 2.239251,-0.128197 3.204391,0.515306 0.915194,0.6102 1.407573,2.133845 2.306356,2.442964 1.84662,0.635108 3.446889,-0.02936 3.446889,-0.02936 l -1.925039,5.885321 -3.484742,0.31978 c -0.632091,9.37342 0.648342,20.20936 -2.231169,27.86416 3.669087,0.16786 7.575237,-3.25934 9.875016,-6.08069 1.25715,5.10492 -6.760547,13.18222 -13.99376,14.89278 L 54.824601,123.09553 C 69.496673,115.50918 68.960888,103.1468 65.827377,89.968608 Z"
         sodipodi:nodetypes="cssscccccccc" /><ellipse
         style="fill:#151d23;fill-opacity:1;stroke:none;stroke-width:0.908267;stroke-linecap:round;stroke-linejoin:round;stroke-dasharray:none;stroke-opacity:1;paint-order:fill markers stroke"
         id="path39-0"
         cx="67.113831"
         cy="84.948891"
         rx="3.0134828"
         ry="1.110371"
         transform="matrix(0.9651879,0.26155749,-0.49721845,0.86762539,0,0)" /><path
         id="rect1-51"
         style="fill:#151d23;fill-opacity:1;stroke-width:1.5875;stroke-linecap:round;stroke-linejoin:round;paint-order:fill markers stroke"
         d="m 31.896666,90.107216 2.229071,-0.393753 -0.183292,-6.417473 3.011359,5.637294 15.769516,-5.301011 1.252487,6.439775 -3.822364,-1.852655 -2.37789,3.655171 -15.025119,3.373453 z"
         sodipodi:nodetypes="cccccccccc" /><path
         id="rect1-80"
         style="fill:#151d23;fill-opacity:1;stroke-width:1.5875;stroke-linecap:round;stroke-linejoin:round;paint-order:fill markers stroke"
         d="M 33.420779,66.070753 59.094553,42.757935 43.881659,66.242152 Z"
         sodipodi:nodetypes="cccc" /><path
         id="rect1-2"
         style="fill:#151d23;fill-opacity:1;stroke-width:1.5875;stroke-linecap:round;stroke-linejoin:round;paint-order:fill markers stroke"
         d="m 18.25625,155.83958 15.05601,-4.84555 3.739789,7.94263 -4.482102,-4.88199 -1.650505,2.10927 c 1.244606,7.49382 -3.021275,12.68845 -4.550808,13.89001 H 18.25625 l 1.339386,-8.09983 -4.878016,1.16002 -0.657518,-3.16098 z"
         sodipodi:nodetypes="ccccccccccc" /><path
         id="rect1-4"
         style="fill:#151d23;fill-opacity:1;stroke-width:1.5875;stroke-linecap:round;stroke-linejoin:round;paint-order:fill markers stroke"
         d="M 3.4978404,58.811003 9.8104733,95.884291 5.1658114,104.59926 Z"
         sodipodi:nodetypes="cccc" /><path
         id="rect1-48"
         style="fill:#151d23;fill-opacity:1;stroke-width:1.5875;stroke-linecap:round;stroke-linejoin:round;paint-order:fill markers stroke"
         d="m 4.7578898,109.68851 c 0,0 1.6044899,0.22752 3.310295,-0.69253 1.0066092,-0.54293 1.7792544,-2.85471 2.9261502,-3.83038 1.168468,-0.99403 2.713454,-0.65615 3.983805,-1.65683 1.140972,-0.89876 1.577496,-3.682575 2.55792,-4.97328 0.787231,-1.036372 2.193324,-0.663104 2.573126,-0.950378 2.772356,-2.096945 1.282841,-0.478276 1.282841,-0.478276 l -0.440359,3.734504 -3.341451,6.02935 -6.875713,5.45793 -4.5297217,1.59766 z"
         sodipodi:nodetypes="cssssscccccc" /><path
         id="rect1-7"
         style="fill:#151d23;fill-opacity:1;stroke-width:1.5875;stroke-linecap:round;stroke-linejoin:round;paint-order:fill markers stroke"
         d="m 6.0656136,113.57171 7.1805474,-3.18879 c -0.03031,1.69625 1.384884,4.32678 -1.624216,6.65014 0,0 -0.809879,20.22814 0.896869,23.11787 1.706748,2.88973 8.748862,4.70599 8.748862,4.70599 -0.308127,-3.69235 -1.180844,-7.38469 -2.161779,-11.07703 2.572879,4.38497 5.574184,9.25691 8.315384,13.30524 -6.165251,4.74153 -11.42463,6.89301 -20.7816839,-1.37387 C 5.1728133,135.70666 4.4882542,125.2675 6.0656136,113.57171 Z"
         sodipodi:nodetypes="ccczccccc" /><path
         id="rect1-30"
         style="fill:#151d23;fill-opacity:1;stroke-width:1.5875;stroke-linecap:round;stroke-linejoin:round;paint-order:fill markers stroke"
         d="m 12.911618,108.39884 4.245881,-2.0254 c -0.327304,6.63213 -0.271733,13.11112 0,19.50364 -1.320408,-5.14587 -2.256364,-10.75309 -4.110854,-15.25806 z"
         sodipodi:nodetypes="ccccc" /><g
         id="g42"><path
           id="path42-8"
           style="fill:#255cb0;fill-opacity:1;stroke:none;stroke-width:2.38125;stroke-linecap:round;stroke-linejoin:round;stroke-opacity:0.276371;paint-order:fill markers stroke"
           d="m 32.250516,149.6916 c 0.09933,1.46054 -2.34243,1.60251 -5.150925,2.37515 -2.956213,0.81328 -5.523623,2.73605 -6.123878,0.80125 -0.509784,-1.64318 1.760549,-2.79662 4.693065,-3.69149 3.09463,-0.94433 6.482798,-0.93977 6.581738,0.51509 z"
           sodipodi:nodetypes="sssss" /><path
           id="path42"
           style="fill:#c74742;fill-opacity:1;stroke:none;stroke-width:2.38125;stroke-linecap:round;stroke-linejoin:round;stroke-opacity:0.276371;paint-order:fill markers stroke"
           d="m 32.250516,149.6916 c 0.09107,1.33911 -1.953967,1.56979 -4.459263,2.19439 0,0 -3.275407,-2.32297 -3.28384,-2.32695 0.3711,-0.13275 0.760031,-0.26006 1.161365,-0.38253 3.094627,-0.94434 6.482794,-0.93977 6.581738,0.51509 z"
           sodipodi:nodetypes="sccss" /></g><path
         id="rect1-0"
         style="fill:#ffffff;fill-opacity:1;stroke-width:1.5875;stroke-linecap:round;stroke-linejoin:round;paint-order:fill markers stroke"
         d="M 7.1340798,57.191386 C 6.7951405,55.336716 1.1874736,45.000064 9.8620091,48.842892 18.536545,52.685719 25.250518,62.710563 27.333601,68.356676 l -13.400232,8.950963 c 0,0 -6.4603499,-18.261583 -6.7992892,-20.116253 z"
         sodipodi:nodetypes="zzccz" /><path
         id="rect1-26"
         style="fill:#ffffff;fill-opacity:1;stroke-width:1.5875;stroke-linecap:round;stroke-linejoin:round;paint-order:fill markers stroke"
         d="m 61.293669,47.340456 c 0.558843,-1.863408 3.396756,-6.027104 5.752136,1.035642 2.355381,7.062746 0.544726,19.189429 -3.531401,25.766211 l -9.613286,-5.594352 c 0,0 6.833708,-19.344093 7.392551,-21.207501 z"
         sodipodi:nodetypes="zzccz" /><g
         id="g45"><path
           style="fill:none;fill-opacity:1;stroke:#387bd7;stroke-width:1.5875;stroke-linecap:round;stroke-linejoin:round;stroke-dasharray:none;stroke-opacity:1;paint-order:fill markers stroke"
           d="m 13.526431,77.250948 c 0,0 -2.149169,-8.517691 -3.9076356,-16.306863 -1.7584662,-7.789172 1.4291766,-8.48732 5.2602786,-3.832488 3.831102,4.654832 7.589831,13.902164 7.589831,13.902164"
           id="path43"
           sodipodi:nodetypes="czzc" /><path
           style="color:#000000;fill:#e85e57;fill-opacity:1;stroke-linecap:round;stroke-linejoin:round;-inkscape-stroke:none;paint-order:fill markers stroke"
           d="m 10.249916,67.180164 c 1.327094,5.593033 2.505943,10.265149 2.505943,10.265148 0.106902,0.425857 0.539227,0.684027 0.964844,0.576172 0.425857,-0.106902 0.684026,-0.539226 0.576172,-0.964843 0,0 -1.551943,-6.147112 -3.095322,-12.765073 z"
           id="path43-2"
           sodipodi:nodetypes="cccccc" /><path
           style="color:#000000;fill:#e7524b;fill-opacity:1;stroke-linecap:round;stroke-linejoin:round;-inkscape-stroke:none;paint-order:fill markers stroke"
           d="m 17.207121,62.028779 c 2.511062,4.383649 4.527254,9.283721 4.527254,9.283721 0.164655,0.40597 0.627081,0.60178 1.033203,0.4375 0.407043,-0.164652 0.60308,-0.62849 0.4375,-1.035156 0,0 -1.601864,-3.987979 -3.833423,-8.101702 z"
           id="path43-27"
           sodipodi:nodetypes="ccsccc" /></g><g
         id="g46"><path
           style="fill:none;fill-opacity:1;stroke:#377bd8;stroke-width:1.5875;stroke-linecap:round;stroke-linejoin:round;stroke-dasharray:none;stroke-opacity:1;paint-order:fill markers stroke"
           d="m 59.666589,71.239202 c 0,0 4.281715,-9.580442 3.757342,-16.006276 -0.524372,-6.425835 -3.607048,-3.381607 -3.607048,-3.381607"
           id="path44"
           sodipodi:nodetypes="czc" /><path
           style="color:#000000;fill:#e7534c;fill-opacity:1;stroke-linecap:round;stroke-linejoin:round;-inkscape-stroke:none;paint-order:fill markers stroke"
           d="m 62.068825,61.326585 c -0.301202,1.414194 -0.685749,2.812662 -1.084437,4.081605 -0.990532,3.152665 -2.042969,5.507813 -2.042969,5.507813 -0.179113,0.400189 1.63e-4,0.869803 0.400391,1.048828 0.400721,0.178869 0.870545,-0.0014 1.048828,-0.402344 0,0 1.090144,-2.435679 2.109375,-5.679688 0.208423,-0.66337 0.414982,-1.360506 0.609338,-2.079098 z"
           id="path44-1"
           sodipodi:nodetypes="cscccscc" /></g><path
         id="rect1-75"
         style="fill:#ffeb00;fill-opacity:1;stroke-width:1.5875;stroke-linecap:round;stroke-linejoin:round;paint-order:fill markers stroke"
         d="m 18.386816,52.386588 c 3.673762,3.828539 9.135913,8.900265 11.143437,15.000946 l -2.633971,0.548464 c -0.97823,-4.384816 -3.768797,-10.388584 -8.509466,-15.54941 z"
         sodipodi:nodetypes="cccc" /><path
         id="rect1-75-4"
         style="fill:#ffeb00;fill-opacity:1;stroke-width:1.5875;stroke-linecap:round;stroke-linejoin:round;paint-order:fill markers stroke"
         d="m 70.344918,55.585773 c -0.484233,5.682184 1.621784,10.907076 -4.952059,19.280018 l -0.791626,-1.13585 c 3.655895,-4.164304 4.162063,-8.011963 5.743685,-18.144168 z"
         sodipodi:nodetypes="cccc" /><path
         id="rect1-75-0"
         style="fill:#ffeb00;fill-opacity:1;stroke-width:1.5875;stroke-linecap:round;stroke-linejoin:round;paint-order:fill markers stroke"
         d="m 74.357571,90.096378 3.359841,0.08127 0.04063,7.442343 h -3.400474 c 1.36816,-2.469237 1.160179,-5.149748 0,-7.52361 z"
         sodipodi:nodetypes="cccccc" /><path
         id="rect1-75-20"
         style="fill:#ffeb00;fill-opacity:1;stroke-width:1.5875;stroke-linecap:round;stroke-linejoin:round;paint-order:fill markers stroke"
         d="m 74.020914,98.867926 2.418608,-0.0119 3.953735,18.588594 -2.396992,11.56369 -6.917114,3.97683 c 6.624797,-4.27647 5.086049,-19.74842 2.941763,-34.117213 z"
         sodipodi:nodetypes="cccccc" /><path
         id="rect1-75-9"
         style="fill:#ffeb00;fill-opacity:1;stroke-width:1.5875;stroke-linecap:round;stroke-linejoin:round;paint-order:fill markers stroke"
         d="m 61.885417,134.44618 c 6.902676,6.70963 15.647529,19.4083 18.942192,35.6307 l -4.297421,-0.0729 c -2.211925,-13.30603 -7.362391,-24.17833 -14.644771,-35.5578 z"
         sodipodi:nodetypes="cccc" /><ellipse
         style="fill:#151d23;fill-opacity:1;stroke:none;stroke-width:1.00012;stroke-linecap:round;stroke-linejoin:round;stroke-dasharray:none;stroke-opacity:1;paint-order:fill markers stroke"
         id="path40"
         cx="101.11488"
         cy="28.87072"
         rx="1.2104226"
         ry="2.2191083"
         transform="rotate(37.33219)" /><path
         id="rect1-75-2"
         style="fill:#ffeb00;fill-opacity:1;stroke-width:1.5875;stroke-linecap:round;stroke-linejoin:round;paint-order:fill markers stroke"
         d="m 64.389307,76.704677 c 3.363544,2.226661 5.68076,4.832174 7.220054,7.273453 l -3.778945,-0.237454 c 0.07337,-1.31365 -1.248646,-3.888107 -3.441109,-7.035999 z"
         sodipodi:nodetypes="cccc" /><g
         id="g51"><path
           style="fill:none;fill-opacity:0.405063;stroke:#ed524b;stroke-width:1.5875;stroke-linecap:round;stroke-linejoin:round;stroke-dasharray:none;stroke-opacity:1;paint-order:fill markers stroke"
           d="m 34.58652,124.01495 c 1.42863,0.81851 2.771404,0.95016 4.142514,1.3085 1.116784,1.0577 2.325284,2.11668 3.681669,3.05458"
           id="path46"
           sodipodi:nodetypes="ccc" /><path
           style="fill:none;fill-opacity:0.405063;stroke:#367bdc;stroke-width:1.5875;stroke-linecap:round;stroke-linejoin:round;stroke-dasharray:none;stroke-opacity:1;paint-order:fill markers stroke"
           d="m 53.429316,124.13878 c -0.589539,0.28397 -2.018549,0.77255 -2.91867,0.92225 -2.363049,2.93665 -3.071104,4.93011 -4.029925,7.07083"
           id="path47"
           sodipodi:nodetypes="ccc" /><path
           style="fill:none;fill-opacity:0.405063;stroke:#194b91;stroke-width:1.5875;stroke-linecap:round;stroke-linejoin:round;stroke-dasharray:none;stroke-opacity:1;paint-order:fill markers stroke"
           d="m 45.323989,132.80964 c 0.820164,-0.0143 1.489646,0.37669 1.986362,1.2322"
           id="path50-1-9"
           sodipodi:nodetypes="cc" /><circle
           style="fill:none;fill-opacity:0.405063;stroke:#367bdc;stroke-width:1.5875;stroke-linecap:round;stroke-linejoin:round;stroke-dasharray:none;stroke-opacity:1;paint-order:fill markers stroke"
           id="path48-6"
           cx="45.908806"
           cy="134.13614"
           r="1.9170713" /><path
           style="fill:none;fill-opacity:0.405063;stroke:#ed524b;stroke-width:1.5875;stroke-linecap:round;stroke-linejoin:round;stroke-dasharray:none;stroke-opacity:1;paint-order:fill markers stroke"
           id="path48-6-1"
           sodipodi:type="arc"
           sodipodi:cx="-14.740589"
           sodipodi:cy="-137.77187"
           sodipodi:rx="1.9170713"
           sodipodi:ry="1.9170713"
           sodipodi:start="3.5740004"
           sodipodi:end="4.5012957"
           sodipodi:arc-type="arc"
           d="m -16.481212,-138.57523 a 1.9170713,1.9170713 0 0 1 1.338941,-1.07115"
           sodipodi:open="true"
           transform="rotate(167.92149)" /><path
           style="fill:none;fill-opacity:0.405063;stroke:#194b91;stroke-width:1.5875;stroke-linecap:round;stroke-linejoin:round;stroke-dasharray:none;stroke-opacity:1;paint-order:fill markers stroke"
           d="m 41.656269,136.5988 c 0.819423,-0.0377 1.499793,0.33401 2.020727,1.175"
           id="path50-1"
           sodipodi:nodetypes="cc" /><circle
           style="fill:none;fill-opacity:0.405063;stroke:#367bdc;stroke-width:1.5875;stroke-linecap:round;stroke-linejoin:round;stroke-dasharray:none;stroke-opacity:1;paint-order:fill markers stroke"
           id="path48-4"
           cx="42.129181"
           cy="137.82925"
           r="1.9170713" /><path
           style="fill:none;fill-opacity:0.405063;stroke:#ed524b;stroke-width:1.5875;stroke-linecap:round;stroke-linejoin:round;stroke-dasharray:none;stroke-opacity:1;paint-order:fill markers stroke"
           id="path48-6-14"
           sodipodi:type="arc"
           sodipodi:cx="-11.283057"
           sodipodi:cy="-140.37079"
           sodipodi:rx="1.9170713"
           sodipodi:ry="1.9170713"
           sodipodi:start="3.6052403"
           sodipodi:end="4.5945169"
           sodipodi:arc-type="arc"
           d="m -12.997738,-141.22813 a 1.9170713,1.9170713 0 0 1 1.489234,-1.04643"
           sodipodi:open="true"
           transform="rotate(168.269)" /><path
           style="fill:none;fill-opacity:0.405063;stroke:#d01d15;stroke-width:1.5875;stroke-linecap:round;stroke-linejoin:round;stroke-dasharray:none;stroke-opacity:1;paint-order:fill markers stroke"
           d="m 41.624625,129.18445 c 0.81259,0.11213 1.413914,0.60148 1.773039,1.52326"
           id="path50"
           sodipodi:nodetypes="cc" /><path
           style="fill:none;fill-opacity:0.405063;stroke:#d01d15;stroke-width:1.5875;stroke-linecap:round;stroke-linejoin:round;stroke-dasharray:none;stroke-opacity:1;paint-order:fill markers stroke"
           d="m 38.614619,132.58221 c 0.789074,0.22411 1.316453,0.79239 1.543804,1.75517"
           id="path50-2"
           sodipodi:nodetypes="cc" /><circle
           style="fill:none;fill-opacity:0.405063;stroke:#ed524b;stroke-width:1.5875;stroke-linecap:round;stroke-linejoin:round;stroke-dasharray:none;stroke-opacity:1;paint-order:fill markers stroke"
           id="path48"
           cx="42.023109"
           cy="130.66623"
           r="1.9170713" /><path
           style="fill:none;fill-opacity:0.405063;stroke:#367bdc;stroke-width:1.5875;stroke-linecap:round;stroke-linejoin:round;stroke-dasharray:none;stroke-opacity:1;paint-order:fill markers stroke"
           id="path48-60"
           sodipodi:type="arc"
           sodipodi:cx="-40.952892"
           sodipodi:cy="-134.2057"
           sodipodi:rx="1.9170713"
           sodipodi:ry="1.9170713"
           sodipodi:start="0.27829965"
           sodipodi:end="1.2050686"
           sodipodi:arc-type="arc"
           d="m -39.109582,-133.67904 a 1.9170713,1.9170713 0 0 1 -1.15771,1.26362"
           sodipodi:open="true"
           transform="rotate(178.38794)" /><circle
           style="fill:none;fill-opacity:0.405063;stroke:#ed524b;stroke-width:1.5875;stroke-linecap:round;stroke-linejoin:round;stroke-dasharray:none;stroke-opacity:1;paint-order:fill markers stroke"
           id="path48-0"
           cx="38.707653"
           cy="133.88457"
           r="1.9170713" /><path
           style="fill:none;fill-opacity:0.405063;stroke:#367bdc;stroke-width:1.5875;stroke-linecap:round;stroke-linejoin:round;stroke-dasharray:none;stroke-opacity:1;paint-order:fill markers stroke"
           id="path48-0-9"
           sodipodi:type="arc"
           sodipodi:cx="-42.074257"
           sodipodi:cy="-136.35788"
           sodipodi:rx="1.9170713"
           sodipodi:ry="1.9170713"
           sodipodi:start="0.31656924"
           sodipodi:end="1.2732346"
           sodipodi:arc-type="arc"
           d="m -40.252447,-135.76108 a 1.9170713,1.9170713 0 0 1 -1.259744,1.23602"
           sodipodi:open="true"
           transform="rotate(-179.59284)" /></g><path
         id="rect1-75-3"
         style="fill:#dfbbb1;fill-opacity:1;stroke-width:1.5875;stroke-linecap:round;stroke-linejoin:round;paint-order:fill markers stroke"
         d="m 41.145119,125.04563 7.884829,-0.89601 -2.874691,6.18082 z"
         sodipodi:nodetypes="cccc" /><ellipse
         style="fill:#151d23;fill-opacity:1;stroke:none;stroke-width:0.803109;stroke-linecap:round;stroke-linejoin:round;stroke-dasharray:none;stroke-opacity:1;paint-order:fill markers stroke"
         id="path39-3"
         cx="-36.261669"
         cy="103.85635"
         rx="2.3674414"
         ry="1.1050392"
         transform="matrix(0.53788664,-0.84301718,0.82687612,0.5623841,0,0)" /><ellipse
         style="fill:#151d23;fill-opacity:1;stroke:none;stroke-width:0.994889;stroke-linecap:round;stroke-linejoin:round;stroke-dasharray:none;stroke-opacity:1;paint-order:fill markers stroke"
         id="path37"
         cx="10.542874"
         cy="87.189041"
         rx="1.8525484"
         ry="2.2088075"
         transform="rotate(-16.672406)" /><ellipse
         style="fill:#151d23;fill-opacity:1;stroke:none;stroke-width:1.00012;stroke-linecap:round;stroke-linejoin:round;stroke-dasharray:none;stroke-opacity:1;paint-order:fill markers stroke"
         id="path38"
         cx="23.953173"
         cy="85.489838"
         rx="2.2876832"
         ry="2.5781829"
         transform="rotate(-11.216776)" /><ellipse
         style="fill:#151d23;fill-opacity:1;stroke:none;stroke-width:1.14819;stroke-linecap:round;stroke-linejoin:round;stroke-dasharray:none;stroke-opacity:1;paint-order:fill markers stroke"
         id="path38-1"
         cx="-6.588542"
         cy="89.90538"
         rx="2.5770044"
         ry="3.0165863"
         transform="matrix(0.79155054,-0.61110371,0.56396862,0.82579622,0,0)" /><path
         style="fill:none;fill-opacity:0.478431;stroke:#000000;stroke-width:2.38125;stroke-linecap:round;stroke-linejoin:round;stroke-dasharray:none;stroke-opacity:1;paint-order:fill markers stroke"
         d="m 23.449466,90.78428 c 4.380543,-3.491826 9.356712,-4.151594 12.996091,-3.814072"
         id="path41"
         sodipodi:nodetypes="cc" /><path
         style="fill:none;fill-opacity:0.478431;stroke:#000000;stroke-width:2.38125;stroke-linecap:round;stroke-linejoin:round;stroke-dasharray:none;stroke-opacity:1;paint-order:fill markers stroke"
         d="m 49.196844,85.078993 c 2.87375,-1.702509 7.614483,-2.456452 11.018425,-1.365533"
         id="path41-6"
         sodipodi:nodetypes="cc" /><g
         id="g52"><path
           style="color:#000000;fill:#000000;stroke-linecap:round;stroke-linejoin:round;-inkscape-stroke:none;paint-order:fill markers stroke"
           d="m 64.169922,38.460937 c -0.736598,4.06e-4 -1.455324,0.158051 -2.103516,0.423829 -2.592767,1.063109 -4.592435,3.466861 -6.523437,5.257812 -3.909774,3.626206 -22.492107,20.497823 -23.126953,21.074219 -0.595265,-0.02939 -1.177765,-0.02638 -1.742188,0.105469 C 29.94341,62.488859 28.155179,59.245063 25.398437,55.835937 22.071301,51.721433 17.382683,47.482176 11.556641,44.113281 8.5925985,42.399331 6.382683,41.689188 4.4804687,41.890625 c -1.9022142,0.201437 -3.246211,1.594453 -3.7851562,3.054687 -0.53894517,1.460235 -0.56645679,3.028044 -0.5,4.427735 0.0664568,1.399691 0.2552156,2.673004 0.30078125,3.24414 0.20875573,2.61662 2.16798575,32.132061 3.29492185,48.984373 0.060395,0.90316 -0.1596508,1.02234 -0.6523437,2.07422 -0.4926929,1.05189 -1.0153467,2.68368 -0.9355469,5.47656 0.078997,2.76478 0.4298635,4.16528 1.2890625,5.11914 0.106379,0.1181 0.2606994,0.1005 0.3867188,0.19336 -0.8246356,10.75594 -0.033523,23.44344 0.3574218,27.71875 0.2382832,2.60582 1.6093113,4.8709 3.2539063,6.57813 1.644595,1.70723 3.5300196,2.91061 5.3886716,3.24414 2.49646,0.44799 4.85409,0.55681 5.613281,0.59961 l 0.722657,1.38672 c -1.846994,1.16726 -3.564706,2.30838 -5.03125,3.95117 -0.45864,0.51376 -0.957042,1.15922 -1.355469,1.89062 -0.398427,0.73141 -0.79121,1.56046 -0.570312,2.64649 0.110448,0.54301 0.456295,1.11946 0.941406,1.48242 0.48511,0.36296 1.047727,0.53576 1.644531,0.61133 0.693831,0.0879 1.786868,-0.19429 2.716797,-0.33985 l -0.384766,6.57383 c -0.06468,0.84509 0.603614,1.56645 1.451172,1.56641 h 61.970703 c 0.972377,4.1e-4 1.671649,-0.93456 1.396485,-1.86719 -3.104251,-10.52817 -7.738028,-22.4706 -13.869141,-32.64805 0.919197,-0.42598 2.181311,-0.93364 4.621094,-2.57031 3.189293,-2.13945 6.831582,-5.18691 8.365234,-9.25 0.817981,-2.16707 0.869444,-4.89234 0.638672,-7.88281 -0.230772,-2.99047 -0.790742,-6.22878 -1.431641,-9.23437 -1.138711,-5.34018 -2.276772,-8.906 -2.576172,-9.871099 0.172147,-0.103066 0.326866,-0.123069 0.494141,-0.267578 0.972383,-0.84004 1.763522,-2.399903 1.785156,-4.763672 0.02218,-2.423455 -0.962298,-4.064737 -2.0625,-4.875 C 77.476324,88.789068 77.000903,88.623544 76.589844,88.5 74.330482,83.724626 71.002836,79.803003 67.75,75.814453 70.68383,71.861427 72.276522,66.134918 72.734375,60.265625 73.230611,53.904284 72.466054,47.489078 70.126953,43.171875 68.995071,41.082796 67.799367,39.70649 66.373047,38.980469 65.659887,38.617458 64.90652,38.460532 64.169922,38.460937 Z m 0.882812,3.113282 c 0.649842,0.330781 1.543251,1.193299 2.513672,2.984375 1.865507,3.443106 2.730165,9.525454 2.265625,15.480468 -0.464539,5.955015 -2.262697,11.796294 -4.974609,14.898438 -0.464902,0.532009 -0.480552,1.321069 -0.03711,1.871094 3.66396,4.538664 7.283376,8.635269 9.449219,13.517578 0.224333,0.505102 0.71541,0.839548 1.267578,0.863281 0,0 0.304582,0.0096 0.697266,0.298828 0.392684,0.289199 0.892694,0.784206 0.876953,2.503906 -0.01629,1.779388 -0.491768,2.341182 -0.777344,2.587891 -0.285576,0.246709 -0.361328,0.216797 -0.361328,0.216797 -0.959196,0.03892 -1.618606,0.979549 -1.328125,1.894531 0,0 1.58054,4.987134 2.828125,10.837894 0.623793,2.92537 1.15977,6.06053 1.375,8.84961 0.215231,2.78907 0.06308,5.24971 -0.458984,6.63281 -1.146436,3.03724 -4.314349,5.8809 -7.263672,7.85937 -2.949323,1.97848 -5.566406,3.10157 -5.566406,3.10157 -0.816627,0.35079 -1.130855,1.34523 -0.664063,2.10156 6.033008,9.78827 10.537341,21.31381 13.6875,31.39023 H 20.197266 l 0.40039,-6.76914 c 0.07587,-0.99782 -0.85464,-1.77275 -1.822265,-1.51758 -1.856704,0.48992 -3.05246,0.57289 -3.566407,0.50782 -0.0094,-0.001 -8.42e-4,-6.9e-4 -0.0098,-0.002 0.02629,-0.0969 0.01886,-0.15463 0.183594,-0.45703 0.242973,-0.44603 0.633887,-0.96427 0.972656,-1.34375 1.418771,-1.58927 3.205169,-2.70248 5.533203,-4.16015 0.643331,-0.40315 0.868677,-1.2331 0.517578,-1.90625 l -1.693359,-3.2461 c -0.238896,-0.45699 -0.701781,-0.75344 -1.216797,-0.77929 0,0 -3.537485,-0.18992 -6.103516,-0.6504 -0.862834,-0.15483 -2.505967,-1.04822 -3.8066405,-2.39843 -1.3006734,-1.35021 -2.2937242,-3.1024 -2.4511719,-4.82422 -0.3881991,-4.24562 -1.2325059,-17.63874 -0.3046525,-28.23434 0.045078,-0.74917 -0.4869478,-1.40976 -1.2285156,-1.52539 -0.071125,-0.15692 -0.4281065,-0.91545 -0.4902344,-3.08984 -0.069753,-2.44126 0.2844387,-3.34772 0.6640625,-4.1582 0.3796239,-0.81049 1.0266295,-1.87703 0.9179688,-3.50196 C 5.566555,84.557858 3.6292727,55.278137 3.3984375,52.384766 3.3341054,51.578404 3.1613421,50.454249 3.1035156,49.236328 c -0.057826,-1.217921 0.028601,-2.487539 0.3222657,-3.283203 0.2936645,-0.795664 0.5027613,-1.07705 1.3613281,-1.167969 0.8585668,-0.09092 2.6163113,0.288592 5.3124996,1.847656 5.494419,3.177134 9.935289,7.199751 13.035157,11.033204 3.099867,3.833452 4.811682,7.555262 5.015625,9.662109 0.09649,0.999418 1.15213,1.603211 2.0625,1.179687 0.958682,-0.446413 1.743557,-0.591141 2.478515,-0.43164 0.459071,0.09885 0.937632,-0.02988 1.285156,-0.345703 0,0 19.495524,-17.697421 23.544922,-21.453125 2.081927,-1.930929 4.138254,-4.08 5.648438,-4.699219 0.755092,-0.309609 1.23297,-0.334687 1.882812,-0.0039 z M 5.2089844,112.14453 c 0.050933,0.003 0.062752,0.029 0.1132812,0.0449 -0.2003789,-0.0192 -0.402555,0.003 -0.59375,0.0664 0,0 0.2793155,-0.12202 0.4804688,-0.11133 z"
           id="path36"
           sodipodi:nodetypes="sssccsssssssssscsssccsssscccccccsssscsssccsssssssccccsssccssssccccccccssccccsscccsssssssssccccssssccccc" /><path
           style="fill:none;fill-opacity:0.717647;stroke:#000000;stroke-width:2.91042;stroke-linecap:round;stroke-linejoin:round;stroke-dasharray:none;stroke-opacity:1;paint-order:fill markers stroke"
           d="M 5.8280918,52.828832 C 10.280686,66.191981 12.286602,76.460351 14.476228,86.669365"
           id="path17"
           sodipodi:nodetypes="cc" /><path
           style="fill:none;fill-opacity:0.717647;stroke:#000000;stroke-width:2.91042;stroke-linecap:round;stroke-linejoin:round;stroke-dasharray:none;stroke-opacity:1;paint-order:fill markers stroke"
           d="m 15.943391,86.51546 c 0,0 -0.799736,-0.217915 -3.145142,2.54481 -0.647238,0.762402 0.331338,2.710263 -0.987199,4.841044 -1.065186,1.721359 -2.0482648,1.14977 -2.7324522,2.191463 -0.4957875,0.75485 -0.686062,5.242483 -1.1675839,6.004063 -1.1934252,1.88753 -3.1580782,1.98643 -3.1580782,1.98643 -0.8111846,2.87645 -0.7096553,5.88699 -0.2406551,8.60342 2.0112442,0.62439 4.2894644,0.44785 6.6180124,0.12032 0,0 0.26484,-1.49075 1.989534,-4.09784 0.354377,-0.53569 3.118921,0.85404 4.324516,-1.09281 0.692407,-1.11813 1.202665,-4.79164 1.979429,-6.24102 0.492234,-0.91847 2.140901,-1.31588 2.650819,-2.259456 0.451499,-0.835472 -0.07004,-2.042155 0.357439,-2.885718 0.480535,-0.94825 1.744615,-1.285187 2.218306,-2.198457 0.373013,-0.719163 -0.595336,-2.455141 -0.259355,-3.152262 0.584746,-1.213279 1.196143,-4.056921 1.783117,-5.02147 1.72893,-2.841075 3.245973,-2.77185 3.245973,-2.77185"
           id="path18"
           sodipodi:nodetypes="csssscccssssssssc" /><path
           style="fill:none;fill-opacity:0.717647;stroke:#000000;stroke-width:2.91042;stroke-linecap:round;stroke-linejoin:round;stroke-dasharray:none;stroke-opacity:1;paint-order:fill markers stroke"
           d="m 18.92171,102.70223 c 12.474457,20.48011 20.221172,36.53365 13.562381,43.96837 l 1.295774,5.44142 c 8.134245,5.7401 1.716685,14.63853 -1.295773,17.85525"
           id="path19"
           sodipodi:nodetypes="cccc" /><path
           style="fill:none;fill-opacity:0.717647;stroke:#000000;stroke-width:2.91042;stroke-linecap:round;stroke-linejoin:round;stroke-dasharray:none;stroke-opacity:1;paint-order:fill markers stroke"
           d="m 19.821338,151.06262 c 4.07205,-2.39194 7.641505,-2.9671 12.800411,-3.31004"
           id="path20"
           sodipodi:nodetypes="cc" /><path
           style="fill:none;fill-opacity:0.717647;stroke:#000000;stroke-width:2.91042;stroke-linecap:round;stroke-linejoin:round;stroke-dasharray:none;stroke-opacity:1;paint-order:fill markers stroke"
           d="m 33.350733,151.73295 c -3.664587,0.081 -7.448031,0.18681 -13.801542,3.90572"
           id="path21"
           sodipodi:nodetypes="cc" /><path
           style="fill:none;fill-opacity:0.717647;stroke:#000000;stroke-width:2.91042;stroke-linecap:round;stroke-linejoin:round;stroke-dasharray:none;stroke-opacity:1;paint-order:fill markers stroke"
           d="m 19.881402,160.25251 c -1.145651,3.21712 -1.143923,6.59814 -1.201293,9.97073"
           id="path22"
           sodipodi:nodetypes="cc" /><path
           style="color:#000000;fill:#000000;stroke-linecap:round;stroke-linejoin:round;-inkscape-stroke:none;paint-order:fill markers stroke"
           d="m 32.205078,120.89648 c -0.778027,0.19934 -1.247445,0.99133 -1.048828,1.76954 l 3.214703,12.55431 8.992328,35.11756 c 0.199315,0.77899 0.992634,1.24868 1.771485,1.04883 0.778022,-0.19934 1.247438,-0.99132 1.048828,-1.76953 l -7.406723,-28.9207 -4.802262,-18.75118 c -0.199344,-0.77802 -0.99132,-1.24744 -1.769531,-1.04883 z"
           id="path23"
           sodipodi:nodetypes="ccccccccc" /><path
           style="fill:none;fill-opacity:0.717647;stroke:#000000;stroke-width:2.91042;stroke-linecap:round;stroke-linejoin:round;stroke-dasharray:none;stroke-opacity:1;paint-order:fill markers stroke"
           d="m 55.254112,121.90082 0.227851,4.55704 c 18.203667,16.75483 21.023115,31.76407 24.835871,43.29189"
           id="path24"
           sodipodi:nodetypes="ccc" /><path
           style="fill:none;fill-opacity:0.717647;stroke:#000000;stroke-width:2.91042;stroke-linecap:round;stroke-linejoin:round;stroke-dasharray:none;stroke-opacity:1;paint-order:fill markers stroke"
           d="m 29.838447,78.829255 c -0.758981,4.844747 0.125082,10.407328 2.426312,16.003321 4.948965,-0.478141 10.555947,-0.889361 15.641953,-3.149041 l 1.548709,-3.87177 4.336383,2.42631 c 1.408042,-4.473333 0.0097,-9.554724 -5.317233,-16.364687"
           id="path25"
           sodipodi:nodetypes="cccccc" /><path
           style="fill:none;fill-opacity:0.717647;stroke:#000000;stroke-width:2.91042;stroke-linecap:round;stroke-linejoin:round;stroke-dasharray:none;stroke-opacity:1;paint-order:fill markers stroke"
           d="m 52.443909,79.49567 c 0,0 3.508282,0.195184 4.803971,1.856978 0.543273,0.696778 0.148384,1.237466 1.700237,2.95807 0.629807,0.698294 1.425002,0.353652 2.149923,1.149498 0.191294,0.210009 0.193275,0.988354 0.649087,1.270225 0.91218,0.564086 2.478794,0.69066 2.875776,1.150491 0.903469,1.046506 0.782493,3.646906 1.505915,4.669723 2.418746,3.419769 5.202859,2.488267 5.202859,2.488267 0.729251,2.099871 2.026771,3.592282 6.04798,2.173163 1.14691,-0.234917 2.064093,-4.850073 -0.504151,-6.895226 -1.484201,-0.731128 -1.65223,-0.2735 -2.999221,-1.004625 -1.037367,-0.563069 -1.878856,-3.43556 -3.070712,-4.511855 -0.919865,-0.830677 -2.110871,-0.384987 -2.976303,-0.33041"
           id="path26"
           sodipodi:nodetypes="csssssscccssc" /><path
           style="fill:none;fill-opacity:0.717647;stroke:#000000;stroke-width:2.91042;stroke-linecap:round;stroke-linejoin:round;stroke-dasharray:none;stroke-opacity:1;paint-order:fill markers stroke"
           d="m 62.461928,44.756183 -8.934844,23.68963"
           id="path27" /><path
           style="fill:none;fill-opacity:0.717647;stroke:#000000;stroke-width:2.91042;stroke-linecap:round;stroke-linejoin:round;stroke-dasharray:none;stroke-opacity:1;paint-order:fill markers stroke"
           d="M 12.938262,79.407282 C 27.639383,57.257135 63.827389,64.744154 75.905176,89.512366"
           id="path28"
           sodipodi:nodetypes="cc" /><path
           style="fill:none;fill-opacity:0.717647;stroke:#000000;stroke-width:2.91042;stroke-linecap:round;stroke-linejoin:round;stroke-dasharray:none;stroke-opacity:1;paint-order:fill markers stroke"
           d="m 40.086528,124.15001 c 3.45336,3.01907 4.224697,3.36754 6.057911,5.05513 1.341498,-2.58797 2.040488,-3.72288 3.629067,-5.61525"
           id="path29"
           sodipodi:nodetypes="ccc" /><path
           style="fill:none;fill-opacity:0.717647;stroke:#000000;stroke-width:2.91042;stroke-linecap:round;stroke-linejoin:round;stroke-dasharray:none;stroke-opacity:1;paint-order:fill markers stroke"
           d="m 60.011034,130.99183 -0.161319,6.93676"
           id="path30" /><path
           style="fill:none;fill-opacity:0.717647;stroke:#000000;stroke-width:2.91042;stroke-linecap:round;stroke-linejoin:round;stroke-dasharray:none;stroke-opacity:1;paint-order:fill markers stroke"
           d="m 58.283461,136.66229 c 4.419857,4.61375 7.093186,9.5111 5.110162,14.88161 -1.983024,5.37051 0.701561,11.17995 2.451495,18.36896"
           id="path31"
           sodipodi:nodetypes="czc" /><path
           style="fill:none;fill-opacity:0.717647;stroke:#000000;stroke-width:2.91042;stroke-linecap:round;stroke-linejoin:round;stroke-dasharray:none;stroke-opacity:1;paint-order:fill markers stroke"
           d="m 67.713166,94.903008 c 1.343142,10.510892 0.422836,20.419192 -0.06536,26.209442"
           id="path34"
           sodipodi:nodetypes="cc" /><path
           style="color:#000000;fill:#000000;stroke-linecap:round;-inkscape-stroke:none;paint-order:fill markers stroke"
           d="m 28.430184,120.30291 c 4.409243,3.26376 9.958421,5.20686 15.9663,5.20686 10.589463,0 19.752783,-6.03672 23.761159,-14.70167 l -1.037384,-6.71529 c -1.582834,10.41128 -11.10104,18.45602 -22.723775,18.45602 -6.672157,0 -12.650776,-2.65111 -16.832781,-6.87913 z"
           id="path33"
           sodipodi:nodetypes="csccscc" /><path
           style="fill:none;fill-opacity:0.405063;stroke:#000000;stroke-width:1.5875;stroke-linecap:round;stroke-linejoin:round;stroke-dasharray:none;stroke-opacity:1;paint-order:fill markers stroke"
           d="M 35.359451,122.54298 33.17227,129.9551"
           id="path49" /></g><path
         style="color:#000000;fill:#c6a37d;stroke-linecap:round;stroke-linejoin:round;-inkscape-stroke:none;paint-order:fill markers stroke"
         d="m 84.674269,160.364 2.276565,-2.44195 c 9.43015,6.79786 30.261396,10.71051 49.971036,2.97112 v 9.46291 H 84.674269 Z"
         id="path64" /><path
         style="color:#000000;fill:#252e33;stroke-linecap:round;stroke-linejoin:round;-inkscape-stroke:none;paint-order:fill markers stroke"
         d="m 98.414996,149.77951 c 11.820994,3.48376 26.674134,5.01691 38.506874,0.0872 v 10.23131 c -12.03936,5.37212 -34.21565,7.44802 -49.582848,-2.35473 0.282545,-4.57031 2.152407,-10.59365 11.075984,-7.96379 z"
         id="path62" /><path
         style="fill:none;fill-opacity:1;stroke:#000000;stroke-width:2.91042;stroke-linecap:round;stroke-linejoin:round;stroke-dasharray:none;stroke-opacity:1;paint-order:fill markers stroke"
         d="m 136.92187,103.56918 c -7.11984,4.76979 -10.91233,10.89003 -13.08226,13.61919 -2.13901,-4.89511 -3.45792,-17.872235 -8.39322,-21.53732 -8.35002,10.092 -11.49675,17.83126 -13.30247,23.12095"
         id="path58"
         sodipodi:nodetypes="cccc" /><path
         style="color:#000000;fill:#252e33;stroke-linecap:round;stroke-linejoin:round;-inkscape-stroke:none;paint-order:fill markers stroke"
         d="m 97.179842,148.33465 c -6.769574,-6.62005 -6.056445,-18.52431 2.369643,-27.15306 7.902795,-8.09286 22.323265,-12.39345 37.372385,0.64434 v 27.23386 c -16.18567,6.44421 -31.19283,7.63519 -39.741998,-0.72514 z"
         id="path60" /><path
         id="rect1-1"
         style="fill:#ffeb00;fill-opacity:1;stroke-width:1.5875;stroke-linecap:round;stroke-linejoin:round;paint-order:fill markers stroke"
         d="m 96.163722,146.96633 c -7.530793,-12.09851 1.202424,-23.09964 7.582548,-27.57912 -11.798657,14.8904 -7.686441,24.49377 -4.429572,29.29637 z"
         sodipodi:nodetypes="cccc" /><path
         style="fill:none;fill-opacity:1;stroke:#a53d3c;stroke-width:2.91042;stroke-linecap:round;stroke-linejoin:round;stroke-dasharray:none;stroke-opacity:0.996078;paint-order:fill markers stroke"
         d="m 111.38904,142.31468 3.00745,-3.00744 2.09954,4.14233"
         id="path55"
         sodipodi:nodetypes="ccc" /><path
         style="fill:none;fill-opacity:1;stroke:#ffffff;stroke-width:5.29167;stroke-linecap:round;stroke-linejoin:round;stroke-dasharray:none;stroke-opacity:1;paint-order:fill markers stroke"
         d="m 109.80021,123.02163 c -7.29425,3.66879 -9.79925,10.87275 -4.9935,16.96654"
         id="path56"
         sodipodi:nodetypes="cc" /><path
         style="color:#000000;fill:#7a9dc3;fill-opacity:1;stroke-linecap:round;stroke-linejoin:round;-inkscape-stroke:none;paint-order:fill markers stroke"
         d="m 100.21284,136.79977 c 0.48554,1.67643 1.3238,3.31585 2.51568,4.82718 0.90482,1.14805 2.56918,1.34484 3.71679,0.43946 1.14806,-0.90482 1.34484,-2.56919 0.43946,-3.7168 -1.11374,-1.41224 -1.69753,-2.76577 -1.86614,-4.07753 0.25012,-0.2053 -4.80579,2.52769 -4.80579,2.52769 z"
         id="path56-0"
         sodipodi:nodetypes="cccccc" /><path
         style="color:#000000;fill:#010100;stroke-linecap:round;stroke-linejoin:round;-inkscape-stroke:none;paint-order:fill markers stroke"
         d="m 115.45313,112.12891 c -6.87635,0.48542 -12.77483,3.76437 -16.945318,8.03515 -8.864816,9.07803 -9.775267,21.94548 -2.345703,29.21094 4.603591,4.5019 10.932321,6.38858 18.037111,6.32812 7.10479,-0.0605 15.05391,-2.02313 23.26172,-5.29101 a 1.4553555,1.4553555 0 0 0 0.91601,-1.35156 v -27.23438 a 1.4553555,1.4553555 0 0 0 -0.50195,-1.09961 c -7.75826,-6.72136 -15.54553,-9.08308 -22.42187,-8.59765 z m 0.20507,2.90234 c 5.93052,-0.41866 12.70335,1.55101 19.8086,7.52539 V 148 c -7.63753,2.95037 -14.96981,4.73917 -21.29297,4.79297 -6.58249,0.056 -12.03099,-1.63963 -15.976564,-5.49805 -6.10957,-5.97462 -5.594765,-16.91625 2.392574,-25.0957 3.73231,-3.82207 8.9965,-6.73933 15.06836,-7.16797 z"
         id="path61" /><path
         style="fill:none;fill-opacity:1;stroke:#107bae;stroke-width:2.91042;stroke-linecap:square;stroke-linejoin:round;stroke-dasharray:none;stroke-opacity:1;paint-order:fill markers stroke"
         d="m 102.8774,125.46163 7.26327,5.78792 -8.9656,5.22048"
         id="path53"
         sodipodi:nodetypes="ccc" /><path
         style="fill:none;fill-opacity:1;stroke:#ffffff;stroke-width:5.29167;stroke-linecap:round;stroke-linejoin:round;stroke-dasharray:none;stroke-opacity:1;paint-order:fill markers stroke"
         d="m 127.50442,126.71 c 7.33344,9.37807 -0.20081,16.69397 -4.70977,17.76097"
         id="path57"
         sodipodi:nodetypes="cc" /><path
         style="color:#000000;fill:#7a9dc3;fill-opacity:1;stroke-linecap:round;stroke-linejoin:round;-inkscape-stroke:none;paint-order:fill markers stroke"
         d="m 126.22501,139.04769 c -1.28779,1.54298 -3.07194,2.61984 -4.03946,2.84879 -1.42154,0.33677 -2.30112,1.76194 -1.96485,3.1836 0.33678,1.42154 1.76194,2.30111 3.1836,1.96484 2.3316,-0.55175 4.73217,-1.97369 6.61435,-4.18896 0,0 -3.85321,-3.80241 -3.79364,-3.80827 z"
         id="path57-6"
         sodipodi:nodetypes="cccccc" /><path
         id="rect1-1-1"
         style="fill:#ffeb00;fill-opacity:1;stroke-width:1.5875;stroke-linecap:round;stroke-linejoin:round;paint-order:fill markers stroke"
         d="m 87.056969,158.7304 3.096358,1.57443 c -0.771684,0.80741 -2.420866,1.74112 -2.423668,2.64692 -0.0028,0.9058 0.07886,7.40407 0.07886,7.40407 l -3.463071,0.0765 0.0057,-8.77935 z"
         sodipodi:nodetypes="cczcccc" /><path
         style="fill:none;fill-opacity:1;stroke:#107bae;stroke-width:2.91042;stroke-linecap:square;stroke-linejoin:round;stroke-dasharray:none;stroke-opacity:1;paint-order:fill markers stroke"
         d="m 131.76024,131.3063 -10.78141,2.78047 8.22792,8.28466"
         id="path54"
         sodipodi:nodetypes="ccc" /><path
         id="rect1-1-2"
         style="fill:#ffeb00;fill-opacity:1;stroke-width:1.5875;stroke-linecap:round;stroke-linejoin:round;paint-order:fill markers stroke"
         d="m 90.187306,151.13968 c 3.524977,-2.53241 8.607999,0.48851 8.607999,0.48851 -3.352045,0.62116 -8.823052,-0.32676 -8.968147,7.73455 0,0 -3.163338,-5.69171 0.360148,-8.22306 z"
         sodipodi:nodetypes="sccs" /><path
         style="color:#000000;fill:#010100;stroke-linecap:round;stroke-linejoin:round;-inkscape-stroke:none;paint-order:fill markers stroke"
         d="m 95.490234,147.74805 c -3.086476,-0.23102 -5.416922,0.69821 -6.921875,2.32422 -2.006603,2.168 -2.530598,5.13885 -2.68164,7.58203 a 1.4553555,1.4553555 0 0 0 0.669922,1.3164 c 15.980869,10.19421 38.439769,8.04327 50.958979,2.45703 a 1.4553555,1.4553555 0 0 0 0.86133,-1.33007 v -10.23047 a 1.4553555,1.4553555 0 0 0 -2.01562,-1.34375 c -11.3348,4.72226 -25.92018,3.28242 -37.535158,-0.14063 -1.194297,-0.35197 -2.307112,-0.55776 -3.335938,-0.63476 z m -0.203125,2.86132 c 0.782563,0.0791 1.680202,0.26092 2.716797,0.56641 11.388214,3.35622 25.522264,4.91953 37.462894,0.72266 v 7.18945 c -11.53372,4.81071 -32.12548,6.50194 -46.523441,-2.14844 0.218714,-1.85705 0.704212,-3.74806 1.761719,-4.89062 0.922391,-0.99658 2.234342,-1.67679 4.582031,-1.43946 z"
         id="path63" /><path
         style="color:#000000;fill:#000000;stroke-linecap:round;stroke-linejoin:round;-inkscape-stroke:none;paint-order:fill markers stroke"
         d="m 87.802734,156.74219 c -0.594687,-0.42919 -1.415814,-0.34883 -1.916015,0.1875 l -2.277344,2.4414 c -0.251043,0.2694 -0.390629,0.62395 -0.390625,0.99219 v 11.05052 c 1.52e-4,0.80356 0.651523,1.45493 1.455078,1.45508 h 52.248042 c 0.80356,-1.5e-4 1.45493,-0.65152 1.45508,-1.45508 v -10.52122 c -0.001,-1.02459 -1.03236,-1.72733 -1.98633,-1.35352 -19.2296,7.5509 -39.767529,3.56141 -48.587886,-2.79687 z m -0.583984,3.02539 c 10.049773,6.54614 29.33622,9.81676 48.24805,3.11914 v 7.072 H 86.128906 v -9.02122 z"
         id="path65"
         sodipodi:nodetypes="ccccccccccccccccc" /><g
         id="g70"><path
           style="color:#000000;fill:#ffa200;stroke-linecap:round;stroke-linejoin:round;-inkscape-stroke:none;paint-order:fill markers stroke"
           d="m 106.56893,107.54169 c 4.53493,-3.88207 4.84488,-10.426239 6.9788,-15.399678 4.68447,11.739008 20.80329,30.645138 -2.65828,28.920958 -12.517713,4.47241 -17.63856,5.06989 -7.93518,-15.79805 z"
           id="path69" /><path
           id="rect1-10"
           style="fill:#ffeb00;fill-opacity:1;stroke-width:1.5875;stroke-linecap:round;stroke-linejoin:round;paint-order:fill markers stroke"
           d="m 108.20941,116.24748 c 2.47578,-3.38859 4.42573,-7.43448 6.30505,-11.56866 1.87738,5.7841 6.39518,12.94851 1.02076,15.7562 l -12.54305,1.75798 c -0.68511,-2.55249 -0.0909,-5.3743 2.09645,-8.53153 0.99553,1.47944 1.9748,2.61118 3.12079,2.58601 z"
           sodipodi:nodetypes="cccccc" /><path
           style="color:#000000;fill:#fe6100;stroke-linecap:round;stroke-linejoin:round;-inkscape-stroke:none;paint-order:fill markers stroke"
           d="m 113.56641,90.6875 a 1.4553555,1.4553555 0 0 0 -1.35547,0.880859 c -2.14153,4.99118 -2.69774,10.578301 -5.94922,14.060551 l -2.53125,-1.59571 a 1.4553555,1.4553555 0 0 0 -2.0957,0.61719 c -2.445361,5.25895 -3.975573,9.18565 -4.707036,12.16797 -0.731463,2.98232 -0.785664,5.23409 0.556641,6.79687 0.671152,0.7814 1.636742,1.20563 2.615235,1.35547 0.97849,0.14985 2.01316,0.0743 3.15039,-0.12109 2.19243,-0.3767 4.83107,-1.25945 7.83594,-2.32813 5.85705,0.39189 9.62371,-0.39129 11.80469,-2.57031 1.11084,-1.10984 1.69004,-2.5564 1.83398,-4.04687 0.14394,-1.49047 -0.0991,-3.04172 -0.55078,-4.64649 -1.80659,-6.41906 -7.04644,-14.06866 -9.27539,-19.654294 A 1.4553555,1.4553555 0 0 0 113.56641,90.6875 Z m 0.28906,5.335937 c 2.65124,5.455753 6.22175,11.417223 7.51758,16.021483 0.38963,1.38443 0.54869,2.61067 0.45508,3.58008 -0.0936,0.96941 -0.39199,1.66401 -0.9961,2.26758 -1.20821,1.20712 -4.15227,2.13644 -9.83594,1.71875 a 1.4553555,1.4553555 0 0 0 -0.5957,0.082 c -3.10949,1.11098 -5.73951,1.96208 -7.64258,2.28906 -0.95153,0.16349 -1.71584,0.18835 -2.21875,0.11133 -0.5029,-0.077 -0.700852,-0.20636 -0.845701,-0.375 -0.289697,-0.33728 -0.585727,-1.57204 0.06055,-4.20703 0.573571,-2.33856 1.913781,-5.78449 3.863281,-10.10938 l 2.17578,1.3711 a 1.4553555,1.4553555 0 0 0 1.72266,-0.12696 c 4.07014,-3.48419 5.10824,-8.36868 6.33984,-12.623043 z"
           id="path70" /></g><path
         id="rect1-756-7"
         style="fill:#ffa200;fill-opacity:1;stroke:#fe6100;stroke-width:2.91042;stroke-linecap:round;stroke-linejoin:round;stroke-dasharray:none;stroke-opacity:1;paint-order:fill markers stroke"
         d="m 103.00121,57.026531 c 0,0 5.18431,10.86775 5.12614,14.679041 -0.0946,6.198143 -7.98041,9.40787 -8.253126,1.953938 -0.272713,-7.453933 3.126986,-16.632979 3.126986,-16.632979 z"
         sodipodi:nodetypes="cszc" /><path
         style="fill:#ffeb00;fill-opacity:1;stroke:#000000;stroke-width:2.91042;stroke-linecap:round;stroke-linejoin:round;stroke-dasharray:none;stroke-opacity:1;paint-order:fill markers stroke"
         d="m 88.409112,163.27635 c 6.204797,4.1694 11.15901,6.01113 19.732458,6.86767"
         id="path66"
         sodipodi:nodetypes="cc" /><g
         id="g73"
         transform="translate(-0.18979976,0.56939929)"><path
           style="color:#000000;fill:#ffa200;stroke-linecap:round;stroke-linejoin:round;-inkscape-stroke:none;paint-order:fill markers stroke"
           d="m 99.969443,85.937686 c 0,0 3.256887,5.826803 3.198717,9.638094 -0.0946,6.19814 -5.459936,4.366923 -5.584385,1.212622 -0.124449,-3.154298 2.385668,-10.850716 2.385668,-10.850716 z"
           id="path72" /><path
           style="fill:#ffa200;fill-opacity:1;stroke:#ffeb00;stroke-width:2.91042;stroke-linecap:round;stroke-linejoin:round;stroke-dasharray:none;stroke-opacity:1;paint-order:fill markers stroke"
           d="m 98.180159,94.84093 2.647081,4.081546"
           id="path71"
           sodipodi:nodetypes="cc" /><path
           style="color:#000000;fill:#fe6100;stroke-linecap:round;stroke-linejoin:round;-inkscape-stroke:none;paint-order:fill markers stroke"
           d="m 99.828125,84.490234 a 1.4553555,1.4553555 0 0 0 -1.242188,0.996094 c 0,0 -0.639754,1.958626 -1.263671,4.322266 -0.623917,2.36364 -1.272616,5.028267 -1.19336,7.037109 0.09426,2.389225 1.982547,4.172967 4.175784,4.296877 1.09661,0.062 2.31554,-0.41793 3.10742,-1.412111 0.79188,-0.994186 1.18407,-2.372312 1.21094,-4.132813 0.0356,-2.331323 -0.84857,-4.815666 -1.68946,-6.830078 -0.84088,-2.014412 -1.69336,-3.539062 -1.69336,-3.539062 a 1.4553555,1.4553555 0 0 0 -1.412105,-0.738282 z m 0.464845,5.527344 c 0.75345,1.831465 1.44202,4.087315 1.41992,5.535156 -0.0204,1.338567 -0.33351,2.05812 -0.57812,2.365235 -0.24462,0.307114 -0.39392,0.333731 -0.66602,0.318359 -0.544193,-0.03074 -1.401456,-0.740786 -1.431641,-1.505859 -0.04519,-1.145453 0.499582,-3.906549 1.099611,-6.179688 0.0769,-0.291263 0.0802,-0.257703 0.15625,-0.533203 z"
           id="path73" /></g></g></g></svg>
