<?xml version="1.0" encoding="UTF-8" standalone="no"?>
<!-- Created with Inkscape (http://www.inkscape.org/) -->

<svg
   width="512"
   height="512"
   viewBox="0 0 135.46666 135.46667"
   version="1.1"
   id="svg1"
   inkscape:version="1.4.1 (unknown)"
   sodipodi:docname="aosc-02.svg"
   xml:space="preserve"
   xmlns:inkscape="http://www.inkscape.org/namespaces/inkscape"
   xmlns:sodipodi="http://sodipodi.sourceforge.net/DTD/sodipodi-0.dtd"
   xmlns="http://www.w3.org/2000/svg"
   xmlns:svg="http://www.w3.org/2000/svg"><sodipodi:namedview
     id="namedview1"
     pagecolor="#505050"
     bordercolor="#ffffff"
     borderopacity="1"
     inkscape:showpageshadow="0"
     inkscape:pageopacity="0"
     inkscape:pagecheckerboard="1"
     inkscape:deskcolor="#d1d1d1"
     inkscape:document-units="px"
     inkscape:zoom="0.62542766"
     inkscape:cx="193.46762"
     inkscape:cy="-23.983589"
     inkscape:window-width="1655"
     inkscape:window-height="1080"
     inkscape:window-x="0"
     inkscape:window-y="0"
     inkscape:window-maximized="0"
     inkscape:current-layer="layer1" /><defs
     id="defs1" /><g
     inkscape:label="Layer 1"
     inkscape:groupmode="layer"
     id="layer1"><g
       id="g39"
       transform="matrix(0.86937608,0,0,0.86937608,11.494219,15.394966)"><g
         id="g38"><path
           id="rect27-6-7"
           style="fill:#252e33;fill-opacity:1;stroke-width:2.11667;stroke-linecap:round;stroke-linejoin:round;stroke-opacity:0.607843;paint-order:fill markers stroke"
           d="m 57.920941,24.450542 c 4.298637,-60.533046 24.253507,-45.96785 37.540853,-5.949013 4.831246,14.55076 13.240846,30.282106 15.170806,47.66789 3.8609,-1.390043 7.39105,6.943532 0.97354,8.399365 6.51046,29.233986 -9.85603,30.351176 -20.141674,35.929136 l -62.997348,2.30617 c -6.240148,-3.50447 -9.384408,-10.25585 -0.344517,-29.785726 0,0 -3.419194,-1.718685 -3.762908,-3.680848 -0.343714,-1.962164 2.139337,-2.458216 2.075906,-4.504065 -0.07507,-2.421197 -2.189612,-4.454125 -2.695569,-5.690479 -0.933478,-2.281041 0.361331,-2.382585 3.669906,-4.743329 1.955258,-5.259873 4.718591,-11.688006 4.718591,-11.688006 -5.535594,-5.815633 -14.114781,-19.875408 -15.191067,-28.5826 -4.998513,-40.438121 2.120974,-43.621367 40.983481,0.321505 z"
           sodipodi:nodetypes="csccccczssccsc" /><path
           id="rect27-6-1"
           style="fill:#3b484f;fill-opacity:1;stroke-width:2.11667;stroke-linecap:round;stroke-linejoin:round;stroke-opacity:0.607843;paint-order:fill markers stroke"
           d="m 36.445337,101.58085 c 7.716618,1.31114 12.6679,4.99256 18.120974,8.24388 l -0.515226,-9.5591 7.917173,1.10656 20.392283,-4.364478 1.076141,4.828098 c 10.180765,11.39497 21.402428,22.3996 29.065478,34.73872 l -81.53847,0.12748 c -2.844788,-5.3439 -6.08984,-20.22805 1.150227,-31.43802 l 2.773078,1.50287 z"
           sodipodi:nodetypes="ccccccccccc" /><path
           id="rect27-6-3"
           style="fill:#ffffff;fill-opacity:1;stroke-width:2.11667;stroke-linecap:round;stroke-linejoin:round;stroke-opacity:0.607843;paint-order:fill markers stroke"
           d="m 18.270431,7.6754152 c -0.03394,-18.2142212 8.207745,-11.2774715 13.4033,-4.5972462 5.195555,6.6802252 15.504438,35.740244 15.504438,35.740244 -5.536874,2.476482 -8.70562,7.32109 -12.862447,11.177618 C 27.92304,43.86637 18.304373,25.889636 18.270431,7.6754152 Z"
           sodipodi:nodetypes="zzccz" /><ellipse
           style="fill:none;fill-opacity:1;stroke:#02379f;stroke-width:2.11667;stroke-linecap:round;stroke-linejoin:round;stroke-dasharray:none;stroke-opacity:1;paint-order:fill markers stroke"
           id="path33-6"
           cx="64.126144"
           cy="117.69983"
           rx="2.2847073"
           ry="2.3829744" /><path
           id="rect27-6-6"
           style="fill:#ffe8e0;fill-opacity:1;stroke-width:2.11667;stroke-linecap:round;stroke-linejoin:round;stroke-opacity:0.607843;paint-order:fill markers stroke"
           d="m 44.312907,57.688675 c 0.144528,4.593213 -0.846404,9.186427 1.549832,13.77964 l 2.91674,-4.209032 2.711655,2.665814 22.019807,-3.401551 -1.204485,-14.69129 5.590613,0.595366 -0.05464,3.276245 4.17837,1.590184 1.569603,4.232877 2.146142,1.407636 c 1.077835,2.596131 1.890397,5.192261 4.864925,7.788391 L 82.309544,96.81098 c -9.717463,4.86234 -18.681272,5.07982 -27.96366,3.41604 1.560095,3.31918 1.687643,6.53604 0.178446,9.63598 -4.850777,-3.17303 -9.453674,-6.53885 -16.203279,-8.23502 -2.628774,-11.201987 -2.811833,-22.403977 -2.62745,-33.605968 l 2.314923,-1.429286 -0.428332,-3.90958 2.4875,-1.5393 0.700689,-3.412454 z"
           sodipodi:nodetypes="cccccccccccccccccccccc" /><path
           style="baseline-shift:baseline;display:inline;overflow:visible;opacity:1;vector-effect:none;fill:#dfb7ab;stroke-linecap:round;stroke-linejoin:round;paint-order:fill markers stroke;enable-background:accumulate;stop-color:#000000;stop-opacity:1"
           d="m 42.267578,57.826172 c -0.93289,0.02381 -1.823401,0.489772 -2.46875,1.185547 -0.76768,0.827664 -0.808921,1.926237 -0.791016,2.474609 0.01791,0.548373 0.0453,0.631443 -0.136718,0.896484 -0.173338,0.252398 0.0369,0.09713 -0.445313,0.169922 -0.272731,0.04117 -0.446287,1.867244 -2.111328,4.587891 -0.180334,0.294662 0.209407,0.55187 0.220703,0.644531 0.0113,0.09266 0.03278,0.0175 -0.02148,0.0957 -0.111604,0.160843 -0.07782,0.0929 -0.03906,0.08008 0.03876,-0.01282 -0.0085,0.0044 -0.238281,-0.0039 -0.229801,-0.0083 -0.650754,-0.04889 -1.173828,0.144531 -0.523074,0.193418 -1.007127,0.648931 -1.304688,1.181641 -0.356781,0.638007 -0.128493,1.44445 0.509766,1.800781 0.628977,0.344945 1.418269,0.125745 1.779297,-0.49414 0.01161,7.86e-4 -0.04068,0.0069 0.09375,0.01172 0.229561,0.0083 0.653923,0.04245 1.166016,-0.126953 0.512092,-0.169403 1.022013,-0.568769 1.380859,-1.085937 0.416189,-0.599812 0.544985,-1.346548 0.474609,-1.923828 -0.07037,-0.577281 -0.266403,-1.011242 -0.412109,-1.355469 -0.145706,-0.344227 -0.245107,-0.603507 -0.267578,-0.720703 -0.02247,-0.117196 -0.0246,-0.03149 -0.0098,-0.05664 0.175984,-0.298455 -0.08513,-0.09844 0.34961,-0.164062 0.43474,-0.06563 1.576463,-0.33481 2.230468,-1.28711 0.645319,-0.939655 0.616321,-1.970617 0.59961,-2.482422 -0.01671,-0.511804 -0.06865,-0.421226 0.08594,-0.58789 0.276916,-0.298553 0.419961,-0.335359 0.595703,-0.339844 0.175742,-0.0045 0.485648,0.07032 0.933594,0.402344 0.587235,0.435678 1.416543,0.312331 1.851563,-0.275391 0.435677,-0.587234 0.31233,-1.416542 -0.275391,-1.851562 -0.770989,-0.571462 -1.643282,-0.943728 -2.576172,-0.919922 z"
           id="path7-9"
           sodipodi:nodetypes="cssssssssssccccssssscsssscccccc" /><path
           id="rect27-6-2"
           style="fill:#ffffff;fill-opacity:1;stroke-width:2.11667;stroke-linecap:round;stroke-linejoin:round;stroke-opacity:0.607843;paint-order:fill markers stroke"
           d="m 65.038258,-3.682487 c 6.169353,-20.369722 18.464697,-3.8213847 19.713245,8.743782 1.248548,12.565167 7.121225,38.264222 7.121225,38.264222 C 83.791924,38.84331 76.040184,33.415048 66.119963,34.221167 63.971855,31.952312 58.868905,16.687235 65.038258,-3.682487 Z"
           sodipodi:nodetypes="zzccz" /><ellipse
           style="fill:#1a2329;fill-opacity:1;stroke:none;stroke-width:3.78362;stroke-linecap:round;stroke-linejoin:round;stroke-dasharray:none;stroke-opacity:0.607843;paint-order:fill markers stroke"
           id="path29-2-1"
           ry="3.0514524"
           rx="1.2141854"
           cy="-42.233936"
           cx="97.418869"
           transform="rotate(58.661174)" /><ellipse
           style="fill:#1a2329;fill-opacity:1;stroke:none;stroke-width:2.51181;stroke-linecap:round;stroke-linejoin:round;stroke-dasharray:none;stroke-opacity:0.607843;paint-order:fill markers stroke"
           id="path29-2-6"
           ry="2.025749"
           rx="0.80605376"
           cy="-41.745884"
           cx="92.101921"
           transform="rotate(58.610793)" /><ellipse
           style="fill:#151d24;fill-opacity:1;stroke:none;stroke-width:2.51181;stroke-linecap:round;stroke-linejoin:round;stroke-dasharray:none;stroke-opacity:0.607843;paint-order:fill markers stroke"
           id="path29-2"
           ry="2.025749"
           rx="0.80605376"
           cy="-61.653587"
           cx="33.606087"
           transform="rotate(117.566)" /><ellipse
           style="fill:#151d24;fill-opacity:1;stroke:none;stroke-width:2.51181;stroke-linecap:round;stroke-linejoin:round;stroke-dasharray:none;stroke-opacity:0.607843;paint-order:fill markers stroke"
           id="path29-2-8"
           ry="3.1172781"
           rx="0.80605376"
           cy="-60.351284"
           cx="38.558628"
           transform="rotate(117.566)" /><ellipse
           style="fill:#151d23;fill-opacity:1;stroke:none;stroke-width:1.80208;stroke-linecap:round;stroke-linejoin:round;stroke-dasharray:none;stroke-opacity:0.607843;paint-order:fill markers stroke"
           id="path29-3"
           ry="2.7151864"
           rx="1.8666908"
           cy="41.921051"
           cx="69.472221"
           transform="rotate(7.8017069)" /><path
           id="rect27-6-48-4"
           style="fill:#d27f76;fill-opacity:1;stroke-width:2.11667;stroke-linecap:round;stroke-linejoin:round;stroke-opacity:0.607843;paint-order:fill markers stroke"
           d="m 57.15334,85.744751 13.748703,-0.718724 c 2.509554,12.251758 -3.151088,9.648612 -9.256682,6.236465 z"
           sodipodi:nodetypes="cccc" /><path
           id="rect27-6-48"
           style="fill:#ffada5;fill-opacity:1;stroke-width:2.11667;stroke-linecap:round;stroke-linejoin:round;stroke-opacity:0.607843;paint-order:fill markers stroke"
           d="m 63.547236,85.410505 7.354807,-0.384478 c 2.509554,12.251758 -3.151088,9.648612 -9.256682,6.236465 z"
           sodipodi:nodetypes="cccc" /><path
           id="rect27-6-31"
           style="fill:#151d23;fill-opacity:1;stroke:none;stroke-width:2.11667;stroke-linecap:round;stroke-linejoin:round;stroke-opacity:0.607843;paint-order:fill markers stroke"
           d="m 85.484198,88.127484 c 0,0 0.502642,6.09344 1.078002,9.982145 0.594169,4.015831 1.88772,3.778671 2.445012,0.166558 0.162502,-1.053269 0.597869,-5.410245 1.033884,-6.947432 1.93468,-6.820775 2.388624,-3.620035 2.067993,0.260303 -0.320631,3.880338 0.09923,10.700292 0.810924,10.789982 0.711697,0.0897 13.251687,-4.693026 11.281017,-23.77686 -4.318958,0.323222 -5.238354,-1.275048 -6.627023,-2.608076 -4.382532,7.831517 -4.344945,5.673564 -2.100747,-1.471328 -1.616453,-0.09597 -3.397968,-0.934726 -5.279816,-2.224977 l 0.591802,-1.506142 5.253601,-0.203789 6.169643,4.018288 5.27626,-1.665055 3.75452,1.831789 c 6.60788,26.04025 -8.322,33.01424 -20.326804,34.82861 l -8.379213,-7.38222 -0.238212,-4.271659 z"
           sodipodi:nodetypes="cssszzccccccccccccc" /><path
           id="rect27-6-68"
           style="fill:#151d23;fill-opacity:1;stroke-width:2.11667;stroke-linecap:round;stroke-linejoin:round;stroke-opacity:0.607843;paint-order:fill markers stroke"
           d="m 35.46083,74.310271 c 0.187884,10.375408 0.486722,16.351959 2.740183,26.778929 l -3.533715,5.16454 -2.78641,-0.65081 -1.770347,1.66775 2.085699,-23.812608 -6.299207,5.731907 c 2.20479,-5.615331 4.510272,-11.163534 9.563797,-14.879708 z"
           sodipodi:nodetypes="cccccccc" /><path
           id="rect27-6-47"
           style="fill:#232a2e;fill-opacity:1;stroke-width:2.11667;stroke-linecap:round;stroke-linejoin:round;stroke-opacity:0.607843;paint-order:fill markers stroke"
           d="m 61.528129,123.26812 c 6.693299,1.74763 8.610839,6.85999 8.298384,13.54349 l -16.144447,-0.17968 z"
           sodipodi:nodetypes="cccc" /><path
           id="rect27-6-37"
           style="fill:#161d23;fill-opacity:1;stroke-width:2.11667;stroke-linecap:round;stroke-linejoin:round;stroke-opacity:0.607843;paint-order:fill markers stroke"
           d="m 58.386428,127.48881 c 4.302546,1.00205 6.926286,5.15186 9.456487,9.47705 l -14.199819,-0.25411 z"
           sodipodi:nodetypes="cccc" /><path
           id="rect27-6-10"
           style="fill:#2a3742;fill-opacity:1;stroke-width:2.11667;stroke-linecap:round;stroke-linejoin:round;stroke-opacity:0.607843;paint-order:fill markers stroke"
           d="m 89.314513,110.52043 c 7.588658,6.2303 16.372617,14.27655 23.312097,26.49027 l -7.79262,0.4139 z"
           sodipodi:nodetypes="cccc" /><path
           id="rect27-6-4"
           style="fill:#151d23;fill-opacity:1;stroke-width:2.11667;stroke-linecap:round;stroke-linejoin:round;stroke-opacity:0.607843;paint-order:fill markers stroke"
           d="m 54.766255,100.64806 7.459874,1.19787 -0.539043,4.43967 -6.621363,3.77329 z"
           sodipodi:nodetypes="ccccc" /><path
           id="rect27-6-61"
           style="fill:#2a3742;fill-opacity:1;stroke-width:2.11667;stroke-linecap:round;stroke-linejoin:round;stroke-opacity:0.607843;paint-order:fill markers stroke"
           d="m 89.794281,117.15804 0.901549,20.06484 -4.967262,0.25411 c 0.246684,-8.31502 0.794874,-18.26826 4.065713,-20.31895 z"
           sodipodi:nodetypes="cccc" /><path
           style="fill:none;fill-opacity:1;stroke:#3473ca;stroke-width:2.64583;stroke-linecap:round;stroke-linejoin:round;stroke-dasharray:none;stroke-opacity:1;paint-order:fill markers stroke"
           d="m 31.831009,108.0091 13.906751,7.1079 c 0,0 0.731773,4.78163 3.026703,8.00299 2.646473,3.71482 1.406495,4.0976 -0.09083,5.13116 -1.618943,1.11752 -2.359631,0.2675 -3.090388,-1.39067 -0.730757,-1.65818 0.659865,-1.98292 2.858608,-3.94025 2.198744,-1.95733 6.026259,-4.4038 6.026259,-4.4038 l 6.180779,4.01751"
           id="path30"
           sodipodi:nodetypes="ccsszzcc" /><path
           id="rect27-6-78"
           style="fill:#1c252d;fill-opacity:0.347949;stroke-width:2.11667;stroke-linecap:round;stroke-linejoin:round;stroke-opacity:0.607843;paint-order:fill markers stroke"
           d="m 49.354044,119.43185 4.967263,-3.4728 8.532168,4.96583 -9.040382,15.86133 -10.218809,-0.25411 z"
           sodipodi:nodetypes="cccccc" /><path
           id="rect27-6-49"
           style="fill:#151d23;fill-opacity:1;stroke-width:2.11667;stroke-linecap:round;stroke-linejoin:round;stroke-opacity:0.607843;paint-order:fill markers stroke"
           d="m 29.30802,69.434651 c 1.595104,-2.030514 7.89241,-3.394854 7.89241,-3.394854 l -0.724137,7.384813 -8.463868,9.766793 c 0,0 -1.42268,-4.51333 0.338,-7.55358 1.760681,-3.040251 -0.637509,-4.172658 0.957595,-6.203172 z"
           sodipodi:nodetypes="zccczz" /><path
           id="rect27-6-71"
           style="fill:#151d23;fill-opacity:1;stroke-width:2.11667;stroke-linecap:round;stroke-linejoin:round;stroke-opacity:0.607843;paint-order:fill markers stroke"
           d="m 39.499787,57.776279 c 1.762843,-4.98118 4.055724,-10.215197 9.360818,-13.753238 l -3.737293,13.258446 z"
           sodipodi:nodetypes="cccc" /><path
           id="rect27-6-26"
           style="fill:#151d23;fill-opacity:1;stroke-width:2.11667;stroke-linecap:round;stroke-linejoin:round;stroke-opacity:0.607843;paint-order:fill markers stroke"
           d="m 44.653466,59.52484 18.830867,1.286392 c 1.096474,-3.342857 1.894146,-14.932666 3.66184,0.250151 L 69.444632,61.218397 68.611564,46.3656 c 3.362393,5.164313 6.236805,10.86383 5.148908,20.909105 l -21.971841,3.200691 -2.524435,-3.414378 -4.173683,4.802681 z"
           sodipodi:nodetypes="cccccccccc" /><path
           id="rect27-6-5"
           style="fill:#151d23;fill-opacity:1;stroke-width:2.11667;stroke-linecap:round;stroke-linejoin:round;stroke-opacity:0.607843;paint-order:fill markers stroke"
           d="m 77.381974,36.407426 c 4.911471,2.02509 9.679652,2.975509 14.93916,7.610877 l 3.734967,12.968871 3.003072,3.303895 -5.750736,-2.599184 C 90.256915,48.472549 83.468442,42.770342 77.381974,36.407426 Z"
           sodipodi:nodetypes="cccccc" /><path
           id="rect27-6-9"
           style="fill:#151d23;fill-opacity:1;stroke-width:2.11667;stroke-linecap:round;stroke-linejoin:round;stroke-opacity:0.607843;paint-order:fill markers stroke"
           d="m 101.56159,33.746827 c 4.15809,10.708016 8.33152,21.414636 8.45582,32.48936 l -4.78916,-2.925398 -5.28749,-0.598156 c 2.30854,-9.383227 1.60772,-19.229434 1.62083,-28.965806 z"
           sodipodi:nodetypes="ccccc" /><path
           id="rect27-6-15"
           style="fill:#151d23;fill-opacity:1;stroke-width:2.11667;stroke-linecap:round;stroke-linejoin:round;stroke-opacity:0.607843;paint-order:fill markers stroke"
           d="m 84.076192,61.864993 c 0,0 4.287787,2.949784 6.38496,3.605943 2.097173,0.656159 3.606181,-0.957719 5.889038,-0.287068 2.282857,0.670651 3.404231,3.600456 5.64483,4.156453 2.2406,0.555998 3.63693,-1.076144 5.01743,-0.743209 1.3805,0.332936 2.3674,2.07525 3.53275,2.06135 1.16536,-0.0139 3.53256,-1.994612 3.53256,-1.994612 l 0.4593,4.222277 -3.08613,2.273904 -3.75228,-2.128958 -5.67502,1.483753 -5.737245,-4.219446 -6.029415,0.847145 z"
           sodipodi:nodetypes="czzzzzcccccccc" /><ellipse
           style="fill:#151d23;fill-opacity:1;stroke:none;stroke-width:2.64583;stroke-linecap:round;stroke-linejoin:round;stroke-dasharray:none;stroke-opacity:0.607843;paint-order:fill markers stroke"
           id="path29"
           ry="3.9864459"
           rx="2.7406816"
           cy="45.105953"
           cx="58.437794"
           transform="rotate(7.8017069)" /><ellipse
           style="fill:#151d23;fill-opacity:1;stroke:none;stroke-width:1.9479;stroke-linecap:round;stroke-linejoin:round;stroke-dasharray:none;stroke-opacity:0.607843;paint-order:fill markers stroke"
           id="path29-7"
           ry="2.9348822"
           rx="2.0177317"
           cy="43.443569"
           cx="64.292542"
           transform="rotate(7.8017069)" /><path
           style="fill:none;fill-opacity:1;stroke:#3477d3;stroke-width:2.64583;stroke-linecap:round;stroke-linejoin:round;stroke-dasharray:none;stroke-opacity:1;paint-order:fill markers stroke"
           d="m 80.908333,99.810619 -6.391812,3.168591 -1.584295,5.73624 -12.947521,9.0141"
           id="path31" /><path
           style="fill:none;fill-opacity:1;stroke:#e34c45;stroke-width:2.64583;stroke-linecap:round;stroke-linejoin:round;stroke-dasharray:none;stroke-opacity:1;paint-order:fill markers stroke"
           d="m 63.426453,103.74404 c 1.733261,0.19772 4.311422,1.07369 4.643625,3.93342 l -11.800271,8.68632"
           id="path32"
           sodipodi:nodetypes="ccc" /><path
           id="rect27-6-29"
           style="fill:#1c252d;fill-opacity:0.34902;stroke-width:2.11667;stroke-linecap:round;stroke-linejoin:round;stroke-opacity:0.607843;paint-order:fill markers stroke"
           d="m 62.515161,102.00251 18.678609,-4.604457 2.115562,5.172427 c -10.820768,4.73119 -20.335002,7.6166 -27.389744,7.90225 l 5.483377,-4.28711 z"
           sodipodi:nodetypes="cccccc" /><ellipse
           style="fill:none;fill-opacity:1;stroke:#02379f;stroke-width:2.11667;stroke-linecap:butt;stroke-linejoin:round;stroke-dasharray:none;stroke-opacity:1;paint-order:fill markers stroke"
           id="path33"
           cx="69.324196"
           cy="113.64153"
           rx="2.2847073"
           ry="2.3829744" /><path
           style="fill:none;fill-opacity:1;stroke:#aa1315;stroke-width:2.11667;stroke-linecap:butt;stroke-linejoin:round;stroke-dasharray:none;stroke-opacity:1;paint-order:fill markers stroke"
           id="path33-6-0"
           sodipodi:type="arc"
           sodipodi:cx="64.126144"
           sodipodi:cy="117.69983"
           sodipodi:rx="2.2847073"
           sodipodi:ry="2.3829744"
           sodipodi:start="3.0519258"
           sodipodi:end="5.2568219"
           sodipodi:arc-type="arc"
           d="m 61.850616,117.91322 a 2.2847073,2.3829744 0 0 1 1.065768,-2.23489 2.2847073,2.3829744 0 0 1 2.393086,-0.017"
           sodipodi:open="true" /><path
           id="rect27-6-51"
           style="fill:#e0b7aa;fill-opacity:1;stroke-width:2.11667;stroke-linecap:round;stroke-linejoin:round;stroke-opacity:0.607843;paint-order:fill markers stroke"
           d="m 41.380007,88.690813 6.12823,6.612931 c 6.969574,3.747963 8.079666,7.566176 6.932912,13.545946 l -4.528327,-3.41313 c 0,0 1.507856,-5.908659 -2.723036,-8.023451 -3.162567,-1.580792 -5.809779,-8.722296 -5.809779,-8.722296 z"
           sodipodi:nodetypes="ccccsc" /><path
           id="rect27-6-51-3"
           style="fill:#e1b9ac;fill-opacity:1;stroke-width:2.11667;stroke-linecap:round;stroke-linejoin:round;stroke-opacity:0.607843;paint-order:fill markers stroke"
           d="m 46.775852,69.743331 2.288464,-2.66651 2.324444,3.01717 21.790798,-3.6256 -0.436682,-13.79059 5.181224,-0.0684 0.325985,3.47045 3.716671,1.3452 1.053598,4.32755 2.089819,1.27654 5.468368,7.97377 c -2.916294,0.85224 -5.724857,-0.64419 -6.443159,-5.25454 0,0 -1.890963,-0.40697 -3.106725,-1.73545 -1.215761,-1.32849 0.04586,-2.65106 -1.191076,-4.43891 -1.236933,-1.78785 -2.291151,-0.24403 -3.316622,-1.73322 -1.02547,-1.48919 -0.910847,-1.40396 -0.910847,-1.40396 -0.03054,2.48384 0.621267,6.61989 0.808532,9.53527 0.187266,2.91538 -1.938372,4.02052 -5.291497,4.7608 -12.012141,2.65194 -21.228942,3.85541 -19.966231,0.45116 l -0.969525,-1.57396 -0.5185,-0.0965 c 0.739385,6.19998 -3.570406,5.23672 -3.376929,0.63367 z"
           sodipodi:nodetypes="cccccccccccczzzczsccccc" /><path
           id="rect27-6-41"
           style="fill:#fefefe;fill-opacity:1;stroke-width:2.11667;stroke-linecap:round;stroke-linejoin:round;stroke-opacity:0.607843;paint-order:fill markers stroke"
           d="m 37.101132,101.52715 c 7.19903,2.74362 16.065227,5.59995 20.340181,11.05878 l -2.048849,3.8636 -1.359123,-0.94775 -4.707599,3.35421 -1.444458,-6.05927 -12.800952,-6.2253 z"
           sodipodi:nodetypes="cccccccc" /><path
           id="rect27-6-713"
           style="fill:#151d23;fill-opacity:1;stroke-width:2.11667;stroke-linecap:round;stroke-linejoin:round;stroke-opacity:0.607843;paint-order:fill markers stroke"
           d="m 37.835416,4.233333 21.455061,20.736798 2.455674,9.177813 -13.337697,3.410657 C 45.761985,26.489195 47.825017,15.6291 37.835416,4.233333 Z"
           sodipodi:nodetypes="ccccc" /><g
           id="g36"><path
             style="baseline-shift:baseline;display:inline;overflow:visible;opacity:1;vector-effect:none;fill:#e75049;fill-opacity:1;stroke-linejoin:round;paint-order:fill markers stroke;enable-background:accumulate;stop-color:#000000;stop-opacity:1"
             d="M 27.431641,7.6855469 C 26.638223,7.5111908 25.86436,7.5428754 25.123047,7.8691406 c -0.741313,0.3262653 -1.319562,0.9633949 -1.65625,1.6992188 -0.336688,0.7358236 -0.480511,1.5743306 -0.501953,2.5292966 -0.04288,1.909932 0.410332,4.328635 1.392578,7.394531 1.964492,6.131794 6.089189,14.820443 13.117187,26.269532 l 2.253907,-1.384766 C 32.771923,33.044188 28.733602,24.480727 26.876953,18.685547 c -0.928324,-2.89759 -1.299409,-5.109665 -1.267578,-6.527344 0.01592,-0.708839 0.134175,-1.209538 0.261719,-1.488281 0.127543,-0.278743 0.214864,-0.333356 0.318359,-0.378906 0.20699,-0.0911 0.999978,-0.07914 2.292969,0.708984 1.29299,0.788122 2.958018,2.23087 4.804687,4.300781 3.693338,4.139823 8.144955,10.777002 12.548828,19.765625 l 0.808916,-0.396149 c 0,0 -1.729954,-7.017245 -1.713459,-7.045905 C 41.548587,21.56822 38.228476,16.864469 35.261719,13.539063 33.300123,11.340331 31.500517,9.7405666 29.859375,8.7402344 29.038804,8.2400683 28.225058,7.8599029 27.431641,7.6855469 Z"
             id="path34"
             sodipodi:nodetypes="sssssccsssssscccsss" /><path
             style="baseline-shift:baseline;display:inline;overflow:visible;opacity:1;vector-effect:none;fill:#377ad7;fill-opacity:1;stroke-linejoin:round;paint-order:fill markers stroke;enable-background:accumulate;stop-color:#000000;stop-opacity:1"
             d="M 27.431641,7.6855469 C 26.638223,7.5111908 25.86436,7.5428754 25.123047,7.8691406 c -0.741313,0.3262653 -1.319562,0.9633949 -1.65625,1.6992188 -0.336688,0.7358236 -0.480511,1.5743306 -0.501953,2.5292966 -0.04288,1.909932 0.410332,4.328635 1.392578,7.394531 0.817264,2.550935 2.008395,5.544387 3.626899,8.995014 l 0.706787,-4.933572 c -0.74889,-1.795891 -1.349766,-3.41858 -1.814155,-4.868082 -0.928324,-2.89759 -1.299409,-5.109665 -1.267578,-6.527344 0.01592,-0.708839 0.134175,-1.209538 0.261719,-1.488281 0.127543,-0.278743 0.214864,-0.333356 0.318359,-0.378906 0.20699,-0.0911 0.999978,-0.07914 2.292969,0.708984 1.29299,0.788122 2.958018,2.23087 4.804687,4.300781 1.142792,1.280943 2.358181,2.800984 3.622291,4.555801 -0.08241,-0.04312 5.821269,3.999619 5.821269,3.999619 -2.613064,-4.273592 -5.14904,-7.716776 -7.46895,-10.317138 C 33.300123,11.340331 31.500517,9.7405665 29.859375,8.7402344 29.038804,8.2400683 28.225058,7.8599029 27.431641,7.6855469 Z"
             id="path34-9"
             sodipodi:nodetypes="sssssccssssssccsss" /></g><g
           id="g37"><path
             style="baseline-shift:baseline;display:inline;overflow:visible;opacity:1;vector-effect:none;fill:#e75049;fill-opacity:1;stroke-linejoin:round;paint-order:fill markers stroke;enable-background:accumulate;stop-color:#000000;stop-opacity:1"
             d="M 75.117187,1.2597656 C 73.74038,1.080365 72.353063,1.6282165 71.320312,2.6484375 c -2.065501,2.040442 -3.161918,5.7535452 -3.228515,11.0878905 -0.0666,5.334346 0.990671,12.326949 3.763672,20.921875 l 2.517578,-0.8125 c -2.704197,-8.381668 -3.69661,-15.122539 -3.634766,-20.076172 0.06184,-4.9536323 1.271953,-8.0849686 2.441406,-9.2402341 0.584727,-0.5776328 1.046991,-0.7160295 1.595704,-0.6445313 0.548712,0.071498 1.291648,0.4481098 2.109375,1.3632813 1.635454,1.8303429 3.385321,5.7068531 4.335937,11.6523441 1.001963,6.266631 3.31357,13.543466 4.675781,23.509765 l 2.623047,-0.359375 C 87.126583,29.859605 84.784789,22.429093 83.833984,16.482422 82.833992,10.228118 81.064312,5.9562019 78.857422,3.4863281 77.753977,2.2513913 76.493995,1.4391663 75.117187,1.2597656 Z"
             id="path35" /><path
             style="baseline-shift:baseline;display:inline;overflow:visible;opacity:1;vector-effect:none;fill:#3479d7;fill-opacity:1;stroke-linejoin:round;paint-order:fill markers stroke;enable-background:accumulate;stop-color:#000000;stop-opacity:1"
             d="M 75.117187,1.2597656 C 73.74038,1.080365 72.353063,1.6282165 71.320312,2.6484375 c -2.065501,2.040442 -3.161915,5.7535453 -3.228515,11.0878905 -0.024,1.922144 0.09793,4.059597 0.393467,6.409742 l 2.284932,-4.326939 c -0.02992,-0.71397 -0.04006,-1.397281 -0.03191,-2.0496 0.06184,-4.9536323 1.271953,-8.0849686 2.441406,-9.2402341 0.584727,-0.5776328 1.046991,-0.7160295 1.595704,-0.6445313 0.548712,0.071498 1.291648,0.4481098 2.109375,1.3632813 1.635454,1.8303429 3.385321,5.7068531 4.335937,11.6523441 0.102101,-0.09668 3.716122,5.080284 3.716122,5.080284 C 84.49189,20.006536 84.106012,18.183751 83.833989,16.482422 82.833992,10.228118 81.064312,5.9562018 78.857422,3.4863281 77.753977,2.2513913 76.493995,1.4391663 75.117187,1.2597656 Z"
             id="path35-3"
             sodipodi:nodetypes="sssccssssccsss" /></g><path
           id="rect27-6-3-7"
           style="fill:#3c4e65;fill-opacity:0.396078;stroke-width:2.11667;stroke-linecap:round;stroke-linejoin:round;stroke-opacity:0.607843;paint-order:fill markers stroke"
           d="m 25.779071,-2.8153269 c 2.020851,1.3335645 4.132884,3.62827858 5.89466,5.8934962 5.195555,6.6802252 15.504438,35.7402437 15.504438,35.7402437 -4.785948,2.140615 -9.524919,8.044888 -12.939682,11.556687 0.0081,-9.511236 -1.060482,-34.713019 -8.459416,-53.1904269 z"
           sodipodi:nodetypes="csccc" /><path
           style="fill:none;fill-opacity:0.607791;stroke:#000000;stroke-width:2.64583;stroke-linecap:round;stroke-linejoin:round;stroke-dasharray:none;stroke-opacity:1;paint-order:fill markers stroke"
           d="M 61.700208,34.292695 C 56.46846,17.053402 58.94793,7.5910964 62.361227,-4.199583 70.237457,-31.40674 86.263628,-6.1984355 90.205828,4.9758886 92.927853,12.691576 110.93161,52.932624 110.26979,65.798847"
           id="path1"
           sodipodi:nodetypes="cssc" /><path
           style="fill:none;fill-opacity:0.607791;stroke:#000000;stroke-width:2.64583;stroke-linecap:round;stroke-linejoin:round;stroke-dasharray:none;stroke-opacity:1;paint-order:fill markers stroke"
           d="M 32.729205,52.40951 C 22.803607,45.739617 15.547394,24.004398 14.979592,13.902878 c -1.379175,-24.536313 5.614896,-34.04693 44.742874,12.49687"
           id="path2"
           sodipodi:nodetypes="csc" /><path
           style="fill:none;fill-opacity:0.607791;stroke:#000000;stroke-width:2.64583;stroke-linecap:round;stroke-linejoin:round;stroke-dasharray:none;stroke-opacity:1;paint-order:fill markers stroke"
           d="M 85.138717,5.3479093 C 89.861363,23.278264 89.966587,39.279664 96.04845,57.115672"
           id="path3"
           sodipodi:nodetypes="cc" /><path
           id="rect27-6-2-5"
           style="fill:#3c4e65;fill-opacity:0.396078;stroke-width:2.11667;stroke-linecap:round;stroke-linejoin:round;stroke-opacity:0.607843;paint-order:fill markers stroke"
           d="m 81.406373,-5.6744432 c 1.744127,3.2748333 2.990426,7.1660275 3.345134,10.7357383 1.24855,12.5651669 7.12122,38.2642219 7.12122,38.2642219 -8.0808,-4.482207 -15.83254,-9.910469 -25.75276,-9.10435 -0.332006,-0.350668 -0.734597,-1.011789 -1.155246,-1.954227 3.275371,-0.757006 7.669711,-0.986705 9.913561,-0.796594 2.909732,0.246528 2.681984,0.210976 3.616958,-4.894606 0.905831,-4.946444 1.87115,-21.4714315 2.911133,-32.2501832 z"
           sodipodi:nodetypes="cscccssc" /><path
           style="fill:none;fill-opacity:0.607791;stroke:#000000;stroke-width:2.64583;stroke-linecap:round;stroke-linejoin:round;stroke-dasharray:none;stroke-opacity:1;paint-order:fill markers stroke"
           d="M 33.584869,6.2035747 C 39.535509,16.970699 43.772087,27.157407 48.048267,37.924531"
           id="path4"
           sodipodi:nodetypes="cc" /><path
           style="fill:none;fill-opacity:0.607791;stroke:#000000;stroke-width:2.64583;stroke-linecap:round;stroke-linejoin:round;stroke-dasharray:none;stroke-opacity:1;paint-order:fill markers stroke"
           d="m 28.437627,83.074134 c 0,0 -4.302458,-1.802949 -4.208788,-4.092543 0.09367,-2.289594 2.247914,-2.183731 2.327616,-3.919539 0.0797,-1.735807 -3.034703,-3.620945 -2.810024,-5.695723 0.224679,-2.074778 3.049936,-3.030955 3.892916,-5.350219 C 42.101336,24.692295 78.248242,31.314907 92.206288,44.46319"
           id="path5"
           sodipodi:nodetypes="czzzcc" /><path
           style="fill:none;fill-opacity:0.607791;stroke:#000000;stroke-width:2.64583;stroke-linecap:round;stroke-linejoin:round;stroke-dasharray:none;stroke-opacity:1;paint-order:fill markers stroke"
           d="m 93.689634,57.250822 c 0,0 2.3183,-1.000837 4.44752,0.816623 2.129216,1.81746 -0.351858,3.713119 1.972856,5.0876 2.32472,1.374482 3.11235,-1.041678 5.25978,-0.0283 2.14743,1.01338 0.53925,2.796586 2.56326,3.543797 2.024,0.747211 1.8285,-1.952974 4.16157,-0.583818 2.33306,1.369156 2.58961,4.657821 2.41981,5.88553 -0.16979,1.227708 -1.37347,2.961641 -3.33559,2.754439 -1.96212,-0.207201 -1.58061,-1.724727 -3.79274,-1.928997 -2.21212,-0.20427 -2.4388,2.455291 -5.24547,1.791753 -2.806672,-0.663538 -2.843378,-3.628543 -5.238021,-4.350198 -2.394644,-0.721655 -3.679914,1.564993 -6.738268,0.229206 -3.058353,-1.335787 -4.033019,-6.872055 -4.768769,-7.617968 -0.735751,-0.745913 -1.755045,-0.574464 -2.380132,-1.45605 -0.625086,-0.881586 0.02682,-2.543011 -0.82238,-3.577543 -0.849197,-1.034531 -2.944758,-0.79934 -3.883651,-1.945666 -0.938893,-1.146326 0.420737,-2.533844 -0.915135,-3.54462 -1.335873,-1.010776 -4.239817,-0.366474 -4.239817,-0.366474"
           id="path6"
           sodipodi:nodetypes="czzzzzzzzzzzzzzzzc" /><path
           style="fill:none;fill-opacity:0.607791;stroke:#000000;stroke-width:2.64583;stroke-linecap:round;stroke-linejoin:round;stroke-dasharray:none;stroke-opacity:1;paint-order:fill markers stroke"
           d="m 44.17779,57.939124 c -1.218936,-0.903482 -2.3656,-0.892323 -3.287865,0.102005 -0.922265,0.994328 0.02177,2.015169 -0.805569,3.219866 -0.827343,1.204697 -1.865075,0.230487 -2.630082,1.52788 -0.765007,1.297393 1.209423,2.620148 0.268524,3.976172 -0.940899,1.356023 -1.927084,-0.07015 -2.68871,1.293356 -0.761626,1.363503 0.765677,0.875692 0.765677,0.875692 -0.262211,12.221489 0.171385,25.5001 2.620711,32.411255"
           id="path7"
           sodipodi:nodetypes="czzzzzcc" /><path
           style="fill:none;fill-opacity:0.607791;stroke:#000000;stroke-width:2.64583;stroke-linecap:round;stroke-linejoin:round;stroke-dasharray:none;stroke-opacity:1;paint-order:fill markers stroke"
           d="m 49.394236,43.690005 c -6.387201,8.669564 -5.512026,27.90873 -3.532793,27.861299 1.979234,-0.04743 2.181327,-4.958375 3.215699,-4.971517 1.034373,-0.01314 1.266605,2.657497 2.503103,3.425245 1.236498,0.767748 19.450197,-1.554287 21.41082,-3.259412 1.960623,-1.705124 -0.129873,-16.269993 -3.561936,-20.913321"
           id="path8"
           sodipodi:nodetypes="czzzzc" /><path
           style="fill:none;fill-opacity:0.607791;stroke:#000000;stroke-width:2.64583;stroke-linecap:round;stroke-linejoin:round;stroke-dasharray:none;stroke-opacity:1;paint-order:fill markers stroke"
           d="m 90.605768,70.790484 c -2.587896,10.318292 -4.652166,16.988255 -8.456084,27.057797 l 0.453035,3.990379 c 11.087371,10.46371 21.141191,22.07593 30.238631,34.75067"
           id="path9"
           sodipodi:nodetypes="cccc" /><path
           style="fill:none;fill-opacity:0.607791;stroke:#000000;stroke-width:2.64583;stroke-linecap:round;stroke-linejoin:round;stroke-dasharray:none;stroke-opacity:1;paint-order:fill markers stroke"
           d="m 111.39273,74.972452 c 5.37617,23.690041 -5.01046,31.501888 -20.444782,34.984638"
           id="path10"
           sodipodi:nodetypes="cc" /><path
           style="fill:none;fill-opacity:0.607791;stroke:#000000;stroke-width:2.64583;stroke-linecap:round;stroke-linejoin:round;stroke-dasharray:none;stroke-opacity:1;paint-order:fill markers stroke"
           d="m 89.905095,109.30271 c -0.369655,9.87916 -0.08409,18.396 0.402439,27.20494"
           id="path11"
           sodipodi:nodetypes="cc" /><path
           style="fill:none;fill-opacity:0.607791;stroke:#000000;stroke-width:2.64583;stroke-linecap:round;stroke-linejoin:round;stroke-dasharray:none;stroke-opacity:1;paint-order:fill markers stroke"
           d="M 35.826853,73.122019 C 21.329614,88.399066 18.207837,109.05034 28.962487,112.87661"
           id="path12"
           sodipodi:nodetypes="cc" /><path
           style="fill:none;fill-opacity:0.607791;stroke:#000000;stroke-width:2.64583;stroke-linecap:round;stroke-linejoin:round;stroke-dasharray:none;stroke-opacity:1;paint-order:fill markers stroke"
           d="m 82.078731,96.468205 c -13.300643,5.756415 -18.8244,5.569195 -27.604295,3.670785"
           id="path13"
           sodipodi:nodetypes="cc" /><path
           style="fill:none;fill-opacity:0.607791;stroke:#000000;stroke-width:2.64583;stroke-linecap:round;stroke-linejoin:round;stroke-dasharray:none;stroke-opacity:1;paint-order:fill markers stroke"
           d="m 36.267347,79.582599 1.950907,5.948358"
           id="path14"
           sodipodi:nodetypes="cc" /><path
           style="fill:none;fill-opacity:0.607791;stroke:#000000;stroke-width:2.64583;stroke-linecap:round;stroke-linejoin:round;stroke-dasharray:none;stroke-opacity:1;paint-order:fill markers stroke"
           d="m 36.731749,88.694208 c 1.13536,-5.444537 5.852297,-2.998611 6.02452,0.03256 0.09919,1.745762 4.670261,6.566785 4.670261,6.566785 6.828789,1.217752 9.266895,9.673107 7.047905,14.242647"
           id="path15"
           sodipodi:nodetypes="cscc" /><path
           style="fill:none;fill-opacity:0.607791;stroke:#000000;stroke-width:2.91042;stroke-linecap:round;stroke-linejoin:round;stroke-dasharray:none;stroke-opacity:1;paint-order:fill markers stroke"
           d="m 81.398633,97.7292 -8.55812,3.948 -1.999501,6.03312 -13.273285,9.44321"
           id="path18"
           sodipodi:nodetypes="cccc" /><path
           style="fill:none;fill-opacity:0.607791;stroke:#000000;stroke-width:2.64583;stroke-linecap:round;stroke-linejoin:round;stroke-dasharray:none;stroke-opacity:1;paint-order:fill markers stroke"
           d="m 63.6222,102.0073 c 4.900291,0.23889 5.360999,3.07653 6.888713,6.01348"
           id="path19"
           sodipodi:nodetypes="cc" /><path
           style="fill:none;fill-opacity:0.607791;stroke:#000000;stroke-width:2.64583;stroke-linecap:round;stroke-linejoin:round;stroke-dasharray:none;stroke-opacity:1;paint-order:fill markers stroke"
           d="m 62.210335,101.56609 -0.352967,4.58857 -6.353397,4.05911"
           id="path20" /><path
           style="fill:none;fill-opacity:0.607791;stroke:#000000;stroke-width:2.11667;stroke-linecap:round;stroke-linejoin:round;stroke-dasharray:none;stroke-opacity:1;paint-order:fill markers stroke"
           d="m 51.601689,61.897071 c -3.766305,2.128643 -8.103694,3.817632 -11.231321,4.554924"
           id="path21"
           sodipodi:nodetypes="cc" /><path
           style="fill:none;fill-opacity:0.607791;stroke:#000000;stroke-width:2.11667;stroke-linecap:round;stroke-linejoin:round;stroke-dasharray:none;stroke-opacity:1;paint-order:fill markers stroke"
           d="m 68.136695,59.026842 c 4.601291,1.476336 9.407781,2.425016 15.162286,0.935945"
           id="path22"
           sodipodi:nodetypes="cc" /><path
           style="fill:none;fill-opacity:0.607791;stroke:#000000;stroke-width:3.175;stroke-linecap:round;stroke-linejoin:round;stroke-dasharray:none;stroke-opacity:1;paint-order:fill markers stroke"
           d="m 41.602541,78.735801 c 4.208162,-3.075071 9.526692,-3.561912 14.470158,-1.447118"
           id="path23"
           sodipodi:nodetypes="cc" /><path
           style="fill:none;fill-opacity:0.607791;stroke:#000000;stroke-width:3.175;stroke-linecap:round;stroke-linejoin:round;stroke-dasharray:none;stroke-opacity:1;paint-order:fill markers stroke"
           d="M 68.865469,74.556828 C 74.33826,70.718492 80.608871,71.852902 85.370415,74.443002"
           id="path24"
           sodipodi:nodetypes="cc" /><path
           style="fill:none;fill-opacity:0.607791;stroke:#ffa094;stroke-width:1.85208;stroke-linecap:round;stroke-linejoin:round;stroke-dasharray:none;stroke-opacity:1;paint-order:fill markers stroke"
           d="m 42.429444,81.551886 -0.748756,3.369396"
           id="path25"
           sodipodi:nodetypes="cc" /><path
           style="fill:none;fill-opacity:0.607791;stroke:#ffa094;stroke-width:1.85208;stroke-linecap:round;stroke-linejoin:round;stroke-dasharray:none;stroke-opacity:1;paint-order:fill markers stroke"
           d="m 44.925293,81.052717 -0.748754,3.494189"
           id="path26"
           sodipodi:nodetypes="cc" /><path
           style="fill:none;fill-opacity:0.607791;stroke:#ffa094;stroke-width:1.85208;stroke-linecap:round;stroke-linejoin:round;stroke-dasharray:none;stroke-opacity:1;paint-order:fill markers stroke"
           d="m 83.683032,77.468016 -0.748754,3.494189"
           id="path26-2"
           sodipodi:nodetypes="cc" /><path
           style="fill:none;fill-opacity:0.607791;stroke:#ffa094;stroke-width:1.85208;stroke-linecap:round;stroke-linejoin:round;stroke-dasharray:none;stroke-opacity:1;paint-order:fill markers stroke"
           d="m 86.012079,77.637804 -0.748754,3.494189"
           id="path26-0"
           sodipodi:nodetypes="cc" /><path
           style="fill:none;fill-opacity:0.607791;stroke:#000000;stroke-width:2.11667;stroke-linecap:round;stroke-linejoin:round;stroke-dasharray:none;stroke-opacity:1;paint-order:fill markers stroke"
           d="m 57.853298,85.858083 c 2.072278,0.516755 4.553198,0.200725 5.979669,-0.847121 2.778683,0.220714 4.828037,0.310066 7.075942,10e-7 3.390834,11.031177 -5.176418,10.660965 -9.069165,5.880007"
           id="path27"
           sodipodi:nodetypes="cccc" /><path
           style="fill:none;fill-opacity:1;stroke:#000000;stroke-width:2.64583;stroke-linecap:round;stroke-linejoin:round;stroke-dasharray:none;stroke-opacity:1;paint-order:fill markers stroke"
           d="m 61.663316,123.41133 c 8.342011,2.18626 7.43909,8.24485 8.30083,13.12887"
           id="path28"
           sodipodi:nodetypes="cc" /><path
           id="rect27-6-0"
           style="fill:#1c252d;fill-opacity:0.34902;stroke-width:2.11667;stroke-linecap:round;stroke-linejoin:round;stroke-opacity:0.607843;paint-order:fill markers stroke"
           d="m 50.075795,107.09253 7.718823,5.23101 -2.386748,4.46486 -1.578252,-1.03246 -4.245689,2.83309 -1.891882,-4.37021 z"
           sodipodi:nodetypes="ccccccc" /><ellipse
           style="fill:none;fill-opacity:1;stroke:#b80901;stroke-width:2.11667;stroke-linecap:round;stroke-linejoin:round;stroke-dasharray:none;stroke-opacity:1;paint-order:fill markers stroke"
           id="path33-8"
           ry="2.3829744"
           rx="2.2847073"
           cy="113.83782"
           cx="58.902" /><ellipse
           style="fill:none;fill-opacity:1;stroke:#b50901;stroke-width:2.11667;stroke-linecap:round;stroke-linejoin:round;stroke-dasharray:none;stroke-opacity:1;paint-order:fill markers stroke"
           id="path33-9"
           ry="2.3829744"
           rx="2.2847073"
           cy="109.52508"
           cx="64.531868" /><path
           style="fill:none;fill-opacity:1;stroke:#00329a;stroke-width:2.11667;stroke-linecap:butt;stroke-linejoin:round;stroke-dasharray:none;stroke-opacity:1;paint-order:fill markers stroke"
           id="path33-8-6"
           sodipodi:type="arc"
           sodipodi:cx="58.902"
           sodipodi:cy="113.83782"
           sodipodi:rx="2.2847073"
           sodipodi:ry="2.3829744"
           sodipodi:start="6.041003"
           sodipodi:end="1.888591"
           sodipodi:arc-type="arc"
           d="m 61.120033,113.26633 a 2.2847073,2.3829744 0 0 1 -0.664718,2.31899 2.2847073,2.3829744 0 0 1 -2.267223,0.51615"
           sodipodi:open="true" /><path
           id="rect27-6-8"
           style="fill:#3a474e;fill-opacity:1;stroke-width:2.11667;stroke-linecap:round;stroke-linejoin:round;stroke-opacity:0.607843;paint-order:fill markers stroke"
           d="m 37.41905,101.43123 c 7.071258,3.1474 14.798696,5.02619 20.242869,11.31928 l -1.140703,1.60872 C 44.905943,106.52528 41.934008,106.54891 36.234474,104.09291 Z"
           sodipodi:nodetypes="ccccc" /><path
           style="fill:none;fill-opacity:0.607791;stroke:#000000;stroke-width:2.64583;stroke-linecap:round;stroke-linejoin:round;stroke-dasharray:none;stroke-opacity:1;paint-order:fill markers stroke"
           d="m 34.869395,106.45941 2.155084,-5.44697 c 10.060374,2.98238 15.309762,6.47071 20.705357,11.60836 l -2.03214,3.76485"
           id="path17"
           sodipodi:nodetypes="cccc" /><path
           style="fill:none;fill-opacity:1;stroke:#00329a;stroke-width:2.11667;stroke-linecap:butt;stroke-linejoin:round;stroke-dasharray:none;stroke-opacity:1;paint-order:fill markers stroke"
           id="path33-9-1"
           sodipodi:type="arc"
           sodipodi:cx="64.531868"
           sodipodi:cy="109.52508"
           sodipodi:rx="2.2847073"
           sodipodi:ry="2.3829744"
           sodipodi:start="6.1928341"
           sodipodi:end="1.9791676"
           sodipodi:arc-type="arc"
           d="m 66.807256,109.31007 a 2.2847073,2.3829744 0 0 1 -0.936041,2.14557 2.2847073,2.3829744 0 0 1 -2.246639,0.25646"
           sodipodi:open="true" /><path
           style="fill:none;fill-opacity:0.607791;stroke:#000000;stroke-width:2.64583;stroke-linecap:round;stroke-linejoin:round;stroke-dasharray:none;stroke-opacity:1;paint-order:fill markers stroke"
           d="M 112.84135,136.78958 H 31.270113 c -5.320128,-4.19247 -3.649526,-25.51168 0.54072,-31.60154 0,0 16.193049,8.26732 16.156527,8.29318 l 1.453554,6.1257 4.875752,-4.00252 c 3.099723,1.87726 5.718773,3.5943 8.530595,5.37559 l -9.139026,15.43857"
           id="path16"
           sodipodi:nodetypes="cccccccc" /><path
           style="fill:none;fill-opacity:1;stroke:#aa1315;stroke-width:2.11667;stroke-linecap:butt;stroke-linejoin:round;stroke-dasharray:none;stroke-opacity:1;paint-order:fill markers stroke"
           id="path33-7"
           sodipodi:type="arc"
           sodipodi:cx="69.324196"
           sodipodi:cy="113.64153"
           sodipodi:rx="2.2847073"
           sodipodi:ry="2.3829744"
           sodipodi:start="3.0967413"
           sodipodi:end="5.2010543"
           sodipodi:arc-type="arc"
           d="m 67.041786,113.74838 a 2.2847073,2.3829744 0 0 1 1.062054,-2.1214 2.2847073,2.3829744 0 0 1 2.292907,-0.0895"
           sodipodi:open="true" /></g></g></g></svg>
