<svg xmlns="http://www.w3.org/2000/svg" width="150mm" height="80mm" viewBox="0 0 531.49606 283.46457"><g transform="translate(0 -768.898)"><rect width="336.429" height="109.394" x="97.534" y="857.665" ry="11" fill="#dfbbb0"/><rect width="336.429" height="109.394" x="97.534" y="853.076" ry="11" fill="#f9d0c4"/><path d="M146.269 876.823a8.254 8.254 0 0 0-5.832-2.405h-8.104c-4.514 0-8.236 3.723-8.236 8.236v8.138c0 2.174.89 4.283 2.405 5.831l19.964 19.965a3.28 3.28 0 0 0 4.646 0l15.121-15.122a3.28 3.28 0 0 0 0-4.645l-19.964-19.998zm-17.626 17.659c-1.021-.989-1.548-2.306-1.548-3.723v-8.105c0-2.899 2.372-5.238 5.238-5.238h8.137c1.384 0 2.735.527 3.723 1.549l20.228 20.195-15.583 15.583-20.195-20.261zm2.076-13.475h6.589v6.59h-6.622v-6.59z"/><text style="line-height:125%;-inkscape-font-specification:'Noto Sans'" x="186.342" y="926.216" font-weight="400" font-size="40" font-family="Noto Sans" letter-spacing="0" word-spacing="0" fill="#332a28"><tspan x="186.342" y="926.216" style="-inkscape-font-specification:'Noto Sans Bold'" font-weight="700" font-size="60">pakreq</tspan></text></g></svg>