<?xml version="1.0" encoding="UTF-8" standalone="no"?>
<!-- Created with Inkscape (http://www.inkscape.org/) -->

<svg
   width="470"
   height="630"
   viewBox="0 0 124.35416 166.6875"
   version="1.1"
   id="svg5"
   inkscape:version="1.1.2 (0a00cf5339, 2022-02-04)"
   sodipodi:docname="electron_prohibited.svg"
   xmlns:inkscape="http://www.inkscape.org/namespaces/inkscape"
   xmlns:sodipodi="http://sodipodi.sourceforge.net/DTD/sodipodi-0.dtd"
   xmlns="http://www.w3.org/2000/svg"
   xmlns:svg="http://www.w3.org/2000/svg">
  <sodipodi:namedview
     id="namedview7"
     pagecolor="#505050"
     bordercolor="#ffffff"
     borderopacity="1"
     inkscape:pageshadow="0"
     inkscape:pageopacity="0"
     inkscape:pagecheckerboard="1"
     inkscape:document-units="mm"
     showgrid="false"
     inkscape:snap-global="false"
     inkscape:zoom="0.32"
     inkscape:cx="-325"
     inkscape:cy="153.125"
     inkscape:window-width="1920"
     inkscape:window-height="1011"
     inkscape:window-x="0"
     inkscape:window-y="36"
     inkscape:window-maximized="1"
     inkscape:current-layer="layer1"
     units="px" />
  <defs
     id="defs2">
    <rect
       x="124.20645"
       y="578.80457"
       width="541.46729"
       height="85.023453"
       id="rect11104" />
    <rect
       x="124.20645"
       y="578.80457"
       width="395.4234"
       height="94.439369"
       id="rect11104-1" />
  </defs>
  <g
     inkscape:label="Layer 1"
     inkscape:groupmode="layer"
     id="layer1">
    <rect
       style="fill:#053391;fill-opacity:1;stroke:none;stroke-width:5.05122;stroke-linecap:square;stroke-miterlimit:4;stroke-dasharray:none"
       id="rect858"
       width="124.35416"
       height="166.6875"
       x="9.1113279e-06"
       y="3.2861328e-07" />
    <rect
       style="fill:none;fill-opacity:1;stroke:#ffffff;stroke-width:1.18183;stroke-linecap:square;stroke-linejoin:round;stroke-miterlimit:10;stroke-dasharray:none;stroke-opacity:1"
       id="rect858-5"
       width="115.23483"
       height="157.56818"
       x="4.5596709"
       y="4.5596623"
       ry="3.9646118" />
    <circle
       style="fill:#ffffff;fill-opacity:1;stroke:none;stroke-width:1.69116;stroke-linecap:square;stroke-linejoin:round;stroke-miterlimit:200;stroke-dasharray:none;stroke-opacity:1"
       id="path3301"
       cx="62.177086"
       cy="60.577156"
       r="41.83007" />
    <path
       id="path3301-2"
       style="color:#000000;fill:#ea0112;stroke-width:1;stroke-linecap:square;stroke-linejoin:round;stroke-miterlimit:4;stroke-dasharray:none"
       d="m 62.1762,19.566516 c -22.62051,-10e-6 -41.0099,18.38939 -41.0099,41.0099 0,22.62051 18.38939,41.011984 41.0099,41.011974 22.62051,0 41.01196,-18.391464 41.01196,-41.011974 0,-22.6205 -18.39145,-41.0099 -41.01196,-41.0099 z m 0,4.87929 c 19.98351,10e-6 36.13267,16.1471 36.13267,36.13061 0,9.33944 -3.52792,17.84022 -9.32552,24.2471 L 38.88046,32.940896 c 6.28615,-5.30177 14.41101,-8.49509 23.29574,-8.49509 z m -26.80664,11.88351 50.10289,51.88262 c -6.28656,5.30168 -14.41161,8.49561 -23.29625,8.49561 -19.98352,1e-5 -36.13061,-16.14761 -36.13061,-36.13113 0,-9.33931 3.52696,-17.84025 9.32397,-24.2471 z" />
    <g
       aria-label="严禁倾倒电子垃圾"
       transform="matrix(0.26458333,0,0,0.26458333,-20.05017,-40.120633)"
       id="text11102"
       style="font-weight:bold;font-size:46.6667px;line-height:1.25;font-family:'Noto Sans CJK SC';-inkscape-font-specification:'Noto Sans CJK SC, Bold';white-space:pre;shape-inside:url(#rect11104);fill:#fcfcfc">
      <path
         d="m 145.53371,593.17803 h 3.87334 v 10.31334 h -3.87334 z m 22.44668,10.31334 h -13.06667 v -10.31334 h 11.66667 v -4.76 h -37.80002 v 4.76 h 11.29334 v 10.31334 h -11.24668 v 6.95334 c 0,4.57334 -0.32666,10.87334 -3.59333,15.44668 1.12,0.7 3.45333,2.84666 4.34,3.92 3.92,-5.32 4.76,-13.72001 4.76,-19.32001 v -2.14667 h 33.64669 z m -37.38002,-8.4 c 1.35333,2.47333 2.66,5.92667 3.03333,8.16667 l 5.04001,-1.77334 c -0.51334,-2.24 -1.82,-5.6 -3.31334,-8.02667 z m 29.82002,8.26 c 1.4,-2.1 3.12667,-5.27334 4.76,-8.30667 l -5.83333,-1.58667 c -0.74667,2.56667 -2.19334,6.11334 -3.45334,8.40001 z"
         id="path39047" />
      <path
         d="m 181.14032,605.40471 h 5.13333 v -6.06668 c 1.54,1.21334 3.17334,2.52001 4.06001,3.40667 l 2.89333,-3.73333 c -1.12,-0.74667 -5.08667,-3.22 -6.95334,-4.24667 v -0.0467 h 5.92667 v -4.48 h -5.92667 v -4.06 h -5.13333 v 4.06 h -7.09334 v 4.48 h 5.6 c -1.96,2.8 -4.71334,5.50667 -7.42,7.00001 1.12,0.88666 2.56666,2.66 3.31333,3.78 2.00667,-1.35334 3.92,-3.36 5.60001,-5.6 z m -2.28667,5.78667 h 31.26669 v -4.48001 h -31.26669 z m 2.14667,7.84 c -1.86667,2.61334 -5.13334,5.18001 -8.40001,6.81334 1.21333,0.79333 3.31334,2.47333 4.34,3.40667 3.26667,-1.96 7.00001,-5.27334 9.28668,-8.58667 z m 19.92668,2.42667 c 3.22,2.19333 7.18667,5.50667 8.96,7.60667 l 4.76001,-2.89333 c -2.05334,-2.19334 -6.16001,-5.32001 -9.28668,-7.32668 z m -27.16002,-3.26667 h 17.78001 v 6.16001 c 0,0.56 -0.23333,0.7 -0.98,0.74666 -0.7,0.0467 -3.40667,0.0467 -5.74001,-0.0933 0.70001,1.35333 1.54001,3.31333 1.86667,4.80667 3.40667,0 5.97334,-0.0467 7.88667,-0.74667 2.00667,-0.74667 2.56667,-1.96 2.56667,-4.57333 v -6.30001 h 17.64002 v -4.66667 h -41.02003 z m 40.69336,-23.47335 v -4.48 H 206.807 v -4.06 h -5.22667 v 4.06 h -7.74667 v 4.48 h 6.11334 c -2.00667,2.75334 -5.04001,5.41334 -7.93334,6.86001 1.02666,0.88666 2.52,2.61333 3.26667,3.73333 2.24,-1.4 4.43333,-3.54667 6.3,-5.92667 v 6.02001 h 5.22667 v -5.78667 c 1.86667,2.28666 3.92,4.43333 5.83334,5.78667 0.79333,-1.16667 2.33333,-2.89334 3.45333,-3.78001 -2.75333,-1.49333 -5.92667,-4.24667 -8.12,-6.90667 z"
         id="path39049" />
      <path
         d="m 242.50694,596.91137 v 22.21334 h 4.76 v -17.45334 h 8.54001 v 17.31334 h 4.94667 v -22.07334 h -7.88668 c 0.46667,-1.07334 1.02667,-2.28667 1.54,-3.54667 h 8.16668 v -4.66667 h -22.21335 v 4.66667 h 8.4 c -0.28,1.21333 -0.56,2.42667 -0.88666,3.54667 z m -16.14668,-10.59334 c -1.77334,6.58 -4.80667,13.16 -8.21334,17.54667 0.84,1.44667 2.14667,4.66667 2.52,5.97334 0.88667,-1.16667 1.82,-2.47333 2.70667,-3.87333 v 23.80001 h 4.94667 V 596.1647 c 1.16667,-2.75334 2.14667,-5.64667 2.98667,-8.44667 z m 9.75334,28.93335 v -10.78001 h 4.80667 v -4.66667 h -4.80667 v -8.30667 h -4.66667 v 23.70668 c 0,1.77334 -0.74667,2.70667 -1.54,3.17334 0.79333,1.16667 1.72667,3.45333 2.00667,4.80667 0.74666,-0.79334 2.05333,-1.82 8.72667,-5.18001 -0.0933,-1.12 -0.0467,-3.31333 0.18667,-4.80667 z m 17.45334,-12.18001 h -4.29333 v 9.38001 c 0,4.29333 -1.44667,10.87334 -10.08001,14.28001 1.12,0.74666 2.38,2.24 2.98667,3.22 10.36001,-4.2 11.38667,-11.38668 11.38667,-17.45335 z m -2.00666,19.60001 c 2.89333,2.10001 6.62667,5.04001 8.35333,7.04668 l 2.98667,-3.82667 c -1.86666,-1.91334 -5.64667,-4.66667 -8.54,-6.53334 z"
         id="path39051" />
      <path
         d="m 294.54022,593.73803 v -4.62 h -16.70668 v 4.62 h 3.40667 c -0.93334,2.70667 -2.1,5.04 -2.56667,5.83334 -0.60667,1.02667 -1.30667,1.72667 -1.91333,1.96 0.51333,1.26 1.35333,3.54667 1.58666,4.57334 1.12,-0.65334 2.75334,-1.02667 12.46001,-2.75334 0.51334,1.12 0.93334,2.19334 1.21334,3.12667 l 4.06,-1.91333 v 13.44 h 4.71333 V 590.2847 h -4.71333 v 13.86 c -0.93334,-2.61333 -2.98667,-6.34667 -4.94667,-9.19333 l -3.92,1.58666 c 0.56,0.88667 1.12,1.91334 1.68,2.89334 l -5.60001,0.84 c 1.26,-2.00667 2.38,-4.34 3.31334,-6.53334 z m -21.37335,-7.51334 c -1.72667,6.72001 -4.76,13.53335 -8.16667,17.96668 0.88666,1.49334 2.19333,4.71334 2.56667,6.11334 0.7,-0.93334 1.4,-1.91334 2.1,-2.98667 v 22.40002 h 5.08667 V 597.4247 c 1.35333,-3.22 2.52,-6.53334 3.45333,-9.80001 z m 14.84001,28.84002 h 6.44 v -4.57333 h -6.44 v -4.34001 h -5.13334 v 4.34001 h -5.78667 v 4.57333 h 5.78667 v 5.60001 c -2.61333,0.42 -5.04,0.79333 -7.04667,1.07333 l 0.84,4.9 c 5.13334,-0.98 12.08668,-2.24 18.57335,-3.54667 l -0.32667,-4.48 c -2.28667,0.42 -4.66667,0.79334 -6.90667,1.21334 z m 14.88668,-27.48668 v 35.88669 c 0,0.74667 -0.28,0.98 -1.07334,1.02667 -0.79333,0 -3.26667,0 -5.78667,-0.0933 0.7,1.30667 1.54,3.45334 1.82,4.80667 3.59334,0 6.06667,-0.14 7.70001,-0.93333 1.72667,-0.79334 2.28667,-2.1 2.28667,-4.85334 v -35.84002 z"
         id="path39053" />
      <path
         d="m 339.80683,623.65138 c -2.56667,0 -2.89334,-0.46666 -2.89334,-3.36 v -2.61333 h 13.72001 c -0.42,4.76 -0.98,5.97333 -3.17333,5.97333 z m -17.92002,-11.38667 v -4.34 h 9.05334 v 4.34 z m 9.05334,-13.95334 v 4.52667 h -9.05334 v -4.52667 z m 15.02668,9.61334 v 4.34 h -9.05334 v -4.34 z m 0,-9.61334 v 4.52667 h -9.05334 v -4.52667 z m 5.69334,-5.41334 h -14.74668 v -6.48667 h -5.97334 v 6.48667 h -14.79334 v 27.53335 h 5.74 v -2.75333 h 9.05334 v 2.56667 c 0,7.09333 1.82001,9.00667 8.21334,9.00667 h 8.86668 c 5.69333,0 7.37333,-2.70667 8.16667,-10.03334 -1.35334,-0.28 -3.12667,-1.02667 -4.52667,-1.77334 z"
         id="path39055" />
      <path
         d="M 402.10678,606.33804 H 384.0001 v -3.54667 c 5.36667,-2.89333 10.96668,-7.09334 14.93335,-11.01334 l -4.20001,-3.22 -1.30666,0.28 h -29.07336 v 5.50667 h 22.86669 c -2.70667,2.00667 -6.06668,4.10667 -9.00668,5.50667 v 6.48667 h -18.48001 v 5.55334 h 18.48001 v 11.10667 c 0,0.79333 -0.32666,1.02667 -1.35333,1.07334 -0.98,0.0467 -4.62001,0.0467 -7.88667,-0.14001 0.93333,1.58667 2.05333,4.10667 2.38,5.74001 4.29333,0.0467 7.46667,-0.0933 9.75334,-0.98 2.19333,-0.88667 2.89333,-2.42667 2.89333,-5.55334 v -11.24667 h 18.10668 z"
         id="path39057" />
      <path
         d="m 448.30673,594.01803 h -14.00001 l 4.38667,-1.26 c -0.51334,-1.91333 -1.44667,-4.85334 -2.38001,-7.09334 l -5.27333,1.30667 c 0.79333,2.14667 1.72667,5.04 2.05333,7.04667 h -10.73334 v 5.22667 h 25.94669 z m -14.93335,25.80669 c -0.42,-4.71334 -1.77333,-12.78668 -3.17333,-18.90002 l -4.90001,1.07334 c 1.26,6.25333 2.42667,14.46667 2.80001,19.27334 z m -11.76001,-6.72001 -4.9,1.77334 v -12.36668 h 4.38667 v -5.27334 h -4.38667 v -10.45334 h -5.41334 v 10.45334 h -4.9 v 5.27334 h 4.9 v 14.28001 c -2.14666,0.7 -4.06,1.35333 -5.69333,1.82 l 1.82,5.69334 c 4.43333,-1.72667 10.08,-4.01334 15.26001,-6.11334 z m 19.83335,9.47334 c 1.58667,-5.83334 3.26667,-13.95334 4.43334,-21.00001 l -5.88001,-0.88667 c -0.60666,6.76667 -2.14666,15.82001 -3.64,21.88668 h -16.10001 v 5.22667 h 29.07335 v -5.22667 z"
         id="path39059" />
      <path
         d="m 483.77331,594.11136 c -0.98,4.20001 -2.1,8.54001 -3.12667,11.62001 h 7.84001 c -1.07333,3.96667 -2.66,7.42001 -4.66667,10.40668 -2.94,-3.45334 -5.18,-7.56001 -6.76667,-11.94668 0.37333,-3.17333 0.65333,-6.53334 0.84,-10.08001 z m 7.46668,6.62668 -0.98001,0.23333 h -3.03333 c 1.02667,-3.73334 2.1,-8.12001 2.89333,-11.94668 h -21.79334 v 5.08667 h 4.38667 c -0.42,9.47334 -1.44667,17.73335 -4.06001,24.12669 l -1.07333,-4.94667 -4.29334,1.58667 v -12.36668 h 4.85334 v -5.27334 h -4.85334 v -10.45334 h -5.13333 v 10.45334 h -5.18001 v 5.27334 h 5.18001 v 14.18668 c -2.24001,0.74666 -4.29334,1.44666 -5.97334,1.91333 l 1.82,5.64667 c 4.24667,-1.63333 9.66001,-3.78 14.60668,-5.78667 -1.35334,3.17334 -3.03334,5.92667 -5.27334,8.16667 1.21333,0.7 3.68667,2.33334 4.52667,3.17334 3.78,-4.34 6.20667,-9.98667 7.7,-16.75335 1.44667,2.61334 3.03334,5.04001 4.85334,7.23334 -2.14667,2.19334 -4.62,3.96667 -7.32667,5.32001 1.21333,0.79333 3.03333,2.89333 3.82667,4.15333 2.66,-1.44667 5.04,-3.26667 7.28,-5.6 2.47334,2.24 5.27334,4.06 8.44668,5.46 0.84,-1.4 2.47333,-3.5 3.68667,-4.52667 -3.22001,-1.26 -6.16001,-2.98667 -8.72668,-5.22667 3.17334,-4.66667 5.64667,-10.64001 7.00001,-17.78001 z"
         id="path39061" />
    </g>
    <g
       aria-label="违者从严处罚"
       transform="matrix(0.26458333,0,0,0.26458333,-20.96101,-23.45946)"
       id="text11102-5"
       style="font-weight:bold;font-size:64px;line-height:1.25;font-family:'Noto Sans CJK SC';-inkscape-font-specification:'Noto Sans CJK SC, Bold';white-space:pre;shape-inside:url(#rect11104-1);fill:#fcfcfc">
      <path
         d="m 160.11103,639.34869 h 7.232 v -14.336 h 10.432 c -0.384,3.52 -0.832,5.184 -1.344,5.824 -0.512,0.448 -1.024,0.576 -1.792,0.576 -1.024,0 -2.944,-0.064 -4.928,-0.256 0.896,1.664 1.6,4.16 1.664,6.08 2.688,0.128 5.248,0.064 6.656,-0.128 1.728,-0.128 3.008,-0.64 4.16,-1.984 1.472,-1.536 2.176,-5.568 2.752,-14.144 0.128,-0.896 0.192,-2.56 0.192,-2.56 h -17.792 v -5.184 h 14.72 v -6.4 h -14.72 v -4.8 h 16.768 v -6.528 h -16.768 v -5.696 h -7.232 v 5.696 h -15.36 v 6.528 h 15.36 v 4.8 h -12.992 v 6.4 h 12.992 v 5.184 h -15.68 v 6.592 h 15.68 z m -17.088,-38.208 c -2.112,-2.88 -6.528,-7.232 -9.984,-10.048 l -5.76,4.096 c 3.456,3.136 7.744,7.68 9.6,10.496 z m -1.344,10.88 h -14.528 v 7.04 h 7.232 v 17.152 c -2.496,1.28 -5.184,3.328 -7.744,5.888 l 4.608,6.464 c 2.624,-3.648 5.632,-7.424 7.616,-7.424 1.536,0 3.584,1.856 6.336,3.264 4.608,2.432 9.92,3.136 17.536,3.136 6.4,0 16.576,-0.32 21.184,-0.64 0.128,-1.984 1.216,-5.376 1.984,-7.296 -6.272,0.896 -16.256,1.408 -22.912,1.408 -6.784,0 -12.544,-0.384 -16.704,-2.624 -1.984,-1.088 -3.392,-2.048 -4.608,-2.752 z"
         id="path39082" />
      <path
         d="m 219.63091,602.42069 h 10.432 c -2.176,2.048 -4.48,3.968 -6.912,5.824 h -3.52 z m 13.952,27.968 h -22.016 v -4.096 h 22.016 z m -22.016,10.112 v -4.352 h 22.016 v 4.352 z m 37.312,-25.536 v -6.72 h -14.848 c 4.672,-4.288 8.96,-9.024 12.608,-14.08 l -6.528,-3.328 c -1.984,2.816 -4.16,5.504 -6.592,8.128 v -3.136 h -13.888 v -6.912 h -7.552 v 6.912 h -15.04 v 6.592 h 15.04 v 5.824 h -20.544 v 6.72 h 21.76 c -7.36,4.352 -15.36,8 -23.744,10.624 1.408,1.536 3.712,4.608 4.608,6.272 3.264,-1.216 6.592,-2.624 9.792,-4.032 v 20.928 h 7.616 v -1.92 h 22.016 v 1.664 h 8 v -28.416 h -23.296 c 2.624,-1.664 5.056,-3.328 7.552,-5.12 z"
         id="path39084" />
      <path
         d="m 285.87079,626.93269 c -2.304,-4.48 -7.104,-10.944 -11.712,-15.872 0.768,-6.528 1.28,-13.568 1.536,-20.992 l -8.384,-0.256 c -0.704,23.296 -3.2,42.56 -13.376,53.184 2.048,1.152 6.144,3.968 7.552,5.312 5.696,-6.912 9.152,-16.256 11.264,-27.584 3.072,4.16 5.824,8.576 7.36,11.776 z m 6.08,-37.12 c -0.896,24 -4.032,42.88 -15.872,53.12 2.112,1.216 6.208,4.032 7.552,5.312 5.632,-5.696 9.408,-13.184 11.968,-22.336 2.752,8.192 6.976,16.32 13.184,21.568 1.152,-2.24 3.968,-5.568 5.696,-7.04 -8.96,-6.272 -13.632,-19.392 -15.872,-29.76 0.896,-6.336 1.408,-13.184 1.792,-20.544 z"
         id="path39086" />
      <path
         d="m 345.45467,598.51669 h 5.312 v 14.144 h -5.312 z m 30.784,14.144 h -17.92 v -14.144 h 16 v -6.528 h -51.84 v 6.528 h 15.488 v 14.144 h -15.424 v 9.536 c 0,6.272 -0.448,14.912 -4.928,21.184 1.536,0.96 4.736,3.904 5.952,5.376 5.376,-7.296 6.528,-18.816 6.528,-26.496 v -2.944 h 46.144 z m -51.264,-11.52 c 1.856,3.392 3.648,8.128 4.16,11.2 l 6.912,-2.432 c -0.704,-3.072 -2.496,-7.68 -4.544,-11.008 z m 40.896,11.328 c 1.92,-2.88 4.288,-7.232 6.528,-11.392 l -8,-2.176 c -1.024,3.52 -3.008,8.384 -4.736,11.52 z"
         id="path39088" />
      <path
         d="m 426.09454,612.72469 c 3.328,4.416 6.592,9.216 8.256,12.48 l 6.848,-4.16 c -2.752,-4.8 -8.64,-12.032 -13.056,-17.408 l -2.048,1.152 v -15.872 h -8.192 v 47.616 h 8.192 z m -20.544,-6.72 c -0.96,6.976 -2.496,12.8 -4.608,17.728 -1.984,-3.52 -3.648,-7.872 -5.056,-13.248 0.512,-1.408 0.96,-2.944 1.472,-4.48 z m 3.392,-7.232 -1.344,0.192 h -8.384 c 0.64,-2.752 1.216,-5.44 1.728,-8.256 l -8.064,-1.664 c -1.728,12.736 -5.44,25.28 -10.112,31.68 1.984,1.024 4.8,2.944 6.272,4.288 0.96,-1.472 1.984,-3.136 3.008,-5.056 1.408,4.224 3.072,7.936 4.864,10.944 -3.776,5.504 -8.832,9.472 -15.04,12.224 1.856,1.088 5.056,4.16 6.336,5.952 5.376,-2.688 9.984,-6.4 13.824,-11.456 7.424,7.808 16.96,9.856 27.456,9.856 h 10.432 c 0.448,-2.24 1.728,-6.208 2.944,-8.064 -3.008,0.064 -10.368,0.064 -12.928,0.064 -8.832,0 -17.216,-1.664 -23.808,-8.512 4.032,-7.872 6.784,-18.048 8,-30.912 z"
         id="path39090" />
      <path
         d="m 465.45442,636.40469 v -15.616 h -17.152 v 7.04 h 9.664 v 8.384 c 0,2.88 -1.856,4.8 -3.264,5.696 1.216,1.536 3.008,4.736 3.52,6.592 1.536,-1.344 3.968,-2.752 17.664,-8.704 -0.448,-1.664 -0.96,-4.992 -1.024,-7.168 z m 28.672,3.648 c 0,0.96 -0.32,1.216 -1.472,1.216 -1.024,0 -4.8,0.064 -8.256,-0.064 1.024,2.048 2.048,5.12 2.368,7.232 5.12,0.064 8.832,-0.064 11.328,-1.216 2.624,-1.152 3.328,-3.136 3.328,-7.04 v -29.632 h -7.296 z m -9.024,-26.56 h -7.232 v 21.44 h 7.232 z m 9.088,-10.496 h -7.552 v -6.464 h 7.552 z m -14.528,0 h -7.296 v -6.464 h 7.296 z m -14.272,0 h -7.232 v -6.464 h 7.232 z m -14.528,-11.968 v 17.536 h 6.848 l -3.648,4.736 c 3.968,2.112 9.856,5.248 12.608,7.232 l 4.032,-5.696 c -2.816,-1.856 -8.32,-4.48 -12.224,-6.272 h 43.328 v -17.536 z"
         id="path39092" />
    </g>
    <path
       id="path2977"
       style="color:#000000;fill:#000000;fill-opacity:1;stroke-width:5.00001;stroke-linejoin:round;-inkscape-stroke:none"
       d="M 235.0918 121.85352 C 226.69163 121.85352 219.82815 128.71702 219.82812 137.11719 C 219.82812 145.51737 226.69162 152.38086 235.0918 152.38086 C 239.93356 152.38086 244.17782 150.0414 246.97656 146.50391 C 254.67979 151.75703 261.79674 161.86302 266.93945 175.55859 C 272.48364 190.32333 275.81836 208.91043 275.81836 228.90234 C 275.81836 236.78821 275.29873 244.51255 274.31055 251.92578 L 283.3125 261.24805 C 285.18277 250.98591 286.15625 240.0835 286.15625 228.90234 C 286.15625 207.09306 282.45073 186.73845 276 170.32422 C 269.79661 154.53933 261.05373 142.3705 250.26953 136.2207 C 249.79341 128.24226 243.18911 121.85352 235.0957 121.85352 L 235.0918 121.85352 z M 235.06836 132.1875 C 237.80207 132.21282 239.95313 134.38336 239.95312 137.11719 C 239.95312 139.85101 237.80207 142.02171 235.06836 142.04688 C 232.29751 142.0722 230.09375 139.88816 230.09375 137.11719 C 230.09375 134.34622 232.29751 132.16199 235.06836 132.1875 z M 189.5918 162.88477 C 189.17303 162.88627 188.76632 162.90624 188.35156 162.91406 L 198.77734 173.71094 C 201.29436 173.97544 203.89347 174.34381 206.57422 174.83203 C 208.06379 175.1031 209.60974 174.71642 210.67969 173.87891 C 211.74963 173.04141 212.36318 171.87642 212.58203 170.67383 C 212.8009 169.47125 212.63793 168.16467 211.93164 167.00391 C 211.22536 165.84316 209.9134 164.93711 208.42383 164.66602 C 201.78947 163.45778 195.47919 162.86365 189.5918 162.88477 z M 281.2168 163.03125 C 279.72911 163.04788 278.30938 163.69955 277.41797 164.69531 C 276.52656 165.69107 276.1229 166.92576 276.10742 168.13281 C 276.09193 169.33987 276.46451 170.58327 277.33008 171.60156 C 278.19567 172.61985 279.59722 173.30662 281.08398 173.36133 A 2.500255 2.500255 0 0 0 281.14258 173.36328 C 295.84361 173.55471 305.77616 178.09491 310.10547 185.59375 C 313.08399 190.75309 313.50729 197.42686 311.19727 205.27734 C 308.88724 213.12782 303.81604 222.02968 296.11523 231.12695 C 295.13687 232.28269 294.70069 233.81487 294.89258 235.16016 C 295.08446 236.50543 295.78765 237.62031 296.7207 238.41016 C 297.65376 239.20002 298.86806 239.71057 300.22656 239.67773 C 301.58506 239.64485 303.02554 238.96043 304.00391 237.80469 C 312.69224 227.54075 318.63063 217.18197 321.35352 207.36914 C 324.07639 197.55629 323.53258 188.18327 319.05469 180.42773 L 319.05664 180.42773 C 312.46734 169.01325 298.7104 163.25809 281.27734 163.03125 A 2.500255 2.500255 0 0 0 281.2168 163.03125 z M 258.78906 165.44922 C 258.44823 165.4587 258.10747 165.50129 257.77344 165.57812 C 242.09077 168.9432 225.49511 175.48523 209.5625 184.68359 C 209.52239 184.70675 209.48344 184.73073 209.44336 184.75391 L 216.85547 192.42969 C 231.25739 184.37153 246.11934 178.64249 259.97461 175.67383 L 259.9375 175.67969 C 262.51996 175.16683 264.12558 172.75291 264.09766 170.54688 C 264.06969 168.34084 262.40321 165.9688 259.80859 165.52148 C 259.47079 165.46332 259.12989 165.43974 258.78906 165.44922 z M 160.98047 170.03906 C 156.83703 172.70002 153.46332 176.10904 151.04883 180.29102 C 144.35845 191.87965 146.41735 206.93571 155.26562 222.38867 C 156.00153 223.7366 157.29693 224.7086 158.64258 225.00195 C 159.99153 225.29604 161.29822 225.01216 162.37109 224.39648 C 162.67527 224.22195 162.91938 223.95151 163.18945 223.71875 C 152.72958 237.13319 146.77041 250.90713 147.26953 263.33789 C 143.34929 266.10196 140.70898 270.5713 140.70898 275.71484 C 140.70898 284.11525 147.57375 290.97656 155.97266 290.97656 C 164.37317 290.97656 171.23633 284.11478 171.23633 275.71484 C 171.23633 267.87076 165.22997 261.44198 157.59766 260.61523 C 158.05029 251.34701 163.24061 239.99796 172.49805 228.57617 C 178.67767 220.95177 186.60283 213.31154 195.89258 206.19141 L 188.67969 198.72266 C 179.06812 206.20839 170.79753 214.27756 164.20898 222.49609 C 164.40979 222.16743 164.64968 221.87129 164.77539 221.48438 C 165.202 220.1713 165.01626 218.55544 164.21875 217.23828 C 156.74447 204.17649 155.60384 193.07183 160 185.45703 L 159.99805 185.45703 C 161.82546 182.29208 164.63244 179.67787 168.36133 177.68359 L 160.98047 170.03906 z M 173.19727 232.4707 C 170.99825 232.36299 169.08087 233.69795 168.26562 235.43555 C 167.4504 237.17315 167.64832 239.50073 169.13672 241.12305 C 179.85242 252.89669 193.70286 263.876 209.48438 272.98633 C 228.02842 283.69305 247.15672 290.60827 264.36523 293.33594 C 270.26722 294.27144 275.93996 294.7063 281.29492 294.62695 L 270.80859 283.76758 C 268.77506 283.54915 266.69685 283.26599 264.56836 282.89844 C 249.17431 280.24021 231.68668 273.87301 214.65039 264.03711 C 199.74386 255.43089 186.711 245.08112 176.7793 234.16797 C 175.85902 233.14826 174.5692 232.53782 173.19727 232.4707 z M 314.02734 260.45117 C 305.62717 260.45117 298.76564 267.31513 298.76562 275.71484 C 298.76562 276.28318 298.81876 276.83628 298.89258 277.38281 L 311.83398 290.7832 C 312.54706 290.90475 313.2766 290.97656 314.02734 290.97656 C 322.42706 290.97656 329.29102 284.11501 329.29102 275.71484 C 329.29102 267.31467 322.42753 260.45117 314.02734 260.45117 z M 155.97266 270.7832 C 158.7254 270.7832 160.90234 272.9621 160.90234 275.71484 C 160.90234 278.46758 158.7254 280.64453 155.97266 280.64453 C 153.21992 280.64453 151.04297 278.46758 151.04297 275.71484 C 151.04297 272.9621 153.21992 270.7832 155.97266 270.7832 z M 314.02734 270.7832 C 316.77579 270.78259 318.95003 272.95474 318.95703 275.70117 C 318.91224 280.0306 314.2142 282.18275 310.9043 279.44336 C 310.70168 279.19406 310.47777 278.96927 310.23242 278.76172 C 309.51868 277.89835 309.11901 276.82069 309.10156 275.69922 C 309.1095 272.95446 311.28024 270.78332 314.02734 270.7832 z M 197.58789 277.07422 C 197.438 277.07838 197.28764 277.08985 197.13672 277.10742 C 193.88625 277.48801 191.79973 280.91666 192.89844 283.98242 A 2.500255 2.500255 0 0 0 192.89062 284.0332 C 192.89667 284.04983 192.90411 284.06341 192.91016 284.08008 C 197.45104 296.74161 203.44608 307.07291 210.58008 314.3457 C 217.72335 321.62796 226.12401 325.85547 235.0918 325.85547 C 248.15955 325.85547 259.93459 316.96967 268.82031 302.21094 L 268.82227 302.20703 C 269.63915 300.90735 269.85321 299.30162 269.45312 297.98438 C 269.05268 296.66585 268.16994 295.66583 267.11133 295.0293 C 266.05271 294.39278 264.7547 294.08111 263.40234 294.3457 C 262.04999 294.61031 260.73133 295.55371 259.9668 296.88672 L 259.99219 296.8418 C 252.50669 309.29314 243.68318 315.52148 235.0918 315.52148 C 229.12545 315.52148 223.12481 312.5431 217.47461 306.60156 C 211.83297 300.66902 206.66275 291.81923 202.63867 280.59961 C 201.96345 278.58237 200.10667 277.20515 198.03516 277.08203 C 197.88719 277.07315 197.73778 277.07006 197.58789 277.07422 z "
       transform="scale(0.26458333)" />
  </g>
</svg>
