<?xml version="1.0" encoding="UTF-8" standalone="no"?>
<!-- Created with Inkscape (http://www.inkscape.org/) -->

<svg
   width="512"
   height="256"
   viewBox="0 0 135.46666 67.733335"
   version="1.1"
   id="svg25782"
   inkscape:version="1.2.1 (9c6d41e410, 2022-07-14)"
   sodipodi:docname="be_sure_its_legal.svg"
   xml:space="preserve"
   xmlns:inkscape="http://www.inkscape.org/namespaces/inkscape"
   xmlns:sodipodi="http://sodipodi.sourceforge.net/DTD/sodipodi-0.dtd"
   xmlns:xlink="http://www.w3.org/1999/xlink"
   xmlns="http://www.w3.org/2000/svg"
   xmlns:svg="http://www.w3.org/2000/svg"><sodipodi:namedview
     id="namedview25784"
     pagecolor="#505050"
     bordercolor="#ffffff"
     borderopacity="1"
     inkscape:showpageshadow="0"
     inkscape:pageopacity="0"
     inkscape:pagecheckerboard="1"
     inkscape:deskcolor="#505050"
     inkscape:document-units="px"
     showgrid="false"
     inkscape:zoom="1.0737464"
     inkscape:cx="334.34338"
     inkscape:cy="111.29257"
     inkscape:window-width="1920"
     inkscape:window-height="1031"
     inkscape:window-x="4096"
     inkscape:window-y="0"
     inkscape:window-maximized="1"
     inkscape:current-layer="layer1" /><defs
     id="defs25779"><linearGradient
       inkscape:collect="always"
       id="linearGradient27165"><stop
         style="stop-color:#7487c0;stop-opacity:0.52118552;"
         offset="0"
         id="stop27161" /><stop
         style="stop-color:#a1a5af;stop-opacity:0.23480056;"
         offset="1"
         id="stop27163" /></linearGradient><linearGradient
       inkscape:collect="always"
       xlink:href="#linearGradient27165"
       id="linearGradient27167"
       x1="204.32436"
       y1="168.90291"
       x2="184.18137"
       y2="126.29025"
       gradientUnits="userSpaceOnUse"
       gradientTransform="matrix(0.953156,0,0,0.953156,-93.697515,-109.81687)" /></defs><g
     inkscape:label="Layer 1"
     inkscape:groupmode="layer"
     id="layer1"><g
       id="g331"
       inkscape:export-filename="be_sure_its_legal.webp"
       inkscape:export-xdpi="130.03705"
       inkscape:export-ydpi="130.03705"><path
         style="color:#000000;fill:#fafafa;fill-opacity:1;stroke-width:0.953156;stroke-linecap:square;stroke-linejoin:round;-inkscape-stroke:none;paint-order:markers stroke fill"
         d="m 85.475164,0.79374967 c -6.445469,0 -12.825021,1.91076703 -17.303881,6.62369173 -0.319578,0.3362829 -0.516656,0.77422 -0.807948,1.1355995 -0.38026,-0.03784 -0.786648,-0.1675552 -1.146766,-0.1675552 h -3.65997 c -0.229002,0.067197 -0.454,0.1474151 -0.673911,0.2401571 C 61.444669,8.4971765 60.993994,8.4166539 60.538589,8.3854857 H 58.615523 C 58.238749,8.4817068 57.871684,8.6125846 57.519021,8.7764321 56.819947,8.5180887 56.080608,8.3857239 55.335325,8.3854857 H 53.410397 C 52.902946,8.4988636 52.411466,8.6745683 51.947154,8.9086063 50.705908,8.500808 49.435224,8.2235254 48.274152,8.2235254 c -1.473328,0 -2.940249,0.500445 -4.333881,1.202616 C 42.960777,8.7795108 41.820245,8.419113 40.647042,8.3854857 H 34.607906 C 34.045493,8.5033243 33.501827,8.6974917 32.992008,8.962593 31.889229,8.5844188 30.815061,8.3854857 29.860742,8.3854857 h -4.009957 c -3.003777,7.815e-4 -5.589975,2.1203713 -6.180621,5.0655093 l -1.882111,9.386347 c -0.460641,3.365622 1.827774,6.491202 5.17534,7.068624 l -0.0726,0.370463 c -0.09268,1.341386 0.245852,2.677272 0.966187,3.812624 l -0.08191,0.409561 h 0.186164 c 0.08348,0.354212 0.197462,0.700522 0.340679,1.035071 -1.617494,0.806236 -2.811272,2.267777 -3.278336,4.013673 l -0.484025,2.379173 c -0.794616,3.907272 2.191504,7.561872 6.17876,7.561949 h 6.415187 c 0.722739,-0.124349 1.418245,-0.373819 2.055242,-0.737209 1.265245,0.48121 2.500679,0.737209 3.553857,0.737209 h 1.775998 c 1.632952,-0.06539 3.176743,-0.762154 4.305957,-1.943543 2.123047,1.506816 4.660614,2.185558 6.992292,2.185558 2.394729,0 4.752257,-0.823098 6.718633,-2.237686 1.098256,1.179397 2.606414,1.893502 4.214737,1.995671 h 8.090656 c 0.673338,-0.122576 1.322228,-0.353965 1.921206,-0.685081 1.139842,0.472803 2.318226,0.632714 3.484976,0.73535 4.087127,4.615248 8.583812,8.799002 13.238073,11.866039 5.474013,3.607248 10.898224,6.4003 17.298294,5.287042 3.92449,-0.682641 7.32518,-3.524085 8.90978,-6.565977 1.5846,-3.041893 1.95979,-6.112361 2.0329,-9.071739 0.13179,-5.33387 -0.90127,-10.420682 -1.72759,-14.206122 l 1.47627,-7.353447 c 0.78269,-3.902716 -2.20206,-7.545344 -6.18248,-7.545201 h -0.0447 C 109.12188,17.42333 106.4822,13.262394 103.31145,9.813361 98.603049,4.6917154 92.558753,0.79374967 85.475145,0.79374967 Z"
         id="path32419"
         sodipodi:nodetypes="cscsccccccccsccccsccccccccccccccsccscccccssssccscssc" /><path
         id="path26046"
         style="fill:url(#linearGradient27167);fill-opacity:1;stroke:none;stroke-width:1.26095;stroke-linecap:square;stroke-linejoin:round;stroke-opacity:0;paint-order:markers stroke fill"
         d="m 109.24089,35.208525 c 1.47934,6.655917 5.60913,23.708964 -3.50491,25.294291 C 95.50716,62.282063 73.168844,42.10357 69.783386,25.834226 67.178687,13.316953 75.126407,7.1205997 85.508821,7.1205997 c 10.382404,0 20.463389,13.3813283 23.732069,28.0879253 z"
         sodipodi:nodetypes="sssss" /><g
         id="g25992"
         transform="matrix(0.953156,0,0,0.953156,-29.602957,-113.34091)"
         style="fill:#0a0a0a;fill-opacity:1"><g
           aria-label="BE SURE"
           id="text25925"
           style="font-style:italic;font-weight:bold;font-size:14.1111px;line-height:1.25;font-family:'IBM Plex Sans';-inkscape-font-specification:'IBM Plex Sans, Bold Italic';fill:#0a0a0a;fill-opacity:1;stroke-width:0.264583"><path
             d="m 56.239758,144.19577 h 4.769552 c 2.257776,0 3.400775,-1.27 3.400775,-3.13266 0,-0.91723 -0.437444,-1.62278 -1.467555,-1.905 l 0.01411,-0.0706 c 1.28411,-0.35278 1.919109,-1.42522 1.919109,-2.72344 0,-1.36878 -1.03011,-2.01789 -2.455331,-2.01789 H 58.21531 Z m 2.412998,-1.74978 0.465666,-2.35655 h 2.412998 c 0.536222,0 0.776111,0.254 0.776111,0.635 0,0.127 -0.02822,0.31044 -0.127,0.80433 -0.127,0.635 -0.522111,0.91722 -1.171221,0.91722 z m 0.804333,-4.03577 0.465666,-2.31422 h 2.060221 c 0.52211,0 0.761999,0.26811 0.761999,0.66322 0,0.127 -0.02822,0.28222 -0.127,0.77611 -0.127,0.635 -0.522111,0.87489 -1.171221,0.87489 z"
             id="path25943"
             style="fill:#0a0a0a;fill-opacity:1" /><path
             d="m 71.903066,144.19577 0.366888,-1.80622 h -4.430885 l 0.451555,-2.27189 h 3.781775 l 0.366888,-1.80622 h -3.781775 l 0.437445,-2.159 h 4.275663 l 0.366889,-1.80622 h -6.335884 l -1.975554,9.84955 z"
             id="path25945"
             style="fill:#0a0a0a;fill-opacity:1" /><path
             d="m 80.200355,144.3651 c 2.497664,0 3.993441,-1.76388 3.993441,-3.45722 0,-1.53811 -1.001888,-2.30011 -2.511776,-2.63877 L 81.061132,138.128 c -0.677333,-0.15522 -1.058333,-0.39511 -1.058333,-0.95956 0,-0.69144 0.635,-1.17122 1.650999,-1.17122 1.001888,0 1.523999,0.254 1.975554,0.87489 l 1.481665,-1.32644 c -0.677332,-0.90311 -1.904998,-1.36878 -3.372552,-1.36878 -2.271888,0 -3.795886,1.38289 -3.795886,3.175 0,1.58044 0.917221,2.31422 2.356553,2.62466 l 0.649111,0.14111 c 0.634999,0.14111 1.128888,0.42334 1.128888,1.016 0,0.81845 -0.691444,1.41111 -1.876776,1.41111 -1.016,0 -1.622777,-0.381 -2.102554,-1.15711 l -1.566332,1.22767 c 0.719666,1.28411 2.031998,1.74977 3.668886,1.74977 z"
             id="path25947"
             style="fill:#0a0a0a;fill-opacity:1" /><path
             d="m 87.128883,134.34622 -1.114777,5.57389 c -0.09878,0.47977 -0.127,0.889 -0.127,1.25588 0,2.10256 1.185333,3.18911 3.33022,3.18911 2.44122,0 3.640664,-1.28411 4.190997,-4.04988 l 1.199443,-5.969 h -2.017887 l -1.227666,6.08189 c -0.296333,1.45344 -0.931332,2.11666 -2.06022,2.11666 -0.945444,0 -1.439333,-0.47978 -1.439333,-1.41111 0,-0.26811 0.04233,-0.635 0.09878,-0.889 l 1.185332,-5.89844 z"
             id="path25949"
             style="fill:#0a0a0a;fill-opacity:1" /><path
             d="m 97.528758,140.541 h 1.622776 l 0.973666,3.65477 h 2.18722 l -1.18533,-3.89466 c 1.56633,-0.52211 2.413,-1.93322 2.413,-3.41489 0,-1.60867 -1.10067,-2.54 -2.97745,-2.54 h -3.838215 l -1.975554,9.84955 h 2.04611 z m 0.352777,-1.74978 0.522111,-2.63878 h 2.116664 c 0.62089,0 0.90311,0.33867 0.90311,0.762 0,0.15522 -0.0705,0.42334 -0.15522,0.84667 -0.14111,0.69144 -0.64911,1.03011 -1.284111,1.03011 z"
             id="path25951"
             style="fill:#0a0a0a;fill-opacity:1" /><path
             d="m 110.46862,144.19577 0.36689,-1.80622 h -4.43089 l 0.45156,-2.27189 h 3.78177 l 0.36689,-1.80622 h -3.78177 l 0.43744,-2.159 h 4.27566 l 0.36689,-1.80622 h -6.33588 l -1.97556,9.84955 z"
             id="path25953"
             style="fill:#0a0a0a;fill-opacity:1" /></g><g
           aria-label="It's Legal"
           id="text25941"
           style="font-style:italic;font-weight:bold;font-size:21.1667px;line-height:1.25;font-family:'IBM Plex Sans';-inkscape-font-specification:'IBM Plex Sans, Bold Italic';fill:#0a0a0a;fill-opacity:1;stroke-width:0.264583"><path
             d="m 65.855271,164.24071 0.486834,-2.49767 h -1.820336 l 1.968503,-9.77902 h 1.820336 l 0.508001,-2.49767 h -6.731011 l -0.486834,2.49767 h 1.820337 l -1.968504,9.77902 h -1.820336 l -0.508001,2.49767 z"
             id="path25956"
             style="fill:#0a0a0a;fill-opacity:1" /><path
             d="m 73.60224,164.24071 0.465667,-2.37067 h -2.010836 l 1.270002,-6.37118 h 2.222503 l 0.486835,-2.37067 h -2.222504 l 0.592668,-3.00567 h -2.751671 l -0.381001,1.88383 c -0.148167,0.76201 -0.338667,1.12184 -1.248835,1.12184 h -0.762002 l -0.465667,2.37067 h 1.566336 l -1.143002,5.73618 c -0.0635,0.3175 -0.08467,0.6985 -0.08467,0.91016 0,1.39701 0.889002,2.09551 2.603504,2.09551 z"
             id="path25958"
             style="fill:#0a0a0a;fill-opacity:1" /><path
             d="m 80.206211,155.47769 1.375835,-6.90034 h -2.794004 l -1.375836,6.90034 z"
             id="path25960"
             style="fill:#0a0a0a;fill-opacity:1" /><path
             d="m 85.455523,164.49471 c 3.175005,0 4.847174,-1.90501 4.847174,-4.06401 0,-1.73567 -1.058335,-2.70934 -2.963338,-2.96334 l -1.121835,-0.14816 c -0.783168,-0.10584 -1.037168,-0.48684 -1.037168,-0.91017 0,-0.67734 0.613834,-1.16417 1.608669,-1.16417 0.973668,0 1.86267,0.4445 2.391837,1.12183 l 1.86267,-1.73566 c -0.973668,-1.18534 -2.413004,-1.75684 -4.127507,-1.75684 -3.132671,0 -4.61434,1.88384 -4.61434,3.97934 0,1.778 1.058335,2.7305 2.963338,2.9845 l 1.121835,0.14817 c 0.783168,0.10583 1.037168,0.48683 1.037168,0.91017 0,0.635 -0.529167,1.22767 -1.905003,1.22767 -1.248835,0 -2.05317,-0.48684 -2.667004,-1.31234 l -1.86267,1.73567 c 0.973668,1.29117 2.603504,1.94734 4.466174,1.94734 z"
             id="path25962"
             style="fill:#0a0a0a;fill-opacity:1" /><path
             d="m 105.41568,164.24071 0.55033,-2.70934 h -5.41867 l 2.413,-12.06502 h -3.069173 l -2.963338,14.77436 z"
             id="path25964"
             style="fill:#0a0a0a;fill-opacity:1" /><path
             d="m 112.18898,164.49471 c 1.905,0 3.3655,-0.67734 4.74134,-2.49767 l -1.82034,-1.43934 c -0.99483,1.24884 -1.73567,1.54517 -2.70934,1.54517 -1.4605,0 -1.9685,-0.71967 -1.9685,-1.778 0,-0.10584 0,-0.23284 0.0423,-0.48684 4.97418,-0.14816 7.02735,-1.5875 7.02735,-3.8735 0,-2.41301 -2.30717,-3.09034 -3.97934,-3.09034 -3.68301,0 -6.03251,3.28084 -6.03251,6.83684 0,2.94217 1.54517,4.78368 4.69901,4.78368 z m 1.16416,-9.35568 c 0.52917,0 1.27001,0.16933 1.27001,1.12183 0,0.889 -0.65617,1.50284 -3.83118,1.69334 l 0.0847,-0.48684 c 0.254,-1.43933 1.22767,-2.32833 2.4765,-2.32833 z"
             id="path25966"
             style="fill:#0a0a0a;fill-opacity:1" /><path
             d="m 128.25449,164.70637 c 0,-1.86266 -1.22767,-2.83633 -3.68301,-2.83633 h -2.7305 c -0.78317,0 -1.12184,-0.23284 -1.12184,-0.6985 0,-0.4445 0.33867,-0.84667 0.80434,-1.03717 0.508,0.14816 1.0795,0.21166 1.7145,0.21166 3.64067,0 5.18584,-2.11667 5.18584,-4.16984 0,-1.16416 -0.48683,-2.05317 -1.35467,-2.6035 l 0.0635,-0.27517 h 2.26484 l 0.46567,-2.286 h -1.67217 c -1.016,0 -1.62984,0.508 -1.86267,1.651 l -0.10583,0.48684 c -0.55034,-0.16934 -1.18534,-0.27517 -1.90501,-0.27517 -3.64067,0 -5.18584,2.11667 -5.18584,4.16984 0,1.29117 0.5715,2.24367 1.60867,2.77284 l -0.0212,0.14816 c -1.24883,0.254 -2.43417,0.99484 -2.43417,2.24367 0,0.80434 0.4445,1.43934 1.24884,1.60867 v 0.14817 c -1.37584,0.3175 -2.43417,0.93134 -2.43417,2.30717 0,1.35467 1.016,2.45534 4.72017,2.45534 5.12234,0 6.43468,-2.11667 6.43468,-4.02168 z m -2.96334,0.63501 c 0,0.74083 -0.59267,1.35466 -2.45534,1.35466 h -1.37583 c -1.397,0 -1.90501,-0.42333 -1.90501,-1.10066 0,-0.35984 0.14817,-0.84667 0.57151,-1.16417 h 3.66183 c 1.14301,0 1.50284,0.3175 1.50284,0.91017 z m -1.79917,-7.02735 c -1.05833,0 -1.54517,-0.42333 -1.54517,-1.18533 0,-0.10584 0,-0.27517 0.0847,-0.69851 0.1905,-0.97366 0.84667,-1.524 2.01083,-1.524 1.05834,0 1.54517,0.42334 1.54517,1.18534 0,0.10583 0,0.27516 -0.0847,0.6985 -0.1905,0.97367 -0.84667,1.524 -2.01084,1.524 z"
             id="path25968"
             style="fill:#0a0a0a;fill-opacity:1" /><path
             d="m 140.02315,164.24071 0.46567,-2.37067 h -1.24884 l 1.75684,-8.74185 h -2.96334 l -0.381,1.92617 h -0.10583 c -0.14817,-1.2065 -1.22767,-2.18017 -2.77284,-2.18017 -2.83634,0 -5.16467,3.048 -5.16467,7.76818 0,2.2225 0.889,3.85234 2.96333,3.85234 1.73567,0 2.75168,-1.03717 3.61951,-2.83634 h 0.127 l -0.0635,0.3175 c -0.0212,0.10583 -0.0635,0.40217 -0.0635,0.635 0,1.03717 0.80433,1.62984 1.86267,1.62984 z m -5.99017,-2.18017 c -0.86784,0 -1.39701,-0.59267 -1.39701,-1.58751 0,-0.33866 0.0635,-0.91016 0.127,-1.2065 l 0.29634,-1.48167 c 0.33867,-1.67217 1.12183,-2.4765 2.43417,-2.4765 1.22767,0 1.94734,0.80433 1.73567,1.8415 l -0.33867,1.69334 c -0.16933,0.8255 -0.55033,1.62983 -1.016,2.20134 -0.4445,0.55033 -1.0795,1.016 -1.8415,1.016 z"
             id="path25970"
             style="fill:#0a0a0a;fill-opacity:1" /><path
             d="m 146.03448,164.24071 0.46567,-2.37067 h -1.31234 l 2.66701,-13.29269 h -2.96334 l -2.68817,13.44085 c -0.0423,0.21167 -0.0635,0.35984 -0.0635,0.52917 0,1.016 0.762,1.69334 1.905,1.69334 z"
             id="path25972"
             style="fill:#0a0a0a;fill-opacity:1" /></g></g></g></g></svg>
