<?xml version="1.0" encoding="UTF-8" standalone="no"?>
<!-- Created with Inkscape (http://www.inkscape.org/) -->

<svg
   width="1024"
   height="512"
   viewBox="0 0 270.93333 135.46667"
   version="1.1"
   id="svg1"
   inkscape:version="1.3.2 (091e20ef0f, 2023-11-25)"
   sodipodi:docname="bios.svg"
   xmlns:inkscape="http://www.inkscape.org/namespaces/inkscape"
   xmlns:sodipodi="http://sodipodi.sourceforge.net/DTD/sodipodi-0.dtd"
   xmlns="http://www.w3.org/2000/svg"
   xmlns:svg="http://www.w3.org/2000/svg">
  <sodipodi:namedview
     id="namedview1"
     pagecolor="#505050"
     bordercolor="#ffffff"
     borderopacity="1"
     inkscape:showpageshadow="0"
     inkscape:pageopacity="0"
     inkscape:pagecheckerboard="1"
     inkscape:deskcolor="#d1d1d1"
     inkscape:document-units="px"
     inkscape:zoom="0.45311333"
     inkscape:cx="701.81118"
     inkscape:cy="336.56039"
     inkscape:window-width="1920"
     inkscape:window-height="1124"
     inkscape:window-x="0"
     inkscape:window-y="48"
     inkscape:window-maximized="1"
     inkscape:current-layer="layer1" />
  <defs
     id="defs1" />
  <g
     inkscape:label="Layer 1"
     inkscape:groupmode="layer"
     id="layer1">
    <rect
       style="fill:#000199;stroke-width:5.29167;stroke-linecap:round;stroke-linejoin:round;paint-order:markers stroke fill;fill-opacity:1"
       id="rect1"
       width="270.93335"
       height="135.46667"
       x="-7.3046876e-06"
       y="-3.6523438e-06" />
    <rect
       style="fill:none;fill-opacity:1;stroke:#999999;stroke-width:1.32291667;stroke-linecap:round;stroke-linejoin:round;stroke-dasharray:none;stroke-opacity:1;paint-order:markers stroke fill"
       id="rect2"
       width="263.2695"
       height="117.79772"
       x="3.831917"
       y="8.8344727" />
    <path
       d="m 10.314283,35.414305 h 2.2652 v -2.2652 h 1.1326 v 2.2652 h 2.265199 v -2.2652 h 1.1326 v -11.326 h -2.2652 v 10.1934 h -1.132599 v -3.3978 h -1.1326 v 3.3978 h -1.1326 v -10.1934 H 9.1816826 v 11.326 h 1.1326004 z m 10.193406,0 h 4.5304 v -1.1326 h -1.1326 v -7.9282 h -3.3978 v 1.1326 h 1.1326 v 6.7956 h -1.1326 z m 1.1326,-10.1934 h 2.2652 v -2.2652 h -2.2652 z m 9.060806,10.1934 h 3.3978 v -1.1326 h 1.1326 v -1.1326 h -2.2652 v 1.1326 h -1.1326 v -6.7956 h 2.2652 v -1.1326 h -2.2652 v -4.5304 h -1.1326 v 1.1326 h -1.1326 v 3.3978 h -2.2652 v 1.1326 h 2.2652 v 6.7956 h 1.1326 z m 5.663006,0 h 3.3978 v -6.7956 h 1.1326 v -1.1326 h 1.1326 v 7.9282 h 2.2652 v -7.9282 h -1.1326 v -1.1326 h -3.3978 v -4.5304 h -3.3978 v 1.1326 h 1.1326 v 11.326 h -1.1326 z m 10.193407,0 h 5.663 v -1.1326 h 1.1326 v -6.7956 h -1.1326 v -1.1326 h -5.663 v 1.1326 h -1.1326 v 6.7956 h 1.1326 z m 1.1326,-1.1326 v -6.7956 h 3.3978 v 6.7956 z m 7.928206,1.1326 h 3.3978 v -1.1326 h -2.2652 v -7.9282 h -2.2652 v 7.9282 h 1.1326 z m 4.5304,0 h 2.2652 v -1.1326 h -1.1326 v -7.9282 h -2.2652 v 7.9282 h 1.1326 z m 6.795606,0 h 3.3978 v -1.1326 h 1.1326 v -1.1326 h -2.2652 v 1.1326 h -1.1326 v -6.7956 h 2.2652 v -1.1326 h -2.2652 v -4.5304 h -1.1326 v 1.1326 h -1.1326 v 3.3978 h -2.2652 v 1.1326 h 2.2652 v 6.7956 h 1.1326 z m 14.723813,3.3978 h 4.5304 v -1.1326 h -1.1326 v -2.2652 h 3.3978 v -1.1326 h 1.1326 v -6.7956 h -1.1326 v -1.1326 h -3.3978 v 1.1326 h 2.2652 v 6.7956 h -2.2652 v -6.7956 h -1.1326 v -1.1326 h -2.2652 v 1.1326 h 1.1326 v 10.1934 h -1.1326 z m 10.193406,-3.3978 h 3.3978 v -1.1326 h -2.2652 v -3.3978 h 2.2652 v 3.3978 h 1.1326 v 1.1326 h 2.2652 v -1.1326 h -1.1326 v -6.7956 h -1.1326 v -1.1326 h -4.5304 v 1.1326 h 3.3978 v 2.2652 h -3.3978 v 1.1326 h -1.1326 v 3.3978 h 1.1326 z m 9.060811,0 h 5.663 v -1.1326 h 1.1326 v -3.3978 h -1.1326 v -1.1326 h -4.5304 v -2.2652 h 3.3978 v 1.1326 h 2.2652 v -1.1326 h -1.1326 v -1.1326 h -5.663 v 1.1326 h -1.132605 v 2.2652 h 1.132605 v 1.1326 h 4.5304 v 3.3978 h -3.3978 v -1.1326 h -2.265205 v 1.1326 h 1.132605 z m 9.0608,0 h 5.663 v -1.1326 h 1.1326 v -3.3978 h -1.1326 v -1.1326 h -4.5304 v -2.2652 h 3.3978 v 1.1326 h 2.2652 v -1.1326 h -1.1326 v -1.1326 h -5.663 v 1.1326 h -1.1326 v 2.2652 h 1.1326 v 1.1326 h 4.5304 v 3.3978 h -3.3978 v -1.1326 h -2.2652 v 1.1326 h 1.1326 z m 9.06081,0 h 2.2652 v -2.2652 h 1.1326 v 2.2652 h 2.2652 v -1.1326 h 1.1326 v -7.9282 h -2.2652 v 5.663 h -1.1326 v -2.2652 h -1.1326 v 2.2652 h -1.1326 v -5.663 h -2.2652 v 7.9282 h 1.1326 z m 9.0608,0 h 5.663 v -1.1326 h 1.1326 v -6.7956 h -1.1326 v -1.1326 h -5.663 v 1.1326 h -1.1326 v 6.7956 h 1.1326 z m 1.1326,-1.1326 v -6.7956 h 3.3978 v 6.7956 z m 6.79561,1.1326 h 4.5304 v -1.1326 h -1.1326 v -6.7956 h -1.1326 v -1.1326 h -2.2652 v 1.1326 h 1.1326 v 6.7956 h -1.1326 z m 5.663,-6.7956 h 2.2652 v -1.1326 h -1.1326 v -1.1326 h -3.3978 v 1.1326 h 2.2652 z m 4.53041,6.7956 h 6.7956 v -1.1326 h -1.1326 v -12.4586 h -3.3978 v 1.1326 h 1.1326 v 3.3978 h -2.2652 v 1.1326 h -1.1326 v 1.1326 h -1.1326 v 5.663 h 1.1326 z m 1.1326,-1.1326 v -5.663 h 1.1326 v -1.1326 h 1.1326 v 6.7956 z m 18.12161,1.1326 h 4.5304 v -1.1326 h -1.1326 v -7.9282 h -3.3978 v 1.1326 h 1.1326 v 6.7956 h -1.1326 z m 1.1326,-10.1934 h 2.2652 v -2.2652 h -2.2652 z m 6.79561,10.1934 h 5.663 v -1.1326 h 1.1326 v -3.3978 h -1.1326 v -1.1326 h -4.5304 v -2.2652 h 3.3978 v 1.1326 h 2.2652 v -1.1326 h -1.1326 v -1.1326 h -5.663 v 1.1326 h -1.1326 v 2.2652 h 1.1326 v 1.1326 h 4.5304 v 3.3978 h -3.3978 v -1.1326 h -2.2652 v 1.1326 h 1.1326 z m 18.12161,0 h 3.3978 v -1.1326 h -2.2652 v -7.9282 h -2.2652 v 7.9282 h 1.1326 z m 4.5304,0 h 2.2652 v -1.1326 h -1.1326 v -7.9282 h -2.2652 v 7.9282 h 1.1326 z m 4.5304,0 h 2.2652 v -7.9282 h -1.1326 v -1.1326 h -2.2652 v 1.1326 h 1.1326 z m 4.5304,0 h 2.2652 v -7.9282 h -1.1326 v -1.1326 h -3.3978 v 1.1326 h 2.2652 z m 4.53041,0 h 5.663 v -1.1326 h 1.1326 v -3.3978 h -1.1326 v -1.1326 h -4.5304 v -2.2652 h 3.3978 v 1.1326 h 2.2652 v -1.1326 h -1.1326 v -1.1326 h -5.663 v 1.1326 h -1.1326 v 2.2652 h 1.1326 v 1.1326 h 4.5304 v 3.3978 h -3.3978 v -1.1326 h -2.2652 v 1.1326 h 1.1326 z m 9.06081,0 h 3.3978 v -1.1326 h -2.2652 v -3.3978 h 2.2652 v 3.3978 h 1.1326 v 1.1326 h 2.2652 v -1.1326 h -1.1326 v -6.7956 h -1.1326 v -1.1326 h -4.5304 v 1.1326 h 3.3978 v 2.2652 h -3.3978 v 1.1326 h -1.1326 v 3.3978 h 1.1326 z m 9.0608,0 h 4.5304 v -1.1326 h -1.1326 v -5.663 h 1.1326 v -1.1326 h -1.1326 v -4.5304 h 2.2652 v 1.1326 h 2.2652 v -1.1326 h -1.1326 v -1.1326 h -4.5304 v 1.1326 h -1.1326 v 4.5304 h -1.1326 v 1.1326 h 1.1326 v 5.663 h -1.1326 z m 9.06081,0 h 5.663 v -1.1326 h 1.1326 v -1.1326 h -2.2652 v 1.1326 h -3.3978 v -3.3978 h 5.663 v -3.3978 h -1.1326 v -1.1326 h -5.663 v 1.1326 h -1.1326 v 6.7956 h 1.1326 z m 1.1326,-5.663 v -2.2652 h 3.3978 v 2.2652 z m 10.19341,5.663 h 2.2652 v -2.2652 h -2.2652 z m 0,-3.3978 h 2.2652 v -5.663 h 1.1326 v -3.3978 h -1.1326 v -1.1326 h -2.2652 v 1.1326 h -1.1326 v 3.3978 h 1.1326 z"
       id="path7"
       style="font-weight:500;font-size:21.5194px;line-height:1.25;font-family:'Consoleet UEFI';-inkscape-font-specification:'Consoleet UEFI, Medium';fill:#999999;stroke-width:0.264583" />
    <path
       d="m 10.314283,57.021884 h 5.662999 v -1.1326 h 1.1326 v -4.530399 h -1.1326 v -1.1326 h -1.1326 v -1.1326 h -2.265199 v -1.1326 h -1.1326 v -3.3978 h 3.397799 v 3.3978 h 2.2652 v -3.3978 h -1.1326 v -1.1326 h -5.662999 v 1.1326 H 9.1816826 v 3.3978 h 1.1326004 v 1.1326 h 1.1326 v 1.1326 h 2.2652 v 1.1326 h 1.132599 v 4.530399 h -3.397799 v -2.2652 H 9.1816826 v 2.2652 h 1.1326004 z m 9.060806,0 h 5.663 v -1.1326 h 1.1326 v -1.1326 h -2.2652 v 1.1326 h -3.3978 v -3.397799 h 5.663 v -3.3978 h -1.1326 v -1.1326 h -5.663 v 1.1326 h -1.1326 v 6.795599 h 1.1326 z m 1.1326,-5.662999 v -2.2652 h 3.3978 v 2.2652 z m 10.193406,5.662999 h 3.3978 v -1.1326 h 1.1326 v -1.1326 h -2.2652 v 1.1326 h -1.1326 v -6.795599 h 2.2652 v -1.1326 h -2.2652 v -4.5304 h -1.1326 v 1.1326 h -1.1326 v 3.3978 h -2.2652 v 1.1326 h 2.2652 v 6.795599 h 1.1326 z m 9.060806,0 h 3.3978 v -1.1326 h 1.1326 v -1.1326 h -2.2652 v 1.1326 h -1.1326 v -6.795599 h 2.2652 v -1.1326 h -2.2652 v -4.5304 h -1.1326 v 1.1326 h -1.1326 v 3.3978 h -2.2652 v 1.1326 h 2.2652 v 6.795599 h 1.1326 z m 7.928207,0 h 4.5304 v -1.1326 h -1.1326 v -7.928199 h -3.3978 v 1.1326 h 1.1326 v 6.795599 h -1.1326 z m 1.1326,-10.193399 h 2.2652 v -2.2652 h -2.2652 z m 6.795606,10.193399 h 2.2652 v -7.928199 h -1.1326 v -1.1326 h -2.2652 v 1.1326 h 1.1326 z m 4.5304,0 h 2.2652 v -7.928199 h -1.1326 v -1.1326 h -3.3978 v 1.1326 h 2.2652 z m 4.530406,3.3978 h 4.5304 v -1.1326 h 1.1326 V 49.093685 h 1.1326 v -1.1326 h -2.2652 v 1.1326 h -1.1326 v 6.795599 h -2.2652 v -6.795599 h 2.2652 v -1.1326 h -3.3978 v 1.1326 h -1.1326 v 6.795599 h 1.1326 v 1.1326 h 3.3978 v 2.2652 h -2.2652 v -1.1326 h -2.2652 v 1.1326 h 1.1326 z m 16.989013,0 h 4.5304 v -1.1326 h -1.1326 v -2.2652 h 3.3978 v -1.1326 h 1.1326 v -6.795599 h -1.1326 v -1.1326 h -3.3978 v 1.1326 h 2.2652 v 6.795599 h -2.2652 v -6.795599 h -1.1326 v -1.1326 h -2.2652 v 1.1326 h 1.1326 v 10.193399 h -1.1326 z m 10.193406,-3.3978 h 3.3978 v -1.1326 h -2.2652 v -3.397799 h 2.2652 v 3.397799 h 1.1326 v 1.1326 h 2.2652 v -1.1326 h -1.1326 v -6.795599 h -1.1326 v -1.1326 h -4.5304 v 1.1326 h 3.3978 v 2.2652 h -3.3978 v 1.1326 h -1.1326 v 3.397799 h 1.1326 z m 9.060811,0 h 5.663 v -1.1326 h 1.1326 v -3.397799 h -1.1326 v -1.1326 h -4.5304 v -2.2652 h 3.3978 v 1.1326 h 2.2652 v -1.1326 h -1.1326 v -1.1326 h -5.663 v 1.1326 h -1.132605 v 2.2652 h 1.132605 v 1.1326 h 4.5304 v 3.397799 h -3.3978 v -1.1326 h -2.265205 v 1.1326 h 1.132605 z m 9.0608,0 h 5.663 v -1.1326 h 1.1326 v -3.397799 h -1.1326 v -1.1326 h -4.5304 v -2.2652 h 3.3978 v 1.1326 h 2.2652 v -1.1326 h -1.1326 v -1.1326 h -5.663 v 1.1326 h -1.1326 v 2.2652 h 1.1326 v 1.1326 h 4.5304 v 3.397799 h -3.3978 v -1.1326 h -2.2652 v 1.1326 h 1.1326 z m 9.06081,0 h 2.2652 v -2.2652 h 1.1326 v 2.2652 h 2.2652 v -1.1326 h 1.1326 v -7.928199 h -2.2652 v 5.662999 h -1.1326 v -2.265199 h -1.1326 v 2.265199 h -1.1326 v -5.662999 h -2.2652 v 7.928199 h 1.1326 z m 9.0608,0 h 5.663 v -1.1326 h 1.1326 v -6.795599 h -1.1326 v -1.1326 h -5.663 v 1.1326 h -1.1326 v 6.795599 h 1.1326 z m 1.1326,-1.1326 v -6.795599 h 3.3978 v 6.795599 z m 6.79561,1.1326 h 4.5304 v -1.1326 h -1.1326 v -6.795599 h -1.1326 v -1.1326 h -2.2652 v 1.1326 h 1.1326 v 6.795599 h -1.1326 z m 5.663,-6.795599 h 2.2652 v -1.1326 h -1.1326 v -1.1326 h -3.3978 v 1.1326 h 2.2652 z m 4.53041,6.795599 h 6.7956 v -1.1326 h -1.1326 V 43.430685 h -3.3978 v 1.1326 h 1.1326 v 3.3978 h -2.2652 v 1.1326 h -1.1326 v 1.1326 h -1.1326 v 5.662999 h 1.1326 z m 1.1326,-1.1326 v -5.662999 h 1.1326 v -1.1326 h 1.1326 v 6.795599 z m 18.12161,1.1326 h 4.5304 v -1.1326 h -1.1326 v -7.928199 h -3.3978 v 1.1326 h 1.1326 v 6.795599 h -1.1326 z m 1.1326,-10.193399 h 2.2652 v -2.2652 h -2.2652 z m 6.79561,10.193399 h 5.663 v -1.1326 h 1.1326 v -3.397799 h -1.1326 v -1.1326 h -4.5304 v -2.2652 h 3.3978 v 1.1326 h 2.2652 v -1.1326 h -1.1326 v -1.1326 h -5.663 v 1.1326 h -1.1326 v 2.2652 h 1.1326 v 1.1326 h 4.5304 v 3.397799 h -3.3978 v -1.1326 h -2.2652 v 1.1326 h 1.1326 z m 18.12161,0 h 5.663 v -1.1326 h 1.1326 v -3.397799 h -1.1326 v -1.1326 h -4.5304 v -2.2652 h 3.3978 v 1.1326 h 2.2652 v -1.1326 h -1.1326 v -1.1326 h -5.663 v 1.1326 h -1.1326 v 2.2652 h 1.1326 v 1.1326 h 4.5304 v 3.397799 h -3.3978 v -1.1326 h -2.2652 v 1.1326 h 1.1326 z m 9.0608,0 h 3.3978 v -1.1326 h -2.2652 v -7.928199 h -2.2652 v 7.928199 h 1.1326 z m 4.5304,0 h 2.2652 v -1.1326 h -1.1326 v -7.928199 h -2.2652 v 7.928199 h 1.1326 z m 4.53041,3.3978 h 4.5304 v -1.1326 h 1.1326 V 49.093685 h 1.1326 v -1.1326 h -2.2652 v 1.1326 h -1.1326 v 6.795599 h -2.2652 v -6.795599 h 2.2652 v -1.1326 h -3.3978 v 1.1326 h -1.1326 v 6.795599 h 1.1326 v 1.1326 h 3.3978 v 2.2652 h -2.2652 v -1.1326 h -2.2652 v 1.1326 h 1.1326 z m 9.06081,0 h 4.5304 v -1.1326 h 1.1326 V 49.093685 h 1.1326 v -1.1326 h -2.2652 v 1.1326 h -1.1326 v 6.795599 h -2.2652 v -6.795599 h 2.2652 v -1.1326 h -3.3978 v 1.1326 h -1.1326 v 6.795599 h 1.1326 v 1.1326 h 3.3978 v 2.2652 h -2.2652 v -1.1326 h -2.2652 v 1.1326 h 1.1326 z m 9.0608,-3.3978 h 5.663 v -1.1326 h 1.1326 v -1.1326 h -2.2652 v 1.1326 h -3.3978 v -3.397799 h 5.663 v -3.3978 h -1.1326 v -1.1326 h -5.663 v 1.1326 h -1.1326 v 6.795599 h 1.1326 z m 1.1326,-5.662999 v -2.2652 h 3.3978 v 2.2652 z m 7.92821,5.662999 h 5.663 v -1.1326 h 1.1326 v -3.397799 h -1.1326 v -1.1326 h -4.5304 v -2.2652 h 3.3978 v 1.1326 h 2.2652 v -1.1326 h -1.1326 v -1.1326 h -5.663 v 1.1326 h -1.1326 v 2.2652 h 1.1326 v 1.1326 h 4.5304 v 3.397799 h -3.3978 v -1.1326 h -2.2652 v 1.1326 h 1.1326 z m 11.32601,0 h 3.3978 v -1.1326 h 1.1326 v -1.1326 h -2.2652 v 1.1326 h -1.1326 v -6.795599 h 2.2652 v -1.1326 h -2.2652 v -4.5304 h -1.1326 v 1.1326 h -1.1326 v 3.3978 h -2.2652 v 1.1326 h 2.2652 v 6.795599 h 1.1326 z m 6.7956,0 h 5.663 v -1.1326 h 1.1326 v -1.1326 h -2.2652 v 1.1326 h -3.3978 v -3.397799 h 5.663 v -3.3978 h -1.1326 v -1.1326 h -5.663 v 1.1326 h -1.1326 v 6.795599 h 1.1326 z m 1.1326,-5.662999 v -2.2652 h 3.3978 v 2.2652 z"
       id="path8"
       style="font-weight:500;font-size:21.5194px;line-height:1.25;font-family:'Consoleet UEFI';-inkscape-font-specification:'Consoleet UEFI, Medium';fill:#999999;stroke-width:0.264583" />
    <path
       d="m 10.314283,78.629464 h 6.795599 v -1.1326 h -1.1326 v -12.4586 h -3.397799 v 1.1326 h 1.1326 v 3.3978 h -2.2652 v 1.1326 h -1.1326 v 1.1326 H 9.1816826 v 5.663 h 1.1326004 z m 1.1326,-1.1326 v -5.663 h 1.1326 v -1.1326 h 1.1326 v 6.7956 z m 10.193406,1.1326 h 2.2652 v -2.2652 h -2.2652 z m 0,-3.3978 h 2.2652 v -5.663 h 1.1326 v -3.3978 h -1.1326 v -1.1326 h -2.2652 v 1.1326 h -1.1326 v 3.3978 h 1.1326 z"
       id="path9"
       style="font-weight:500;font-size:21.5194px;line-height:1.25;font-family:'Consoleet UEFI';-inkscape-font-specification:'Consoleet UEFI, Medium';fill:#999999;stroke-width:0.264583" />
    <path
       d="M 6.0617003,36.619361 H 10.80249 V 35.829229 H 6.0617003 Z"
       id="text9"
       style="font-weight:500;font-size:15.0125px;line-height:1.25;font-family:'Consoleet UEFI';-inkscape-font-specification:'Consoleet UEFI, Medium';fill:#999999;stroke-width:0.18458"
       transform="scale(0.69762475,1.4334354)"
       aria-label="-" />
    <path
       d="m 377.56296,36.619361 h 4.74079 v -0.790132 h -4.74079 z"
       id="text9-7"
       style="font-weight:500;font-size:15.0125px;line-height:1.25;font-family:'Consoleet UEFI';-inkscape-font-specification:'Consoleet UEFI, Medium';fill:#999999;stroke-width:0.18458"
       transform="scale(0.69762475,1.4334354)"
       aria-label="-" />
  </g>
</svg>
