<?xml version="1.0" encoding="utf-8" standalone="yes"?> <svg width="2015" height="2015" viewBox="-1 -1 31 31" xmlns="http://www.w3.org/2000/svg" xmlns:xlink="http://www.w3.org/1999/xlink" shape-rendering="crispEdges" id="qr code"><rect id="qr background" fill-opacity="1" fill="rgb(255, 255, 255)" x="-1" y="-1" width="31" height="31"></rect><path fill-opacity="1" fill="rgb(0, 0, 0)" id="qr dark pixels" fill-rule="evenodd" d="M 10 0 L 11 0 L 11 1 L 10 1 z M 15 0 L 16 0 L 16 1 L 17 1 L 17 0 L 20 0 L 20 2 L 21 2 L 21 4 L 20 4 L 20 3 L 18 3 L 18 2 L 19 2 L 19 1 L 18 1 L 18 2 L 16 2 L 16 3 L 15 3 z M 9 1 L 10 1 L 10 2 L 9 2 z M 8 2 L 9 2 L 9 3 L 8 3 z M 11 2 L 12 2 L 12 3 L 11 3 z M 9 3 L 10 3 L 10 5 L 9 5 z M 12 3 L 13 3 L 13 7 L 12 7 L 12 6 L 11 6 L 11 7 L 10 7 L 10 5 L 12 5 z M 14 3 L 15 3 L 15 4 L 16 4 L 16 5 L 17 5 L 17 7 L 16 7 L 16 6 L 15 6 L 15 5 L 14 5 z M 17 4 L 20 4 L 20 5 L 21 5 L 21 8 L 23 8 L 23 9 L 24 9 L 24 10 L 25 10 L 25 12 L 23 12 L 23 14 L 24 14 L 24 15 L 25 15 L 25 12 L 26 12 L 26 17 L 27 17 L 27 18 L 25 18 L 25 16 L 23 16 L 23 15 L 22 15 L 22 14 L 20 14 L 20 13 L 19 13 L 19 12 L 20 12 L 20 11 L 21 11 L 21 9 L 19 9 L 19 8 L 20 8 L 20 6 L 19 6 L 19 8 L 18 8 L 18 10 L 19 10 L 19 12 L 18 12 L 18 13 L 13 13 L 13 12 L 12 12 L 12 11 L 11 11 L 11 12 L 12 12 L 12 14 L 11 14 L 11 15 L 8 15 L 8 16 L 7 16 L 7 15 L 3 15 L 3 14 L 10 14 L 10 12 L 8 12 L 8 13 L 4 13 L 4 11 L 5 11 L 5 12 L 7 12 L 7 11 L 8 11 L 8 9 L 4 9 L 4 8 L 8 8 L 8 6 L 9 6 L 9 9 L 10 9 L 10 10 L 9 10 L 9 11 L 10 11 L 10 10 L 11 10 L 11 9 L 12 9 L 12 8 L 13 8 L 13 7 L 14 7 L 14 6 L 15 6 L 15 7 L 16 7 L 16 8 L 14 8 L 14 10 L 15 10 L 15 12 L 16 12 L 16 11 L 17 11 L 17 10 L 16 10 L 16 8 L 17 8 L 17 7 L 18 7 L 18 5 L 17 5 zM 22 10 L 23 10 L 23 11 L 22 11 z M 11 7 L 12 7 L 12 8 L 11 8 z M 0 8 L 3 8 L 3 9 L 2 9 L 2 11 L 0 11 z M 26 8 L 27 8 L 27 9 L 26 9 z M 25 9 L 26 9 L 26 10 L 25 10 z M 28 9 L 29 9 L 29 11 L 28 11 L 28 12 L 29 12 L 29 15 L 28 15 L 28 16 L 29 16 L 29 19 L 28 19 L 28 20 L 27 20 L 27 18 L 28 18 L 28 17 L 27 17 L 27 14 L 28 14 L 28 13 L 27 13 L 27 11 L 26 11 L 26 10 L 28 10 z M 3 10 L 4 10 L 4 11 L 3 11 z M 6 10 L 7 10 L 7 11 L 6 11 z M 2 11 L 3 11 L 3 12 L 2 12 z M 0 13 L 1 13 L 1 14 L 0 14 z M 2 13 L 3 13 L 3 14 L 2 14 z M 13 14 L 14 14 L 14 15 L 16 15 L 16 17 L 15 17 L 15 19 L 14 19 L 14 20 L 15 20 L 15 23 L 14 23 L 14 22 L 13 22 L 13 21 L 12 21 L 12 22 L 11 22 L 11 23 L 10 23 L 10 25 L 11 25 L 11 27 L 9 27 L 9 29 L 8 29 L 8 26 L 9 26 L 9 25 L 8 25 L 8 21 L 11 21 L 11 20 L 12 20 L 12 19 L 11 19 L 11 20 L 9 20 L 9 17 L 8 17 L 8 16 L 11 16 L 11 17 L 10 17 L 10 18 L 11 18 L 11 17 L 12 17 L 12 16 L 13 16 z M 17 14 L 18 14 L 18 15 L 20 15 L 20 16 L 23 16 L 23 18 L 22 18 L 22 19 L 21 19 L 21 20 L 22 20 L 22 19 L 23 19 L 23 18 L 25 18 L 25 19 L 26 19 L 26 20 L 25 20 L 25 22 L 26 22 L 26 24 L 25 24 L 25 26 L 26 26 L 26 27 L 25 27 L 25 28 L 26 28 L 26 29 L 23 29 L 23 28 L 24 28 L 24 27 L 23 27 L 23 25 L 21 25 L 21 26 L 22 26 L 22 29 L 19 29 L 19 28 L 18 28 L 18 29 L 13 29 L 13 28 L 11 28 L 11 27 L 12 27 L 12 26 L 13 26 L 13 25 L 11 25 L 11 24 L 12 24 L 12 23 L 14 23 L 14 24 L 15 24 L 15 23 L 16 23 L 16 24 L 17 24 L 17 23 L 19 23 L 19 20 L 20 20 L 20 17 L 19 17 L 19 16 L 18 16 L 18 17 L 17 17 zM 21 21 L 24 21 L 24 24 L 21 24 z M 18 24 L 20 24 L 20 27 L 17 27 L 17 26 L 19 26 L 19 25 L 18 25 z M 15 25 L 16 25 L 16 28 L 14 28 L 14 27 L 15 27 z M 1 15 L 2 15 L 2 18 L 1 18 L 1 17 L 0 17 L 0 16 L 1 16 z M 11 15 L 12 15 L 12 16 L 11 16 z M 4 16 L 5 16 L 5 18 L 7 18 L 7 17 L 8 17 L 8 20 L 7 20 L 7 19 L 5 19 L 5 21 L 4 21 L 4 20 L 3 20 L 3 19 L 2 19 L 2 18 L 3 18 L 3 17 L 4 17 z M 6 16 L 7 16 L 7 17 L 6 17 z M 16 17 L 17 17 L 17 19 L 19 19 L 19 20 L 18 20 L 18 21 L 17 21 L 17 20 L 15 20 L 15 19 L 16 19 z M 0 18 L 1 18 L 1 19 L 0 19 z M 1 19 L 2 19 L 2 20 L 1 20 z M 0 20 L 1 20 L 1 21 L 0 21 z M 2 20 L 3 20 L 3 21 L 2 21 z M 6 20 L 7 20 L 7 21 L 6 21 z M 16 21 L 17 21 L 17 22 L 16 22 z M 26 21 L 29 21 L 29 23 L 27 23 L 27 22 L 26 22 z M 22 22 L 23 22 L 23 23 L 22 23 z M 27 24 L 28 24 L 28 25 L 29 25 L 29 27 L 28 27 L 28 26 L 26 26 L 26 25 L 27 25 z M 27 27 L 28 27 L 28 28 L 29 28 L 29 29 L 27 29 z M 10 28 L 11 28 L 11 29 L 10 29 z"></path><path id="qr squares" d="M0,0h7h0v0v7v0h0h-7h0v0v-7v0h0zM1,1h5h0v0v5v0h0h-5h0v0v-5v0h0zM2,2h3h0v0v3v0h0h-3h0v0v-3v0h0z M22,0h7h0v0v7v0h0h-7h0v0v-7v0h0zM23,1h5h0v0v5v0h0h-5h0v0v-5v0h0zM24,2h3h0v0v3v0h0h-3h0v0v-3v0h0z M0,22h7h0v0v7v0h0h-7h0v0v-7v0h0zM1,23h5h0v0v5v0h0h-5h0v0v-5v0h0zM2,24h3h0v0v3v0h0h-3h0v0v-3v0h0z" fill-rule="evenodd" fill-opacity="1" fill="rgb(0, 0, 0)"></path></svg>