<?xml version="1.0" encoding="utf-8" standalone="yes"?> <svg width="2015" height="2015" viewBox="-1 -1 31 31" xmlns="http://www.w3.org/2000/svg" xmlns:xlink="http://www.w3.org/1999/xlink" shape-rendering="crispEdges" id="qr code"><rect id="qr background" fill-opacity="1" fill="rgb(255, 255, 255)" x="-1" y="-1" width="31" height="31"></rect><path fill-opacity="1" fill="rgb(0, 0, 0)" id="qr dark pixels" fill-rule="evenodd" d="M 10 0 L 11 0 L 11 2 L 10 2 z M 12 0 L 16 0 L 16 1 L 18 1 L 18 0 L 21 0 L 21 1 L 19 1 L 19 2 L 16 2 L 16 4 L 17 4 L 17 3 L 18 3 L 18 4 L 19 4 L 19 2 L 21 2 L 21 3 L 20 3 L 20 5 L 18 5 L 18 6 L 17 6 L 17 5 L 15 5 L 15 4 L 14 4 L 14 3 L 15 3 L 15 2 L 14 2 L 14 3 L 13 3 L 13 4 L 12 4 L 12 2 L 13 2 L 13 1 L 12 1 z M 8 1 L 9 1 L 9 2 L 8 2 z M 8 3 L 11 3 L 11 4 L 10 4 L 10 6 L 9 6 L 9 7 L 8 7 L 8 5 L 9 5 L 9 4 L 8 4 z M 11 5 L 13 5 L 13 7 L 12 7 L 12 6 L 11 6 z M 20 5 L 21 5 L 21 7 L 20 7 z M 10 6 L 11 6 L 11 7 L 12 7 L 12 9 L 11 9 L 11 8 L 10 8 L 10 9 L 6 9 L 6 8 L 9 8 L 9 7 L 10 7 z M 14 6 L 15 6 L 15 8 L 14 8 z M 16 6 L 17 6 L 17 8 L 16 8 z M 18 6 L 19 6 L 19 7 L 18 7 z M 0 8 L 5 8 L 5 9 L 4 9 L 4 12 L 3 12 L 3 13 L 1 13 L 1 15 L 0 15 zM 1 10 L 3 10 L 3 11 L 2 11 L 2 12 L 1 12 z M 17 8 L 18 8 L 18 9 L 19 9 L 19 8 L 20 8 L 20 9 L 21 9 L 21 8 L 22 8 L 22 9 L 23 9 L 23 10 L 24 10 L 24 9 L 25 9 L 25 11 L 26 11 L 26 12 L 27 12 L 27 13 L 25 13 L 25 12 L 20 12 L 20 11 L 22 11 L 22 10 L 17 10 z M 23 8 L 24 8 L 24 9 L 23 9 z M 25 8 L 26 8 L 26 9 L 25 9 z M 27 8 L 28 8 L 28 9 L 27 9 z M 10 9 L 11 9 L 11 11 L 10 11 z M 12 9 L 16 9 L 16 10 L 17 10 L 17 11 L 16 11 L 16 12 L 20 12 L 20 13 L 25 13 L 25 14 L 22 14 L 22 15 L 25 15 L 25 16 L 24 16 L 24 17 L 25 17 L 25 19 L 21 19 L 21 18 L 19 18 L 19 17 L 16 17 L 16 16 L 20 16 L 20 17 L 23 17 L 23 16 L 21 16 L 21 15 L 20 15 L 20 14 L 18 14 L 18 15 L 17 15 L 17 13 L 14 13 L 14 12 L 15 12 L 15 11 L 14 11 L 14 12 L 13 12 L 13 13 L 12 13 L 12 11 L 13 11 L 13 10 L 12 10 z M 28 9 L 29 9 L 29 10 L 28 10 z M 5 10 L 7 10 L 7 11 L 5 11 z M 8 10 L 9 10 L 9 12 L 11 12 L 11 13 L 10 13 L 10 14 L 9 14 L 9 16 L 8 16 L 8 18 L 9 18 L 9 16 L 11 16 L 11 15 L 10 15 L 10 14 L 13 14 L 13 15 L 12 15 L 12 17 L 10 17 L 10 19 L 9 19 L 9 20 L 8 20 L 8 19 L 6 19 L 6 18 L 7 18 L 7 17 L 6 17 L 6 16 L 7 16 L 7 15 L 8 15 L 8 14 L 7 14 L 7 13 L 8 13 L 8 12 L 7 12 L 7 11 L 8 11 z M 27 11 L 28 11 L 28 12 L 27 12 z M 6 12 L 7 12 L 7 13 L 6 13 z M 3 13 L 5 13 L 5 14 L 7 14 L 7 15 L 3 15 z M 28 13 L 29 13 L 29 14 L 28 14 z M 15 14 L 16 14 L 16 16 L 14 16 L 14 15 L 15 15 z M 25 14 L 27 14 L 27 15 L 25 15 z M 1 15 L 2 15 L 2 16 L 1 16 z M 27 15 L 28 15 L 28 16 L 27 16 z M 2 16 L 4 16 L 4 17 L 5 17 L 5 18 L 4 18 L 4 19 L 5 19 L 5 21 L 4 21 L 4 20 L 3 20 L 3 19 L 2 19 L 2 18 L 3 18 L 3 17 L 2 17 z M 25 16 L 27 16 L 27 19 L 26 19 L 26 17 L 25 17 z M 0 17 L 2 17 L 2 18 L 1 18 L 1 21 L 0 21 z M 12 17 L 15 17 L 15 18 L 19 18 L 19 19 L 17 19 L 17 20 L 19 20 L 19 21 L 14 21 L 14 20 L 15 20 L 15 19 L 14 19 L 14 20 L 13 20 L 13 21 L 12 21 L 12 19 L 13 19 L 13 18 L 12 18 z M 28 17 L 29 17 L 29 18 L 28 18 z M 19 19 L 20 19 L 20 20 L 19 20 z M 27 19 L 28 19 L 28 20 L 29 20 L 29 22 L 27 22 L 27 23 L 25 23 L 25 25 L 20 25 L 20 24 L 19 24 L 19 25 L 15 25 L 15 24 L 14 24 L 14 23 L 15 23 L 15 22 L 17 22 L 17 23 L 16 23 L 16 24 L 18 24 L 18 22 L 20 22 L 20 20 L 25 20 L 25 21 L 26 21 L 26 20 L 27 20 zM 21 21 L 24 21 L 24 24 L 21 24 z M 2 20 L 3 20 L 3 21 L 2 21 z M 6 20 L 7 20 L 7 21 L 6 21 z M 10 20 L 11 20 L 11 21 L 10 21 z M 8 21 L 9 21 L 9 22 L 10 22 L 10 23 L 8 23 z M 11 22 L 13 22 L 13 23 L 12 23 L 12 25 L 11 25 z M 22 22 L 23 22 L 23 23 L 22 23 z M 27 23 L 29 23 L 29 24 L 28 24 L 28 25 L 29 25 L 29 26 L 28 26 L 28 28 L 27 28 L 27 27 L 26 27 L 26 28 L 24 28 L 24 27 L 23 27 L 23 28 L 22 28 L 22 27 L 21 27 L 21 28 L 20 28 L 20 26 L 25 26 L 25 25 L 26 25 L 26 24 L 27 24 z M 8 24 L 10 24 L 10 25 L 9 25 L 9 26 L 10 26 L 10 27 L 9 27 L 9 29 L 8 29 z M 12 25 L 15 25 L 15 26 L 16 26 L 16 27 L 17 27 L 17 28 L 20 28 L 20 29 L 14 29 L 14 28 L 15 28 L 15 27 L 14 27 L 14 28 L 13 28 L 13 29 L 12 29 L 12 27 L 13 27 L 13 26 L 12 26 z M 19 25 L 20 25 L 20 26 L 19 26 z M 17 26 L 19 26 L 19 27 L 17 27 z M 10 27 L 11 27 L 11 28 L 10 28 z M 21 28 L 22 28 L 22 29 L 21 29 z M 23 28 L 24 28 L 24 29 L 23 29 z M 26 28 L 27 28 L 27 29 L 26 29 z"></path><path id="qr squares" d="M0,0h7h0v0v7v0h0h-7h0v0v-7v0h0zM1,1h5h0v0v5v0h0h-5h0v0v-5v0h0zM2,2h3h0v0v3v0h0h-3h0v0v-3v0h0z M22,0h7h0v0v7v0h0h-7h0v0v-7v0h0zM23,1h5h0v0v5v0h0h-5h0v0v-5v0h0zM24,2h3h0v0v3v0h0h-3h0v0v-3v0h0z M0,22h7h0v0v7v0h0h-7h0v0v-7v0h0zM1,23h5h0v0v5v0h0h-5h0v0v-5v0h0zM2,24h3h0v0v3v0h0h-3h0v0v-3v0h0z" fill-rule="evenodd" fill-opacity="1" fill="rgb(0, 0, 0)"></path></svg>