<svg xmlns="http://www.w3.org/2000/svg" width="200mm" height="80mm" viewBox="0 0 708.66141 283.46457"><g transform="translate(0 -768.898)"><rect width="670.429" height="109.394" x="19.116" y="857.665" ry="11" fill="#cf581c"/><rect width="670" height="109.394" x="19.116" y="853.076" ry="11" fill="#eb6420"/><path d="M67.864 888.831a8.262 8.262 0 0 0-5.835-2.404H53.92c-4.516 0-8.24 3.722-8.24 8.234v8.136c0 2.174.89 4.282 2.405 5.83l19.977 19.961a3.285 3.285 0 0 0 4.647 0l15.13-15.119a3.278 3.278 0 0 0 0-4.644L67.865 888.83zm-17.636 17.655c-1.022-.988-1.55-2.305-1.55-3.722v-8.103c0-2.898 2.374-5.237 5.242-5.237h8.142c1.385 0 2.736.527 3.725 1.548l20.24 20.192-15.592 15.58-20.207-20.258zm2.077-13.472h6.593v6.588h-6.626v-6.588z" fill="#fff"/><text style="line-height:125%;-inkscape-font-specification:'Noto Sans, Bold';text-align:start" x="107.924" y="928.216" font-weight="700" font-size="60" font-family="Noto Sans" letter-spacing="0" word-spacing="0" fill="#fff"><tspan x="107.924" y="928.216">discussion-needed</tspan></text></g></svg>