<svg xmlns="http://www.w3.org/2000/svg" width="150mm" height="80mm" viewBox="0 0 531.49606 283.46457"><g transform="translate(0 -768.898)"><rect width="320" height="109.394" x="105.748" y="857.665" ry="11" fill="#cbcbcb"/><rect width="320" height="109.394" x="105.748" y="853.076" ry="11" fill="#e6e6e6"/><path d="M154.496 890.831a8.262 8.262 0 0 0-5.835-2.404h-8.11c-4.515 0-8.24 3.722-8.24 8.234v8.136c0 2.174.89 4.282 2.406 5.83l19.976 19.961a3.285 3.285 0 0 0 4.648 0l15.13-15.119a3.278 3.278 0 0 0 0-4.644l-19.975-19.994zm-17.636 17.655c-1.022-.988-1.55-2.305-1.55-3.722v-8.103c0-2.898 2.374-5.237 5.242-5.237h8.142c1.384 0 2.736.527 3.725 1.548l20.24 20.192-15.592 15.58-20.207-20.258zm2.077-13.472h6.592v6.588h-6.625v-6.588z" fill="#333"/><text style="line-height:125%;-inkscape-font-specification:'Noto Sans, Bold';text-align:start" x="194.556" y="930.216" font-weight="700" font-size="60" font-family="Noto Sans" letter-spacing="0" word-spacing="0" fill="#333"><tspan x="194.556" y="930.216">invalid</tspan></text></g></svg>