<?xml version="1.0" encoding="UTF-8" standalone="no"?>
<!-- Created with Inkscape (http://www.inkscape.org/) -->

<svg
   xmlns:dc="http://purl.org/dc/elements/1.1/"
   xmlns:cc="http://creativecommons.org/ns#"
   xmlns:rdf="http://www.w3.org/1999/02/22-rdf-syntax-ns#"
   xmlns:svg="http://www.w3.org/2000/svg"
   xmlns="http://www.w3.org/2000/svg"
   xmlns:sodipodi="http://sodipodi.sourceforge.net/DTD/sodipodi-0.dtd"
   xmlns:inkscape="http://www.inkscape.org/namespaces/inkscape"
   width="555mm"
   height="200mm"
   viewBox="0 0 555 200"
   version="1.1"
   id="svg8"
   inkscape:version="0.92.1 r15371"
   sodipodi:docname="guangzhou.svg">
  <defs
     id="defs2" />
  <sodipodi:namedview
     id="base"
     pagecolor="#ffffff"
     bordercolor="#666666"
     borderopacity="1.0"
     inkscape:pageopacity="0.0"
     inkscape:pageshadow="2"
     inkscape:zoom="0.32"
     inkscape:cx="690.57436"
     inkscape:cy="373.43448"
     inkscape:document-units="mm"
     inkscape:current-layer="layer1-5"
     showgrid="false"
     inkscape:window-width="1400"
     inkscape:window-height="966"
     inkscape:window-x="0"
     inkscape:window-y="29"
     inkscape:window-maximized="1" />
  <metadata
     id="metadata5">
    <rdf:RDF>
      <cc:Work
         rdf:about="">
        <dc:format>image/svg+xml</dc:format>
        <dc:type
           rdf:resource="http://purl.org/dc/dcmitype/StillImage" />
        <dc:title />
      </cc:Work>
    </rdf:RDF>
  </metadata>
  <g
     inkscape:groupmode="layer"
     id="layer4"
     inkscape:label="Layer 3"
     style="display:inline;opacity:0.35"
     transform="translate(0,-97)">
    <g
       transform="matrix(0.26458333,0,0,0.26458333,446.97156,-34.822051)"
       id="layer1-5"
       inkscape:label="Next"
       style="">
      <path
         inkscape:connector-curvature="0"
         id="path2996"
         d="m 146.7633,1078.6001 c 2.86168,-0.6097 5.68331,-1.2751 8.48234,-2.0136 l -24.99981,-88.3316 c -0.69175,0.1645 -1.39368,0.32 -2.09292,0.469 -47.60736,10.1421 -94.29759,-19.6272 -104.28,-66.48495 -2.83157,-13.29133 -2.41289,-26.53965 0.73683,-38.91887 l -88.480374,-24.29577 c -6.650756,25.93219 -7.583078,53.75917 -1.625202,81.72563 20.604617,96.71866 115.635916,158.43456 212.259156,137.85026 z m 13.34854,-3.3716 c 0.15453,-0.045 0.30496,-0.098 0.45929,-0.1436 l -0.0783,-0.2587 -0.49241,0.4261 c 0.0363,-0.011 0.0754,-0.013 0.11153,-0.024 z M 281.18739,953.80385 c 8.08566,-27.58052 9.63083,-57.50598 3.22048,-87.59636 C 263.80327,769.48888 168.77197,707.77293 72.1487,728.3572 c -4.90068,1.04402 -9.7088,2.27452 -14.42326,3.69243 l 25.29122,89.37101 c 2.91895,-0.9434 5.91695,-1.74248 8.98413,-2.3959 47.60735,-10.14211 94.2976,19.62718 104.28,66.48488 3.24873,15.24962 2.20722,30.43469 -2.31412,44.32679 z"
         style="fill:#111111;fill-opacity:1;stroke:none" />
    </g>
  </g>
  <g
     inkscape:groupmode="layer"
     id="layer5"
     inkscape:label="Layer 4"
     transform="translate(0,-97)"
     style="display:inline" />
  <g
     inkscape:groupmode="layer"
     id="layer3"
     inkscape:label="Layer 2"
     style="display:inline"
     transform="translate(0,-97)" />
  <g
     inkscape:label="Layer 1"
     inkscape:groupmode="layer"
     id="layer1"
     style="display:inline"
     transform="translate(0,-97)">
    <path
       style="display:inline;opacity:1;fill:#969696;fill-opacity:1;stroke:none;stroke-width:0.26458332px;stroke-linecap:butt;stroke-linejoin:miter;stroke-opacity:1"
       d="m 3.34041,238.57671 h 2.68717 l 1.294624,-2.24236 v 10.09718 h 3.046172 v 2.06705 l 3.617342,-3.61735 v 2.79053 h 2.583822 l 2.067057,-2.06706 v 2.06706 h 28.52539 c 0,0 8.474935,-28.7321 8.681641,-47.74902 0.206706,-19.01693 -1.44694,-44.23503 -1.44694,-44.23503 0,0 3.927409,0 4.547526,0 0.620117,0 0.413411,0.41341 0.413411,0.41341 l 1.033529,-16.12304 h 0.206706 l 0.620117,-13.64258 0.310057,13.64258 0.31006,0.10335 0.413411,16.32975 c 0,0 4.547526,1.757 4.857584,2.58382 0.31006,0.82683 -2.790526,21.70411 -2.997232,34.10645 -0.206706,12.40234 2.790526,47.1289 2.790526,47.1289 h 26.354981 v -5.37434 l 4.650878,4.65088 3.080678,-0.82547 v -5.68577 h 4.67078 v 5.78776 l 0.39957,-0.23068 v -5.35037 l 4.34007,-2.50574 h 7.2493 v 4.36609 l 1.33716,4.99036 v 4.72481 h 18.29988 v -9.71517 l 0.66166,-2.46934 0.61826,2.30739 0.63236,-2.35999 0.46184,1.72362 h 2.17341 V 238.37 h 2.48047 v -2.27376 l 1.9637,-1.9637 1.757,1.75699 v 4.13412 h 1.44694 v -3.30729 l 2.17041,-2.17041 2.17041,2.17041 v 4.34082 h 110.38089 v -16.74317 h 2.89388 l 1.76985,3.06548 v 12.85086 h 48.45965 v 9.50847 h 3.10058 v -11.98893 h 26.45833 v 15.91634 h 86.19631 v -29.14551 c 0,0 2.7905,-2.48047 4.3408,-2.48047 1.5503,0 0.51676,0 0.51676,0 v 7.85482 h 3.7207 v -8.78499 h 3.41067 v 12.40234 h 36.69024 v -6.40788 h 6.51124 v 8.26823 h 79.58172 l -0.0749,124.4955 H 2.27411 Z"
       id="path4609"
       inkscape:connector-curvature="0" />
    <path
       style="display:inline;opacity:1;fill:#787878;fill-opacity:1;stroke:none;stroke-width:0.26458332px;stroke-linecap:butt;stroke-linejoin:miter;stroke-opacity:1"
       d="m -2.68717,277.56966 20.050456,-2.27377 v -58.29101 l 0.620117,-0.62012 v -7.02799 h 10.748698 v 8.88834 l 0.83325,1.44323 v 54.36731 l 8.366312,-2.24173 V 210.597 l -1.165158,-0.3122 v -1.54815 h 22.351338 v 1.86035 l -0.823114,0.22056 v 1.43309 h 6.404169 v -2.27377 l -1.198695,-0.69206 h 17.941858 v 2.34571 h 3.307292 v 3.10059 h 2.89388 v 39.48079 h 6.407878 l 5.465577,-1.4645 2.967192,0.79506 V 243.0498 l 1.85605,-3.21478 h 2.52694 v 3.21478 h 5.16764 v -1.86035 h 2.06706 v -1.86035 h 2.06705 l 2.79053,-2.79053 h 19.9471 v 6.09782 h 8.47494 v 4.34082 h 2.48047 v -2.48047 h 0.82682 v -9.71517 h 15.91634 v 1.24024 l 0.82682,-0.82683 h 19.43034 v -8.06152 h 22.73763 v 7.02799 l 5.99447,1.44694 0.37558,-1.40168 h 12.85358 v -5.2129 h 2.27377 v -2.06706 c 0,0 1.44694,-0.82682 2.27376,-0.82682 0.82682,0 2.68717,1.03353 2.68717,1.03353 l 1.24024,-0.62012 v -7.2347 h 23.97786 v 16.53646 h 2.89388 v -21.08398 l 0.82683,12.19563 h 3.30729 v -3.51399 h 9.30176 v 2.48047 h 10.9554 v 9.30175 l 1.01597,-0.27222 1.59419,-5.94958 c 0,0 1.73066,-3.28666 2.97089,-4.32019 1.24024,-1.03353 0.82683,-5.58105 0.82683,-5.58105 l 4.32969,-2.49975 v 3.11986 h 7.24583 v 3.3073 l 2.06434,-7.70423 h 2.8966 v 26.30774 h 5.16764 v -7.64811 h 4.13411 V 210.3903 h 2.06706 v -3.514 h 6.82129 c 0,0 0.2067,-32.03939 1.03353,-37.82715 0.82682,-5.78776 0.82682,-5.58105 0.82682,-5.58105 h 3.514 l 0.38943,-1.45337 h 4.3648 l 0.78436,1.35854 h 1.2827 c 0,0 1.65364,33.37445 1.86035,54.25173 0.2067,20.87727 0.2067,21.08398 0.2067,21.08398 h 3.10059 v -7.2347 h 4.34082 v -35.76009 h 3.514 v -0.82682 h 6.82129 v 38.65397 l 2.68717,2.68717 v -3.514 h 8.26824 v 4.34082 h 1.65365 v -15.08951 l 1.6148,-2.79696 1.67206,2.8961 h 13.45629 v -2.57961 h 14.4694 l 1.34358,-1.34359 v -4.44417 -2.89388 h 12.299 v 16.12304 l 0.82312,-0.22055 v -3.08674 h 6.61828 v 2.89388 h 8.88836 v -6.82129 h 8.88834 v -1.86035 h 7.23471 v 11.78223 h 10.95539 v -5.37435 l -0.82682,-0.82682 v -7.85482 h 10.95541 v 4.34082 h 3.72071 v 3.30729 l 1.06764,-0.28607 v 10.62136 l 2.6324,4.55945 2.80627,-4.86063 v -27.19068 c 0,0 -0.51186,-9.50847 4.44908,-13.02247 4.96094,-3.51399 5.78776,1.44694 5.78776,1.44694 0,0 1.86036,2.48047 2.06706,9.30176 0.20671,6.82129 0.20671,9.09505 0.20671,9.09505 h 1.22254 v -3.80214 l -0.65021,-0.17423 v -1.14124 h 1.23486 v -4.67722 h 5.70037 v 3.65408 h -0.95007 v 1.38855 h 1.75395 v 1.53471 h -1.24238 v 2.41169 h 4.67723 v -10.01217 h 2.26552 v -4.16819 h 1.18105 v -3.46232 h 1.5503 v -3.66903 h 0.20671 l 0.51676,-10.43864 0.36174,10.38697 0.45977,0.12319 v 3.54583 h 1.29722 v 3.56568 h 1.70532 v 2.48047 h 9.38371 v 19.76026 l 4.4069,-7.63299 h 5.82451 v -21.30729 h 10.52375 l 1.1693,7.60048 v 24.26306 l 2.51344,1.45113 3.54042,-6.13219 V 203.2221 h 7.68545 v 153.47118 l -565.35856,-3e-5 z"
       id="path4606"
       inkscape:connector-curvature="0" />
    <path
       style="fill:#5a5a5a;fill-opacity:1;stroke:none;stroke-width:0.26458332px;stroke-linecap:butt;stroke-linejoin:miter;stroke-opacity:1"
       d="m -2.27376,267.85415 h 7.2347 v 4.54752 l 8.193299,-2.19538 h 10.616925 l 5.337063,-1.43007 8.731174,2.33952 v 3.24964 h 4.328572 l 11.163697,-2.9913 v -2.07298 l 5.656956,-1.51577 h 9.32762 c 0,0 0.413412,-0.9647 1.31775,-1.27476 0.904338,-0.31007 8.812212,-2.36123 8.812212,-2.36123 v -2.02954 l 1.22636,-1.22634 h 16.792721 l 1.435347,1.43534 h 18.784754 v -2.53616 l 4.68889,-2.70714 h 7.09333 l 2.46974,-1.42589 h 1.95907 l 1.83238,-1.05794 h 3.35641 l 1.46626,-1.46627 h 7.44968 l 1.60548,1.60549 h 14.25321 l 2.94237,-0.7884 h 12.33167 9.79292 l 1.7114,-0.98809 h 1.94268 l 2.15038,-1.24153 h 5.37701 v -20.15114 h 1.90012 l 4.16565,-4.16563 3.7637,3.7637 h 7.27161 l 1.44336,-1.44338 h 6.44944 l 0.32626,1.21766 h 2.08543 l 3.37678,-3.37679 3.05439,3.0544 h 4.09257 l 2.42471,-1.39991 h 7.14896 v 1.69222 h 1.90012 v 16.58951 l 3.04687,-1.75911 h 7.03838 v 11.18661 h 11.91229 v 1.75397 h 3.9464 v 4.45797 h 4.7503 l 5.04777,2.91433 v 1.39748 h -4.97469 v 4.09257 h 2.55785 l 1.53471,1.53472 h 11.40072 v -6.79659 l 9.28135,-3.94639 h 2.85018 l 0.60747,1.05214 h 6.11603 v 1.06719 l 2.28345,-1.31834 h 5.97476 l 0.73226,0.73227 h 10.37613 l -3.28867,-1.38711 v -0.73083 h 3.36175 v -2.55783 l 0.58465,-0.58465 h 3.65408 v -3.28867 l 22.28986,-0.51157 5.22488,1.39999 v 2.61948 h 2.96025 v 3.36174 l 4.69766,1.25876 v 6.56098 l 5.02219,-0.29234 v 2.26552 l 9.57366,-0.14616 0.39444,-0.68315 0.86003,0.49652 h 9.26928 v -1.56732 l 5.04261,-0.36541 v -3.65408 l -0.39441,-0.68316 v -0.48614 l 11.86823,-0.36539 v -1.09622 l -4.33359,-1.16118 v -1.68902 h 4.47974 v -2.3386 l 0.54811,-0.54811 h 4.20219 v -2.52132 h 20.17049 l 6.9478,1.86166 v 1.50008 h 2.40665 v 3.14251 l 5.33807,1.43034 -0.12255,0.45738 h -4.33856 v 6.00509 l 10.81606,-0.0731 0.58465,-0.58464 2.05539,0.55073 h 6.12976 v -1.5008 h 5.26185 v -3.43482 l -1.07532,-0.62085 v -1.20621 h 13.0607 v -1.82702 l -2.9284,-0.78468 v -1.40777 h 5.12085 v -2.55786 l 3.65408,-0.36541 v -2.26552 l 8.21169,2.20033 v 4.66934 l 3.20802,0.85957 13.50107,-0.348 v 9.71984 h 5.04262 v -1.09623 l 16.00486,-0.43849 v -6.3581 h 14.54322 v -3.80023 h -3.14251 v -0.87696 h 12.49696 v 45.74902 H -3.54676 Z"
       id="path4599"
       inkscape:connector-curvature="0" />
  </g>
</svg>
