<?xml version="1.0" encoding="UTF-8" standalone="no"?>
<!-- Created with Inkscape (http://www.inkscape.org/) -->

<svg
   width="210mm"
   height="297mm"
   viewBox="0 0 210 297"
   version="1.1"
   id="svg5"
   inkscape:version="1.2.1 (9c6d41e410, 2022-07-14)"
   sodipodi:docname="ver_a_no_qr.svg"
   inkscape:export-filename="ver_a_no_qr.png"
   inkscape:export-xdpi="600"
   inkscape:export-ydpi="600"
   xmlns:inkscape="http://www.inkscape.org/namespaces/inkscape"
   xmlns:sodipodi="http://sodipodi.sourceforge.net/DTD/sodipodi-0.dtd"
   xmlns="http://www.w3.org/2000/svg"
   xmlns:svg="http://www.w3.org/2000/svg">
  <sodipodi:namedview
     id="namedview7"
     pagecolor="#000000"
     bordercolor="#666666"
     borderopacity="1.0"
     inkscape:showpageshadow="2"
     inkscape:pageopacity="1"
     inkscape:pagecheckerboard="0"
     inkscape:deskcolor="#d1d1d1"
     inkscape:document-units="mm"
     showgrid="false"
     inkscape:zoom="1.5444583"
     inkscape:cx="236.32881"
     inkscape:cy="705.42531"
     inkscape:window-width="1920"
     inkscape:window-height="1093"
     inkscape:window-x="0"
     inkscape:window-y="0"
     inkscape:window-maximized="1"
     inkscape:current-layer="layer1" />
  <defs
     id="defs2">
    <clipPath
       clipPathUnits="userSpaceOnUse"
       id="clipPath1316">
      <g
         id="g1320"
         transform="translate(-117.7999,-733.4113)">
        <path
           d="M 0,841.89 H 595.28 V 0 H 0 Z"
           id="path1318" />
      </g>
    </clipPath>
    <clipPath
       clipPathUnits="userSpaceOnUse"
       id="clipPath1310">
      <g
         id="g1314"
         transform="translate(-151.3038,-751.6926)">
        <path
           d="M 0,841.89 H 595.28 V 0 H 0 Z"
           id="path1312" />
      </g>
    </clipPath>
    <clipPath
       clipPathUnits="userSpaceOnUse"
       id="clipPath1304">
      <g
         id="g1308"
         transform="translate(-187.585,-751.6926)">
        <path
           d="M 0,841.89 H 595.28 V 0 H 0 Z"
           id="path1306" />
      </g>
    </clipPath>
    <clipPath
       clipPathUnits="userSpaceOnUse"
       id="clipPath1298">
      <g
         id="g1302"
         transform="translate(-226.9254,-734.5363)">
        <path
           d="M 0,841.89 H 595.28 V 0 H 0 Z"
           id="path1300" />
      </g>
    </clipPath>
    <clipPath
       clipPathUnits="userSpaceOnUse"
       id="clipPath1292">
      <g
         id="g1296"
         transform="translate(-265.3507,-768.4269)">
        <path
           d="M 0,841.89 H 595.28 V 0 H 0 Z"
           id="path1294" />
      </g>
    </clipPath>
    <clipPath
       clipPathUnits="userSpaceOnUse"
       id="clipPath1286">
      <g
         id="g1290">
        <path
           d="M 0,841.89 H 595.28 V 0 H 0 Z"
           id="path1288" />
      </g>
    </clipPath>
    <clipPath
       clipPathUnits="userSpaceOnUse"
       id="clipPath1280">
      <g
         id="g1284"
         transform="translate(-317.171,-751.6926)">
        <path
           d="M 0,841.89 H 595.28 V 0 H 0 Z"
           id="path1282" />
      </g>
    </clipPath>
    <clipPath
       clipPathUnits="userSpaceOnUse"
       id="clipPath1274">
      <g
         id="g1278"
         transform="translate(-315.5919,-718.5646)">
        <path
           d="M 0,841.89 H 595.28 V 0 H 0 Z"
           id="path1276" />
      </g>
    </clipPath>
    <clipPath
       clipPathUnits="userSpaceOnUse"
       id="clipPath1268">
      <g
         id="g1272">
        <path
           d="M 0,841.89 H 595.28 V 0 H 0 Z"
           id="path1270" />
      </g>
    </clipPath>
    <clipPath
       clipPathUnits="userSpaceOnUse"
       id="clipPath3237">
      <rect
         style="opacity:0.686502;fill:#345b6e;fill-opacity:1;stroke:#000000;stroke-width:7.9375e-09;stroke-linecap:round;paint-order:stroke fill markers;stop-color:#000000"
         id="rect3239"
         width="210"
         height="297"
         x="-1.5777218e-30"
         y="2.220446e-14"
         transform="rotate(24.278995)" />
    </clipPath>
    <clipPath
       clipPathUnits="userSpaceOnUse"
       id="clipPath1262">
      <g
         id="g1266"
         transform="translate(-380.0555,-558.637)">
        <path
           d="M 0,841.89 H 595.28 V 0 H 0 Z"
           id="path1264" />
      </g>
    </clipPath>
    <clipPath
       clipPathUnits="userSpaceOnUse"
       id="clipPath1256">
      <g
         id="g1260"
         transform="translate(-120.3988,-588.0071)">
        <path
           d="M 0,841.89 H 595.28 V 0 H 0 Z"
           id="path1258" />
      </g>
    </clipPath>
    <clipPath
       clipPathUnits="userSpaceOnUse"
       id="clipPath1250">
      <g
         id="g1254"
         transform="translate(-153.9027,-606.2884)">
        <path
           d="M 0,841.89 H 595.28 V 0 H 0 Z"
           id="path1252" />
      </g>
    </clipPath>
    <clipPath
       clipPathUnits="userSpaceOnUse"
       id="clipPath1244">
      <g
         id="g1248"
         transform="translate(-190.184,-606.2884)">
        <path
           d="M 0,841.89 H 595.28 V 0 H 0 Z"
           id="path1246" />
      </g>
    </clipPath>
    <clipPath
       clipPathUnits="userSpaceOnUse"
       id="clipPath1238">
      <g
         id="g1242"
         transform="translate(-229.5243,-589.1321)">
        <path
           d="M 0,841.89 H 595.28 V 0 H 0 Z"
           id="path1240" />
      </g>
    </clipPath>
    <clipPath
       clipPathUnits="userSpaceOnUse"
       id="clipPath1232">
      <g
         id="g1236"
         transform="translate(-267.9496,-623.0228)">
        <path
           d="M 0,841.89 H 595.28 V 0 H 0 Z"
           id="path1234" />
      </g>
    </clipPath>
    <clipPath
       clipPathUnits="userSpaceOnUse"
       id="clipPath1226">
      <g
         id="g1230">
        <path
           d="M 0,841.89 H 595.28 V 0 H 0 Z"
           id="path1228" />
      </g>
    </clipPath>
    <clipPath
       clipPathUnits="userSpaceOnUse"
       id="clipPath1220">
      <g
         id="g1224"
         transform="translate(-319.7699,-606.2884)">
        <path
           d="M 0,841.89 H 595.28 V 0 H 0 Z"
           id="path1222" />
      </g>
    </clipPath>
    <clipPath
       clipPathUnits="userSpaceOnUse"
       id="clipPath1214">
      <g
         id="g1218"
         transform="translate(-318.1908,-573.1605)">
        <path
           d="M 0,841.89 H 595.28 V 0 H 0 Z"
           id="path1216" />
      </g>
    </clipPath>
    <clipPath
       clipPathUnits="userSpaceOnUse"
       id="clipPath1208">
      <g
         id="g1212">
        <path
           d="M 0,841.89 H 595.28 V 0 H 0 Z"
           id="path1210" />
      </g>
    </clipPath>
  </defs>
  <g
     inkscape:groupmode="layer"
     id="layer2"
     inkscape:label="图层 2">
    <text
       xml:space="preserve"
       style="font-style:normal;font-weight:normal;font-size:10.5833px;line-height:1.25;font-family:sans-serif;fill:#314a49;fill-opacity:1;stroke:none;stroke-width:0.264583"
       x="-133.07372"
       y="1.1204524"
       id="text2388"
       transform="rotate(-24.278995)"
       clip-path="url(#clipPath3237)"><tspan
         sodipodi:role="line"
         id="tspan2386"
         style="opacity:0.686502;fill:#314a49;fill-opacity:1;stroke-width:0.264583"
         x="-133.07372"
         y="1.1204524">                                    </tspan><tspan
         sodipodi:role="line"
         style="opacity:0.686502;fill:#314a49;fill-opacity:1;stroke-width:0.264583"
         x="-133.07372"
         y="14.349577"
         id="tspan3002">                                        年度回顾  AOSC</tspan><tspan
         sodipodi:role="line"
         style="opacity:0.686502;fill:#314a49;fill-opacity:1;stroke-width:0.264583"
         x="-133.07372"
         y="28.585436"
         id="tspan2990">                                          OS  代号  Retro </tspan><tspan
         sodipodi:role="line"
         style="opacity:0.686502;fill:#314a49;fill-opacity:1;stroke-width:0.264583"
         x="-133.07372"
         y="42.821297"
         id="tspan2390">                                               信创  发行版  吐槽  生态系统</tspan><tspan
         sodipodi:role="line"
         style="opacity:0.686502;fill:#314a49;fill-opacity:1;stroke-width:0.264583"
         x="-133.07372"
         y="56.050419"
         id="tspan2996">                                      Core  自动化  Workflows  Git  龙芯</tspan><tspan
         sodipodi:role="line"
         style="opacity:0.686502;fill:#314a49;fill-opacity:1;stroke-width:0.264583"
         x="-133.07372"
         y="70.286278"
         id="tspan2392">                                    MIPS  PLCT  社团  Canonical  用户组  Ciel</tspan><tspan
         sodipodi:role="line"
         style="opacity:0.686502;fill:#314a49;fill-opacity:1;stroke-width:0.264583"
         x="-133.07372"
         y="84.522141"
         id="tspan2394">                                       容器  Autobuild3  i486  本地化  软件源  跨发行版生态</tspan><tspan
         sodipodi:role="line"
         style="opacity:0.686502;fill:#314a49;fill-opacity:1;stroke-width:0.264583"
         x="-133.07372"
         y="98.757996"
         id="tspan2396">                                    飞腾  贴纸  旅行  上科大  Omakase  未来  RPC  桌面环境</tspan><tspan
         sodipodi:role="line"
         style="opacity:0.686502;fill:#314a49;fill-opacity:1;stroke-width:0.264583"
         x="-133.07372"
         y="112.99386"
         id="tspan3112">                                 外联  KDE  上海 LUG  芯联芯  ARM  内核  安全  POWER</tspan><tspan
         sodipodi:role="line"
         style="opacity:0.686502;fill:#314a49;fill-opacity:1;stroke-width:0.264583"
         x="-133.07372"
         y="127.22971"
         id="tspan3120">                               行业  年度回顾  AOSC OS  代号  Retro  信创  发行版</tspan><tspan
         sodipodi:role="line"
         style="opacity:0.686502;fill:#314a49;fill-opacity:1;stroke-width:0.264583"
         x="-133.07372"
         y="141.46558"
         id="tspan2402">                            吐槽  生态系统  Core  自动化  Workflows  Git  龙芯</tspan><tspan
         sodipodi:role="line"
         style="opacity:0.686502;fill:#314a49;fill-opacity:1;stroke-width:0.264583"
         x="-133.07372"
         y="155.70143"
         id="tspan2404">                      MIPS  PLCT  社团  Canonical  用户组  Ciel  容器  Autobuild3</tspan><tspan
         sodipodi:role="line"
         style="opacity:0.686502;fill:#314a49;fill-opacity:1;stroke-width:0.264583"
         x="-133.07372"
         y="169.93729"
         id="tspan2406">                    i486  本地化  软件源  跨发行版生态  飞腾  贴纸  旅行</tspan><tspan
         sodipodi:role="line"
         style="opacity:0.686502;fill:#314a49;fill-opacity:1;stroke-width:0.264583"
         x="-133.07372"
         y="184.17316"
         id="tspan2408">                    上科大  Omakase  未来  RPC  桌面环境  外联  KDE</tspan><tspan
         sodipodi:role="line"
         style="opacity:0.686502;fill:#314a49;fill-opacity:1;stroke-width:0.264583"
         x="-133.07372"
         y="198.40901"
         id="tspan2410">                 上海 LUG  芯联芯  ARM  内核  安全  POWER  行业</tspan><tspan
         sodipodi:role="line"
         style="opacity:0.686502;fill:#314a49;fill-opacity:1;stroke-width:0.264583"
         x="-133.07372"
         y="212.64487"
         id="tspan2412">               年度回顾  AOSC OS  代号  Retro  信创  发行版  吐槽 </tspan><tspan
         sodipodi:role="line"
         style="opacity:0.686502;fill:#314a49;fill-opacity:1;stroke-width:0.264583"
         x="-133.07372"
         y="226.88072"
         id="tspan2414">            生态系统  Core  自动化  Workflows  Git  龙芯  MIPS</tspan><tspan
         sodipodi:role="line"
         style="opacity:0.686502;fill:#314a49;fill-opacity:1;stroke-width:0.264583"
         x="-133.07372"
         y="241.11659"
         id="tspan3134">        PLCT  社团  Canonical  用户组  Ciel  容器  Autobuild3</tspan><tspan
         sodipodi:role="line"
         style="opacity:0.686502;fill:#314a49;fill-opacity:1;stroke-width:0.264583"
         x="-133.07372"
         y="255.35245"
         id="tspan2420">      软件源  跨发行版生态  飞腾  贴纸  旅行  上科大  Omakase</tspan><tspan
         sodipodi:role="line"
         style="opacity:0.686502;fill:#314a49;fill-opacity:1;stroke-width:0.264583"
         x="-133.07372"
         y="269.58832"
         id="tspan2422">   未来  RPC  桌面环境  外联  KDE  上海 LUG  芯联芯 </tspan><tspan
         sodipodi:role="line"
         style="opacity:0.686502;fill:#314a49;fill-opacity:1;stroke-width:0.264583"
         x="-133.07372"
         y="283.82416"
         id="tspan2424">           ARM  内核  安全  POWER  行业   年度回顾  AOSC OS</tspan><tspan
         sodipodi:role="line"
         style="opacity:0.686502;fill:#314a49;fill-opacity:1;stroke-width:0.264583"
         x="-133.07372"
         y="298.06003"
         id="tspan2426">                        代号  Retro  信创  发行版  吐槽  生态系统</tspan><tspan
         sodipodi:role="line"
         style="opacity:0.686502;fill:#314a49;fill-opacity:1;stroke-width:0.264583"
         x="-133.07372"
         y="312.29587"
         id="tspan3154">                                 Core  自动化  Workflows  Git</tspan><tspan
         sodipodi:role="line"
         style="opacity:0.686502;fill:#314a49;fill-opacity:1;stroke-width:0.264583"
         x="-133.07372"
         y="326.53174"
         id="tspan2428">                                                   龙芯  MIPS  PLCT  社团</tspan><tspan
         sodipodi:role="line"
         style="opacity:0.686502;fill:#314a49;fill-opacity:1;stroke-width:0.264583"
         x="-133.07372"
         y="340.76761"
         id="tspan3160">                                                        Canonical  用户组  Ciel  容器  Autobuild3</tspan><tspan
         sodipodi:role="line"
         style="opacity:0.686502;fill:#314a49;fill-opacity:1;stroke-width:0.264583"
         x="-133.07372"
         y="355.00345"
         id="tspan2434">i486  本地化  软件源  跨发行版生态  飞腾  贴纸</tspan></text>
  </g>
  <g
     inkscape:label="图层 1"
     inkscape:groupmode="layer"
     id="layer1">
    <text
       xml:space="preserve"
       style="font-style:normal;font-weight:normal;font-size:11.2339px;line-height:0.95;font-family:sans-serif;fill:#ffffff;fill-opacity:1;stroke:none;stroke-width:0.280849"
       x="14.291854"
       y="38.795307"
       id="text1693"><tspan
         sodipodi:role="line"
         id="tspan1691"
         style="font-weight:normal;font-size:23.4041px;fill:#ffffff;fill-opacity:1;stroke-width:0.280849"
         x="14.291854"
         y="38.795307">AOSCC 2023</tspan><tspan
         sodipodi:role="line"
         style="fill:#ffffff;fill-opacity:1;stroke-width:0.280849"
         x="14.291854"
         y="52.849991"
         id="tspan1695">安同开源社区年度线下聚会</tspan></text>
    <g
       id="g3672"
       transform="matrix(1.0909093,0,0,1.0909093,-8.0859302,-24.5974)">
      <circle
         style="color:#000000;display:inline;overflow:visible;visibility:visible;fill:#000000;fill-opacity:1;fill-rule:nonzero;stroke:none;stroke-width:0.0532186;stroke-linejoin:miter;stroke-miterlimit:4;stroke-dasharray:none;stroke-dashoffset:0;stroke-opacity:1;marker:none;enable-background:accumulate"
         id="path8317"
         cx="99.945045"
         cy="270.57068"
         r="10.999998" />
      <circle
         r="1.2515583"
         cy="270.52438"
         cx="100.46403"
         id="circle8306"
         style="color:#000000;display:inline;overflow:visible;visibility:visible;fill:#ffffff;fill-opacity:1;fill-rule:nonzero;stroke:#ffffff;stroke-width:0.0223105;stroke-linejoin:miter;stroke-miterlimit:4;stroke-dasharray:none;stroke-dashoffset:0;stroke-opacity:1;marker:none;enable-background:accumulate" />
      <path
         style="color:#000000;display:inline;overflow:visible;visibility:visible;fill:#c00000;fill-opacity:1;fill-rule:nonzero;stroke:none;stroke-width:0.109989;stroke-linejoin:miter;stroke-miterlimit:4;stroke-dasharray:none;stroke-dashoffset:0;stroke-opacity:1;marker:none;enable-background:accumulate"
         d="m 100.22888,261.87959 a 8.6495443,8.6495443 0 0 0 -8.649522,8.64953 8.6495443,8.6495443 0 0 0 8.649522,8.64952 v -4.22448 a 4.4415549,4.4415549 0 0 1 -4.206394,-4.42979 4.4415549,4.4415549 0 0 1 4.206394,-4.43323 z"
         id="circle8373"
         inkscape:connector-curvature="0" />
      <path
         style="color:#000000;display:inline;overflow:visible;visibility:visible;fill:#0070c0;fill-opacity:1;fill-rule:nonzero;stroke:none;stroke-width:0.109989;stroke-linejoin:miter;stroke-miterlimit:4;stroke-dasharray:none;stroke-dashoffset:0;stroke-opacity:1;marker:none;enable-background:accumulate"
         d="m 100.25031,266.906 a 3.6131592,3.6131592 0 0 0 -3.613121,3.61317 3.6131592,3.6131592 0 0 0 3.613121,3.61312 v -1.71928 a 1.9017535,1.9017535 0 0 1 -1.688035,-1.88864 1.9017535,1.9017535 0 0 1 1.688035,-1.88738 z"
         id="path8382"
         inkscape:connector-curvature="0" />
      <path
         style="color:#000000;display:inline;overflow:visible;visibility:visible;fill:#ffc000;fill-opacity:1;fill-rule:nonzero;stroke:none;stroke-width:0.109989;stroke-linejoin:miter;stroke-miterlimit:4;stroke-dasharray:none;stroke-dashoffset:0;stroke-opacity:1;marker:none;enable-background:accumulate"
         d="m 100.63923,263.12071 v 3.72398 a 3.6884623,3.6884623 0 0 1 3.51325,3.67968 3.6884623,3.6884623 0 0 1 -3.51325,3.68225 v 3.72385 a 7.4048886,7.4048886 0 0 0 7.40488,-7.40488 7.4048886,7.4048886 0 0 0 -7.40488,-7.40488 z"
         id="path8387"
         inkscape:connector-curvature="0" />
    </g>
    <text
       xml:space="preserve"
       style="font-style:normal;font-weight:normal;font-size:10.5833px;line-height:0;font-family:sans-serif;fill:#ffffff;fill-opacity:1;stroke:none;stroke-width:0.264583"
       x="13.840298"
       y="90.422844"
       id="text2262"><tspan
         sodipodi:role="line"
         style="font-size:22.5778px;line-height:1.25;fill:#ffffff;fill-opacity:1;stroke-width:0.264583"
         x="13.840298"
         y="90.422844"
         id="tspan2298">Linux</tspan><tspan
         sodipodi:role="line"
         style="font-size:22.5778px;line-height:1.25;fill:#ffffff;fill-opacity:1;stroke-width:0.264583"
         x="13.840298"
         y="120.7928"
         id="tspan3642">桌面！</tspan><tspan
         sodipodi:role="line"
         style="font-size:22.5778px;line-height:1.25;fill:#ffffff;fill-opacity:1;stroke-width:0.264583"
         x="13.840298"
         y="149.01506"
         id="tspan3638">现在。</tspan><tspan
         sodipodi:role="line"
         style="font-size:22.5778px;line-height:1.25;fill:#ffffff;fill-opacity:1;stroke-width:0.264583"
         x="13.840298"
         y="177.2373"
         id="tspan3640">未来？</tspan><tspan
         sodipodi:role="line"
         style="font-size:11.2889px;line-height:1.25;fill:#ffffff;fill-opacity:1;stroke-width:0.264583"
         x="13.840298"
         y="194.11421"
         id="tspan2294" /><tspan
         sodipodi:role="line"
         style="font-weight:bold;font-size:11.2889px;line-height:1.25;fill:#ffffff;fill-opacity:1;stroke-width:0.264583"
         x="13.840298"
         y="208.22534"
         id="tspan2292">2023 年 7 月 15 ~ 16 日</tspan><tspan
         sodipodi:role="line"
         style="font-weight:bold;font-size:11.2889px;line-height:1.25;fill:#ffffff;fill-opacity:1;stroke-width:0.264583"
         x="13.840298"
         y="222.33646"
         id="tspan2276">上海科技大学</tspan><tspan
         sodipodi:role="line"
         style="font-weight:normal;font-size:7.76111px;line-height:1.25;fill:#ffffff;fill-opacity:1;stroke-width:0.264583"
         x="13.840298"
         y="232.90216"
         id="tspan1728">信息学院 1C-101</tspan></text>
    <g
       id="g3692">
      <g
         id="g982"
         transform="matrix(0.22282261,0,0,-0.22282261,194.80939,282.57067)"
         clip-path="url(#clipPath1262)"
         style="fill:#000000;fill-opacity:1">
        <path
           d="m 0,0 h -317.101 c -7.433,0 -13.46,6.026 -13.46,13.46 v 80.789 c 0,7.434 6.027,13.46 13.46,13.46 h 284.713 c 25.321,0 45.848,-20.527 45.848,-45.848 V 13.46 C 13.46,6.026 7.434,0 0,0"
           style="fill:#000000;fill-opacity:1;fill-rule:nonzero;stroke:none"
           id="path984" />
      </g>
      <g
         id="g986"
         transform="matrix(0.22282261,0,0,-0.22282261,136.952,276.02635)"
         clip-path="url(#clipPath1256)">
        <path
           d="m 0,0 h -14.379 c -4.101,0 -7.523,1.348 -10.266,4.043 -2.719,2.742 -4.078,6.164 -4.078,10.266 v 20.707 c 0,4.336 1.559,7.898 4.676,10.687 2.813,2.461 6.035,3.692 9.668,3.692 h 13.852 v -2.813 h -13.852 c -2.93,0 -5.519,-1.008 -7.769,-3.023 -2.509,-2.204 -3.762,-5.051 -3.762,-8.543 V 14.309 c 0,-3.375 1.09,-6.141 3.269,-8.297 2.18,-2.203 4.934,-3.305 8.262,-3.305 h 11.602 v 23.168 h -7.278 v 2.777 H 0 Z"
           style="fill:#e5e5e5;fill-opacity:1;fill-rule:nonzero;stroke:none"
           id="path988" />
      </g>
      <g
         id="g990"
         transform="matrix(0.22282261,0,0,-0.22282261,144.41743,271.95286)"
         clip-path="url(#clipPath1250)">
        <path
           d="m 0,0 v 3.762 c 0,2.508 -0.879,4.628 -2.637,6.363 -1.711,1.758 -3.82,2.637 -6.328,2.637 -2.508,0 -4.629,-0.879 -6.363,-2.637 C -17.063,8.367 -17.93,6.246 -17.93,3.762 V 0 Z M 2.813,-2.813 H -17.93 v -3.761 c 0,-3.704 0.691,-6.188 2.075,-7.453 1.125,-1.032 3.164,-1.547 6.117,-1.547 H 2.285 v -2.707 H -9.738 c -3.68,0 -6.352,0.738 -8.016,2.215 -1.992,1.804 -2.988,4.968 -2.988,9.492 V 3.762 c 0,3.257 1.137,6.034 3.41,8.332 2.32,2.297 5.109,3.445 8.367,3.445 3.257,0 6.035,-1.148 8.332,-3.445 C 1.664,9.796 2.813,7.019 2.813,3.762 Z"
           style="fill:#e5e5e5;fill-opacity:1;fill-rule:nonzero;stroke:none"
           id="path992" />
      </g>
      <g
         id="g994"
         transform="matrix(0.22282261,0,0,-0.22282261,152.50173,271.95286)"
         clip-path="url(#clipPath1244)">
        <path
           d="m 0,0 v 3.762 c 0,2.508 -0.879,4.628 -2.637,6.363 -1.711,1.758 -3.82,2.637 -6.328,2.637 -2.508,0 -4.629,-0.879 -6.363,-2.637 C -17.063,8.367 -17.93,6.246 -17.93,3.762 V 0 Z M 2.813,-2.813 H -17.93 v -3.761 c 0,-3.704 0.691,-6.188 2.075,-7.453 1.125,-1.032 3.164,-1.547 6.117,-1.547 H 2.285 v -2.707 H -9.738 c -3.68,0 -6.352,0.738 -8.016,2.215 -1.992,1.804 -2.988,4.968 -2.988,9.492 V 3.762 c 0,3.257 1.137,6.034 3.41,8.332 2.32,2.297 5.109,3.445 8.367,3.445 3.257,0 6.035,-1.148 8.332,-3.445 C 1.664,9.796 2.813,7.019 2.813,3.762 Z"
           style="fill:#e5e5e5;fill-opacity:1;fill-rule:nonzero;stroke:none"
           id="path996" />
      </g>
      <g
         id="g998"
         transform="matrix(0.22282261,0,0,-0.22282261,161.26763,275.77567)"
         clip-path="url(#clipPath1238)">
        <path
           d="m 0,0 -2.566,-1.055 -10.09,20.11 -8.333,-4.149 V -0.668 h -2.812 v 48.41 h 2.812 V 18 l 19.548,9.809 1.16,-2.567 -9.879,-4.922 z"
           style="fill:#e5e5e5;fill-opacity:1;fill-rule:nonzero;stroke:none"
           id="path1000" />
      </g>
      <g
         id="g1002"
         transform="matrix(0.22282261,0,0,-0.22282261,169.82966,268.22406)"
         clip-path="url(#clipPath1232)">
        <path
           d="m 0,0 c 0,4.336 -1.418,7.465 -4.254,9.387 -2.109,1.453 -4.769,2.179 -7.98,2.179 h -10.899 v -23.097 h 10.899 c 3.257,0 5.918,0.703 7.98,2.109 C -1.418,-7.547 0,-4.407 0,0 m 2.777,0 c 0,-5.391 -1.828,-9.316 -5.484,-11.777 -2.531,-1.711 -5.707,-2.567 -9.527,-2.567 h -10.899 v -20.215 h -2.812 v 48.938 h 13.711 c 3.773,0 6.949,-0.879 9.527,-2.637 C 0.949,9.234 2.777,5.32 2.777,0"
           style="fill:#e5e5e5;fill-opacity:1;fill-rule:nonzero;stroke:none"
           id="path1004" />
      </g>
      <path
         d="m 286.301,588.464 h -2.813 v 32.871 h 2.813 z m 0,44.086 h -2.813 v 4.324 h 2.813 z"
         style="fill:#e5e5e5;fill-opacity:1;fill-rule:nonzero;stroke:none"
         id="path1006"
         clip-path="url(#clipPath1226)"
         transform="matrix(0.22282261,0,0,-0.22282261,110.12443,407.04762)" />
      <g
         id="g1008"
         transform="matrix(0.22282261,0,0,-0.22282261,181.37639,271.95286)"
         clip-path="url(#clipPath1220)">
        <path
           d="m 0,0 v 3.762 c 0,2.508 -0.879,4.628 -2.637,6.363 -1.711,1.758 -3.82,2.637 -6.328,2.637 -2.508,0 -4.629,-0.879 -6.363,-2.637 C -17.062,8.367 -17.93,6.246 -17.93,3.762 V 0 Z M 2.813,-2.813 H -17.93 v -3.761 c 0,-3.704 0.692,-6.188 2.075,-7.453 1.125,-1.032 3.164,-1.547 6.117,-1.547 H 2.285 v -2.707 H -9.738 c -3.68,0 -6.352,0.738 -8.016,2.215 -1.992,1.804 -2.988,4.968 -2.988,9.492 V 3.762 c 0,3.257 1.137,6.034 3.41,8.332 2.32,2.297 5.109,3.445 8.367,3.445 3.258,0 6.035,-1.148 8.332,-3.445 C 1.664,9.796 2.813,7.019 2.813,3.762 Z"
           style="fill:#e5e5e5;fill-opacity:1;fill-rule:nonzero;stroke:none"
           id="path1010" />
      </g>
      <g
         id="g1012"
         transform="matrix(0.22282261,0,0,-0.22282261,181.02453,279.33451)"
         clip-path="url(#clipPath1214)">
        <path
           d="m 0,0 h -243.637 c -4.964,0 -8.988,4.024 -8.988,8.988 v 60.797 c 0,4.964 4.024,8.988 8.988,8.988 H 25.972 c 18.381,0 33.282,-16.377 33.282,-36.578 V 0 h -7.508"
           style="fill:none;stroke:#e6e6e5;stroke-width:4;stroke-linecap:butt;stroke-linejoin:miter;stroke-miterlimit:10;stroke-dasharray:none;stroke-opacity:1"
           id="path1014" />
      </g>
      <path
         d="m 360.569,579.078 h -32.98 v 4.058 h 32.98 z"
         style="fill:#e6e6e5;fill-opacity:1;fill-rule:nonzero;stroke:none"
         id="path1016"
         clip-path="url(#clipPath1208)"
         transform="matrix(0.22282261,0,0,-0.22282261,110.12443,407.04762)" />
    </g>
  </g>
</svg>
