<?xml version="1.0" encoding="UTF-8" standalone="no"?>
<svg
   xmlns:dc="http://purl.org/dc/elements/1.1/"
   xmlns:cc="http://creativecommons.org/ns#"
   xmlns:rdf="http://www.w3.org/1999/02/22-rdf-syntax-ns#"
   xmlns:svg="http://www.w3.org/2000/svg"
   xmlns="http://www.w3.org/2000/svg"
   xmlns:sodipodi="http://sodipodi.sourceforge.net/DTD/sodipodi-0.dtd"
   xmlns:inkscape="http://www.inkscape.org/namespaces/inkscape"
   width="150"
   height="100"
   viewBox="0 0 39.6875 26.458333"
   version="1.1"
   id="svg1012"
   inkscape:version="1.0.1 (unknown)"
   sodipodi:docname="i486.svg">
  <defs
     id="defs1006" />
  <sodipodi:namedview
     id="base"
     pagecolor="#ffffff"
     bordercolor="#666666"
     borderopacity="1.0"
     inkscape:pageopacity="0"
     inkscape:pageshadow="2"
     inkscape:zoom="5.6"
     inkscape:cx="49.09203"
     inkscape:cy="50.177155"
     inkscape:document-units="mm"
     inkscape:current-layer="layer1"
     inkscape:document-rotation="0"
     showgrid="false"
     inkscape:window-width="1920"
     inkscape:window-height="1019"
     inkscape:window-x="1920"
     inkscape:window-y="32"
     inkscape:window-maximized="1"
     inkscape:pagecheckerboard="true"
     units="px" />
  <metadata
     id="metadata1009">
    <rdf:RDF>
      <cc:Work
         rdf:about="">
        <dc:format>image/svg+xml</dc:format>
        <dc:type
           rdf:resource="http://purl.org/dc/dcmitype/StillImage" />
        <dc:title></dc:title>
      </cc:Work>
    </rdf:RDF>
  </metadata>
  <g
     inkscape:label="Layer 1"
     inkscape:groupmode="layer"
     id="layer1">
    <g
       id="g2406">
      <path
         id="rect1591-0"
         style="fill:#f0f0f0;fill-opacity:1;stroke:none;stroke-width:0.136068;stroke-linecap:round;stroke-linejoin:bevel;stroke-opacity:1"
         d="M 2.8437496,4.1733103 H 36.84375 V 17.815287 H 2.8437496 Z" />
      <path
         id="rect1591"
         style="fill:#666666;fill-opacity:1;stroke:none;stroke-width:0.133128;stroke-linecap:round;stroke-linejoin:bevel;stroke-opacity:1"
         d="M 3.0536413,4.383205 V 17.605428 H 36.633889 V 17.131074 H 15.842748 l -0.30219,0.09961 -0.06313,-0.09961 h -4.973172 v 0.159539 H 3.3684561 V 4.6980198 h 7.1358029 v 2.7844717 h 4.516035 l 1.620804,-1.9857928 c 0.18595,-0.2123409 0.272573,-0.2779676 0.34187,-0.2829236 0.186378,-0.013326 0.296848,0.033806 0.352363,0.1504386 0.04541,0.1148575 0.02992,0.499523 0.02992,0.499523 l 0.01656,1.6187548 h 2.518519 c 1.232978,-2.8300774 5.832994,-2.6210324 6.439848,0 h 2.866127 c 1.000832,-0.9890177 2.338993,-1.6962462 3.957322,-1.846258 0.597594,-0.055394 0.870576,-0.00559 0.870576,0.1652778 0,0.1348927 -0.153365,0.2183606 -1.080046,0.5819159 -0.694028,0.2722829 -1.280175,0.6571297 -1.760008,1.0990643 h 5.439736 V 4.383205 Z M 22.976583,6.1591212 c -0.867036,-0.00731 -1.71993,0.4301453 -1.904138,1.3233703 h 3.885914 C 24.710217,6.6112645 23.836657,6.166372 22.976583,6.1591212 Z M 5.9499377,6.2220023 V 7.8045206 H 7.9227773 V 6.2220023 Z m 4.5543213,1.7641929 v 2.0666278 h 2.418171 l 1.686801,-2.0666278 z m 6.882721,0 0.02115,2.0666278 h 2.81751 C 19.792658,9.4417587 19.558315,8.721964 19.728743,7.9861952 Z m 3.665707,0 c 0.148482,0.8624318 1.371564,1.4350599 2.590172,1.6344136 0.869213,-0.1270487 1.424347,-0.6407682 1.388629,-1.6344136 z m 5.354148,0 c 0.0652,1.1883193 -0.315313,1.5323494 -1.152436,2.0666278 h 2.300034 c 0.271473,-0.7331553 0.671631,-1.4403197 1.19064,-2.0666278 z m 4.305011,0 c -0.56201,0.6661351 -0.916065,1.4049262 -1.062582,2.0666278 h 0.190938 c 1.570246,-0.8596941 2.916776,-0.7720694 3.793602,0 h 3.000085 V 7.9861952 Z M 15.45341,8.2019743 13.920082,10.052823 H 15.45546 Z M 5.9499377,8.7566717 V 15.766549 H 7.9227773 V 8.7566717 Z m 4.5543213,1.7578803 v 1.50611 h 0.812042 l 1.229253,-1.50611 z m 3.03329,0 -0.922555,1.113575 h 2.842188 l -0.0012,-1.113575 z m 3.875338,0 0.01123,1.096113 0.973631,0.02255 0.739814,-0.196923 -0.178312,0.584375 h 0.623809 c 0.274693,-0.477506 0.710286,-0.905817 1.315909,-1.22827 -0.100683,-0.08801 -0.197885,-0.180918 -0.290712,-0.27784 z m 8.134438,0 c 0.587435,0.459286 0.968414,0.974996 1.17785,1.50611 h 0.419999 c 0.0227,-0.497565 0.109814,-1.005117 0.256361,-1.50611 z m 8.499181,0 c 0.284873,0.403846 0.486078,0.911837 0.588145,1.50611 h 1.999238 v -1.50611 z m -3.065676,0.03607 c -0.03522,0.0011 -0.07079,0.0035 -0.10674,0.0074 -0.867028,0.0927 -1.413489,0.697941 -1.668027,1.462659 h 3.478377 c -0.313706,-0.845357 -0.915666,-1.49482 -1.70361,-1.470038 z m -9.248012,0.756048 c -0.43972,-0.01669 -0.760062,0.274258 -0.942231,0.71399 h 3.144377 c -0.580542,-0.201865 -1.321311,-0.392223 -2.202146,-0.71399 z m -11.228559,1.09177 v 1.297299 h 4.909553 l -0.0084,-0.466156 H 11.007963 V 12.39844 Z m 8.339723,0 -0.253573,0.831062 h -1.166291 l -0.0036,0.466237 h 1.831091 c -0.05882,-0.434848 -0.01045,-0.878332 0.150684,-1.297299 z m 1.831255,0 c -0.08311,0.392708 -0.0804,0.849415 0.0173,1.297299 h 4.713532 C 25.397037,13.0499 25.17368,12.672608 24.758976,12.39844 Z m 6.169633,0 c 0.105804,0.435957 0.103514,0.875691 0.01033,1.297299 h 0.476403 C 27.21209,13.283888 27.149261,12.84719 27.140173,12.39844 Z m 2.26101,0 c -0.08436,0.421024 -0.09025,0.870106 -0.02173,1.297299 h 3.827297 c 0.03839,-0.427325 -0.0017,-0.876333 -0.109282,-1.297299 z m 5.579028,0 c 0.01034,0.107647 0.01797,0.217478 0.02222,0.329899 0.02952,0.332485 0.0062,0.656924 -0.06182,0.9674 h 1.98858 V 12.39844 Z m -24.180649,1.717052 v 0.840654 h 4.932427 l -0.01525,-0.840654 z m 6.913055,0 -0.0065,0.840654 h 2.345616 c -0.187333,-0.263718 -0.32565,-0.547602 -0.413932,-0.840654 z m 3.396721,0 c 0.111018,0.304408 0.269985,0.592853 0.479846,0.840654 h 3.646851 c 0.211388,-0.239373 0.36247,-0.523577 0.42869,-0.840654 z m 5.916305,0 c -0.110984,0.296718 -0.266698,0.579721 -0.460335,0.840654 h 1.67147 C 27.752573,14.696648 27.59808,14.414625 27.476959,14.115492 Z m 2.447603,0 c 0.08994,0.310244 0.222548,0.597668 0.395814,0.840654 h 2.914004 c 0.170243,-0.242975 0.288085,-0.53048 0.358268,-0.840654 z m 5.345457,0 c -0.109174,0.299671 -0.260868,0.581942 -0.447054,0.840654 h 2.557543 v -0.840654 z m -24.019141,1.176457 v 0.61479 h 4.949643 l -0.01115,-0.61479 z m 6.904037,0 -0.0048,0.61479 h 3.407296 c -0.301308,-0.176697 -0.560858,-0.384704 -0.777855,-0.61479 z m 4.236391,0 c 0.354247,0.272613 0.804654,0.447494 1.359606,0.4614 0.575367,0.01442 1.129572,-0.156818 1.560629,-0.4614 z m 4.343542,0 c -0.218951,0.231905 -0.470245,0.439399 -0.747849,0.61479 h 3.715307 C 28.676098,15.728785 28.43033,15.52218 28.217348,15.291949 Z m 3.884192,0 c 0.282032,0.251218 0.632619,0.405948 1.048399,0.41303 0.534613,0.0091 0.951184,-0.148409 1.262947,-0.41303 z m 3.930922,0 c -0.212903,0.232825 -0.455961,0.439705 -0.721615,0.61479 h 3.552161 v -0.61479 z m -23.299084,0.992568 v 0.426804 h 4.964236 l -0.0078,-0.426804 z m 6.89633,0 -0.0033,0.426804 h 19.236578 v -0.426804 h -4.28476 c -0.738165,0.285174 -1.574148,0.344005 -2.39415,0.08403 -0.08238,-0.02612 -0.16271,-0.05425 -0.241276,-0.08403 h -5.247079 c -0.508822,0.182521 -1.070225,0.265944 -1.658352,0.217747 -0.413754,-0.03391 -0.793404,-0.109113 -1.138335,-0.217747 z" />
      <g
         id="g2389"
         style="fill:#666666;fill-opacity:1">
        <path
           d="m 3.0572142,22.211645 h 0.7732883 v -3.12702 l 1.089377,3.12702 h 0.6321773 l 1.0893769,-3.12702 v 3.12702 H 7.414722 V 18.040404 H 6.3535673 L 5.2416126,21.20129 4.118369,18.040404 H 3.0572142 Z"
           style="font-style:normal;font-variant:normal;font-weight:600;font-stretch:normal;font-size:5.64444px;line-height:6.61458px;font-family:'URW Gothic';-inkscape-font-specification:'URW Gothic Semi-Bold';letter-spacing:0px;word-spacing:0px;fill:#666666;fill-opacity:1;stroke:none;stroke-width:0.264583px;stroke-linecap:butt;stroke-linejoin:miter;stroke-opacity:1"
           id="path2348" />
        <path
           d="m 11.224717,19.084625 h -0.688621 v 0.417689 c -0.259645,-0.344311 -0.570089,-0.491066 -1.0216442,-0.491066 -0.9256882,0 -1.5917321,0.694266 -1.5917321,1.648176 0,0.942622 0.6603995,1.625599 1.5747988,1.625599 0.4402663,0 0.7394215,-0.135467 1.0385775,-0.479778 v 0.4064 h 0.688621 z m -1.631243,0.615244 c 0.536222,0 0.920044,0.400756 0.920044,0.970844 0,0.225778 -0.09031,0.485422 -0.225778,0.643466 -0.1524,0.186267 -0.3951107,0.282222 -0.6829771,0.282222 -0.5475107,0 -0.9256882,-0.372533 -0.9256882,-0.920044 0,-0.570088 0.3781775,-0.976488 0.9143993,-0.976488 z"
           style="font-style:normal;font-variant:normal;font-weight:600;font-stretch:normal;font-size:5.64444px;line-height:6.61458px;font-family:'URW Gothic';-inkscape-font-specification:'URW Gothic Semi-Bold';letter-spacing:0px;word-spacing:0px;fill:#666666;fill-opacity:1;stroke:none;stroke-width:0.264583px;stroke-linecap:butt;stroke-linejoin:miter;stroke-opacity:1"
           id="path2350" />
        <path
           d="m 11.664983,21.218224 c 0.03387,0.304799 0.08467,0.468488 0.208844,0.632177 0.2032,0.270933 0.5588,0.434622 0.936977,0.434622 0.626533,0 1.117599,-0.468489 1.117599,-1.066799 0,-0.474133 -0.237066,-0.722489 -0.869244,-0.9144 -0.310444,-0.09596 -0.310444,-0.09596 -0.383822,-0.129822 -0.09031,-0.04516 -0.146755,-0.118533 -0.146755,-0.214489 0,-0.146755 0.124178,-0.259644 0.287866,-0.259644 0.158045,0 0.259645,0.08467 0.293511,0.248356 h 0.733778 c -0.01129,-0.265289 -0.07338,-0.423333 -0.225778,-0.592667 -0.197555,-0.220133 -0.491066,-0.34431 -0.801511,-0.34431 -0.587021,0 -1.038577,0.417688 -1.038577,0.95391 0,0.4572 0.242711,0.716844 0.869244,0.925688 0.282222,0.09596 0.310444,0.107244 0.389467,0.158044 0.09031,0.05645 0.141111,0.141111 0.141111,0.242711 0,0.174978 -0.141111,0.3048 -0.338667,0.3048 -0.220133,0 -0.344311,-0.112889 -0.417688,-0.378177 z"
           style="font-style:normal;font-variant:normal;font-weight:600;font-stretch:normal;font-size:5.64444px;line-height:6.61458px;font-family:'URW Gothic';-inkscape-font-specification:'URW Gothic Semi-Bold';letter-spacing:0px;word-spacing:0px;fill:#666666;fill-opacity:1;stroke:none;stroke-width:0.264583px;stroke-linecap:butt;stroke-linejoin:miter;stroke-opacity:1"
           id="path2352" />
        <path
           d="M 14.487189,22.211645 H 15.2379 v -2.444042 h 0.451555 V 19.084625 H 15.2379 v -1.044221 h -0.750711 v 1.044221 h -0.366888 v 0.682978 h 0.366888 z"
           style="font-style:normal;font-variant:normal;font-weight:600;font-stretch:normal;font-size:5.64444px;line-height:6.61458px;font-family:'URW Gothic';-inkscape-font-specification:'URW Gothic Semi-Bold';letter-spacing:0px;word-spacing:0px;fill:#666666;fill-opacity:1;stroke:none;stroke-width:0.264583px;stroke-linecap:butt;stroke-linejoin:miter;stroke-opacity:1"
           id="path2354" />
        <path
           d="m 19.104329,20.981157 c 0.02258,-0.112889 0.02822,-0.180622 0.02822,-0.293511 0,-0.965199 -0.682977,-1.676398 -1.61431,-1.676398 -0.920044,0 -1.648177,0.728132 -1.648177,1.648176 0,0.914399 0.739422,1.625599 1.693333,1.625599 0.513644,0 0.914399,-0.186267 1.241776,-0.564444 0.118534,-0.146756 0.197556,-0.276578 0.248356,-0.434622 h -0.818444 c -0.191911,0.225778 -0.378178,0.310444 -0.688622,0.310444 -0.445911,0 -0.773288,-0.237066 -0.863599,-0.615244 z m -2.444043,-0.660399 c 0.118533,-0.4064 0.423333,-0.620889 0.869244,-0.620889 0.462844,0 0.767644,0.220133 0.863599,0.620889 z"
           style="font-style:normal;font-variant:normal;font-weight:600;font-stretch:normal;font-size:5.64444px;line-height:6.61458px;font-family:'URW Gothic';-inkscape-font-specification:'URW Gothic Semi-Bold';letter-spacing:0px;word-spacing:0px;fill:#666666;fill-opacity:1;stroke:none;stroke-width:0.264583px;stroke-linecap:butt;stroke-linejoin:miter;stroke-opacity:1"
           id="path2356" />
        <path
           d="m 19.61797,22.211645 h 0.750711 v -1.738487 c -0.01693,-0.462845 0.220133,-0.722489 0.671688,-0.739422 v -0.722488 h -0.05644 c -0.321733,0 -0.479778,0.09031 -0.677333,0.378177 v -0.3048 H 19.61797 Z"
           style="font-style:normal;font-variant:normal;font-weight:600;font-stretch:normal;font-size:5.64444px;line-height:6.61458px;font-family:'URW Gothic';-inkscape-font-specification:'URW Gothic Semi-Bold';letter-spacing:0px;word-spacing:0px;fill:#666666;fill-opacity:1;stroke:none;stroke-width:0.264583px;stroke-linecap:butt;stroke-linejoin:miter;stroke-opacity:1"
           id="path2358" />
        <path
           d="m 23.083646,22.211645 h 0.773289 v -1.597376 l 1.095021,1.597376 h 0.95391 l -1.128888,-1.540932 c 0.321733,-0.07902 0.479778,-0.1524 0.6604,-0.3048 0.287866,-0.242711 0.428977,-0.570088 0.428977,-0.987777 0,-0.428977 -0.1524,-0.784577 -0.440266,-1.027288 C 25.155156,18.119426 24.856,18.040404 24.285912,18.040404 h -1.202266 z m 0.773289,-2.178754 v -1.253065 h 0.34431 c 0.361245,0 0.5588,0.03951 0.682978,0.146755 0.135466,0.107244 0.2032,0.270933 0.2032,0.474133 0,0.440266 -0.254,0.632177 -0.852311,0.632177 z"
           style="font-style:normal;font-variant:normal;font-weight:600;font-stretch:normal;font-size:5.64444px;line-height:6.61458px;font-family:'URW Gothic';-inkscape-font-specification:'URW Gothic Semi-Bold';letter-spacing:0px;word-spacing:0px;fill:#666666;fill-opacity:1;stroke:none;stroke-width:0.264583px;stroke-linecap:butt;stroke-linejoin:miter;stroke-opacity:1"
           id="path2360" />
        <path
           d="m 29.422343,19.084625 h -0.688621 v 0.417689 c -0.259645,-0.344311 -0.570089,-0.491066 -1.021644,-0.491066 -0.925688,0 -1.591732,0.694266 -1.591732,1.648176 0,0.942622 0.660399,1.625599 1.574799,1.625599 0.440266,0 0.739421,-0.135467 1.038577,-0.479778 v 0.4064 h 0.688621 z M 27.7911,19.699869 c 0.536222,0 0.920044,0.400756 0.920044,0.970844 0,0.225778 -0.09031,0.485422 -0.225778,0.643466 -0.1524,0.186267 -0.395111,0.282222 -0.682977,0.282222 -0.547511,0 -0.925688,-0.372533 -0.925688,-0.920044 0,-0.570088 0.378177,-0.976488 0.914399,-0.976488 z"
           style="font-style:normal;font-variant:normal;font-weight:600;font-stretch:normal;font-size:5.64444px;line-height:6.61458px;font-family:'URW Gothic';-inkscape-font-specification:'URW Gothic Semi-Bold';letter-spacing:0px;word-spacing:0px;fill:#666666;fill-opacity:1;stroke:none;stroke-width:0.264583px;stroke-linecap:butt;stroke-linejoin:miter;stroke-opacity:1"
           id="path2362" />
        <path
           d="m 32.221985,21.184357 c -0.186266,0.287866 -0.400755,0.412044 -0.711199,0.412044 -0.519288,0 -0.908755,-0.4064 -0.908755,-0.95391 0,-0.553155 0.366889,-0.942622 0.891822,-0.942622 0.338666,0 0.575733,0.141111 0.728132,0.428978 h 0.846667 c -0.107245,-0.316089 -0.208845,-0.479778 -0.423334,-0.677333 -0.304799,-0.282222 -0.716843,-0.440266 -1.151465,-0.440266 -0.925688,0 -1.648177,0.716843 -1.648177,1.636887 0,0.908755 0.745066,1.636888 1.670754,1.636888 0.733778,0 1.292577,-0.400755 1.552222,-1.100666 z"
           style="font-style:normal;font-variant:normal;font-weight:600;font-stretch:normal;font-size:5.64444px;line-height:6.61458px;font-family:'URW Gothic';-inkscape-font-specification:'URW Gothic Semi-Bold';letter-spacing:0px;word-spacing:0px;fill:#666666;fill-opacity:1;stroke:none;stroke-width:0.264583px;stroke-linecap:butt;stroke-linejoin:miter;stroke-opacity:1"
           id="path2364" />
        <path
           d="m 36.602064,20.981157 c 0.02258,-0.112889 0.02822,-0.180622 0.02822,-0.293511 0,-0.965199 -0.682977,-1.676398 -1.61431,-1.676398 -0.920044,0 -1.648176,0.728132 -1.648176,1.648176 0,0.914399 0.739421,1.625599 1.693332,1.625599 0.513644,0 0.914399,-0.186267 1.241776,-0.564444 0.118534,-0.146756 0.197556,-0.276578 0.248356,-0.434622 H 35.73282 c -0.191911,0.225778 -0.378178,0.310444 -0.688622,0.310444 -0.445911,0 -0.773288,-0.237066 -0.863599,-0.615244 z m -2.444043,-0.660399 c 0.118533,-0.4064 0.423333,-0.620889 0.869244,-0.620889 0.462844,0 0.767644,0.220133 0.863599,0.620889 z"
           style="font-style:normal;font-variant:normal;font-weight:600;font-stretch:normal;font-size:5.64444px;line-height:6.61458px;font-family:'URW Gothic';-inkscape-font-specification:'URW Gothic Semi-Bold';letter-spacing:0px;word-spacing:0px;fill:#666666;fill-opacity:1;stroke:none;stroke-width:0.264583px;stroke-linecap:butt;stroke-linejoin:miter;stroke-opacity:1"
           id="path2366" />
      </g>
    </g>
  </g>
</svg>
