<?xml version="1.0" encoding="UTF-8" standalone="no"?>
<svg
   xmlns:dc="http://purl.org/dc/elements/1.1/"
   xmlns:cc="http://creativecommons.org/ns#"
   xmlns:rdf="http://www.w3.org/1999/02/22-rdf-syntax-ns#"
   xmlns:svg="http://www.w3.org/2000/svg"
   xmlns="http://www.w3.org/2000/svg"
   xmlns:sodipodi="http://sodipodi.sourceforge.net/DTD/sodipodi-0.dtd"
   xmlns:inkscape="http://www.inkscape.org/namespaces/inkscape"
   width="70mm"
   height="20mm"
   viewBox="0 0 70 20"
   version="1.1"
   id="svg8"
   sodipodi:docname="ppc64el.svg"
   inkscape:version="1.0.1 (unknown)">
  <defs
     id="defs2" />
  <sodipodi:namedview
     id="base"
     pagecolor="#ffffff"
     bordercolor="#666666"
     borderopacity="1.0"
     inkscape:pageopacity="0.0"
     inkscape:pageshadow="2"
     inkscape:zoom="2.8"
     inkscape:cx="113.31"
     inkscape:cy="-4.2275912"
     inkscape:document-units="mm"
     inkscape:current-layer="layer1"
     showgrid="false"
     inkscape:window-width="1920"
     inkscape:window-height="1019"
     inkscape:window-x="0"
     inkscape:window-y="32"
     inkscape:window-maximized="1"
     inkscape:snap-global="false"
     inkscape:document-rotation="0" />
  <metadata
     id="metadata5">
    <rdf:RDF>
      <cc:Work
         rdf:about="">
        <dc:format>image/svg+xml</dc:format>
        <dc:type
           rdf:resource="http://purl.org/dc/dcmitype/StillImage" />
        <dc:title />
      </cc:Work>
    </rdf:RDF>
  </metadata>
  <g
     inkscape:label="Layer 1"
     inkscape:groupmode="layer"
     id="layer1"
     transform="translate(0,-277)">
    <g
       id="g908">
      <g
         id="g887">
        <path
           d="m 5.6630912,290.51788 h 2.1265413 v -4.36173 h 0.6829768 c 1.6298307,0 2.3748967,-0.12418 3.0113067,-0.51224 0.931332,-0.58984 1.505653,-1.73848 1.505653,-3.05787 0,-1.31939 -0.558799,-2.40594 -1.55222,-3.01131 -0.651932,-0.38805 -1.428042,-0.52775 -2.9336953,-0.52775 H 5.6630912 Z m 2.1265413,-6.39514 v -3.04235 h 0.7140212 c 0.698499,0 1.0244652,0.031 1.3504314,0.10865 0.6208879,0.17075 0.9934209,0.71402 0.9934209,1.42804 0,0.5588 -0.248355,0.99342 -0.698499,1.24178 -0.3259663,0.17074 -0.9002877,0.26388 -1.7384865,0.26388 z"
           style="font-style:normal;font-weight:normal;font-size:10.5833px;line-height:6.61458px;font-family:sans-serif;letter-spacing:0px;word-spacing:0px;fill:#2d9cc0;fill-opacity:1;stroke:none;stroke-width:0.264583px;stroke-linecap:butt;stroke-linejoin:miter;stroke-opacity:1"
           id="path837" />
        <path
           d="m 14.308944,290.51788 h 2.126542 v -4.36173 h 0.682976 c 1.629831,0 2.374897,-0.12418 3.011307,-0.51224 0.931332,-0.58984 1.505653,-1.73848 1.505653,-3.05787 0,-1.31939 -0.558799,-2.40594 -1.55222,-3.01131 -0.651932,-0.38805 -1.428042,-0.52775 -2.933695,-0.52775 h -2.840563 z m 2.126542,-6.39514 v -3.04235 h 0.714021 c 0.698499,0 1.024465,0.031 1.350431,0.10865 0.620888,0.17075 0.993421,0.71402 0.993421,1.42804 0,0.5588 -0.248355,0.99342 -0.698499,1.24178 -0.325966,0.17074 -0.900288,0.26388 -1.738486,0.26388 z"
           style="font-style:normal;font-weight:normal;font-size:10.5833px;line-height:6.61458px;font-family:sans-serif;letter-spacing:0px;word-spacing:0px;fill:#2d9cc0;fill-opacity:1;stroke:none;stroke-width:0.264583px;stroke-linecap:butt;stroke-linejoin:miter;stroke-opacity:1"
           id="path839" />
        <path
           d="m 31.290196,287.32031 c -0.946854,0.9779 -1.738486,1.35043 -2.840562,1.35043 -2.126542,0 -3.849506,-1.76953 -3.849506,-3.91159 0,-0.93133 0.357011,-1.92476 0.946854,-2.60773 0.698499,-0.82268 1.69192,-1.2573 2.856085,-1.2573 1.334909,0 2.235197,0.43462 3.011307,1.44356 h 2.374896 c -0.450143,-0.99342 -0.853721,-1.53669 -1.629831,-2.1731 -1.055509,-0.85372 -2.40594,-1.31939 -3.802938,-1.31939 -3.24414,0 -5.898436,2.6543 -5.898436,5.89844 0,3.32175 2.68534,5.97604 6.038135,5.97604 2.359375,0 4.392783,-1.30386 5.29307,-3.39936 z"
           style="font-style:normal;font-weight:normal;font-size:10.5833px;line-height:6.61458px;font-family:sans-serif;letter-spacing:0px;word-spacing:0px;fill:#2d9cc0;fill-opacity:1;stroke:none;stroke-width:0.264583px;stroke-linecap:butt;stroke-linejoin:miter;stroke-opacity:1"
           id="path841" />
        <path
           d="m 38.554568,279.04698 -2.995785,4.50144 c -0.838198,1.24177 -1.13312,2.09549 -1.13312,3.21309 0,2.26624 1.707442,3.95816 4.02025,3.95816 2.297285,0 3.927116,-1.70744 3.927116,-4.11338 0,-2.11102 -1.334909,-3.6322 -3.166529,-3.6322 -0.372532,0 -0.574321,0.031 -0.931332,0.15523 l 2.74743,-4.08234 z m -0.1397,5.72769 c 1.086554,0 1.893708,0.85372 1.893708,2.03341 0,1.19521 -0.760587,2.01788 -1.847141,2.01788 -1.148643,0 -1.97132,-0.8382 -1.97132,-2.01788 0,-1.21073 0.77611,-2.03341 1.924753,-2.03341 z"
           style="font-style:normal;font-weight:normal;font-size:10.5833px;line-height:6.61458px;font-family:sans-serif;letter-spacing:0px;word-spacing:0px;fill:#2d9cc0;fill-opacity:1;stroke:none;stroke-width:0.264583px;stroke-linecap:butt;stroke-linejoin:miter;stroke-opacity:1"
           id="path843" />
        <path
           d="m 42.792121,287.11852 v 1.6764 h 4.951582 v 1.72296 h 2.064453 v -1.72296 h 1.210731 v -1.84714 h -1.210731 v -7.9008 h -1.738487 z m 4.951582,-0.17074 h -2.856085 l 2.856085,-4.42383 z"
           style="font-style:normal;font-weight:normal;font-size:10.5833px;line-height:6.61458px;font-family:sans-serif;letter-spacing:0px;word-spacing:0px;fill:#2d9cc0;fill-opacity:1;stroke:none;stroke-width:0.264583px;stroke-linecap:butt;stroke-linejoin:miter;stroke-opacity:1"
           id="path845" />
        <path
           d="m 60.844429,287.13404 c 0.06209,-0.31044 0.07761,-0.49671 0.07761,-0.80715 0,-2.6543 -1.878186,-4.61009 -4.439349,-4.61009 -2.530119,0 -4.532483,2.00236 -4.532483,4.53248 0,2.51459 2.033409,4.47039 4.65666,4.47039 1.41252,0 2.514597,-0.51223 3.414884,-1.55222 0.325966,-0.40358 0.543277,-0.76059 0.682977,-1.19521 H 58.45401 c -0.527755,0.62089 -1.039987,0.85372 -1.893708,0.85372 -1.226254,0 -2.126542,-0.65193 -2.374897,-1.69192 z m -6.721113,-1.81609 c 0.325966,-1.1176 1.164165,-1.70745 2.390419,-1.70745 1.27282,0 2.111019,0.60537 2.374897,1.70745 z"
           style="font-style:normal;font-weight:normal;font-size:10.5833px;line-height:6.61458px;font-family:sans-serif;letter-spacing:0px;word-spacing:0px;fill:#6cccef;fill-opacity:1;stroke:none;stroke-width:0.264583px;stroke-linecap:butt;stroke-linejoin:miter;stroke-opacity:1"
           id="path847" />
        <path
           d="m 62.272456,290.51788 h 2.064452 v -11.4709 h -2.064452 z"
           style="font-style:normal;font-weight:normal;font-size:10.5833px;line-height:6.61458px;font-family:sans-serif;letter-spacing:0px;word-spacing:0px;fill:#6cccef;fill-opacity:1;stroke:none;stroke-width:0.264583px;stroke-linecap:butt;stroke-linejoin:miter;stroke-opacity:1"
           id="path849" />
      </g>
      <g
         aria-label="Master Race"
         id="text4494"
         style="font-style:normal;font-weight:normal;font-size:10.5833px;line-height:6.61458px;font-family:sans-serif;letter-spacing:0px;word-spacing:0px;fill:#000000;fill-opacity:1;stroke:none;stroke-width:0.264583px;stroke-linecap:butt;stroke-linejoin:miter;stroke-opacity:1">
        <path
           d="m 30.763836,294.87964 h 0.773289 v -3.12702 l 1.089377,3.12702 h 0.632177 l 1.089377,-3.12702 v 3.12702 h 0.773288 v -4.17124 h -1.061155 l -1.111954,3.16088 -1.123244,-3.16088 h -1.061155 z"
           style="font-style:normal;font-variant:normal;font-weight:600;font-stretch:normal;font-size:5.64444px;font-family:'URW Gothic';-inkscape-font-specification:'URW Gothic Semi-Bold';fill:#666666;fill-opacity:1;stroke-width:0.264583px"
           id="path859" />
        <path
           d="m 38.931339,291.75262 h -0.688621 v 0.41769 c -0.259645,-0.34431 -0.570089,-0.49107 -1.021644,-0.49107 -0.925688,0 -1.591732,0.69427 -1.591732,1.64818 0,0.94262 0.660399,1.6256 1.574799,1.6256 0.440266,0 0.739421,-0.13547 1.038577,-0.47978 v 0.4064 h 0.688621 z m -1.631243,0.61524 c 0.536222,0 0.920044,0.40076 0.920044,0.97085 0,0.22577 -0.09031,0.48542 -0.225778,0.64346 -0.1524,0.18627 -0.395111,0.28222 -0.682977,0.28222 -0.547511,0 -0.925688,-0.37253 -0.925688,-0.92004 0,-0.57009 0.378177,-0.97649 0.914399,-0.97649 z"
           style="font-style:normal;font-variant:normal;font-weight:600;font-stretch:normal;font-size:5.64444px;font-family:'URW Gothic';-inkscape-font-specification:'URW Gothic Semi-Bold';fill:#666666;fill-opacity:1;stroke-width:0.264583px"
           id="path861" />
        <path
           d="m 39.371605,293.88622 c 0.03387,0.3048 0.08467,0.46849 0.208844,0.63217 0.2032,0.27094 0.5588,0.43463 0.936977,0.43463 0.626533,0 1.117599,-0.46849 1.117599,-1.0668 0,-0.47414 -0.237066,-0.72249 -0.869243,-0.9144 -0.310445,-0.096 -0.310445,-0.096 -0.383822,-0.12982 -0.09031,-0.0452 -0.146756,-0.11854 -0.146756,-0.21449 0,-0.14676 0.124178,-0.25965 0.287867,-0.25965 0.158044,0 0.259644,0.0847 0.29351,0.24836 h 0.733778 c -0.01129,-0.26529 -0.07338,-0.42333 -0.225778,-0.59267 -0.197555,-0.22013 -0.491066,-0.34431 -0.80151,-0.34431 -0.587022,0 -1.038577,0.41769 -1.038577,0.95391 0,0.4572 0.242711,0.71685 0.869243,0.92569 0.282222,0.096 0.310445,0.10724 0.389467,0.15804 0.09031,0.0564 0.141111,0.14112 0.141111,0.24271 0,0.17498 -0.141111,0.3048 -0.338667,0.3048 -0.220133,0 -0.344311,-0.11288 -0.417688,-0.37817 z"
           style="font-style:normal;font-variant:normal;font-weight:600;font-stretch:normal;font-size:5.64444px;font-family:'URW Gothic';-inkscape-font-specification:'URW Gothic Semi-Bold';fill:#666666;fill-opacity:1;stroke-width:0.264583px"
           id="path863" />
        <path
           d="m 42.193812,294.87964 h 0.75071 v -2.44404 h 0.451555 v -0.68298 h -0.451555 v -1.04422 h -0.75071 v 1.04422 h -0.366889 v 0.68298 h 0.366889 z"
           style="font-style:normal;font-variant:normal;font-weight:600;font-stretch:normal;font-size:5.64444px;font-family:'URW Gothic';-inkscape-font-specification:'URW Gothic Semi-Bold';fill:#666666;fill-opacity:1;stroke-width:0.264583px"
           id="path865" />
        <path
           d="m 46.810951,293.64915 c 0.02258,-0.11289 0.02822,-0.18062 0.02822,-0.29351 0,-0.9652 -0.682977,-1.6764 -1.61431,-1.6764 -0.920044,0 -1.648176,0.72813 -1.648176,1.64818 0,0.9144 0.739421,1.6256 1.693332,1.6256 0.513644,0 0.914399,-0.18627 1.241776,-0.56445 0.118534,-0.14675 0.197556,-0.27658 0.248356,-0.43462 h -0.818444 c -0.191911,0.22578 -0.378177,0.31044 -0.688622,0.31044 -0.44591,0 -0.773288,-0.23706 -0.863599,-0.61524 z m -2.444043,-0.6604 c 0.118533,-0.4064 0.423333,-0.62089 0.869244,-0.62089 0.462844,0 0.767644,0.22014 0.863599,0.62089 z"
           style="font-style:normal;font-variant:normal;font-weight:600;font-stretch:normal;font-size:5.64444px;font-family:'URW Gothic';-inkscape-font-specification:'URW Gothic Semi-Bold';fill:#666666;fill-opacity:1;stroke-width:0.264583px"
           id="path867" />
        <path
           d="m 47.324592,294.87964 h 0.750711 v -1.73849 c -0.01693,-0.46284 0.220133,-0.72249 0.671688,-0.73942 v -0.72249 h -0.05644 c -0.321733,0 -0.479778,0.0903 -0.677333,0.37818 v -0.3048 h -0.688622 z"
           style="font-style:normal;font-variant:normal;font-weight:600;font-stretch:normal;font-size:5.64444px;font-family:'URW Gothic';-inkscape-font-specification:'URW Gothic Semi-Bold';fill:#666666;fill-opacity:1;stroke-width:0.264583px"
           id="path869" />
        <path
           d="m 50.790268,294.87964 h 0.773289 v -1.59738 l 1.095021,1.59738 h 0.95391 L 52.4836,293.33871 c 0.321734,-0.079 0.479778,-0.1524 0.6604,-0.3048 0.287866,-0.24271 0.428977,-0.57009 0.428977,-0.98778 0,-0.42898 -0.152399,-0.78458 -0.440266,-1.02729 -0.270933,-0.23142 -0.570088,-0.31044 -1.140177,-0.31044 h -1.202266 z m 0.773289,-2.17876 v -1.25306 h 0.344311 c 0.361244,0 0.558799,0.0395 0.682977,0.14675 0.135466,0.10725 0.2032,0.27094 0.2032,0.47414 0,0.44026 -0.254,0.63217 -0.852311,0.63217 z"
           style="font-style:normal;font-variant:normal;font-weight:600;font-stretch:normal;font-size:5.64444px;font-family:'URW Gothic';-inkscape-font-specification:'URW Gothic Semi-Bold';fill:#666666;fill-opacity:1;stroke-width:0.264583px"
           id="path871" />
        <path
           d="m 57.128965,291.75262 h -0.688621 v 0.41769 c -0.259645,-0.34431 -0.570089,-0.49107 -1.021644,-0.49107 -0.925688,0 -1.591732,0.69427 -1.591732,1.64818 0,0.94262 0.660399,1.6256 1.574799,1.6256 0.440266,0 0.739421,-0.13547 1.038577,-0.47978 v 0.4064 h 0.688621 z m -1.631243,0.61524 c 0.536222,0 0.920044,0.40076 0.920044,0.97085 0,0.22577 -0.09031,0.48542 -0.225778,0.64346 -0.1524,0.18627 -0.39511,0.28222 -0.682977,0.28222 -0.547511,0 -0.925688,-0.37253 -0.925688,-0.92004 0,-0.57009 0.378177,-0.97649 0.914399,-0.97649 z"
           style="font-style:normal;font-variant:normal;font-weight:600;font-stretch:normal;font-size:5.64444px;font-family:'URW Gothic';-inkscape-font-specification:'URW Gothic Semi-Bold';fill:#666666;fill-opacity:1;stroke-width:0.264583px"
           id="path873" />
        <path
           d="m 59.928608,293.85235 c -0.186267,0.28787 -0.400756,0.41204 -0.7112,0.41204 -0.519288,0 -0.908755,-0.40639 -0.908755,-0.95391 0,-0.55315 0.366889,-0.94262 0.891822,-0.94262 0.338666,0 0.575733,0.14111 0.728133,0.42898 h 0.846666 c -0.107245,-0.31609 -0.208845,-0.47978 -0.423333,-0.67733 -0.3048,-0.28222 -0.716844,-0.44027 -1.151466,-0.44027 -0.925688,0 -1.648177,0.71684 -1.648177,1.63689 0,0.90875 0.745066,1.63689 1.670755,1.63689 0.733777,0 1.292576,-0.40076 1.552221,-1.10067 z"
           style="font-style:normal;font-variant:normal;font-weight:600;font-stretch:normal;font-size:5.64444px;font-family:'URW Gothic';-inkscape-font-specification:'URW Gothic Semi-Bold';fill:#666666;fill-opacity:1;stroke-width:0.264583px"
           id="path875" />
        <path
           d="m 64.308686,293.64915 c 0.02258,-0.11289 0.02822,-0.18062 0.02822,-0.29351 0,-0.9652 -0.682977,-1.6764 -1.61431,-1.6764 -0.920044,0 -1.648176,0.72813 -1.648176,1.64818 0,0.9144 0.739421,1.6256 1.693332,1.6256 0.513644,0 0.914399,-0.18627 1.241777,-0.56445 0.118533,-0.14675 0.197555,-0.27658 0.248355,-0.43462 h -0.818444 c -0.191911,0.22578 -0.378177,0.31044 -0.688622,0.31044 -0.44591,0 -0.773288,-0.23706 -0.863599,-0.61524 z m -2.444043,-0.6604 c 0.118533,-0.4064 0.423333,-0.62089 0.869244,-0.62089 0.462844,0 0.767644,0.22014 0.863599,0.62089 z"
           style="font-style:normal;font-variant:normal;font-weight:600;font-stretch:normal;font-size:5.64444px;font-family:'URW Gothic';-inkscape-font-specification:'URW Gothic Semi-Bold';fill:#666666;fill-opacity:1;stroke-width:0.264583px"
           id="path877" />
      </g>
    </g>
  </g>
</svg>
