<?xml version="1.0" encoding="UTF-8" standalone="no"?>
<!-- Created with Inkscape (http://www.inkscape.org/) -->

<svg
   width="512"
   height="128"
   viewBox="0 0 135.46667 33.866667"
   version="1.1"
   id="svg5"
   inkscape:version="1.1 (c68e22c387, 2021-05-23)"
   sodipodi:docname="bakushou-jiken-hassei.svg"
   xmlns:inkscape="http://www.inkscape.org/namespaces/inkscape"
   xmlns:sodipodi="http://sodipodi.sourceforge.net/DTD/sodipodi-0.dtd"
   xmlns="http://www.w3.org/2000/svg"
   xmlns:svg="http://www.w3.org/2000/svg">
  <sodipodi:namedview
     id="namedview7"
     pagecolor="#676767"
     bordercolor="#ffffff"
     borderopacity="1"
     inkscape:pageshadow="0"
     inkscape:pageopacity="1"
     inkscape:pagecheckerboard="true"
     inkscape:document-units="in"
     showgrid="false"
     units="px"
     inkscape:zoom="1.0625"
     inkscape:cx="233.88235"
     inkscape:cy="45.647059"
     inkscape:window-width="1920"
     inkscape:window-height="1027"
     inkscape:window-x="-8"
     inkscape:window-y="-8"
     inkscape:window-maximized="1"
     inkscape:current-layer="layer1" />
  <defs
     id="defs2" />
  <g
     inkscape:label="Layer 1"
     inkscape:groupmode="layer"
     id="layer1">
    <path
       d="m 1.9296736,11.288884 c 0.1354668,1.693335 -0.2935115,3.296359 -0.7224897,3.860804 -1.42240141,1.53529 0.1580446,2.98027 1.3546681,1.806224 C 3.577853,15.8496 3.3069194,13.614397 2.2457628,11.288884 Z M 13.150841,17.58809 v -1.873957 h 2.302935 V 17.58809 Z M 9.1094142,13.930487 h 0.338667 c 0.5418672,0 1.0837348,-0.135467 1.4901348,-0.31609 v 1.44498 H 7.7321683 l 0.1806225,0.654756 H 10.938216 V 17.58809 H 6.7839007 l 0.1806224,0.654757 H 10.351193 C 9.8319038,19.213692 9.1545698,20.16196 8.341769,21.019916 8.454658,20.207115 7.7999018,19.100803 5.6550107,18.423469 c 0.112889,-1.083735 0.1806224,-2.25778 0.225778,-3.499559 1.0611566,-0.880534 2.2577801,-2.009424 2.8448029,-2.709336 0.1354668,0.04515 0.2709336,0.04515 0.3838226,0.04515 z M 17.688978,8.2634586 V 10.024527 H 11.592972 V 8.2634586 Z m -6.096006,4.1091594 v -1.715913 h 6.096006 v 1.715913 z m 3.860804,0.880535 v 1.806224 h -2.302935 v -0.92569 c 0.587022,-0.09031 0.790223,-0.316089 0.835378,-0.632179 l -2.46098,-0.225778 c 0.04516,-0.02258 0.06773,-0.06773 0.06773,-0.09031 v -0.158044 h 6.096006 v 0.428978 z m 6.050851,4.989694 c 0.316089,0 0.564445,-0.112889 0.6096,-0.361245 -0.857956,-0.790223 -2.280357,-1.85138 -2.280357,-1.85138 l -1.219202,1.557868 h -0.948267 v -1.873957 h 3.476981 c 0.293511,0 0.519289,-0.112889 0.587023,-0.361245 -0.72249,-0.745067 -1.941691,-1.806224 -1.941691,-1.806224 l -1.083734,1.512713 h -1.038579 v -0.903112 c 0.587022,-0.09031 0.790223,-0.31609 0.835378,-0.632179 h -0.135466 c 0.8128,-0.09031 1.873957,-0.474134 1.896535,-0.632178 V 8.5795478 c 0.383822,-0.067733 0.654756,-0.225778 0.767645,-0.4064004 L 18.637246,6.3895011 17.485778,7.6087024 H 11.728439 L 9.1094142,6.5701235 V 11.717862 L 7.1225677,10.476083 C 6.8967897,11.311462 6.3775003,12.891908 5.9033665,14.156265 5.9485221,12.169418 5.9259443,9.9793715 5.9485221,7.5861246 6.4678115,7.4958134 6.7161673,7.2926132 6.7839007,6.9539462 L 3.5326974,6.6378569 c 0,9.9793881 0.5418672,16.1431271 -2.86738069,20.5006431 l 0.24835581,0.338667 c 2.91253628,-2.05458 4.13173758,-4.741338 4.62844918,-8.308631 0.4064004,0.767646 0.7450674,1.693335 0.7676452,2.506136 0.3160892,0.270934 0.6547562,0.383823 0.9482676,0.383823 -0.564445,0.474134 -1.1740456,0.903112 -1.8288018,1.286934 l 0.1806224,0.31609 c 1.7384906,-0.587023 3.3189367,-1.332091 4.6510269,-2.235203 0.225778,0.451556 0.383823,0.948268 0.4064,1.399824 1.44498,1.12889 2.98027,-1.106312 0.564445,-2.144891 0.880535,-0.72249 1.603024,-1.53529 2.167469,-2.438402 h 2.935114 c 0.51929,0.880534 1.174046,1.761068 1.919113,2.528713 l -1.33209,-0.654756 c -0.225778,0.767645 -0.677334,2.212624 -1.016001,3.025425 l 0.02258,0.02258 h -0.451556 v -3.18347 c 0.496712,-0.09031 0.72249,-0.248356 0.767645,-0.587023 l -3.002847,-0.270933 v 3.928537 c -2.393247,0.790223 -4.8090718,1.557868 -5.8928063,1.828802 l 1.6030239,2.325513 c 0.2032002,-0.09031 0.3838226,-0.316089 0.451556,-0.6096 1.7384904,-1.354668 2.9802694,-2.438403 3.8382264,-3.206048 v 1.693335 c 0,0.225778 -0.06773,0.316089 -0.316089,0.316089 -0.293512,0 -1.512713,-0.09031 -1.512713,-0.09031 v 0.316089 c 0.699912,0.112889 0.993423,0.338667 1.174046,0.587023 0.225778,0.316089 0.270933,0.767645 0.293511,1.354668 2.302936,-0.2032 2.596447,-0.948267 2.596447,-2.483558 v -1.53529 c 1.309512,0.767645 2.957692,2.122313 3.702759,3.251203 2.280358,0.790223 2.98027,-3.251203 -2.822225,-3.612448 0.72249,-0.51929 1.715913,-1.174046 2.212625,-1.603024 0.248356,0.02258 0.428978,0.02258 0.541867,0 0.609601,0.474134 1.241779,0.903112 1.919113,1.219201 0.112889,-1.016001 0.474134,-1.828802 1.309512,-2.551291 V 19.98134 c -1.806224,-0.135467 -3.838226,-0.767645 -5.147738,-1.73849 z"
       id="path13372"
       style="font-weight:bold;font-size:22.5778px;line-height:1.25;font-family:'Noto Serif CJK JP';-inkscape-font-specification:'Noto Serif CJK JP, Bold';letter-spacing:0px;word-spacing:0px;stroke:#ffffff;stroke-width:0.396875" />
    <path
       d="m 28.21019,10.159994 c 0.541867,0.835378 1.038579,2.032002 1.083734,3.070581 1.828802,1.557868 3.928538,-1.580446 0.225778,-3.070581 h 4.131738 c 0.316089,0 0.541867,-0.112889 0.587023,-0.361245 C 33.470817,9.0311038 32.116149,7.9247916 32.116149,7.9247916 l -1.151468,1.580446 h -2.822225 c 0.31609,-0.5192894 0.609601,-1.0385788 0.880535,-1.6030238 0.496711,0.045156 0.790223,-0.1580446 0.880534,-0.4289782 L 26.652322,6.3217677 c -0.790224,3.0931587 -2.167469,6.2314733 -3.49956,8.1957413 l 0.270934,0.203201 c 1.580446,-1.12889 3.048003,-2.664181 4.31236,-4.560716 z m 15.488371,9.302054 c 0.338667,0 0.587023,-0.112889 0.654756,-0.361245 -0.970845,-0.903112 -2.596447,-2.212625 -2.596447,-2.212625 l -1.422401,1.919114 h -5.621873 c 0.180623,-0.948268 0.270934,-1.964269 0.338667,-3.025426 2.032002,-0.2032 3.90596,-0.474134 5.463828,-0.767645 0.72249,0.293511 1.219201,0.270934 1.490135,0.06773 l -1.85138,-1.806224 c 0.880535,-0.587022 0.92569,-2.302935 -1.512712,-3.115736 h 5.260627 c 0.338667,0 0.587023,-0.112889 0.632179,-0.361245 C 43.630828,8.9859482 42.140693,7.8344804 42.140693,7.8344804 L 40.83118,9.5052376 h -3.951115 c 0.316089,-0.4967116 0.632179,-1.016001 0.903112,-1.580446 0.51929,0.045156 0.790223,-0.1580446 0.903112,-0.4289782 l -3.38667,-1.1514679 c -0.587023,2.6867583 -1.670757,5.3283615 -2.822225,7.0216965 l 0.270934,0.180622 c 1.354668,-0.835379 2.619025,-1.941691 3.680181,-3.38667 h 0.654756 c 0.632179,0.767645 1.241779,1.85138 1.377246,2.867381 -3.409248,1.151467 -8.940809,2.370669 -13.54668,2.889958 l 0.04516,0.338667 c 2.348092,0.04516 4.83165,-0.04516 7.224897,-0.225778 -0.04516,0.970845 -0.112889,1.896535 -0.248356,2.77707 H 23.53659 l 0.2032,0.654756 h 8.060275 c -0.72249,3.160892 -2.709336,5.712183 -8.556986,7.789341 l 0.135466,0.316089 c 7.902231,-1.490135 10.340633,-4.267204 11.19859,-8.10543 h 0.02258 c 1.264357,4.583293 3.793071,6.683029 7.834497,8.060275 0.293512,-1.286935 1.016001,-2.144891 2.099736,-2.415825 l 0.02258,-0.270934 c -4.176894,-0.6096 -7.834497,-1.964268 -9.505255,-5.373516 z"
       id="path13374"
       style="font-weight:bold;font-size:22.5778px;line-height:1.25;font-family:'Noto Serif CJK JP';-inkscape-font-specification:'Noto Serif CJK JP, Bold';letter-spacing:0px;word-spacing:0px;stroke:#ffffff;stroke-width:0.396875" />
    <path
       d="m 61.354357,22.352006 h -3.612448 v -2.077157 h 3.612448 z m -3.612448,-4.786493 h 3.612448 v 2.077157 h -3.612448 z m -6.231473,-3.318937 v -2.280358 h 3.544715 v 2.280358 z m 9.911655,-2.280358 v 2.280358 h -3.680182 v -2.280358 z m 2.596447,7.676452 h -0.112889 v -1.693335 c 0.451556,-0.09031 0.72249,-0.270933 0.857956,-0.451556 l -2.46098,-1.828802 -1.174046,1.286935 h -3.38667 v -2.077158 h 3.680182 v 0.767645 h 0.474134 c 0.880534,0 2.212624,-0.519289 2.235202,-0.677334 v -2.619024 c 0.4064,-0.09031 0.699912,-0.270934 0.812801,-0.428979 l -2.528714,-1.873957 -1.219201,1.286934 H 57.741909 V 9.5503932 h 8.489253 c 0.338667,0 0.587023,-0.112889 0.632179,-0.3612448 C 65.802184,8.3086142 64.131427,7.0668352 64.131427,7.0668352 l -1.512713,1.8513796 h -4.876805 v -1.580446 c 0.564445,-0.090311 0.790223,-0.3160892 0.812801,-0.6547563 l -3.499559,-0.338667 v 2.5738693 h -9.053698 l 0.2032,0.6321784 h 8.850498 v 1.7836458 h -3.364092 l -2.844803,-1.083734 v 5.960539 h 0.361245 c 1.083734,0 2.302935,-0.564445 2.302935,-0.790223 v -0.541867 h 3.544715 v 2.077158 h -6.637873 l 0.2032,0.609601 h 6.434673 v 2.077157 h -9.098854 l 0.180623,0.632179 h 8.918231 v 2.077157 h -6.818496 l 0.2032,0.632179 h 6.615296 v 1.512712 c 0,0.293512 -0.158045,0.428979 -0.564445,0.428979 -0.541867,0 -3.341515,-0.180623 -3.341515,-0.180623 v 0.316089 c 1.309513,0.180623 1.873958,0.474134 2.302936,0.835379 0.406401,0.361245 0.541867,0.92569 0.632179,1.693335 3.206047,-0.270934 3.657603,-1.241779 3.657603,-3.025425 v -1.580446 h 3.612448 v 1.354668 h 0.428979 c 0.857956,0 2.099735,-0.541867 2.122313,-0.72249 v -3.341514 h 2.889958 c 0.31609,0 0.541868,-0.112889 0.609601,-0.361245 -0.812801,-0.790223 -2.190047,-1.986847 -2.190047,-1.986847 z"
       id="path13376"
       style="font-weight:bold;font-size:22.5778px;line-height:1.25;font-family:'Noto Serif CJK JP';-inkscape-font-specification:'Noto Serif CJK JP, Bold';letter-spacing:0px;word-spacing:0px;stroke:#ffffff;stroke-width:0.396875" />
    <path
       d="m 73.139924,12.598396 c 0.790223,-1.354668 1.490134,-2.8673804 2.099735,-4.492982 0.519289,0.022578 0.812801,-0.1580446 0.903112,-0.4289782 L 72.598056,6.3895011 C 71.7401,10.679283 69.979032,15.104532 68.240541,17.90418 l 0.270933,0.180622 c 0.948268,-0.767645 1.828802,-1.64818 2.641603,-2.641603 v 12.079124 h 0.474134 c 1.061157,0 2.144891,-0.564445 2.190047,-0.745068 V 13.546664 c 0.428978,-0.09031 0.6096,-0.248356 0.677334,-0.451556 z m 12.733879,5.554139 H 83.525712 V 12.66613 h 5.125161 c 0.316089,0 0.564445,-0.112889 0.632178,-0.361245 -0.948267,-0.857956 -2.506136,-2.144891 -2.506136,-2.144891 l -1.399823,1.85138 h -1.85138 V 7.653858 C 84.15789,7.5635468 84.315935,7.315191 84.383668,6.9991018 L 80.793798,6.6604347 V 12.011374 H 78.31024 c 0.4064,-0.903113 0.790223,-1.85138 1.106312,-2.8673812 0.496712,0 0.790223,-0.1806224 0.880534,-0.4741338 L 76.797527,7.6087024 c -0.383822,3.3866696 -1.286934,6.9991186 -2.302935,9.3923646 l 0.270933,0.158045 c 1.264357,-1.196623 2.348092,-2.709336 3.228626,-4.492982 h 2.799647 v 5.486405 h -6.254051 l 0.180623,0.654757 h 6.073428 V 27.5449 h 0.564445 c 1.016001,0 2.167469,-0.519289 2.167469,-0.790223 v -7.947385 h 5.779917 c 0.316089,0 0.564445,-0.112889 0.632178,-0.361245 -0.970845,-0.92569 -2.619025,-2.235203 -2.619025,-2.235203 z"
       id="path13378"
       style="font-weight:bold;font-size:22.5778px;line-height:1.25;font-family:'Noto Serif CJK JP';-inkscape-font-specification:'Noto Serif CJK JP, Bold';letter-spacing:0px;word-spacing:0px;stroke:#ffffff;stroke-width:0.396875" />
    <path
       d="m 100.14293,19.710404 c 0.0226,-0.248356 0.0226,-0.51929 0.0226,-0.767646 v -3.048003 h 2.73191 v 3.815649 z m 10.72446,2.190046 h -0.22578 c -0.36125,1.083735 -0.69991,2.077158 -0.90311,2.415825 -0.15805,0.180622 -0.33867,0.248356 -0.58703,0.270934 h -1.35466 -1.58045 c -0.63218,0 -0.72249,-0.112889 -0.72249,-0.474134 V 20.36516 h 4.85423 c 0.33866,0 0.56444,-0.112889 0.63218,-0.361245 -0.94827,-0.880534 -2.5513,-2.144891 -2.5513,-2.144891 l -1.4224,1.85138 h -1.51271 v -3.431826 -0.383823 h 1.2192 c 0.31609,0 0.56445,-0.112889 0.6096,-0.361245 -0.83538,-0.835378 -2.28036,-2.032002 -2.28036,-2.032002 l -1.26435,1.738491 h -7.495833 c 2.393247,-1.670757 4.086583,-3.815648 5.147743,-6.2088952 0.51929,-0.045156 0.74506,-0.112889 0.90311,-0.3612448 L 99.894576,6.5701235 98.472174,7.992525 h -4.967116 l 0.2032,0.6321784 H 98.51733 C 98.065774,9.9116381 97.433595,11.153417 96.643372,12.327463 96.86915,11.356617 96.011194,10.001949 92.895457,9.7310156 l -0.180622,0.1354668 c 0.767645,0.7224896 1.467557,1.9642686 1.53529,3.0931586 0.654757,0.496712 1.309513,0.496712 1.761069,0.2032 -1.309513,1.693335 -3.002848,3.160892 -5.012272,4.244627 l 0.158045,0.270934 c 1.693335,-0.51929 3.206047,-1.219202 4.51556,-2.032003 l 0.06773,0.248356 h 1.738491 v 3.070581 c 0,0.248356 0,0.496712 -0.02258,0.745068 h -5.125161 l 0.180623,0.654756 h 4.899382 c -0.293511,2.506136 -1.580446,4.92196 -5.937961,6.908807 l 0.158044,0.248356 c 6.502407,-1.603024 8.105431,-4.470405 8.444095,-7.157163 h 2.82222 v 4.425249 c 0,1.783646 0.47415,2.280358 2.64161,2.280358 h 1.98684 c 3.38667,0 4.31236,-0.474134 4.31236,-1.557869 0,-0.496711 -0.18062,-0.8128 -0.88052,-1.106312 z M 109.46756,9.0311038 c -0.49671,0.790223 -1.51271,2.0320022 -2.46098,2.9576922 -0.69991,-0.496712 -1.37724,-1.061157 -1.98684,-1.693335 1.26435,-0.5418676 2.61902,-1.2192016 3.47698,-1.7836466 0.54186,0.090311 0.72249,-0.022578 0.85795,-0.2483558 l -2.75449,-1.6030239 c -0.42898,0.7902231 -1.26435,2.0545799 -2.07716,3.0705809 -0.83537,-0.9934232 -1.53529,-2.144891 -2.00942,-3.4544035 l -0.31609,0.1580446 c 1.28694,5.3735163 4.06401,8.6021423 7.96996,10.7018773 0.40641,-1.196623 1.21921,-2.009424 2.32552,-2.190046 l 0.0677,-0.248356 c -1.69333,-0.541867 -3.38667,-1.286935 -4.92196,-2.280358 1.35467,-0.428978 2.77707,-0.993423 3.70276,-1.490135 0.51929,0.09031 0.72249,-0.04516 0.85796,-0.248356 z"
       id="path13380"
       style="font-weight:bold;font-size:22.5778px;line-height:1.25;font-family:'Noto Serif CJK JP';-inkscape-font-specification:'Noto Serif CJK JP, Bold';letter-spacing:0px;word-spacing:0px;stroke:#ffffff;stroke-width:0.396875" />
    <path
       d="m 130.2391,25.783832 h -4.65103 v -6.77334 h 6.68303 c 0.31609,0 0.54187,-0.112889 0.6096,-0.361245 -1.08373,-0.92569 -2.88996,-2.25778 -2.88996,-2.25778 l -1.58044,1.964269 h -2.82223 v -5.779917 h 7.29263 c 0.36125,0 0.6096,-0.112889 0.67733,-0.361245 -1.10631,-0.92569 -2.8448,-2.190047 -2.8448,-2.190047 l -1.55787,1.919113 h -3.56729 V 7.4958134 c 0.6096,-0.090311 0.76765,-0.3160892 0.83538,-0.6547563 L 122.67553,6.4798123 V 11.94364 h -3.63502 c 0.56444,-0.970845 1.03858,-2.0320019 1.49013,-3.1834698 0.51929,0 0.8128,-0.2032002 0.88054,-0.4741338 l -3.79307,-1.12889 c -0.79023,4.0865816 -2.46098,8.1731636 -4.19947,10.7470336 l 0.24835,0.2032 c 1.94169,-1.354668 3.61245,-3.206048 5.01227,-5.531561 h 3.99627 v 5.779917 h -6.38951 l 0.18062,0.654756 h 6.20889 v 6.77334 h -9.05369 l 0.18062,0.654756 h 20.36518 c 0.33866,0 0.58702,-0.112889 0.65475,-0.361245 -1.12889,-0.948267 -2.95769,-2.348091 -2.95769,-2.348091 z"
       id="path13382"
       style="font-weight:bold;font-size:22.5778px;line-height:1.25;font-family:'Noto Serif CJK JP';-inkscape-font-specification:'Noto Serif CJK JP, Bold';letter-spacing:0px;word-spacing:0px;stroke:#ffffff;stroke-width:0.396875" />
  </g>
</svg>
