<?xml version="1.0" encoding="UTF-8" standalone="no"?>
<!-- Created with Inkscape (http://www.inkscape.org/) -->

<svg
   xmlns:dc="http://purl.org/dc/elements/1.1/"
   xmlns:cc="http://creativecommons.org/ns#"
   xmlns:rdf="http://www.w3.org/1999/02/22-rdf-syntax-ns#"
   xmlns:svg="http://www.w3.org/2000/svg"
   xmlns="http://www.w3.org/2000/svg"
   xmlns:sodipodi="http://sodipodi.sourceforge.net/DTD/sodipodi-0.dtd"
   xmlns:inkscape="http://www.inkscape.org/namespaces/inkscape"
   width="150mm"
   height="80mm"
   viewBox="0 0 531.49606 283.46457"
   id="svg2"
   version="1.1"
   inkscape:version="0.91 r13725"
   sodipodi:docname="pakreq.svg"
   inkscape:export-filename="/home/kay/Documents/aoscc/2016/stickers/issue-labels/png/pakreq.png"
   inkscape:export-xdpi="300"
   inkscape:export-ydpi="300">
  <defs
     id="defs4" />
  <sodipodi:namedview
     id="base"
     pagecolor="#ffffff"
     bordercolor="#666666"
     borderopacity="1.0"
     inkscape:pageopacity="0.0"
     inkscape:pageshadow="2"
     inkscape:zoom="1.4"
     inkscape:cx="84.7239"
     inkscape:cy="111.28662"
     inkscape:document-units="px"
     inkscape:current-layer="layer1"
     showgrid="false"
     inkscape:window-width="1366"
     inkscape:window-height="713"
     inkscape:window-x="0"
     inkscape:window-y="27"
     inkscape:window-maximized="1" />
  <metadata
     id="metadata7">
    <rdf:RDF>
      <cc:Work
         rdf:about="">
        <dc:format>image/svg+xml</dc:format>
        <dc:type
           rdf:resource="http://purl.org/dc/dcmitype/StillImage" />
        <dc:title />
      </cc:Work>
    </rdf:RDF>
  </metadata>
  <g
     inkscape:label="Layer 1"
     inkscape:groupmode="layer"
     id="layer1"
     transform="translate(0,-768.8976)">
    <rect
       style="fill:#dfbbb0;fill-opacity:1"
       id="rect4254-8"
       width="336.42856"
       height="109.39434"
       x="97.533752"
       y="857.66498"
       ry="11" />
    <rect
       style="fill:#f9d0c4;fill-opacity:1"
       id="rect4254"
       width="336.42856"
       height="109.39434"
       x="97.533752"
       y="853.07562"
       ry="11" />
    <path
       inkscape:connector-curvature="0"
       d="m 148.28131,890.83108 c -1.5493,-1.5481 -3.65899,-2.40451 -5.83461,-2.40451 l -8.10912,0 c -4.51605,0 -8.24096,3.72208 -8.24096,8.23468 l 0,8.13585 c 0,2.17395 0.89002,4.28204 2.40636,5.83016 l 19.97611,19.96085 c 1.2856,1.28461 3.36232,1.28461 4.64791,0 l 15.13043,-15.11886 c 1.28559,-1.28462 1.28559,-3.35976 0,-4.64436 l -19.97612,-19.99381 z m -17.63568,17.65516 c -1.02188,-0.98816 -1.5493,-2.30572 -1.5493,-3.72207 l 0,-8.10292 c 0,-2.89862 2.3734,-5.23726 5.24125,-5.23726 l 8.14208,0 c 1.38449,0 2.73601,0.52703 3.72493,1.54812 l 20.23981,20.19142 -15.59191,15.58001 -20.20686,-20.2573 z m 2.07672,-13.47193 6.59278,0 0,6.58774 -6.62574,0 0,-6.58774 z"
       id="path4218"
       style="fill:#332a28;fill-opacity:1" />
    <text
       xml:space="preserve"
       style="font-style:normal;font-variant:normal;font-weight:bold;font-stretch:normal;font-size:60px;line-height:125%;font-family:'Noto Sans';-inkscape-font-specification:'Noto Sans, Bold';text-align:start;letter-spacing:0px;word-spacing:0px;writing-mode:lr-tb;text-anchor:start;fill:#332a28;fill-opacity:1;stroke:none;stroke-width:1px;stroke-linecap:butt;stroke-linejoin:miter;stroke-opacity:1"
       x="190.34164"
       y="924.21582"
       id="text4250"
       sodipodi:linespacing="125%"><tspan
         sodipodi:role="line"
         id="tspan4138"
         x="190.34164"
         y="924.21582">pakreq</tspan></text>
  </g>
</svg>
